<?xml version="1.0" encoding="UTF-8"?>
<svg version="1.1" xmlns="http://www.w3.org/2000/svg" width="1350" height="1080">
<path d="M0 0 C445.5 0 891 0 1350 0 C1350 356.4 1350 712.8 1350 1080 C904.5 1080 459 1080 0 1080 C0 723.6 0 367.2 0 0 Z " fill="#000000" transform="translate(0,0)"/>
<path d="M0 0 C3.77329525 1.44374156 7.34478927 3.21710027 10.93453979 5.06655884 C14.1318267 6.71048317 17.35810361 8.29585562 20.58203125 9.88671875 C21.60472862 10.39328255 21.60472862 10.39328255 22.64808655 10.91007996 C30.47853673 14.76748809 38.4503615 18.29439063 46.4375 21.8125 C47.94499442 22.47921001 49.4523994 23.14612229 50.9597168 23.81323242 C57.30138072 26.61705027 63.64780426 29.40985402 70.00097656 32.1875 C103.74473469 46.94618884 103.74473469 46.94618884 118.09765625 55.69921875 C127.66373041 61.48285619 137.8548751 65.12935344 148.625 67.96875 C153.29311742 69.39511921 157.53241845 71.50381485 161.91796875 73.625 C165.62002851 75.27661601 169.30004247 76.25906246 173.21875 77.25 C183.11359674 79.91827328 191.9337521 84.32516678 200.76171875 89.43383789 C205.22984525 91.91735872 209.26005045 93.388582 214.28125 94.40625 C221.52263835 95.92736379 227.5192606 98.87643825 234 102.375 C235.18154878 103.00154748 236.36327396 103.6277624 237.54516602 104.25366211 C252.87731411 112.43813991 267.36860482 121.91003337 281.90844727 131.40429688 C302.00322689 144.49981593 322.94391401 156.85934475 345.4609375 165.296875 C353.7214783 168.51035769 360.00462612 172.77639098 367.03320312 178.10644531 C373.60387977 182.97454205 380.37303112 186.13931828 387.8984375 189.2421875 C391.46151706 190.71987984 394.70805339 192.47767467 398 194.5 C402.76414048 197.42165521 407.61374443 199.59584231 412.75 201.75 C419.76522803 204.73117863 425.77594405 208.33933924 431.95336914 212.77880859 C442.65709536 220.42338097 453.99282656 226.54255316 466.390625 230.921875 C469 232 469 232 472 234.5625 C475.07863642 237.0638921 476.75343568 237.65429798 480.5 238.6875 C489.97517338 241.33529672 498.71241877 245.72390285 507.59399414 249.89746094 C509.63529666 250.83287668 511.68455146 251.68864224 513.76953125 252.51953125 C517.37809178 254.17327302 520.19157948 256.17645712 523.3125 258.625 C523.87300049 259.06303955 524.43350098 259.5010791 525.01098633 259.95239258 C528.52976192 262.73406305 531.88461452 265.65030404 535.1875 268.6875 C543.11179635 275.94502708 551.47652828 281.77692217 561.85546875 284.84375 C565.4522162 286.16628074 568.41703635 288.04908556 571.5625 290.1875 C577.16730017 293.91354599 582.82571124 297.1202596 588.8671875 300.1015625 C591.51891628 301.70847046 593.23258526 303.1234686 595.4296875 305.234375 C601.20638425 310.43408896 608.27872936 313.36810692 615.25 316.625 C616.60600149 317.27232271 617.96147407 317.92075456 619.31640625 318.5703125 C627.11661961 322.29000656 634.99324049 325.74559901 643 329 C644.87256263 329.77637373 646.74510415 330.5527992 648.61712646 331.33047485 C651.30811453 332.44587337 654.00295129 333.55178458 656.69824219 334.65673828 C658.05995648 335.21639573 659.42064765 335.77854942 660.78027344 336.34326172 C677.73715585 343.40006345 677.73715585 343.40006345 695.5 347.875 C706.75747773 350.24054879 717.41414134 356.60689188 727.4375 362 C728.34846436 362.48581543 729.25942871 362.97163086 730.19799805 363.47216797 C737.64816789 367.55618654 744.14569945 372.44351187 750.5 378.0625 C753.07099378 380.31660385 755.73947463 382.16678669 758.625 384 C763.47207292 387.15142454 767.12203764 390.36611292 769 396 C769.97746411 411.91183381 767.28823989 421.82259563 758 435 C755.68316226 437.31683774 754.83907551 437.36950998 751.6875 437.875 C747.79947309 438.54334916 744.45002676 439.60861571 740.7890625 441.046875 C730.86686209 444.14277579 720.53739072 443.52153436 710.24194336 443.41162109 C706.67858448 443.37490814 703.11626359 443.37060409 699.55273438 443.37109375 C697.26822024 443.36126754 694.98371308 443.34961271 692.69921875 443.3359375 C691.64385422 443.33371185 690.58848969 443.33148621 689.50114441 443.32919312 C684.38277179 443.26378706 679.90961977 442.86285496 674.99586487 441.45794678 C671.01752995 440.54512664 666.94700363 440.65938761 662.8828125 440.62109375 C661.47526199 440.59560204 661.47526199 440.59560204 660.03927612 440.56959534 C657.0679175 440.51684209 654.09657084 440.47630783 651.125 440.4375 C648.13207185 440.39354287 645.13924967 440.34690581 642.14645386 440.29469299 C640.29019208 440.26277211 638.43383588 440.23587075 636.5774231 440.21446228 C635.32504349 440.19422752 635.32504349 440.19422752 634.04736328 440.17358398 C633.31204376 440.16407211 632.57672424 440.15456024 631.81912231 440.14476013 C630 440 630 440 628 439 C625.84132507 438.92373671 623.68231381 438.85278035 621.52270508 438.81054688 C608.93359982 438.52930211 593.46033812 437.73016906 582 432 C579.80263725 431.89232793 577.60225053 431.84438009 575.40234375 431.82421875 C574.02798065 431.80095083 572.65363177 431.77683108 571.27929688 431.75195312 C569.13427198 431.71741438 566.98974632 431.68783519 564.84448242 431.67407227 C556.83161925 431.61273248 549.45317985 431.07370995 541.6875 429.01953125 C532.19087787 426.52153033 522.83956156 426.24300124 513.0625 426 C502.96415917 425.74848466 493.14535094 425.34121063 483.24609375 423.1875 C482.53203873 423.03434326 481.8179837 422.88118652 481.08229065 422.72338867 C474.79260382 421.22483025 469.36818204 418.57878803 464 415 C461.67592059 414.43931584 459.34034567 413.92585842 457 413.4375 C449.3671956 411.71342163 442.67334646 408.7563996 435.73632812 405.17358398 C431.17574881 402.85640439 427.03124885 401.43141761 422.01196289 400.45703125 C419.29297438 399.83939425 417.1048088 398.68468929 414.6875 397.3125 C409.19348944 394.44175574 403.59364352 392.25037205 397.75 390.1875 C396.91041748 389.88561768 396.07083496 389.58373535 395.20581055 389.27270508 C394.39023682 388.99064209 393.57466309 388.7085791 392.734375 388.41796875 C392.01475586 388.16813232 391.29513672 387.9182959 390.55371094 387.66088867 C370.18216065 382.38882494 344.25795515 383.41542629 326 394 C324.97277832 394.58491211 324.97277832 394.58491211 323.92480469 395.18164062 C303.22404941 407.21301935 296.36590768 422.78767093 289.51171875 444.7265625 C283.48052149 463.93095055 272.64525006 479.07246737 260.1875 494.6875 C259.64843018 495.37118652 259.10936035 496.05487305 258.55395508 496.75927734 C254.86946246 501.30186514 251.65035337 504.11654888 246 506 C243.4895244 506.07082616 241.00200552 506.08976818 238.4921875 506.0703125 C220.05470965 506.108452 204.00114257 507.17797805 186.40283203 513.19140625 C170.33445545 518.59868762 153.33469624 518.18678577 136.57495117 518.18530273 C133.8330111 518.18748369 131.0914786 518.20571009 128.34960938 518.22460938 C119.08446495 518.25505804 109.90273421 517.98169057 100.671875 517.15234375 C99.82635574 517.07984909 98.98083649 517.00735443 98.10969543 516.93266296 C85.02057569 515.61975914 73.20231905 510.27835231 63 502 C58.34360542 495.01540813 58.70191018 486.04246226 58.734375 477.90625 C58.73169113 476.81242508 58.72900726 475.71860016 58.72624207 474.59162903 C58.72223263 470.89430867 58.7352243 467.1972905 58.75 463.5 C58.75321767 461.501455 58.7564351 459.50290999 58.75963879 457.50436497 C58.82214328 427.19715546 59.51462697 396.89594893 60.20019531 366.59765625 C61.46752932 310.49948584 62.20599172 254.4127118 62.23881906 198.3003431 C62.24363426 190.23154393 62.2615225 182.16290689 62.2898953 174.09415662 C62.31159573 167.69089135 62.32160148 161.28767203 62.32293582 154.88437045 C62.32396687 151.1238291 62.32951547 147.36344786 62.34775543 143.60294724 C62.47662334 121.6288768 62.47662334 121.6288768 59 100 C38.96138966 98.71780627 24.55245032 100.53234247 5.93554688 108.77832031 C1.61417988 110.57673352 -2.7916083 111.81337038 -7.3125 113 C-15.3716595 115.174983 -23.30360615 117.65777377 -31.20394897 120.34716797 C-33.06374555 120.97918386 -34.92696636 121.60109555 -36.7902832 122.22265625 C-45.8155975 125.32867769 -54.82144471 128.73935215 -61.8125 135.4375 C-67.60293808 140.85397229 -75.52420703 144.50806901 -83 147 C-84.44996104 150.07063901 -84.44996104 150.07063901 -85.625 153.75 C-86.05039062 154.98234375 -86.47578125 156.2146875 -86.9140625 157.484375 C-88.45022271 162.45755554 -89.12433345 166.79696197 -89.10679626 172.00509644 C-89.10528061 173.2103447 -89.10376495 174.41559296 -89.10220337 175.65736389 C-89.09209732 177.62883644 -89.09209732 177.62883644 -89.08178711 179.64013672 C-89.07822867 181.04508863 -89.07514332 182.45004181 -89.07249451 183.85499573 C-89.06595115 186.87787245 -89.05639578 189.90071944 -89.04459953 192.92358017 C-89.02625174 197.71679788 -89.01669154 202.51000849 -89.00868225 207.30325317 C-88.98457791 220.93299521 -88.94886425 234.56269361 -88.90405273 248.19238281 C-88.87937359 255.7223314 -88.86208914 263.25226253 -88.85249335 270.78224576 C-88.8460053 275.53244501 -88.83056117 280.28249923 -88.80817592 285.0326488 C-88.79631014 288.01065065 -88.79307068 290.98861895 -88.79207802 293.96664238 C-88.78896176 295.97356725 -88.77585578 297.98046917 -88.76226807 299.98735046 C-88.77399006 311.07368888 -89.12175449 322.9153042 -93.5 333.25 C-93.74991699 333.84006836 -93.99983398 334.43013672 -94.25732422 335.03808594 C-96.65981103 340.5452596 -99.37827121 345.90823951 -102.125 351.25 C-102.54458984 352.07274414 -102.96417969 352.89548828 -103.39648438 353.74316406 C-103.80447266 354.51370117 -104.21246094 355.28423828 -104.6328125 356.078125 C-105.17252686 357.10534668 -105.17252686 357.10534668 -105.72314453 358.15332031 C-107.93737165 361.35569391 -110.3423017 362.78076723 -114 364 C-118.37102365 364.23725224 -122.74823376 364.18519158 -127.125 364.1875 C-128.32382812 364.19974609 -129.52265625 364.21199219 -130.7578125 364.22460938 C-137.4641262 364.2356395 -143.54379039 363.83243896 -150 362 C-155.55048464 360.55294511 -160.61601937 359.91903891 -166.375 359.75 C-179.72155412 358.92498868 -187.95041307 351.03694785 -197 342 C-197.77859375 341.23300781 -198.5571875 340.46601562 -199.359375 339.67578125 C-213.7695892 324.58839533 -212.30107638 304.53222862 -212.125 285.0625 C-212.11494154 283.1074265 -212.1058208 281.15234795 -212.09765625 279.19726562 C-212.07588963 274.46471603 -212.04152082 269.73241581 -212 265 C-216.03845412 264.95037347 -220.07678887 264.91417368 -224.11547852 264.89013672 C-225.48790583 264.88011074 -226.86031195 264.86648644 -228.23266602 264.84912109 C-230.21100527 264.82472373 -232.18950367 264.81455516 -234.16796875 264.8046875 C-235.35672607 264.79421387 -236.5454834 264.78374023 -237.77026367 264.77294922 C-240.97870228 264.99850277 -243.07672058 265.74354875 -246 267 C-249.39804882 267.08007697 -252.72603967 266.99978773 -256.1171875 266.83398438 C-260.74209845 266.70745379 -263.22561696 267.38545342 -267 270 C-269.94546 270.96315422 -272.38183941 271.04262353 -275.45703125 270.81640625 C-289.25950055 270.07719668 -298.73851233 271.66710851 -309.27197266 281.01660156 C-322.77625899 293.60743526 -334.66961938 307.716706 -345.9375 322.3125 C-347.03384766 323.72982422 -347.03384766 323.72982422 -348.15234375 325.17578125 C-350.0641587 328.09806922 -350.99875528 330.66977298 -352 334 C-352.80043866 335.83863137 -353.61331078 337.67189183 -354.4375 339.5 C-356.7871157 345.05550533 -358.04544667 350.47039471 -359.19140625 356.375 C-360.03127484 360.14020797 -361.1683081 363.67080653 -362.4375 367.3125 C-366.51167124 379.11233754 -368.9594714 390.85833229 -370.4375 403.25 C-372.90539731 423.66332568 -377.74175916 444.56502721 -387.5 462.8125 C-392.93371727 473.11698185 -395.96966699 484.69767984 -398.72851562 495.97900391 C-400.03214387 501.22426284 -401.07770665 505.07770665 -405 509 C-405.79535156 509.80953125 -406.59070313 510.6190625 -407.41015625 511.453125 C-408.26480469 512.29359375 -409.11945313 513.1340625 -410 514 C-411.32837891 515.41539062 -411.32837891 515.41539062 -412.68359375 516.859375 C-420.26975767 524.82215699 -428.73291558 532.28059483 -440.15625 533.2746582 C-443.77117856 533.30289983 -447.38494581 533.32175987 -451 533.3125 C-452.8871875 533.33666992 -452.8871875 533.33666992 -454.8125 533.36132812 C-456.029375 533.36197266 -457.24625 533.36261719 -458.5 533.36328125 C-459.6034375 533.36626221 -460.706875 533.36924316 -461.84375 533.37231445 C-465.4441532 532.94760724 -467.8365334 531.72199309 -471 530 C-473.68730254 529.55030495 -473.68730254 529.55030495 -476.4375 529.375 C-488.361365 527.58271719 -500.16719932 518.8641659 -508 510 C-511.00568273 505.84875518 -513.55353717 501.49607796 -516 497 C-516.3913916 496.28585937 -516.7827832 495.57171875 -517.18603516 494.8359375 C-528.42642137 474.22339783 -528.42642137 474.22339783 -527 467 C-522.61733078 455.2580364 -514.75502974 443.29129617 -505.57104492 434.73779297 C-502.68240626 431.66180836 -500.8550483 428.43934881 -498.99609375 424.69921875 C-498.63604248 423.99414688 -498.27599121 423.28907501 -497.9050293 422.56263733 C-496.73997763 420.27546898 -495.58877104 417.98163102 -494.4375 415.6875 C-493.63179648 414.10080216 -492.82523068 412.5145419 -492.01782227 410.92871094 C-487.93086648 402.88603542 -483.90706867 394.81283491 -479.91015625 386.72509766 C-471.12448259 368.97605601 -462.26658306 352.84485855 -447.04614258 339.76806641 C-429.25148702 324.39175147 -410.27308193 307.76029666 -398.625 287.125 C-392.62305592 276.52110342 -384.54290686 267.35717942 -376.27734375 258.46484375 C-374.23004694 256.24898734 -372.26434533 253.98711287 -370.3125 251.6875 C-365.50083344 246.16757411 -359.90440534 241.89221105 -354.03125 237.56640625 C-351.95100548 235.96221768 -350.01202866 234.25999115 -348.0625 232.5 C-345.39646282 230.10367864 -342.76514502 228.20406306 -339.6875 226.375 C-334.88398118 223.31068627 -331.60994598 219.30740492 -328.15698242 214.84521484 C-325.70289322 211.74114379 -323.34491404 209.44771312 -320.0703125 207.20703125 C-315.20556887 203.70983322 -312.50077074 199.25761066 -309.4375 194.1875 C-304.08253158 185.5078518 -298.3697393 177.4368399 -291.5 169.875 C-290.46359375 168.72644531 -290.46359375 168.72644531 -289.40625 167.5546875 C-288.6121875 166.71164062 -287.818125 165.86859375 -287 165 C-286.49944092 164.46592529 -285.99888184 163.93185059 -285.4831543 163.3815918 C-280.97310202 158.70476595 -276.07351139 154.85938447 -270.8125 151.0625 C-269.97243408 150.44914795 -269.13236816 149.8357959 -268.2668457 149.20385742 C-263.80573757 145.96467703 -259.30467739 142.82424374 -254.6875 139.8125 C-242.08668629 131.52341724 -231.83437932 122.2065924 -222.08203125 110.74609375 C-214.98289359 102.44481379 -207.0908842 96.01975813 -197.75 90.375 C-196.82614502 89.81304932 -195.90229004 89.25109863 -194.95043945 88.67211914 C-184.9298425 82.65309752 -175.52559472 78.19089449 -164.06542969 75.59619141 C-158.73218853 74.33198755 -154.04438477 72.34281266 -149.11743164 69.91601562 C-139.67929847 65.30391213 -129.8386694 61.65808917 -120 58 C-118.56672363 57.46342773 -118.56672363 57.46342773 -117.10449219 56.91601562 C-100.3981288 50.74873989 -83.50594658 47.04171846 -66 44 C-65.1965918 43.85304687 -64.39318359 43.70609375 -63.56542969 43.5546875 C-49.88179948 41.09412081 -35.84351642 41.81032281 -22 42 C-21.98598145 41.16190796 -21.98598145 41.16190796 -21.97167969 40.30688477 C-21.91731012 37.72459677 -21.83380291 35.14399402 -21.75 32.5625 C-21.73582031 31.68400391 -21.72164062 30.80550781 -21.70703125 29.90039062 C-21.38983721 21.30443212 -18.35650759 14.90752451 -13.9375 7.625 C-13.20853516 6.40683594 -13.20853516 6.40683594 -12.46484375 5.1640625 C-11.98144531 4.44992188 -11.49804688 3.73578125 -11 3 C-10.60941406 2.40960938 -10.21882812 1.81921875 -9.81640625 1.2109375 C-6.62492681 -0.91671546 -3.61143488 -0.69417573 0 0 Z M0 19 C-1.7536564 21.33942344 -1.7536564 21.33942344 -3 24 C-3.33 24.66 -3.66 25.32 -4 26 C-4.11890897 28.14238624 -4.17914876 30.28814564 -4.2109375 32.43359375 C-4.23929688 33.72201172 -4.26765625 35.01042969 -4.296875 36.33789062 C-4.3381624 38.38972672 -4.37504902 40.44132235 -4.40136719 42.4934082 C-4.42896701 44.47369577 -4.4759434 46.45368342 -4.5234375 48.43359375 C-4.54325684 49.62009521 -4.56307617 50.80659668 -4.58349609 52.02905273 C-5.04825549 55.34420926 -5.44457812 55.99421299 -8 58 C-10.93846324 58.36704935 -13.68920932 58.55833132 -16.63671875 58.625 C-17.93135796 58.67257698 -17.93135796 58.67257698 -19.25215149 58.72111511 C-21.10255889 58.78893836 -22.95318241 58.85105848 -24.80395508 58.90805054 C-29.62489298 59.0617789 -34.44311788 59.27465059 -39.26171875 59.48828125 C-40.20651093 59.52979813 -41.1513031 59.571315 -42.12472534 59.61408997 C-81.9591351 61.42919877 -118.45310337 75.68976854 -155.125 90.25 C-155.95549866 90.5778952 -156.78599731 90.90579041 -157.6416626 91.24362183 C-166.20151374 94.63389457 -174.63757398 98.17313729 -182.8828125 102.27734375 C-183.53355743 102.60120056 -184.18430237 102.92505737 -184.85476685 103.25872803 C-190.12800904 105.94615822 -194.60350998 109.06261248 -199 113 C-200.44826172 114.28777344 -200.44826172 114.28777344 -201.92578125 115.6015625 C-208.97967821 121.94509834 -216.07011875 128.32621551 -222 135.75 C-227.63072335 142.26845 -235.06186452 146.98456859 -242 152 C-257.0614548 162.80985728 -257.0614548 162.80985728 -271 175 C-271.77859375 175.71671875 -272.5571875 176.4334375 -273.359375 177.171875 C-284.08329947 187.34935746 -292.70004811 199.60172899 -300.66601562 212.00268555 C-304.26877943 217.58428788 -307.91211835 222.4898459 -313.375 226.375 C-316.50717626 228.71252199 -318.98721579 231.02136712 -321.4375 234.0625 C-324.61964525 237.8810743 -328.02455442 239.97020475 -332.328125 242.3828125 C-341.02350667 247.64580667 -348.58066053 255.10195399 -356 262 C-356.72703125 262.66128906 -357.4540625 263.32257813 -358.203125 264.00390625 C-367.39922573 272.72035424 -374.40658063 283.37966634 -381.76318359 293.63061523 C-398.77284101 317.3158289 -416.99601399 337.84454311 -439 357 C-451.48179537 367.92157095 -457.14826763 382.04514735 -463.43676758 397.05419922 C-467.72526132 407.07257486 -473.37779352 415.63168355 -480 424.25 C-483.76784532 429.33289721 -486.4286814 434.68781284 -489.13623047 440.37353516 C-490.82599092 443.86070006 -492.39283558 446.82168547 -495.125 449.625 C-503.00459882 457.74206618 -505.35275391 470.27766331 -505.20703125 481.140625 C-504.7337189 487.67769366 -500.64640957 491.89755749 -496.62109375 496.75390625 C-495 499 -495 499 -493.97265625 501.65234375 C-493.12238744 504.32023233 -493.12238744 504.32023233 -490 506 C-487.77019963 506.78433125 -485.52009882 507.45005534 -483.25390625 508.12109375 C-481 509 -481 509 -479.0234375 510.53515625 C-476.64944963 512.25377681 -474.94279357 512.57394733 -472.0625 513 C-468.83136502 513.54637268 -467.18159642 513.87598293 -464.4375 515.75 C-461.18669768 517.41707811 -459.20147754 516.54801811 -455.796875 515.60546875 C-451.1351787 514.59630265 -446.40435891 514.59594877 -441.6484375 514.44140625 C-434.03038799 513.51973645 -429.93456124 510.54223331 -425.375 504.75 C-424.92382812 504.20214844 -424.47265625 503.65429688 -424.0078125 503.08984375 C-422.64243419 501.41450887 -421.32001283 499.7112095 -420 498 C-419.57283691 497.47849365 -419.14567383 496.9569873 -418.70556641 496.41967773 C-414.71590603 491.30163632 -412.76154691 485.63909781 -410.625 479.5625 C-408.00633093 472.30932021 -405.2987045 465.18773916 -402.0625 458.1875 C-399.68780515 453.00741868 -398.27285991 448.20497681 -397.52734375 442.55078125 C-396.92748349 439.64923496 -395.82114987 437.48943191 -394.4375 434.875 C-392.19806135 430.26592278 -391.5870197 426.18705951 -391.4375 421.125 C-390.36797661 387.66154413 -380.27491753 339.99827309 -359.30224609 313.66894531 C-357.88734184 311.85561845 -356.52876509 310.00838884 -355.17578125 308.1484375 C-349.05862748 299.76058332 -342.59493191 292.00900153 -335.42285156 284.50830078 C-334.02419282 283.02564572 -332.65947472 281.51885864 -331.3046875 279.99609375 C-326.48913631 274.58412108 -321.62463943 269.5679557 -316 265 C-314.90365234 264.08927734 -314.90365234 264.08927734 -313.78515625 263.16015625 C-304.65327621 255.77660196 -298.02451492 253.45368548 -286.28921509 253.01513672 C-282.82475618 252.88323831 -279.36381997 252.68972681 -275.90234375 252.49609375 C-275.2192363 252.45870087 -274.53612885 252.42130798 -273.83232117 252.38278198 C-264.25099045 251.82592523 -254.76538598 250.35895851 -245.36010742 248.46972656 C-237.48989354 246.97848617 -229.7868507 246.69112734 -221.80737305 246.73925781 C-219.67273142 246.75007484 -217.53891475 246.73924678 -215.40429688 246.7265625 C-214.02343568 246.72788284 -212.64257498 246.73044262 -211.26171875 246.734375 C-209.42033325 246.73775879 -209.42033325 246.73775879 -207.54174805 246.74121094 C-202.80214215 247.08752529 -198.44618146 247.55381854 -195 251 C-194.72825623 252.95510864 -194.72825623 252.95510864 -194.69702148 255.37939453 C-194.68037949 256.2885965 -194.66373749 257.19779846 -194.64659119 258.134552 C-194.63396996 259.61869095 -194.63396996 259.61869095 -194.62109375 261.1328125 C-194.59560204 262.66976273 -194.59560204 262.66976273 -194.56959534 264.23776245 C-194.51634343 267.53344449 -194.47622698 270.82911789 -194.4375 274.125 C-195.72232831 299.17121565 -195.72232831 299.17121565 -189.6875 322.6875 C-189.09324219 323.78449219 -188.49898438 324.88148438 -187.88671875 326.01171875 C-182.49758464 334.54730383 -175.98638641 339.18022581 -166.1875 341.75 C-164.1300026 342.19070603 -162.06720862 342.60736037 -160 343 C-159.02675781 343.20496094 -158.05351562 343.40992188 -157.05078125 343.62109375 C-147.10645455 345.46735159 -137.07335042 345.35278325 -127 345 C-126.18901855 345.01426025 -125.37803711 345.02852051 -124.54248047 345.04321289 C-122.13684259 344.98370163 -120.26228104 344.82640534 -118 344 C-115.81435309 341.6462556 -114.77037405 339.03532479 -113.625 336.0625 C-113.29685303 335.28849854 -112.96870605 334.51449707 -112.63061523 333.71704102 C-107.59525026 321.60556315 -105.84150475 310.67997757 -105.8671875 297.609375 C-105.86623077 296.51071106 -105.86527405 295.41204712 -105.86428833 294.28009033 C-105.86360938 291.95023542 -105.86544374 289.62037859 -105.86962891 287.29052734 C-105.8748781 283.83035676 -105.86972846 280.37032226 -105.86328125 276.91015625 C-105.86003583 265.36361533 -106.03146342 253.84608663 -106.49609375 242.30859375 C-107.06695172 228.02571605 -107.18760316 213.75738525 -107.18530273 199.46557617 C-107.18519909 195.95396481 -107.19912412 192.44254657 -107.21607494 188.93098164 C-107.22988438 185.51257864 -107.22928137 182.09421172 -107.23046875 178.67578125 C-107.23765427 177.43202225 -107.24483978 176.18826324 -107.25224304 174.90681458 C-107.22998478 166.44047781 -106.11022191 159.13432752 -103.5 151.0625 C-102.16466596 146.78943106 -101.30641889 142.55103092 -100.625 138.12890625 C-99.87397781 135.57073692 -99.02340595 134.71122988 -97 133 C-95.02832031 132.19799805 -95.02832031 132.19799805 -92.828125 131.57421875 C-88.16159288 130.12087882 -84.03367999 128.14525189 -79.75 125.8125 C-79.01330078 125.41812744 -78.27660156 125.02375488 -77.51757812 124.61743164 C-73.07229779 122.21117787 -68.76736227 119.65016999 -64.5 116.9375 C-45.61366315 105.13353947 -21.69505592 94.77514474 0.5 92.1875 C6.8297833 91.34250466 11.63092251 88.9336036 17.125 85.75390625 C26.84211458 80.88324292 37.72522169 80.48845699 48.37792969 80.55395508 C50.52632422 80.562606 52.67216933 80.53334307 54.8203125 80.50195312 C56.20312422 80.50034386 57.58594059 80.50091338 58.96875 80.50390625 C60.81629883 80.50112671 60.81629883 80.50112671 62.70117188 80.49829102 C66.61858351 81.09407853 68.22685309 82.21780887 71 85 C76.18325084 94.81606797 77.42289845 105.06053661 77.63842773 116.02514648 C77.68877623 117.8617655 77.68877623 117.8617655 77.74014187 119.73548794 C77.83947829 123.49014347 77.9213559 127.24486033 78 131 C78.0516703 133.15675863 78.10374371 135.31350766 78.15628052 137.47024536 C78.30792634 144.0123126 78.42490837 150.55477602 78.53515625 157.09765625 C78.56694064 158.94889571 78.56694064 158.94889571 78.59936714 160.83753395 C78.75261459 169.84332483 78.89387983 178.84926917 79.02921772 187.85534573 C79.06255288 190.06600672 79.09637144 192.27665992 79.13027191 194.48731232 C80.64361571 293.64837973 80.18323516 392.83074141 80 492 C81.2783308 492.6425542 82.55705202 493.28433174 83.8359375 493.92578125 C84.5479834 494.28325439 85.2600293 494.64072754 85.99365234 495.0090332 C92.46627138 498.20596198 98.35769602 499.11743408 105.56176758 499.16113281 C107.49086723 499.17554413 107.49086723 499.17554413 109.4589386 499.19024658 C110.85413431 499.19509962 112.24933213 499.1993772 113.64453125 499.203125 C114.71322228 499.20736607 114.71322228 499.20736607 115.80350304 499.21169281 C119.5837681 499.22665363 123.3639954 499.23589917 127.14428711 499.24023438 C130.2368564 499.24459876 133.32914352 499.25841448 136.42163086 499.28125 C159.90567954 499.70449387 159.90567954 499.70449387 183 496 C184.00039307 495.73832031 185.00078613 495.47664063 186.03149414 495.20703125 C188.58585311 494.48697114 191.10424657 493.70414039 193.625 492.875 C204.10657728 489.49118371 213.87184385 488.76641692 224.84375 488.48242188 C236.88100668 488.41416169 236.88100668 488.41416169 247.7265625 484.07421875 C248.66628906 482.89279297 248.66628906 482.89279297 249.625 481.6875 C250.346875 480.78902344 251.06875 479.89054687 251.8125 478.96484375 C252.534375 477.98644531 253.25625 477.00804687 254 476 C254.763125 474.99066406 255.52625 473.98132813 256.3125 472.94140625 C265.520198 460.23416086 271.47845676 446.52272902 275.9375 431.5 C277.80540135 425.37703379 280.10103368 419.70491767 283 414 C283.56460938 412.88625 284.12921875 411.7725 284.7109375 410.625 C293.09330483 394.74538725 304.87188463 383.09058761 322 377 C328.71817479 374.58217248 328.71817479 374.58217248 334.75 370.875 C349.403516 362.42104846 377.86079983 365.21086122 394 369 C404.0087183 371.80982461 413.08479105 375.58690214 421.6640625 381.5 C425.92781144 384.23792574 430.53005749 385.39053367 435.40625 386.59375 C442.18070762 388.3077694 448.38760242 390.76803049 454.79077148 393.52026367 C458.71587683 395.17328696 462.321643 396.43422489 466.5625 397.0625 C470.21655896 397.60999368 472.10596049 398.6290121 474.9375 401 C482.99104384 407.50295976 494.4195179 406.33165847 504.29541016 406.65942383 C505.21628418 406.69060303 506.1371582 406.72178223 507.0859375 406.75390625 C508.3241626 406.78979858 508.3241626 406.78979858 509.58740234 406.82641602 C512.12660766 407.00910929 514.50909537 407.48577964 517 408 C520.76846356 408.22737099 524.53610833 408.37878115 528.30859375 408.5234375 C532.15125194 408.793339 535.73305986 409.61187663 539.4765625 410.5078125 C548.36427006 412.49476366 557.08345054 412.46508071 566.1418457 412.51123047 C568.29149101 412.5270033 570.44041791 412.55996283 572.58984375 412.59375 C574.47497681 412.60438477 574.47497681 412.60438477 576.39819336 412.61523438 C580.42692555 413.04560663 583.34489448 414.29444622 587 416 C589.20414659 416.67640384 589.20414659 416.67640384 591.25 417.0625 C592.38876587 417.2958606 592.38876587 417.2958606 593.55053711 417.53393555 C598.02885134 418.38603381 602.51015259 419.21077838 607 420 C607.80808105 420.15001465 608.61616211 420.3000293 609.44873047 420.45458984 C626.08694507 423.4614961 642.86937846 423.48556125 659.72631836 423.7097168 C660.69390579 423.7234584 661.66149323 423.73720001 662.65840149 423.75135803 C664.49223714 423.77589311 666.32614022 423.79593672 668.16007996 423.81077576 C668.98719986 423.82117386 669.81431976 423.83157196 670.66650391 423.84228516 C671.7449205 423.85202866 671.7449205 423.85202866 672.84512329 423.86196899 C675 424 675 424 677.45742798 424.49978638 C680.03848279 425.00757092 682.38688694 425.14002404 685.01464844 425.16113281 C686.47206451 425.17554413 686.47206451 425.17554413 687.95892334 425.19024658 C689.51839691 425.1966214 689.51839691 425.1966214 691.109375 425.203125 C692.19075745 425.20882507 693.27213989 425.21452515 694.3862915 425.22039795 C696.67255683 425.22983222 698.95883565 425.23637567 701.24511719 425.24023438 C704.72355176 425.24992631 708.20139181 425.28095977 711.6796875 425.3125 C713.90624651 425.31903208 716.13280973 425.32428175 718.359375 425.328125 C719.39092712 425.3404718 720.42247925 425.3528186 721.48529053 425.36553955 C729.13131401 425.34222516 735.5616768 424.29221546 742 420 C742.99 419.7525 743.98 419.505 745 419.25 C748.12988698 418.23117498 748.12988698 418.23117498 749.875 415.625 C751.46856108 410.49019206 752.08473552 405.30235849 751 400 C747.78212329 396.12445506 743.84538183 393.20817101 739.75 390.3125 C739.14502686 389.88461182 738.54005371 389.45672363 737.91674805 389.01586914 C721.75704222 377.77370949 704.09119309 366.92149121 684.4453125 363.97265625 C675.3948849 362.27387723 666.85950936 357.93628675 658.41210938 354.40136719 C654.97485904 352.98967451 651.51860416 351.64477038 648.046875 350.3203125 C621.73355881 340.28045 596.29505097 329.03900029 574.01928711 311.61669922 C564.82927341 304.45695064 555.14930601 299.54517294 544.52099609 294.91113281 C529.04797357 288.12292553 529.04797357 288.12292553 525.5 282.25 C524.00526927 279.79821146 523.36879474 279.11935105 520.5859375 278.21875 C518.83457122 277.9159201 517.07262661 277.66707995 515.3046875 277.484375 C512.55767895 276.90703761 511.65559827 276.24174176 510 274 C509.90630127 273.3598999 509.81260254 272.7197998 509.71606445 272.06030273 C509.16655211 269.83094619 509.16655211 269.83094619 507.03540039 268.62426758 C506.12781982 268.19782959 505.22023926 267.7713916 504.28515625 267.33203125 C503.19477051 266.81850098 502.10438477 266.3049707 500.98095703 265.77587891 C491.56834197 261.5428525 482.0673143 257.51222017 472.57299805 253.46704102 C462.52958205 249.18264216 452.5045978 244.86249281 442.59765625 240.26953125 C441.84504013 239.92798508 441.09242401 239.5864389 440.31700134 239.23454285 C435.70704875 237.06505607 431.80788741 234.48965377 427.79179382 231.35997009 C425.62507492 229.71543216 423.38692422 228.43668342 420.9609375 227.2109375 C420.06286377 226.75114502 419.16479004 226.29135254 418.23950195 225.81762695 C417.29421631 225.34156006 416.34893066 224.86549316 415.375 224.375 C413.31305133 223.31526157 411.2518711 222.25402682 409.19140625 221.19140625 C408.15387207 220.65789551 407.11633789 220.12438477 406.04736328 219.57470703 C392.73499516 212.69561919 379.77219902 205.32999398 367 197.5 C349.95744064 187.0705211 332.79655224 177.65407443 314.49835205 169.61279297 C299.69207116 163.09754432 285.5075326 156.14422079 272.796875 146.0546875 C268.77576897 143.10063474 264.42346543 140.94683968 259.99609375 138.66796875 C257.32663327 137.18184147 255.19267754 135.65637854 252.875 133.6875 C242.6258134 125.35422306 229.53193371 120.12929422 217.625 114.625 C216.75915283 114.22047607 215.89330566 113.81595215 215.0012207 113.39916992 C210.31162057 111.2736486 205.68326748 109.56073896 200.734375 108.1328125 C193.99450674 106.1333546 187.80524409 103.25532825 181.51147461 100.17108154 C166.11619293 92.65425108 150.49947674 86.40765209 133.875 82.125 C119.85624307 78.24675706 106.96074856 70.65359208 94.4375 63.4375 C81.00079546 55.70705414 67.18026859 49.65564979 52.79589844 43.91748047 C37.95712217 37.98564798 24.63951242 31.27482481 11.33203125 22.41015625 C7.36457379 20.01107393 4.68192576 19 0 19 Z " fill="#E3181E" transform="translate(544,180)"/>
<path d="M0 0 C2.64 0 5.28 0 8 0 C10.97 8.91 13.94 17.82 17 27 C18.88966795 24.16549807 19.82839591 21.9104949 20.91015625 18.7109375 C21.43512695 17.17566406 21.43512695 17.17566406 21.97070312 15.609375 C22.33099609 14.54203125 22.69128906 13.4746875 23.0625 12.375 C23.77995179 10.25692993 24.4998695 8.13969297 25.22265625 6.0234375 C25.53984619 5.08419434 25.85703613 4.14495117 26.18383789 3.17724609 C27 1 27 1 28 0 C30.31 0 32.62 0 35 0 C35 11.88 35 23.76 35 36 C33.35 36 31.7 36 30 36 C29.505 23.13 29.505 23.13 29 10 C26.03 18.58 23.06 27.16 20 36 C18.35 36 16.7 36 15 36 C12.03 27.42 9.06 18.84 6 10 C5.67 18.58 5.34 27.16 5 36 C3.35 36 1.7 36 0 36 C0 24.12 0 12.24 0 0 Z " fill="#A8A8A8" transform="translate(525,923)"/>
<path d="M0 0 C2.125 1.1875 2.125 1.1875 4.125 4.1875 C4.44384766 6.54760742 4.44384766 6.54760742 4.5390625 9.29296875 C4.57773437 10.27587891 4.61640625 11.25878906 4.65625 12.27148438 C4.6871875 13.29564453 4.718125 14.31980469 4.75 15.375 C4.78867187 16.41076172 4.82734375 17.44652344 4.8671875 18.51367188 C4.96148296 21.07143622 5.04708202 23.62919287 5.125 26.1875 C3.475 26.1875 1.825 26.1875 0.125 26.1875 C0.125 25.5275 0.125 24.8675 0.125 24.1875 C-0.90625 24.6825 -1.9375 25.1775 -3 25.6875 C-6.45192978 27.14900253 -9.09182012 27.68095825 -12.875 27.1875 C-17.50735294 24.92279412 -17.50735294 24.92279412 -18.875 22.1875 C-19.25040566 18.73376797 -19.42878656 16.91053674 -17.27734375 14.1015625 C-14.28571261 11.71798647 -11.8594567 11.18439134 -8.125 10.4375 C-6.95453125 10.19515625 -5.7840625 9.9528125 -4.578125 9.703125 C-3.68609375 9.53296875 -2.7940625 9.3628125 -1.875 9.1875 C-1.875 7.8675 -1.875 6.5475 -1.875 5.1875 C-4.9582635 3.64586825 -7.48378099 3.89002465 -10.875 4.1875 C-12.58032323 6.12759522 -12.58032323 6.12759522 -13.875 8.1875 C-15.195 8.1875 -16.515 8.1875 -17.875 8.1875 C-17.3797783 4.52285945 -16.8541794 2.47917646 -13.875 0.1875 C-9.17807828 -1.37814057 -4.71602005 -1.33278828 0 0 Z " fill="#A4A4A4" transform="translate(668.875,932.8125)"/>
<path d="M0 0 C2.41869578 1.1589584 4.12322096 2.12322096 6 4 C6.15740605 5.70563778 6.25093392 7.41727244 6.31640625 9.12890625 C6.35830078 10.16337891 6.40019531 11.19785156 6.44335938 12.26367188 C6.48267578 13.35228516 6.52199219 14.44089844 6.5625 15.5625 C6.60568359 16.65498047 6.64886719 17.74746094 6.69335938 18.87304688 C6.79982068 21.58189564 6.90183516 24.29083992 7 27 C6.21625 26.835 5.4325 26.67 4.625 26.5 C1.63316338 25.93012636 0.53389157 25.76271486 -2.25 27 C-5.47017414 28.17097241 -7.59616826 28.42547897 -11 28 C-14.41165683 26.0288205 -15.71748902 24.78105976 -17.0625 21.0625 C-17 18 -17 18 -15.5 15.25 C-10.84733972 11.06260575 -5.03471607 10.73894482 1 10 C0.50243908 7.24358584 0.50243908 7.24358584 -1 5 C-3.67058851 4.85884839 -6.32432238 4.95752893 -9 5 C-9.66 6.32 -10.32 7.64 -11 9 C-12.65 9 -14.3 9 -16 9 C-15.79803569 5.36464239 -15.21677989 4.2005214 -12.5 1.6875 C-8.13546337 -0.41683016 -4.76355701 -0.75444918 0 0 Z " fill="#A7A7A7" transform="translate(582,932)"/>
<path d="M0 0 C2.0625 1.5625 2.0625 1.5625 3.0625 2.5625 C3.20709705 4.0140606 3.28947111 5.47195286 3.34375 6.9296875 C3.38113281 7.81527344 3.41851562 8.70085938 3.45703125 9.61328125 C3.50923828 11.01126953 3.50923828 11.01126953 3.5625 12.4375 C3.63144539 14.26838303 3.70420176 16.09912756 3.78125 17.9296875 C3.81154297 18.74550293 3.84183594 19.56131836 3.87304688 20.40185547 C3.9942238 22.74459314 3.9942238 22.74459314 5.0625 25.5625 C2.01863276 25.64476668 -0.00925348 25.53858217 -2.9375 24.5625 C-3.5975 24.8925 -4.2575 25.2225 -4.9375 25.5625 C-6.74593663 25.70966542 -8.56081566 25.7835887 -10.375 25.8125 C-11.82712891 25.85117187 -11.82712891 25.85117187 -13.30859375 25.890625 C-15.9375 25.5625 -15.9375 25.5625 -17.75390625 24.29296875 C-19.44722006 21.81726573 -19.47900167 19.43280031 -19.328125 16.49609375 C-18.9375 14.5625 -18.9375 14.5625 -17.1875 12.1875 C-12.32829376 9.75789688 -7.29317596 9.21167284 -1.9375 8.5625 C-1.9375 7.2425 -1.9375 5.9225 -1.9375 4.5625 C-4.34295638 3.35977181 -5.88746953 3.46178528 -8.5625 3.5 C-9.37976563 3.50902344 -10.19703125 3.51804687 -11.0390625 3.52734375 C-11.66554688 3.53894531 -12.29203125 3.55054688 -12.9375 3.5625 C-13.2675 4.8825 -13.5975 6.2025 -13.9375 7.5625 C-15.5875 7.5625 -17.2375 7.5625 -18.9375 7.5625 C-18.09111611 3.75377251 -17.54050851 1.99322036 -14.3125 -0.3125 C-9.19384133 -2.01871956 -5.01619851 -2.45473544 0 0 Z " fill="#AAAAAA" transform="translate(474.9375,933.4375)"/>
<path d="M0 0 C3.42926839 1.9124766 5.17872317 3.49845707 7.25 6.8125 C7.25 7.8025 7.25 8.7925 7.25 9.8125 C5.6 10.1425 3.95 10.4725 2.25 10.8125 C1.816875 10.02875 1.38375 9.245 0.9375 8.4375 C-0.64220247 5.59551625 -0.64220247 5.59551625 -3.75 3.8125 C-8.15057043 3.48653182 -11.98939634 3.34124617 -15.75 5.8125 C-18.58323401 12.28846346 -18.91936653 19.69418925 -16.4375 26.3125 C-14.83207479 29.03172531 -14.83207479 29.03172531 -11.75 30.8125 C-7.46383564 31.49134003 -3.89365091 31.6335827 -0.3125 29.0625 C1.10099692 27.02706444 2.27448781 25.08869512 3.25 22.8125 C4.9 23.1425 6.55 23.4725 8.25 23.8125 C6.971414 28.81060891 5.20814465 31.49870448 1.25 34.8125 C-2.84756155 37.13814304 -7.13032518 37.51511214 -11.75 36.8125 C-17.11319815 34.90172495 -20.029388 31.8351683 -22.75 26.8125 C-24.68784697 20.7388454 -25.1473929 12.6697858 -22.25 6.875 C-15.95045328 -0.84194474 -9.60196475 -3.04062217 0 0 Z " fill="#A5A5A5" transform="translate(716.75,923.1875)"/>
<path d="M0 0 C1.65 0 3.3 0 5 0 C5.01981934 0.55985596 5.03963867 1.11971191 5.06005859 1.6965332 C5.15537783 4.23565854 5.26502753 6.77396888 5.375 9.3125 C5.4059375 10.19357422 5.436875 11.07464844 5.46875 11.98242188 C5.50742187 12.82998047 5.54609375 13.67753906 5.5859375 14.55078125 C5.6173584 15.33106689 5.6487793 16.11135254 5.68115234 16.9152832 C5.89587889 19.30155768 5.89587889 19.30155768 8 22 C11.10494126 22.31845551 13.01726077 21.99424641 16 21 C16.33 14.07 16.66 7.14 17 0 C18.65 0 20.3 0 22 0 C22 8.58 22 17.16 22 26 C20.68 26 19.36 26 18 26 C17.67 25.34 17.34 24.68 17 24 C16.01 24.7734375 16.01 24.7734375 15 25.5625 C11.56317223 27.20931331 9.66058706 27.19557009 5.96484375 26.91015625 C2.59371491 25.34857967 1.62806743 23.2956685 0 20 C-0.46255885 16.5223756 -0.37981942 13.12513122 -0.25 9.625 C-0.23195313 8.69816406 -0.21390625 7.77132812 -0.1953125 6.81640625 C-0.14844197 4.54318565 -0.08285525 2.27214593 0 0 Z " fill="#A3A3A3" transform="translate(783,933)"/>
<path d="M0 0 C2.6953125 -0.4296875 2.6953125 -0.4296875 6 0 C7.98048798 2.31965411 9.37934291 4.27540553 10.875 6.875 C11.2771875 7.52597656 11.679375 8.17695312 12.09375 8.84765625 C15 13.64198023 15 13.64198023 15 16 C15.66 16 16.32 16 17 16 C17.26296875 15.29488281 17.5259375 14.58976563 17.796875 13.86328125 C19.08036743 10.80873595 20.557149 8.03560742 22.25 5.1875 C23.09304688 3.72376953 23.09304688 3.72376953 23.953125 2.23046875 C26 0 26 0 29.234375 -0.32421875 C30.14703125 -0.21722656 31.0596875 -0.11023438 32 0 C30.1203244 3.51417613 28.26215057 6.67185349 25.765625 9.796875 C18.99325129 18.46723879 17.64950439 25.07855688 18 36 C16.35 36 14.7 36 13 36 C13.06703125 35.05382812 13.1340625 34.10765625 13.203125 33.1328125 C13.53092875 20.74594824 8.51153901 13.22689819 1.08569336 3.62548828 C0 2 0 2 0 0 Z " fill="#ABABAB" transform="translate(421,923)"/>
<path d="M0 0 C3.0625 1.75 3.0625 1.75 5 4 C5 5.32 5 6.64 5 8 C3.68 8 2.36 8 1 8 C0.566875 7.505 0.13375 7.01 -0.3125 6.5 C-2.96843676 4.13916733 -5.59674813 4.8073631 -9 5 C-9 6.32 -9 7.64 -9 9 C-8.16855469 9.25394531 -7.33710938 9.50789062 -6.48046875 9.76953125 C-5.39378906 10.11371094 -4.30710937 10.45789063 -3.1875 10.8125 C-1.56908203 11.31716797 -1.56908203 11.31716797 0.08203125 11.83203125 C2.85385262 12.94150192 4.26722758 13.61078478 6 16 C6.5 19.4375 6.5 19.4375 6 23 C2.7421503 26.2578497 0.27824055 27.90352902 -4.3125 28.25 C-8.22632394 27.984656 -9.93192479 27.36680088 -13 25 C-15 22 -15 22 -15 19 C-12.625 19.3125 -12.625 19.3125 -10 20 C-9.34 20.99 -8.68 21.98 -8 23 C-4.5 23.41666667 -4.5 23.41666667 -1 23 C-0.34 22.34 0.32 21.68 1 21 C1 20.01 1 19.02 1 18 C0.18015625 17.75765625 -0.6396875 17.5153125 -1.484375 17.265625 C-3.10085938 16.76289062 -3.10085938 16.76289062 -4.75 16.25 C-5.81734375 15.92515625 -6.8846875 15.6003125 -7.984375 15.265625 C-11.16895586 13.92909107 -12.82503126 12.6542865 -15 10 C-15.625 7.5625 -15.625 7.5625 -15 5 C-10.63139532 -0.0406977 -6.57980408 -1.31837986 0 0 Z " fill="#A7A7A7" transform="translate(499,932)"/>
<path d="M0 0 C2.59026861 0.75370615 3.47521634 1.48618801 5.12109375 3.6171875 C5.46166992 6.0690918 5.46166992 6.0690918 5.4140625 8.94140625 C5.40439453 9.96943359 5.39472656 10.99746094 5.38476562 12.05664062 C5.35962891 13.12849609 5.33449219 14.20035156 5.30859375 15.3046875 C5.28829102 16.92987305 5.28829102 16.92987305 5.26757812 18.58789062 C5.23220018 21.26482155 5.18283564 23.94075588 5.12109375 26.6171875 C3.80109375 26.6171875 2.48109375 26.6171875 1.12109375 26.6171875 C1.10127441 26.02180176 1.08145508 25.42641602 1.06103516 24.81298828 C0.96593249 22.12226597 0.85619533 19.43233602 0.74609375 16.7421875 C0.71515625 15.80503906 0.68421875 14.86789062 0.65234375 13.90234375 C0.61367188 13.00644531 0.575 12.11054687 0.53515625 11.1875 C0.50373535 10.36008301 0.47231445 9.53266602 0.43994141 8.68017578 C0.29510238 6.39732665 0.29510238 6.39732665 -1.87890625 4.6171875 C-6.22085561 4.71413866 -6.22085561 4.71413866 -9.87890625 6.6171875 C-10.03545652 8.10357742 -10.12957568 9.59667877 -10.1953125 11.08984375 C-10.23720703 11.98896484 -10.27910156 12.88808594 -10.32226562 13.81445312 C-10.38124023 15.23274414 -10.38124023 15.23274414 -10.44140625 16.6796875 C-10.50618164 18.1037793 -10.50618164 18.1037793 -10.57226562 19.55664062 C-10.67869901 21.91000103 -10.78071633 24.26347104 -10.87890625 26.6171875 C-12.52890625 26.6171875 -14.17890625 26.6171875 -15.87890625 26.6171875 C-15.87890625 18.0371875 -15.87890625 9.4571875 -15.87890625 0.6171875 C-14.55890625 0.6171875 -13.23890625 0.6171875 -11.87890625 0.6171875 C-11.54890625 1.2771875 -11.21890625 1.9371875 -10.87890625 2.6171875 C-10.16734375 1.84375 -10.16734375 1.84375 -9.44140625 1.0546875 C-6.04543398 -0.85037012 -3.78057901 -0.42077271 0 0 Z " fill="#AEAEAE" transform="translate(638.87890625,932.3828125)"/>
<path d="M0 0 C2.1875 1.625 2.1875 1.625 4.1875 3.625 C4.1875 4.945 4.1875 6.265 4.1875 7.625 C2.8675 7.625 1.5475 7.625 0.1875 7.625 C-0.493125 6.635 -0.493125 6.635 -1.1875 5.625 C-2.70613675 3.29481663 -2.70613675 3.29481663 -5.8125 3.1875 C-8.73835343 3.38065784 -8.73835343 3.38065784 -10.4765625 4.8125 C-12.30512143 7.29335188 -12.21238086 9.00630159 -12.1875 12.0625 C-12.19523438 13.00996094 -12.20296875 13.95742188 -12.2109375 14.93359375 C-11.76040217 17.97691571 -10.83867742 19.35761099 -8.8125 21.625 C-5.37456661 21.44370185 -5.37456661 21.44370185 -1.8125 20.625 C-0.29955712 18.68902968 -0.29955712 18.68902968 0.1875 16.625 C1.8375 16.625 3.4875 16.625 5.1875 16.625 C2.92786851 22.92818258 2.92786851 22.92818258 0.0625 25.625 C-4.09833037 27.07224535 -7.62307425 27.02147525 -11.8125 25.625 C-14.53610009 23.41528672 -16.24351059 20.76297881 -17.8125 17.625 C-18.34459766 12.28657758 -18.45307432 7.92902629 -16.0625 3.0625 C-11.49598339 -1.88455966 -6.29709769 -3.0785811 0 0 Z " fill="#A5A5A5" transform="translate(774.8125,933.375)"/>
<path d="M0 0 C0 2.97 0 5.94 0 9 C1.65 9 3.3 9 5 9 C5 9.99 5 10.98 5 12 C3.35 12 1.7 12 0 12 C0.33 17.94 0.66 23.88 1 30 C2.32 30.33 3.64 30.66 5 31 C5 32.32 5 33.64 5 35 C1.625 35.125 1.625 35.125 -2 35 C-4 33 -4 33 -4.22705078 30.84521484 C-4.21657715 29.97590332 -4.20610352 29.1065918 -4.1953125 28.2109375 C-4.18886719 27.26992188 -4.18242188 26.32890625 -4.17578125 25.359375 C-4.15902344 24.37453125 -4.14226563 23.3896875 -4.125 22.375 C-4.11597656 21.38242187 -4.10695313 20.38984375 -4.09765625 19.3671875 C-4.07404116 16.91121866 -4.04110799 14.45572832 -4 12 C-4.99 12 -5.98 12 -7 12 C-7 11.01 -7 10.02 -7 9 C-6.01 9 -5.02 9 -4 9 C-4.061875 7.88625 -4.12375 6.7725 -4.1875 5.625 C-4.125625 4.42875 -4.06375 3.2325 -4 2 C-1 0 -1 0 0 0 Z " fill="#B1B1B1" transform="translate(828,924)"/>
<path d="M0 0 C0.928125 0.20625 1.85625 0.4125 2.8125 0.625 C2.4825 2.275 2.1525 3.925 1.8125 5.625 C0.843125 5.604375 -0.12625 5.58375 -1.125 5.5625 C-4.06215895 5.26881501 -4.06215895 5.26881501 -5.1875 6.625 C-5.34405027 8.11138992 -5.43816943 9.60449127 -5.50390625 11.09765625 C-5.54580078 11.99677734 -5.58769531 12.89589844 -5.63085938 13.82226562 C-5.68983398 15.24055664 -5.68983398 15.24055664 -5.75 16.6875 C-5.81477539 18.1115918 -5.81477539 18.1115918 -5.88085938 19.56445312 C-5.98729276 21.91781353 -6.08931008 24.27128354 -6.1875 26.625 C-7.8375 26.625 -9.4875 26.625 -11.1875 26.625 C-11.1875 18.045 -11.1875 9.465 -11.1875 0.625 C-8.7125 1.12 -8.7125 1.12 -6.1875 1.625 C-3.1875 -0.375 -3.1875 -0.375 0 0 Z " fill="#A6A6A6" transform="translate(606.1875,932.375)"/>
<path d="M0 0 C0.33 1.32 0.66 2.64 1 4 C-0.134375 4.28875 -1.26875 4.5775 -2.4375 4.875 C-3.613125 5.24625 -4.78875 5.6175 -6 6 C-7.14654482 8.29308963 -7.19729117 9.79909656 -7.31640625 12.3515625 C-7.35830078 13.20234375 -7.40019531 14.053125 -7.44335938 14.9296875 C-7.48267578 15.81914063 -7.52199219 16.70859375 -7.5625 17.625 C-7.62727539 18.97078125 -7.62727539 18.97078125 -7.69335938 20.34375 C-7.79956861 22.56234283 -7.90161194 24.7810488 -8 27 C-9.65 27 -11.3 27 -13 27 C-13 18.42 -13 9.84 -13 1 C-11.68 1 -10.36 1 -9 1 C-8.67 1.66 -8.34 2.32 -8 3 C-7.608125 2.505 -7.21625 2.01 -6.8125 1.5 C-4.44908285 -0.45593143 -2.98564997 -0.24207973 0 0 Z " fill="#A5A5A5" transform="translate(754,932)"/>
<path d="M0 0 C1.32 0 2.64 0 4 0 C4.33 0.66 4.66 1.32 5 2 C6.32 1.34 7.64 0.68 9 0 C8.51917969 0.77601563 8.03835938 1.55203125 7.54296875 2.3515625 C5.53786534 7.09274372 5.4397134 11.27919482 5.3125 16.375 C5.27833984 17.30183594 5.24417969 18.22867188 5.20898438 19.18359375 C5.12700448 21.45560812 5.05769506 23.72726104 5 26 C3.35 26 1.7 26 0 26 C0 17.42 0 8.84 0 0 Z " fill="#A6A6A6" transform="translate(623,933)"/>
<path d="M0 0 C1.65 0 3.3 0 5 0 C5 8.58 5 17.16 5 26 C3.35 26 1.7 26 0 26 C0 17.42 0 8.84 0 0 Z " fill="#A2A2A2" transform="translate(730,933)"/>
<path d="M0 0 C-0.1875 3.3125 -0.1875 3.3125 -1 7 C-3.77119999 9.45449142 -5.51075204 9.95203451 -9.1875 10.3125 C-12 10 -12 10 -14 8 C-13.875 5.5 -13.875 5.5 -13 3 C-9.28892095 0.25105255 -4.49583229 0 0 0 Z " fill="#0F0F0F" transform="translate(584,946)"/>
<path d="M0 0 C-0.48355011 6.40703902 -0.48355011 6.40703902 -2.6875 8.9375 C-5.66455559 10.30533635 -7.75641537 10.34506219 -11 10 C-11.99 9.34 -12.98 8.68 -14 8 C-13.75 5.625 -13.75 5.625 -13 3 C-9.28892095 0.25105255 -4.49583229 0 0 0 Z " fill="#0F0F0F" transform="translate(474,946)"/>
<path d="M0 0 C1.32 0 2.64 0 4 0 C4 8.58 4 17.16 4 26 C2.68 26 1.36 26 0 26 C0 17.42 0 8.84 0 0 Z " fill="#B4B4B4" transform="translate(812,933)"/>
<path d="M0 0 C1.32 0 2.64 0 4 0 C4 8.58 4 17.16 4 26 C2.68 26 1.36 26 0 26 C0 17.42 0 8.84 0 0 Z " fill="#B4B4B4" transform="translate(612,933)"/>
<path d="M0 0 C-0.48355011 6.40703902 -0.48355011 6.40703902 -2.6875 8.9375 C-5.65168456 10.29942264 -7.77345463 10.35071145 -11 10 C-11.66 9.34 -12.32 8.68 -13 8 C-12.9375 5.5 -12.9375 5.5 -12 3 C-8.45000534 0.97143162 -4.10826587 0 0 0 Z " fill="#040404" transform="translate(668,946)"/>
<path d="M0 0 C1.65 0 3.3 0 5 0 C5 1.65 5 3.3 5 5 C3.35 5 1.7 5 0 5 C0 3.35 0 1.7 0 0 Z " fill="#9D9D9D" transform="translate(730,923)"/>
<path d="M0 0 C1.32 0 2.64 0 4 0 C4 1.65 4 3.3 4 5 C2.68 5 1.36 5 0 5 C0 3.35 0 1.7 0 0 Z " fill="#AFAFAF" transform="translate(812,923)"/>
<path d="M0 0 C1.32 0 2.64 0 4 0 C4 1.65 4 3.3 4 5 C2.68 5 1.36 5 0 5 C0 3.35 0 1.7 0 0 Z " fill="#AFAFAF" transform="translate(612,923)"/>
</svg>
