<?xml version="1.0" encoding="UTF-8"?>
<svg version="1.1" xmlns="http://www.w3.org/2000/svg" width="1350" height="1080">
<path d="M0 0 C445.5 0 891 0 1350 0 C1350 356.4 1350 712.8 1350 1080 C904.5 1080 459 1080 0 1080 C0 723.6 0 367.2 0 0 Z " fill="#FEFEFE" transform="translate(0,0)"/>
<path d="M0 0 C0.98396507 0.00424484 0.98396507 0.00424484 1.98780823 0.00857544 C4.05587034 0.01965266 6.12347798 0.04473187 8.19140625 0.0703125 C9.6048114 0.08035848 11.01822342 0.08948148 12.43164062 0.09765625 C15.87254019 0.11955066 19.31317877 0.15399199 22.75390625 0.1953125 C21.14931975 8.18355124 18.77018079 15.87026758 16.31640625 23.6328125 C15.52562652 26.15221348 14.73525408 28.67174234 13.9453125 31.19140625 C13.56898682 32.38644775 13.19266113 33.58148926 12.80493164 34.81274414 C11.63891636 38.56539031 10.52876899 42.33192489 9.45117188 46.11083984 C6.66687555 54.43448202 1.24373698 58.97165646 -6.24609375 63.1953125 C-10.1944333 65.13478447 -14.19820128 66.95405604 -18.19897461 68.78222656 C-24.91105373 71.90165422 -30.4572428 75.56423174 -36.24609375 80.1953125 C-37.66246513 81.17490625 -39.07911275 82.15410077 -40.49609375 83.1328125 C-43.49099708 85.36072839 -45.54230075 87.74993287 -47.74609375 90.7578125 C-56.58275815 102.56644923 -71.89642902 104.34106401 -85.61862183 106.77435303 C-100.61108256 109.45813076 -114.51168427 112.6650903 -127.91772461 120.16552734 C-134.92923932 123.94764052 -142.64220136 125.95012861 -150.24609375 128.1953125 C-150.93113983 128.39829956 -151.61618591 128.60128662 -152.32199097 128.8104248 C-155.05271491 129.61885933 -157.78416694 130.42478902 -160.51631165 131.22840881 C-186.26318743 137.01977741 -186.26318743 137.01977741 -205.55493164 152.51147461 C-208.92715796 159.46988659 -210.80690591 166.53852498 -212.43359375 174.0703125 C-212.68044922 175.15183594 -212.92730469 176.23335937 -213.18164062 177.34765625 C-215.74055801 188.79795856 -217.5994122 199.9414132 -217.43359375 211.6953125 C-217.42424805 212.68926025 -217.41490234 213.68320801 -217.40527344 214.70727539 C-217.36924902 217.5372706 -217.31284764 220.36589378 -217.24609375 223.1953125 C-217.2320752 223.91444824 -217.21805664 224.63358398 -217.20361328 225.37451172 C-216.90680051 237.34800007 -213.51677357 243.23096758 -205.41015625 251.87890625 C-203.73766225 253.66913899 -202.19217639 255.45859994 -200.68359375 257.3828125 C-198.19404883 260.25536433 -195.56058137 262.57015879 -192.6640625 265.015625 C-190.78225794 266.71198516 -189.04022819 268.41906075 -187.296875 270.25 C-179.72758411 278.18348907 -172.28672406 284.48072473 -162.19140625 289.14453125 C-156.68448322 291.74572761 -153.85138755 296.37620168 -150.45703125 301.22265625 C-148.25611906 304.18183324 -145.91213824 306.65417155 -143.24609375 309.1953125 C-142.71886719 309.71996094 -142.19164062 310.24460937 -141.6484375 310.78515625 C-134.10350855 317.72649089 -124.34591543 321.20479141 -114.96484375 324.9765625 C-112.55021465 326.05898244 -110.6322927 327.22124835 -108.49609375 328.7578125 C-96.90623236 336.47627061 -79.85503256 336.39897084 -66.52001953 336.43554688 C-64.38274295 336.44525956 -62.24642735 336.47636358 -60.109375 336.5078125 C-49.80023675 336.58995225 -40.57735928 335.91602815 -32.24609375 329.1953125 C-29.63316386 326.51065002 -29.63316386 326.51065002 -27.24609375 323.5078125 C-26.81530518 322.98179443 -26.3845166 322.45577637 -25.94067383 321.91381836 C-22.92265432 318.17827534 -20.19730909 314.32679755 -17.6953125 310.23046875 C-16.24609375 308.1953125 -16.24609375 308.1953125 -13.79296875 305.76171875 C1.40681545 290.44537179 11.68962385 263.29984583 18.4453125 243.16796875 C26.08256226 220.48865751 26.08256226 220.48865751 35.5625 215.1640625 C37.87201292 214.14310135 40.12753767 213.46964677 42.56640625 212.8203125 C51.92938167 210.23940044 59.20226798 204.14396068 66.171875 197.6015625 C67.44998047 196.41046875 67.44998047 196.41046875 68.75390625 195.1953125 C69.59236084 194.35202393 69.59236084 194.35202393 70.44775391 193.49169922 C75.73428337 188.43648064 80.81421406 186.38720917 87.75390625 184.3203125 C94.73623537 182.06915502 101.22283532 179.75736083 107.50390625 175.9453125 C124.03930838 166.01406822 142.22511798 159.20719723 160.39135742 152.91650391 C172.49205883 148.68409299 184.11333382 143.54587717 195.75390625 138.1953125 C197.41127651 137.44881494 199.0688183 136.70269805 200.7265625 135.95703125 C209.31398562 132.04302961 217.56376692 127.69547023 225.75390625 123.0078125 C249.61479541 109.35580015 273.76793101 97.68902593 299.62890625 88.3203125 C308.95614205 84.90741515 317.95605098 80.70618812 326.99365234 76.60009766 C327.61426041 76.31839218 328.23486847 76.03668671 328.87428284 75.7464447 C330.58546816 74.96860952 332.29533691 74.18787985 334.00512695 73.40698242 C338.51940612 71.41707501 342.86229333 69.82391388 347.75390625 71.1953125 C350.844752 73.86003062 353.26611737 76.97261881 355.75390625 80.1953125 C359.02978983 84.10817344 362.12976237 85.93256795 366.69140625 88.0703125 C374.09721253 91.63271381 377.3076585 95.92612387 381.62890625 102.6953125 C385.15403962 108.11153304 389.70596395 111.81744312 394.76171875 115.76171875 C399.92492596 119.96315207 403.13708628 124.61564281 406.6875 130.22265625 C408.67494332 133.08171932 410.7135031 135.26670803 413.25390625 137.6328125 C418.12964314 142.29946976 421.46656808 147.48490603 424.73486328 153.36816406 C425.4359006 154.62512699 426.15130417 155.87415029 426.87841797 157.11621094 C432.43368409 166.64557468 435.07012213 173.92277052 433.75390625 185.1953125 C433.65464844 186.32066406 433.55539062 187.44601562 433.453125 188.60546875 C432.32368266 198.3597435 429.21532502 206.91063423 421.87109375 213.6875 C418.55160035 216.05156726 414.95622619 217.38672791 411.16796875 218.84375 C393.9916532 225.64352709 378.561378 236.01428482 363.50390625 246.5703125 C362.82529541 247.0456543 362.14668457 247.52099609 361.44750977 248.01074219 C355.57851651 252.19107433 349.8723769 256.56001501 345.25390625 262.1328125 C339.79988542 268.68598549 333.75430629 274.21887726 326.94140625 279.3203125 C326.20639893 279.8767041 325.4713916 280.4330957 324.71411133 281.00634766 C318.77376928 285.48190472 312.7493426 289.83781759 306.70678711 294.17382812 C284.43017537 310.18327045 262.77232839 326.84245619 242.66796875 345.52734375 C240.43698651 347.56991864 238.18585729 349.5684332 235.90234375 351.55078125 C231.75551531 355.16567642 227.74587059 358.91096806 223.75390625 362.6953125 C222.25924073 364.10690442 220.76444593 365.51835945 219.26953125 366.9296875 C218.51865234 367.63931641 217.76777344 368.34894531 216.99414062 369.08007812 C211.55185407 374.21869742 206.09029405 379.3367578 200.62207031 384.44775391 C199.39887052 385.59198602 198.17681965 386.7374479 196.95605469 387.88427734 C188.162987 396.14226492 179.2601096 403.85750684 169.25390625 410.6328125 C162.3412603 415.32432621 156.3414072 420.75200371 150.32421875 426.52734375 C137.18089464 438.89165625 121.90081924 448.91292154 106.45703125 458.171875 C100.11770257 461.97850538 94.26775588 466.02347267 88.49682617 470.62036133 C84.33850842 473.88081032 80.03179714 476.28403346 75.34375 478.6796875 C70.96284792 481.24347333 67.37788332 484.66976444 63.75390625 488.1953125 C62.86638672 487.58042969 62.86638672 487.58042969 61.9609375 486.953125 C61.17074219 486.41429687 60.38054688 485.87546875 59.56640625 485.3203125 C58.78910156 484.78664063 58.01179687 484.25296875 57.2109375 483.703125 C54.83525643 482.14089488 54.83525643 482.14089488 52.3359375 481.2734375 C49.07296739 479.91098705 46.43904164 477.92341324 43.62890625 475.8203125 C32.193775 467.50440725 20.36960734 460.01268813 7.82324219 453.4831543 C-16.18372199 440.98610194 -38.62685263 425.44172446 -60.24609375 409.1953125 C-60.85807617 408.73737305 -61.47005859 408.27943359 -62.10058594 407.80761719 C-78.61616257 395.40988898 -78.61616257 395.40988898 -84.68359375 388.1953125 C-91.56726489 380.1454207 -100.26908602 375.28767152 -109.55859375 370.4453125 C-111.88300552 369.20999853 -114.20722246 367.97431792 -116.53125 366.73828125 C-119.70108349 365.06361001 -122.87224638 363.39159052 -126.04638672 361.72509766 C-150.32707165 348.93680908 -173.18588766 332.785371 -194.24609375 315.1953125 C-194.94734375 314.61652344 -195.64859375 314.03773438 -196.37109375 313.44140625 C-202.68555044 308.09564462 -207.95520947 302.5343268 -212.05859375 295.3203125 C-216.20571296 288.53755261 -221.88718986 283.34640403 -227.55224609 277.82641602 C-232.49221628 273.00058562 -236.92230245 268.13622033 -241.1875 262.70703125 C-260.32251215 239.36013786 -288.40111891 223.56949052 -313.45355225 207.35583496 C-315.08801611 206.29765471 -316.72108534 205.23732111 -318.35400391 204.17675781 C-334.21203987 193.89699607 -348.86974896 186.86573843 -367.24609375 182.1953125 C-368.24382812 181.93621094 -369.2415625 181.67710937 -370.26953125 181.41015625 C-376.28314654 180.09650243 -382.30585986 180.02485438 -388.43359375 179.8203125 C-404.9106231 179.25525662 -421.35229472 176.57503448 -437.15039062 171.81982422 C-439.63914603 171.07818439 -442.13789568 170.37492961 -444.63671875 169.66796875 C-457.00572576 166.10303907 -468.64498401 161.77137648 -480.24609375 156.1953125 C-480.24609375 152.1953125 -480.24609375 152.1953125 -478.03515625 149.85546875 C-476.9922488 148.9754305 -475.93640584 148.11059233 -474.87109375 147.2578125 C-474.01064453 146.55144653 -474.01064453 146.55144653 -473.1328125 145.83081055 C-439.22840728 118.3999605 -439.22840728 118.3999605 -422.75 115.73046875 C-422.03939926 115.61102402 -421.32879852 115.49157928 -420.59666443 115.36851501 C-418.33537617 114.98913122 -416.07233841 114.62222963 -413.80859375 114.2578125 C-403.88816877 112.65012042 -394.21253244 110.80247909 -384.52661133 108.10327148 C-380.48101103 106.98355819 -376.41395029 106.0632036 -372.30859375 105.1953125 C-366.63987223 103.96390711 -360.99799694 102.66878822 -355.37109375 101.2578125 C-354.39523315 101.01526733 -354.39523315 101.01526733 -353.3996582 100.76782227 C-349.84484269 99.87749528 -346.31092605 98.93684722 -342.78515625 97.9375 C-332.98152896 95.22979281 -323.44064598 93.64489309 -313.30859375 92.6953125 C-296.31620175 91.08789312 -280.64897306 87.2283771 -264.5546875 81.6640625 C-251.06388009 77.0147737 -237.19615402 73.50381659 -223.37475586 69.99462891 C-221.1251938 69.41990661 -218.87896862 68.83206446 -216.63500977 68.23583984 C-207.09450242 65.73143212 -197.5277282 63.9601422 -187.79946899 62.35876465 C-174.47458041 60.14701044 -161.59855187 57.72824349 -148.91235352 52.94824219 C-142.91567949 50.75623477 -137.17800293 49.70613893 -130.87890625 48.89453125 C-119.68081228 47.39747008 -109.42412556 44.02416643 -98.80859375 40.2578125 C-96.87904898 39.58625967 -94.9493596 38.91512223 -93.01953125 38.24438477 C-60.45487297 27.9399031 -60.45487297 27.9399031 -31.30859375 11.1953125 C-22.55651582 4.23759364 -11.15090161 -0.09571589 0 0 Z " fill="#FEFEFE" transform="translate(693.24609375,150.8046875)"/>
<path d="M0 0 C3.0916836 0.02162532 6.18108751 -0.00000348 9.27270508 -0.02539062 C11.26685076 -0.02274992 13.26099504 -0.01763027 15.25512695 -0.00976562 C16.16467636 -0.01786255 17.07422577 -0.02595947 18.01133728 -0.03430176 C25.61385204 0.07605271 31.61137365 2.02450474 37.5090332 6.89648438 C42.52424954 13.09175162 43.18878509 17.79014984 42.6340332 25.52148438 C41.90800588 30.06700074 40.91180283 34.53569819 39.8840332 39.02148438 C39.60817383 40.260354 39.33231445 41.49922363 39.0480957 42.77563477 C38.4980954 45.24276523 37.94416584 47.70902358 37.38598633 50.17431641 C36.75502369 52.98291957 36.1456505 55.79386321 35.5559082 58.61132812 C30.64198536 81.97805497 24.04297149 102.26416988 9.6340332 121.52148438 C8.93600586 122.53275391 8.93600586 122.53275391 8.22387695 123.56445312 C1.7663724 132.19420692 -9.54604242 137.16326498 -18.9284668 141.95898438 C-28.01318965 146.62661721 -35.628695 152.37558516 -43.30737305 159.09570312 C-61.29553575 174.73654233 -83.05475005 180.63714638 -105.8659668 186.08398438 C-118.41404403 189.08029867 -129.13813934 193.29327585 -140.5534668 199.20898438 C-148.09966307 203.05114088 -156.26932006 205.04762617 -164.4753418 206.96777344 C-174.91164781 209.43462585 -184.28197591 212.10851734 -190.3659668 221.52148438 C-197.3956196 232.97376643 -197.93882287 250.34758344 -196.3659668 263.52148438 C-195.29558666 267.40472395 -193.75074595 270.29295043 -191.3659668 273.52148438 C-190.56352539 274.63330078 -190.56352539 274.63330078 -189.74487305 275.76757812 C-181.55826738 285.92601139 -169.40650588 292.64910596 -158.42456055 299.41601562 C-153.56725189 302.7596802 -150.04178009 306.79577937 -146.4909668 311.45898438 C-132.97174049 328.34554565 -108.79612521 336.4966586 -87.8034668 339.20898438 C-86.32583353 339.33301928 -84.84632404 339.43588549 -83.3659668 339.52148438 C-82.42237305 339.5859375 -81.4787793 339.65039062 -80.5065918 339.71679688 C-74.86077314 340.02829945 -74.86077314 340.02829945 -69.8034668 337.89648438 C-66.84242424 333.00432711 -66.17634141 328.79606201 -66.4909668 323.14648438 C-66.55730638 317.31523463 -66.11275955 313.11601515 -62.3659668 308.52148438 C-59.03673902 305.35517625 -56.00134493 302.84856 -51.4362793 301.93554688 C-46.67008893 299.74043121 -45.3366464 295.85677652 -43.1159668 291.27148438 C-42.6828418 290.42457031 -42.2497168 289.57765625 -41.8034668 288.70507812 C-37.97234187 281.10195058 -36.07706411 274.23628504 -34.9909668 265.83398438 C-33.03732789 252.10880109 -29.88597638 242.54389293 -18.9284668 233.52148438 C-14.40791201 230.27618337 -9.41401235 227.97730557 -4.42724609 225.54833984 C3.52428709 221.65329714 10.72475792 216.92828462 17.87280273 211.72241211 C25.48097949 206.19095187 32.7371215 201.54516477 41.8840332 198.95898438 C47.16668225 197.46018627 50.80474113 195.16283548 54.9152832 191.47460938 C61.14491393 186.01452127 67.13735208 182.79134141 74.8137207 179.97460938 C82.21661076 177.24388187 89.15617559 173.35375238 96.12719727 169.68115234 C106.59759275 164.22984832 117.35940283 160.03836133 128.4465332 156.02148438 C153.49141575 147.02157709 153.49141575 147.02157709 177.3840332 135.39648438 C182.94096553 132.35932254 188.37002599 129.75100746 194.3215332 127.58398438 C200.81476377 125.12199684 206.01516059 121.74429904 211.63891602 117.70727539 C221.92257728 110.3612648 232.79994334 104.5473837 245.17700195 101.70898438 C263.11451671 97.23548884 283.59788823 89.68432153 298.6340332 78.70898438 C307.73936112 72.10762164 316.40909916 70.18705166 327.6340332 71.52148438 C338.13620111 74.0389532 346.29245513 79.98355799 354.6340332 86.52148438 C355.60469727 87.27945313 356.57536133 88.03742188 357.57543945 88.81835938 C363.19018169 93.32293209 368.54666274 98.08307372 373.83325195 102.96679688 C375.98076781 104.92561887 378.15106575 106.83247751 380.3527832 108.72851562 C393.40259519 120.12157421 405.35724985 132.58657449 415.6340332 146.52148438 C417.25900046 148.5631771 418.88400087 150.60484344 420.5090332 152.64648438 C430.79351337 165.93267473 439.72632799 180.20439889 446.6340332 195.52148438 C447.02461914 196.29878906 447.41520508 197.07609375 447.81762695 197.87695312 C452.67139539 209.02983438 448.44049462 224.88123611 446.8215332 236.39648438 C446.66869873 237.51265137 446.51586426 238.62881836 446.35839844 239.77880859 C443.60650936 258.15103495 435.98786339 273.86474994 421.07543945 285.52148438 C414.29840646 290.03279312 406.90884951 293.31090214 399.51733398 296.6640625 C390.92871288 300.5742566 382.81734741 304.86438871 374.8840332 309.95898438 C373.87493896 310.60432129 373.87493896 310.60432129 372.84545898 311.26269531 C360.98194412 319.04479186 351.30975703 328.65520811 341.45019531 338.74633789 C334.16506745 346.1868382 326.81501155 353.06076157 318.6340332 359.52148438 C317.51986485 360.46726533 316.4117796 361.42032828 315.3137207 362.38476562 C305.18174532 371.23260486 294.3357757 379.12227066 282.8215332 386.08398438 C275.2550769 390.80148533 268.22486773 397.08253077 262.6965332 404.08398438 C259.6981433 407.78430948 255.9648612 410.32217045 252.14599609 413.12719727 C247.02477841 417.00114949 242.60612304 421.42500263 238.1340332 426.02148438 C232.23258269 432.07621932 226.26783734 437.44017909 219.45043945 442.43164062 C216.18787908 444.85254187 213.19563388 447.48288112 210.2199707 450.24414062 C208.6340332 451.52148438 208.6340332 451.52148438 205.6340332 452.52148438 C204.92618065 453.83341692 204.26311397 455.17001125 203.6340332 456.52148438 C202.28051758 458.13378906 202.28051758 458.13378906 200.7277832 459.69335938 C199.86733398 460.56021362 199.86733398 460.56021362 198.98950195 461.44458008 C198.37719727 462.0474585 197.76489258 462.65033691 197.1340332 463.27148438 C196.50110352 463.89692139 195.86817383 464.5223584 195.21606445 465.16674805 C188.33904736 471.88770707 181.24208144 477.5660135 173.0715332 482.64648438 C166.66551187 486.63278513 160.94285535 491.23194033 155.16967773 496.07763672 C150.18147742 500.26161469 145.1206118 504.31948405 139.9465332 508.27148438 C139.31900146 508.75327148 138.69146973 509.23505859 138.04492188 509.73144531 C126.81750611 518.26855841 115.20856623 526.221005 103.44418335 533.99276733 C79.7320668 549.18314838 79.7320668 549.18314838 58.24731445 567.24414062 C53.81045161 571.11064442 49.45739333 572.95056672 43.6340332 573.52148438 C42.9534082 573.59753906 42.2727832 573.67359375 41.5715332 573.75195312 C35.16338227 574.16358782 30.77660191 572.29063614 25.6340332 568.52148438 C23.24562257 566.07183244 21.88741324 564.45054451 20.98950195 561.15820312 C19.04840232 557.38228885 15.95032441 555.87654563 12.3840332 553.83398438 C10.90912408 552.95232561 9.43650131 552.06683198 7.96606445 551.17773438 C7.22952637 550.73300781 6.49298828 550.28828125 5.73413086 549.83007812 C2.7375894 547.96290046 -0.07954911 545.92110356 -2.9284668 543.83398438 C-17.98169915 532.91382701 -33.5522567 523.20156705 -49.99682617 514.51953125 C-69.43655257 504.24441429 -87.10232732 492.07793825 -104.3659668 478.52148438 C-105.26702148 477.82796875 -106.16807617 477.13445312 -107.09643555 476.41992188 C-111.94741808 472.59359296 -116.34665364 468.56282386 -120.60986328 464.10424805 C-128.76516863 455.61659152 -137.23160615 449.44296459 -147.3659668 443.52148438 C-148.35097168 442.93866699 -149.33597656 442.35584961 -150.35083008 441.75537109 C-161.31821605 435.27714813 -172.34708709 428.96708864 -183.6784668 423.14648438 C-195.54472342 417.02164252 -205.60072731 409.67955871 -215.3659668 400.52148438 C-222.80434027 393.82268149 -230.3060564 387.27657771 -238.9284668 382.14648438 C-249.01446006 375.80752213 -255.25062949 366.05446476 -262.12719727 356.56811523 C-266.83007289 350.12317413 -271.86997288 344.30832469 -277.3659668 338.52148438 C-278.43487997 337.27696404 -279.49771502 336.02718914 -280.5534668 334.77148438 C-289.72146916 324.33670885 -299.08437814 315.19297318 -310.86206055 307.78710938 C-316.91307339 303.96472453 -322.26208617 299.20378529 -327.66674805 294.53320312 C-333.43336605 289.69699744 -339.54650668 285.95488908 -346.05810547 282.23266602 C-350.16899538 279.86785042 -354.02994999 277.40985527 -357.8034668 274.52148438 C-376.06883014 260.88482464 -392.9498923 256.31357322 -415.46362305 255.72070312 C-435.27450673 255.1562816 -454.09660267 249.26772348 -472.6784668 242.83398438 C-473.5818277 242.52335052 -474.4851886 242.21271667 -475.41592407 241.89266968 C-487.55611638 237.70846712 -499.54794305 233.42609649 -511.0480957 227.66943359 C-513.75364196 226.32948431 -516.48638202 225.05398512 -519.22143555 223.77539062 C-521.22889556 222.81774326 -523.23542402 221.85814042 -525.2409668 220.89648438 C-526.62578247 220.24933472 -526.62578247 220.24933472 -528.03857422 219.58911133 C-533.68037645 216.81504644 -537.91753094 213.87063291 -541.3659668 208.52148438 C-543.33675479 202.60912039 -543.52492122 197.94215766 -540.7800293 192.20898438 C-529.14511856 172.55238595 -510.48223219 157.86251676 -492.3659668 144.52148438 C-491.65214844 143.99345215 -490.93833008 143.46541992 -490.20288086 142.92138672 C-456.13527509 117.85614189 -417.98069317 112.32418649 -377.33764648 104.30615234 C-370.75496547 103.00704821 -364.17635117 101.68751218 -357.59838867 100.36474609 C-352.00137122 99.24111636 -346.40077111 98.13920717 -340.7956543 97.05664062 C-327.91179772 94.55756141 -315.15293775 91.96148445 -302.57788086 88.17773438 C-300.10509886 87.44408779 -297.6237242 86.74628497 -295.1394043 86.05273438 C-287.29596338 83.8576681 -279.50182173 81.62251499 -271.8034668 78.95898438 C-256.67167926 73.86608501 -241.63894166 71.01673232 -225.81152344 68.96606445 C-212.66054624 67.23290921 -200.55067525 64.00945554 -188.00610352 59.73950195 C-178.08748158 56.37307164 -168.15057541 53.7506639 -157.8034668 52.08398438 C-149.94073708 50.80716883 -142.78421804 48.44327413 -135.3659668 45.52148438 C-129.93035968 43.44891476 -124.53129814 41.54648813 -118.91333008 40.0222168 C-99.7236723 34.74311585 -80.57858565 27.07539123 -64.01831055 15.94335938 C-58.53515506 12.36943299 -52.88482692 10.06863246 -46.7409668 7.89648438 C-45.56993408 7.48064087 -45.56993408 7.48064087 -44.37524414 7.05639648 C-41.72070887 6.1538117 -39.05029141 5.33125823 -36.3659668 4.52148438 C-34.68796997 3.98539551 -34.68796997 3.98539551 -32.97607422 3.43847656 C-21.98017793 0.25979286 -11.40387114 -0.09500942 0 0 Z M-50.5144043 52.09619141 C-56.74713724 56.66032844 -62.97212871 59.86470037 -70.1159668 62.77148438 C-71.23213379 63.23401611 -72.34830078 63.69654785 -73.49829102 64.1730957 C-85.80184779 69.21069882 -98.26258008 73.81242864 -110.79174805 78.25341797 C-113.09902657 79.07199752 -115.40391469 79.89736112 -117.70581055 80.73095703 C-128.69930717 84.70550301 -139.13624245 87.94716471 -150.76171875 89.30957031 C-157.40468701 90.16773721 -163.37050567 92.06166945 -169.6784668 94.27148438 C-180.51693263 98.01305977 -191.34532011 100.17904813 -202.6159668 102.08398438 C-224.91542504 105.86934984 -246.63786985 110.7138708 -268.1472168 117.82617188 C-276.03563148 120.42495307 -284.03981934 122.62515027 -292.03588867 124.86474609 C-294.18548707 125.47061572 -296.33117105 126.08812363 -298.4753418 126.71289062 C-299.67674805 127.06222656 -300.8781543 127.4115625 -302.1159668 127.77148438 C-303.12143555 128.06539063 -304.1269043 128.35929687 -305.1628418 128.66210938 C-312.35512558 130.59174649 -319.25802917 131.77643858 -326.6887207 132.4074707 C-341.56385907 133.69268099 -355.47628372 136.73161007 -369.86401367 140.60742188 C-376.87353606 142.43701277 -383.95011755 143.98551856 -391.01879883 145.56762695 C-392.02797363 145.79603271 -393.03714844 146.02443848 -394.0769043 146.25976562 C-394.95652832 146.45610596 -395.83615234 146.65244629 -396.74243164 146.85473633 C-399.4372679 147.50420166 -399.4372679 147.50420166 -402.29248047 148.50756836 C-411.3289464 151.48861872 -420.8641221 152.80029606 -430.24780273 154.20532227 C-441.89864121 155.99746172 -451.68882777 157.51036511 -461.3659668 164.52148438 C-462.71173545 165.43442933 -464.05955363 166.34435729 -465.40893555 167.25195312 C-477.23046898 175.31088556 -488.62920364 184.06290731 -499.3659668 193.52148438 C-498.70779542 196.53930617 -498.70779542 196.53930617 -496.75317383 197.5612793 C-494.3386585 198.62790709 -491.9253032 199.68804111 -489.4909668 200.70898438 C-488.56131104 201.10118164 -487.63165527 201.49337891 -486.67382812 201.89746094 C-463.07191737 211.55022891 -436.38726725 219.14674214 -410.75512695 219.76074219 C-399.52715756 220.05825065 -389.17711408 221.52448275 -378.3659668 224.52148438 C-377.31022461 224.80813965 -377.31022461 224.80813965 -376.2331543 225.10058594 C-363.95339547 228.49337908 -353.28496875 233.52622246 -342.6237793 240.47851562 C-341.51802803 241.19701942 -341.51802803 241.19701942 -340.38993835 241.93003845 C-332.7190685 246.92451407 -325.08770239 251.97828871 -317.47167969 257.0559082 C-315.17053067 258.58927259 -312.86692717 260.11890126 -310.56323242 261.6484375 C-285.06619812 278.61189542 -285.06619812 278.61189542 -275.6159668 287.02148438 C-274.99383301 287.5691748 -274.37169922 288.11686523 -273.73071289 288.68115234 C-265.7586482 295.75849863 -258.60141652 303.13324456 -251.9753418 311.48632812 C-248.90306561 315.19149321 -245.39222817 318.4383337 -241.9284668 321.77148438 C-236.93185839 326.6097452 -232.75667217 331.44340507 -229.0534668 337.33398438 C-223.06729797 346.85331545 -215.74629783 353.83307706 -206.5300293 360.27148438 C-203.40571194 362.49322116 -200.37557094 364.80538568 -197.34643555 367.15380859 C-188.57357647 373.95277438 -179.62487304 380.40134735 -170.3659668 386.52148438 C-169.43397461 387.14120117 -169.43397461 387.14120117 -168.4831543 387.7734375 C-158.34621069 394.46424442 -147.74318002 400.07408401 -136.9519043 405.63085938 C-123.18577862 412.72718701 -110.54093743 419.46730303 -100.29956055 431.34570312 C-92.90220955 439.66959101 -83.29433782 445.95966953 -74.3659668 452.52148438 C-73.31022461 453.30136719 -72.25448242 454.08125 -71.16674805 454.88476562 C-63.78078631 460.25047685 -56.22504765 465.36616141 -48.64492798 470.45233154 C-47.48265492 471.23252376 -46.3212973 472.01408194 -45.16098022 472.79718018 C-34.58303259 479.92699939 -23.68525019 486.28374174 -12.39355469 492.22241211 C-2.87166619 497.26933835 6.12518969 502.97009612 15.0715332 508.95898438 C15.95692276 509.5509964 15.95692276 509.5509964 16.86019897 510.15496826 C26.64152976 516.71248901 26.64152976 516.71248901 30.27490234 519.67407227 C33.18647158 521.95409342 36.23287152 523.0894163 39.6340332 524.52148438 C41.70797062 525.77221417 43.65463586 527.12142284 45.6340332 528.52148438 C46.12129883 528.03679687 46.60856445 527.55210937 47.1105957 527.05273438 C51.57707943 522.82987703 56.1091284 519.5068821 61.5090332 516.58398438 C66.02718495 514.13572776 69.92828293 511.6117941 73.8215332 508.20898438 C78.48172293 504.21160756 83.36142177 501.2496935 88.6965332 498.27148438 C106.96314443 488.03942158 123.53270883 474.95412111 138.70043945 460.56054688 C143.32593932 456.25979747 148.2080958 452.70658838 153.4465332 449.20898438 C160.87233527 444.24171319 167.18370968 438.69177888 173.6340332 432.52148438 C175.04249496 431.28292448 176.4582338 430.05254549 177.8840332 428.83398438 C181.3023015 425.87478104 184.46317555 422.71063668 187.6340332 419.49023438 C190.19708549 416.96722978 192.90749144 414.6458562 195.6340332 412.30273438 C198.34249983 409.89050629 200.86555965 407.31740341 203.3840332 404.70898438 C205.33944924 402.80788545 207.33677994 401.01888658 209.39575195 399.23242188 C213.52302563 395.6483864 217.48727009 391.91388677 221.4465332 388.14648438 C226.76770098 383.12107367 232.15998358 378.29851048 237.8918457 373.74023438 C239.88648334 372.12633954 241.82649388 370.49583555 243.7512207 368.80273438 C252.51994235 361.09259536 261.72288495 354.14821394 271.1784668 347.30371094 C275.97235151 343.82435536 280.73148018 340.29761934 285.49462891 336.77636719 C289.51119428 333.81046668 293.53978358 330.86409758 297.5949707 327.95117188 C308.85681549 319.82880412 319.62376632 311.54837339 328.6340332 300.89648438 C344.58207547 282.41806379 372.84579778 266.3858438 395.38110352 258.31982422 C403.7588326 255.17116007 408.93412355 249.36758697 412.6340332 241.31054688 C414.49013039 236.13377582 415.15268634 230.97883256 415.6340332 225.52148438 C415.76422852 224.40644531 415.89442383 223.29140625 416.02856445 222.14257812 C416.73870879 211.56263108 412.88383898 204.33897066 407.6340332 195.52148438 C407.26536133 194.8861377 406.89668945 194.25079102 406.5168457 193.59619141 C402.35504636 186.48091656 397.88614617 180.44665277 391.81762695 174.79882812 C389.33512554 172.20974347 387.54570259 169.491157 385.6340332 166.45898438 C381.49236164 159.98351376 376.52095046 155.58477976 370.5324707 150.86523438 C365.57503708 146.80741226 362.58988257 142.48879441 359.26293945 137.03320312 C355.76223773 131.6352386 351.37916712 129.3795589 345.6965332 126.77148438 C340.33561359 124.21074734 337.35329483 121.4590225 334.03637695 116.57226562 C333.57360352 115.89550781 333.11083008 115.21875 332.6340332 114.52148438 C332.24344727 113.93753906 331.85286133 113.35359375 331.45043945 112.75195312 C328.33112035 110.63886599 325.19665867 110.93680681 321.6340332 111.52148438 C317.83627858 112.76871476 314.25635999 114.40108095 310.6340332 116.08398438 C309.61365967 116.54216553 308.59328613 117.00034668 307.54199219 117.47241211 C304.56674153 118.80945859 301.59971106 120.16336535 298.6340332 121.52148438 C295.99304529 122.72009988 293.34805685 123.90886127 290.6965332 125.08398438 C290.08197266 125.35686279 289.46741211 125.62974121 288.83422852 125.91088867 C282.9396718 128.47876271 276.91623787 130.67623868 270.8840332 132.89648438 C249.85512276 140.67668799 229.65798636 150.29079121 210.29418945 161.61523438 C187.47390623 174.96047784 163.47643231 185.83869059 138.48950195 194.45117188 C120.44925186 200.71157719 100.73687731 208.01334164 84.7590332 218.64648438 C79.89863049 221.78084302 74.61759564 223.1613135 69.1340332 224.83398438 C60.43934628 227.53475546 54.81106709 230.68430946 48.6340332 237.52148438 C39.99187976 245.80102998 31.75650612 251.00198206 20.3293457 254.61132812 C12.84271853 257.13942107 9.32758387 261.83821995 5.6340332 268.52148438 C3.97546146 272.60996288 2.58578992 276.76786412 1.22409058 280.96356201 C-5.0550669 300.16428178 -13.77856445 317.8347605 -23.8659668 335.33398438 C-24.25083252 336.00349121 -24.63569824 336.67299805 -25.03222656 337.36279297 C-27.39406429 341.31487615 -30.05166717 344.34877666 -33.3659668 347.52148438 C-36.14366158 350.84320978 -38.67121778 354.30545266 -41.1784668 357.83398438 C-48.39426945 367.71244483 -53.81848518 374.41195411 -66.3659668 376.52148438 C-71.44510879 376.77444496 -76.53111507 376.76596671 -81.6159668 376.77148438 C-82.3363916 376.77282379 -83.05681641 376.77416321 -83.79907227 376.77554321 C-100.98141801 376.7685932 -115.75770671 374.62012244 -131.1159668 366.64648438 C-135.94264639 364.17096105 -140.73511334 361.91234467 -145.8034668 359.95898438 C-157.09135419 355.40395373 -164.64994659 346.5598759 -172.0847168 337.24023438 C-176.01790906 332.55273126 -179.25512307 329.28932323 -184.9284668 326.89648438 C-192.30866052 323.36014155 -197.66409992 318.23461234 -203.3659668 312.52148438 C-203.86580078 312.02326172 -204.36563477 311.52503906 -204.88061523 311.01171875 C-207.232224 308.66467622 -209.57207758 306.30889128 -211.89331055 303.93164062 C-214.27364473 301.61147286 -216.7724887 299.59542207 -219.3659668 297.52148438 C-229.74116319 286.85497577 -234.79381621 278.48439334 -235.3659668 263.52148438 C-235.41696533 262.29365234 -235.41696533 262.29365234 -235.46899414 261.04101562 C-236.22688685 239.95851787 -233.08090288 219.52987179 -226.3659668 199.52148438 C-225.98311523 198.35617187 -225.60026367 197.19085938 -225.20581055 195.99023438 C-222.52119885 189.35669844 -219.25636534 185.93632752 -212.70996094 182.96240234 C-210.61177297 182.09658461 -208.49811797 181.30003852 -206.3659668 180.52148438 C-205.49552734 180.20228027 -204.62508789 179.88307617 -203.72827148 179.55419922 C-192.85202046 175.64256508 -181.84725914 172.29873131 -170.6784668 169.33398438 C-160.47800398 166.62406679 -150.92175379 163.40870551 -141.53955078 158.52368164 C-130.07346369 152.56448657 -118.47330914 149.78938107 -105.7878418 147.66259766 C-84.10639392 144.27747601 -84.10639392 144.27747601 -66.3659668 132.52148438 C-65.7678418 131.57015625 -65.1697168 130.61882812 -64.5534668 129.63867188 C-62.17798924 126.25361635 -59.53232748 123.9430822 -56.2409668 121.52148438 C-55.66185547 121.08852051 -55.08274414 120.65555664 -54.48608398 120.20947266 C-47.68997833 115.19401423 -40.75125348 111.11663747 -33.06542969 107.61669922 C-21.57153055 102.36907986 -12.9195892 97.89386923 -8.07202148 85.51513672 C-6.00870508 79.68905036 -4.43321581 73.70645158 -2.8190918 67.74414062 C-1.25012025 61.98248171 0.65578018 56.37287639 2.65356445 50.74804688 C3.6888359 47.34113764 4.16524698 44.04585938 4.6340332 40.52148438 C0.58145567 40.42113484 -3.47062159 40.34933467 -7.52416992 40.30175781 C-8.89734524 40.28188459 -10.27043876 40.25477579 -11.64331055 40.21972656 C-26.28284669 39.85587844 -38.61801226 43.37667679 -50.5144043 52.09619141 Z " fill="#E71A20" transform="translate(711.365966796875,110.478515625)"/>
<path d="M0 0 C3.031875 -0.061875 6.06375 -0.12375 9.1875 -0.1875 C10.60712036 -0.22846802 10.60712036 -0.22846802 12.05541992 -0.27026367 C16.84936401 -0.3175874 20.15522761 -0.20273273 24 3 C26.33909307 6.5086396 26.41291057 7.87089433 26 12 C24.5 14.875 24.5 14.875 23 17 C23.845625 17.845625 24.69125 18.69125 25.5625 19.5625 C27.78782103 22.25063708 27.99498696 22.85712826 28.125 26.5625 C26.81411814 30.56797235 25.21780258 32.33157835 22 35 C19.59940183 36.20029908 18.10639351 36.11459743 15.4296875 36.09765625 C14.62257324 36.09515869 13.81545898 36.09266113 12.98388672 36.09008789 C11.9579541 36.08098389 10.93202148 36.07187988 9.875 36.0625 C4.986875 36.0315625 4.986875 36.0315625 0 36 C0 24.12 0 12.24 0 0 Z " fill="#B6B6B6" transform="translate(635,885)"/>
<path d="M0 0 C3.7125 -0.04125 7.425 -0.0825 11.25 -0.125 C12.99651855 -0.15231201 12.99651855 -0.15231201 14.77832031 -0.18017578 C15.70225586 -0.1851709 16.62619141 -0.19016602 17.578125 -0.1953125 C18.52075195 -0.20578613 19.46337891 -0.21625977 20.43457031 -0.22705078 C23.1655208 0.01464925 24.71921031 0.49921793 27 2 C29.67356175 6.01034263 29.70026766 9.28600308 29 14 C26.76489976 17.11317533 24.38046653 18.35947948 21 20 C21.45890625 20.50789062 21.9178125 21.01578125 22.390625 21.5390625 C32 32.31932773 32 32.31932773 32 36 C29.26171875 36.36328125 29.26171875 36.36328125 26 36 C23.76953125 33.48046875 23.76953125 33.48046875 21.8125 30.1875 C18.98783171 25.09729377 18.98783171 25.09729377 15 21 C12.49796352 20.42428504 12.49796352 20.42428504 9.8125 20.3125 C7.4303125 20.1578125 7.4303125 20.1578125 5 20 C5 25.28 5 30.56 5 36 C3.35 36 1.7 36 0 36 C0 24.12 0 12.24 0 0 Z " fill="#B8B8B8" transform="translate(528,885)"/>
<path d="M0 0 C1.65 0 3.3 0 5 0 C5 11.88 5 23.76 5 36 C3.68 36 2.36 36 1 36 C0.67 35.34 0.34 34.68 0 34 C-0.495 34.515625 -0.99 35.03125 -1.5 35.5625 C-4.49923949 37.28706271 -6.64162252 37.275256 -10.03125 36.71875 C-14.07929755 35.24089137 -16.12165277 31.75669446 -18 28 C-18.53209766 22.66157758 -18.64057432 18.30402629 -16.25 13.4375 C-13.12342105 10.0503728 -11.52474306 9.12446882 -6.9375 8.75 C-4 9 -4 9 -1 11 C-0.67 7.37 -0.34 3.74 0 0 Z " fill="#B9B9B9" transform="translate(609,885)"/>
<path d="M0 0 C1.32 0 2.64 0 4 0 C4 11.88 4 23.76 4 36 C2.68 36 1.36 36 0 36 C-0.33 35.34 -0.66 34.68 -1 34 C-1.515625 34.515625 -2.03125 35.03125 -2.5625 35.5625 C-5 37 -5 37 -8.4375 36.9375 C-12.35985305 35.90530183 -14.22283533 34.93585979 -17 32 C-19.13391769 27.52893437 -19.79995186 22.88751075 -19 18 C-16.97898053 14.17449886 -14.87100717 11.04935674 -11 9 C-5.85509518 8.34320364 -4.7417387 9.15495678 0 12 C0 8.04 0 4.08 0 0 Z " fill="#B7B7B7" transform="translate(818,885)"/>
<path d="M0 0 C3.67732054 2.98782294 4.5496084 5.00100804 6 9.4375 C4.35 9.7675 2.7 10.0975 1 10.4375 C0.5875 9.65375 0.175 8.87 -0.25 8.0625 C-2.1190631 5.25890534 -2.83068917 4.40590053 -6 3.4375 C-10.28261351 2.96165405 -12.47440024 3.15982465 -16.3125 5.1875 C-19.60021973 7.94000954 -20.80461001 9.75765357 -21.30078125 14.0234375 C-21.32387166 19.51895437 -21.32672379 23.803849 -18 28.4375 C-13.80155314 31.04250647 -9.79945498 30.88157768 -5 30.4375 C-2.06919326 29.57096586 -2.06919326 29.57096586 0 28.4375 C0.33 26.1275 0.66 23.8175 1 21.4375 C-2.3 21.4375 -5.6 21.4375 -9 21.4375 C-9 19.7875 -9 18.1375 -9 16.4375 C-4.05 16.4375 0.9 16.4375 6 16.4375 C6 21.3875 6 26.3375 6 31.4375 C-0.43571675 35.06325592 -5.53238625 37.87980085 -13 36.4375 C-18.93796496 34.51891565 -22.40440326 31.44954394 -26 26.4375 C-28.34393272 21.74963457 -27.48509 15.52258135 -27 10.4375 C-25.4513537 5.88184093 -22.80310816 2.68244305 -18.875 -0.0625 C-13.08209263 -2.89571234 -5.77829107 -2.82793482 0 0 Z " fill="#BABABA" transform="translate(760,885.5625)"/>
<path d="M0 0 C3.02072422 1.51036211 5.22584446 3.11506881 7 6 C7.33 8.97 7.66 11.94 8 15 C1.73 15 -4.54 15 -11 15 C-9.46687233 19.31608796 -9.46687233 19.31608796 -7 23 C-2.9357492 22.79561574 -2.9357492 22.79561574 1 22 C1.66 21.01 2.32 20.02 3 19 C5.625 18.8125 5.625 18.8125 8 19 C5.375 24.75 5.375 24.75 2 27 C-2.37433428 27.65237324 -7.01269906 28.03401151 -11.01953125 25.94921875 C-14.11111403 23.39922712 -15.83151816 21.40543712 -16.30859375 17.42578125 C-16.69940934 7.98699266 -16.69940934 7.98699266 -13.125 3.8125 C-9.22777452 -0.05648472 -5.45208985 -1.00020353 0 0 Z " fill="#B8B8B8" transform="translate(579,894)"/>
<path d="M0 0 C1.65 0 3.3 0 5 0 C5.01981934 0.55985596 5.03963867 1.11971191 5.06005859 1.6965332 C5.15537783 4.23565854 5.26502753 6.77396888 5.375 9.3125 C5.4059375 10.19357422 5.436875 11.07464844 5.46875 11.98242188 C5.50742187 12.82998047 5.54609375 13.67753906 5.5859375 14.55078125 C5.6173584 15.33106689 5.6487793 16.11135254 5.68115234 16.9152832 C5.89587889 19.30155768 5.89587889 19.30155768 8 22 C11.10494126 22.31845551 13.01726077 21.99424641 16 21 C16.33 14.07 16.66 7.14 17 0 C18.65 0 20.3 0 22 0 C22 8.58 22 17.16 22 26 C20.68 26 19.36 26 18 26 C17.67 25.34 17.34 24.68 17 24 C16.319375 24.515625 15.63875 25.03125 14.9375 25.5625 C11.09474677 27.44299626 9.08867758 27.11509388 5 26 C2.6818638 24.10888889 1.33085985 22.66171969 0 20 C-0.08372659 18.47851674 -0.10730027 16.95344222 -0.09765625 15.4296875 C-0.09443359 14.53378906 -0.09121094 13.63789062 -0.08789062 12.71484375 C-0.07951172 11.77769531 -0.07113281 10.84054687 -0.0625 9.875 C-0.05798828 8.93011719 -0.05347656 7.98523438 -0.04882812 7.01171875 C-0.03702357 4.67441613 -0.02055759 2.33723939 0 0 Z " fill="#BABABA" transform="translate(668,895)"/>
<path d="M0 0 C2.75281844 2.86778534 3.45143401 4.99758435 3.5 8.9375 C3.37586427 12.75185233 3.07308178 13.89037733 0.875 17.1875 C-2 19 -2 19 -5.125 19.125 C-8 18 -8 18 -9.875 16.0625 C-11.49235834 11.65969118 -11.68650957 7.63393959 -11 3 C-8.16400241 -1.87791585 -5.11933774 -1.48926189 0 0 Z " fill="#FCFCFC" transform="translate(815,899)"/>
<path d="M0 0 C2.56452999 2.81271031 2.96285514 4.65950546 3.375 8.4375 C2.9543352 12.43381558 2.39384127 14.75673118 0 18 C-3.4375 19.1875 -3.4375 19.1875 -7 19 C-9.4375 17.25 -9.4375 17.25 -11 14 C-11.71042665 9.04166145 -11.95136458 4.67440166 -9.4375 0.25 C-5.86125944 -1.58396952 -3.79071204 -1.17167463 0 0 Z " fill="#FCFCFC" transform="translate(607,899)"/>
<path d="M0 0 C2.60444348 -0.05394705 5.20776998 -0.09364469 7.8125 -0.125 C8.55048828 -0.14175781 9.28847656 -0.15851562 10.04882812 -0.17578125 C13.91246426 -0.21074628 15.70903668 -0.19397555 19 2 C19.5 5.4375 19.5 5.4375 19 9 C15.02792061 12.27640447 11.71231827 12.32838276 6.6875 12.1875 C5.43324219 12.16042969 4.17898438 12.13335938 2.88671875 12.10546875 C1.93410156 12.07066406 0.98148438 12.03585937 0 12 C0 8.04 0 4.08 0 0 Z " fill="#FBFBFB" transform="translate(533,889)"/>
<path d="M0 0 C2.0625 -0.061875 4.125 -0.12375 6.25 -0.1875 C7.99023438 -0.23970703 7.99023438 -0.23970703 9.765625 -0.29296875 C13.25717355 0.02329471 14.6141457 0.46937299 17 3 C17.5 6.5 17.5 6.5 17 10 C14.6141457 12.53062701 13.25717355 12.97670529 9.765625 13.29296875 C8.60546875 13.25816406 7.4453125 13.22335937 6.25 13.1875 C4.1875 13.125625 2.125 13.06375 0 13 C0 8.71 0 4.42 0 0 Z " fill="#FBFBFB" transform="translate(640,904)"/>
<path d="M0 0 C1.65 0 3.3 0 5 0 C5 11.88 5 23.76 5 36 C3.35 36 1.7 36 0 36 C0 24.12 0 12.24 0 0 Z " fill="#BBBBBB" transform="translate(696,885)"/>
<path d="M0 0 C2.10353495 -0.0810206 4.20795952 -0.13919907 6.3125 -0.1875 C7.48425781 -0.22230469 8.65601563 -0.25710938 9.86328125 -0.29296875 C13 0 13 0 14.89453125 1.35546875 C16.47793508 3.71099176 16.41637778 5.22414816 16 8 C14.89453125 9.64453125 14.89453125 9.64453125 13 11 C9.86328125 11.29296875 9.86328125 11.29296875 6.3125 11.1875 C4.54326172 11.14689453 4.54326172 11.14689453 2.73828125 11.10546875 C1.83464844 11.07066406 0.93101562 11.03585937 0 11 C0 7.37 0 3.74 0 0 Z " fill="#FDFDFD" transform="translate(640,889)"/>
<path d="M0 0 C0.78375 0.04125 1.5675 0.0825 2.375 0.125 C2.705 1.775 3.035 3.425 3.375 5.125 C2.240625 5.434375 1.10625 5.74375 -0.0625 6.0625 C-3.41275099 6.75424531 -3.41275099 6.75424531 -4.625 8.125 C-4.78120555 9.53827947 -4.87556173 10.9585459 -4.94140625 12.37890625 C-4.98330078 13.23291016 -5.02519531 14.08691406 -5.06835938 14.96679688 C-5.12733398 16.31354492 -5.12733398 16.31354492 -5.1875 17.6875 C-5.23068359 18.58919922 -5.27386719 19.49089844 -5.31835938 20.41992188 C-5.42478142 22.65478485 -5.52679988 24.88976308 -5.625 27.125 C-6.945 27.125 -8.265 27.125 -9.625 27.125 C-9.625 18.545 -9.625 9.965 -9.625 1.125 C-7.15 1.62 -7.15 1.62 -4.625 2.125 C-2.625 0.125 -2.625 0.125 0 0 Z " fill="#B6B6B6" transform="translate(782.625,893.875)"/>
<path d="M0 0 C1.32 0 2.64 0 4 0 C4 11.88 4 23.76 4 36 C2.68 36 1.36 36 0 36 C0 24.12 0 12.24 0 0 Z " fill="#B4B4B4" transform="translate(708,885)"/>
<path d="M0 0 C1.32 0 2.64 0 4 0 C4 8.58 4 17.16 4 26 C2.68 26 1.36 26 0 26 C0 17.42 0 8.84 0 0 Z " fill="#B4B4B4" transform="translate(790,895)"/>
<path d="M0 0 C2.375 1.8125 2.375 1.8125 4 4 C4 4.99 4 5.98 4 7 C-0.62 7 -5.24 7 -10 7 C-9.67 5.35 -9.34 3.7 -9 2 C-5.50875983 -0.32749345 -4.10777749 -0.50299316 0 0 Z " fill="#FCFCFC" transform="translate(578,898)"/>
<path d="M0 0 C1.32 0 2.64 0 4 0 C4 1.65 4 3.3 4 5 C2.68 5 1.36 5 0 5 C0 3.35 0 1.7 0 0 Z " fill="#B5B5B5" transform="translate(790,885)"/>
</svg>
