<?xml version="1.0" encoding="UTF-8"?>
<svg version="1.1" xmlns="http://www.w3.org/2000/svg" width="1350" height="1080">
<path d="M0 0 C445.5 0 891 0 1350 0 C1350 356.4 1350 712.8 1350 1080 C904.5 1080 459 1080 0 1080 C0 723.6 0 367.2 0 0 Z " fill="#000000" transform="translate(0,0)"/>
<path d="M0 0 C1.52317466 6.91782945 2.52169367 13.75692578 3.125 20.8125 C3.2480249 22.25109375 3.2480249 22.25109375 3.37353516 23.71875 C4.9241498 42.74989615 4.9241498 42.74989615 2.5625 48.5 C0.27216047 50.73447759 -1.10019175 51.63584846 -3.875 53 C-15.20967712 58.76116867 -24.03814821 70.91683158 -32.09765625 80.4921875 C-40.83346343 90.59155978 -50.32719253 96.09083802 -63.0625 99.8125 C-68.88336665 101.53770435 -74.31987613 103.752476 -79.82836914 106.2746582 C-83.82078764 108.09234894 -87.84742808 109.70917417 -91.95703125 111.24609375 C-100.78878237 114.60720371 -109.30290837 118.64394587 -117.8605957 122.63964844 C-128.80852091 127.74135442 -138.92987171 131.57451737 -150.90673828 133.43652344 C-156.21185304 134.40291688 -161.30149997 136.00271406 -166.4375 137.625 C-168.12758179 138.15613403 -168.12758179 138.15613403 -169.85180664 138.69799805 C-191.55255586 145.61315037 -213.86328595 153.12840713 -230 170 C-230.68964844 170.65871094 -231.37929688 171.31742188 -232.08984375 171.99609375 C-248.4703597 188.62813394 -248.18747697 209.91848989 -248.18530273 231.72827148 C-248.18750757 234.19597185 -248.20581355 236.66323628 -248.22460938 239.13085938 C-248.81364457 258.27311669 -248.81364457 258.27311669 -240.5 274.5625 C-236.15150037 277.92562533 -231.00443397 279.81959045 -226 282 C-211.99659613 288.36867135 -199.28972564 297.0612312 -187.609375 307.04296875 C-163.30712425 327.59801617 -133.92961397 341.03473032 -103 348 C-102.26257568 348.17885742 -101.52515137 348.35771484 -100.76538086 348.54199219 C-97.12769113 349.14447351 -93.52507858 349.20171169 -89.84765625 349.23828125 C-89.06990341 349.246353 -88.29215057 349.25442474 -87.49082947 349.26274109 C-85.85108636 349.27652493 -84.21131525 349.28727238 -82.5715332 349.29516602 C-80.9005488 349.30671023 -79.22960196 349.32720059 -77.55883789 349.35668945 C-75.13402464 349.39943953 -72.71029987 349.41554103 -70.28515625 349.42578125 C-69.17395164 349.45204338 -69.17395164 349.45204338 -68.04029846 349.47883606 C-62.84007985 349.45723061 -60.09546678 348.09988369 -56 345 C-55.34 345 -54.68 345 -54 345 C-53.58041016 344.13181641 -53.58041016 344.13181641 -53.15234375 343.24609375 C-52 341 -52 341 -50.81640625 339.09765625 C-42.65647968 325.85366327 -41.96256389 307.77504019 -40.0625 292.6015625 C-39.81391235 290.64367798 -39.81391235 290.64367798 -39.56030273 288.64624023 C-39.23718786 286.07669259 -38.92363052 283.50591827 -38.62133789 280.93383789 C-37.03513296 268.30381759 -35.12456954 256.38108354 -26 247 C-25.39929688 246.360625 -24.79859375 245.72125 -24.1796875 245.0625 C-13.01621862 234.20547928 1.41205802 227.63433146 15.5 221.5 C31.54990714 214.49855038 45.40504671 206.29411466 59.11206055 195.41137695 C83.68233446 175.90571292 107.54873749 163.48998171 137.69311523 155.12792969 C144.38533496 153.24733601 150.65245251 150.83357276 157 148 C159.47468771 146.96552143 161.95065704 145.9417055 164.4375 144.9375 C165.0778418 144.67880127 165.71818359 144.42010254 166.37792969 144.15356445 C170.24897942 142.61762865 174.1214681 141.32692693 178.125 140.1875 C191.67461481 136.1556634 204.50029265 129.77964991 217.1875 123.625 C235.27437097 114.86989267 253.88196417 107.37926601 272.5625 100 C273.62280426 99.58056122 273.62280426 99.58056122 274.70452881 99.15264893 C279.12588824 97.40683569 283.55680302 95.68950797 288 94 C289.27182129 93.51285522 289.27182129 93.51285522 290.56933594 93.01586914 C296.32336013 90.94143232 302.06549604 90.13794882 308.125 89.4375 C314.30268917 88.70405658 320.01024994 87.72538468 326 86 C333.02884091 84.78749417 340.19331962 84.10205365 346.26953125 88.2109375 C349.04017374 91.03970536 351.50245336 93.93122817 354 97 C355.30018554 98.22370404 356.63084441 99.41648647 358 100.5625 C361.22294537 103.31653324 364.36980873 106.14069067 367.5 109 C370.55386574 111.78686109 373.61682988 114.5527492 376.75 117.25 C382.64795789 122.38964902 388.34797753 127.74655303 394.02441406 133.12841797 C395.32486336 134.36040565 396.62881857 135.58870482 397.93652344 136.81298828 C405.0369745 143.48449179 410.97205927 149.64357778 415.53515625 158.375 C416.95216227 160.91427479 418.4611364 162.81964155 420.4375 164.9375 C423 168 423 168 423.41015625 170.35546875 C422.02881108 179.26185615 410.97801235 187.18110903 404.12109375 192.44140625 C399.23052943 196.31794427 396.80987864 200.48728571 394 206 C384.85143365 222.67791741 371.06927416 236.09228051 356.78344727 248.44580078 C351.52236644 253.03061126 346.72470478 257.94564483 342.5 263.5 C333.24200956 275.35542263 321.85812215 285.80087181 310 295 C308.79191934 295.9827936 307.58636117 296.96869287 306.3828125 297.95703125 C300.06066489 303.12969747 293.76344049 307.966815 286.79296875 312.25 C275.94829304 319.04498562 266.3075664 327.00964241 256.74023438 335.46875 C252.24893989 339.42068589 247.65092473 343.23828541 243 347 C242.45907715 347.44150391 241.9181543 347.88300781 241.36083984 348.33789062 C233.85831271 354.41470388 226.07420225 360.00634441 218.02734375 365.3359375 C217.31177811 365.80994995 216.59621246 366.2839624 215.85896301 366.77233887 C212.25449949 369.15432764 208.64102322 371.52125189 205.01489258 373.87011719 C193.20797017 381.57035568 182.88592707 390.35175119 172.45703125 399.8203125 C168.97472903 402.90954086 165.37664941 405.84324526 161.75390625 408.765625 C159.99476698 410.19289828 158.25075838 411.63916346 156.52734375 413.109375 C148.59685865 419.82638557 140.04504817 425.52598021 131.44433594 431.34033203 C115.31931288 442.28898432 101.02864763 452.89508009 89.08984375 468.49609375 C81.00109381 478.9547959 71.77997348 490.46321068 59 495 C58.11441406 495.350625 57.22882812 495.70125 56.31640625 496.0625 C47.78193776 499.21226313 38.98734801 500.80564612 30 502 C28.88882813 502.15339844 27.77765625 502.30679687 26.6328125 502.46484375 C20.76400601 502.89928787 17.53008384 502.06842389 12.88671875 498.40625 C7.21233839 494.10034613 1.32008373 490.42525731 -4.8125 486.8125 C-5.89635986 486.16885498 -6.98021973 485.52520996 -8.09692383 484.86206055 C-10.32271374 483.54119259 -12.5498404 482.2225745 -14.77832031 480.90625 C-17.77224596 479.1347608 -20.75854136 477.35123174 -23.7421875 475.5625 C-33.84752492 469.52104105 -44.04098071 463.69452305 -54.41870117 458.13208008 C-58.67531813 455.84560156 -62.84663241 453.49676508 -66.953125 450.94921875 C-72.10138959 447.83282001 -77.42848183 445.50162891 -83 443.25 C-84.02311279 442.82879883 -85.04622559 442.40759766 -86.1003418 441.97363281 C-91.69154013 439.68888414 -97.30997639 437.48658095 -102.95703125 435.34375 C-104.10236328 434.90901367 -105.24769531 434.47427734 -106.42773438 434.02636719 C-108.61722575 433.20072806 -110.80976787 432.38311521 -113.00585938 431.57519531 C-122.17666159 428.13687232 -131.20338022 424.27868678 -138.375 417.4375 C-139.14585937 416.71433594 -139.91671875 415.99117187 -140.7109375 415.24609375 C-142.26256424 413.72359311 -143.79078617 412.17693685 -145.296875 410.609375 C-148.62968283 407.39215588 -152.18783001 404.60954811 -155.875 401.8125 C-156.62096436 401.24515137 -157.36692871 400.67780273 -158.13549805 400.09326172 C-170.38548976 390.86134631 -183.4771989 381.16513107 -197.875 375.6875 C-220.60247421 366.62621943 -239.12985264 345.04901896 -256 328 C-262.12415218 321.83191559 -268.29468381 316.38851085 -275.5 311.5 C-290.46096145 301.26568085 -299.94160256 287.72874011 -310.17578125 273.0078125 C-311.11471051 271.67013295 -312.05614794 270.33421063 -313 269 C-313.50080078 268.29198242 -314.00160156 267.58396484 -314.51757812 266.85449219 C-325.69679105 251.45281221 -344.98656137 245.2378658 -362.15823364 238.85296631 C-373.33724887 234.69602111 -384.24279207 230.15214904 -395 225 C-395.71430176 224.6587207 -396.42860352 224.31744141 -397.16455078 223.96582031 C-405.468952 219.96945868 -413.48449218 215.62850625 -421.44921875 210.9921875 C-425.15877675 208.8721446 -428.97345038 206.99706853 -432.8125 205.125 C-445.68308205 198.80391733 -457.74284645 191.19258941 -469.81445312 183.48168945 C-479.88397348 177.09943911 -490.29914992 171.25803152 -501 166 C-497.16807356 156.82408966 -486.30545674 150.70053509 -478 146 C-476.77603516 145.30583984 -476.77603516 145.30583984 -475.52734375 144.59765625 C-461.59198259 137.51151433 -445.36985128 136.6137979 -430.08227539 135.1484375 C-422.42609532 134.37700228 -415.48097492 133.09920732 -408.12109375 130.8359375 C-404.87578124 129.96672989 -401.91223559 129.67390469 -398.5625 129.5 C-392.57685436 129.16164587 -387.7481486 127.55185227 -383.3046875 123.42578125 C-379.94101914 121.34486777 -376.47715273 121.33782628 -372.625 121.0625 C-364.36229731 120.29917894 -356.91821146 118.51827857 -349 116 C-347.68758441 115.62788726 -346.37369627 115.26093981 -345.05859375 114.8984375 C-330.94873156 110.9406583 -317.22954411 105.86376606 -303.46899414 100.85009766 C-302.6352829 100.54699677 -301.80157166 100.24389587 -300.94259644 99.93161011 C-299.37030454 99.35936336 -297.79881465 98.78490611 -296.228302 98.20779419 C-284.40294567 93.9001841 -284.40294567 93.9001841 -278.6875 93.54296875 C-277.92937012 93.48488037 -277.17124023 93.42679199 -276.39013672 93.36694336 C-275.20701904 93.2781189 -275.20701904 93.2781189 -274 93.1875 C-266.30464068 92.51193035 -259.67831548 90.91754309 -252.4921875 88.12109375 C-249.67316159 87.21610445 -247.66159962 86.80927069 -244.78125 86.57421875 C-239.10642686 86.05010325 -233.98433082 84.23875693 -228.625 82.375 C-227.56845215 82.0138208 -226.5119043 81.6526416 -225.42333984 81.28051758 C-222.27788898 80.19904636 -219.13824909 79.1021719 -216 78 C-214.74123047 77.56228271 -214.74123047 77.56228271 -213.45703125 77.11572266 C-193.35662055 70.09152134 -173.91443843 61.53218031 -154.80432129 52.17059326 C-138.15386367 44.02488121 -121.18392045 36.54795233 -103.8125 30.0625 C-103.15620605 29.81636963 -102.49991211 29.57023926 -101.82373047 29.31665039 C-97.68541224 27.82273679 -93.50827199 26.57399153 -89.27172852 25.38645935 C-78.96489658 22.47258949 -69.18660267 18.62652108 -59.3125 14.5 C-39.41499541 6.24081238 -21.9711153 -0.59292365 0 0 Z " fill="#000000" transform="translate(721,170)"/>
<path d="M0 0 C0.79365967 -0.01385742 1.58731934 -0.02771484 2.4050293 -0.04199219 C8.74060238 0.00933534 12.8488842 1.53307654 17.625 5.875 C20.33774249 9.38864741 20.74013331 12.99158865 21.35546875 17.3046875 C21.8960278 20.49926956 22.76804784 23.41386465 23.75 26.5 C29.30089457 45.42729841 35.09797636 71.11220934 25.24609375 89.3984375 C21.2480658 95.68220669 16.57301272 101.20372531 11.46484375 106.609375 C9.43115117 108.78110102 7.48622828 110.98135226 5.55078125 113.23828125 C1.96617718 117.35280856 -1.87491682 121.1053079 -5.875 124.8125 C-6.57238281 125.46210693 -7.26976562 126.11171387 -7.98828125 126.78100586 C-13.51853826 131.89432936 -19.19355252 136.73000885 -25.125 141.375 C-25.75921875 141.91253906 -26.3934375 142.45007813 -27.046875 143.00390625 C-38.80485605 152.62635655 -54.74235319 156.87813012 -68.93383789 161.60180664 C-79.52367011 165.14268272 -89.45363497 169.22010325 -99.33006287 174.43830872 C-114.22274101 182.21008053 -129.39941005 187.53730163 -145.84448242 190.90478516 C-152.06493991 192.23051284 -157.4532385 194.50518563 -163.125 197.375 C-167.51225329 199.34515948 -171.8795191 200.5579958 -176.57568359 201.59912109 C-187.61685189 204.09568262 -197.79885632 208.4100221 -206.96484375 215.12890625 C-210.125 217.375 -210.125 217.375 -212.125 217.375 C-215.90506277 224.74949746 -218.71908744 232.20313327 -220.125 240.375 C-220.310625 241.34824219 -220.49625 242.32148438 -220.6875 243.32421875 C-222.11775573 252.03487343 -222.39582471 260.68489788 -222.5 269.5 C-222.53891357 271.27963135 -222.53891357 271.27963135 -222.57861328 273.09521484 C-222.58103027 274.22137207 -222.58344727 275.3475293 -222.5859375 276.5078125 C-222.59415527 277.51730957 -222.60237305 278.52680664 -222.61083984 279.56689453 C-221.99523872 283.12500713 -220.60582381 284.80089699 -218.125 287.375 C-216.00912974 288.24173963 -216.00912974 288.24173963 -213.6875 288.5625 C-208.9794505 289.77725913 -205.76038973 291.94819936 -202.0625 295 C-197.1875449 299.01161321 -192.27073354 302.05433835 -186.625 304.875 C-179.33385643 308.55332007 -173.21352817 312.90553108 -166.85302734 318.01416016 C-150.79330181 330.66136419 -133.59941704 341.01773655 -114.125 347.375 C-113.19816406 347.67921875 -112.27132813 347.9834375 -111.31640625 348.296875 C-105.63353467 349.99222177 -99.83497969 351.04427159 -94 352.0625 C-92.88939209 352.26008911 -92.88939209 352.26008911 -91.75634766 352.46166992 C-84.86891852 353.59582741 -77.95391932 354.13730176 -71.125 352.375 C-71.15980469 351.27027344 -71.19460938 350.16554688 -71.23046875 349.02734375 C-71.80496585 322.1490865 -68.1061472 284.50962969 -51.125 262.375 C-50.56554687 261.63765625 -50.00609375 260.9003125 -49.4296875 260.140625 C-36.52563187 244.48298427 -18.00937599 235.8652056 0.3737793 228.40649414 C9.73751519 224.58021572 18.7256204 220.36353845 26.75 214.125 C27.75289062 213.35285156 28.75578125 212.58070313 29.7890625 211.78515625 C30.80742188 210.98980469 31.82578125 210.19445312 32.875 209.375 C35.50019187 207.35127614 38.12536391 205.32758711 40.75756836 203.31298828 C43.68827662 201.06809921 46.59702864 198.80145846 49.48046875 196.49609375 C59.45236811 188.63643687 70.04867006 182.58562386 81.29394531 176.72509766 C83.66288086 175.48595524 86.01772635 174.22480735 88.3671875 172.94921875 C96.4656093 168.5626946 104.04476174 164.61949718 113.06640625 162.578125 C114.43830352 162.25585676 115.81004334 161.93291764 117.18164062 161.609375 C119.29666367 161.11738481 121.41244352 160.630609 123.53149414 160.15625 C131.217972 158.42388265 138.22577311 156.48267798 145.20703125 152.765625 C151.11543658 149.6237772 156.4433734 148.00627628 163 146.875 C170.84497948 145.31932891 176.51927394 143.41726131 183.19921875 138.9765625 C186.05557769 137.26691701 188.53217793 136.50538032 191.75 135.6875 C198.13056403 133.91765307 203.49698083 130.99768023 209.25 127.75 C226.78346967 117.94153323 245.07276222 110.79646523 263.9375 104 C264.77175507 103.69886292 265.60601013 103.39772583 266.46554565 103.08746338 C293.26768716 93.44912973 293.26768716 93.44912973 304.8125 92.25 C309.72229262 91.72643125 314.13827388 90.75676914 318.875 89.375 C321.91369049 88.86349973 324.95380595 88.4436792 328.0078125 88.03515625 C331.12496091 87.31744769 333.17384569 86.04820267 335.875 84.375 C340.62678236 83.67391736 343.52819993 83.73589931 347.5 86.5 C352.14562255 90.34245009 356.29865011 94.7501261 360.5144043 99.05151367 C364.9403824 103.53918615 369.54156174 107.51037915 374.48046875 111.4296875 C379.24844801 115.30318452 383.28092021 119.65266109 387.1875 124.375 C390.49352925 128.22215063 394.20069228 130.8589036 398.3984375 133.66796875 C408.47294325 140.61206814 416.90799934 149.93822487 424.5 159.44140625 C426.13886182 161.46572406 427.78735654 163.44369558 429.5 165.40234375 C454.00590726 193.47481788 454.00590726 193.47481788 453.25390625 209 C452.61328892 213.01541583 451.13286883 216.0222008 448.875 219.375 C448.44703125 220.02082031 448.0190625 220.66664063 447.578125 221.33203125 C443.43959917 226.73984722 438.23600619 229.86833286 432.3815918 233.14233398 C425.43181422 237.03791694 420.84493556 240.48830116 417.5625 248.0625 C414.89839061 253.84247861 411.8003585 257.95274605 407.3359375 262.5390625 C403.67434932 266.75860698 400.82855641 271.44938109 397.94433594 276.22387695 C393.37514722 283.62944035 387.78930862 288.90505284 380.75 294 C372.19528713 300.37660336 364.70394584 307.89332767 357.76171875 315.98046875 C343.61347545 332.25638421 328.08635839 347.74203827 309.875 359.375 C308.10754678 360.52262761 306.3406437 361.67110282 304.57421875 362.8203125 C301.95293672 364.52492246 299.32953069 366.22300709 296.68408203 367.88989258 C290.48360321 371.82473854 284.74328028 375.92150761 280.125 381.6875 C276.8131428 385.6827563 272.90682584 388.76797177 268.85546875 391.98828125 C265.86271783 394.3848354 262.96756885 396.8733052 260.0625 399.375 C255.25291715 403.40481909 250.27319148 406.81208854 244.94824219 410.11889648 C241.3664806 412.35923187 238.05971266 414.7376295 234.8125 417.4375 C230.33312612 421.13407068 225.59072065 424.067452 220.62109375 427.05859375 C208.66818446 434.35503145 197.37917264 442.5565615 186.546875 451.4140625 C182.76222279 454.49747679 178.86111755 457.40927038 174.9375 460.3125 C168.70931425 464.93284958 162.66149441 469.73679743 156.66870117 474.65771484 C152.58897647 478.00237661 148.45708063 481.25499828 144.25 484.4375 C138.99418723 488.44440677 133.96075279 492.65273524 128.96875 496.98242188 C125.44739371 500.03609804 121.88216225 503.0150706 118.25 505.9375 C108.01436224 514.27653429 98.41434623 523.18969588 90.15234375 533.53125 C85.50321834 539.24648691 80.28039492 542.78766485 73.875 546.375 C73.30136719 546.70000488 72.72773437 547.02500977 72.13671875 547.35986328 C61.2261044 553.45473805 49.9304542 557.19345867 37.875 560.375 C37.19083008 560.55764404 36.50666016 560.74028809 35.80175781 560.9284668 C18.55359782 564.92579126 4.82817287 554.84809903 -9.125 546.375 C-13.10163218 543.97494782 -17.08177433 541.58075528 -21.0625 539.1875 C-22.11598633 538.55312012 -23.16947266 537.91874023 -24.25488281 537.26513672 C-31.9741394 532.6296337 -39.7519992 528.10476262 -47.5625 523.625 C-56.56477193 518.46066208 -65.4902994 513.19585859 -74.3203125 507.7421875 C-74.9503418 507.35353516 -75.58037109 506.96488281 -76.22949219 506.56445312 C-77.52648833 505.75057301 -78.81327367 504.92025386 -80.09082031 504.07617188 C-84.76579898 501.02359158 -89.35598878 498.94129197 -94.625 497.125 C-96.29323589 496.52808983 -97.96119071 495.93039371 -99.62890625 495.33203125 C-100.95365967 494.86144287 -100.95365967 494.86144287 -102.30517578 494.38134766 C-123.34912379 486.8711179 -141.45556081 479.67173711 -158.5 464.875 C-163.65231416 460.40421695 -169.01120158 456.84655074 -174.90625 453.38671875 C-178.19361709 451.33211432 -181.1148872 449.06489813 -184.125 446.625 C-194.31753485 438.48421942 -206.11238975 432.59167427 -217.5703125 426.44921875 C-230.07455624 419.7322915 -240.02116749 412.89322028 -249.52319336 402.30224609 C-255.38095759 395.8406369 -262.06716019 390.58246269 -268.90234375 385.1796875 C-273.84629274 381.22169103 -278.42348812 377.12616241 -282.8125 372.5625 C-287.30510381 367.90468863 -292.08336659 363.99437231 -297.3125 360.1875 C-310.75980066 350.32687869 -319.47186605 338.48504689 -328.57421875 324.66796875 C-337.8978289 310.59633519 -349.15223013 302.72919956 -365.5 298.6875 C-378.57174642 295.25616657 -390.6893177 288.19614986 -402.66015625 282.05859375 C-403.9607699 281.39290162 -405.26154224 280.72751939 -406.5625 280.0625 C-407.17802734 279.74643799 -407.79355469 279.43037598 -408.42773438 279.10473633 C-413.32717988 276.64406581 -418.36167505 274.71354814 -423.5 272.8125 C-429.5035327 270.58245489 -434.40230333 268.14248735 -439.5 264.1953125 C-442.90905745 261.83129349 -446.51636508 260.10389693 -450.25 258.3125 C-455.22084926 255.91658135 -459.54018557 253.50579783 -463.8203125 249.99609375 C-467.17311662 247.63776543 -470.79268014 245.86430667 -474.4375 244 C-479.59975445 241.35735772 -484.37086411 238.6551324 -489 235.125 C-495.13388548 230.46472064 -501.60066753 227.72120425 -508.765625 224.984375 C-528.73876283 217.33838831 -528.73876283 217.33838831 -535.125 208.375 C-536.32250745 204.78247765 -537.03158628 202.06223526 -536.125 198.375 C-533.8300906 194.41980699 -530.97557315 190.94159389 -528.125 187.375 C-527.24586242 186.22090445 -526.36964565 185.06457918 -525.49609375 183.90625 C-506.75101084 159.22359729 -482.5674298 146.122188 -452.00390625 141.93383789 C-449.5408382 141.60265949 -447.07729063 141.27502823 -444.61328125 140.95092773 C-436.87906859 139.89451967 -429.61426232 138.34165468 -422.17236328 136.01977539 C-417.40615512 134.58069745 -413.17122148 134.04977981 -408.1875 133.875 C-402.22006277 133.65374968 -398.30109646 132.40784685 -393.0390625 129.69921875 C-389.63062774 128.15034558 -386.19061907 127.23017438 -382.5625 126.375 C-381.5415625 126.13209229 -381.5415625 126.13209229 -380.5 125.88427734 C-379.08718799 125.54978491 -377.67409659 125.21647051 -376.26074219 124.88427734 C-365.23516428 122.25517863 -354.57772598 118.90419091 -343.9375 115 C-321.39418802 106.73651316 -298.3219054 99.85685517 -274.66113281 95.63818359 C-237.00542755 88.91354311 -198.92637609 74.67789251 -165.27685547 56.55761719 C-159.15858592 53.30619996 -153.15155744 50.76729228 -146.56713867 48.65112305 C-140.77129338 46.73767511 -135.45268028 44.16554183 -130 41.4375 C-106.77882019 29.98685747 -82.02218385 21.56559212 -57.5625 13.1875 C-56.78043182 12.91923401 -55.99836365 12.65096802 -55.19259644 12.37457275 C-37.17460999 6.21669275 -19.21001396 0.20035553 0 0 Z M-67.32128906 47.56079102 C-76.10104917 51.29321779 -85.14088737 54.19518353 -94.24169922 57.03564453 C-120.22339046 65.15605676 -144.78362202 77.18949134 -169.30371094 88.89208984 C-190.65412918 99.08095687 -212.67937454 106.96652454 -235.125 114.375 C-236.73157471 114.92607422 -236.73157471 114.92607422 -238.37060547 115.48828125 C-241.36531756 116.45236513 -244.19202529 116.87011612 -247.3125 117.25 C-251.60177679 117.85792899 -255.26297249 118.69559684 -259.25 120.375 C-264.03560342 122.2741578 -268.53781695 122.72729802 -273.625 123.0625 C-290.82964252 124.3707515 -307.16911933 131.84971062 -323.19311523 137.84375 C-358.65671483 151.02240211 -358.65671483 151.02240211 -376.6875 151.75 C-381.98862353 152.02978152 -385.12687268 153.77868535 -389.28515625 157 C-392.51611603 159.4146451 -395.48041503 159.50128351 -399.375 159.6875 C-404.05179159 160.036597 -408.1456316 160.88014664 -412.625 162.25 C-419.98645508 164.35543674 -427.26373769 165.1441608 -434.875 165.875 C-460.81663 168.44617848 -484.11878939 173.8679268 -502.125 194.375 C-502.125 195.035 -502.125 195.695 -502.125 196.375 C-501.05507813 196.91125 -499.98515625 197.4475 -498.8828125 198 C-487.8436305 203.62658842 -477.28721208 209.85980752 -466.76660156 216.40039062 C-453.5493055 224.61602246 -440.30217787 232.56717855 -426.2265625 239.23046875 C-422.66013772 241.00098842 -419.34048554 243.09333661 -415.97265625 245.21484375 C-409.52548463 249.25178701 -402.8593636 252.58869344 -395.9375 255.75 C-395.3432724 256.02402649 -394.7490448 256.29805298 -394.1368103 256.5803833 C-381.36748111 262.46056934 -368.29025277 267.45531712 -355.125 272.375 C-335.33824173 279.77729569 -321.1357815 288.01685611 -309.42578125 305.95703125 C-304.97974894 312.65878571 -300.05325775 319.0242799 -295.125 325.375 C-294.45855469 326.24382812 -293.79210937 327.11265625 -293.10546875 328.0078125 C-287.66429219 334.62257616 -280.77571664 339.28926719 -273.82080078 344.17822266 C-267.09974653 348.92147171 -260.30926131 353.7224301 -254.95703125 360.01171875 C-245.36811621 371.06454232 -234.81379577 381.55542048 -223.125 390.375 C-222.27107666 391.03556396 -222.27107666 391.03556396 -221.39990234 391.70947266 C-213.34479336 397.93454899 -205.43312191 403.14976851 -196.125 407.375 C-178.00300027 415.79755543 -154.34705254 429.31733561 -142 445.1875 C-131.56103514 457.28771948 -114.29043122 462.00391295 -99.73471069 467.49810791 C-88.20383795 471.86648867 -76.93077509 476.39868599 -66.125 482.375 C-65.44856445 482.74270508 -64.77212891 483.11041016 -64.07519531 483.48925781 C-58.72719509 486.39646263 -53.42142426 489.37508474 -48.125 492.375 C-47.29307129 492.84454102 -46.46114258 493.31408203 -45.60400391 493.79785156 C-29.07965372 503.13240797 -12.76110186 512.78277908 3.3125 522.875 C4.09963379 523.36742187 4.88676758 523.85984375 5.69775391 524.3671875 C8.83656393 526.35233575 11.75405894 528.27151076 14.58203125 530.69140625 C20.09890427 534.74212562 28.55464592 532.52590043 34.92700195 531.59863281 C47.42367118 529.55847691 61.54739466 526.38641533 70.875 517.375 C71.62595947 516.67093018 71.62595947 516.67093018 72.39208984 515.95263672 C80.81244406 508.02660937 87.97366951 499.62156139 94.875 490.375 C103.61953818 478.99060123 115.96133571 471.64977649 127.67504883 463.64111328 C142.74364241 453.3234515 157.02313108 442.58637226 170.5 430.25 C182.76061287 419.03321997 196.05435273 409.5362315 209.875 400.375 C226.07021069 389.63041168 241.22170503 378.01543286 255.9375 365.3125 C266.07333205 356.57933678 276.07616987 348.25748297 287.62109375 341.4296875 C293.15045591 337.93815749 298.17786741 333.82993573 303.2421875 329.70361328 C304.7473417 328.47887507 306.26380128 327.26806564 307.78125 326.05859375 C321.51069896 315.0316369 334.96189352 302.9063315 345.75 288.94921875 C351.14245839 282.41681052 357.37866091 276.43278751 363.8125 270.9375 C376.60370633 259.92802095 387.52561819 247.94384728 394.74609375 232.546875 C397.86152903 226.55316561 402.93516753 222.31449232 408 217.98828125 C410.42873361 215.89855838 412.66664207 213.69660706 414.875 211.375 C415.50019531 210.76785156 416.12539062 210.16070312 416.76953125 209.53515625 C420.84173819 205.37933378 420.84173819 205.37933378 422.25 199.875 C420.69502126 195.91687231 418.7469195 193.66471447 415.83203125 190.63208008 C413.92589903 188.43370278 412.67892203 186.37175218 411.31640625 183.8125 C407.51217543 177.33525106 402.35655628 172.38219706 397 167.1875 C396.03427821 166.23330971 395.0694299 165.27823455 394.10546875 164.32226562 C389.41632973 159.70709793 384.66065072 155.21724882 379.67138672 150.9284668 C376.8408804 148.48072125 374.11203848 145.9261615 371.375 143.375 C367.29912474 139.59330219 363.1890141 135.86909874 358.984375 132.23046875 C356.14357438 129.73161635 353.35194674 127.18091555 350.5625 124.625 C350.0461499 124.15247803 349.5297998 123.67995605 348.99780273 123.19311523 C344.95141607 119.47644893 344.95141607 119.47644893 343.515625 117.5703125 C340.67369401 115.49976278 337.3171409 115.93738677 333.9375 116 C332.78797852 116.01087646 332.78797852 116.01087646 331.61523438 116.02197266 C326.12644029 116.15424661 321.25228853 117.04419234 315.98046875 118.609375 C313.05039454 119.33175808 310.2656051 119.63119457 307.26123047 119.84155273 C283.97921905 121.62045848 261.13619002 134.21576762 239.875 143.375 C238.73933594 143.86291016 237.60367188 144.35082031 236.43359375 144.85351562 C225.10833502 149.7332308 213.90486333 154.7988647 202.8125 160.1875 C191.90344267 165.47592899 181.0169236 169.8967767 169.375 173.3125 C164.40892088 174.78030664 159.8214694 176.66681229 155.125 178.8125 C147.63074054 182.21464731 140.04863714 184.53424985 132.1328125 186.73486328 C104.06809958 194.69179205 81.9788779 207.41520299 58.9609375 225.15234375 C42.93208928 237.47054961 26.69956881 246.70295719 8.21102905 254.7729187 C-7.6096976 261.7021744 -27.6999621 271.6821354 -35.125 288.375 C-37.86122203 297.08227432 -39.09702342 306.08263103 -40.31643677 315.09790039 C-40.63106944 317.41979056 -40.9548384 319.74025066 -41.28100586 322.06054688 C-42.1999539 328.61043843 -43.09788033 335.16280854 -43.97265625 341.71875 C-45.60438661 353.68296204 -47.671973 363.64465919 -55.125 373.375 C-55.125 374.035 -55.125 374.695 -55.125 375.375 C-56.45833333 376.04166667 -57.79166667 376.70833333 -59.125 377.375 C-59.67615479 377.72054932 -60.22730957 378.06609863 -60.79516602 378.42211914 C-64.04667018 379.7519547 -67.19155042 379.71841736 -70.65234375 379.74609375 C-71.38909332 379.7572522 -72.1258429 379.76841064 -72.88491821 379.77990723 C-75.27766966 379.80715359 -77.66959974 379.81342403 -80.0625 379.8125 C-80.87733856 379.81323517 -81.69217712 379.81397034 -82.53170776 379.81472778 C-95.67636337 379.78348225 -107.60875537 378.63164475 -120.125 374.375 C-120.90472168 374.12331055 -121.68444336 373.87162109 -122.48779297 373.61230469 C-148.65947335 365.0868034 -172.41991722 351.64489276 -193.1953125 333.57421875 C-204.41040101 324.13713207 -217.43807635 316.0111809 -231 310.4375 C-243.07078252 305.46017967 -243.07078252 305.46017967 -246.16015625 299.31640625 C-249.07897073 291.48312275 -249.28062293 283.02361152 -249.2578125 274.74609375 C-249.25876923 273.95332535 -249.25972595 273.16055695 -249.26071167 272.34376526 C-249.26138731 270.67570923 -249.2595764 269.00765047 -249.25537109 267.33959961 C-249.25006455 264.8428729 -249.25531121 262.34633023 -249.26171875 259.84960938 C-249.27475748 235.63414283 -247.49963373 217.34616456 -229.8984375 199.125 C-212.16071251 181.53717128 -187.69127912 174.2558884 -164.4375 166.9375 C-163.39996582 166.60741943 -162.36243164 166.27733887 -161.29345703 165.93725586 C-156.08467601 164.3459845 -151.07267667 163.16444821 -145.66796875 162.46484375 C-132.20583063 160.5492628 -119.79164357 153.58460772 -107.56616211 147.88623047 C-99.1851123 143.9873928 -90.87098717 140.40264509 -82.09960938 137.45532227 C-79.27656399 136.4300452 -76.7083299 135.22675269 -74.0625 133.8125 C-70.36520821 131.86400907 -66.7673554 130.59076217 -62.75 129.4375 C-48.49729831 125.21695849 -38.56773494 117.87719852 -29.03515625 106.609375 C-24.87219544 101.73981757 -20.4831102 97.06934422 -16.125 92.375 C-15.48304688 91.66601562 -14.84109375 90.95703125 -14.1796875 90.2265625 C-10.55012084 86.36065196 -6.95800478 83.95118754 -2.140625 81.7109375 C0.51990685 79.94756174 1.44933501 78.22457886 2.875 75.375 C3.95566239 66.62754873 2.56996085 57.40645144 1.64819336 48.68676758 C1.43375387 46.65195302 1.23089563 44.61620131 1.02929688 42.58007812 C0.67245139 36.28981654 0.67245139 36.28981654 -1.125 30.375 C-25.2136203 29.35876133 -45.56120652 38.2026739 -67.32128906 47.56079102 Z " fill="#E4181E" transform="translate(722.125,139.625)"/>
<path d="M0 0 C3.031875 -0.061875 6.06375 -0.12375 9.1875 -0.1875 C10.60712036 -0.22846802 10.60712036 -0.22846802 12.05541992 -0.27026367 C16.84936401 -0.3175874 20.15522761 -0.20273273 24 3 C26.33909307 6.5086396 26.41291057 7.87089433 26 12 C24.5 14.875 24.5 14.875 23 17 C23.845625 17.845625 24.69125 18.69125 25.5625 19.5625 C27.78782103 22.25063708 27.99498696 22.85712826 28.125 26.5625 C26.81411814 30.56797235 25.21780258 32.33157835 22 35 C19.59940183 36.20029908 18.10639351 36.11459743 15.4296875 36.09765625 C14.62257324 36.09515869 13.81545898 36.09266113 12.98388672 36.09008789 C11.9579541 36.08098389 10.93202148 36.07187988 9.875 36.0625 C4.986875 36.0315625 4.986875 36.0315625 0 36 C0 24.12 0 12.24 0 0 Z " fill="#ACACAC" transform="translate(635,830)"/>
<path d="M0 0 C3.526875 -0.061875 7.05375 -0.12375 10.6875 -0.1875 C12.342052 -0.22846802 12.342052 -0.22846802 14.0300293 -0.27026367 C23.14958118 -0.34783783 23.14958118 -0.34783783 27 3 C28.72638847 6.45277694 28.49130032 10.2243907 28 14 C25.76489976 17.11317533 23.38046653 18.35947948 20 20 C20.45890625 20.50789062 20.9178125 21.01578125 21.390625 21.5390625 C31 32.31932773 31 32.31932773 31 36 C28.2578125 36.36328125 28.2578125 36.36328125 25 36 C22.8046875 33.48046875 22.8046875 33.48046875 20.875 30.1875 C17.76620693 24.79488764 17.76620693 24.79488764 13 21 C10.65147774 20.43310718 10.65147774 20.43310718 8.25 20.3125 C6.8475 20.209375 5.445 20.10625 4 20 C4 25.28 4 30.56 4 36 C2.68 36 1.36 36 0 36 C0 24.12 0 12.24 0 0 Z " fill="#AEAEAE" transform="translate(529,830)"/>
<path d="M0 0 C1.65 0 3.3 0 5 0 C5 11.88 5 23.76 5 36 C3.68 36 2.36 36 1 36 C0.67 35.34 0.34 34.68 0 34 C-0.66 34.66 -1.32 35.32 -2 36 C-5.40280249 36.62635656 -8.59871276 36.63105644 -12 36 C-14.87105757 33.89197124 -16.41327792 31.17344416 -18 28 C-18.53209766 22.66157758 -18.64057432 18.30402629 -16.25 13.4375 C-13.12342105 10.0503728 -11.52474306 9.12446882 -6.9375 8.75 C-4 9 -4 9 -1 11 C-0.67 7.37 -0.34 3.74 0 0 Z " fill="#A7A7A7" transform="translate(609,830)"/>
<path d="M0 0 C1.32 0 2.64 0 4 0 C4 11.88 4 23.76 4 36 C2.68 36 1.36 36 0 36 C-0.33 35.34 -0.66 34.68 -1 34 C-1.515625 34.515625 -2.03125 35.03125 -2.5625 35.5625 C-5 37 -5 37 -8.4375 36.9375 C-12.35985305 35.90530183 -14.22283533 34.93585979 -17 32 C-19.13391769 27.52893437 -19.79995186 22.88751075 -19 18 C-16.97898053 14.17449886 -14.87100717 11.04935674 -11 9 C-5.85509518 8.34320364 -4.7417387 9.15495678 0 12 C0 8.04 0 4.08 0 0 Z " fill="#ACACAC" transform="translate(818,830)"/>
<path d="M0 0 C3.12806335 1.69137455 4.82756072 3.2276692 6.80859375 6.19921875 C6.80859375 7.51921875 6.80859375 8.83921875 6.80859375 10.19921875 C5.48859375 10.52921875 4.16859375 10.85921875 2.80859375 11.19921875 C2.39609375 10.41546875 1.98359375 9.63171875 1.55859375 8.82421875 C-0.31046935 6.02062409 -1.02209542 5.16761928 -4.19140625 4.19921875 C-8.47401976 3.7233728 -10.66580649 3.9215434 -14.50390625 5.94921875 C-17.79162598 8.70172829 -18.99601626 10.51937232 -19.4921875 14.78515625 C-19.51527791 20.28067312 -19.51813004 24.56556775 -16.19140625 29.19921875 C-11.99295939 31.80422522 -7.99086123 31.64329643 -3.19140625 31.19921875 C-0.26059951 30.33268461 -0.26059951 30.33268461 1.80859375 29.19921875 C2.13859375 26.88921875 2.46859375 24.57921875 2.80859375 22.19921875 C-0.49140625 22.19921875 -3.79140625 22.19921875 -7.19140625 22.19921875 C-7.19140625 20.54921875 -7.19140625 18.89921875 -7.19140625 17.19921875 C-2.24140625 17.19921875 2.70859375 17.19921875 7.80859375 17.19921875 C7.80859375 22.14921875 7.80859375 27.09921875 7.80859375 32.19921875 C1.372877 35.82497467 -3.7237925 38.6415196 -11.19140625 37.19921875 C-17.12937121 35.2806344 -20.59580951 32.21126269 -24.19140625 27.19921875 C-26.53533897 22.51135332 -25.67649625 16.2843001 -25.19140625 11.19921875 C-23.64275995 6.64355968 -20.99451441 3.4441618 -17.06640625 0.69921875 C-11.82544071 -1.86404824 -5.45138493 -1.99203906 0 0 Z " fill="#A5A5A5" transform="translate(758.19140625,829.80078125)"/>
<path d="M0 0 C4.08998175 1.80720124 6.66247347 4.19069751 9 8 C9 10.31 9 12.62 9 15 C2.73 15 -3.54 15 -10 15 C-8.46687233 19.31608796 -8.46687233 19.31608796 -6 23 C-3.12635209 23.41746608 -3.12635209 23.41746608 0 23 C1.35368596 21.68733482 2.68799596 20.35432675 4 19 C6.75 18.75 6.75 18.75 9 19 C7.52937871 22.67655322 6.52292731 24.6513818 3.1875 26.875 C-0.27211749 28.09604147 -2.36993108 28.52938505 -6 28 C-9.88785685 25.86549035 -12.68517558 23.78487096 -15 20 C-15.88422781 15.14017427 -16.16575184 10.1033443 -13.72265625 5.6953125 C-9.47143942 0.68532103 -6.70068213 -0.45428353 0 0 Z " fill="#A7A7A7" transform="translate(578,839)"/>
<path d="M0 0 C1.65 0 3.3 0 5 0 C5.01981934 0.55985596 5.03963867 1.11971191 5.06005859 1.6965332 C5.15537783 4.23565854 5.26502753 6.77396888 5.375 9.3125 C5.4059375 10.19357422 5.436875 11.07464844 5.46875 11.98242188 C5.50742187 12.82998047 5.54609375 13.67753906 5.5859375 14.55078125 C5.6173584 15.33106689 5.6487793 16.11135254 5.68115234 16.9152832 C5.89587889 19.30155768 5.89587889 19.30155768 8 22 C11.10494126 22.31845551 13.01726077 21.99424641 16 21 C16.33 14.07 16.66 7.14 17 0 C18.65 0 20.3 0 22 0 C22 8.58 22 17.16 22 26 C20.68 26 19.36 26 18 26 C17.67 25.34 17.34 24.68 17 24 C16.01 24.7734375 16.01 24.7734375 15 25.5625 C11.56317223 27.20931331 9.66058706 27.19557009 5.96484375 26.91015625 C2.59371491 25.34857967 1.62806743 23.2956685 0 20 C-0.46255885 16.5223756 -0.37981942 13.12513122 -0.25 9.625 C-0.23195313 8.69816406 -0.21390625 7.77132812 -0.1953125 6.81640625 C-0.14844197 4.54318565 -0.08285525 2.27214593 0 0 Z " fill="#A3A3A3" transform="translate(668,840)"/>
<path d="M0 0 C2.75281844 2.86778534 3.45143401 4.99758435 3.5 8.9375 C3.38070427 12.78336718 3.10573976 13.8489432 0.8125 17.125 C-2 19 -2 19 -4.625 19.5 C-7.40907549 18.91387884 -8.32060971 18.26717689 -10 16 C-11.44656936 11.66029192 -11.51868186 7.5347614 -11 3 C-8.16400241 -1.87791585 -5.11933774 -1.48926189 0 0 Z " fill="#060606" transform="translate(815,844)"/>
<path d="M0 0 C2.56452999 2.81271031 2.96285514 4.65950546 3.375 8.4375 C2.9543352 12.43381558 2.39384127 14.75673118 0 18 C-3.4375 19.1875 -3.4375 19.1875 -7 19 C-9.4375 17.25 -9.4375 17.25 -11 14 C-11.71042665 9.04166145 -11.95136458 4.67440166 -9.4375 0.25 C-5.86125944 -1.58396952 -3.79071204 -1.17167463 0 0 Z " fill="#060606" transform="translate(607,844)"/>
<path d="M0 0 C2.60444348 -0.05394705 5.20776998 -0.09364469 7.8125 -0.125 C8.55048828 -0.14175781 9.28847656 -0.15851562 10.04882812 -0.17578125 C13.91246426 -0.21074628 15.70903668 -0.19397555 19 2 C19.4375 5.4375 19.4375 5.4375 19 9 C16.51719855 11.7530811 15.06229852 11.99502937 11.328125 12.29296875 C9.96843965 12.27316751 8.6089066 12.23759202 7.25 12.1875 C6.55261719 12.17396484 5.85523438 12.16042969 5.13671875 12.14648438 C3.42414459 12.1112945 1.71197059 12.05749155 0 12 C0 8.04 0 4.08 0 0 Z " fill="#080808" transform="translate(533,834)"/>
<path d="M0 0 C12.71244355 -0.41909155 12.71244355 -0.41909155 17 3 C17.5625 6.5 17.5625 6.5 17 10 C14.61066536 12.52818217 13.25868598 12.9765683 9.765625 13.29296875 C8.60546875 13.25816406 7.4453125 13.22335937 6.25 13.1875 C4.1875 13.125625 2.125 13.06375 0 13 C0 8.71 0 4.42 0 0 Z " fill="#070707" transform="translate(640,849)"/>
<path d="M0 0 C1.65 0 3.3 0 5 0 C5 11.88 5 23.76 5 36 C3.35 36 1.7 36 0 36 C0 24.12 0 12.24 0 0 Z " fill="#A2A2A2" transform="translate(696,830)"/>
<path d="M0 0 C2.33944736 0.28730055 4.6739143 0.61936779 7 1 C6.67 2.32 6.34 3.64 6 5 C4.865625 5.309375 3.73125 5.61875 2.5625 5.9375 C-0.78775099 6.62924531 -0.78775099 6.62924531 -2 8 C-2.15620555 9.41327947 -2.25056173 10.8335459 -2.31640625 12.25390625 C-2.35830078 13.10791016 -2.40019531 13.96191406 -2.44335938 14.84179688 C-2.50233398 16.18854492 -2.50233398 16.18854492 -2.5625 17.5625 C-2.60568359 18.46419922 -2.64886719 19.36589844 -2.69335938 20.29492188 C-2.79978142 22.52978485 -2.90179988 24.76476308 -3 27 C-4.65 27 -6.3 27 -8 27 C-8 18.42 -8 9.84 -8 1 C-5.66666667 1 -3.33333333 1 -1 1 C-0.67 0.67 -0.34 0.34 0 0 Z " fill="#A0A0A0" transform="translate(780,839)"/>
<path d="M0 0 C2.10353495 -0.0810206 4.20795952 -0.13919907 6.3125 -0.1875 C7.48425781 -0.22230469 8.65601563 -0.25710938 9.86328125 -0.29296875 C13 0 13 0 14.890625 1.35546875 C16.49693349 3.7366514 16.49083466 5.19523051 16 8 C13.65047745 10.36073745 12.32960257 10.96797902 8.984375 11.29296875 C7.91703125 11.25816406 6.8496875 11.22335937 5.75 11.1875 C4.13351562 11.14689453 4.13351562 11.14689453 2.484375 11.10546875 C1.66453125 11.07066406 0.8446875 11.03585937 0 11 C0 7.37 0 3.74 0 0 Z " fill="#030303" transform="translate(640,834)"/>
<path d="M0 0 C1.32 0 2.64 0 4 0 C4 11.88 4 23.76 4 36 C2.68 36 1.36 36 0 36 C0 24.12 0 12.24 0 0 Z " fill="#B4B4B4" transform="translate(708,830)"/>
<path d="M0 0 C1.32 0 2.64 0 4 0 C4 8.58 4 17.16 4 26 C2.68 26 1.36 26 0 26 C0 17.42 0 8.84 0 0 Z " fill="#B4B4B4" transform="translate(790,840)"/>
<path d="M0 0 C2.375 1.8125 2.375 1.8125 4 4 C4 4.99 4 5.98 4 7 C-0.62 7 -5.24 7 -10 7 C-8.45570268 0.82281074 -6.50414829 -0.92916404 0 0 Z " fill="#030303" transform="translate(578,843)"/>
<path d="M0 0 C1.32 0 2.64 0 4 0 C4 1.65 4 3.3 4 5 C2.68 5 1.36 5 0 5 C0 3.35 0 1.7 0 0 Z " fill="#AFAFAF" transform="translate(790,830)"/>
</svg>
