<?xml version="1.0" encoding="UTF-8"?>
<svg version="1.1" xmlns="http://www.w3.org/2000/svg" width="1350" height="1080">
<path d="M0 0 C445.5 0 891 0 1350 0 C1350 356.4 1350 712.8 1350 1080 C904.5 1080 459 1080 0 1080 C0 723.6 0 367.2 0 0 Z " fill="#000000" transform="translate(0,0)"/>
<path d="M0 0 C4.19258513 1.22436932 8.29573847 2.30996861 12.625 2.9375 C22.07477944 4.75173144 29.79820242 9.74684446 35.6484375 17.2109375 C40.66731654 22.39923018 48.33564157 24.67527521 54.9375 27.25 C61.91515083 30.07231726 68.2842136 33.90222745 74.77661133 37.67675781 C82.03332362 41.89130078 89.41306997 45.65420542 96.9609375 49.3203125 C103.44272542 52.65095429 109.26665941 56.71707185 115.1875 60.9375 C124.76276602 67.7568315 134.59604447 73.61345406 145.0625 78.9453125 C154.42140692 83.77641491 161.99338263 89.01790204 167.5 98.125 C168.48165594 99.14301357 169.47591432 100.1496803 170.5 101.125 C172.49297009 105.11094018 171.06665636 110.34108183 169.76171875 114.44921875 C169.48972656 115.22910156 169.21773438 116.00898438 168.9375 116.8125 C166.73748938 123.88553414 165.77493884 131.84905053 168.6015625 138.85546875 C170.11037307 141.3930138 171.75160741 143.74672798 173.5 146.125 C179.26923477 154.77885216 183.09564647 161.69265949 184.5 172.125 C184.82742188 172.73085938 185.15484375 173.33671875 185.4921875 173.9609375 C188.22052143 179.81945298 187.29891671 186.81563139 185.25 192.73828125 C180.79784716 202.16818832 174.77602945 209.71350702 166.6875 216.3125 C163.88918762 218.59683663 162.50688617 220.82847428 160.85546875 224.06640625 C157.59012633 229.02558624 152.75627963 233.03172682 148.5 237.125 C145.39826686 240.10831161 142.78688915 242.91777042 140.5 246.5625 C138.74447709 249.3134225 137.01395446 251.71864126 134.75 254.0625 C131.726001 258.17849864 131.16059889 262.1359994 130.5 267.125 C131.52480469 267.37894531 132.54960937 267.63289063 133.60546875 267.89453125 C134.96625347 268.24176597 136.32692465 268.58944584 137.6875 268.9375 C138.36103516 269.10314453 139.03457031 269.26878906 139.72851562 269.43945312 C142.81349719 270.23703372 145.40781462 271.06873278 148.13671875 272.734375 C150.97552081 274.40481059 152.85375526 274.48755234 156.125 274.5625 C161.50958916 274.87808032 165.66007162 276.14359566 170.62890625 278.1484375 C174.85807225 279.58692934 179.12747061 280.05109937 183.5546875 280.53515625 C186.5 281.125 186.5 281.125 188.90234375 282.59375 C192.21665162 284.54744727 195.44191752 285.02555029 199.1875 285.5625 C199.95570068 285.68318848 200.72390137 285.80387695 201.51538086 285.92822266 C206.29302416 286.67231638 211.07977945 287.34947432 215.8671875 288.02734375 C226.29496528 289.529495 236.39777949 291.06411603 246.4284668 294.3371582 C251.69153585 296.014571 256.90986328 296.92157913 262.375 297.6875 C270.35217312 298.81588439 278.07958549 300.21832872 284.9296875 304.72265625 C287.91228265 306.3499384 289.87548162 306.48661797 293.25 306.5625 C297.41566193 306.79704155 300.45818975 307.31301365 304.1875 309.1875 C308.77336263 311.37359222 312.51011823 312.84177604 317.5 311.125 C320.07768305 309.10544775 322.37454352 306.98710787 324.70410156 304.69580078 C331.11253653 298.41021764 339.35449727 290.861816 348.6875 290.125 C366.96456965 291.88343527 388.10959155 303.17697381 403.3125 312.9375 C408.36737834 316.17919286 413.13341064 318.1551471 418.9375 319.6875 C429.73219423 322.53945554 438.97589848 327.48017354 448.59765625 333.07421875 C463.80999283 341.8995624 479.35946063 349.18949137 495.5 356.125 C495.79479248 355.52478027 496.08958496 354.92456055 496.39331055 354.30615234 C497.88576703 351.36469939 499.60195455 348.56768229 501.3125 345.75 C504.1330592 341.08785069 506.92440999 336.411095 509.66796875 331.703125 C519.27440754 315.2452748 519.27440754 315.2452748 524.25 308.3125 C527.64518312 303.57906951 530.36281845 298.73683208 533 293.5625 C537.63297724 284.50713539 542.87661775 274.91838495 551.5 269.125 C554.61865234 268.71508789 554.61865234 268.71508789 558.0859375 268.84765625 C559.34664062 268.89212891 560.60734375 268.93660156 561.90625 268.98242188 C563.2159375 269.05009766 564.525625 269.11777344 565.875 269.1875 C567.17695312 269.22810547 568.47890625 269.26871094 569.8203125 269.31054688 C578.47490365 269.67704232 584.64603714 270.49365517 591.5 276.0625 C593.99409996 278.0348017 596.04377849 279.3919458 598.9375 280.8125 C603.51151797 283.26736285 606.29084796 287.51372993 609.38671875 291.56640625 C613.26656806 296.26382085 616.17578315 297.47090426 622.125 298.6875 C629.97246295 300.47062997 637.42277569 303.14156382 644.9375 306 C646.03852051 306.41064697 647.13954102 306.82129395 648.27392578 307.24438477 C654.15544096 309.52203472 659.22918601 312.05741269 664.37475586 315.69677734 C667.89820357 318.06463135 671.70424864 319.75268415 675.5625 321.5 C677.2349032 322.2775107 678.90676995 323.05617622 680.578125 323.8359375 C681.40505859 324.21975586 682.23199219 324.60357422 683.08398438 324.99902344 C693.34219096 329.77982869 703.00500537 334.92986249 712.4609375 341.15234375 C717.82433231 344.6337247 722.90497897 346.97132721 729 348.875 C734.54258957 350.65359218 739.57015816 353.08959193 744.71044922 355.77368164 C752.0159774 359.5208324 759.60930008 362.54557899 767.25097656 365.53564453 C772.8980365 367.8031791 776.81490041 370.19948205 781.5 374.125 C785.26558743 376.06281771 789.15798617 377.67684533 793.0625 379.3125 C795.32119164 380.2870274 797.57899181 381.26362338 799.8359375 382.2421875 C800.9609668 382.7278418 802.08599609 383.21349609 803.24511719 383.71386719 C825.20878848 393.23607091 849.01197008 404.81807216 865.6875 422.4375 C880.80874865 438.04828548 901.91113761 448.01327913 921.734375 456.10766602 C931.6741971 460.27497779 940.22494701 465.86882698 945.81640625 475.359375 C949.01994954 480.70152348 951.47716883 483.13992385 957.34375 485.30078125 C960.36468195 486.45552154 962.81518787 488.33512525 965.5 490.125 C967.83077547 491.13975939 970.17133108 492.09503089 972.546875 493 C975.07545409 494.45646156 975.68459364 495.31848509 976.5 498.125 C975.53531324 513.22056138 966.03244754 528.01285288 956.6640625 539.31640625 C951.21214332 546.39209197 946.75191074 554.25757964 942.25 561.9609375 C938.57846578 568.22621449 934.7968157 574.17288764 930.375 579.9375 C924.53184918 587.61132414 919.88204375 595.90789309 915.12744141 604.28393555 C909.55009823 614.10065513 903.69478004 623.68665618 897.5 633.125 C897.02578613 633.84929199 896.55157227 634.57358398 896.06298828 635.31982422 C880.17604952 659.42880823 880.17604952 659.42880823 871.671875 661.79296875 C865.8971698 662.67579239 860.6654085 663.25101242 855.375 660.5 C854.42625 659.71625 853.4775 658.9325 852.5 658.125 C841.39766879 650.02596016 828.8991956 644.09931139 816.375 638.5625 C805.04354873 633.54716966 794.31842735 627.9849428 783.875 621.3125 C771.42032654 613.36767439 758.21783949 606.79876666 744.8125 600.625 C730.67661907 594.07061137 717.84278895 585.52175277 705.10546875 576.60546875 C702.09670749 574.51012363 699.01561542 572.58103893 695.875 570.6875 C689.40239314 566.63847075 683.83415051 561.55157423 678.10888672 556.53369141 C664.64098276 544.74161161 649.40512492 537.16893761 633.04296875 530.2265625 C620.06661944 524.69011562 608.84529803 518.94689927 599.125 508.5625 C593.04091912 502.09351548 586.61082264 498.58558652 578.54833984 495.03564453 C575.15607915 493.52752387 571.82603687 491.89813912 568.5 490.25 C567.84459229 489.92620361 567.18918457 489.60240723 566.51391602 489.26879883 C560.23496193 486.10429223 554.32230251 482.41959781 548.4140625 478.6171875 C547.11058778 477.78455668 545.80582389 476.95394174 544.5 476.125 C543.37331909 475.40799927 543.37331909 475.40799927 542.22387695 474.67651367 C534.90824858 470.14229874 527.23261534 466.74254943 519.33398438 463.35742188 C513.34934523 460.70735483 508.47586149 457.77922286 503.42797852 453.61743164 C501.07597207 451.79676361 498.85401541 450.86849509 496 450.0625 C492.3669293 449.02528074 489.64009636 447.60578183 486.5703125 445.4609375 C480.97132737 441.61672786 474.94693359 438.73320315 468.85482788 435.77563477 C455.11600261 429.09205364 441.56477093 422.46273563 429.671875 412.73828125 C426.48228996 410.36903913 423.02476692 408.63105774 419.46875 406.875 C416.86223373 405.33852725 414.73454165 403.73500793 412.3984375 401.83203125 C407.1819327 397.70238858 401.55680954 394.78321546 395.625 391.8125 C393.39420638 390.67641893 391.16374043 389.53969425 388.93359375 388.40234375 C387.29366455 387.57065674 387.29366455 387.57065674 385.62060547 386.72216797 C382.04922554 384.89428755 378.51350724 383.00645014 374.98095703 381.10498047 C354.43019161 370.05212274 354.43019161 370.05212274 332.09375 363.9296875 C326.70128321 362.72224385 322.12343217 360.36487013 317.23046875 357.84375 C312.82891747 355.68564368 308.21040212 354.43379573 303.5 353.125 C300.49308105 352.27421778 297.48656078 351.42205895 294.48046875 350.56835938 C292.40394327 349.97935749 290.32579338 349.39605372 288.24609375 348.81835938 C283.00656811 347.31992179 278.3081038 345.64115434 273.50683594 343.07788086 C269.58582787 341.21611754 265.36970321 340.23637583 261.1875 339.125 C250.11212781 336.09292271 250.11212781 336.09292271 244.9375 334 C239.94363947 332.09643913 234.84837327 331.00555348 229.625 329.9375 C228.82247803 329.77040527 228.01995605 329.60331055 227.19311523 329.43115234 C222.51173114 328.51974904 217.96295206 328.00661639 213.19921875 327.75 C206.1690856 327.26603409 199.87322309 325.45434501 193.1875 323.3125 C190.81464993 322.57798457 188.44095339 321.84619795 186.06640625 321.1171875 C184.93605957 320.76881836 183.80571289 320.42044922 182.64111328 320.06152344 C178.66526514 318.87612366 174.66526885 317.87451363 170.625 316.9375 C166.04361797 315.84122363 161.79450111 314.53676501 157.4375 312.75 C144.00988494 307.34885471 129.55143201 303.93386035 115.16796875 302.44921875 C112.5 302.125 112.5 302.125 110.5 301.125 C91.3308091 301.00681757 67.55894925 306.76610472 52.125 318.6875 C44.89785619 323.98974456 36.35015575 324.57962349 27.6640625 324.5234375 C26.66345795 324.52630768 25.66285339 324.52917786 24.63192749 324.53213501 C22.52935211 324.53416328 20.42675731 324.52872075 18.32421875 324.51611328 C15.14018661 324.50007649 11.95743022 324.51598741 8.7734375 324.53515625 C-1.37150568 324.54534328 -10.83707768 324.53870882 -20.5 321.125 C-21.32773926 320.85059082 -22.15547852 320.57618164 -23.00830078 320.29345703 C-24.46633608 319.80439612 -25.92065682 319.30412452 -27.37109375 318.79296875 C-29.49778714 318.12569431 -31.55441336 317.74557996 -33.75 317.375 C-37.80514223 316.58041132 -40.33869714 314.91815359 -43.75 312.625 C-62.02854636 302.73525782 -90.04826686 306.93919545 -110.1875 306.875 C-112.07775406 306.86655563 -112.07775406 306.86655563 -114.00619507 306.85794067 C-131.39932696 306.77972136 -131.39932696 306.77972136 -148.7421875 307.9453125 C-149.42145798 308.01337097 -150.10072845 308.08142944 -150.80058289 308.15155029 C-156.55706963 308.86485833 -161.60282738 310.8807608 -166.91958618 313.06385803 C-172.50478224 315.29813855 -177.55402326 316.48257699 -183.5 315.125 C-188.32229323 312.11106673 -189.26059428 308.32452343 -190.6328125 303.10546875 C-191.63894175 299.64746597 -192.945753 296.39438842 -194.3125 293.0625 C-199.31081162 280.79576463 -203.68628749 268.44181722 -206.88574219 255.57470703 C-207.64033475 252.5653343 -208.41879944 249.5623839 -209.1953125 246.55859375 C-213.15694368 231.13249557 -216.62211391 215.98025922 -218.421875 200.14453125 C-218.54711296 199.05816124 -218.54711296 199.05816124 -218.67488098 197.94984436 C-219.09629573 194.2883658 -219.50302967 190.62657198 -219.87963867 186.96020508 C-220.65810778 179.76818276 -221.88526071 173.31538041 -224.6105957 166.56054688 C-225.96123121 162.86196335 -226.32662496 159.21684658 -226.625 155.3125 C-227.05102646 150.31348743 -227.82249156 145.87363929 -229.5 141.125 C-233.54302488 121.68354086 -233.54302488 121.68354086 -230.30078125 114.44921875 C-228.14208445 111.66304826 -226.68629752 111.06739957 -223.375 109.9375 C-211.08302034 105.15728569 -200.32276669 98.30449936 -190.5300293 89.51953125 C-186.82458842 86.20354793 -183.06984933 83.33389596 -178.9375 80.5625 C-168.5084659 73.49931553 -159.1861936 66.65582603 -153.5 55.125 C-152.46750171 53.14103493 -151.42574463 51.16186214 -150.375 49.1875 C-149.91867188 48.29160156 -149.46234375 47.39570313 -148.9921875 46.47265625 C-146.50887831 42.56566981 -143.32598873 40.89112479 -139.05859375 39.33203125 C-132.69831339 36.87986094 -126.66811521 33.8324349 -120.5625 30.8125 C-101.62075317 21.55498045 -82.11950864 14.14005526 -61.25 10.6875 C-56.10078082 9.83149009 -51.6208303 8.46509657 -46.875 6.25 C-40.79991614 3.456858 -34.76333394 1.74738073 -28.25 0.25 C-27.33911621 0.0348877 -26.42823242 -0.18022461 -25.48974609 -0.40185547 C-16.58892385 -2.35309646 -8.80621656 -2.62272102 0 0 Z M-36.56982422 20.953125 C-46.39076516 24.86008166 -55.5634733 27.75359798 -66.06542969 29.13305664 C-70.97286765 29.79921305 -74.88417283 30.84869419 -79.296875 33.16796875 C-82.1657748 34.41421068 -84.98729395 34.87555091 -88.0625 35.4375 C-96.48898486 37.14082154 -103.85189296 40.3363163 -111.5 44.125 C-112.35094238 44.54378418 -113.20188477 44.96256836 -114.07861328 45.39404297 C-116.79861394 46.75281653 -119.49508846 48.1499268 -122.1875 49.5625 C-123.03715332 49.99240234 -123.88680664 50.42230469 -124.76220703 50.86523438 C-130.59737071 54.02190477 -133.50178491 57.25203013 -136.5 63.125 C-146.52916141 80.32813094 -161.70773399 91.46643211 -177.73706055 102.69848633 C-180.69473432 104.78208249 -183.4791759 106.90855381 -186.125 109.375 C-189.80227109 112.69580093 -194.16235332 114.57756244 -198.6328125 116.6328125 C-201.59732336 118.17565058 -203.9284473 120.00422031 -206.5 122.125 C-208.47711651 123.16951438 -210.47250996 124.18198138 -212.5 125.125 C-212.89137588 130.84343647 -212.99389045 135.66217272 -210.5625 140.9375 C-208.78636844 144.89062615 -208.22721929 148.04597114 -208.0625 152.375 C-207.78723246 158.84731632 -206.53543997 164.77634138 -205 171.0625 C-203.52653594 177.16005151 -202.23395976 182.95502024 -202 189.25 C-200.56237853 223.08939773 -191.05474252 264.92714823 -175.5 295.125 C-172.65867048 294.60839463 -169.96065253 293.96262266 -167.19140625 293.12890625 C-163.25906249 292.0594752 -159.4766128 291.50445811 -155.4375 291.0625 C-150.10864012 290.46722354 -150.10864012 290.46722354 -144.81396484 289.62988281 C-140.75368008 289.0112981 -136.73646027 288.77426116 -132.63671875 288.58203125 C-131.76875168 288.54060501 -130.90078461 288.49917877 -130.0065155 288.45649719 C-90.91150781 286.72493187 -56.52602818 287.75778733 -19.85717773 301.95166016 C-12.39166871 304.56086941 -5.82121761 305.47832559 2.04296875 305.6015625 C3.5493969 305.62577774 3.5493969 305.62577774 5.08625793 305.65048218 C7.21002441 305.67803887 9.33387714 305.69953866 11.45776367 305.71533203 C13.58791866 305.7381971 15.71796713 305.77882091 17.84741211 305.83837891 C33.8364117 306.2841434 45.98096787 303.7441244 60.5 297.125 C62.63263732 296.23678662 64.76752754 295.35392808 66.90625 294.48046875 C67.76436279 294.11493896 68.62247559 293.74940918 69.5065918 293.37280273 C89.09536211 285.04282825 106.7643742 282.37061581 127.5 288.125 C129.42789193 288.55697578 131.3558838 288.98856025 133.28564453 289.41210938 C140.06178278 290.91334309 146.63303781 292.77209136 153.23852539 294.9050293 C162.56357747 297.90855033 170.60885295 300.32105041 180.5 299.125 C177.31950095 296.30214368 175.31887386 295.80474753 171.109375 295.7421875 C163.75426715 295.29392289 157.56733902 292.90670886 150.75 290.25 C139.29259425 285.93898725 139.29259425 285.93898725 127.375 283.3125 C120.29810767 282.2494475 113.673144 280.298144 108.5 275.125 C108 271.9375 108 271.9375 108.5 268.125 C109.70532227 266.54882812 109.70532227 266.54882812 111.25390625 264.96875 C114.84142711 260.97324281 116.80836958 256.69989963 118.9375 251.8125 C123.17712264 242.54958572 127.03711053 234.50882097 135.4375 228.375 C140.2689188 224.76968144 142.7916764 220.64806691 145.52001953 215.41259766 C148.17585629 210.40348782 151.44297888 206.56988782 155.51953125 202.6015625 C158.12249183 199.34657826 159.17177266 196.0337191 160.5 192.125 C161.0272919 190.7768455 161.56241173 189.43172541 162.10546875 188.08984375 C162.49702148 187.09307617 162.49702148 187.09307617 162.89648438 186.07617188 C163.42673536 184.72632306 163.96591698 183.37995058 164.51367188 182.03710938 C166.66701716 176.48374522 167.58113395 171.82609672 165.28515625 166.08984375 C164.43244141 164.59130859 164.43244141 164.59130859 163.5625 163.0625 C162.61503906 161.38800781 162.61503906 161.38800781 161.6484375 159.6796875 C159.07719264 155.35739844 156.34660154 151.13115678 153.52172852 146.97045898 C148.17457259 138.95741289 147.66019687 131.55589267 148.5 122.125 C149.40448325 118.39731799 150.47731511 114.81059741 151.72265625 111.18359375 C152.81706 106.87747248 152.15424514 104.37401344 150.125 100.5 C146.8078684 97.4987857 143.99713065 97.08135028 139.64453125 96.38671875 C136.40796369 95.08807114 135.00052665 93.86637597 132.5078125 91.49609375 C126.87282814 86.26129627 120.34956423 82.96672859 113.5625 79.5 C111.13417301 78.24184624 108.70936861 76.97699806 106.28515625 75.7109375 C105.13160645 75.10878418 103.97805664 74.50663086 102.78955078 73.88623047 C96.79572192 70.67712542 90.99227142 67.2604012 85.5 63.25 C80.42681267 59.79264991 74.86378884 57.57545742 69.24536133 55.16772461 C62.89179024 52.40371927 57.2225546 49.02898803 51.5 45.125 C48.53866453 43.24630331 45.84468075 41.78846943 42.5 40.75 C39.57959411 39.7062253 38.48657383 39.11120088 36.25 36.8125 C33.45246836 34.07854862 31.25411076 32.90914335 27.75 31.25 C22.70634308 28.85270628 18.53229748 26.10234571 14.2421875 22.54296875 C10.05025166 19.13114653 5.28899015 19.8122145 0.078125 19.6015625 C-3.72641772 19.09484393 -6.10820668 17.84803101 -9.5 16.125 C-19.37783137 14.70105288 -27.52105273 17.33276255 -36.56982422 20.953125 Z M553.421875 292.875 C546.47678915 303.26764645 540.21266044 314.03785059 533.92381287 324.83355713 C517.19924158 353.54059529 517.19924158 353.54059529 507.8125 366.9375 C507.07229614 367.99662598 507.07229614 367.99662598 506.31713867 369.07714844 C504.2099286 372.01888617 502.53935702 374.09876198 499.5 376.125 C493.46171955 376.44142597 488.88561033 374.62513378 483.8125 371.4375 C474.65613793 365.91536411 464.95972828 361.5806398 455.2355957 357.17504883 C448.79936706 354.24232447 442.61347447 351.15927085 436.60498047 347.41772461 C433.90390065 345.7589195 431.10829168 344.36666952 428.25 343 C425.11428612 341.47387309 422.39361268 340.04803896 419.5625 338 C415.60554566 335.57737489 411.57380899 334.53081342 407.140625 333.21875 C394.04099231 329.28323803 382.26166486 323.61948532 370.25537109 317.15087891 C356.17594285 309.17263338 356.17594285 309.17263338 340.5 308.125 C334.80672412 311.3783005 332.02556916 316.68726625 328.5078125 322.09765625 C321.46364293 332.71872905 321.46364293 332.71872905 315.875 333.875 C311.94634414 333.00196536 310.53286296 331.73467278 307.5 329.125 C301.12313696 325.10193198 295.34627948 323.62501534 287.921875 322.71875 C284.22002104 322.07641918 281.00676978 320.96536534 277.5 319.625 C271.92888239 317.51202926 266.8016757 316.45879093 260.9140625 315.70703125 C257.1675641 315.06832615 253.6660972 313.98196096 250.0625 312.8125 C238.33108634 309.08401913 226.05886584 307.55920778 213.92675781 305.67822266 C209.89442451 305.02723468 205.88671429 304.27555563 201.88037109 303.48120117 C199.38633873 303.10799161 197.01802062 303.0636327 194.5 303.125 C203.06434456 308.83456304 213.07270987 310.68223771 223.125 311.66796875 C226.5 312.125 226.5 312.125 229.5703125 313.16796875 C232.70626867 314.1923811 235.08885567 314.25836169 238.375 314.25 C248.63195594 314.81801034 257.98132713 318.7435502 267.58129883 322.15136719 C271.40122767 323.42563538 275.26726722 324.44463793 279.17333984 325.41845703 C281.91394917 326.25070503 284.1504291 327.62430911 286.55859375 329.15625 C290.04250407 330.89470022 293.88238521 331.4845289 297.66015625 332.34375 C300.64698068 333.16543485 302.93813472 334.47430762 305.52734375 336.16015625 C308.26449968 337.49892361 311.01781234 337.96199122 314 338.5625 C319.74471249 339.75766432 323.0132304 341.41853816 327.5 345.125 C330.95445208 346.27648403 334.05620795 346.44171657 337.6875 346.75 C346.08765321 347.66436732 352.93192916 350.44113473 360.46582031 354.13525391 C362.50281247 355.12636843 364.55505348 356.07416372 366.6171875 357.01171875 C377.46508419 361.967746 388.01362923 367.44969907 398.5 373.125 C399.55106934 373.6917041 400.60213867 374.2584082 401.68505859 374.84228516 C418.20121328 383.7773321 434.46509509 392.88914009 449.1875 404.625 C460.61643838 413.34625601 474.28188206 419.18396169 487.25341797 425.22485352 C488.20104004 425.66627686 489.14866211 426.1077002 490.125 426.5625 C491.07004395 427.00198975 492.01508789 427.44147949 492.98876953 427.89428711 C500.7585268 431.58888054 508.00235096 435.92528108 515.14892578 440.71069336 C520.43781759 444.17171913 525.44532827 446.18856664 531.47241211 448.05004883 C536.59476831 449.8687517 541.07574356 452.65897474 545.6875 455.5 C546.60724609 456.05171875 547.52699219 456.6034375 548.47460938 457.171875 C553.54911253 460.23599739 558.51652357 463.43127477 563.43383789 466.74072266 C566.45866401 468.7672811 569.51928421 470.7249112 572.625 472.625 C573.25680176 473.01171875 573.88860352 473.3984375 574.53955078 473.796875 C579.00951415 476.44770576 583.49116737 478.37702399 588.375 480.125 C594.58066683 482.44160973 598.15627262 485.1820142 602.51953125 490.09375 C604.98680137 492.62428345 607.42416936 493.73167271 610.625 495.11328125 C612.78441598 496.27846612 614.00490718 497.60274488 615.625 499.4375 C623.51179559 507.72919804 636.64771911 511.58517083 647.03955078 515.84130859 C654.36085242 518.88826819 660.79454366 522.48962588 666.8125 527.6875 C670.06044767 530.28474582 672.8514403 531.75363208 676.8125 533 C689.8744209 537.31152542 701.04489994 549.34126674 710.375 559.1875 C722.52616205 571.38805701 743.51003608 586.64199511 760.68359375 588.9296875 C766.6764504 589.96415077 771.33543501 592.22051526 776.5625 595.25 C777.43229492 595.74064941 778.30208984 596.23129883 779.19824219 596.73681641 C785.46335942 600.34190356 791.00950595 604.42960685 796.5 609.125 C801.22475045 612.78643081 805.84946408 614.6230815 811.5625 616.375 C817.91525654 618.32518536 823.19254043 621.07169286 828.79638672 624.61181641 C833.94278944 627.85293804 839.23519252 630.58509284 844.71044922 633.22558594 C849.98262421 635.79098867 854.86315941 638.72872112 859.75390625 641.97265625 C863.52040486 643.55319265 865.60426415 643.29196592 869.5 642.125 C872.22548192 639.69872851 872.22548192 639.69872851 874.4375 636.4375 C875.07026855 635.5705249 875.07026855 635.5705249 875.71582031 634.68603516 C880.79187445 627.57688172 884.98566259 619.95876495 889.01171875 612.21875 C891.58737174 607.30736786 894.32595171 602.93400824 897.75 598.5625 C901.37580154 593.86639552 904.27336594 589.10455419 907.0625 583.875 C912.83080918 573.12764419 919.64453971 563.12434569 926.51025391 553.05517578 C928.40421117 550.26606227 930.27407843 547.46243653 932.13671875 544.65234375 C933.2574141 542.97629604 934.37848635 541.30050026 935.5 539.625 C935.99089111 538.87871338 936.48178223 538.13242676 936.98754883 537.36352539 C940.15360409 532.68027982 943.688175 528.8596665 947.74707031 524.93310547 C949.83018328 522.78442377 951.15549433 520.66581013 952.375 517.9375 C952.74367188 517.13957031 953.11234375 516.34164062 953.4921875 515.51953125 C953.82476563 514.72933594 954.15734375 513.93914062 954.5 513.125 C954.87382813 512.26261719 955.24765625 511.40023437 955.6328125 510.51171875 C956.67074801 508.07828806 956.67074801 508.07828806 956.5 505.125 C955.08847656 504.34576172 955.08847656 504.34576172 953.6484375 503.55078125 C952.39044274 502.84667971 951.13264048 502.14223415 949.875 501.4375 C949.25753906 501.09783203 948.64007812 500.75816406 948.00390625 500.40820312 C942.47498516 497.29454756 937.09845446 494.04534664 934.1875 488.1875 C931.29220984 483.27288326 927.3433773 480.94966378 922.5 478.125 C921.23349609 477.3515625 921.23349609 477.3515625 919.94140625 476.5625 C918.24290209 475.5284031 916.537193 474.50604029 914.82421875 473.49609375 C912.92930963 472.3782566 911.05511959 471.22535748 909.1875 470.0625 C906.02765723 468.252637 902.72868191 467.06212474 899.3125 465.8125 C889.98714303 462.30341861 882.24958437 458.04408522 875.30810547 450.90039062 C872.50686425 448.14983349 869.41873259 445.86946032 866.25 443.5625 C865.56744141 443.05928223 864.88488281 442.55606445 864.18164062 442.03759766 C862.71837528 440.95928061 861.2534875 439.88316224 859.78710938 438.80908203 C857.44520069 437.08464927 855.11982394 435.33971564 852.796875 433.58984375 C835.12211097 419.54561905 835.12211097 419.54561905 814.65625 410.82421875 C811.40387555 409.76955385 809.1642243 407.72734764 806.5390625 405.59375 C803.67165322 403.52833642 800.64027958 402.47093688 797.34375 401.25 C793.93202286 399.90030575 790.65501406 398.32487107 787.375 396.6875 C786.25867187 396.13191406 785.14234375 395.57632813 783.9921875 395.00390625 C781.49222443 393.65884782 779.17057709 392.29563612 776.796875 390.76171875 C771.7020311 387.53303083 766.31444475 384.9666958 760.875 382.375 C759.7725293 381.84696777 758.67005859 381.31893555 757.53417969 380.77490234 C750.68874752 377.53300158 743.7908584 374.53819834 736.75 371.75 C717.93385936 364.25878837 699.78832573 355.22712613 682.2578125 345.10400391 C651.84397435 326.66578349 651.84397435 326.66578349 618.4453125 316.67578125 C608.4504148 314.80670887 601.12332866 306.38055831 594.05761719 299.61474609 C590.29252989 296.01371746 586.47139656 292.49747858 582.5 289.125 C581.95730469 288.64933594 581.41460938 288.17367188 580.85546875 287.68359375 C575.91998639 284.09755973 569.87060943 284.59690706 564.0234375 284.49609375 C558.56087226 285.47111925 556.64493218 288.60990177 553.421875 292.875 Z " fill="#E3181E" transform="translate(289.5,156.875)"/>
<path d="M0 0 C3.031875 -0.061875 6.06375 -0.12375 9.1875 -0.1875 C10.60712036 -0.22846802 10.60712036 -0.22846802 12.05541992 -0.27026367 C16.84936401 -0.3175874 20.15522761 -0.20273273 24 3 C26.33909307 6.5086396 26.41291057 7.87089433 26 12 C24.5 14.875 24.5 14.875 23 17 C23.825 17.680625 24.65 18.36125 25.5 19.0625 C28 22 28 22 28.625 25.4375 C27.80149111 30.13150066 26.38685438 31.69190967 23 35 C20.11734851 35.96088383 18.32337729 36.11670941 15.33203125 36.09765625 C14.52741455 36.09515869 13.72279785 36.09266113 12.89379883 36.09008789 C11.36855591 36.07643188 11.36855591 36.07643188 9.8125 36.0625 C4.9553125 36.0315625 4.9553125 36.0315625 0 36 C0 24.12 0 12.24 0 0 Z " fill="#AAAAAA" transform="translate(491,871)"/>
<path d="M0 0 C2.41869578 1.1589584 4.12322096 2.12322096 6 4 C6.15740605 5.70563778 6.25093392 7.41727244 6.31640625 9.12890625 C6.35830078 10.16337891 6.40019531 11.19785156 6.44335938 12.26367188 C6.48267578 13.35228516 6.52199219 14.44089844 6.5625 15.5625 C6.60568359 16.65498047 6.64886719 17.74746094 6.69335938 18.87304688 C6.79982068 21.58189564 6.90183516 24.29083992 7 27 C6.21625 26.835 5.4325 26.67 4.625 26.5 C1.63316338 25.93012636 0.53389157 25.76271486 -2.25 27 C-5.47017414 28.17097241 -7.59616826 28.42547897 -11 28 C-14.41165683 26.0288205 -15.71748902 24.78105976 -17.0625 21.0625 C-17 18 -17 18 -15.5 15.25 C-10.84733972 11.06260575 -5.03471607 10.73894482 1 10 C0.50243908 7.24358584 0.50243908 7.24358584 -1 5 C-3.67058851 4.85884839 -6.32432238 4.95752893 -9 5 C-9.66 6.32 -10.32 7.64 -11 9 C-12.65 9 -14.3 9 -16 9 C-15.79803569 5.36464239 -15.21677989 4.2005214 -12.5 1.6875 C-8.13546337 -0.41683016 -4.76355701 -0.75444918 0 0 Z " fill="#A7A7A7" transform="translate(540,880)"/>
<path d="M0 0 C3.42926839 1.9124766 5.17872317 3.49845707 7.25 6.8125 C7.25 7.8025 7.25 8.7925 7.25 9.8125 C5.6 10.1425 3.95 10.4725 2.25 10.8125 C1.816875 10.02875 1.38375 9.245 0.9375 8.4375 C-0.64220247 5.59551625 -0.64220247 5.59551625 -3.75 3.8125 C-8.15057043 3.48653182 -11.98939634 3.34124617 -15.75 5.8125 C-18.58323401 12.28846346 -18.91936653 19.69418925 -16.4375 26.3125 C-14.83207479 29.03172531 -14.83207479 29.03172531 -11.75 30.8125 C-7.46383564 31.49134003 -3.89365091 31.6335827 -0.3125 29.0625 C1.10099692 27.02706444 2.27448781 25.08869512 3.25 22.8125 C4.9 23.1425 6.55 23.4725 8.25 23.8125 C6.971414 28.81060891 5.20814465 31.49870448 1.25 34.8125 C-2.84756155 37.13814304 -7.13032518 37.51511214 -11.75 36.8125 C-17.11319815 34.90172495 -20.029388 31.8351683 -22.75 26.8125 C-24.68784697 20.7388454 -25.1473929 12.6697858 -22.25 6.875 C-15.95045328 -0.84194474 -9.60196475 -3.04062217 0 0 Z " fill="#A5A5A5" transform="translate(643.75,871.1875)"/>
<path d="M0 0 C4.68683436 1.6801859 7.28627194 3.82503376 10 8 C10 8.99 10 9.98 10 11 C6.80814911 10.6453499 5.36354547 10.38778183 3.125 8 C0.14897952 5.19903955 -1.96179835 5.06962417 -6 5 C-9.83757976 6.25459338 -11.52627088 7.33677924 -13.875 10.625 C-15.88830323 16.66490969 -15.89646033 21.70795931 -13.125 27.5 C-11.64106423 30.32542877 -11.64106423 30.32542877 -9 32 C-5.94079426 32.42071592 -3.0532254 32.48514117 0 32 C2.75569447 29.81840855 4.43588747 28.12822506 6 25 C7.65 25 9.3 25 11 25 C10.49430263 29.42485195 9.10058108 31.81561943 6 35 C1.38362057 38.04261372 -2.61439325 38.77708153 -8 38 C-13.16064968 36.17859423 -15.82703909 33.40689015 -19 29 C-21.94608579 22.8101403 -22.02006242 16.18019459 -19.9375 9.6875 C-14.52051288 2.17361463 -9.18281446 -0.85169443 0 0 Z " fill="#A7A7A7" transform="translate(742,870)"/>
<path d="M0 0 C1.65 0 3.3 0 5 0 C5.33 5.94 5.66 11.88 6 18 C7.19625 16.68 8.3925 15.36 9.625 14 C13.51405975 10.06942004 13.51405975 10.06942004 17.5 9.5 C18.325 9.665 19.15 9.83 20 10 C19.59007812 10.47050781 19.18015625 10.94101562 18.7578125 11.42578125 C18.21898437 12.04839844 17.68015625 12.67101562 17.125 13.3125 C16.32449219 14.23482422 16.32449219 14.23482422 15.5078125 15.17578125 C13.8359553 17.13498212 13.8359553 17.13498212 12 20 C12.721875 21.07121094 13.44375 22.14242187 14.1875 23.24609375 C15.1251205 24.6431483 16.06261397 26.04028812 17 27.4375 C17.47695313 28.14455078 17.95390625 28.85160156 18.4453125 29.58007812 C19.12207031 30.59038086 19.12207031 30.59038086 19.8125 31.62109375 C20.23144531 32.2442749 20.65039062 32.86745605 21.08203125 33.50952148 C22 35 22 35 22 36 C19.2734375 36.375 19.2734375 36.375 16 36 C13.6640625 33.375 13.6640625 33.375 11.625 30 C10.59246094 28.329375 10.59246094 28.329375 9.5390625 26.625 C8.77722656 25.325625 8.77722656 25.325625 8 24 C7.34 24.33 6.68 24.66 6 25 C5.5316735 27.58605332 5.5316735 27.58605332 5.375 30.5625 C5.26285156 32.08037109 5.26285156 32.08037109 5.1484375 33.62890625 C5.09945312 34.41136719 5.05046875 35.19382812 5 36 C3.35 36 1.7 36 0 36 C0 24.12 0 12.24 0 0 Z " fill="#A5A5A5" transform="translate(553,871)"/>
<path d="M0 0 C1.65 0 3.3 0 5 0 C5.01981934 0.59538574 5.03963867 1.19077148 5.06005859 1.80419922 C5.15516126 4.49492153 5.26489842 7.18485148 5.375 9.875 C5.4059375 10.81214844 5.436875 11.74929688 5.46875 12.71484375 C5.50742187 13.61074219 5.54609375 14.50664063 5.5859375 15.4296875 C5.6173584 16.25710449 5.6487793 17.08452148 5.68115234 17.93701172 C5.82599137 20.21986085 5.82599137 20.21986085 8 22 C11.03344954 21.91115 11.03344954 21.91115 14 21 C16.0140956 17.9788566 16.26836596 17.19339983 16.4140625 13.76953125 C16.45273437 12.96708984 16.49140625 12.16464844 16.53125 11.33789062 C16.57765625 10.08782227 16.57765625 10.08782227 16.625 8.8125 C16.66367187 7.96751953 16.70234375 7.12253906 16.7421875 6.25195312 C16.83636279 4.16832476 16.91926675 2.08419247 17 0 C18.65 0 20.3 0 22 0 C22 8.58 22 17.16 22 26 C20.68 26 19.36 26 18 26 C18 25.01 18 24.02 18 23 C17.44441406 23.48726562 16.88882813 23.97453125 16.31640625 24.4765625 C13.60827076 26.25762968 12.14562346 26.40403279 8.9375 26.375 C8.08027344 26.38273438 7.22304688 26.39046875 6.33984375 26.3984375 C3.54043154 25.92174293 2.69057148 25.24356216 1 23 C0.03911617 20.11734851 -0.11670941 18.32337729 -0.09765625 15.33203125 C-0.09443359 14.43935547 -0.09121094 13.54667969 -0.08789062 12.62695312 C-0.07951172 11.69818359 -0.07113281 10.76941406 -0.0625 9.8125 C-0.05798828 8.87212891 -0.05347656 7.93175781 -0.04882812 6.96289062 C-0.03704626 4.64186288 -0.02059558 2.32096356 0 0 Z " fill="#A4A4A4" transform="translate(578,881)"/>
<path d="M0 0 C1.65 0 3.3 0 5 0 C5.79441072 1.87383903 6.58539974 3.74912886 7.375 5.625 C8.03628906 7.19121094 8.03628906 7.19121094 8.7109375 8.7890625 C9.9255467 11.81454359 10.96903873 14.9071162 12 18 C14.31 12.06 16.62 6.12 19 0 C20.65 0 22.3 0 24 0 C21.69268131 6.6759221 19.35628487 13.34121006 17 20 C16.74992188 20.71236816 16.49984375 21.42473633 16.2421875 22.15869141 C15.61142621 23.94358272 14.96270378 25.72209903 14.3125 27.5 C13.95800781 28.4796875 13.60351562 29.459375 13.23828125 30.46875 C11.85694126 33.29243554 10.41988252 35.00441288 8 37 C5.25 37.25 5.25 37.25 3 37 C2.67 35.35 2.34 33.7 2 32 C3.98 31.34 5.96 30.68 8 30 C9.24694531 25.69959306 8.68433574 23.19788315 7.12890625 19.04296875 C6.71962891 17.93115234 6.31035156 16.81933594 5.88867188 15.67382812 C5.45103516 14.52333984 5.01339844 13.37285156 4.5625 12.1875 C4.12873047 11.01767578 3.69496094 9.84785156 3.24804688 8.64257812 C2.17640416 5.7573862 1.09341674 2.87699535 0 0 Z " fill="#A7A7A7" transform="translate(680,881)"/>
<path d="M0 0 C2.63877763 1.40289443 3.92992249 2.72291474 6 5 C6 6.32 6 7.64 6 9 C4.68 9 3.36 9 2 9 C1.319375 8.01 1.319375 8.01 0.625 7 C-0.89599894 4.67719799 -0.89599894 4.67719799 -4 4.5 C-6.98613777 4.75632368 -6.98613777 4.75632368 -8.875 6.4375 C-11.01450223 11.31081064 -10.68827538 16.12636146 -8.875 21.0625 C-7.08474591 23.27536511 -7.08474591 23.27536511 -4 23.625 C-3.01 23.41875 -2.02 23.2125 -1 23 C0.03013277 21.35178756 1.03114628 19.68496298 2 18 C4.6875 17.6875 4.6875 17.6875 7 18 C6.10732939 21.92775068 5.33981284 23.70652528 2.25 26.375 C-1.34334126 28.17167063 -3.05397137 28.65767144 -7 28 C-11.84973524 25.52758595 -14.24513429 23.16710458 -16 18 C-16.69609825 13.2132503 -16.49794885 9.96032992 -14.25 5.625 C-10.03181108 0.70377959 -6.70901445 -1.38807195 0 0 Z " fill="#A5A5A5" transform="translate(801,880)"/>
<path d="M0 0 C1.32 0 2.64 0 4 0 C4.02187378 0.83978394 4.02187378 0.83978394 4.04418945 1.6965332 C4.11871352 4.23588137 4.21535581 6.77392078 4.3125 9.3125 C4.33505859 10.19357422 4.35761719 11.07464844 4.38085938 11.98242188 C4.41630859 12.82998047 4.45175781 13.67753906 4.48828125 14.55078125 C4.51446533 15.33106689 4.54064941 16.11135254 4.56762695 16.9152832 C5.10495225 19.50603459 5.87819375 20.44758827 8 22 C11.08333333 22 11.08333333 22 14 21 C16.0140956 17.9788566 16.26836596 17.19339983 16.4140625 13.76953125 C16.45273437 12.96708984 16.49140625 12.16464844 16.53125 11.33789062 C16.57765625 10.08782227 16.57765625 10.08782227 16.625 8.8125 C16.66367187 7.96751953 16.70234375 7.12253906 16.7421875 6.25195312 C16.83636279 4.16832476 16.91926675 2.08419247 17 0 C18.32 0 19.64 0 21 0 C21 8.58 21 17.16 21 26 C19.68 26 18.36 26 17 26 C16.67 25.34 16.34 24.68 16 24 C15.34 24.66 14.68 25.32 14 26 C11.7578125 26.3359375 11.7578125 26.3359375 9.125 26.375 C8.26132812 26.40335938 7.39765625 26.43171875 6.5078125 26.4609375 C4 26 4 26 1.6953125 24.6796875 C-1.06632468 20.31451905 -0.41634408 15.79150512 -0.25 10.75 C-0.23195313 9.71875 -0.21390625 8.6875 -0.1953125 7.625 C-0.14822712 5.08238936 -0.0824805 2.54166838 0 0 Z " fill="#B0B0B0" transform="translate(812,881)"/>
<path d="M0 0 C12.23266773 -0.4942492 12.23266773 -0.4942492 15.88671875 1.859375 C18 4 18 4 18.625 6.5 C17.72687165 10.09251342 16.07651861 11.01837232 13 13 C8.59901209 13.51594231 4.44953234 13.17977908 0 13 C0 8.71 0 4.42 0 0 Z " fill="#0B0B0B" transform="translate(496,890)"/>
<path d="M0 0 C0 2.97 0 5.94 0 9 C1.32 9 2.64 9 4 9 C4 9.99 4 10.98 4 12 C2.68 12 1.36 12 0 12 C0 18.27 0 24.54 0 31 C1.65 31 3.3 31 5 31 C5 32.32 5 33.64 5 35 C-1.48484329 35.3670666 -1.48484329 35.3670666 -3.7121582 33.7800293 C-5.37442495 31.48247728 -5.34679997 30.14919865 -5.29296875 27.33203125 C-5.28330078 26.43935547 -5.27363281 25.54667969 -5.26367188 24.62695312 C-5.23853516 23.69818359 -5.21339844 22.76941406 -5.1875 21.8125 C-5.16719727 20.40194336 -5.16719727 20.40194336 -5.14648438 18.96289062 C-5.11113096 16.64134962 -5.06178674 14.32096347 -5 12 C-5.99 12 -6.98 12 -8 12 C-8 11.01 -8 10.02 -8 9 C-7.01 9 -6.02 9 -5 9 C-5.061875 7.88625 -5.12375 6.7725 -5.1875 5.625 C-5.125625 4.42875 -5.06375 3.2325 -5 2 C-2 0 -2 0 0 0 Z " fill="#A5A5A5" transform="translate(674,872)"/>
<path d="M0 0 C0 2.97 0 5.94 0 9 C1.32 9 2.64 9 4 9 C4 9.99 4 10.98 4 12 C2.68 12 1.36 12 0 12 C0 18.27 0 24.54 0 31 C1.32 31 2.64 31 4 31 C4 32.32 4 33.64 4 35 C0.625 35.1875 0.625 35.1875 -3 35 C-5.13604308 31.79593538 -5.24208908 31.00399253 -5.1953125 27.33203125 C-5.18886719 26.43935547 -5.18242188 25.54667969 -5.17578125 24.62695312 C-5.15902344 23.69818359 -5.14226563 22.76941406 -5.125 21.8125 C-5.11597656 20.87212891 -5.10695313 19.93175781 -5.09765625 18.96289062 C-5.07409056 16.64167032 -5.04119116 14.32096356 -5 12 C-5.99 12 -6.98 12 -8 12 C-8 11.01 -8 10.02 -8 9 C-7.01 9 -6.02 9 -5 9 C-5.061875 7.88625 -5.12375 6.7725 -5.1875 5.625 C-5.125625 4.42875 -5.06375 3.2325 -5 2 C-2 0 -2 0 0 0 Z " fill="#A5A5A5" transform="translate(857,872)"/>
<path d="M0 0 C8.5787701 0.53793307 16.8780429 1.74234946 25.3125 3.375 C27.08210083 3.71108276 27.08210083 3.71108276 28.88745117 4.05395508 C32.25950446 4.6965491 35.62982188 5.34765675 39 6 C40.62493331 6.30894472 42.24992377 6.61758917 43.875 6.92578125 C49.38621218 7.98835596 54.69100098 9.13510498 60 11 C60 11.99 60 12.98 60 14 C58.96875 13.690625 57.9375 13.38125 56.875 13.0625 C52.9493954 12.06021797 49.16696747 11.77430616 45.125 11.5625 C39.83377567 11.25257738 35.40204612 10.38423526 30.41015625 8.6796875 C27.8014636 7.9440108 25.45380249 7.75881264 22.75 7.625 C14.91305429 7.09880507 6.54103763 4.36069175 0 0 Z " fill="#180203" transform="translate(484,460)"/>
<path d="M0 0 C2.10353495 -0.0810206 4.20795952 -0.13919907 6.3125 -0.1875 C7.48425781 -0.22230469 8.65601563 -0.25710938 9.86328125 -0.29296875 C13 0 13 0 14.9296875 1.28515625 C16 3 16 3 15.8125 6.625 C15.544375 7.73875 15.27625 8.8525 15 10 C12.11584117 11.44207941 9.58278472 11.09394887 6.375 11.0625 C5.18648438 11.05347656 3.99796875 11.04445313 2.7734375 11.03515625 C1.85820312 11.02355469 0.94296875 11.01195312 0 11 C0 7.37 0 3.74 0 0 Z " fill="#070707" transform="translate(496,875)"/>
<path d="M0 0 C3.625 0.375 3.625 0.375 7 1 C6.67 2.32 6.34 3.64 6 5 C4.865625 5.28875 3.73125 5.5775 2.5625 5.875 C1.386875 6.24625 0.21125 6.6175 -1 7 C-2.11823815 9.23647631 -2.19396061 10.64891529 -2.31640625 13.1328125 C-2.35830078 13.93847656 -2.40019531 14.74414062 -2.44335938 15.57421875 C-2.50233398 16.83685547 -2.50233398 16.83685547 -2.5625 18.125 C-2.62727539 19.39923828 -2.62727539 19.39923828 -2.69335938 20.69921875 C-2.79954236 22.79928223 -2.90028497 24.89961948 -3 27 C-4.32 27 -5.64 27 -7 27 C-7 18.42 -7 9.84 -7 1 C-4.525 1.495 -4.525 1.495 -2 2 C-1.34 1.34 -0.68 0.68 0 0 Z " fill="#ADADAD" transform="translate(777,880)"/>
<path d="M0 0 C1.65 0 3.3 0 5 0 C5 8.58 5 17.16 5 26 C3.35 26 1.7 26 0 26 C0 17.42 0 8.84 0 0 Z " fill="#A2A2A2" transform="translate(840,881)"/>
<path d="M0 0 C1.65 0 3.3 0 5 0 C5 8.58 5 17.16 5 26 C3.35 26 1.7 26 0 26 C0 17.42 0 8.84 0 0 Z " fill="#A2A2A2" transform="translate(657,881)"/>
<path d="M0 0 C-0.1875 3.3125 -0.1875 3.3125 -1 7 C-3.77119999 9.45449142 -5.51075204 9.95203451 -9.1875 10.3125 C-12 10 -12 10 -14 8 C-13.875 5.5 -13.875 5.5 -13 3 C-9.28892095 0.25105255 -4.49583229 0 0 0 Z " fill="#0F0F0F" transform="translate(542,894)"/>
<path d="M0 0 C1.32 0 2.64 0 4 0 C4 8.58 4 17.16 4 26 C2.68 26 1.36 26 0 26 C0 17.42 0 8.84 0 0 Z " fill="#B4B4B4" transform="translate(759,881)"/>
<path d="M0 0 C1.0725 0.309375 2.145 0.61875 3.25 0.9375 C7.89651772 2.13231884 12.48451888 2.36660633 17.265625 2.55859375 C20.31188142 3.05034657 21.72417617 3.96801444 24 6 C14.81283582 6.53344824 7.53957675 5.44660395 -1 2 C-0.67 1.34 -0.34 0.68 0 0 Z " fill="#170203" transform="translate(446,450)"/>
<path d="M0 0 C0 0.99 0 1.98 0 3 C-1.546875 2.5359375 -1.546875 2.5359375 -3.125 2.0625 C-9.30186863 0.49040889 -15.65944709 0.3384003 -22 0 C-22 -0.33 -22 -0.66 -22 -1 C-14.16296501 -1.89635331 -7.61399923 -2.19386419 0 0 Z " fill="#340507" transform="translate(544,471)"/>
<path d="M0 0 C1.65 0 3.3 0 5 0 C5 1.65 5 3.3 5 5 C3.35 5 1.7 5 0 5 C0 3.35 0 1.7 0 0 Z " fill="#9D9D9D" transform="translate(840,871)"/>
<path d="M0 0 C1.65 0 3.3 0 5 0 C5 1.65 5 3.3 5 5 C3.35 5 1.7 5 0 5 C0 3.35 0 1.7 0 0 Z " fill="#9D9D9D" transform="translate(657,871)"/>
<path d="M0 0 C1.32 0 2.64 0 4 0 C4 1.65 4 3.3 4 5 C2.68 5 1.36 5 0 5 C0 3.35 0 1.7 0 0 Z " fill="#AFAFAF" transform="translate(759,871)"/>
</svg>
