<?xml version="1.0" encoding="UTF-8"?>
<svg version="1.1" xmlns="http://www.w3.org/2000/svg" width="1350" height="1080">
<path d="M0 0 C445.5 0 891 0 1350 0 C1350 356.4 1350 712.8 1350 1080 C904.5 1080 459 1080 0 1080 C0 723.6 0 367.2 0 0 Z " fill="#000000" transform="translate(0,0)"/>
<path d="M0 0 C2.99051027 1.63766038 4.57749523 3.31600231 6.36328125 6.20703125 C11.38096009 14.31251245 18.69841891 19.79394699 27.92236328 22.58081055 C31.80758868 23.36470385 35.73699164 23.22684684 39.6875 23.25 C40.54794922 23.270625 41.40839844 23.29125 42.29492188 23.3125 C51.33908651 23.36702398 58.36675015 20.37348864 66.49560547 16.68725586 C80.22344998 10.48869431 94.68246246 5.59829551 110 8 C113.67439339 9.72611038 116.15552647 12.14065989 119 15 C120.49431751 16.32496152 121.98880508 17.64974088 123.48730469 18.9699707 C130.38450757 25.12207898 137.28696274 31.35875637 141.5 39.6875 C143.6095161 43.73305226 145.8407859 45.63972215 149.58984375 48.1484375 C152.15975095 50.12272601 154.23260072 52.28569463 156.44042969 54.64575195 C161.48427121 60.02286356 166.05343262 63.922354 172.75 67.0625 C186.60582824 73.71792376 193.21232319 89.46996143 199.875 102.69921875 C202.77425753 108.37477423 205.03330453 112.44569025 210.171875 116.20703125 C213.27802142 119.25344408 215.15260544 123.15472497 217.15991211 126.97631836 C219.0560893 130.5488474 220.97557522 133.30417126 224 136 C222.77377763 142.28438967 218.95773809 145.37056155 214 149 C210.61223759 151.00659773 208.22555258 151.29869773 204.26953125 150.66015625 C191.8698623 147.05336786 182.70496455 136.2106083 175.5 126.125 C174.1850162 124.34303832 172.86733506 122.56306374 171.546875 120.78515625 C170.92748047 119.94871582 170.30808594 119.11227539 169.66992188 118.25048828 C162.45716141 108.53013361 154.2863265 102.45240952 144.23046875 95.8828125 C141.11507205 93.83370138 138.62325665 91.65426442 136 89 C122.85275941 85.82652813 110.24784911 92.65393619 98.828125 98.56640625 C96.62364015 99.68387302 94.41472929 100.74196942 92.171875 101.77734375 C84.51732371 105.36527328 78.34839106 108.96467747 72.20703125 114.90234375 C59.92151227 126.57902285 42.02132597 130.78689367 26.24609375 135.67456055 C11.66194825 140.21108274 -2.13837443 145.64811555 -15.5625 153 C-44.12005053 168.30056454 -44.12005053 168.30056454 -58.75 168.5625 C-64.47326494 168.75164673 -70.03253411 169.02303868 -75.6875 170 C-80.78485474 170.86608751 -85.84709388 171.43076262 -91 171.8125 C-91.71889404 171.87759766 -92.43778809 171.94269531 -93.1784668 172.00976562 C-97.79589796 172.31015714 -100.24695207 171.64526098 -104 169 C-109.33113392 168.20600133 -111.75549176 169.90504607 -116 173 C-117.0725 173.515625 -118.145 174.03125 -119.25 174.5625 C-122.24567833 175.84806581 -122.24567833 175.84806581 -124 179 C-124.35686878 180.75885327 -124.63906841 182.53338325 -124.875 184.3125 C-126.33408164 193.6281751 -128.59718023 202.44254375 -132.875 210.875 C-135.84136798 217.01854383 -137.59031093 223.2660462 -139.25 229.875 C-139.4960498 230.8429248 -139.74209961 231.81084961 -139.99560547 232.80810547 C-143.27946275 246.42625481 -144.35293612 259.759246 -144.31567383 273.70776367 C-144.31248965 276.1955866 -144.33617045 278.68224257 -144.36132812 281.16992188 C-144.42750474 297.81582317 -141.50336366 310.82961274 -129.83984375 323.25 C-116.3737093 336.29010819 -103.1211035 343.90893211 -85.00390625 348.65234375 C-79.47425506 350.11135754 -74.02392344 351.80629614 -68.5625 353.5 C-58.43820415 356.60976057 -48.28691552 359.47949639 -38 362 C-37.25927246 362.18691406 -36.51854492 362.37382812 -35.75537109 362.56640625 C-26.17521014 364.95154317 -16.85380038 366.27019408 -7 366.875 C15.90111321 368.33625989 40.01503766 371.32642451 61 381 C62.07282227 381.47920898 63.14564453 381.95841797 64.25097656 382.45214844 C67.88943372 384.08572113 71.50989743 385.75315209 75.125 387.4375 C76.26453125 387.96287354 77.4040625 388.48824707 78.578125 389.02954102 C86.00583188 392.60675889 94.48983068 396.77708277 98.22216797 404.54296875 C101.04181317 413.44971993 98.90616314 424.78541103 98 433.9375 C96.17329603 452.77883207 95.68048179 469.63766325 107 486 C110.23584979 489.42862382 114.62998148 493.872499 119.46875 494.1328125 C120.4690625 494.13023437 121.469375 494.12765625 122.5 494.125 C137.31500442 495.05300923 151.54402424 503.53744818 163.08203125 512.35546875 C180.97004222 526.00691344 201.0393486 536.40831329 221.27954102 546.11474609 C223 547 223 547 224 548 C224.29243324 552.27026557 224.31426997 556.54669567 224.35009766 560.82568359 C224.36653708 562.26107126 224.39366589 563.69638124 224.43212891 565.13134766 C224.66451842 573.85100622 224.51079321 580.80064785 219 588 C218.50467773 588.67595215 218.00935547 589.3519043 217.49902344 590.04833984 C215.9327743 592.12729624 214.31763236 594.15836236 212.6875 596.1875 C208.54818229 601.44814991 204.81802546 606.6765421 201.625 612.5625 C195.21433561 624.10433404 188.93307499 628.54158454 177.15844727 633.88574219 C174.92698686 634.97921725 174.92698686 634.97921725 172.74584961 636.55957031 C165.58719824 641.49697399 159.74344812 641.79582965 151.1875 641.5 C150.00607422 641.4896875 148.82464844 641.479375 147.60742188 641.46875 C136.48064997 641.27365044 125.67452387 639.71969283 114.9375 636.8125 C113.74568115 636.49212769 113.74568115 636.49212769 112.52978516 636.1652832 C76.88261377 626.32376133 48.82880594 607.62612645 20 585 C19.11957031 584.31421875 18.23914062 583.6284375 17.33203125 582.921875 C0.74205764 569.85566322 -14.17867168 555.90698574 -24.25 537.1875 C-28.45403723 529.4062462 -33.66467617 523.01157682 -39.62353516 516.51171875 C-41.54496163 514.40148946 -43.38947458 512.22641169 -45.25 510.0625 C-48.87730364 506.00712948 -52.82954809 502.48375099 -57 499 C-58.8064903 497.44087144 -60.61064938 495.87909228 -62.4140625 494.31640625 C-64.11427049 492.86341475 -64.11427049 492.86341475 -66.5625 491.25 C-69.6027532 488.44361243 -71.23061171 485.34112962 -73.28125 481.7734375 C-77.56231554 474.86535447 -83.13556029 468.89836616 -88.6875 463 C-93.22514012 458.08009378 -97.1823668 452.84253734 -101.125 447.4375 C-101.73230957 446.60750488 -102.33961914 445.77750977 -102.96533203 444.92236328 C-105.40172353 441.58537825 -107.82762936 438.24350774 -110.21484375 434.87109375 C-118.57528389 423.57654566 -130.98412903 417.86218716 -143.12011719 411.45068359 C-149.05764096 408.25096123 -153.74441406 404.86634089 -158.5390625 400.09765625 C-170.91620331 389.54761718 -187.76218751 386.10609298 -203.47119141 384.78100586 C-211.61694246 384.05290697 -219.14164549 382.23385638 -227 380 C-228.58163396 379.56495927 -230.16368244 379.13142341 -231.74609375 378.69921875 C-234.81376722 377.8579036 -237.87919965 377.00944316 -240.94140625 376.1484375 C-241.62936279 375.95693115 -242.31731934 375.7654248 -243.02612305 375.56811523 C-244.85950885 375.04043573 -246.67686972 374.45792467 -248.4921875 373.87109375 C-252.60667145 372.84934551 -256.34364397 372.66874953 -260.5625 372.6875 C-261.29146484 372.67138672 -262.02042969 372.65527344 -262.77148438 372.63867188 C-268.45728899 372.63355414 -272.49557061 373.8835808 -276.94140625 377.640625 C-279.88384429 379.58363912 -282.4370325 379.50435316 -285.9375 379.75 C-300.70111786 381.18292411 -317.92772679 386.41546292 -329.4296875 396.03125 C-332.11477143 398.08791003 -334.46486251 399.14129002 -337.625 400.3125 C-344.84106233 403.20423086 -351.09194019 407.13235545 -357.34765625 411.72265625 C-370.64538017 421.46840049 -385.25420921 426.74274566 -400.875 431.5 C-413.3387871 435.31175227 -425.22139055 439.60141962 -437.04251099 445.1076355 C-458.49755973 454.88839225 -481.14508963 461.79184214 -504.25 466.3125 C-505.55408813 466.57003052 -505.55408813 466.57003052 -506.88452148 466.83276367 C-511.67693892 467.72775288 -516.12563503 468.17784845 -521 468 C-521.23074219 467.33613281 -521.46148438 466.67226563 -521.69921875 465.98828125 C-525.16485145 456.60504647 -530.50191473 452.02882948 -539 447 C-543.38511463 445.53829512 -547.30682018 445.49974232 -551.75 446.8125 C-554.0145641 447.83594323 -554.0145641 447.83594323 -555.3125 449.5 C-557 451 -557 451 -560.7109375 451.76953125 C-565.30511662 452.86016512 -567.93066596 455.0011724 -571.3125 458.1875 C-575.30291083 461.76902623 -579.19335032 464.91601019 -583.8125 467.6875 C-587.3634823 469.82830804 -590.07645678 471.94438809 -592.875 475 C-596.0307096 478.36823698 -599.12094336 480.25777942 -603.25 482.3125 C-608.9415088 485.1877951 -613.03537483 488.49733263 -617.54980469 492.88208008 C-620.82270599 496.02533489 -624.14712432 498.56001241 -628 501 C-635.75920559 505.95698923 -642.18543376 512.27237544 -648.7421875 518.6796875 C-653.37244875 523.09521199 -657.62850798 526.51900037 -663.375 529.375 C-669.21028458 532.30986568 -673.41122918 535.82701176 -678.05419922 540.31152344 C-681.87098695 543.99220157 -685.81041428 547.37504792 -690 550.625 C-690.58531494 551.08076416 -691.17062988 551.53652832 -691.77368164 552.00610352 C-694.55925457 554.15990496 -697.36821232 556.26921607 -700.2109375 558.34765625 C-709.70366433 565.36758634 -717.79284111 573.5363674 -726 582 C-733.17208602 589.38770253 -740.53029813 595.2316341 -749.375 600.5 C-763.28681733 608.83035837 -763.28681733 608.83035837 -775.40234375 619.48828125 C-778.10958753 622.04990311 -781.21580794 624 -785 624 C-791.95447583 585.93666354 -779.38346028 555.15211781 -758.1875 523.75 C-754.21837909 517.75640975 -751.55986926 511.53454647 -748.86669922 504.88574219 C-741.12762782 485.88810078 -728.0178186 468.74809638 -715 453 C-714.51144531 452.40848145 -714.02289062 451.81696289 -713.51953125 451.20751953 C-704.14431041 439.92532093 -694.55815207 429.99506006 -682.68383789 421.31982422 C-678.51603003 418.24097461 -674.92967865 415.19824636 -671.6953125 411.1171875 C-669.45737551 408.32234453 -667.00499499 405.73946699 -664.5625 403.125 C-661.26359817 399.56243026 -658.10873156 395.96032513 -655.125 392.125 C-646.12873549 380.70029599 -636.15984377 370.26791478 -624.1171875 362.02734375 C-618.39362797 358.10506794 -614.7103616 354.59306884 -610.99609375 348.75 C-608.54558517 345.37395687 -605.70464895 342.67599985 -602.6875 339.8125 C-593.90203044 331.32150846 -587.89104403 321.61123258 -582.1550293 310.88818359 C-575.56140001 298.58627978 -568.53284607 291.19334205 -554.77490234 287.0222168 C-551.25556415 286.1309493 -547.72875193 285.29969925 -544.1875 284.5 C-525.95576832 280.34301645 -525.95576832 280.34301645 -509.8125 271.25 C-509.2357251 270.82243408 -508.6589502 270.39486816 -508.06469727 269.9543457 C-501.84362931 265.26934391 -496.09415842 260.09415842 -490.58984375 254.58984375 C-481.03990976 245.03990976 -471.04182298 236.75562888 -460 229 C-458.48165109 227.92855509 -456.96342566 226.85693517 -455.4453125 225.78515625 C-453.2071066 224.20524621 -450.96776334 222.6272871 -448.72167969 221.05859375 C-441.61915423 216.30163385 -441.61915423 216.30163385 -436 210 C-433.95117188 209.19799805 -433.95117188 209.19799805 -431.46875 208.57421875 C-418.75588592 205.05580576 -406.74031619 198.89469388 -397 190 C-368.94248049 165.30794306 -338.73933056 151.38324542 -304.12890625 137.47265625 C-302.08572555 136.64896305 -300.04275504 135.82474826 -298 135 C-296.96238525 134.58298828 -295.92477051 134.16597656 -294.85571289 133.73632812 C-288.79495257 131.26406905 -283.03528071 128.54347909 -277.3125 125.375 C-269.78593198 121.30261669 -262.10659592 117.76263089 -254.25 114.375 C-240.61763188 108.46180812 -228.16795552 102.19344037 -216.15820312 93.38696289 C-207.6707314 87.17232615 -198.87626116 82.28442481 -189.25 78.0625 C-187.31166288 77.19588035 -185.37416124 76.3273896 -183.4375 75.45703125 C-182.50679687 75.0388916 -181.57609375 74.62075195 -180.6171875 74.18994141 C-173.20310042 70.81902159 -165.91428026 67.25334913 -159 62.9375 C-150.9769619 58.01635428 -142.31540351 54.65337867 -133.3125 52 C-121.96103485 48.35470732 -111.59110833 42.22940904 -101.10009766 36.64599609 C-83.27438381 27.18143768 -64.93165261 17.9744437 -44.5625 16.125 C-34.45397579 15.19132241 -21.73064996 11.95276818 -14.48828125 4.4296875 C-14.10027344 3.91664062 -13.71226562 3.40359375 -13.3125 2.875 C-9.33676395 -2.06780699 -5.83834995 -1.26344746 0 0 Z " fill="#000000" transform="translate(1007,124)"/>
<path d="M0 0 C6.40816972 3.37096428 9.21425297 7.63276786 12.66796875 13.73828125 C15.32089166 17.83884851 18.87927113 20.99822931 23.25 23.18359375 C37.74947021 25.40451916 53.6303962 17.01580721 66.60766602 11.66259766 C76.63731617 7.53082907 84.30941262 5.78381589 95.25 6.18359375 C96.48169922 6.21066406 96.48169922 6.21066406 97.73828125 6.23828125 C109.05497961 6.92170531 117.70387391 14.4148671 126.25 21.18359375 C126.88679688 21.6528125 127.52359375 22.12203125 128.1796875 22.60546875 C135.5178251 28.29340316 140.79486577 36.59615897 146.3359375 43.953125 C149.37661794 47.95646627 152.16255657 51.19278148 156.25 54.18359375 C157.50903477 55.25641366 158.75803582 56.34105721 160 57.43359375 C160.68964844 58.03816406 161.37929687 58.64273438 162.08984375 59.265625 C163.52933687 60.5437283 164.95911566 61.83285744 166.37890625 63.1328125 C170.3688466 66.76587089 174.42157571 70.10452085 178.8125 73.24609375 C180.62664951 74.55631284 182.43926717 75.86865682 184.25 77.18359375 C184.95125 77.68890625 185.6525 78.19421875 186.375 78.71484375 C197.88639802 87.81256154 206.76466974 104.53592219 211.25 118.18359375 C212.88400489 120.63460108 214.54342387 122.62891442 216.8671875 124.453125 C224.0553305 130.10521255 228.78812548 137.52715425 233.81787109 145.05615234 C235.12774769 147.00198676 236.47327862 148.9162989 237.83203125 150.828125 C243.84432726 159.70442191 243.84432726 159.70442191 243.5625 165.74609375 C242.89454877 168.94604613 242.3222035 170.10077209 240.125 172.62109375 C237.25 174.18359375 237.25 174.18359375 233.75 175.55859375 C230.26814687 177.17516842 229.12740258 178.47558415 226.8671875 181.4375 C218.21371699 190.7807399 206.00511619 195.26180031 193.5625 195.74609375 C182.8257456 195.39621988 177.26376044 190.58578769 169.66796875 183.4375 C167.51281137 181.428573 165.2924392 179.59314476 163 177.74609375 C159.28489604 174.52335297 157.07548089 170.93640842 154.6796875 166.67578125 C151.81846052 161.68817793 148.6751698 157.37123525 144.25 153.68359375 C141.68098515 151.54274804 140.24734279 149.92303789 138.375 147.24609375 C135.25476432 142.92012731 131.66936832 140.10969895 127.25 137.18359375 C126.6725 136.75691406 126.095 136.33023438 125.5 135.890625 C121.55088004 133.21217095 118.54834109 132.90703195 113.89672852 133.53491211 C108.52274856 134.8520106 103.78033208 137.57279933 98.9375 140.18359375 C97.82826172 140.77229248 96.71902344 141.36099121 95.57617188 141.9675293 C85.96955285 147.1564905 77.76008937 152.86267598 69.8125 160.37109375 C62.66854955 166.85619886 53.80007761 169.95682805 44.56640625 172.21484375 C39.99411231 173.55044905 35.61791178 175.31608703 31.1875 177.05859375 C24.60571548 179.63956031 18.10235747 181.88455847 11.25 183.62109375 C-3.81297683 187.53196466 -17.68328699 194.45258823 -31.33935547 201.78588867 C-43.32979827 208.21508394 -54.18508928 211.3130787 -67.8125 211.62109375 C-74.48435085 211.84230896 -80.83708202 212.39803733 -87.375 213.74609375 C-96.4940495 215.61655516 -105.47905497 215.4583638 -114.75 215.18359375 C-114.92813232 215.78655273 -115.10626465 216.38951172 -115.28979492 217.01074219 C-116.85901052 222.28656201 -118.49657465 227.53400732 -120.19873047 232.76831055 C-123.00355265 241.42298657 -125.67319205 250.1095637 -128.125 258.87109375 C-128.37548096 259.74217773 -128.62596191 260.61326172 -128.8840332 261.51074219 C-131.93468225 272.63526552 -131.93178316 283.77239673 -131.9375 295.24609375 C-131.94974609 296.54353516 -131.96199219 297.84097656 -131.97460938 299.17773438 C-131.99178333 310.47246905 -131.62856267 321.81785738 -123.62890625 330.48046875 C-111.25625252 341.75772063 -94.53947773 351.06842549 -77.75 352.18359375 C-74.84237579 352.59786525 -71.95328656 353.10328008 -69.0625 353.62109375 C-68.33087646 353.75088623 -67.59925293 353.88067871 -66.84545898 354.0144043 C-59.19426693 355.40876824 -52.28294332 357.48105582 -45.1875 360.68359375 C-34.02485126 365.41667086 -21.9300469 366.53284627 -9.90185547 366.71777344 C-5.61003525 366.83789321 -2.64861016 367.53630945 1.28857422 369.41259766 C5.48857609 371.06353192 10.05874346 371.46026193 14.5 372.12109375 C16.65270972 372.46778728 18.80505134 372.81677365 20.95703125 373.16796875 C23.9529286 373.65239243 26.94876606 374.13625153 29.94677734 374.60742188 C39.95408278 376.2242119 48.10236836 378.69433265 56.91015625 383.76660156 C61.87529786 386.59358861 66.72223162 388.48446744 72.1875 390.12109375 C85.91005361 394.34731815 101.2130013 401.61838708 110.25 413.18359375 C112.04286998 418.27675004 112.5345875 422.96028052 112.48046875 428.3125 C112.47978142 429.44159035 112.47978142 429.44159035 112.4790802 430.5934906 C112.47607768 432.17424103 112.46825195 433.75498904 112.45581055 435.33569336 C112.43752515 437.74278347 112.43530147 440.14948816 112.43554688 442.55664062 C112.43063142 444.10026371 112.42480298 445.64388422 112.41796875 447.1875 C112.41685593 447.90015518 112.4157431 448.61281036 112.41459656 449.34706116 C112.37641868 453.4023839 111.94850974 457.19640817 111.25 461.18359375 C110.99209109 465.51504049 110.97357288 469.84522874 110.9375 474.18359375 C110.90849609 475.34632813 110.87949219 476.5090625 110.84960938 477.70703125 C110.67101245 484.55107391 110.67101245 484.55107391 112.78515625 490.9296875 C116.02306827 493.89050404 118.80124192 494.08819836 123 494.24609375 C129.79235052 494.80827156 133.87520833 496.07407405 139.25 500.18359375 C147.39321826 505.4825865 155.73414636 510.13852985 164.45043945 514.41870117 C169.41053569 516.93190711 173.26274494 519.81311008 177.35766602 523.56176758 C180.16641517 525.96900802 182.97077243 527.38522834 186.3125 528.99609375 C186.97805908 529.31956787 187.64361816 529.64304199 188.3293457 529.97631836 C194.45421063 532.90842719 200.69976404 535.56540547 206.9375 538.24609375 C233.66561982 549.75766656 233.66561982 549.75766656 237.25 557.18359375 C237.0546715 559.19113663 236.84201503 561.19795626 236.56103516 563.1953125 C236.16816802 566.96979742 236.13534344 570.72515523 236.109375 574.515625 C236.09023457 576.07227048 236.07069527 577.6289111 236.05078125 579.18554688 C236.02192862 581.58789482 236.00000138 583.98931354 235.99951172 586.3918457 C235.98465551 596.73494934 235.21734202 604.85928155 230.25 614.18359375 C229.8276709 615.02591553 229.4053418 615.8682373 228.97021484 616.73608398 C227.71578762 619.18602351 226.40482754 621.59330309 225.0625 623.99609375 C224.5876416 624.85066162 224.1127832 625.70522949 223.62353516 626.58569336 C206.99966337 656.11748019 206.99966337 656.11748019 194.25 664.18359375 C192.73558175 665.77415593 191.23753652 667.38036302 189.75 668.99609375 C183.94488365 674.94151503 177.8200185 677.93671604 170.25 681.18359375 C169.04923828 681.70759766 169.04923828 681.70759766 167.82421875 682.2421875 C159.23762506 685.72684397 150.14454815 685.78911573 141.06640625 684.69921875 C135.22770962 684.0186419 129.37941951 683.8795439 123.50585938 683.75390625 C97.35388272 682.81501704 63.32530356 672.13247383 42.20703125 656.2734375 C39.21355117 654.15783401 36.26323955 652.64936012 32.9375 651.12109375 C28.04826621 648.79838688 24.82697501 646.15274754 21.171875 642.203125 C16.74449617 637.55077773 11.83774911 633.68008581 5.875 631.24609375 C-4.0687108 627.16484897 -11.95924695 619.37705573 -19.75 612.18359375 C-21.14093507 610.94888689 -22.53645358 609.71931504 -23.9375 608.49609375 C-24.58332031 607.92761719 -25.22914063 607.35914063 -25.89453125 606.7734375 C-27.05550156 605.77866926 -28.23792463 604.8078357 -29.44921875 603.875 C-39.07660424 596.31222865 -44.82122093 586.63054143 -49.296875 575.44140625 C-51.6267343 570.21801202 -54.90696521 566.37599533 -58.75 562.18359375 C-59.25160645 561.62994141 -59.75321289 561.07628906 -60.27001953 560.50585938 C-66.99240157 553.11379218 -73.9439419 545.95531195 -81.03125 538.9140625 C-81.57882462 538.36952927 -82.12639923 537.82499603 -82.69056702 537.26396179 C-85.4122727 534.55987281 -88.1407136 531.86314058 -90.88061523 529.17749023 C-97.30572416 522.84687933 -103.1849894 516.30030215 -108.75 509.18359375 C-109.37011963 508.40129395 -109.99023926 507.61899414 -110.62915039 506.81298828 C-112.36819419 504.61170926 -114.09313784 502.40026962 -115.8125 500.18359375 C-116.41537842 499.40814209 -117.01825684 498.63269043 -117.6394043 497.83374023 C-120.85179663 493.68647211 -124.00432312 489.50919232 -127.0625 485.24609375 C-138.25851281 469.77481022 -152.06718595 454.63825304 -170.9375 448.74609375 C-174.63077758 447.53852528 -177.06260656 445.38647192 -180 442.87109375 C-189.18204875 435.16068843 -196.75561073 431.769848 -208.62060547 431.50927734 C-212.67906815 431.39767642 -215.83486023 431.06891177 -219.5 429.30859375 C-224.55507425 426.88528496 -229.62153323 426.41126372 -235.125 425.74609375 C-242.51986717 424.83695246 -248.64991149 423.57203007 -255.375 420.26953125 C-259.17425512 418.53237184 -263.03745081 418.00093115 -267.1875 417.80859375 C-267.90808594 417.75960938 -268.62867188 417.710625 -269.37109375 417.66015625 C-272.0585872 418.04387205 -272.0585872 418.04387205 -274.51171875 420.703125 C-277.50516416 423.370486 -279.81388037 423.63059713 -283.86474609 423.41845703 C-284.61062988 423.36157715 -285.35651367 423.30469727 -286.125 423.24609375 C-298.99878869 422.77886787 -309.83073836 425.66320641 -321.21875 431.81640625 C-323.75 433.18359375 -323.75 433.18359375 -327.3125 434.62109375 C-334.46234573 437.87102363 -340.71390059 442.32583491 -346.75 447.30859375 C-367.08680538 462.77194188 -394.6299002 471.89785637 -418.69775391 479.93920898 C-426.7892601 482.7066378 -434.56922743 486.08481538 -442.375 489.55859375 C-452.55302537 494.07807085 -462.7825946 498.17848634 -473.3125 501.80859375 C-475.04910889 502.4106665 -475.04910889 502.4106665 -476.82080078 503.02490234 C-486.50690022 506.28727829 -496.39774798 509.40050638 -506.6875 509.62109375 C-511.80126559 509.88333814 -516.22708606 510.75110614 -521.125 512.24609375 C-530.25922937 515.03005242 -537.7626591 514.78390371 -546.75 511.18359375 C-550.15171765 509.06057054 -551.50803799 507.86602886 -552.859375 504.0546875 C-553.07078125 502.92160156 -553.2821875 501.78851562 -553.5 500.62109375 C-553.72171875 499.48542969 -553.9434375 498.34976562 -554.171875 497.1796875 C-554.45804688 495.69662109 -554.45804688 495.69662109 -554.75 494.18359375 C-555.08 493.19359375 -555.41 492.20359375 -555.75 491.18359375 C-558.06 490.85359375 -560.37 490.52359375 -562.75 490.18359375 C-562.75 490.84359375 -562.75 491.50359375 -562.75 492.18359375 C-564.27197266 493.52124023 -564.27197266 493.52124023 -566.4140625 495.0546875 C-567.19950439 495.62340576 -567.98494629 496.19212402 -568.79418945 496.77807617 C-569.64585693 497.38627197 -570.49752441 497.99446777 -571.375 498.62109375 C-573.13276242 499.89541022 -574.88926419 501.17146732 -576.64453125 502.44921875 C-577.5154541 503.08279297 -578.38637695 503.71636719 -579.28369141 504.36914062 C-584.31153893 508.06810745 -589.18567681 511.95979217 -594.06738281 515.84814453 C-595.81760242 517.23724802 -597.57550782 518.61605022 -599.3359375 519.9921875 C-604.77677014 524.24617004 -610.18453815 528.5227323 -615.5 532.93359375 C-619.64916085 536.35269697 -623.92512386 539.46978116 -628.35546875 542.51171875 C-632.27603076 545.24907689 -636.01718095 548.19733851 -639.75 551.18359375 C-640.6265625 551.88484375 -641.503125 552.58609375 -642.40625 553.30859375 C-647.82992256 557.69628391 -653.06344733 562.23509005 -658.21875 566.93359375 C-661.7260911 570.05123028 -665.37669752 572.97856475 -669.02734375 575.92578125 C-671.70250814 578.14421026 -674.25947327 580.45133902 -676.8125 582.80859375 C-681.50616632 587.0802743 -686.50112402 590.633822 -691.75 594.18359375 C-700.61952117 600.27667841 -708.10295844 606.90503838 -715.125 615.05859375 C-725.84931229 627.39889831 -737.26616744 635.62446682 -751.140625 644.0859375 C-751.70728378 644.43224716 -752.27394257 644.77855682 -752.85777283 645.13536072 C-755.69426762 646.86826245 -758.53523188 648.59170519 -761.38696289 650.29956055 C-769.61821125 655.2856478 -777.95114748 660.44102557 -784 668.05859375 C-786.64728964 671.27787395 -788.51899748 672.46512162 -792.75 673.18359375 C-798.17199354 673.69418507 -802.35678365 673.86798073 -807.3125 671.43359375 C-811.54340975 667.5281386 -812.13384294 663.8304092 -813.00390625 658.21484375 C-813.10968491 657.53869019 -813.21546356 656.86253662 -813.32444763 656.16589355 C-813.54690644 654.73413848 -813.76607772 653.30186924 -813.98217773 651.86914062 C-814.30739163 649.71739279 -814.64399663 647.56767357 -814.98242188 645.41796875 C-816.23282735 637.36110811 -817.24990632 629.32644014 -817.75 621.18359375 C-817.79535889 620.45849609 -817.84071777 619.73339844 -817.88745117 618.98632812 C-819.28161713 591.46758512 -808.84213381 568.05147042 -793.75 545.68359375 C-787.50856562 536.42403456 -781.59735464 527.44850835 -778.25 516.68359375 C-768.19746598 484.54193891 -738.33094569 451.32074204 -711.91430664 431.54345703 C-702.890822 424.76404273 -696.76738252 417.23458779 -690.0703125 408.19921875 C-686.54848518 403.62202903 -682.66652775 399.42193409 -678.75 395.18359375 C-677.33272063 393.57996838 -675.91606322 391.97579313 -674.5 390.37109375 C-665.2560294 380.14303553 -656.13517785 371.08464203 -644.4140625 363.71484375 C-631.19529441 355.23317685 -618.29533233 339.92716496 -613.1875 324.87109375 C-607.17407079 309.52648129 -598.49353219 298.4764485 -583.44360352 291.64160156 C-577.33264701 289.22937126 -571.04598485 287.93846906 -564.625 286.62109375 C-541.51497142 281.83850475 -526.37674239 270.46662319 -509.52246094 254.56420898 C-498.86853223 244.5440566 -487.80892611 234.47050864 -475.3125 226.80859375 C-471.44189386 224.40225029 -468.09726924 221.83873712 -464.75 218.74609375 C-450.71385385 205.83903822 -450.71385385 205.83903822 -442.9375 205.74609375 C-431.48026901 205.47999032 -422.26286301 195.98046467 -414.07080078 188.77709961 C-403.49551078 179.50127817 -392.16936641 171.79801018 -379.75 165.18359375 C-378.90373047 164.72839355 -378.05746094 164.27319336 -377.18554688 163.80419922 C-361.7245172 155.50915692 -346.24458599 147.78167491 -329.6875 141.93359375 C-320.86766209 138.8127704 -312.55214674 134.85193984 -304.16113281 130.72973633 C-297.49958709 127.46663728 -290.79185866 124.45365409 -283.9375 121.62109375 C-269.09543891 115.39740947 -255.50444731 107.35758672 -241.9375 98.74609375 C-226.00189933 88.64584953 -209.42461666 80.2508149 -192.21044922 72.56274414 C-181.22573406 67.67438563 -181.22573406 67.67438563 -171.1328125 61.203125 C-166.6534158 58.52893551 -162.16389774 57.47316503 -157.125 56.24609375 C-144.1818169 53.06913063 -132.97342904 48.00636724 -121.4375 41.37109375 C-119.23609734 40.12555902 -117.0342762 38.88076362 -114.83203125 37.63671875 C-112.01627888 36.03909192 -109.20105103 34.44059119 -106.38818359 32.83789062 C-95.06887665 26.42174219 -84.04655066 22.12588697 -71.26171875 19.72265625 C-70.58452789 19.59506927 -69.90733704 19.4674823 -69.20962524 19.33602905 C-65.77440659 18.69499582 -62.33695363 18.07980292 -58.890625 17.50146484 C-47.91691934 15.55694832 -39.60174716 12.19099176 -31.0625 5.05859375 C-21.21572341 -3.12861376 -11.94097093 -5.39209469 0 0 Z M-26.203125 27.73046875 C-28.95726358 30.31768984 -32.34694709 31.6174829 -35.75 33.18359375 C-36.41257812 33.52648437 -37.07515625 33.869375 -37.7578125 34.22265625 C-43.62353221 36.97681138 -49.3889808 37.77232332 -55.75 38.55859375 C-79.269523 41.56988688 -100.6166577 52.45251738 -121.07910156 63.98486328 C-129.91789847 68.95099144 -138.78975891 73.06843285 -148.5 75.99609375 C-158.24860658 79.09829603 -166.8347564 83.54663025 -175.5390625 88.8984375 C-183.18094323 93.5782636 -191.12945948 97.08725603 -199.390625 100.54443359 C-208.51827257 104.38953275 -216.45596749 108.85025315 -224.44799805 114.70288086 C-237.17460907 123.98309412 -250.37903036 130.83026238 -264.75 137.18359375 C-267.41579126 138.37256389 -270.08089259 139.56306766 -272.74584961 140.75390625 C-274.40532114 141.4942535 -276.06628006 142.23127642 -277.72875977 142.96484375 C-282.92854158 145.28168731 -287.90181718 147.85680887 -292.875 150.62109375 C-300.81708891 154.99247578 -309.1121712 158.1380539 -317.59204102 161.30786133 C-329.52861721 165.78958559 -341.14252145 170.91688055 -352.75 176.18359375 C-353.5951416 176.56290039 -354.4402832 176.94220703 -355.31103516 177.33300781 C-372.31355416 184.97669172 -386.57388311 194.91625862 -400.51538086 207.23681641 C-413.19483425 218.42977983 -427.63321533 227.40259888 -444.04296875 232.1328125 C-447.50429524 233.47638656 -449.23160284 235.4847382 -451.75 238.18359375 C-453.4702848 239.57531484 -455.2225129 240.92821403 -457 242.24609375 C-458.56621094 243.40818359 -458.56621094 243.40818359 -460.1640625 244.59375 C-462.73955356 246.46968004 -465.34301458 248.30099607 -467.9609375 250.1171875 C-476.04027166 255.7245938 -483.58736055 261.41213423 -490.75 268.18359375 C-492.01366475 269.27528046 -493.28388883 270.35945132 -494.5625 271.43359375 C-497.99074259 274.35039689 -501.13912954 277.49518915 -504.24633789 280.75195312 C-520.62322197 297.61185315 -539.53839522 303.79727072 -561.8125 308.8828125 C-572.34950833 311.47216256 -581.67984024 315.9070742 -587.75 325.18359375 C-589.6597362 328.59403572 -591.42996265 332.07622494 -593.21459961 335.55322266 C-599.15392029 346.99991342 -606.40197354 356.41977827 -615.84057617 365.21557617 C-618.82968046 368.04082378 -621.14665745 370.65963005 -623.19921875 374.23828125 C-625.80336229 378.63589902 -629.08026434 381.08059034 -633.25 383.93359375 C-643.87961343 391.55708649 -653.42016361 400.0610317 -661.75 410.18359375 C-663.53939612 412.31056 -665.3308901 414.43561464 -667.125 416.55859375 C-667.59663574 417.11820801 -668.06827148 417.67782227 -668.55419922 418.25439453 C-672.18748163 422.55371636 -675.91222524 426.75964044 -679.7109375 430.9140625 C-680.99820816 432.34682926 -682.25793033 433.80529128 -683.4765625 435.296875 C-687.44849753 440.14414168 -691.81676911 443.54144359 -696.93359375 447.140625 C-716.34474591 461.22111401 -730.72815174 481.52698143 -743.99185181 501.16372681 C-744.77469834 502.32254108 -745.56006703 503.47965644 -746.34823608 504.63485718 C-752.85150157 514.19626101 -757.84315461 523.97969036 -761.875 534.80859375 C-764.15482891 540.37987983 -767.19060873 545.26643416 -770.4375 550.30859375 C-789.99997207 580.72038515 -801.4330587 609.60578138 -794.75 646.18359375 C-790.73174499 645.0184703 -787.96974993 643.88300708 -784.9375 640.99609375 C-777.80294976 634.39115526 -770.2286066 629.08440501 -761.8125 624.24609375 C-754.60590669 620.01790776 -748.05740586 615.67915529 -741.75 610.18359375 C-740.904375 609.52359375 -740.05875 608.86359375 -739.1875 608.18359375 C-737.0671698 606.44383564 -735.42010347 604.79043957 -733.6875 602.68359375 C-725.22605768 592.90512522 -716.42736513 584.99028907 -705.90161133 577.48168945 C-700.6585406 573.70427752 -695.84632824 569.72186646 -691.1875 565.24609375 C-684.82627374 559.14080497 -678.35839244 553.97088941 -670.4375 549.99609375 C-663.60991117 546.34104178 -658.29318958 540.50067268 -652.75 535.18359375 C-646.92396434 529.64758037 -641.20987017 525.09833295 -634.3359375 520.9296875 C-631.78556791 519.20761015 -629.85294118 517.41957815 -627.75 515.18359375 C-622.77699541 509.91506225 -616.73431897 506.50313609 -610.515625 502.8828125 C-607.03367855 500.81118932 -604.21991555 498.76861029 -601.4375 495.80859375 C-597.94502343 492.13438197 -594.03287207 489.76057809 -589.71484375 487.1484375 C-586.45003745 484.98480434 -583.55669722 482.51532137 -580.625 479.93359375 C-576.41886483 476.31817717 -573.01739363 473.98400314 -567.58984375 472.78125 C-565.33548603 472.04894271 -564.33935251 470.9050128 -562.75 469.18359375 C-561 468.49609375 -561 468.49609375 -558.75 468.18359375 C-557.739375 468.03921875 -556.72875 467.89484375 -555.6875 467.74609375 C-549.88369611 468.39096085 -545.65079248 471.13674447 -540.75 474.18359375 C-539.780625 474.78171875 -538.81125 475.37984375 -537.8125 475.99609375 C-534.07485495 479.96026274 -532.45116186 485.08010817 -530.75 490.18359375 C-524.79013312 490.41970869 -519.33651151 489.53358933 -513.5 488.37109375 C-512.092948 488.09543579 -512.092948 488.09543579 -510.6574707 487.81420898 C-504.26428966 486.53935014 -497.98225208 485.10679235 -491.75 483.18359375 C-490.62722656 482.8484375 -489.50445313 482.51328125 -488.34765625 482.16796875 C-480.28439606 479.73160304 -472.28932717 477.07529379 -464.3125 474.37109375 C-462.97493652 473.92890503 -462.97493652 473.92890503 -461.61035156 473.4777832 C-455.74374059 471.4615945 -450.2250425 469.01247845 -444.65625 466.3046875 C-435.90326584 462.07638295 -426.93848476 458.99915969 -417.6875 456.05859375 C-408.76795808 453.18809004 -399.86224848 450.30609429 -391.07421875 447.05078125 C-390.43999496 446.81873993 -389.80577118 446.58669861 -389.15232849 446.34762573 C-378.66478273 442.39803894 -369.57673056 436.20341741 -360.59301758 429.62963867 C-355.37727696 425.83576496 -350.30000928 423.20359746 -344.3125 420.80859375 C-340.62938903 419.12857822 -337.5417081 417.12076745 -334.25390625 414.78125 C-328.12424171 410.87012239 -321.66534408 408.23955376 -314.75 406.05859375 C-313.92983398 405.7963501 -313.10966797 405.53410645 -312.26464844 405.26391602 C-306.8475713 403.61171794 -301.63248857 402.63410852 -296 402.12109375 C-289.64400402 401.51030735 -286.45287185 400.44898915 -281.75 396.18359375 C-265.67523362 390.82533829 -246.90242917 398.55073503 -231.625 403.43359375 C-224.12963466 405.80158123 -216.53307064 406.87362819 -208.71484375 407.53515625 C-192.850585 408.95659968 -177.44822877 413.71149571 -165.69921875 424.98046875 C-160.61227373 429.55510853 -155.07473353 432.48901176 -149 435.55859375 C-134.1087851 443.39678983 -123.43077554 451.35870806 -113.75 465.18359375 C-107.52625606 473.9584565 -100.79953259 482.07341021 -93.75 490.18359375 C-84.11363842 501.2700552 -84.11363842 501.2700552 -80.75 507.43359375 C-78.03670462 512.23758698 -74.59995035 515.0398995 -70.2109375 518.30859375 C-66.7266146 520.96331596 -63.7691388 524.0233004 -60.75 527.18359375 C-59.96625 527.96734375 -59.1825 528.75109375 -58.375 529.55859375 C-57.50875 530.42484375 -56.6425 531.29109375 -55.75 532.18359375 C-55.10417969 532.79460937 -54.45835937 533.405625 -53.79296875 534.03515625 C-45.0053213 542.49961527 -37.98085302 551.60801917 -32.1875 562.30859375 C-22.43731402 580.21240703 -6.81412144 594.78018202 9.45507812 606.85058594 C11.32939175 608.24255443 13.18893305 609.65267276 15.046875 611.06640625 C18.39318653 613.60583534 21.75960201 616.11677953 25.13623047 618.61572266 C26.56275486 619.67383534 27.98619599 620.73611576 29.40673828 621.80224609 C64.59872495 648.19427532 110.16680143 668.96401289 155.25 663.18359375 C159.79394231 661.78012635 163.36686036 659.41631041 167.12109375 656.55859375 C170.25132951 654.18258459 173.23598635 652.65781249 176.8125 651.05859375 C185.29323671 646.86917775 188.56564543 640.80537918 193.00439453 632.73168945 C196.14370726 627.12196428 199.92822071 622.19376419 203.9140625 617.16796875 C206.92448311 613.32187955 209.71289388 609.35781902 212.25 605.18359375 C212.59981934 604.63227783 212.94963867 604.08096191 213.31005859 603.51293945 C214.61591665 600.27678577 214.4738626 597.49483072 214.4453125 594.01171875 C214.4424826 593.32930115 214.43965271 592.64688354 214.43673706 591.94378662 C214.42558098 589.77354068 214.40048557 587.60371404 214.375 585.43359375 C214.36496426 583.95833931 214.35583944 582.48307838 214.34765625 581.0078125 C214.32565687 577.39960433 214.29115883 573.79164 214.25 570.18359375 C212.57550781 569.30960938 212.57550781 569.30960938 210.8671875 568.41796875 C205.65260663 565.68985541 200.44974166 562.93986795 195.25 560.18359375 C194.32026367 559.69181641 193.39052734 559.20003906 192.43261719 558.69335938 C179.22471766 551.68396421 166.43306579 544.44344462 154.52734375 535.36328125 C146.15207814 528.98980806 137.97256814 524.22024719 128.25 520.18359375 C127.50363281 519.83554687 126.75726562 519.4875 125.98828125 519.12890625 C121.85590708 517.30962203 118.26497576 517.04156766 113.75 516.87109375 C107.27517732 516.47437051 103.64009067 514.956307 99.25 510.18359375 C91.34281844 500.65732263 87.05090122 489.05094789 87.0625 476.74609375 C87.06185547 476.01527588 87.06121094 475.28445801 87.06054688 474.53149414 C87.11724432 468.35598255 87.63700098 462.26332261 88.25 456.12109375 C88.90464513 449.47379482 89.48017294 442.8655427 89.5625 436.18359375 C89.57925781 434.96671875 89.59601562 433.74984375 89.61328125 432.49609375 C88.88467308 425.85244077 85.73056939 422.08420125 80.74755859 417.94628906 C75.85927559 414.49629852 70.47552294 412.06845907 65.0625 409.55859375 C63.91974609 409.01203125 62.77699219 408.46546875 61.59960938 407.90234375 C45.60073707 400.34154259 30.02448419 395.64874162 12.625 392.62109375 C11.3673584 392.40130859 10.1097168 392.18152344 8.81396484 391.95507812 C0.50405854 390.56644493 -7.71884228 389.68951402 -16.125 389.18359375 C-38.7834582 387.78742832 -60.45139647 381.07511115 -82.05908203 374.48461914 C-86.4553898 373.14800182 -90.85850226 371.86992198 -95.296875 370.6796875 C-115.64881135 365.20114689 -134.16395856 354.75393036 -146.75 337.18359375 C-153.82840401 324.86646994 -154.12448149 312.61306525 -154.0625 298.80859375 C-154.06034485 297.95433807 -154.0581897 297.1000824 -154.05596924 296.21994019 C-154.00614089 283.95482142 -153.63753007 272.15241865 -150.75 260.18359375 C-150.54068848 259.260625 -150.33137695 258.33765625 -150.11572266 257.38671875 C-147.75014252 247.04714132 -145.32267542 237.33164536 -140.13671875 228.0078125 C-136.69150565 220.99122358 -134.8042496 212.83600188 -134.3125 205.05859375 C-133.6283509 200.3455666 -132.50567401 199.02121411 -128.75 196.18359375 C-126.78247172 195.12112848 -124.78412421 194.11221567 -122.75 193.18359375 C-121.265 192.19359375 -121.265 192.19359375 -119.75 191.18359375 C-116.25723671 190.80394557 -114.41269367 190.74423417 -111.44775391 192.70996094 C-108.1070819 194.53478412 -106.22714341 194.39724398 -102.4609375 194.07421875 C-101.27242187 193.97882813 -100.08390625 193.8834375 -98.859375 193.78515625 C-97.62703125 193.66914063 -96.3946875 193.553125 -95.125 193.43359375 C-93.88492188 193.33304688 -92.64484375 193.2325 -91.3671875 193.12890625 C-84.95994326 192.66449725 -84.95994326 192.66449725 -78.75 191.18359375 C-77.38329836 191.10532296 -76.01346925 191.07521595 -74.64453125 191.078125 C-54.81834082 190.83350335 -40.49985809 183.31188986 -23.046875 174.40234375 C-21.99209961 173.86609375 -20.93732422 173.32984375 -19.85058594 172.77734375 C-17.85989077 171.75409509 -15.87781676 170.71379529 -13.90722656 169.65234375 C-5.262574 165.09409235 3.72490903 162.15286005 13 159.18359375 C16.07974574 158.18853917 19.15769781 157.18809486 22.234375 156.18359375 C22.98549057 155.938405 23.73660614 155.69321625 24.51048279 155.44059753 C29.71981931 153.72496673 34.88189431 151.90396459 40.01953125 149.984375 C40.98394135 149.62527039 40.98394135 149.62527039 41.96783447 149.25891113 C49.90764066 146.2486652 56.71249032 143.05503265 62.5625 136.80859375 C70.53490487 128.36805834 81.41570838 123.91081911 91.984375 119.5625 C94.98017807 118.29752574 97.85833479 116.91838592 100.75 115.43359375 C108.7211402 111.40932879 117.85879858 108.41920056 126.6875 111.30859375 C129.25 113.18359375 129.25 113.18359375 131.42578125 115.4765625 C134.70442393 118.61916192 138.2031619 120.91135258 142 123.37109375 C152.51459473 130.43417909 159.38641769 139.29395312 166.88208008 149.35229492 C174.57680169 159.66874001 183.19541732 170.5251489 196.5 173.55859375 C202.94240223 172.91435353 207.95582619 168.90467372 212.25 164.18359375 C214.01217403 161.48082695 214.01217403 161.48082695 214.25 158.18359375 C213.03610411 156.29898496 211.59607667 154.83902913 210.02734375 153.23828125 C207.35621007 150.1503333 205.77745948 146.60077901 204.03515625 142.9296875 C202.38021405 140.38390114 201.32761084 139.39147444 198.984375 137.625 C193.81733722 133.4024818 191.38354658 127.54569747 188.4375 121.68359375 C178.64161953 102.11149099 178.64161953 102.11149099 161.90625 89.0078125 C154.9878125 85.36059273 149.94065442 80.17509006 144.60351562 74.56518555 C141.81252983 71.64851642 139.32268512 69.23199329 135.94140625 66.98046875 C133.14448758 65.11315004 132.28349808 64.06077878 130.9375 61.05859375 C126.55830172 52.59030181 119.45838571 46.24442537 112.5625 39.80859375 C112.02818359 39.3086792 111.49386719 38.80876465 110.94335938 38.29370117 C103.87086122 31.82114144 99.00400234 29.4967739 89.3125 29.87109375 C77.16704726 30.68233582 66.91243482 34.25522854 56.03466797 39.35986328 C53.55385306 40.50490699 51.0358049 41.5420376 48.5 42.55859375 C47.76265625 42.85507813 47.0253125 43.1515625 46.265625 43.45703125 C37.1397066 46.74660649 23.70734889 47.02697458 14.625 43.62109375 C12.41015625 42.5 12.41015625 42.5 10.25 41.18359375 C8.97962891 40.45462891 8.97962891 40.45462891 7.68359375 39.7109375 C1.88679747 36.0566233 -1.46495285 32.06956804 -5.16796875 26.36328125 C-8.02979172 22.42032516 -11.10929729 21.4570442 -15.75 20.68359375 C-20.41730566 21.46147803 -23.04164947 24.36502706 -26.203125 27.73046875 Z " fill="#E4181E" transform="translate(1016.75,101.81640625)"/>
<path d="M0 0 C3.30152188 1.38203242 4.74371584 2.63766722 6.8125 5.5625 C8.39996355 10.15778921 8.70417177 14.1881596 8 19 C5.85222167 23.37510401 3.57924693 26.18960005 -1 28 C-4.33786268 27.77370423 -6.99828503 27.50085749 -10 26 C-10 29.63 -10 33.26 -10 37 C-11.65 37 -13.3 37 -15 37 C-15 25.12 -15 13.24 -15 1 C-13.68 1 -12.36 1 -11 1 C-10.67 1.66 -10.34 2.32 -10 3 C-9.46375 2.505 -8.9275 2.01 -8.375 1.5 C-5.30142595 -0.44120466 -3.58544099 -0.43903359 0 0 Z " fill="#A6A6A6" transform="translate(608,878)"/>
<path d="M0 0 C1.32 0 2.64 0 4 0 C4 11.88 4 23.76 4 36 C2.68 36 1.36 36 0 36 C-0.33 35.34 -0.66 34.68 -1 34 C-1.515625 34.515625 -2.03125 35.03125 -2.5625 35.5625 C-5 37 -5 37 -8.4375 36.9375 C-12.35985305 35.90530183 -14.22283533 34.93585979 -17 32 C-19.13391769 27.52893437 -19.79995186 22.88751075 -19 18 C-16.97898053 14.17449886 -14.87100717 11.04935674 -11 9 C-5.85509518 8.34320364 -4.7417387 9.15495678 0 12 C0 8.04 0 4.08 0 0 Z " fill="#ACACAC" transform="translate(506,869)"/>
<path d="M0 0 C2.84481149 0.82205586 4.71095989 2.1273162 6.421875 4.56640625 C8.16707736 9.05166063 7.98827122 13.95247095 7.23046875 18.64453125 C5.67936716 21.74222542 4.02082649 24.54323496 1.23046875 26.64453125 C-0.9609375 26.97265625 -0.9609375 26.97265625 -3.33203125 26.89453125 C-4.50958984 26.87132812 -4.50958984 26.87132812 -5.7109375 26.84765625 C-7.76953125 26.64453125 -7.76953125 26.64453125 -9.76953125 25.64453125 C-10.09953125 29.27453125 -10.42953125 32.90453125 -10.76953125 36.64453125 C-12.08953125 36.64453125 -13.40953125 36.64453125 -14.76953125 36.64453125 C-14.76953125 24.76453125 -14.76953125 12.88453125 -14.76953125 0.64453125 C-12.29453125 1.13953125 -12.29453125 1.13953125 -9.76953125 1.64453125 C-6.04387291 -0.83924098 -4.29269493 -0.63725161 0 0 Z " fill="#ACACAC" transform="translate(979.76953125,878.35546875)"/>
<path d="M0 0 C3.75212276 2.01502889 5.63644095 3.45466142 8 7 C8.30078125 9.9609375 8.30078125 9.9609375 8.3125 13.375 C8.32925781 14.49648438 8.34601562 15.61796875 8.36328125 16.7734375 C7.96292847 20.32925895 7.13849012 22.16044826 5 25 C0.94184834 27.61525329 -2.19144587 28.70124748 -7 28 C-11.85349893 25.52566721 -14.27243952 23.18268145 -16 18 C-16.71773476 13.61384315 -17.03944397 9.76101516 -14.72265625 5.8359375 C-10.38429184 0.680815 -6.88406383 -0.94687867 0 0 Z " fill="#A8A8A8" transform="translate(810,878)"/>
<path d="M0 0 C3.80945103 1.31599217 5.46446521 2.28595361 7.875 5.5 C9 8 9 8 9 11 C6.6875 11.3125 6.6875 11.3125 4 11 C3.5875 10.175 3.175 9.35 2.75 8.5 C2.1725 7.675 1.595 6.85 1 6 C-2.19375377 5.39442058 -2.19375377 5.39442058 -5.6875 5.6875 C-6.86699219 5.73261719 -8.04648437 5.77773438 -9.26171875 5.82421875 C-10.61716797 5.91123047 -10.61716797 5.91123047 -12 6 C-12.2502157 8.91634129 -12.2502157 8.91634129 -12 12 C-7.80147011 14.79901993 -3.31680703 15.52277196 1.5546875 16.70703125 C5.47167345 18.17701124 7.37684737 19.76999863 10 23 C10.83815208 27.60983642 10.40431761 29.38774762 7.8125 33.3125 C3.86145162 37.08794623 1.59019163 37.84358771 -3.8125 38.375 C-8.46922299 38.23388718 -12.27665955 36.79892489 -16 34 C-18.1503415 30.70728958 -19 28.92213215 -19 25 C-17.35 25 -15.7 25 -14 25 C-13.54625 25.969375 -13.0925 26.93875 -12.625 27.9375 C-11.34213779 31.07079582 -11.34213779 31.07079582 -9 32 C-6.92435324 32.19758231 -6.92435324 32.19758231 -4.625 32.1875 C-3.85414063 32.20167969 -3.08328125 32.21585938 -2.2890625 32.23046875 C0.21834888 31.97801607 1.83261902 31.25193467 4 30 C4 27.69 4 25.38 4 23 C2.90300781 22.76925781 1.80601562 22.53851562 0.67578125 22.30078125 C-0.77886273 21.97231325 -2.23327826 21.64283235 -3.6875 21.3125 C-4.40873047 21.16361328 -5.12996094 21.01472656 -5.87304688 20.86132812 C-10.91624357 19.68688506 -13.56238297 18.06861366 -17 14 C-17.33 13.67 -17.66 13.34 -18 13 C-17.83129322 8.61362368 -17.43717291 6.51563984 -14.5625 3.125 C-9.91235972 -0.73121389 -5.87224593 -0.49611909 0 0 Z " fill="#A6A6A6" transform="translate(577,868)"/>
<path d="M0 0 C2.375 1.5 2.375 1.5 4 3 C4.61875 2.690625 5.2375 2.38125 5.875 2.0625 C9.60302808 0.19848596 11.73647116 -0.50159163 16 0 C18.6796875 1.81640625 18.6796875 1.81640625 21 5 C21.61300388 8.78947856 21.47160829 12.48655762 21.3125 16.3125 C21.28994141 17.33923828 21.26738281 18.36597656 21.24414062 19.42382812 C21.18537575 21.9507179 21.10327849 24.47460255 21 27 C19.35 27 17.7 27 16 27 C15.97494385 26.36908447 15.9498877 25.73816895 15.92407227 25.08813477 C15.80845863 22.24603175 15.68557684 19.40428917 15.5625 16.5625 C15.52318359 15.56927734 15.48386719 14.57605469 15.44335938 13.55273438 C15.40146484 12.60849609 15.35957031 11.66425781 15.31640625 10.69140625 C15.27974854 9.81685791 15.24309082 8.94230957 15.20532227 8.04125977 C15.21818934 6.0072598 15.21818934 6.0072598 14 5 C11.58462162 4.58282721 11.58462162 4.58282721 9 5 C6.21197124 7.47899425 5.76719913 9.75910684 5.48828125 13.328125 C5.41553672 14.96818349 5.35737267 16.6089424 5.3125 18.25 C5.27833984 19.09046875 5.24417969 19.9309375 5.20898438 20.796875 C5.12676432 22.86412204 5.06169843 24.93203874 5 27 C3.68 27 2.36 27 1 27 C0.97494385 26.36908447 0.9498877 25.73816895 0.92407227 25.08813477 C0.80845863 22.24603175 0.68557684 19.40428917 0.5625 16.5625 C0.52318359 15.56927734 0.48386719 14.57605469 0.44335938 13.55273438 C0.38051758 12.13637695 0.38051758 12.13637695 0.31640625 10.69140625 C0.27974854 9.81685791 0.24309082 8.94230957 0.20532227 8.04125977 C0.21818934 6.0072598 0.21818934 6.0072598 -1 5 C-4.51745287 5.25248627 -4.51745287 5.25248627 -8 6 C-9.14654482 8.29308963 -9.19729117 9.79909656 -9.31640625 12.3515625 C-9.35830078 13.20234375 -9.40019531 14.053125 -9.44335938 14.9296875 C-9.48267578 15.81914063 -9.52199219 16.70859375 -9.5625 17.625 C-9.62727539 18.97078125 -9.62727539 18.97078125 -9.69335938 20.34375 C-9.79956861 22.56234283 -9.90161194 24.7810488 -10 27 C-11.65 27 -13.3 27 -15 27 C-15 18.42 -15 9.84 -15 1 C-13.68 1 -12.36 1 -11 1 C-10.67 1.66 -10.34 2.32 -10 3 C-9.46375 2.505 -8.9275 2.01 -8.375 1.5 C-5.31754465 -0.43102443 -3.561827 -0.44522837 0 0 Z " fill="#A8A8A8" transform="translate(937,878)"/>
<path d="M0 0 C2.0625 1.5625 2.0625 1.5625 3.0625 2.5625 C3.20709705 4.0140606 3.28947111 5.47195286 3.34375 6.9296875 C3.38113281 7.81527344 3.41851563 8.70085938 3.45703125 9.61328125 C3.50923828 11.01126953 3.50923828 11.01126953 3.5625 12.4375 C3.63144539 14.26838303 3.70420176 16.09912756 3.78125 17.9296875 C3.81154297 18.74550293 3.84183594 19.56131836 3.87304688 20.40185547 C3.9942238 22.74459314 3.9942238 22.74459314 5.0625 25.5625 C2.01863276 25.64476668 -0.00925348 25.53858217 -2.9375 24.5625 C-3.5975 24.8925 -4.2575 25.2225 -4.9375 25.5625 C-6.74593663 25.70966542 -8.56081566 25.7835887 -10.375 25.8125 C-11.82712891 25.85117187 -11.82712891 25.85117187 -13.30859375 25.890625 C-15.9375 25.5625 -15.9375 25.5625 -17.75390625 24.29296875 C-19.44722006 21.81726573 -19.47900167 19.43280031 -19.328125 16.49609375 C-18.9375 14.5625 -18.9375 14.5625 -17.1875 12.1875 C-12.32829376 9.75789688 -7.29317596 9.21167284 -1.9375 8.5625 C-1.9375 7.2425 -1.9375 5.9225 -1.9375 4.5625 C-4.34295638 3.35977181 -5.88746953 3.46178528 -8.5625 3.5 C-9.37976563 3.50902344 -10.19703125 3.51804687 -11.0390625 3.52734375 C-11.66554688 3.53894531 -12.29203125 3.55054688 -12.9375 3.5625 C-13.2675 4.8825 -13.5975 6.2025 -13.9375 7.5625 C-15.5875 7.5625 -17.2375 7.5625 -18.9375 7.5625 C-18.09111611 3.75377251 -17.54050851 1.99322036 -14.3125 -0.3125 C-9.19384133 -2.01871956 -5.01619851 -2.45473544 0 0 Z " fill="#AAAAAA" transform="translate(911.9375,879.4375)"/>
<path d="M0 0 C2.0625 1.5625 2.0625 1.5625 3.0625 2.5625 C3.20709705 4.0140606 3.28947111 5.47195286 3.34375 6.9296875 C3.38113281 7.81527344 3.41851563 8.70085938 3.45703125 9.61328125 C3.50923828 11.01126953 3.50923828 11.01126953 3.5625 12.4375 C3.63144539 14.26838303 3.70420176 16.09912756 3.78125 17.9296875 C3.81154297 18.74550293 3.84183594 19.56131836 3.87304688 20.40185547 C3.9942238 22.74459314 3.9942238 22.74459314 5.0625 25.5625 C2.01863276 25.64476668 -0.00925348 25.53858217 -2.9375 24.5625 C-3.5975 24.8925 -4.2575 25.2225 -4.9375 25.5625 C-6.74593663 25.70966542 -8.56081566 25.7835887 -10.375 25.8125 C-11.82712891 25.85117187 -11.82712891 25.85117187 -13.30859375 25.890625 C-15.9375 25.5625 -15.9375 25.5625 -17.75390625 24.29296875 C-19.44722006 21.81726573 -19.47900167 19.43280031 -19.328125 16.49609375 C-18.9375 14.5625 -18.9375 14.5625 -17.1875 12.1875 C-12.32829376 9.75789688 -7.29317596 9.21167284 -1.9375 8.5625 C-1.9375 7.2425 -1.9375 5.9225 -1.9375 4.5625 C-4.34295638 3.35977181 -5.88746953 3.46178528 -8.5625 3.5 C-9.37976563 3.50902344 -10.19703125 3.51804687 -11.0390625 3.52734375 C-11.66554688 3.53894531 -12.29203125 3.55054688 -12.9375 3.5625 C-13.2675 4.8825 -13.5975 6.2025 -13.9375 7.5625 C-15.5875 7.5625 -17.2375 7.5625 -18.9375 7.5625 C-18.09111611 3.75377251 -17.54050851 1.99322036 -14.3125 -0.3125 C-9.19384133 -2.01871956 -5.01619851 -2.45473544 0 0 Z " fill="#AAAAAA" transform="translate(731.9375,879.4375)"/>
<path d="M0 0 C2.0625 1.5625 2.0625 1.5625 3.0625 2.5625 C3.20709705 4.0140606 3.28947111 5.47195286 3.34375 6.9296875 C3.38113281 7.81527344 3.41851563 8.70085938 3.45703125 9.61328125 C3.50923828 11.01126953 3.50923828 11.01126953 3.5625 12.4375 C3.63144539 14.26838303 3.70420176 16.09912756 3.78125 17.9296875 C3.81154297 18.74550293 3.84183594 19.56131836 3.87304688 20.40185547 C3.9942238 22.74459314 3.9942238 22.74459314 5.0625 25.5625 C2.01863276 25.64476668 -0.00925348 25.53858217 -2.9375 24.5625 C-3.5975 24.8925 -4.2575 25.2225 -4.9375 25.5625 C-6.74593663 25.70966542 -8.56081566 25.7835887 -10.375 25.8125 C-11.82712891 25.85117187 -11.82712891 25.85117187 -13.30859375 25.890625 C-15.9375 25.5625 -15.9375 25.5625 -17.75390625 24.29296875 C-19.44722006 21.81726573 -19.47900167 19.43280031 -19.328125 16.49609375 C-18.9375 14.5625 -18.9375 14.5625 -17.1875 12.1875 C-12.32829376 9.75789688 -7.29317596 9.21167284 -1.9375 8.5625 C-1.9375 7.2425 -1.9375 5.9225 -1.9375 4.5625 C-4.34295638 3.35977181 -5.88746953 3.46178528 -8.5625 3.5 C-9.37976563 3.50902344 -10.19703125 3.51804687 -11.0390625 3.52734375 C-11.66554688 3.53894531 -12.29203125 3.55054688 -12.9375 3.5625 C-13.2675 4.8825 -13.5975 6.2025 -13.9375 7.5625 C-15.5875 7.5625 -17.2375 7.5625 -18.9375 7.5625 C-18.09111611 3.75377251 -17.54050851 1.99322036 -14.3125 -0.3125 C-9.19384133 -2.01871956 -5.01619851 -2.45473544 0 0 Z " fill="#AAAAAA" transform="translate(638.9375,879.4375)"/>
<path d="M0 0 C3.70390021 2.02666238 5.65363011 3.48044516 8 7 C8 9.64 8 12.28 8 15 C1.73 15 -4.54 15 -11 15 C-10.01 17.31 -9.02 19.62 -8 22 C-4.60581779 23.41349769 -4.60581779 23.41349769 -1 23 C1.14589423 21.10413616 1.14589423 21.10413616 3 19 C5.75 18.75 5.75 18.75 8 19 C7.69895795 21.80972581 6.95275592 23.05669289 5.125 25.25 C0.49269962 27.84408821 -3.8093693 27.91323878 -9 27 C-12.0625 24.75 -12.0625 24.75 -14 22 C-14.433125 21.401875 -14.86625 20.80375 -15.3125 20.1875 C-16.80309206 15.44470708 -16.46540352 11.34449905 -14.875 6.75 C-11.01924576 1.09489378 -6.79094631 -0.97013519 0 0 Z " fill="#A7A7A7" transform="translate(531,878)"/>
<path d="M0 0 C4.68683436 1.6801859 7.28627194 3.82503376 10 8 C10 8.99 10 9.98 10 11 C6.80814911 10.6453499 5.36354547 10.38778183 3.125 8 C0.14897952 5.19903955 -1.96179835 5.06962417 -6 5 C-9.83757976 6.25459338 -11.52627088 7.33677924 -13.875 10.625 C-15.88830323 16.66490969 -15.89646033 21.70795931 -13.125 27.5 C-11.64106423 30.32542877 -11.64106423 30.32542877 -9 32 C-5.94079426 32.42071592 -3.0532254 32.48514117 0 32 C2.75569447 29.81840855 4.43588747 28.12822506 6 25 C7.65 25 9.3 25 11 25 C10.49430263 29.42485195 9.10058108 31.81561943 6 35 C1.38362057 38.04261372 -2.61439325 38.77708153 -8 38 C-13.16064968 36.17859423 -15.82703909 33.40689015 -19 29 C-21.94608579 22.8101403 -22.02006242 16.18019459 -19.9375 9.6875 C-14.52051288 2.17361463 -9.18281446 -0.85169443 0 0 Z " fill="#A7A7A7" transform="translate(351,868)"/>
<path d="M0 0 C1.65 0 3.3 0 5 0 C5.33 3.63 5.66 7.26 6 11 C6.99 10.34 7.98 9.68 9 9 C13.17262337 8.53637518 15.28714371 8.5505906 18.875 10.8125 C21.93650945 13.96405384 22.12447679 16.45714433 22.09765625 20.66796875 C22.09443359 21.56064453 22.09121094 22.45332031 22.08789062 23.37304688 C22.07951172 24.30181641 22.07113281 25.23058594 22.0625 26.1875 C22.05798828 27.12787109 22.05347656 28.06824219 22.04882812 29.03710938 C22.03704626 31.35813712 22.02059558 33.67903644 22 36 C20.35 36 18.7 36 17 36 C16.98018066 35.40461426 16.96036133 34.80922852 16.93994141 34.19580078 C16.84483874 31.50507847 16.73510158 28.81514852 16.625 26.125 C16.5940625 25.18785156 16.563125 24.25070312 16.53125 23.28515625 C16.49257813 22.38925781 16.45390625 21.49335937 16.4140625 20.5703125 C16.3826416 19.74289551 16.3512207 18.91547852 16.31884766 18.06298828 C16.17400863 15.78013915 16.17400863 15.78013915 14 14 C9.65805064 14.09695116 9.65805064 14.09695116 6 16 C5.84344973 17.48638992 5.74933057 18.97949127 5.68359375 20.47265625 C5.64169922 21.37177734 5.59980469 22.27089844 5.55664062 23.19726562 C5.49766602 24.61555664 5.49766602 24.61555664 5.4375 26.0625 C5.37272461 27.4865918 5.37272461 27.4865918 5.30664062 28.93945312 C5.20020724 31.29281353 5.09818992 33.64628354 5 36 C3.35 36 1.7 36 0 36 C0 24.12 0 12.24 0 0 Z " fill="#A4A4A4" transform="translate(866,869)"/>
<path d="M0 0 C7.92 0 15.84 0 24 0 C24 1.32 24 2.64 24 4 C17.73 4 11.46 4 5 4 C5 7.63 5 11.26 5 15 C10.61 15 16.22 15 22 15 C22 16.65 22 18.3 22 20 C16.39 20 10.78 20 5 20 C5 25.28 5 30.56 5 36 C3.35 36 1.7 36 0 36 C0 24.12 0 12.24 0 0 Z " fill="#A9A9A9" transform="translate(667,869)"/>
<path d="M0 0 C2.91927604 1.3961755 4.72202996 2.72202996 7 5 C7 5.99 7 6.98 7 8 C4.625 8.1875 4.625 8.1875 2 8 C1.34 7.01 0.68 6.02 0 5 C-3.58357241 4.74984127 -3.58357241 4.74984127 -7 5 C-7.66 6.32 -8.32 7.64 -9 9 C-8.26394531 9.18175781 -7.52789063 9.36351562 -6.76953125 9.55078125 C4.43772242 12.43772242 4.43772242 12.43772242 8 16 C8.51781922 19.79734096 8.25914909 21.57425507 6.25 24.875 C1.48031091 27.99364287 -3.4465487 28.10763472 -9 27 C-11.97074905 24.57846506 -13.45323353 22.8273653 -14 19 C-11.6875 18.75 -11.6875 18.75 -9 19 C-8.525625 19.66 -8.05125 20.32 -7.5625 21 C-6.7890625 21.99 -6.7890625 21.99 -6 23 C-2.87376745 23.31900332 -0.82883747 23.41441874 2 22 C2 20.68 2 19.36 2 18 C0.75283203 17.61908203 0.75283203 17.61908203 -0.51953125 17.23046875 C-1.60621094 16.88628906 -2.69289063 16.54210937 -3.8125 16.1875 C-5.43091797 15.68283203 -5.43091797 15.68283203 -7.08203125 15.16796875 C-9.85385262 14.05849808 -11.26722758 13.38921522 -13 11 C-13.5 7.5625 -13.5 7.5625 -13 4 C-9.36940611 -0.4247863 -5.38740245 -0.9269822 0 0 Z " fill="#A6A6A6" transform="translate(1005,878)"/>
<path d="M0 0 C2.59026861 0.75370615 3.47521634 1.48618801 5.12109375 3.6171875 C5.46166992 6.0690918 5.46166992 6.0690918 5.4140625 8.94140625 C5.40439453 9.96943359 5.39472656 10.99746094 5.38476562 12.05664062 C5.35962891 13.12849609 5.33449219 14.20035156 5.30859375 15.3046875 C5.28829102 16.92987305 5.28829102 16.92987305 5.26757812 18.58789062 C5.23220018 21.26482155 5.18283564 23.94075588 5.12109375 26.6171875 C3.80109375 26.6171875 2.48109375 26.6171875 1.12109375 26.6171875 C1.10127441 26.02180176 1.08145508 25.42641602 1.06103516 24.81298828 C0.96593249 22.12226597 0.85619533 19.43233602 0.74609375 16.7421875 C0.71515625 15.80503906 0.68421875 14.86789062 0.65234375 13.90234375 C0.61367188 13.00644531 0.575 12.11054687 0.53515625 11.1875 C0.50373535 10.36008301 0.47231445 9.53266602 0.43994141 8.68017578 C0.29510238 6.39732665 0.29510238 6.39732665 -1.87890625 4.6171875 C-6.22085561 4.71413866 -6.22085561 4.71413866 -9.87890625 6.6171875 C-10.03545652 8.10357742 -10.12957568 9.59667877 -10.1953125 11.08984375 C-10.23720703 11.98896484 -10.27910156 12.88808594 -10.32226562 13.81445312 C-10.38124023 15.23274414 -10.38124023 15.23274414 -10.44140625 16.6796875 C-10.50618164 18.1037793 -10.50618164 18.1037793 -10.57226562 19.55664062 C-10.67869901 21.91000103 -10.78071633 24.26347104 -10.87890625 26.6171875 C-12.52890625 26.6171875 -14.17890625 26.6171875 -15.87890625 26.6171875 C-15.87890625 18.0371875 -15.87890625 9.4571875 -15.87890625 0.6171875 C-14.55890625 0.6171875 -13.23890625 0.6171875 -11.87890625 0.6171875 C-11.54890625 1.2771875 -11.21890625 1.9371875 -10.87890625 2.6171875 C-10.16734375 1.84375 -10.16734375 1.84375 -9.44140625 1.0546875 C-6.04543398 -0.85037012 -3.78057901 -0.42077271 0 0 Z " fill="#AEAEAE" transform="translate(757.87890625,878.3828125)"/>
<path d="M0 0 C2.1875 1.625 2.1875 1.625 4.1875 3.625 C4.1875 4.945 4.1875 6.265 4.1875 7.625 C2.8675 7.625 1.5475 7.625 0.1875 7.625 C-0.493125 6.635 -0.493125 6.635 -1.1875 5.625 C-2.70613675 3.29481663 -2.70613675 3.29481663 -5.8125 3.1875 C-8.73835343 3.38065784 -8.73835343 3.38065784 -10.4765625 4.8125 C-12.30512143 7.29335188 -12.21238086 9.00630159 -12.1875 12.0625 C-12.19523438 13.00996094 -12.20296875 13.95742188 -12.2109375 14.93359375 C-11.76040217 17.97691571 -10.83867742 19.35761099 -8.8125 21.625 C-5.37456661 21.44370185 -5.37456661 21.44370185 -1.8125 20.625 C-0.29955712 18.68902968 -0.29955712 18.68902968 0.1875 16.625 C1.8375 16.625 3.4875 16.625 5.1875 16.625 C2.92786851 22.92818258 2.92786851 22.92818258 0.0625 25.625 C-4.09833037 27.07224535 -7.62307425 27.02147525 -11.8125 25.625 C-14.53610009 23.41528672 -16.24351059 20.76297881 -17.8125 17.625 C-18.34459766 12.28657758 -18.45307432 7.92902629 -16.0625 3.0625 C-11.49598339 -1.88455966 -6.29709769 -3.0785811 0 0 Z " fill="#A5A5A5" transform="translate(786.8125,879.375)"/>
<path d="M0 0 C2.63877763 1.40289443 3.92992249 2.72291474 6 5 C6 6.32 6 7.64 6 9 C4.68 9 3.36 9 2 9 C1.319375 8.01 1.319375 8.01 0.625 7 C-0.89599894 4.67719799 -0.89599894 4.67719799 -4 4.5 C-6.98613777 4.75632368 -6.98613777 4.75632368 -8.875 6.4375 C-11.01450223 11.31081064 -10.68827538 16.12636146 -8.875 21.0625 C-7.08474591 23.27536511 -7.08474591 23.27536511 -4 23.625 C-3.01 23.41875 -2.02 23.2125 -1 23 C0.03013277 21.35178756 1.03114628 19.68496298 2 18 C4.6875 17.6875 4.6875 17.6875 7 18 C6.10732939 21.92775068 5.33981284 23.70652528 2.25 26.375 C-1.34334126 28.17167063 -3.05397137 28.65767144 -7 28 C-11.84973524 25.52758595 -14.24513429 23.16710458 -16 18 C-16.69609825 13.2132503 -16.49794885 9.96032992 -14.25 5.625 C-10.03181108 0.70377959 -6.70901445 -1.38807195 0 0 Z " fill="#A5A5A5" transform="translate(855,878)"/>
<path d="M0 0 C2.875 2 2.875 2 5 5 C5.71621062 10.6401586 5.10655925 14.10119502 2 19 C-0.87470493 20.43735246 -2.81894588 20.38172649 -6 20 C-8.93339092 17.76135956 -9.85474685 16.00195031 -10.3828125 12.359375 C-10.55439948 8.08113974 -10.6196223 5.02475995 -8.375 1.3125 C-5.22091596 -0.43054644 -3.55483933 -0.65292967 0 0 Z " fill="#050505" transform="translate(809,882)"/>
<path d="M0 0 C1.32 0 2.64 0 4 0 C4.02187378 0.83978394 4.02187378 0.83978394 4.04418945 1.6965332 C4.11871352 4.23588137 4.21535581 6.77392078 4.3125 9.3125 C4.33505859 10.19357422 4.35761719 11.07464844 4.38085938 11.98242188 C4.41630859 12.82998047 4.45175781 13.67753906 4.48828125 14.55078125 C4.51446533 15.33106689 4.54064941 16.11135254 4.56762695 16.9152832 C5.10495225 19.50603459 5.87819375 20.44758827 8 22 C11.08333333 22 11.08333333 22 14 21 C16.0140956 17.9788566 16.26836596 17.19339983 16.4140625 13.76953125 C16.45273437 12.96708984 16.49140625 12.16464844 16.53125 11.33789062 C16.57765625 10.08782227 16.57765625 10.08782227 16.625 8.8125 C16.66367187 7.96751953 16.70234375 7.12253906 16.7421875 6.25195312 C16.83636279 4.16832476 16.91926675 2.08419247 17 0 C18.32 0 19.64 0 21 0 C21 8.58 21 17.16 21 26 C19.68 26 18.36 26 17 26 C16.67 25.34 16.34 24.68 16 24 C15.34 24.66 14.68 25.32 14 26 C11.7578125 26.3359375 11.7578125 26.3359375 9.125 26.375 C8.26132812 26.40335938 7.39765625 26.43171875 6.5078125 26.4609375 C4 26 4 26 1.6953125 24.6796875 C-1.06632468 20.31451905 -0.41634408 15.79150512 -0.25 10.75 C-0.23195313 9.71875 -0.21390625 8.6875 -0.1953125 7.625 C-0.14822712 5.08238936 -0.0824805 2.54166838 0 0 Z " fill="#B0B0B0" transform="translate(421,879)"/>
<path d="M0 0 C2.1875 1.6875 2.1875 1.6875 4.1875 4.6875 C4.1875 5.6775 4.1875 6.6675 4.1875 7.6875 C2.5375 7.6875 0.8875 7.6875 -0.8125 7.6875 C-1.1425 6.6975 -1.4725 5.7075 -1.8125 4.6875 C-4.64133747 3.27308126 -6.68626745 3.36849668 -9.8125 3.6875 C-12.61465838 6.56201459 -13.24395509 8.72203638 -13.25 12.6875 C-13.140069 16.07537366 -12.99149511 17.40906316 -11.125 20.3125 C-8.30177154 21.99117638 -7.03255492 22.41201236 -3.8125 21.6875 C-2.45422029 20.04110035 -1.11995749 18.37454193 0.1875 16.6875 C1.5075 16.6875 2.8275 16.6875 4.1875 16.6875 C3.88929167 20.26599992 3.44504642 21.44976484 0.75 23.9375 C-3.08376937 26.55568396 -5.13235709 27.13751374 -9.8125 26.6875 C-13.7831423 24.54946184 -16.21905983 22.91961861 -17.8125 18.6875 C-18.1484375 15.62890625 -18.1484375 15.62890625 -18.1875 12.25 C-18.21585937 11.13753906 -18.24421875 10.02507813 -18.2734375 8.87890625 C-17.71941808 5.04302603 -16.46933564 3.44862265 -13.8125 0.6875 C-9.57579287 -2.38046033 -4.61958151 -2.15580471 0 0 Z " fill="#A8A8A8" transform="translate(412.8125,879.3125)"/>
<path d="M0 0 C2.75281844 2.86778534 3.45143401 4.99758435 3.5 8.9375 C3.38070427 12.78336718 3.10573976 13.8489432 0.8125 17.125 C-2 19 -2 19 -4.625 19.5 C-7.40907549 18.91387884 -8.32060971 18.26717689 -10 16 C-11.44656936 11.66029192 -11.51868186 7.5347614 -11 3 C-8.16400241 -1.87791585 -5.11933774 -1.48926189 0 0 Z " fill="#060606" transform="translate(503,883)"/>
<path d="M0 0 C3.37886909 2.84536344 3.94818455 4.53366097 4.4375 8.9375 C4.197896 12.89096599 3.43236268 15.7830042 1 19 C-2.4375 20.1875 -2.4375 20.1875 -6 20 C-8.4375 18.25 -8.4375 18.25 -10 15 C-10.70882338 10.05285127 -11.00875361 5.66832327 -8.375 1.3125 C-5.24102696 -0.41943247 -3.5265808 -0.6612339 0 0 Z " fill="#050505" transform="translate(979,882)"/>
<path d="M0 0 C3 0.5625 3 0.5625 5.375 1.875 C8.00926938 6.23167629 7.83966116 10.61945123 7 15.5625 C4.875 18.8125 4.875 18.8125 2 20.5625 C-1.125 20.75 -1.125 20.75 -4 19.5625 C-7.36011388 14.97034437 -7.60803743 11.03483686 -7 5.5625 C-5.02820539 1.92226379 -4.09693142 0.76817464 0 0 Z " fill="#050505" transform="translate(604,881.4375)"/>
<path d="M0 0 C0 2.97 0 5.94 0 9 C1.32 9 2.64 9 4 9 C4 9.99 4 10.98 4 12 C2.68 12 1.36 12 0 12 C0 18.27 0 24.54 0 31 C1.65 31 3.3 31 5 31 C5 32.32 5 33.64 5 35 C-1.48484329 35.3670666 -1.48484329 35.3670666 -3.7121582 33.7800293 C-5.37442495 31.48247728 -5.34679997 30.14919865 -5.29296875 27.33203125 C-5.28330078 26.43935547 -5.27363281 25.54667969 -5.26367188 24.62695312 C-5.23853516 23.69818359 -5.21339844 22.76941406 -5.1875 21.8125 C-5.16719727 20.40194336 -5.16719727 20.40194336 -5.14648438 18.96289062 C-5.11113096 16.64134962 -5.06178674 14.32096347 -5 12 C-5.99 12 -6.98 12 -8 12 C-8 11.01 -8 10.02 -8 9 C-7.01 9 -6.02 9 -5 9 C-5.061875 7.88625 -5.12375 6.7725 -5.1875 5.625 C-5.125625 4.42875 -5.06375 3.2325 -5 2 C-2 0 -2 0 0 0 Z " fill="#A5A5A5" transform="translate(466,870)"/>
<path d="M0 0 C0.928125 0.20625 1.85625 0.4125 2.8125 0.625 C2.4825 2.275 2.1525 3.925 1.8125 5.625 C0.843125 5.604375 -0.12625 5.58375 -1.125 5.5625 C-4.06215895 5.26881501 -4.06215895 5.26881501 -5.1875 6.625 C-5.34405027 8.11138992 -5.43816943 9.60449127 -5.50390625 11.09765625 C-5.54580078 11.99677734 -5.58769531 12.89589844 -5.63085938 13.82226562 C-5.68983398 15.24055664 -5.68983398 15.24055664 -5.75 16.6875 C-5.81477539 18.1115918 -5.81477539 18.1115918 -5.88085938 19.56445312 C-5.98729276 21.91781353 -6.08931008 24.27128354 -6.1875 26.625 C-7.8375 26.625 -9.4875 26.625 -11.1875 26.625 C-11.1875 18.045 -11.1875 9.465 -11.1875 0.625 C-8.7125 1.12 -8.7125 1.12 -6.1875 1.625 C-3.1875 -0.375 -3.1875 -0.375 0 0 Z " fill="#A6A6A6" transform="translate(708.1875,878.375)"/>
<path d="M0 0 C0.928125 0.20625 1.85625 0.4125 2.8125 0.625 C2.4825 2.275 2.1525 3.925 1.8125 5.625 C0.843125 5.604375 -0.12625 5.58375 -1.125 5.5625 C-4.06215895 5.26881501 -4.06215895 5.26881501 -5.1875 6.625 C-5.34405027 8.11138992 -5.43816943 9.60449127 -5.50390625 11.09765625 C-5.54580078 11.99677734 -5.58769531 12.89589844 -5.63085938 13.82226562 C-5.68983398 15.24055664 -5.68983398 15.24055664 -5.75 16.6875 C-5.81477539 18.1115918 -5.81477539 18.1115918 -5.88085938 19.56445312 C-5.98729276 21.91781353 -6.08931008 24.27128354 -6.1875 26.625 C-7.8375 26.625 -9.4875 26.625 -11.1875 26.625 C-11.1875 18.045 -11.1875 9.465 -11.1875 0.625 C-8.7125 1.12 -8.7125 1.12 -6.1875 1.625 C-3.1875 -0.375 -3.1875 -0.375 0 0 Z " fill="#A6A6A6" transform="translate(390.1875,878.375)"/>
<path d="M0 0 C3.625 0.375 3.625 0.375 7 1 C6.67 2.32 6.34 3.64 6 5 C4.865625 5.28875 3.73125 5.5775 2.5625 5.875 C1.386875 6.24625 0.21125 6.6175 -1 7 C-2.11823815 9.23647631 -2.19396061 10.64891529 -2.31640625 13.1328125 C-2.35830078 13.93847656 -2.40019531 14.74414062 -2.44335938 15.57421875 C-2.50233398 16.83685547 -2.50233398 16.83685547 -2.5625 18.125 C-2.62727539 19.39923828 -2.62727539 19.39923828 -2.69335938 20.69921875 C-2.79954236 22.79928223 -2.90028497 24.89961948 -3 27 C-4.32 27 -5.64 27 -7 27 C-7 18.42 -7 9.84 -7 1 C-4.525 1.495 -4.525 1.495 -2 2 C-1.34 1.34 -0.68 0.68 0 0 Z " fill="#ADADAD" transform="translate(831,878)"/>
<path d="M0 0 C1.32 0 2.64 0 4 0 C4.33 0.66 4.66 1.32 5 2 C6.32 1.34 7.64 0.68 9 0 C8.51917969 0.77601563 8.03835938 1.55203125 7.54296875 2.3515625 C5.53786534 7.09274372 5.4397134 11.27919482 5.3125 16.375 C5.27833984 17.30183594 5.24417969 18.22867188 5.20898438 19.18359375 C5.12700448 21.45560812 5.05769506 23.72726104 5 26 C3.35 26 1.7 26 0 26 C0 17.42 0 8.84 0 0 Z " fill="#A6A6A6" transform="translate(742,879)"/>
<path d="M0 0 C1.65 0 3.3 0 5 0 C5 8.58 5 17.16 5 26 C3.35 26 1.7 26 0 26 C0 17.42 0 8.84 0 0 Z " fill="#A2A2A2" transform="translate(449,879)"/>
<path d="M0 0 C-0.48355011 6.40703902 -0.48355011 6.40703902 -2.6875 8.9375 C-5.66455559 10.30533635 -7.75641537 10.34506219 -11 10 C-11.99 9.34 -12.98 8.68 -14 8 C-13.75 5.625 -13.75 5.625 -13 3 C-9.28892095 0.25105255 -4.49583229 0 0 0 Z " fill="#0F0F0F" transform="translate(911,892)"/>
<path d="M0 0 C-0.48355011 6.40703902 -0.48355011 6.40703902 -2.6875 8.9375 C-5.66455559 10.30533635 -7.75641537 10.34506219 -11 10 C-11.99 9.34 -12.98 8.68 -14 8 C-13.75 5.625 -13.75 5.625 -13 3 C-9.28892095 0.25105255 -4.49583229 0 0 0 Z " fill="#0F0F0F" transform="translate(731,892)"/>
<path d="M0 0 C-0.48355011 6.40703902 -0.48355011 6.40703902 -2.6875 8.9375 C-5.66455559 10.30533635 -7.75641537 10.34506219 -11 10 C-11.99 9.34 -12.98 8.68 -14 8 C-13.75 5.625 -13.75 5.625 -13 3 C-9.28892095 0.25105255 -4.49583229 0 0 0 Z " fill="#0F0F0F" transform="translate(638,892)"/>
<path d="M0 0 C1.32 0 2.64 0 4 0 C4 8.58 4 17.16 4 26 C2.68 26 1.36 26 0 26 C0 17.42 0 8.84 0 0 Z " fill="#B4B4B4" transform="translate(368,879)"/>
<path d="M0 0 C3.5625 0.3125 3.5625 0.3125 5.5 1.5625 C6.5625 3.3125 6.5625 3.3125 6.5625 7.3125 C2.2725 7.3125 -2.0175 7.3125 -6.4375 7.3125 C-5.06712963 0.46064815 -5.06712963 0.46064815 0 0 Z " fill="#040404" transform="translate(527.4375,881.6875)"/>
<path d="M0 0 C4.29 0 8.58 0 13 0 C13 1.32 13 2.64 13 4 C8.71 4 4.42 4 0 4 C0 2.68 0 1.36 0 0 Z " fill="#B4B4B4" transform="translate(648,890)"/>
<path d="M0 0 C1.65 0 3.3 0 5 0 C5 1.65 5 3.3 5 5 C3.35 5 1.7 5 0 5 C0 3.35 0 1.7 0 0 Z " fill="#9D9D9D" transform="translate(449,869)"/>
<path d="M0 0 C1.32 0 2.64 0 4 0 C4 1.65 4 3.3 4 5 C2.68 5 1.36 5 0 5 C0 3.35 0 1.7 0 0 Z " fill="#AFAFAF" transform="translate(368,869)"/>
</svg>
