<?xml version="1.0" encoding="UTF-8"?>
<svg version="1.1" xmlns="http://www.w3.org/2000/svg" width="1350" height="1080">
<path d="M0 0 C445.5 0 891 0 1350 0 C1350 356.4 1350 712.8 1350 1080 C904.5 1080 459 1080 0 1080 C0 723.6 0 367.2 0 0 Z " fill="#000000" transform="translate(0,0)"/>
<path d="M0 0 C4.88313449 3.25306056 9.51282551 6.8210966 14.109375 10.46484375 C24.95141195 18.89649025 36.87653577 25.00979264 48.99707031 31.39892578 C53.00722135 33.53702095 56.96154063 35.75263863 60.875 38.0625 C61.98617188 38.71347656 63.09734375 39.36445313 64.2421875 40.03515625 C67.11005442 42.07840987 68.84430556 44.24473874 71 47 C72.175625 47.515625 73.35125 48.03125 74.5625 48.5625 C80.02501603 51.04453708 83.46994486 55.64364616 87.3515625 60.046875 C90.65572315 63.73116032 94.2015052 66.84589271 98 70 C98.9075 70.79535156 99.815 71.59070313 100.75 72.41015625 C120.91580566 90.03337318 143.75703695 103.10496612 167.0625 116.0625 C177.09343297 121.66179813 186.08505613 127.89175623 194.72363281 135.43457031 C208.09024186 147.10010789 223.65809371 160.38051372 240.29296875 166.8984375 C247.1726318 169.59498885 251.47563504 173.66432123 255.203125 180.06640625 C256.41046911 182.99599123 255.80070842 184.98194519 255 188 C254.49984375 188.70125 253.9996875 189.4025 253.484375 190.125 C251.42816448 194.10755512 251.5113853 197.63993718 251.4375 202.0625 C251.31946718 207.37397682 250.98247957 212.46627072 250.04296875 217.703125 C248.81171127 224.67285246 248.30142274 231.62783471 247.875 238.6875 C247.83330688 239.36598999 247.79161377 240.04447998 247.74865723 240.74353027 C247.08656646 251.74368628 246.78815892 262.73074463 246.75 273.75 C246.74482361 274.43242767 246.73964722 275.11485535 246.73431396 275.81796265 C246.66444775 287.41873883 246.98638845 298.59906164 252.5625 309 C252.91256104 309.67369629 253.26262207 310.34739258 253.62329102 311.04150391 C260.44548745 323.78009507 270.21974838 334.40316085 280.5625 344.375 C285.11385257 348.86953957 288.50855452 353.51784788 291.91796875 358.90625 C294.18428667 362.27383685 296.66155343 365.3089454 299.3125 368.375 C320.8523154 393.34793523 320.8523154 393.34793523 321.125 401.9375 C319.85560851 408.00372663 317.20603927 414.52930715 312 418 C309.05752795 418.13644902 306.21182191 418.15960186 303.2734375 418.08984375 C301.50130503 418.06940459 299.72916948 418.0492309 297.95703125 418.02929688 C295.17255712 417.98599588 292.38828718 417.93775872 289.60400391 417.88354492 C286.91048888 417.83483803 284.21723736 417.80523845 281.5234375 417.77734375 C280.70434906 417.75558578 279.88526062 417.73382782 279.04135132 417.71141052 C271.90250833 417.65106447 264.4853268 418.93895305 259.0625 423.9375 C258.51722656 424.42089844 257.97195313 424.90429688 257.41015625 425.40234375 C253.05490871 430.33668238 253.4374141 435.9411672 253.63671875 442.23828125 C254.46589871 450.824306 259.22530548 455.96657803 265.609375 461.4140625 C273.3471636 467.47711015 281.71643434 472.72567934 290 478 C290.67144043 478.43296387 291.34288086 478.86592773 292.03466797 479.31201172 C301.45575845 485.32856423 311.31633118 488.95537936 322 492 C322.66032227 492.18852539 323.32064453 492.37705078 324.00097656 492.57128906 C339.13003764 496.63212948 358.70890923 497.84147963 373 491 C373.64195312 490.69964844 374.28390625 490.39929688 374.9453125 490.08984375 C387.46521569 484.97986993 387.46521569 484.97986993 396.5 476 C398 473 398 473 400.75 471.3125 C404.8623469 468.38640701 406.63571356 465.01617468 409.21484375 460.7421875 C411.25988772 457.60078516 413.53850581 455.21216862 416.26171875 452.6640625 C418.07592959 450.92731235 419.68565162 449.10009458 421.3125 447.1875 C424.00089426 444.05504061 426.84332147 441.17961302 429.8125 438.3125 C447.78049425 420.39854483 459.73009944 397.12355395 471.46044922 374.91113281 C476.90900849 364.6084654 482.25157388 354.80161025 490 346 C490.67417969 345.19433594 491.34835937 344.38867188 492.04296875 343.55859375 C496.17671824 338.7471804 500.55306309 334.57879764 505.4375 330.5625 C514.95844809 322.71297973 522.55642802 313.45059986 530.0859375 303.73828125 C581.17175152 237.93961349 581.17175152 237.93961349 599.33203125 232.69921875 C604.44015113 231.08549216 607.51906408 228.37379217 611.25 224.625 C611.88623291 224.0072168 612.52246582 223.38943359 613.17797852 222.75292969 C614.48939779 221.47456045 615.79419769 220.18936548 617.09228516 218.89746094 C618.90448146 217.09500513 620.73575303 215.31466159 622.57421875 213.5390625 C625.78220224 210.42105679 628.91193899 207.23655675 632 204 C632.79535156 203.17242187 633.59070312 202.34484375 634.41015625 201.4921875 C640.31615078 194.80240678 642.73399239 187.44936441 645 179 C645.24621094 178.11183594 645.49242187 177.22367188 645.74609375 176.30859375 C647.7595457 167.87986733 648.9196901 156.95559065 645.3046875 148.84765625 C642.92271932 145.47438994 639.69887031 142.99873473 636.54296875 140.37109375 C633.33638198 137.38123481 631.32521768 134.10137367 629.25390625 130.26171875 C623.70897569 124.69756832 616.57563377 123.79942343 609.01713562 123.73002625 C604.61354447 123.76438275 600.21412323 123.86662951 595.8125 124 C592.25655251 124.10710877 588.70149788 124.18664934 585.14453125 124.25 C584.34537796 124.28319336 583.54622467 124.31638672 582.72285461 124.35058594 C575.92501183 124.4680394 571.10823411 122.33781711 565.71484375 118.28125 C554.19516081 106.73624908 551.47156447 95.94629992 550.84765625 80.140625 C551 77 551 77 552.875 75.0625 C561.18623035 72.23668168 567.15206227 74.29750308 574.875 77.84375 C578.19225657 79.07113493 580.79097913 79.33392586 584.3125 79.4375 C589.47939936 79.64024397 593.55981562 80.80297913 598.25 82.875 C603.56718 85.22363832 608.43311142 86.58004312 614.1875 87.375 C624.44810535 88.87274315 633.5793016 92.80084376 643 97 C643.68819824 97.2995459 644.37639648 97.5990918 645.08544922 97.90771484 C653.75203143 101.71909334 660.33953817 106.30334001 667 113 C667.5878125 113.54011719 668.175625 114.08023438 668.78125 114.63671875 C674.93973129 120.4030326 679.94623595 127.27604612 685 134 C685.42667969 134.56589844 685.85335937 135.13179687 686.29296875 135.71484375 C700.31188946 154.50992672 704.70222468 175.67255068 704.46057129 198.75970459 C704.28522897 220.06101299 706.67044594 240.1891008 711 261 C711.36544922 262.77576416 711.36544922 262.77576416 711.73828125 264.58740234 C712.75107963 269.45689736 713.80076607 274.31447434 714.921875 279.16015625 C716.90938649 287.93937556 718.21552044 296.30688873 718.375 305.3125 C718.5951557 312.73399871 719.40421543 319.63313411 721 326.875 C723.64430795 339.23252343 723.53866002 351.72868581 723.58398438 364.31201172 C723.69013721 379.91236255 725.46672132 394.46592858 731.0625 409.125 C734.98977342 419.73224123 737.34891867 428.30302347 737.3125 439.6875 C737.32861328 440.70650391 737.34472656 441.72550781 737.36132812 442.77539062 C737.36490211 448.24001285 737.09218576 451.38222657 734 456 C733.87643031 459.32814363 734.1269387 462.5251444 734.3828125 465.84375 C734 469 734 469 732.0625 471.62109375 C728.21918495 474.60652598 724.31060233 476.59604821 719.875 478.5625 C718.55689331 479.15272949 718.55689331 479.15272949 717.2121582 479.75488281 C709.76656838 482.94632519 702.41985338 484.66119797 694.484375 486.109375 C685.99694704 487.69029506 677.88086044 490.70646312 670 494.1875 C666.04521076 495.83155314 662.44379709 496.37903096 658.1875 496.8125 C651.64247619 497.53752781 645.94113531 499.22613749 639.75 501.4375 C630.63123448 504.67559902 621.79848142 506.44549915 612.22509766 507.67260742 C609.83997216 508.0235459 607.49708344 508.48658335 605.13671875 508.9765625 C587.73146826 512.55128814 570.04693072 513.56142851 552.32629395 513.94854736 C549.67937595 514.00709152 547.03256574 514.06965754 544.38574219 514.13232422 C504.07034306 515.07653708 504.07034306 515.07653708 484.0625 515.125 C483.04091797 515.12959229 482.01933594 515.13418457 480.96679688 515.13891602 C480.06123047 515.13690186 479.15566406 515.1348877 478.22265625 515.1328125 C477.46734619 515.13168457 476.71203613 515.13055664 475.93383789 515.12939453 C474 515 474 515 471 514 C458.02575488 512.57872119 448.25154541 517.54597139 438 525 C436.29511105 526.23393969 434.58669518 527.46301926 432.875 528.6875 C432.10929688 529.24824219 431.34359375 529.80898438 430.5546875 530.38671875 C423.59736596 534.78025666 418.19019503 535.52139446 410.0625 535.4375 C409.04559082 535.43065186 408.02868164 535.42380371 406.98095703 535.41674805 C395.6942746 535.17897432 386.05476434 532.74667983 375.625 528.375 C370.72709209 526.41615587 366.05960031 525.40435353 360.8359375 524.87109375 C360.05742432 524.78890091 359.27891113 524.70670807 358.47680664 524.62202454 C350.17070598 523.81497516 341.88133014 523.66265676 333.54101562 523.68432617 C331.0008694 523.68749891 328.46187996 523.66384706 325.921875 523.63867188 C311.4036936 523.58211481 297.18882312 525.25148555 283.25 529.5 C282.44199951 529.74500244 281.63399902 529.99000488 280.80151367 530.24243164 C274.03823051 532.42319792 267.67705103 535.29069058 261.3125 538.4375 C260.4162793 538.87964844 259.52005859 539.32179688 258.59667969 539.77734375 C249.82766883 544.29481247 242.60060603 549.56091775 236.80078125 557.59375 C235 559 235 559 232.12109375 558.90234375 C217.16491188 554.57834123 207.57844177 541.39002825 200.3828125 528.4609375 C198.07085435 524.18969279 195.89491826 519.85696204 193.75 515.5 C192.50597537 512.99691903 191.25449015 510.49787861 190 508 C189.58234375 507.14921875 189.1646875 506.2984375 188.734375 505.421875 C184.45527563 497.89282675 176.96559031 493.3680275 170.04785156 488.45947266 C167.93289463 486.95217503 165.83178414 485.42899399 163.7421875 483.88671875 C163.11940918 483.42869873 162.49663086 482.97067871 161.85498047 482.4987793 C160 481 160 481 158.07421875 478.98828125 C155.85286979 476.85896558 153.81892772 475.66782426 151.0703125 474.30078125 C150.11713135 473.81826904 149.1639502 473.33575684 148.18188477 472.83862305 C147.17311279 472.33500244 146.16434082 471.83138184 145.125 471.3125 C138.38675589 467.8876662 131.81089166 464.4483614 125.5625 460.1875 C120.22108919 456.59641848 114.86780258 453.96703012 108.85375977 451.7331543 C104.7314464 450.10780964 101.66352819 448.02669912 98.25390625 445.18359375 C92.95085557 440.78526432 87.30676542 437.73904679 81.1875 434.625 C73.17190091 430.43028935 66.2257751 426.13750739 59.24609375 420.390625 C54.67662927 416.83060869 49.4337056 414.41723607 44.28344727 411.81738281 C38.82291037 409.03542626 33.71204633 405.97477127 28.625 402.5625 C-0.11628611 383.67527455 -32.8524183 374.08742751 -65.703125 364.82421875 C-79.93874687 360.80778279 -93.81196752 356.4229056 -107.56591797 350.94970703 C-111.76163511 349.31266193 -116.00144347 347.80598192 -120.25 346.3125 C-120.98114014 346.05130371 -121.71228027 345.79010742 -122.46557617 345.52099609 C-126.8844819 343.97522285 -131.32901102 342.61416262 -135.83511353 341.34306335 C-145.79003749 338.51593143 -155.31018876 334.93521866 -164.875 331 C-165.67004944 330.67562958 -166.46509888 330.35125916 -167.28424072 330.01705933 C-182.16401593 323.93720107 -196.65318691 317.25515477 -211 310 C-212.60399923 309.20799415 -214.20815118 308.41629747 -215.8125 307.625 C-217.16785667 306.93984899 -218.52214139 306.25257043 -219.875 305.5625 C-220.96554688 305.00691406 -222.05609375 304.45132812 -223.1796875 303.87890625 C-230.08540621 299.27828201 -233.04504409 292.50607913 -236 285 C-236.46237061 283.83863525 -236.46237061 283.83863525 -236.93408203 282.65380859 C-244.18020475 264.09769306 -244.18020475 264.09769306 -241.7421875 254.43359375 C-240.77161366 249.94341268 -240.73907747 245.57963787 -240.625 241 C-240.16821022 228.91932018 -237.61327194 217.7270745 -230 208 C-226.71358894 205.02527851 -223.60692656 203.19285958 -219.5 201.5625 C-218.45070312 201.1396875 -217.40140625 200.716875 -216.3203125 200.28125 C-214.11369361 199.42975471 -211.90004416 198.5962515 -209.6796875 197.78125 C-204.4697324 195.85984812 -199.79376977 193.99985638 -195.1875 190.875 C-190.37740823 187.80123404 -185.55825048 186.98422653 -180.03076172 186.10400391 C-164.4296138 183.5289145 -150.35324429 174.47880517 -138 165 C-136.91499613 164.19405408 -135.82902039 163.38941525 -134.7421875 162.5859375 C-124.42311166 154.89383522 -115.67465737 146.13254306 -107.515625 136.19140625 C-103.7200531 131.61019178 -99.53489512 127.83884145 -95 124 C-85.85337196 116.15377553 -76.80956033 108.22403064 -68 100 C-67.31164062 99.38898438 -66.62328125 98.77796875 -65.9140625 98.1484375 C-57.95955944 90.81917923 -53.94404418 81.67180375 -53 71 C-52.78923828 69.24429688 -52.78923828 69.24429688 -52.57421875 67.453125 C-51.84707576 56.64365613 -55.09523081 49.05985048 -59.93359375 39.49609375 C-61.82468514 35.66014543 -62.66476307 32.29954666 -63 28 C-63.165 26.700625 -63.33 25.40125 -63.5 24.0625 C-63.41703108 19.48162664 -61.15060042 17.28549827 -58.15771484 14.0222168 C-54.51651045 10.60966916 -50.42275303 8.25912663 -46.0625 5.875 C-45.14388184 5.36291992 -44.22526367 4.85083984 -43.27880859 4.32324219 C-27.89660612 -4.0631677 -16.12909646 -9.49847168 0 0 Z " fill="#000000" transform="translate(405,157)"/>
<path d="M0 0 C2.71542737 2.07166591 5.26964558 4.31296889 7.81738281 6.58569336 C18.32885371 15.86619074 30.56727937 23.51208808 43.43359375 29.046875 C51.55646033 32.74715119 57.3474926 38.50682505 63.7109375 44.65234375 C67.19309447 47.81706652 70.54317314 48.93865289 74.9453125 50.2578125 C77.74319205 51.2684534 79.25979291 52.60721525 81 55 C81.144375 55.70125 81.28875 56.4025 81.4375 57.125 C81.623125 57.74375 81.80875 58.3625 82 59 C82.72703125 59.26167969 83.4540625 59.52335937 84.203125 59.79296875 C87.74243546 61.3204086 89.65843066 63.4028397 92.3125 66.1875 C96.01594501 70.0033953 99.74759977 73.69558564 103.8046875 77.13671875 C105.49742228 78.57343492 107.16455232 80.04035491 108.8203125 81.51953125 C116.37380588 88.20210661 124.31988049 93.5455446 132.94824219 98.73632812 C134.9583932 99.97437449 136.92349078 101.26134992 138.8828125 102.578125 C147.37654683 108.27667914 156.08060116 113.28009274 165.125 118.0625 C182.11616244 127.06347373 197.11411144 137.58766633 211.875 149.875 C217.08952572 154.15513094 221.68008827 157.38831923 228.25 159.1875 C243.9317761 164.20248423 257.21463763 183.07369559 264.56713867 196.9597168 C266.66746391 201.9413285 266.39201892 206.9510868 266.328125 212.27734375 C266.32625183 213.36149063 266.32437866 214.44563751 266.32244873 215.56263733 C266.31574244 217.85469645 266.30185638 220.1467444 266.28125 222.4387207 C266.25038133 225.89480612 266.24029866 229.35043155 266.234375 232.80664062 C266.13308622 261.74521054 266.13308622 261.74521054 264 274 C260.71490534 306.04300574 260.71490534 306.04300574 272.5625 334.8125 C278.58881369 342.03058468 284.89427022 349.12273585 291.75 355.5625 C294.39692483 358.14743596 296.17968318 360.81836662 298.0625 364 C301.18013918 369.13244 304.87472315 373.30415367 309 377.625 C316.35480398 385.33653457 322.44049653 392.65508252 327.3828125 402.15234375 C329.69885308 406.23058913 332.49809735 409.88420591 335.36328125 413.58984375 C337.91939812 417.3538631 338.22575368 420.75841139 338.4375 425.25 C338.49808594 426.14203125 338.55867187 427.0340625 338.62109375 427.953125 C337.83446863 431.81204067 336.05959575 433.82592634 333.62866211 436.85839844 C330.99124184 440.32646179 329.08533128 444.1531104 327.0625 448 C317.88373202 464.92486199 317.88373202 464.92486199 309 468 C298.34544996 470.8263024 286.9470527 471.09897224 276 472 C281.34563292 475.65548643 286.70097576 479.11612926 292.4375 482.125 C293.08799316 482.4662793 293.73848633 482.80755859 294.40869141 483.15917969 C312.37147858 492.46332472 332.76705602 497.90538337 352.625 491.8125 C358.12672422 489.98983884 362.5537319 487.72245702 367 484 C367.99 483.67 368.98 483.34 370 483 C370.680625 481.8553125 370.680625 481.8553125 371.375 480.6875 C373 478 373 478 375.375 476.3125 C378.03703699 473.96737218 378.72240298 472.71326142 380.125 469.5625 C384.42543449 460.4089106 391.83688387 453.00319436 399.0625 446.0625 C407.60337219 437.69758873 413.90913434 427.49838669 419.91796875 417.23046875 C421.62475445 414.58222902 423.3844992 412.25362696 425.36328125 409.81640625 C429.31609712 404.80565401 432.147663 399.43955977 435 393.75 C436.05069856 391.70568667 437.10147921 389.66141552 438.15234375 387.6171875 C439.76744353 384.44378729 441.36691386 381.26401251 442.94140625 378.0703125 C447.22620597 369.62461089 452.74009655 363.0149147 459 356 C460.00317815 354.75254916 461.00387802 353.50309258 462 352.25 C466.02459035 347.55069892 470.99482823 343.60666789 476 340 C476.66 340 477.32 340 478 340 C478.26683594 339.40316406 478.53367187 338.80632812 478.80859375 338.19140625 C480.02486932 335.95425676 481.20357259 334.65579933 483.0625 332.9375 C486.8942735 329.2163344 490.20133502 325.1809184 493.54296875 321.01953125 C495.24911978 318.92278284 496.96710597 316.86377275 498.73828125 314.82421875 C503.16292015 309.72252719 507.33324087 304.69135007 511 299 C515.02184545 292.77104425 519.65695736 287.27151672 524.52050781 281.69726562 C526.55562675 279.36258792 528.57388643 277.01365191 530.59033203 274.6628418 C531.6123896 273.47217562 532.63680284 272.28352744 533.66357422 271.09692383 C536.69065424 267.58623617 539.55034768 263.98977885 542.375 260.3125 C551.4358823 249.23084539 565.21241881 239.14294668 579.0703125 235.10546875 C582.72119716 233.72786827 585.12593722 231.54821411 587.875 228.875 C588.39457275 228.3792749 588.91414551 227.8835498 589.44946289 227.37280273 C590.49057664 226.37679371 591.52818224 225.377103 592.56201172 224.37353516 C593.80307826 223.18809536 595.08742796 222.04827734 596.37890625 220.91796875 C602.05919905 215.79816025 604.53609402 210.16251738 607 203 C607.54914063 201.53240234 607.54914063 201.53240234 608.109375 200.03515625 C609.81086374 194.23666173 610.19116344 187.39931075 608.171875 181.63671875 C606.77180254 179.11345382 605.61913996 177.30956998 603 176 C598.30449262 175.73913848 594.17548047 176.10532291 589.5625 177 C574.69691051 179.60898603 558.40338349 179.30874123 545.4609375 170.78515625 C527.58358518 157.81698163 517.27649544 145.45451699 513.73828125 123.60546875 C511.85669444 110.37922297 510.58750915 97.26672882 519 86 C521.09151741 83.42917651 523.1765971 81.72798429 526 80 C526.90363281 79.443125 527.80726563 78.88625 528.73828125 78.3125 C544.07678695 70.06065135 558.91287437 74.32527702 574.84375 78.296875 C581.0778375 79.8311532 587.34566722 81.02833785 593.66259766 82.16064453 C616.03336239 86.17145478 636.3729537 92.3958634 656 104 C657.12792969 104.65742188 658.25585938 105.31484375 659.41796875 105.9921875 C671.78912903 113.70615808 680.90614372 124.59004266 689.58056641 136.12304688 C691.06089145 138.08051831 692.56563437 140.01736857 694.07421875 141.953125 C712.00337467 165.12833343 720.97634667 190.89171074 721.2109375 220.28125 C721.23902767 222.27865373 721.26769225 224.27604944 721.296875 226.2734375 C721.33785616 229.37532126 721.37480355 232.47705906 721.40136719 235.57910156 C721.51734139 248.08431935 722.14135472 259.79986566 725 272 C725.21962402 273.00095703 725.43924805 274.00191406 725.66552734 275.03320312 C726.25509758 277.69445119 726.87317009 280.34731398 727.5 283 C729.57336443 291.96774783 731.43894951 300.9282349 733 310 C733.19464844 311.02609375 733.38929688 312.0521875 733.58984375 313.109375 C734.99967335 321.38311953 735.21662587 329.55853284 735.4375 337.9375 C735.67563373 346.80464999 736.2151028 355.02648806 738.23828125 363.671875 C740.31251383 372.73467582 741.01254839 381.88499982 741.28710938 391.15063477 C741.83328216 409.24564244 744.53214137 426.28896408 750.62548828 443.38110352 C752.79816279 449.61003563 753.69521871 455.41744555 754 462 C754.03891357 462.81130371 754.07782715 463.62260742 754.11791992 464.45849609 C754.20107402 466.74439984 754.23404694 469.02522945 754.25 471.3125 C754.270625 472.07111328 754.29125 472.82972656 754.3125 473.61132812 C754.34708655 478.59611445 753.396072 481.54305779 751 486 C750.6138061 488.75626374 750.6138061 488.75626374 750.625 491.5625 C749.81332792 503.69248836 744.9631298 512.89195584 736 521 C725.32069126 529.97440801 708.70096487 533.99093213 695.64282227 538.43530273 C693.43127799 539.18962222 691.22441526 539.95664273 689.01757812 540.72460938 C677.13477163 544.81923577 665.17530176 548.57171646 652.625 549.875 C646.90131667 550.55013175 641.89198807 551.89104569 636.5 553.8125 C622.69940467 558.70642428 608.38346847 562.05387212 593.73046875 562.625 C587.69722005 563.23148364 581.865938 564.72659295 575.98803711 566.18554688 C575.09995361 566.40275391 574.21187012 566.61996094 573.296875 566.84375 C572.51666992 567.04162109 571.73646484 567.23949219 570.93261719 567.44335938 C563.33409482 568.88563635 555.72868127 569.13802807 548.01489258 569.05004883 C547.07192322 569.04376968 546.12895386 569.03749054 545.15740967 569.03102112 C543.12718517 569.01726536 541.09697433 569.00135283 539.066782 568.98346901 C535.83998929 568.95657669 532.61326772 568.93886502 529.38639832 568.92399597 C520.21734974 568.88150676 511.04844057 568.83387999 501.87963867 568.75317383 C496.25302088 568.70431453 490.62659481 568.67556202 484.9997921 568.65942955 C482.87137891 568.64961309 480.74298496 568.63252891 478.6146946 568.60764503 C456.79555677 568.35822589 440.29422976 572.11755664 422.828125 586.203125 C416.11402732 590.46898816 409.21769369 591.55888815 401.375 591.5 C400.47620117 591.49500488 399.57740234 591.49000977 398.65136719 591.48486328 C383.84452634 591.11456457 369.24868789 587.31766618 355.48925781 581.96826172 C348.86516653 579.40360195 342.60876161 578.87347511 335.546875 578.8671875 C334.85329391 578.86568695 334.15971283 578.8641864 333.44511414 578.86264038 C331.21334898 578.86030321 328.98174883 578.86650277 326.75 578.875 C325.98744904 578.87721558 325.22489807 578.87943115 324.4392395 578.88171387 C282.85043627 578.76458844 282.85043627 578.76458844 247 598 C245.36139775 600.49654965 243.98243717 602.95224964 242.7421875 605.66796875 C239.78048401 609.63240145 235.67710487 611.51416177 230.84082031 612.3918457 C228.60617902 612.57137026 226.42872598 612.60641722 224.1875 612.5625 C223.39923828 612.55299316 222.61097656 612.54348633 221.79882812 612.53369141 C214.96644344 612.29127907 209.86653874 610.52746863 204 607 C203.19820312 606.60039063 202.39640625 606.20078125 201.5703125 605.7890625 C184.38658235 596.73054661 168.78387439 575.84473119 162 557.9375 C158.20954541 548.07615472 152.08848402 541.64966715 144 535 C143.401875 534.49339844 142.80375 533.98679687 142.1875 533.46484375 C138.97196988 530.93725156 135.86774152 529.50902582 132 528.1875 C121.96076049 524.74508317 112.91462579 519.42615421 104.25 513.375 C97.47004024 508.66543992 90.288898 504.92607314 82.9375 501.1875 C50.2542536 484.54050017 50.2542536 484.54050017 39.09765625 474.78125 C33.8515625 470.32646648 28.4013321 467.04353835 22.1875 464.125 C16.62022649 461.42693041 11.59458286 458.5142804 6.59765625 454.84375 C3.43887154 452.60172537 0.18722107 450.56848088 -3.125 448.5625 C-4.79949219 447.54349609 -4.79949219 447.54349609 -6.5078125 446.50390625 C-7.99916401 445.65851804 -9.49770656 444.82578748 -11 444 C-12.07507813 443.40638672 -13.15015625 442.81277344 -14.2578125 442.20117188 C-25.61697177 436.13040221 -37.49807896 432.23875941 -49.75 428.375 C-51.72432411 427.74072076 -53.69828442 427.10530797 -55.671875 426.46875 C-70.38473134 421.74170768 -85.17326434 417.27736472 -100.00994873 412.95645142 C-133.07171421 403.29649408 -165.50723413 391.86150711 -196.44921875 376.67578125 C-204.18590497 372.90027837 -212.11698096 369.27718198 -220.46484375 367.09375 C-224.30690743 365.90504522 -227.53743108 364.21898143 -230.9375 362.125 C-231.57357178 361.73715332 -232.20964355 361.34930664 -232.86499023 360.94970703 C-237.91867081 357.80325014 -242.7749929 354.41133469 -247.5625 350.875 C-248.21661865 350.39691895 -248.8707373 349.91883789 -249.54467773 349.42626953 C-256.3267349 344.29847911 -261.18805259 338.52922961 -264.875 330.875 C-265.2045166 330.20412354 -265.5340332 329.53324707 -265.87353516 328.84204102 C-279.39110869 300.58935363 -279.39110869 300.58935363 -279.1875 288.6875 C-279.18105469 287.84574219 -279.17460937 287.00398438 -279.16796875 286.13671875 C-279 284 -279 284 -278 282 C-277.80269642 280.41485543 -277.65561728 278.82329678 -277.53515625 277.23046875 C-277.45861816 276.26544434 -277.38208008 275.30041992 -277.30322266 274.30615234 C-277.22378418 273.27699707 -277.1443457 272.2478418 -277.0625 271.1875 C-273.74150949 231.29264362 -273.74150949 231.29264362 -259.203125 217.765625 C-240.99787073 203.17559853 -218.31985561 193.34696936 -196.0625 186.9375 C-178.31605284 181.59765994 -160.29668678 169.79259241 -149 155 C-144.51819653 149.42863528 -139.55342233 144.83217397 -134.05566406 140.28662109 C-127.2372404 134.60982322 -120.67922474 128.48946785 -115.1875 121.5 C-111.76651473 117.33444735 -107.38762939 114.22840803 -103.11206055 110.99414062 C-96.6736209 106.28863699 -96.6736209 106.28863699 -92 100 C-91.27999196 93.56549776 -90.74949909 87.74745129 -94.875 82.4375 C-95.40867187 81.85871094 -95.94234375 81.27992188 -96.4921875 80.68359375 C-103.17500845 73.22168746 -102.4668736 59.96206332 -102.3125 50.57421875 C-101.25623691 38.49320967 -94.32671479 27.32710667 -85.625 19.140625 C-64.57945102 1.9784809 -24.82635272 -16.7014929 0 0 Z M-37.3125 23.375 C-38.33259155 23.76776123 -38.33259155 23.76776123 -39.37329102 24.16845703 C-59.43533002 32.15665662 -59.43533002 32.15665662 -74 47 C-74.45076186 55.5644754 -72.84933861 62.73874783 -68.97802734 70.37866211 C-64.13096818 79.97515263 -62.84427352 87.29797276 -64 98 C-64.08765625 99.00804687 -64.1753125 100.01609375 -64.265625 101.0546875 C-66.60898419 119.03742214 -81.80036156 131.15703866 -95.2421875 141.75 C-99.12938448 144.92142417 -102.77022636 148.33555562 -106.43261719 151.76147461 C-109.18912635 154.33750793 -111.96033028 156.85160586 -114.875 159.25 C-118.67983388 162.45799719 -121.78207883 166.21894263 -125 170 C-141.42288824 188.95877539 -168.00680808 211.30417929 -194 213.625 C-200.07110617 214.49033866 -204.30714933 216.5963891 -209.47314453 219.82788086 C-214.094835 222.65536552 -218.73675851 224.49638361 -223.875 226.1875 C-234.34306777 229.70003331 -240.50803243 233.03182062 -246 243 C-249.99450463 251.13167015 -251.26387969 258.76354135 -251.5 267.6875 C-251.65481389 273.40195378 -252.13279054 278.70712778 -253.28515625 284.31640625 C-254.49249289 291.77590444 -252.6276965 297.32182271 -249.9375 304.25 C-249.34291992 305.90902344 -249.34291992 305.90902344 -248.73632812 307.6015625 C-243.42639469 322.04732649 -238.34626888 328.52228624 -224.6875 335.5625 C-223.66841553 336.0891626 -222.64933105 336.6158252 -221.59936523 337.15844727 C-194.59944191 350.98020613 -166.49156668 363.50587936 -137.1953125 371.53125 C-130.66549182 373.32996827 -124.41629835 375.70999846 -118.11572266 378.17578125 C-104.05256793 383.65434234 -89.93106059 388.33813229 -75.35546875 392.26171875 C-40.27805992 401.76912759 -6.5211183 412.97984825 23.84619141 433.34472656 C29.72325284 437.27067477 35.72290973 440.69873299 42.09521484 443.75854492 C46.07201524 445.73070085 49.33486381 448.01274855 52.75 450.859375 C58.07393619 455.2380865 63.75561226 458.31264418 69.875 461.4375 C76.44898326 464.87897426 82.71389573 468.21264325 88.5 472.875 C93.3223258 476.75965134 98.13417356 478.96579821 103.80981445 481.27587891 C109.49363661 483.64061719 114.48398773 486.65109141 119.62329102 490.01831055 C126.12071348 494.21916876 132.94953132 497.69398216 139.90698242 501.06933594 C145.32321792 503.78439033 148.31585084 506.23079321 152 511 C154.04918614 512.57427873 156.15686357 514.07495651 158.3125 515.5 C159.47029139 516.28740866 160.62784429 517.07516811 161.78515625 517.86328125 C163.60861121 519.07522519 165.44293525 520.27205668 167.30859375 521.41796875 C177.65254004 528.18211874 182.84506847 541.4344735 188.11328125 552.17578125 C195.16198339 566.51254845 204.41331681 580.01542823 220 586 C223.40565965 585.9438347 224.5725839 585.43591344 226.96484375 582.99609375 C227.61582031 582.15175781 228.26679687 581.30742188 228.9375 580.4375 C234.3503195 574.16861679 240.71680548 570.64613451 248 567 C248.66596191 566.65694824 249.33192383 566.31389648 250.01806641 565.96044922 C271.39363946 555.00211782 293.50170189 550.42636646 317.45898438 550.66381836 C319.99902151 550.68749088 322.53800439 550.684334 325.078125 550.67773438 C339.78676126 550.69991065 354.76166407 550.923669 368.5625 556.5 C382.21476612 561.77549168 399.45597742 565.89862506 413.84765625 560.90234375 C419.30395212 558.26220059 423.84630763 554.64960087 428.5 550.80859375 C435.9151522 545.44419458 444.79080916 540.85242845 454 540.875 C455.051875 540.87242187 456.10375 540.86984375 457.1875 540.8671875 C460 541 460 541 463 542 C464.40510627 542.09401671 465.8144097 542.13070952 467.22265625 542.1328125 C468.12822266 542.13482666 469.03378906 542.13684082 469.96679688 542.13891602 C470.98837891 542.13432373 472.00996094 542.12973145 473.0625 542.125 C474.16013672 542.12234131 475.25777344 542.11968262 476.38867188 542.11694336 C502.4014151 541.98167435 528.4426249 541.47658342 554.4375 540.5 C555.39205078 540.46463135 556.34660156 540.4292627 557.33007812 540.39282227 C568.0109969 539.94582777 578.44915735 538.70002739 589 537 C590.68802734 536.74404053 590.68802734 536.74404053 592.41015625 536.48291016 C605.99542349 534.42099741 619.01747942 532.08565287 631.95117188 527.37402344 C636.84865461 525.61610115 641.27810378 524.53619253 646.5 524.0625 C654.01859886 523.33462684 660.44787932 520.75600928 667.43115234 517.96655273 C674.66641214 515.07894081 681.79634747 512.77426327 689.52685547 511.62402344 C696.76521165 510.53520002 702.893911 508.22047613 709.5 505.125 C710.47453125 504.69058594 711.4490625 504.25617188 712.453125 503.80859375 C718.668009 501.06135217 718.668009 501.06135217 723 496 C723.20292791 492.68973853 722.99656711 489.50077944 722.8125 486.19140625 C723 483 723 483 724.46875 480.765625 C726.87633684 476.41722836 726.53056812 472.07839942 726.5 467.1875 C726.49572998 466.16011719 726.49145996 465.13273437 726.48706055 464.07421875 C726.28483157 454.92746648 724.29438292 447.45588205 721 439 C714.91859624 422.2983022 712.63881738 406.53521135 712.57495117 388.80413818 C712.51284141 376.06341689 712.18282089 363.78743117 709.43286133 351.29956055 C708.16720421 345.46705241 707.79713358 340.02097033 707.75 334.0625 C707.5734749 323.45236079 705.45756367 313.3958584 703.25 303.0625 C702.88676426 301.3472914 702.52372769 299.63204061 702.16088867 297.91674805 C701.61873239 295.35921411 701.0760928 292.80178513 700.53251648 290.24455261 C695.74094711 267.67944535 693.35265836 246.33470751 693.53930664 223.26904297 C693.60987277 188.47124254 679.05670257 164.93888237 656 140 C655.43925781 139.36191406 654.87851563 138.72382813 654.30078125 138.06640625 C641.75758676 124.42985825 618.80601767 116.33136273 600.83813477 113.98388672 C595.18143848 113.20667319 590.55246052 111.33386442 585.38696289 109.05200195 C580.21783521 106.86190419 575.67357973 106.50694352 570.125 106.34375 C566.59739718 105.95571369 564.02960208 104.91474075 560.8125 103.4375 C554.23429421 100.43554101 548.77240754 99.71738143 541.875 102.0625 C539.65733444 103.92774552 539.65733444 103.92774552 539.84765625 107.140625 C540.47156447 122.94629992 543.19516081 133.73624908 554.71484375 145.28125 C561.02306609 150.02589586 566.30982967 151.5754195 574.14453125 151.25 C574.99496506 151.23485352 575.84539886 151.21970703 576.72160339 151.20410156 C580.32199828 151.13940985 583.9204947 151.02702803 587.51977539 150.91796875 C608.43222382 150.33997218 608.43222382 150.33997218 616 155 C618.76171875 157.76953125 618.76171875 157.76953125 620.6875 160.8125 C623.32478635 164.71871407 625.67120388 167.82879104 629.375 170.75 C634.36254066 174.91290744 635.65640139 178.63360349 636.30859375 185.0234375 C636.94928557 201.99206337 632.15989279 218.49397978 620.73535156 231.14453125 C595.22388927 258.4218404 595.22388927 258.4218404 587.875 260.1875 C570.82771151 265.32738598 553.41904157 288.04472193 542.85546875 301.64453125 C540.88419294 304.14701401 538.78500428 306.47155296 536.625 308.8125 C531.51763714 314.41901176 526.90777501 320.38048195 522.26513672 326.37060547 C519.2248055 330.286308 516.12959239 334.15540711 513 338 C512.58782227 338.50917969 512.17564453 339.01835937 511.75097656 339.54296875 C505.09361263 347.73215857 498.13232384 354.96565414 489.94921875 361.68359375 C474.99444358 374.1808708 465.945805 391.02584712 457.25 408.125 C444.66723052 432.8430598 429.59065101 454.66525997 409.84375 474.12890625 C406.7366527 477.28208339 403.85867338 480.62223247 401 484 C400.278125 484.845625 399.55625 485.69125 398.8125 486.5625 C397.32686031 488.56042923 396.26161562 490.37277522 395.125 492.5625 C393.1194716 496.23403821 390.47033598 497.68644268 387 500 C386.41089844 501.11117188 385.82179688 502.22234375 385.21484375 503.3671875 C383.06253169 507.30103945 380.53031405 508.97220191 376.5625 511.125 C375.95212891 511.45773926 375.34175781 511.79047852 374.71289062 512.13330078 C368.69988841 515.32712765 362.43569178 517.79201 356 520 C355.10539063 520.36867188 354.21078125 520.73734375 353.2890625 521.1171875 C348.63225652 522.36711404 344.17534069 522.2971219 339.375 522.25 C337.89567993 522.23984863 337.89567993 522.23984863 336.38647461 522.22949219 C329.4133672 522.13059102 322.79478539 521.64976271 316 520 C314.80246094 519.72027344 313.60492187 519.44054687 312.37109375 519.15234375 C290.03385411 513.58493891 257.08177246 497.8470223 244.375 477.375 C241.89509895 471.51770989 242.08416283 464.1819009 243 458 C245.22382405 453.87428634 247.50822808 451.21394694 251.4375 448.6875 C252.17871094 448.19636719 252.91992188 447.70523437 253.68359375 447.19921875 C258.92530512 444.4855503 264.32263685 444.93455907 270.0625 445.078125 C271.84633612 445.10537461 273.63019164 445.13137834 275.4140625 445.15625 C278.21244586 445.19952904 281.00981574 445.25025265 283.80761719 445.32226562 C286.51773745 445.38894697 289.22675279 445.42365489 291.9375 445.453125 C292.77095947 445.48206848 293.60441895 445.51101196 294.46313477 445.54083252 C298.81562946 445.56084014 300.45838323 445.43206832 303.97900391 442.62353516 C307.71452647 437.77430522 309.85282432 432.69822075 310.1875 426.5625 C307.04705428 417.14116283 300.29917134 409.78787043 293.90625 402.3984375 C290.92646796 398.94277383 288.07026339 395.39904935 285.25 391.8125 C284.78263428 391.21961182 284.31526855 390.62672363 283.83374023 390.01586914 C281.32889525 386.80607581 279.0205757 383.54895116 276.8125 380.125 C273.52565914 375.28955143 269.48811934 371.42803502 265.3125 367.375 C248.23209202 350.6828727 236.25846452 333.26690904 235.734375 308.734375 C235.72604077 306.07192256 235.72980705 303.4121305 235.75 300.75 C235.75243713 300.04622223 235.75487427 299.34244446 235.75738525 298.61734009 C235.80147419 287.62208477 236.20065162 276.66146115 236.875 265.6875 C236.99246582 263.74278809 236.99246582 263.74278809 237.11230469 261.75878906 C237.57216926 254.9982513 238.37499205 248.43816926 239.57177734 241.77124023 C240.33987395 236.80050785 240.35799097 231.80476508 240.390625 226.78320312 C240.56169174 221.02870801 241.92759527 217.85244874 245 213 C245.24955884 207.13536718 241.6886576 203.21302559 238 199 C235.03591581 196.03591581 232.23488573 194.64256733 228.375 193.1875 C213.12143625 187.32762653 198.79538032 175.37654061 186.5625 164.6875 C171.50910149 151.54457071 154.37451743 141.9814276 137 132.25 C129.08126163 127.80971994 121.39909035 123.27369881 114 118 C113.10925781 117.38125 112.21851563 116.7625 111.30078125 116.125 C103.83025706 110.83915122 96.91059621 104.9849897 90 99 C89.24589844 98.34773438 88.49179687 97.69546875 87.71484375 97.0234375 C86.43866797 95.91217509 85.16629517 94.79652463 83.8984375 93.67578125 C82.51601168 92.45549179 81.12405964 91.24596886 79.7265625 90.04296875 C76.16745265 86.95091817 72.86081299 83.95761647 69.9375 80.25 C67.3489465 77.0629787 64.73108666 75.59805384 60.9296875 74.1171875 C59 73 59 73 57.23779297 70.64599609 C54.77519353 67.73418585 52.60834796 66.35337692 49.265625 64.546875 C47.57977295 63.62491333 47.57977295 63.62491333 45.85986328 62.68432617 C45.27013733 62.36837494 44.68041138 62.05242371 44.07281494 61.72689819 C42.22885859 60.73866972 40.39275357 59.73708097 38.55810547 58.73168945 C34.1744355 56.33282909 29.77861295 53.95687389 25.37792969 51.58935547 C17.74325361 47.47520497 10.66203319 43.2287554 3.87304688 37.81494141 C-0.24966899 34.53085252 -4.49842108 31.49953595 -8.875 28.5625 C-9.48158447 28.14943604 -10.08816895 27.73637207 -10.71313477 27.31079102 C-19.75103429 21.30660938 -26.92432163 19.31895271 -37.3125 23.375 Z " fill="#E4181E" transform="translate(416,130)"/>
<path d="M0 0 C6.02968736 4.72597117 6.02968736 4.72597117 6.6640625 9.40625 C6.81695546 14.57681199 6.86554712 18.75187472 3.3125 22.8125 C-0.66033669 26.39068404 -3.87107652 26.36666639 -9.05078125 26.2421875 C-11.6875 25.8125 -11.6875 25.8125 -14.8125 23.4375 C-17.61776968 19.51012245 -17.89620144 17.32390148 -18 12.5 C-18.03738281 11.36949219 -18.07476563 10.23898437 -18.11328125 9.07421875 C-17.60363135 5.17001999 -16.39245953 3.60829772 -13.6875 0.8125 C-9.51813823 -2.206693 -4.59909565 -2.03215854 0 0 Z " fill="#A9A9A9" transform="translate(735.6875,897.1875)"/>
<path d="M0 0 C3.80945103 1.31599217 5.46446521 2.28595361 7.875 5.5 C9 8 9 8 9 11 C6.6875 11.3125 6.6875 11.3125 4 11 C3.5875 10.175 3.175 9.35 2.75 8.5 C2.1725 7.675 1.595 6.85 1 6 C-2.19375377 5.39442058 -2.19375377 5.39442058 -5.6875 5.6875 C-6.86699219 5.73261719 -8.04648437 5.77773438 -9.26171875 5.82421875 C-10.61716797 5.91123047 -10.61716797 5.91123047 -12 6 C-12.2502157 8.91634129 -12.2502157 8.91634129 -12 12 C-7.80147011 14.79901993 -3.31680703 15.52277196 1.5546875 16.70703125 C5.47167345 18.17701124 7.37684737 19.76999863 10 23 C10.83815208 27.60983642 10.40431761 29.38774762 7.8125 33.3125 C3.86145162 37.08794623 1.59019163 37.84358771 -3.8125 38.375 C-8.46922299 38.23388718 -12.27665955 36.79892489 -16 34 C-18.1503415 30.70728958 -19 28.92213215 -19 25 C-17.35 25 -15.7 25 -14 25 C-13.54625 25.969375 -13.0925 26.93875 -12.625 27.9375 C-11.34213779 31.07079582 -11.34213779 31.07079582 -9 32 C-6.92435324 32.19758231 -6.92435324 32.19758231 -4.625 32.1875 C-3.85414063 32.20167969 -3.08328125 32.21585938 -2.2890625 32.23046875 C0.21834888 31.97801607 1.83261902 31.25193467 4 30 C4 27.69 4 25.38 4 23 C2.90300781 22.76925781 1.80601562 22.53851562 0.67578125 22.30078125 C-0.77886273 21.97231325 -2.23327826 21.64283235 -3.6875 21.3125 C-4.40873047 21.16361328 -5.12996094 21.01472656 -5.87304688 20.86132812 C-10.91624357 19.68688506 -13.56238297 18.06861366 -17 14 C-17.33 13.67 -17.66 13.34 -18 13 C-17.83129322 8.61362368 -17.43717291 6.51563984 -14.5625 3.125 C-9.91235972 -0.73121389 -5.87224593 -0.49611909 0 0 Z " fill="#A6A6A6" transform="translate(571,886)"/>
<path d="M0 0 C4.08998175 1.80720124 6.66247347 4.19069751 9 8 C9 10.31 9 12.62 9 15 C2.73 15 -3.54 15 -10 15 C-8.46687233 19.31608796 -8.46687233 19.31608796 -6 23 C-3.12635209 23.41746608 -3.12635209 23.41746608 0 23 C1.35368596 21.68733482 2.68799596 20.35432675 4 19 C6.75 18.75 6.75 18.75 9 19 C7.52937871 22.67655322 6.52292731 24.6513818 3.1875 26.875 C-0.27211749 28.09604147 -2.36993108 28.52938505 -6 28 C-9.88785685 25.86549035 -12.68517558 23.78487096 -15 20 C-15.88422781 15.14017427 -16.16575184 10.1033443 -13.72265625 5.6953125 C-9.47143942 0.68532103 -6.70068213 -0.45428353 0 0 Z " fill="#A7A7A7" transform="translate(789,896)"/>
<path d="M0 0 C3.08193978 1.6281946 5.26420667 3.03009062 7.375 5.8125 C8 8 8 8 8 15 C1.73 15 -4.54 15 -11 15 C-10.01 17.31 -9.02 19.62 -8 22 C-4.60581779 23.41349769 -4.60581779 23.41349769 -1 23 C1.14589423 21.10413616 1.14589423 21.10413616 3 19 C5.75 18.75 5.75 18.75 8 19 C6.71915974 22.94925745 5.56995402 24.85432815 2 27 C-3.03894868 27.83356677 -7.56049632 27.79319591 -12.0625 25.3125 C-15.77709665 20.87894916 -16.45795358 16.88617353 -16.31640625 11.21484375 C-15.66313647 6.64195532 -13.16233604 3.94243463 -9.6875 1.125 C-6.16108808 -0.35117243 -3.79611 -0.46618895 0 0 Z " fill="#A9A9A9" transform="translate(649,896)"/>
<path d="M0 0 C2.75329021 1.79562405 4.52627461 3.05254922 6 6 C6.08400529 7.59447464 6.10727467 9.19240545 6.09765625 10.7890625 C6.09443359 11.73007812 6.09121094 12.67109375 6.08789062 13.640625 C6.07951172 14.62546875 6.07113281 15.6103125 6.0625 16.625 C6.05798828 17.61757813 6.05347656 18.61015625 6.04882812 19.6328125 C6.03702145 22.0886016 6.020554 24.54427104 6 27 C4.35 27 2.7 27 1 27 C0.67 19.74 0.34 12.48 0 5 C-6.3951847 4.37022947 -6.3951847 4.37022947 -8.90551758 6.22192383 C-10.25894343 8.42067477 -10.42530179 9.87399331 -10.51171875 12.44921875 C-10.54716797 13.29677734 -10.58261719 14.14433594 -10.61914062 15.01757812 C-10.64169922 15.89865234 -10.66425781 16.77972656 -10.6875 17.6875 C-10.72166016 18.58017578 -10.75582031 19.47285156 -10.79101562 20.39257812 C-10.87345648 22.59492671 -10.94261551 24.79687938 -11 27 C-12.65 27 -14.3 27 -16 27 C-16 18.42 -16 9.84 -16 1 C-14.68 1 -13.36 1 -12 1 C-11.67 1.66 -11.34 2.32 -11 3 C-10.484375 2.505 -9.96875 2.01 -9.4375 1.5 C-6.06236872 -0.57700386 -3.90199054 -0.47919182 0 0 Z " fill="#A4A4A4" transform="translate(763,896)"/>
<path d="M0 0 C2.9375 1.1875 2.9375 1.1875 5 3 C5.8125 5.6875 5.8125 5.6875 6 8 C4.68 8 3.36 8 2 8 C1.34 7.01 0.68 6.02 0 5 C-3.58357241 4.74984127 -3.58357241 4.74984127 -7 5 C-7.33 6.32 -7.66 7.64 -8 9 C-7.18015625 9.24234375 -6.3603125 9.4846875 -5.515625 9.734375 C-4.43796875 10.06953125 -3.3603125 10.4046875 -2.25 10.75 C-1.18265625 11.07484375 -0.1153125 11.3996875 0.984375 11.734375 C4.17641818 13.07404079 5.86944638 14.29026676 8 17 C8 20.69824116 7.45783554 22.43533617 5.125 25.3125 C1.28051164 28.36547605 -2.23089756 28.40416122 -7 28 C-10.375 26.3125 -10.375 26.3125 -13 24 C-13.875 21.25 -13.875 21.25 -14 19 C-12.35 19 -10.7 19 -9 19 C-8.67 19.99 -8.34 20.98 -8 22 C-5.26094655 23.36952673 -3.02912668 23.12621361 0 23 C0.66 22.67 1.32 22.34 2 22 C2 20.68 2 19.36 2 18 C0.75283203 17.61908203 0.75283203 17.61908203 -0.51953125 17.23046875 C-1.60621094 16.88628906 -2.69289063 16.54210937 -3.8125 16.1875 C-5.43091797 15.68283203 -5.43091797 15.68283203 -7.08203125 15.16796875 C-9.85385262 14.05849808 -11.26722758 13.38921522 -13 11 C-13.5 7.5625 -13.5 7.5625 -13 4 C-9.35190683 -0.44611355 -5.40188849 -0.89485829 0 0 Z " fill="#A6A6A6" transform="translate(692,896)"/>
<path d="M0 0 C2.375 1.3125 2.375 1.3125 4 4 C4.89077665 9.41126005 4.9128261 13.56160735 1.9375 18.25 C-1 20 -1 20 -4.625 20.125 C-8 19 -8 19 -9.9375 17 C-11.39179256 12.89376218 -11.82439171 9.30083602 -11 5 C-7.90494929 0.53948574 -5.42331926 -1.03850794 0 0 Z " fill="#050505" transform="translate(733,900)"/>
<path d="M0 0 C1.65 0 3.3 0 5 0 C7.31 5.94 9.62 11.88 12 18 C13.77258046 12.45754446 13.77258046 12.45754446 15.4987793 6.90063477 C16.20147921 4.80968002 16.88953031 2.90898469 18 1 C20.70703125 -0.03515625 20.70703125 -0.03515625 23 0 C22.37658609 3.5382203 21.44678155 6.73293028 20.15234375 10.08203125 C19.79462891 11.01337891 19.43691406 11.94472656 19.06835938 12.90429688 C18.69517578 13.86400391 18.32199219 14.82371094 17.9375 15.8125 C17.56044922 16.79154297 17.18339844 17.77058594 16.79492188 18.77929688 C15.86684405 21.1876001 14.93509884 23.59441614 14 26 C12.35 26 10.7 26 9 26 C7.4946891 22.04366575 5.99665407 18.08461633 4.5 14.125 C4.07074219 12.99707031 3.64148438 11.86914062 3.19921875 10.70703125 C2.79316406 9.63066406 2.38710938 8.55429687 1.96875 7.4453125 C1.59169922 6.45031738 1.21464844 5.45532227 0.82617188 4.43017578 C0 2 0 2 0 0 Z " fill="#A9A9A9" transform="translate(607,897)"/>
<path d="M0 0 C0 2.97 0 5.94 0 9 C1.65 9 3.3 9 5 9 C5 9.99 5 10.98 5 12 C3.35 12 1.7 12 0 12 C0.33 17.94 0.66 23.88 1 30 C2.32 30.33 3.64 30.66 5 31 C5 32.32 5 33.64 5 35 C1.625 35.125 1.625 35.125 -2 35 C-4 33 -4 33 -4.22705078 30.84521484 C-4.21657715 29.97590332 -4.20610352 29.1065918 -4.1953125 28.2109375 C-4.18886719 27.26992188 -4.18242188 26.32890625 -4.17578125 25.359375 C-4.15902344 24.37453125 -4.14226563 23.3896875 -4.125 22.375 C-4.11597656 21.38242187 -4.10695313 20.38984375 -4.09765625 19.3671875 C-4.07404116 16.91121866 -4.04110799 14.45572832 -4 12 C-4.99 12 -5.98 12 -7 12 C-7 11.01 -7 10.02 -7 9 C-6.01 9 -5.02 9 -4 9 C-4.061875 7.88625 -4.12375 6.7725 -4.1875 5.625 C-4.125625 4.42875 -4.06375 3.2325 -4 2 C-1 0 -1 0 0 0 Z " fill="#B1B1B1" transform="translate(710,888)"/>
<path d="M0 0 C3.625 0.375 3.625 0.375 7 1 C6.67 2.32 6.34 3.64 6 5 C4.865625 5.28875 3.73125 5.5775 2.5625 5.875 C1.386875 6.24625 0.21125 6.6175 -1 7 C-2.11823815 9.23647631 -2.19396061 10.64891529 -2.31640625 13.1328125 C-2.35830078 13.93847656 -2.40019531 14.74414062 -2.44335938 15.57421875 C-2.50233398 16.83685547 -2.50233398 16.83685547 -2.5625 18.125 C-2.62727539 19.39923828 -2.62727539 19.39923828 -2.69335938 20.69921875 C-2.79954236 22.79928223 -2.90028497 24.89961948 -3 27 C-4.32 27 -5.64 27 -7 27 C-7 18.42 -7 9.84 -7 1 C-4.525 1.495 -4.525 1.495 -2 2 C-1.34 1.34 -0.68 0.68 0 0 Z " fill="#ADADAD" transform="translate(670,896)"/>
<path d="M0 0 C1.32 0 2.64 0 4 0 C4 11.88 4 23.76 4 36 C2.68 36 1.36 36 0 36 C0 24.12 0 12.24 0 0 Z " fill="#B4B4B4" transform="translate(598,887)"/>
<path d="M0 0 C1.32 0 2.64 0 4 0 C4 8.58 4 17.16 4 26 C2.68 26 1.36 26 0 26 C0 17.42 0 8.84 0 0 Z " fill="#B4B4B4" transform="translate(587,897)"/>
<path d="M0 0 C2.375 1.25 2.375 1.25 4 3 C4 4.32 4 5.64 4 7 C-0.62 7 -5.24 7 -10 7 C-8.43630432 0.74521729 -6.52508202 -0.79898964 0 0 Z " fill="#050505" transform="translate(648,900)"/>
<path d="M0 0 C2.375 1.8125 2.375 1.8125 4 4 C4 4.99 4 5.98 4 7 C-0.62 7 -5.24 7 -10 7 C-8.45570268 0.82281074 -6.50414829 -0.92916404 0 0 Z " fill="#030303" transform="translate(789,900)"/>
<path d="M0 0 C1.32 0 2.64 0 4 0 C4 1.65 4 3.3 4 5 C2.68 5 1.36 5 0 5 C0 3.35 0 1.7 0 0 Z " fill="#AFAFAF" transform="translate(587,887)"/>
</svg>
