<?xml version="1.0" encoding="UTF-8"?>
<svg version="1.1" xmlns="http://www.w3.org/2000/svg" width="1350" height="1080">
<path d="M0 0 C445.5 0 891 0 1350 0 C1350 356.4 1350 712.8 1350 1080 C904.5 1080 459 1080 0 1080 C0 723.6 0 367.2 0 0 Z " fill="#000000" transform="translate(0,0)"/>
<path d="M0 0 C1.24561203 -0.0033284 2.49122406 -0.0066568 3.77458191 -0.01008606 C6.40432367 -0.01512878 9.03407177 -0.01749521 11.66381836 -0.01733398 C15.61775426 -0.01721358 19.57150043 -0.03764221 23.52539062 -0.05664062 C41.80751702 -0.09709146 59.66777973 0.85927997 77.72265625 3.76171875 C80.84681347 4.22986654 80.84681347 4.22986654 83.98828125 4.19921875 C93.05629751 4.29198618 97.57292644 7.97945888 103.85546875 14.16796875 C104.76014893 15.04171143 104.76014893 15.04171143 105.68310547 15.93310547 C112.71044593 22.73517682 119.59793034 29.64419903 125.85546875 37.16796875 C126.61988281 38.04324219 127.38429688 38.91851562 128.171875 39.8203125 C132.80462378 45.20278856 137.0116584 50.640392 140.85546875 56.60546875 C141.22913574 57.18441895 141.60280273 57.76336914 141.98779297 58.35986328 C146.44573671 65.45420318 147.06453782 70.62086671 146.77734375 78.84179688 C146.70524103 82.22161209 146.71041402 84.75410227 147.83984375 87.9765625 C149.39692289 92.86938425 149.15180072 97.69095552 149.10546875 102.79296875 C149.09725098 103.86949707 149.0890332 104.94602539 149.08056641 106.05517578 C148.89053048 119.53955291 147.31646229 128.51379391 139.15234375 139.44921875 C131.61193824 149.63895593 126.05489483 160.5061976 126.12109375 173.3984375 C125.3918835 183.74678886 121.92148492 193.32119229 118.04296875 202.85546875 C117.32826416 204.64138428 117.32826416 204.64138428 116.59912109 206.46337891 C115.30352391 209.69527055 113.99393685 212.9212975 112.67950439 216.14556885 C111.84525536 218.1930351 111.01390956 220.24166106 110.18310547 222.29052734 C106.41534101 231.57323596 102.5943527 240.83301143 98.72973633 250.07580566 C97.87071658 252.13147997 97.01438907 254.18826132 96.15820312 256.24511719 C90.76122937 269.18320857 85.23024858 281.92722162 78.35546875 294.16796875 C73.97261602 301.97708535 70.28989925 309.51135783 67.85546875 318.16796875 C67.44820557 319.59979492 67.44820557 319.59979492 67.03271484 321.06054688 C62.7716877 336.16759309 62.7716877 336.16759309 59.35546875 351.48046875 C57.09227655 362.65843021 53.07336434 373.57511987 48.9140625 384.17578125 C46.03156177 391.55200763 43.60108766 398.17811214 42.91796875 406.10546875 C40.56643903 429.76046081 24.67518372 457.52114157 11.578125 477.14453125 C-6.68449502 505.17552942 -19.85292132 540.15219861 -29.20703125 571.98046875 C-32.04673229 581.61470562 -36.13636565 590.84730863 -39.94970703 600.12744141 C-42.5395774 606.4384098 -45.01696743 612.74440049 -47.234375 619.1953125 C-54.2110858 639.40965249 -54.2110858 639.40965249 -60.296875 648.375 C-62.84918484 652.23314279 -64.76808639 656.32663977 -66.72265625 660.51171875 C-68.31719047 663.49051895 -69.7680549 665.74916713 -72.14453125 668.16796875 C-75.1496582 668.68798828 -75.1496582 668.68798828 -78.6328125 668.55078125 C-79.89673828 668.52113281 -81.16066406 668.49148438 -82.46289062 668.4609375 C-83.78095703 668.40550781 -85.09902344 668.35007812 -86.45703125 668.29296875 C-97.72313574 667.63959758 -97.72313574 667.63959758 -108.14453125 671.16796875 C-110.51953125 671.04296875 -110.51953125 671.04296875 -112.14453125 670.16796875 C-118.46386477 651.20996818 -110.90952812 628.52384031 -103.14453125 611.16796875 C-102.28223615 609.51544356 -101.40845504 607.86882367 -100.51953125 606.23046875 C-96.66432451 598.80425321 -95.21376482 590.28312936 -93.51171875 582.140625 C-91.88128466 574.7830332 -89.08312251 568.25297334 -86.05664062 561.38769531 C-83.35343486 555.0860663 -81.91015872 549.19923359 -80.78125 542.42578125 C-80.20752934 539.49030253 -79.43730051 537.1861184 -78.20703125 534.48046875 C-74.73347623 526.57145117 -73.57521029 517.64405144 -72.14453125 509.16796875 C-71.87781616 507.59571533 -71.87781616 507.59571533 -71.60571289 505.99169922 C-71.05230399 501.40329782 -70.97152622 496.89815432 -70.93359375 492.28125 C-70.90551556 490.35350727 -70.87685103 488.42577301 -70.84765625 486.49804688 C-70.80656273 483.49455089 -70.76962589 480.49121133 -70.74316406 477.48754883 C-70.57780424 460.16895821 -70.1959109 445.99775357 -57.18359375 433.1953125 C-48.15735901 424.59337628 -38.44732175 416.80171728 -28.45703125 409.35546875 C-27.54848389 408.67085571 -27.54848389 408.67085571 -26.62158203 407.97241211 C-18.92474299 402.31505807 -11.00615227 398.38582796 -1.33203125 397.91796875 C4.69774475 397.37565658 9.21068248 394.99599865 13.85546875 391.16796875 C20.81178863 382.82690135 21.52539351 374.57488337 20.578125 364.1015625 C19.48012871 355.91364729 17.17575649 348.78914972 10.79296875 343.23046875 C5.65378842 339.62210809 1.35639182 338.57677702 -4.76953125 337.60546875 C-12.90466639 336.28790118 -12.90466639 336.28790118 -15.14453125 335.16796875 C-17.32892747 335.22849556 -17.32892747 335.22849556 -19.70703125 335.54296875 C-20.51269531 335.63320313 -21.31835938 335.7234375 -22.1484375 335.81640625 C-24.13779801 335.96998995 -24.13779801 335.96998995 -25.14453125 337.16796875 C-27.08125559 337.25110318 -29.01910247 337.30809214 -30.95703125 337.35546875 C-46.48699286 338.41895051 -61.00178245 344.76042964 -75.33959961 350.41479492 C-82.47092257 353.20828666 -89.63304159 355.68147611 -96.95703125 357.91796875 C-104.10908694 360.10347816 -110.72706869 362.59432343 -117.453125 365.8828125 C-127.49054843 370.67571861 -137.03384472 371.32825108 -148.0078125 371.37109375 C-149.7268 371.37964386 -149.7268 371.37964386 -151.48051453 371.3883667 C-153.90537603 371.39779263 -156.3302502 371.40434109 -158.75512695 371.40820312 C-162.40665098 371.41783585 -166.05759396 371.44885284 -169.70898438 371.48046875 C-182.87789146 371.53986206 -195.25442356 370.85772954 -208.14453125 368.16796875 C-209.85661714 367.88681995 -211.56992728 367.61285221 -213.28515625 367.3515625 C-223.23670274 365.61775805 -231.75520887 362.52259506 -240.61816406 357.60913086 C-249.46865201 353.06671286 -258.41530856 353.27775668 -268.14453125 353.16796875 C-269.05523376 353.15224823 -269.96593628 353.13652771 -270.90423584 353.12033081 C-276.72058814 353.02068702 -282.53513045 352.98218743 -288.35229492 352.98266602 C-291.33982265 352.980463 -294.32698931 352.96216381 -297.31445312 352.94335938 C-312.49562131 352.8964149 -327.02813146 353.46727632 -341.51953125 358.48046875 C-342.51919922 358.82021729 -343.51886719 359.15996582 -344.54882812 359.51000977 C-356.9540561 363.9158653 -368.55877228 369.96744585 -380.14453125 376.16796875 C-380.96518066 376.60318848 -381.78583008 377.0384082 -382.63134766 377.48681641 C-387.21002513 379.92857913 -391.71410072 382.466243 -396.14453125 385.16796875 C-396.73540527 385.52810059 -397.3262793 385.88823242 -397.93505859 386.25927734 C-404.9225651 390.59945043 -410.3903373 395.1567975 -415.31640625 401.80078125 C-419.8408821 407.65939741 -424.66206425 412.02266894 -432.14453125 413.16796875 C-436.95758449 413.43876396 -441.76362318 413.40466203 -446.58203125 413.35546875 C-448.01969247 413.3465104 -449.45735531 413.3378087 -450.89501953 413.3293457 C-454.80518429 413.30114433 -458.71491586 413.254107 -462.62481689 413.20117188 C-465.224944 413.16690912 -467.82509744 413.13793485 -470.42529297 413.109375 C-474.91289436 413.05740605 -479.39987932 412.9864132 -483.88699341 412.90249634 C-485.62493816 412.87144974 -487.36296463 412.84465052 -489.1010437 412.82235718 C-497.58111374 412.70646975 -505.16989472 412.44973347 -513.30126953 409.84741211 C-519.65005346 408.33026754 -526.39205421 408.66089168 -532.89453125 408.60546875 C-535.10267624 408.58150401 -537.31044737 408.55319043 -539.51837158 408.51368713 C-541.51046663 408.47864587 -543.50280696 408.45845775 -545.49511719 408.43920898 C-549.29160404 408.15703766 -552.49760791 407.22120645 -556.14453125 406.16796875 C-559.27426355 405.92823833 -559.27426355 405.92823833 -562.42578125 406.04296875 C-563.59012695 406.06045166 -564.75447266 406.07793457 -565.95410156 406.09594727 C-567.17194336 406.11971436 -568.38978516 406.14348145 -569.64453125 406.16796875 C-592.19643251 406.30533927 -608.24523971 403.01105457 -625.14453125 387.16796875 C-636.41018983 375.85318666 -641.80750435 366.45065716 -642.58203125 350.10546875 C-642.30410343 342.04556199 -639.127322 334.35902433 -635.95703125 327.04296875 C-634.47136517 323.49802033 -633.87546847 320.50260069 -633.64453125 316.66796875 C-632.92401804 305.53134067 -627.08122142 296.5857102 -619.69921875 288.484375 C-616.41326938 284.57208623 -614.65975772 280.03292982 -612.70703125 275.35546875 C-609.04701934 266.61247465 -604.43074618 259.22955859 -598.83203125 251.60546875 C-589.29214556 238.004257 -580.8949032 222.83158656 -578.76171875 206.1796875 C-575.31105984 179.9860494 -560.03683095 156.87337088 -539.64453125 140.66796875 C-538.87109375 140.08015625 -538.09765625 139.49234375 -537.30078125 138.88671875 C-535.06500461 137.2534207 -535.06500461 137.2534207 -533.515625 134.98828125 C-529.62805306 132.0037532 -525.47313232 132.48903059 -520.70703125 132.54296875 C-519.16764893 132.5577124 -519.16764893 132.5577124 -517.59716797 132.57275391 C-506.78201372 132.89705885 -497.25904191 135.49563981 -487.14453125 139.16796875 C-486.16758301 139.51649902 -485.19063477 139.8650293 -484.18408203 140.22412109 C-462.14673079 148.21314335 -435.68201969 158.94969177 -419.14453125 176.16796875 C-415.41865386 179.37636317 -411.41348327 181.94518074 -407.23046875 184.5078125 C-404.66231396 186.55175592 -403.49027514 188.16430214 -402.14453125 191.16796875 C-401.78125 194.796875 -401.78125 194.796875 -401.83203125 198.73046875 C-401.83589844 200.03113281 -401.83976563 201.33179688 -401.84375 202.671875 C-402.11436367 205.81731956 -402.47314368 207.55101531 -404.14453125 210.16796875 C-405.11390625 210.00296875 -406.08328125 209.83796875 -407.08203125 209.66796875 C-414.92105528 208.57340076 -422.33857618 209.2761578 -430.08203125 210.73046875 C-431.01644043 210.90465332 -431.95084961 211.07883789 -432.91357422 211.25830078 C-440.60029014 212.75367735 -448.1932955 214.56625053 -455.76953125 216.54296875 C-456.82261475 216.81052979 -457.87569824 217.07809082 -458.96069336 217.35375977 C-466.54781035 219.40525306 -473.23141596 222.45647118 -480.14453125 226.16796875 C-484.58365435 228.42788597 -488.31455835 229.37333055 -493.20703125 229.98046875 C-505.01382673 231.64778889 -516.45102807 236.92740439 -525.14453125 245.16796875 C-526.87497062 247.6210521 -528.2952681 250.09853892 -529.69921875 252.75 C-531.20935155 255.27641136 -532.78149121 256.88895118 -534.95703125 258.85546875 C-545.33976238 268.61803675 -550.8025198 281.85726363 -551.3828125 295.8671875 C-551.65252965 308.2030692 -551.32929769 320.11239855 -543.14453125 330.16796875 C-542.69851563 330.76609375 -542.2525 331.36421875 -541.79296875 331.98046875 C-535.17161608 340.33054897 -525.81538836 347.48126327 -515.14453125 349.16796875 C-510.86482623 349.40624894 -506.60108316 349.35385856 -502.31640625 349.29296875 C-500.4783139 349.28160889 -500.4783139 349.28160889 -498.60308838 349.27001953 C-493.38968169 349.23751503 -488.17659588 349.18134515 -482.96337891 349.12695312 C-479.14356976 349.09054205 -475.32381309 349.06650322 -471.50390625 349.04296875 C-470.34413269 349.02637207 -469.18435913 349.00977539 -467.98944092 348.99267578 C-461.40913471 348.95366798 -455.27565728 349.49943442 -448.80688477 350.70037842 C-445.44767724 351.29035753 -442.15313667 351.4879407 -438.74609375 351.58203125 C-437.4528418 351.62094482 -436.15958984 351.6598584 -434.82714844 351.69995117 C-433.47462379 351.73157968 -432.12208416 351.76257317 -430.76953125 351.79296875 C-429.35448578 351.82958734 -427.93944676 351.86645554 -426.52441406 351.90356445 C-422.39802516 352.00732569 -418.27148168 352.08964781 -414.14453125 352.16796875 C-413.01305664 352.19133301 -411.88158203 352.21469727 -410.71582031 352.23876953 C-391.53716804 352.70566375 -391.53716804 352.70566375 -373.46484375 347.02734375 C-370.72181828 346.01140839 -368.43891591 345.93331901 -365.51953125 345.85546875 C-360.39988581 345.58601373 -356.94961496 344.31405749 -352.39453125 341.98046875 C-335.14681915 333.1591895 -313.42151084 329.61632396 -294.14453125 328.73046875 C-288.6938338 328.4475406 -284.71870881 327.48567102 -279.80078125 325.20703125 C-275.37193524 323.4745709 -270.72784124 322.8469504 -266.05078125 322.07421875 C-262.97940408 321.47411952 -260.30289624 320.44501927 -257.4296875 319.2109375 C-251.76595872 316.8563295 -246.1110811 315.95075032 -240.08203125 314.98046875 C-220.5682746 311.51636405 -202.5477287 304.53729064 -185.14453125 295.16796875 C-181.4193292 293.19745885 -178.05747785 291.74829216 -173.95703125 290.79296875 C-169.97361515 289.77158001 -166.46431222 288.46951159 -162.76953125 286.66796875 C-158.91454305 284.8299364 -155.39373919 283.68425512 -151.20703125 282.85546875 C-137.99556338 280.06830568 -125.26688214 274.2506177 -113.67578125 267.41796875 C-111.14453125 266.16796875 -111.14453125 266.16796875 -107.14453125 266.16796875 C-105.28857422 267.61743164 -105.28857422 267.61743164 -103.38671875 269.640625 C-102.68353516 270.3725708 -101.98035156 271.1045166 -101.25585938 271.85864258 C-100.51787109 272.64134521 -99.77988281 273.42404785 -99.01953125 274.23046875 C-93.14760954 280.27330266 -87.54200245 285.99262657 -80.14453125 290.16796875 C-79.50644531 290.55855469 -78.86835937 290.94914062 -78.2109375 291.3515625 C-68.30153289 296.62498834 -51.65188807 299.12942845 -40.765625 296.28515625 C-29.25316785 291.79317911 -23.94575761 287.05200334 -18.14453125 276.16796875 C-17.79471191 275.6044873 -17.44489258 275.04100586 -17.08447266 274.46044922 C-15.08511997 269.58410592 -15.81337229 263.8639115 -15.82885742 258.64599609 C-15.83196199 256.46658616 -15.80875074 254.28861152 -15.78320312 252.109375 C-15.72254721 239.65492981 -16.25045052 227.0438808 -23.05175781 216.26708984 C-25.13267062 212.26984044 -25.1744325 207.90842592 -25.51953125 203.48046875 C-26.47308557 194.05283358 -28.18180817 185.05068031 -30.45703125 175.85546875 C-33.2268296 164.59816979 -35.44619813 153.35456511 -37.33203125 141.91796875 C-39.46866826 128.98463842 -41.62337526 116.09549499 -45.19140625 103.4609375 C-46.04366294 100.10271289 -46.38019407 96.84901491 -46.625 93.39453125 C-47.06363134 87.30338498 -48.14675457 81.50007096 -49.45703125 75.54296875 C-49.78707153 73.98437134 -49.78707153 73.98437134 -50.1237793 72.39428711 C-51.13558635 67.64831727 -52.18882192 62.91939903 -53.36328125 58.2109375 C-59.22021785 34.52203764 -59.22021785 34.52203764 -54.78125 25.3515625 C-53.04594221 23.07757824 -51.20231096 21.15000196 -49.14453125 19.16796875 C-48.24265359 17.98505273 -47.34655802 16.79770016 -46.45703125 15.60546875 C-38.56174852 6.52483526 -27.79052358 1.45091991 -16.04653931 0.36434937 C-10.70049865 0.00257961 -5.35641358 0.00508135 0 0 Z " fill="#000000" transform="translate(898.14453125,144.83203125)"/>
<path d="M0 0 C0.74688835 -0.00282738 1.4937767 -0.00565475 2.26329803 -0.00856781 C6.22371246 -0.02342101 10.18409183 -0.03273511 14.14453125 -0.03710938 C17.34972667 -0.04147019 20.55464931 -0.05528881 23.75976562 -0.078125 C78.11295997 -0.45718335 78.11295997 -0.45718335 97.734375 8.203125 C98.61996094 8.58339844 99.50554688 8.96367187 100.41796875 9.35546875 C106.22595028 12.18793265 109.14172612 15.96506241 112.734375 21.203125 C116.42315234 25.95254315 120.39719975 29.83861633 125.109375 33.578125 C136.45593252 42.65847541 145.73842502 54.00432485 150.671875 67.76953125 C151.89818609 70.57832466 153.47595983 72.80359595 155.296875 75.265625 C161.14164121 83.35067633 162.07306128 90.35349415 162.42578125 100.26171875 C162.6602859 103.25684771 163.05011476 105.71380441 163.7265625 108.59765625 C165.15010743 115.38999919 165.21627167 122.23058234 165.26977539 129.14208984 C165.28776105 130.6758939 165.32180038 132.20959826 165.37231445 133.74267578 C165.75732277 145.43840088 164.00198922 153.20561442 157.734375 163.203125 C157.22543701 164.0192627 156.71649902 164.83540039 156.19213867 165.67626953 C154.86151365 167.70764883 153.47757203 169.6788203 152.046875 171.640625 C144.96365851 181.20112868 144.96365851 181.20112868 141.609375 192.453125 C141.13636284 196.25652888 140.89786307 197.95789289 138.734375 201.203125 C138.26435741 202.52247865 137.84843402 203.86171489 137.47265625 205.2109375 C137.24529785 206.01861572 137.01793945 206.82629395 136.78369141 207.65844727 C136.54054199 208.53944092 136.29739258 209.42043457 136.046875 210.328125 C135.78052246 211.26261475 135.51416992 212.19710449 135.23974609 213.15991211 C133.85317505 218.05010157 132.53928817 222.9453274 131.34765625 227.88671875 C127.64145109 242.77922117 121.9527961 256.25422077 115.58081055 270.15161133 C111.48240581 279.11244184 107.83726576 287.99672966 104.90454102 297.41821289 C101.89861218 307.06503082 98.15451112 316.33488278 92.84765625 324.95703125 C89.60762335 330.27032201 87.01224704 335.77321499 84.484375 341.453125 C83.8346875 342.88398437 83.8346875 342.88398437 83.171875 344.34375 C80.02352814 351.34007636 77.58182804 357.25543631 77.359375 365.015625 C76.42859196 383.14010152 70.31050286 402.46715253 62.62109375 418.8046875 C60.49570003 423.44059255 59.54085232 428.09835042 58.546875 433.078125 C56.73091458 441.45283708 54.01816757 448.78864344 50.0324707 456.37060547 C47.79177143 460.68315396 46.17516395 464.85011297 44.82421875 469.52734375 C42.87492701 476.13298397 40.11268283 481.96229469 36.859375 488.015625 C36.29710205 489.08022949 35.7348291 490.14483398 35.15551758 491.24169922 C29.98980502 500.9285689 24.44812046 510.38702327 18.8828125 519.84765625 C17.83298647 521.63260854 16.78347082 523.41774344 15.734375 525.203125 C15.33379883 525.8842334 14.93322266 526.5653418 14.52050781 527.26708984 C3.26187431 546.63505246 -3.72050467 568.23470921 -10.95953369 589.3347168 C-15.65322547 602.98803313 -20.81364202 616.37057635 -26.47192383 629.65258789 C-29.37043462 636.4713859 -32.10786403 643.31389798 -34.58984375 650.296875 C-34.84000244 650.9968309 -35.09016113 651.6967868 -35.34790039 652.41795349 C-36.71432308 656.33285498 -37.78247493 660.19779087 -38.578125 664.265625 C-41.24406468 675.561196 -48.65835956 685.5332589 -55.078125 695.015625 C-55.53380859 695.69141602 -55.98949219 696.36720703 -56.45898438 697.06347656 C-58.73503643 700.34011998 -60.75549126 703.1480467 -64.265625 705.203125 C-65.07 705.30625 -65.874375 705.409375 -66.703125 705.515625 C-70.505438 706.53575776 -71.86545706 709.18752939 -74.265625 712.203125 C-77.94232443 714.82342678 -81.99166305 714.49212559 -86.328125 714.46875 C-87.50882568 714.47162018 -87.50882568 714.47162018 -88.71337891 714.47454834 C-90.38102538 714.4759081 -92.04868251 714.47222622 -93.71630859 714.46386719 C-96.22909372 714.45327893 -98.74114501 714.4637095 -101.25390625 714.4765625 C-127.53721912 714.50217499 -127.53721912 714.50217499 -137.515625 705.078125 C-145.33598934 692.23038359 -146.78117487 673.54736341 -143.80273438 658.93164062 C-142.91574153 655.90281222 -141.73836719 653.03535677 -140.49609375 650.13671875 C-139.33137692 647.35988592 -138.69991393 644.91107009 -138.203125 641.953125 C-136.93736966 634.84631521 -134.35525382 628.73902687 -130.328125 622.765625 C-126.09565177 615.9809066 -124.71717455 608.28656422 -122.85693359 600.60205078 C-121.98657601 597.07102945 -121.02764076 593.57096425 -120.015625 590.078125 C-119.82105713 589.40289795 -119.62648926 588.7276709 -119.42602539 588.03198242 C-118.13957345 583.72293545 -116.65659982 579.52246938 -115.0546875 575.3203125 C-110.9136884 564.4313 -107.32383802 554.19953548 -106.22607422 542.54199219 C-105.7585482 537.7555581 -104.78982759 533.67236426 -103.1875 529.125 C-100.87798497 521.95938028 -100.96894567 515.29554092 -101.25088501 507.88970947 C-101.75335777 493.66522369 -100.89226287 480.78938741 -96.265625 467.203125 C-95.88148438 466.03265625 -95.49734375 464.8621875 -95.1015625 463.65625 C-90.51484542 451.36260013 -81.60575247 441.9995909 -72.67041016 432.68847656 C-71.4371775 431.38451628 -70.24431174 430.04262392 -69.05859375 428.6953125 C-64.0583891 423.20751619 -58.62668366 419.95687192 -52.14746094 416.515625 C-47.22429428 413.86701245 -43.27491721 410.86309858 -39.2109375 407 C-34.97981396 403.09173328 -31.24814417 400.39812689 -25.453125 399.828125 C-22.265625 400.203125 -22.265625 400.203125 -19.265625 401.203125 C-16.93262675 401.24266734 -14.59854311 401.24714232 -12.265625 401.203125 C-7.31410121 392.20042724 -7.31410121 392.20042724 -6.265625 382.203125 C-8.92361831 379.54513169 -10.89514725 379.25322417 -14.59643555 379.11791992 C-17.38304807 379.18952168 -20.16769951 379.28200629 -22.953125 379.390625 C-23.90896484 379.40931641 -24.86480469 379.42800781 -25.84960938 379.44726562 C-31.73750843 379.6760388 -36.05452068 380.6974527 -41.32446289 383.31860352 C-43.81253577 384.45233362 -45.92260495 384.60384759 -48.640625 384.578125 C-55.19177859 384.96294801 -59.80406519 387.75763266 -65.265625 391.203125 C-66.04550781 391.68910156 -66.82539062 392.17507813 -67.62890625 392.67578125 C-68.96342047 393.5125973 -70.29149002 394.35988833 -71.609375 395.22265625 C-75.29070262 397.40193274 -77.95784764 397.09585685 -82.078125 396.765625 C-88.55851305 396.69378034 -92.65608928 398.66129762 -97.97094727 402.00170898 C-104.0696265 405.82061787 -110.42910271 407.99234436 -117.265625 410.203125 C-118.81217095 410.73415377 -120.35769601 411.26816233 -121.90234375 411.8046875 C-123.50239796 412.35476684 -125.10265636 412.90425263 -126.703125 413.453125 C-127.44852539 413.71174316 -128.19392578 413.97036133 -128.96191406 414.23681641 C-129.67959961 414.47835449 -130.39728516 414.71989258 -131.13671875 414.96875 C-131.76505615 415.18305664 -132.39339355 415.39736328 -133.04077148 415.61816406 C-139.39834541 417.2897044 -145.70995475 417.35063578 -152.23046875 417.3359375 C-153.18143936 417.33689423 -154.13240997 417.33785095 -155.11219788 417.33883667 C-157.12175564 417.33951499 -159.13131563 417.33768501 -161.14086914 417.33349609 C-164.16232455 417.32819656 -167.18362763 417.33342511 -170.20507812 417.33984375 C-200.23394494 417.35421954 -200.23394494 417.35421954 -214.453125 414.140625 C-215.4129126 413.92873535 -216.3727002 413.7168457 -217.36157227 413.49853516 C-226.92786795 411.26026475 -235.9509829 407.8433658 -245.0222168 404.11572266 C-259.90077524 398.06326304 -273.34873597 397.00583851 -289.328125 397.015625 C-290.01060303 397.01556458 -290.69308105 397.01550415 -291.39624023 397.01544189 C-302.15103807 397.02897192 -312.61943727 397.6667849 -323.265625 399.203125 C-324.5134375 399.32429688 -325.76125 399.44546875 -327.046875 399.5703125 C-346.17070144 401.53894169 -363.36999245 409.53686709 -379.50390625 419.64453125 C-382.47381305 421.32061726 -385.50272703 422.7147416 -388.61035156 424.11303711 C-397.76994313 428.24073742 -404.76385068 432.02184532 -410.203125 440.765625 C-416.32038743 450.49291384 -427.15390589 453.44461598 -437.73828125 456.01171875 C-448.77277339 458.27908015 -460.05615601 458.17609404 -471.27880859 458.19287109 C-475.21940162 458.20300612 -479.15755386 458.2555457 -483.09765625 458.31640625 C-498.66914832 458.50384642 -513.45450836 457.90853418 -528.71948242 454.67358398 C-537.76295238 453.00259284 -547.01013975 453.13409211 -556.171875 453.09765625 C-558.40364686 453.08283632 -560.63541768 453.06785905 -562.8671875 453.05273438 C-566.30468392 453.03006153 -569.74115087 453.01553572 -573.17871094 453.02807617 C-602.45258217 453.1060443 -626.25247461 446.0869637 -647.265625 425.203125 C-648.67227211 424.00377326 -650.08788567 422.814789 -651.515625 421.640625 C-659.97204103 414.21933044 -665.17474032 405.61512745 -669.265625 395.203125 C-669.60722656 394.36652344 -669.94882812 393.52992188 -670.30078125 392.66796875 C-674.95844717 378.99826085 -673.50227235 364.00631608 -667.8359375 351.01171875 C-666.20953888 347.26255309 -665.26353194 343.43557754 -664.390625 339.453125 C-660.85219815 324.30458242 -654.03140358 310.38093296 -647.140625 296.515625 C-646.55490723 295.33387695 -645.96918945 294.15212891 -645.36572266 292.93457031 C-641.18041274 284.64885956 -636.43951237 277.11175198 -630.953125 269.640625 C-627.42023996 264.66034653 -624.57615842 259.39216968 -621.69018555 254.02392578 C-619.44132053 249.95216461 -617.1336495 246.781223 -613.765625 243.515625 C-609.63255405 239.18881635 -609.81386305 235.95590273 -609.69921875 230.15625 C-606.85057875 204.18486546 -590.08552832 176.58069243 -572.265625 158.203125 C-571.43160156 157.34074219 -570.59757812 156.47835937 -569.73828125 155.58984375 C-566.70787423 152.50901398 -563.79823529 149.59974969 -560.328125 147.015625 C-557.68140895 144.68972302 -557.25752665 142.53308054 -556.265625 139.203125 C-554.28599326 136.70706759 -553.37316111 136.23897037 -550.265625 135.203125 C-548.90243598 135.10301895 -547.53501134 135.05493541 -546.16821289 135.04199219 C-545.34627945 135.03238464 -544.52434601 135.0227771 -543.67750549 135.01287842 C-542.79006149 135.00862854 -541.90261749 135.00437866 -540.98828125 135 C-539.60569374 134.99144989 -539.60569374 134.99144989 -538.19517517 134.98272705 C-536.23909654 134.97327475 -534.28300197 134.96674216 -532.3269043 134.96289062 C-529.37063615 134.95326344 -526.41508701 134.92227545 -523.45898438 134.890625 C-513.62493164 134.83447952 -504.68611839 135.05466542 -495.265625 138.203125 C-493.63711633 138.66027283 -492.00821775 139.11603432 -490.37890625 139.5703125 C-476.73509736 143.7506392 -464.51402349 149.92823566 -452 156.72167969 C-441.33008395 162.63602464 -441.33008395 162.63602464 -429.890625 166.703125 C-421.3330317 169.03447587 -415.98348366 176.43003102 -410.34375 182.87109375 C-409.65796875 183.64066406 -408.9721875 184.41023437 -408.265625 185.203125 C-407.62109375 185.94175781 -406.9765625 186.68039062 -406.3125 187.44140625 C-403.88909738 189.52719743 -402.40653077 189.82008771 -399.265625 190.203125 C-396.12155879 190.74329496 -394.4820622 191.05328386 -391.828125 192.890625 C-389.83365316 195.84244333 -388.55448458 198.88891466 -387.265625 202.203125 C-386.935625 202.863125 -386.605625 203.523125 -386.265625 204.203125 C-385.7879809 210.53190934 -385.7879809 210.53190934 -387.75 213.2890625 C-389.99203056 217.59977074 -389.71880919 221.72369284 -389.765625 226.515625 C-389.83372788 233.39888069 -390.19384313 238.95436325 -393.265625 245.203125 C-395.1328125 246.7890625 -395.1328125 246.7890625 -397.140625 247.578125 C-397.79804688 247.85398437 -398.45546875 248.12984375 -399.1328125 248.4140625 C-399.83664062 248.67445313 -400.54046875 248.93484375 -401.265625 249.203125 C-402.34650391 249.70199219 -402.34650391 249.70199219 -403.44921875 250.2109375 C-407.38342204 251.59691203 -411.33270346 252.12226221 -415.453125 252.703125 C-416.33806641 252.83348145 -417.22300781 252.96383789 -418.13476562 253.09814453 C-423.10929635 253.81449826 -428.07736445 254.40347563 -433.08105469 254.86889648 C-450.3814156 256.5258488 -465.76020163 261.43617691 -481.71459961 268.28100586 C-487.71043206 270.8427274 -493.55659037 272.94669024 -499.87426758 274.55859375 C-502.93580554 275.38375559 -505.72454899 276.51317268 -508.578125 277.890625 C-509.52300781 278.32761719 -510.46789062 278.76460938 -511.44140625 279.21484375 C-515.32374518 281.94805331 -517.62019302 285.3039789 -520.265625 289.203125 C-520.74604248 289.90542236 -521.22645996 290.60771973 -521.72143555 291.33129883 C-523.15543584 293.46162481 -524.55806913 295.60962957 -525.953125 297.765625 C-526.42556641 298.48169922 -526.89800781 299.19777344 -527.38476562 299.93554688 C-531.82685213 306.78246562 -534.71284068 312.92590712 -535.265625 321.203125 C-535.37648438 322.05003906 -535.48734375 322.89695312 -535.6015625 323.76953125 C-536.21119159 331.15865621 -533.9984668 334.99756203 -529.40625 340.6953125 C-528.69984375 341.52289063 -527.9934375 342.35046875 -527.265625 343.203125 C-526.58757812 344.11449219 -525.90953125 345.02585937 -525.2109375 345.96484375 C-523.35888077 348.51147902 -523.35888077 348.51147902 -519.890625 349.140625 C-516.3569725 349.4184014 -516.3569725 349.4184014 -513.58032227 348.22363281 C-509.48288133 346.96213888 -505.86363793 346.91543624 -501.60546875 346.9375 C-500.77914444 346.93558655 -499.95282013 346.9336731 -499.10145569 346.93170166 C-497.35580134 346.93034501 -495.61013673 346.93400505 -493.86450195 346.94238281 C-491.23559957 346.95299392 -488.60739558 346.94251973 -485.97851562 346.9296875 C-475.73407554 346.92143789 -465.94335386 347.49916491 -455.90092468 349.72793579 C-453.35761517 350.18653761 -451.05004043 350.32997916 -448.46972656 350.33251953 C-447.54395813 350.33567169 -446.6181897 350.33882385 -445.66436768 350.34207153 C-444.67168884 350.3400473 -443.67901001 350.33802307 -442.65625 350.3359375 C-441.61603699 350.33689423 -440.57582397 350.33785095 -439.50408936 350.33883667 C-437.2984613 350.33951682 -435.09283123 350.33767402 -432.88720703 350.33349609 C-429.56928793 350.32821049 -426.25150828 350.33341272 -422.93359375 350.33984375 C-416.71006249 350.34361633 -410.48844154 350.29684777 -404.265625 350.203125 C-403.43458252 350.19153351 -402.60354004 350.17994202 -401.74731445 350.16799927 C-391.37388116 349.96839488 -382.14751788 348.2075869 -372.265625 344.890625 C-371.03457031 344.49939453 -369.80351563 344.10816406 -368.53515625 343.70507812 C-362.57707829 341.77971853 -356.80497159 339.68711682 -351.12207031 337.05834961 C-343.0695843 333.34874171 -334.92259405 331.90762734 -326.203125 330.890625 C-287.03776731 326.31320079 -243.94850791 317.78978598 -208.828125 299.390625 C-196.28334098 292.85508317 -182.66659768 288.58100714 -169.23828125 284.2421875 C-158.39134832 280.73588247 -147.77882573 276.93700214 -137.265625 272.515625 C-135.64539429 271.83814209 -135.64539429 271.83814209 -133.99243164 271.14697266 C-129.37399692 269.16582592 -125.0328497 267.16456431 -120.83984375 264.3828125 C-116.83104524 261.75984185 -114.19663086 261.65824787 -109.5078125 262.44921875 C-105.85157329 263.67858141 -104.30197065 266.13662802 -102.265625 269.203125 C-88.54614741 286.80138385 -88.54614741 286.80138385 -68.6328125 295.953125 C-56.19610488 297.37846065 -56.19610488 297.37846065 -45.265625 292.203125 C-39.34810416 280.36808333 -46.6028111 257.06416451 -50.21875 245.08984375 C-51.11953189 242.6059713 -52.11996187 240.53103627 -53.453125 238.265625 C-55.36446991 234.74318477 -55.51051536 231.81665848 -55.640625 227.828125 C-56.02882752 218.34083426 -58.35344551 209.41443568 -60.59765625 200.21875 C-64.52398153 183.97057311 -67.47665492 167.59651937 -70.19287109 151.10986328 C-71.75332463 141.67063183 -73.39028269 132.26297227 -75.35546875 122.8984375 C-75.51539307 122.13527222 -75.67531738 121.37210693 -75.84008789 120.58581543 C-76.85150554 115.86787109 -78.03755517 111.2274109 -79.328125 106.578125 C-81.44350343 98.41525295 -82.36587752 90.18536229 -83.22680664 81.80615234 C-83.83160811 75.84604418 -83.83160811 75.84604418 -85.328125 70.0703125 C-88.26043982 61.10231633 -87.77894589 47.47141855 -83.59375 39.02734375 C-81.76983416 36.5221417 -79.74384625 35.05826572 -77.11328125 33.4609375 C-74.987553 32.0138244 -73.5491219 30.41561553 -71.890625 28.453125 C-60.93775468 15.56169356 -45.71920803 2.69019138 -28.13735962 0.88127136 C-18.75621672 0.27020319 -9.40102338 0.02468085 0 0 Z M-53.265625 37.203125 C-61.44776765 46.42513862 -64.17422852 52.3975457 -63.51708984 64.57714844 C-62.77728792 72.30269163 -60.74725804 79.86865478 -58.93701172 87.39892578 C-57.93271853 91.59358454 -56.98753974 95.79944679 -56.078125 100.015625 C-55.83026245 101.1607959 -55.83026245 101.1607959 -55.57739258 102.32910156 C-54.29500132 108.50616115 -53.52375679 114.69089514 -53.03637695 120.97973633 C-52.71369205 124.68081459 -52.10025631 127.91926275 -50.83398438 131.42041016 C-49.31476284 135.86568606 -48.3628888 140.24993279 -47.58203125 144.875 C-47.44170471 145.67153488 -47.30137817 146.46806976 -47.15679932 147.28874207 C-46.86032747 148.97573912 -46.56687119 150.66326863 -46.27627563 152.35128784 C-45.8224443 154.98610555 -45.36011632 157.61930308 -44.89526367 160.25219727 C-44.28671944 163.69981715 -43.68035303 167.1478043 -43.07617188 170.59619141 C-42.10699288 176.11665856 -41.11553223 181.63253748 -40.078125 187.140625 C-39.84923584 188.35673462 -39.84923584 188.35673462 -39.61572266 189.59741211 C-38.67218465 194.46963835 -37.49569184 199.22438102 -36.203125 204.015625 C-34.13641767 211.81784571 -33.25273603 219.6565288 -32.56811523 227.69262695 C-32.07447824 232.55997651 -31.49094077 236.25895297 -28.85546875 240.42578125 C-22.65024628 250.57709836 -22.70567963 264.31702845 -22.7097168 275.9050293 C-22.70306715 278.03414734 -22.64804234 280.15879075 -22.59179688 282.28710938 C-22.48289648 291.23843707 -24.00897015 297.74352488 -29.265625 305.203125 C-29.99736938 306.25814209 -29.99736938 306.25814209 -30.74389648 307.33447266 C-34.46164512 312.43183506 -39.52356082 314.86603486 -45.265625 317.203125 C-46.19117188 317.58210938 -47.11671875 317.96109375 -48.0703125 318.3515625 C-51.9396404 319.38275258 -55.44303015 319.31016842 -59.390625 319.015625 C-60.13981201 318.96301514 -60.88899902 318.91040527 -61.66088867 318.85620117 C-80.06102404 317.36898329 -92.50319623 309.95354019 -105.265625 297.203125 C-106.27968122 296.20285456 -107.2939959 295.20284605 -108.30859375 294.203125 C-110.64346445 291.88472024 -112.96251916 289.5530208 -115.265625 287.203125 C-118.84919069 288.5486784 -122.22980204 290.16619157 -125.63110352 291.91894531 C-137.66981821 298.11454675 -149.60821911 302.91622082 -162.76953125 306.203125 C-166.96931897 307.40440506 -170.68960783 309.14691158 -174.6015625 311.0625 C-177.42160993 312.26991034 -180.07707656 312.89799498 -183.078125 313.515625 C-188.59894417 314.77003449 -192.82006959 317.09278012 -197.63867188 320.01220703 C-214.49794393 330.01726257 -234.55419373 334.7354575 -253.62939453 338.32861328 C-259.5990209 339.48968006 -265.08991664 341.13230708 -270.77001953 343.30004883 C-274.00696446 344.47139096 -277.13114659 345.13989004 -280.515625 345.765625 C-284.16800661 346.44308288 -287.14546167 347.14650959 -290.515625 348.734375 C-295.17375922 350.8305354 -299.97784837 350.85317292 -305.015625 351.140625 C-315.7066104 351.91934269 -325.88339752 353.56008843 -336.265625 356.203125 C-337.01070312 356.39277832 -337.75578125 356.58243164 -338.5234375 356.77783203 C-346.05830485 358.74523315 -353.08253548 360.97612569 -360.078125 364.453125 C-365.31712383 367.02381387 -369.44023047 367.67219264 -375.21875 367.86328125 C-379.85415889 368.38030763 -383.82079488 370.17617428 -388.0625 372.046875 C-394.77341505 374.46935165 -401.71492257 374.36653762 -408.765625 374.328125 C-409.68907715 374.32474121 -410.6125293 374.32135742 -411.56396484 374.31787109 C-419.63910392 374.26147496 -427.71261103 374.10040461 -435.78491211 373.88372803 C-437.16944916 373.84716822 -438.5540552 373.81311893 -439.9387207 373.78179932 C-441.91509838 373.73561497 -443.89116046 373.67650769 -445.8671875 373.6171875 C-447.00494629 373.5857666 -448.14270508 373.5543457 -449.31494141 373.52197266 C-452.60502434 373.25644007 -455.66113493 372.78435267 -458.89746094 372.18286133 C-465.49404465 371.04108685 -471.8763789 370.99903068 -478.5546875 371.11328125 C-481.06770649 371.13369138 -483.5807274 371.15386665 -486.09375 371.17382812 C-490.00171532 371.21734284 -493.90954402 371.26588495 -497.81738281 371.31958008 C-501.62564601 371.36805496 -505.43372665 371.39778178 -509.2421875 371.42578125 C-510.97850937 371.4584182 -510.97850937 371.4584182 -512.74990845 371.49171448 C-526.52562184 371.57526661 -535.27674933 367.42540486 -545.265625 358.203125 C-556.8874149 346.28664629 -558.59792197 334.02018956 -558.41015625 318.09765625 C-558.0086519 300.77421228 -549.1810066 288.70170154 -537.92578125 276.234375 C-536.2252732 274.15375339 -534.97586458 272.03082624 -533.640625 269.703125 C-527.49742429 260.25204699 -514.76499844 255.17835729 -504.265625 252.203125 C-501.834956 251.82317032 -499.39656718 251.48966939 -496.953125 251.203125 C-491.72098116 250.58724008 -488.63632917 249.59254105 -484.41015625 246.55859375 C-471.40239283 238.33692908 -452.54039594 235.68055677 -437.640625 232.890625 C-436.74085938 232.71909912 -435.84109375 232.54757324 -434.9140625 232.37084961 C-426.84226132 230.93020727 -419.34153535 230.82850196 -411.265625 232.203125 C-408.9121993 228.49412609 -408.9337896 225.1532182 -408.890625 220.828125 C-408.86226562 219.54164063 -408.83390625 218.25515625 -408.8046875 216.9296875 C-409.34581406 212.55481683 -410.43476095 210.55345737 -413.265625 207.203125 C-415.88594905 205.21136112 -415.88594905 205.21136112 -418.765625 203.640625 C-421.85018839 201.87378031 -423.99774654 200.53823988 -426.2265625 197.75 C-433.9652865 188.08400757 -449.46297901 181.96946673 -460.265625 176.203125 C-461.27496094 175.66341064 -461.27496094 175.66341064 -462.3046875 175.11279297 C-482.60845394 164.35927922 -504.27814963 155.01426508 -527.515625 154.453125 C-528.48024658 154.41316406 -529.44486816 154.37320313 -530.4387207 154.33203125 C-534.29666507 154.34829377 -537.12813749 154.38523531 -540.32324219 156.68261719 C-542.0769187 158.45137098 -543.66868973 160.29335529 -545.265625 162.203125 C-546.82254668 163.48587179 -548.40313133 164.74097459 -550.015625 165.953125 C-567.79404954 180.06255753 -582.56279427 201.74703392 -585.7578125 224.74609375 C-585.94730469 226.55013672 -585.94730469 226.55013672 -586.140625 228.390625 C-588.55215538 247.84092266 -599.14109713 265.92692383 -611.328125 281.015625 C-615.72706417 286.74141811 -618.33507052 293.64666068 -621.265625 300.203125 C-624.04182809 306.37706919 -626.8677185 311.044178 -631.48828125 315.98828125 C-636.37531243 322.07827395 -640.21900637 329.93246021 -640.390625 337.765625 C-640.95935654 345.09049496 -643.88215105 351.45544061 -646.671875 358.1640625 C-651.4512283 369.85093901 -649.19475324 381.57536111 -645.265625 393.203125 C-643.64760654 396.33297945 -641.6727535 398.64979347 -639.265625 401.203125 C-638.23501953 402.47349609 -638.23501953 402.47349609 -637.18359375 403.76953125 C-626.85046527 416.09045891 -612.28754986 426.01229172 -596.15625 427.90625 C-588.48862003 428.49811389 -580.7595947 428.28243337 -573.07714844 428.12988281 C-571.9121582 428.11280273 -570.74716797 428.09572266 -569.546875 428.078125 C-567.98549805 428.04332031 -567.98549805 428.04332031 -566.39257812 428.0078125 C-563.265625 428.203125 -563.265625 428.203125 -559.84277344 429.19165039 C-555.99685194 430.27912328 -552.74004752 430.47316878 -548.75 430.51171875 C-547.31900654 430.53689015 -545.88801706 430.562288 -544.45703125 430.58789062 C-542.24138537 430.61647172 -540.02580848 430.6405382 -537.81005859 430.65942383 C-523.79996595 430.80161861 -523.79996595 430.80161861 -517.8828125 432.6953125 C-510.02190447 435.1566377 -501.80406316 434.78680792 -493.640625 434.890625 C-491.87230233 434.92151416 -490.10399169 434.95309891 -488.33569336 434.98535156 C-483.84812969 435.06245353 -479.36054322 435.11930329 -474.87261963 435.17059326 C-472.35680838 435.20198716 -469.84131043 435.24206396 -467.32568359 435.28564453 C-463.53166557 435.35077925 -459.73785137 435.39914865 -455.94342041 435.43228149 C-454.55042255 435.44600769 -453.1574608 435.46426339 -451.7645874 435.48739624 C-442.9302561 435.62372104 -434.92116307 435.69995137 -427.62890625 430.22265625 C-426.61376953 429.13017578 -426.61376953 429.13017578 -425.578125 428.015625 C-424.89363281 427.30019531 -424.20914063 426.58476563 -423.50390625 425.84765625 C-421.67256467 423.68392457 -420.05433325 421.51145905 -418.4140625 419.20703125 C-415.6155888 415.45486083 -412.54889678 412.79021844 -408.578125 410.328125 C-407.88533447 409.88960205 -407.19254395 409.4510791 -406.47875977 408.99926758 C-398.12304575 403.88045951 -389.39620857 399.40192191 -380.703125 394.890625 C-379.96389801 394.50449036 -379.22467102 394.11835571 -378.46304321 393.72052002 C-368.29957098 388.43244932 -358.08219982 383.97816829 -347.265625 380.203125 C-346.39478271 379.88722412 -345.52394043 379.57132324 -344.62670898 379.24584961 C-330.79050943 374.60040033 -315.86247229 374.90658942 -301.44897461 374.99731445 C-298.46784812 375.01553501 -295.48703581 375.01782339 -292.50585938 375.01757812 C-286.75788227 375.02619097 -281.01265245 375.10338772 -275.265625 375.203125 C-274.37808533 375.21345764 -273.49054565 375.22379028 -272.57611084 375.23443604 C-262.50105279 375.37912839 -254.48294715 375.92795896 -245.515625 380.953125 C-234.44048334 386.54630988 -223.44954885 389.1872527 -211.265625 391.203125 C-210.32678467 391.38713867 -209.38794434 391.57115234 -208.4206543 391.76074219 C-196.93947544 393.77607921 -185.36282448 393.50445699 -173.74243164 393.46386719 C-170.07616757 393.45311926 -166.41039009 393.46382311 -162.74414062 393.4765625 C-160.38281143 393.47524125 -158.02148254 393.47267956 -155.66015625 393.46875 C-154.03941948 393.47482269 -154.03941948 393.47482269 -152.38594055 393.48101807 C-142.28977499 393.41952706 -133.17025097 392.11222664 -124.015625 387.765625 C-122.69800007 387.16257816 -121.38029238 386.55971209 -120.0625 385.95703125 C-119.42747559 385.66328613 -118.79245117 385.36954102 -118.13818359 385.06689453 C-112.86443808 382.6342333 -107.75237512 380.70271585 -102.140625 379.203125 C-94.47600412 377.06432411 -87.09369567 374.31000651 -79.67489624 371.44134521 C-49.46562026 359.76092091 -49.46562026 359.76092091 -35.12109375 359.44140625 C-32.2577103 359.20246454 -30.73597016 358.57553898 -28.265625 357.203125 C-24.94964465 356.91477888 -22.62312832 357.07979634 -19.46875 358.16796875 C-16.22436672 359.21645847 -13.2728559 359.64300634 -9.890625 360.015625 C-1.83465791 361.21622988 3.03022062 363.77036663 8.109375 370.140625 C12.25671652 376.16494764 13.22685778 382.05277127 13.734375 389.203125 C13.82332031 390.06164062 13.91226563 390.92015625 14.00390625 391.8046875 C14.49151444 399.67445691 12.33480931 405.8017093 7.734375 412.203125 C2.27852785 417.0101193 -2.68849492 419.1915253 -9.828125 420.015625 C-25.68645402 422.27189132 -37.3554987 432.29157337 -49.12890625 442.5078125 C-52.04435665 445.03603358 -55.052447 447.43262269 -58.078125 449.828125 C-68.5326076 458.36239651 -75.24444783 466.72450802 -77.265625 480.203125 C-77.5127845 483.47123683 -77.54365017 486.71964771 -77.5390625 489.99609375 C-77.55614059 491.85157107 -77.57415939 493.70703992 -77.59301758 495.5625 C-77.60007721 496.51576172 -77.60713684 497.46902344 -77.6144104 498.45117188 C-77.80195735 519.48088375 -78.75311869 539.31524523 -86.265625 559.203125 C-86.82394983 560.92698507 -87.36607665 562.65618873 -87.890625 564.390625 C-88.21933594 565.46376953 -88.21933594 565.46376953 -88.5546875 566.55859375 C-88.96561689 568.08716078 -89.34976462 569.62455292 -89.65966797 571.17675781 C-90.82944466 577.00658955 -92.77901363 582.13655383 -95.140625 587.578125 C-97.99376543 594.38122735 -100.09816418 600.95112955 -101.453125 608.203125 C-102.8629876 615.72671302 -104.98846854 622.25267229 -108.265625 629.203125 C-115.47866626 645.01826186 -120.44304318 659.24543757 -120.453125 676.828125 C-120.46537109 677.95992187 -120.47761719 679.09171875 -120.49023438 680.2578125 C-120.49216797 681.34578125 -120.49410156 682.43375 -120.49609375 683.5546875 C-120.50020264 684.54291504 -120.50431152 685.53114258 -120.50854492 686.54931641 C-120.26084003 689.25539894 -119.6495399 690.89054389 -118.265625 693.203125 C-114.19964037 692.71241399 -114.19964037 692.71241399 -110.47021484 691.15869141 C-107.4363638 689.84368664 -105.03388429 690.11422122 -101.7421875 690.2890625 C-100.47375 690.33160156 -99.2053125 690.37414062 -97.8984375 690.41796875 C-95.23053109 690.51656245 -92.57242464 690.65437384 -89.90625 690.80859375 C-83.13539884 691.21144241 -83.13539884 691.21144241 -77.13769531 688.63720703 C-75.53664282 686.56581419 -74.38499613 684.56635855 -73.265625 682.203125 C-72.6365625 681.05070313 -72.0075 679.89828125 -71.359375 678.7109375 C-70.8334375 677.59460938 -70.3075 676.47828125 -69.765625 675.328125 C-67.84807035 671.27682081 -65.85468211 667.55791494 -63.41796875 663.796875 C-59.20046325 656.85695854 -56.8868313 649.23994005 -54.328125 641.578125 C-50.90116547 631.39146225 -47.21368391 621.4767751 -42.81176758 611.66796875 C-39.10343378 603.35774086 -35.98736026 594.7981661 -33.390625 586.078125 C-23.58042118 553.75526222 -9.45042503 520.71440796 8.5703125 492.09375 C12.98598452 484.96440353 16.69168702 477.58060389 20.296875 470.015625 C20.6214267 469.33780975 20.94597839 468.65999451 21.28036499 467.9616394 C31.3673567 447.0570282 31.3673567 447.0570282 36.03125 424.51171875 C37.0973307 416.34929874 40.7383596 408.63042534 43.671875 400.99804688 C48.05877669 389.45823746 51.74793388 377.92675868 54.234375 365.828125 C58.20043032 346.55603398 63.90910502 329.25468321 73.47998047 312.06860352 C79.0013617 302.03250555 83.56693304 291.70162725 87.984375 281.140625 C88.72881485 279.37456046 89.47352903 277.60861153 90.21850586 275.84277344 C96.14236084 261.76497435 101.86195892 247.61181923 107.46044922 233.40185547 C108.67316476 230.35681925 109.91666415 227.32688164 111.17578125 224.30078125 C115.04499487 214.97408124 118.63694752 206.3153312 118.77734375 196.06640625 C119.12329837 181.61868223 125.46304796 169.16443139 134.32006836 157.96875 C142.01770317 148.11973684 141.91451778 137.07038776 141.921875 125.078125 C141.93412109 124.01980469 141.94636719 122.96148437 141.95898438 121.87109375 C141.96917617 116.45585399 141.54128726 112.33475582 139.734375 107.203125 C139.72064917 104.42501613 139.78651804 101.72114401 139.921875 98.953125 C140.06772506 91.43543613 139.07966924 86.50036857 134.734375 80.203125 C134.02925781 79.12804687 133.32414062 78.05296875 132.59765625 76.9453125 C127.51265447 69.39390118 121.74739535 62.67751686 115.4765625 56.09375 C113.30202993 53.80150769 111.21629461 51.48447535 109.171875 49.078125 C105.458023 44.80403255 101.53391893 40.75050836 97.453125 36.828125 C95.84212233 35.27267415 94.26368141 33.68013212 92.765625 32.015625 C85.84013685 25.20366944 76.30780745 25.90403726 67.15722656 25.37695312 C64.15941093 25.16187405 61.24903165 24.69763569 58.296875 24.140625 C47.29783055 22.12471874 36.06922546 22.04569488 24.91796875 22.03515625 C23.65904312 22.03182785 22.40011749 22.02849945 21.1030426 22.02507019 C18.46363689 22.02004747 15.82422494 22.01766041 13.18481445 22.01782227 C10.50766281 22.0179038 7.83068131 22.01090677 5.15356445 21.99731445 C1.24164728 21.97887218 -2.67007477 21.9740812 -6.58203125 21.97265625 C-7.76156876 21.96547073 -8.94110626 21.95828522 -10.15638733 21.95088196 C-27.46541279 21.99779904 -40.45212943 25.1409093 -53.265625 37.203125 Z " fill="#E4181E" transform="translate(905.265625,122.796875)"/>
<path d="M0 0 C1.65 0 3.3 0 5 0 C5 11.88 5 23.76 5 36 C2.33333333 36 -0.33333333 36 -3 36 C-3.68835938 36.05800781 -4.37671875 36.11601563 -5.0859375 36.17578125 C-9.51714955 36.44044409 -11.36323063 36.49084306 -15 33.6875 C-18.79350998 28.58997096 -18.64899861 23.13917603 -18 17 C-16.01031547 13.08924075 -14.63466354 11.42310902 -11 9 C-4.67741935 8.5483871 -4.67741935 8.5483871 -1 11 C-0.67 7.37 -0.34 3.74 0 0 Z " fill="#A4A4A4" transform="translate(570,923)"/>
<path d="M0 0 C4.3604287 2.22135047 7.20212362 4.40542702 9 9 C9.68031111 14.01414487 9.55368338 17.82874671 7.375 22.4375 C3.95222304 26.1304962 0.97865481 27.71144617 -4 28.4375 C-7.94665429 27.86194625 -9.96043437 26.56674431 -13 24 C-16.2937473 19.27896221 -16.91296574 14.59818552 -16 9 C-12.30762665 1.87899424 -8.21580055 -1.4247053 0 0 Z " fill="#A5A5A5" transform="translate(649,932)"/>
<path d="M0 0 C4.3604287 2.22135047 7.20212362 4.40542702 9 9 C9.68031111 14.01414487 9.55368338 17.82874671 7.375 22.4375 C3.95222304 26.1304962 0.97865481 27.71144617 -4 28.4375 C-7.94665429 27.86194625 -9.96043437 26.56674431 -13 24 C-16.2937473 19.27896221 -16.91296574 14.59818552 -16 9 C-12.30762665 1.87899424 -8.21580055 -1.4247053 0 0 Z " fill="#A5A5A5" transform="translate(621,932)"/>
<path d="M0 0 C2.41869578 1.1589584 4.12322096 2.12322096 6 4 C6.15740605 5.70563778 6.25093392 7.41727244 6.31640625 9.12890625 C6.35830078 10.16337891 6.40019531 11.19785156 6.44335938 12.26367188 C6.48267578 13.35228516 6.52199219 14.44089844 6.5625 15.5625 C6.60568359 16.65498047 6.64886719 17.74746094 6.69335938 18.87304688 C6.79982068 21.58189564 6.90183516 24.29083992 7 27 C6.21625 26.835 5.4325 26.67 4.625 26.5 C1.63316338 25.93012636 0.53389157 25.76271486 -2.25 27 C-5.47017414 28.17097241 -7.59616826 28.42547897 -11 28 C-14.41165683 26.0288205 -15.71748902 24.78105976 -17.0625 21.0625 C-17 18 -17 18 -15.5 15.25 C-10.84733972 11.06260575 -5.03471607 10.73894482 1 10 C0.50243908 7.24358584 0.50243908 7.24358584 -1 5 C-3.67058851 4.85884839 -6.32432238 4.95752893 -9 5 C-9.66 6.32 -10.32 7.64 -11 9 C-12.65 9 -14.3 9 -16 9 C-15.79803569 5.36464239 -15.21677989 4.2005214 -12.5 1.6875 C-8.13546337 -0.41683016 -4.76355701 -0.75444918 0 0 Z " fill="#A7A7A7" transform="translate(512,932)"/>
<path d="M0 0 C4.68683436 1.6801859 7.28627194 3.82503376 10 8 C10 8.99 10 9.98 10 11 C6.80814911 10.6453499 5.36354547 10.38778183 3.125 8 C0.14897952 5.19903955 -1.96179835 5.06962417 -6 5 C-9.83757976 6.25459338 -11.52627088 7.33677924 -13.875 10.625 C-15.88830323 16.66490969 -15.89646033 21.70795931 -13.125 27.5 C-11.64106423 30.32542877 -11.64106423 30.32542877 -9 32 C-5.94079426 32.42071592 -3.0532254 32.48514117 0 32 C2.75569447 29.81840855 4.43588747 28.12822506 6 25 C7.65 25 9.3 25 11 25 C10.49430263 29.42485195 9.10058108 31.81561943 6 35 C1.38362057 38.04261372 -2.61439325 38.77708153 -8 38 C-13.16064968 36.17859423 -15.82703909 33.40689015 -19 29 C-21.94608579 22.8101403 -22.02006242 16.18019459 -19.9375 9.6875 C-14.52051288 2.17361463 -9.18281446 -0.85169443 0 0 Z " fill="#A7A7A7" transform="translate(728,922)"/>
<path d="M0 0 C8.25 0 16.5 0 25 0 C23.87541964 7.8720625 23.87541964 7.8720625 21.55859375 10.39453125 C21.06069336 10.95317871 20.56279297 11.51182617 20.04980469 12.08740234 C19.51774414 12.65668457 18.98568359 13.2259668 18.4375 13.8125 C17.34631058 15.02874195 16.25647362 16.24619861 15.16796875 17.46484375 C14.63091309 18.05894043 14.09385742 18.65303711 13.54052734 19.26513672 C10.18984251 23.03850699 7.12229204 27.03709087 4 31 C11.26 31.33 18.52 31.66 26 32 C26 33.32 26 34.64 26 36 C16.76 36 7.52 36 -2 36 C-2 29.60438911 -1.08494709 28.17184042 2.9375 23.875 C3.94561366 22.7460773 4.95076452 21.61450273 5.953125 20.48046875 C6.71592773 19.62267822 6.71592773 19.62267822 7.49414062 18.74755859 C11.26109637 14.37598447 14.58524213 9.64630989 18 5 C12.06 4.67 6.12 4.34 0 4 C0 2.68 0 1.36 0 0 Z " fill="#B0B0B0" transform="translate(466,923)"/>
<path d="M0 0 C2.59026861 0.75370615 3.47521634 1.48618801 5.12109375 3.6171875 C5.46166992 6.0690918 5.46166992 6.0690918 5.4140625 8.94140625 C5.40439453 9.96943359 5.39472656 10.99746094 5.38476562 12.05664062 C5.35962891 13.12849609 5.33449219 14.20035156 5.30859375 15.3046875 C5.28829102 16.92987305 5.28829102 16.92987305 5.26757812 18.58789062 C5.23220018 21.26482155 5.18283564 23.94075588 5.12109375 26.6171875 C3.80109375 26.6171875 2.48109375 26.6171875 1.12109375 26.6171875 C1.10127441 26.02180176 1.08145508 25.42641602 1.06103516 24.81298828 C0.96593249 22.12226597 0.85619533 19.43233602 0.74609375 16.7421875 C0.71515625 15.80503906 0.68421875 14.86789062 0.65234375 13.90234375 C0.61367188 13.00644531 0.575 12.11054687 0.53515625 11.1875 C0.50373535 10.36008301 0.47231445 9.53266602 0.43994141 8.68017578 C0.29510238 6.39732665 0.29510238 6.39732665 -1.87890625 4.6171875 C-6.22085561 4.71413866 -6.22085561 4.71413866 -9.87890625 6.6171875 C-10.03545652 8.10357742 -10.12957568 9.59667877 -10.1953125 11.08984375 C-10.23720703 11.98896484 -10.27910156 12.88808594 -10.32226562 13.81445312 C-10.38124023 15.23274414 -10.38124023 15.23274414 -10.44140625 16.6796875 C-10.50618164 18.1037793 -10.50618164 18.1037793 -10.57226562 19.55664062 C-10.67869901 21.91000103 -10.78071633 24.26347104 -10.87890625 26.6171875 C-12.52890625 26.6171875 -14.17890625 26.6171875 -15.87890625 26.6171875 C-15.87890625 18.0371875 -15.87890625 9.4571875 -15.87890625 0.6171875 C-14.55890625 0.6171875 -13.23890625 0.6171875 -11.87890625 0.6171875 C-11.54890625 1.2771875 -11.21890625 1.9371875 -10.87890625 2.6171875 C-10.16734375 1.84375 -10.16734375 1.84375 -9.44140625 1.0546875 C-6.04543398 -0.85037012 -3.78057901 -0.42077271 0 0 Z " fill="#AEAEAE" transform="translate(540.87890625,932.3828125)"/>
<path d="M0 0 C4.22151156 0.86153297 5.60819464 2.08791287 8.0625 5.625 C8.88689171 9.92583602 8.45429256 13.51876218 7 17.625 C5.0625 19.625 5.0625 19.625 1.625 20.625 C-1.9375 20.625 -1.9375 20.625 -4.3125 19.375 C-7.42271127 16.02554171 -7.27851173 12.19196574 -7.21484375 7.85546875 C-6.63201386 3.16820301 -4.52583018 0.96294259 0 0 Z " fill="#040404" transform="translate(644.9375,935.375)"/>
<path d="M0 0 C4.22151156 0.86153297 5.60819464 2.08791287 8.0625 5.625 C8.88689171 9.92583602 8.45429256 13.51876218 7 17.625 C5.0625 19.625 5.0625 19.625 1.625 20.625 C-1.9375 20.625 -1.9375 20.625 -4.3125 19.375 C-7.42271127 16.02554171 -7.27851173 12.19196574 -7.21484375 7.85546875 C-6.63201386 3.16820301 -4.52583018 0.96294259 0 0 Z " fill="#040404" transform="translate(616.9375,935.375)"/>
<path d="M0 0 C1.32 0 2.64 0 4 0 C4.02187378 0.83978394 4.02187378 0.83978394 4.04418945 1.6965332 C4.11871352 4.23588137 4.21535581 6.77392078 4.3125 9.3125 C4.33505859 10.19357422 4.35761719 11.07464844 4.38085938 11.98242188 C4.41630859 12.82998047 4.45175781 13.67753906 4.48828125 14.55078125 C4.51446533 15.33106689 4.54064941 16.11135254 4.56762695 16.9152832 C5.10495225 19.50603459 5.87819375 20.44758827 8 22 C11.08333333 22 11.08333333 22 14 21 C16.0140956 17.9788566 16.26836596 17.19339983 16.4140625 13.76953125 C16.45273437 12.96708984 16.49140625 12.16464844 16.53125 11.33789062 C16.57765625 10.08782227 16.57765625 10.08782227 16.625 8.8125 C16.66367187 7.96751953 16.70234375 7.12253906 16.7421875 6.25195312 C16.83636279 4.16832476 16.91926675 2.08419247 17 0 C18.32 0 19.64 0 21 0 C21 8.58 21 17.16 21 26 C19.68 26 18.36 26 17 26 C16.67 25.34 16.34 24.68 16 24 C15.34 24.66 14.68 25.32 14 26 C11.7578125 26.3359375 11.7578125 26.3359375 9.125 26.375 C8.26132812 26.40335938 7.39765625 26.43171875 6.5078125 26.4609375 C4 26 4 26 1.6953125 24.6796875 C-1.06632468 20.31451905 -0.41634408 15.79150512 -0.25 10.75 C-0.23195313 9.71875 -0.21390625 8.6875 -0.1953125 7.625 C-0.14822712 5.08238936 -0.0824805 2.54166838 0 0 Z " fill="#B0B0B0" transform="translate(798,933)"/>
<path d="M0 0 C2.1875 1.6875 2.1875 1.6875 4.1875 4.6875 C4.1875 5.6775 4.1875 6.6675 4.1875 7.6875 C2.5375 7.6875 0.8875 7.6875 -0.8125 7.6875 C-1.1425 6.6975 -1.4725 5.7075 -1.8125 4.6875 C-4.64133747 3.27308126 -6.68626745 3.36849668 -9.8125 3.6875 C-12.61465838 6.56201459 -13.24395509 8.72203638 -13.25 12.6875 C-13.140069 16.07537366 -12.99149511 17.40906316 -11.125 20.3125 C-8.30177154 21.99117638 -7.03255492 22.41201236 -3.8125 21.6875 C-2.45422029 20.04110035 -1.11995749 18.37454193 0.1875 16.6875 C1.5075 16.6875 2.8275 16.6875 4.1875 16.6875 C3.88929167 20.26599992 3.44504642 21.44976484 0.75 23.9375 C-3.08376937 26.55568396 -5.13235709 27.13751374 -9.8125 26.6875 C-13.7831423 24.54946184 -16.21905983 22.91961861 -17.8125 18.6875 C-18.1484375 15.62890625 -18.1484375 15.62890625 -18.1875 12.25 C-18.21585938 11.13753906 -18.24421875 10.02507813 -18.2734375 8.87890625 C-17.71941808 5.04302603 -16.46933564 3.44862265 -13.8125 0.6875 C-9.57579287 -2.38046033 -4.61958151 -2.15580471 0 0 Z " fill="#A8A8A8" transform="translate(789.8125,933.3125)"/>
<path d="M0 0 C3.1875 0.3125 3.1875 0.3125 5.5625 1.625 C8.19178474 5.97343245 7.9109384 10.37265803 7.1875 15.3125 C5.5 18.5 5.5 18.5 3.1875 20.3125 C0.6875 20.875 0.6875 20.875 -1.8125 20.3125 C-4.60285429 18.0647146 -5.67160005 16.73519984 -6.8125 13.3125 C-7.18529581 8.27975663 -6.82225759 5.40577032 -3.8125 1.3125 C-2.8125 0.3125 -2.8125 0.3125 0 0 Z " fill="#060606" transform="translate(562.8125,935.6875)"/>
<path d="M0 0 C1.65 0 3.3 0 5 0 C7.31 5.94 9.62 11.88 12 18 C13.77258046 12.45754446 13.77258046 12.45754446 15.4987793 6.90063477 C16.20147921 4.80968002 16.88953031 2.90898469 18 1 C20.70703125 -0.03515625 20.70703125 -0.03515625 23 0 C22.37658609 3.5382203 21.44678155 6.73293028 20.15234375 10.08203125 C19.79462891 11.01337891 19.43691406 11.94472656 19.06835938 12.90429688 C18.69517578 13.86400391 18.32199219 14.82371094 17.9375 15.8125 C17.56044922 16.79154297 17.18339844 17.77058594 16.79492188 18.77929688 C15.86684405 21.1876001 14.93509884 23.59441614 14 26 C12.35 26 10.7 26 9 26 C7.4946891 22.04366575 5.99665407 18.08461633 4.5 14.125 C4.07074219 12.99707031 3.64148438 11.86914062 3.19921875 10.70703125 C2.79316406 9.63066406 2.38710938 8.55429687 1.96875 7.4453125 C1.59169922 6.45031738 1.21464844 5.45532227 0.82617188 4.43017578 C0 2 0 2 0 0 Z " fill="#A9A9A9" transform="translate(579,933)"/>
<path d="M0 0 C0 2.97 0 5.94 0 9 C1.32 9 2.64 9 4 9 C4 9.99 4 10.98 4 12 C2.68 12 1.36 12 0 12 C0 18.27 0 24.54 0 31 C1.65 31 3.3 31 5 31 C5 32.32 5 33.64 5 35 C-1.48484329 35.3670666 -1.48484329 35.3670666 -3.7121582 33.7800293 C-5.37442495 31.48247728 -5.34679997 30.14919865 -5.29296875 27.33203125 C-5.28330078 26.43935547 -5.27363281 25.54667969 -5.26367188 24.62695312 C-5.23853516 23.69818359 -5.21339844 22.76941406 -5.1875 21.8125 C-5.16719727 20.40194336 -5.16719727 20.40194336 -5.14648438 18.96289062 C-5.11113096 16.64134962 -5.06178674 14.32096347 -5 12 C-5.99 12 -6.98 12 -8 12 C-8 11.01 -8 10.02 -8 9 C-7.01 9 -6.02 9 -5 9 C-5.061875 7.88625 -5.12375 6.7725 -5.1875 5.625 C-5.125625 4.42875 -5.06375 3.2325 -5 2 C-2 0 -2 0 0 0 Z " fill="#A5A5A5" transform="translate(843,924)"/>
<path d="M0 0 C0.66 0 1.32 0 2 0 C2 2.97 2 5.94 2 9 C3.32 9 4.64 9 6 9 C6 9.99 6 10.98 6 12 C4.68 12 3.36 12 2 12 C2.33 17.94 2.66 23.88 3 30 C4.32 30.33 5.64 30.66 7 31 C7 32.32 7 33.64 7 35 C3.625 35.125 3.625 35.125 0 35 C-2 33 -2 33 -2.22705078 30.84521484 C-2.21657715 29.97590332 -2.20610352 29.1065918 -2.1953125 28.2109375 C-2.18886719 27.26992188 -2.18242188 26.32890625 -2.17578125 25.359375 C-2.15902344 24.37453125 -2.14226563 23.3896875 -2.125 22.375 C-2.11597656 21.38242187 -2.10695313 20.38984375 -2.09765625 19.3671875 C-2.07404116 16.91121866 -2.04110799 14.45572832 -2 12 C-2.99 12 -3.98 12 -5 12 C-5 11.01 -5 10.02 -5 9 C-4.01 9 -3.02 9 -2 9 C-2.04125 7.88625 -2.0825 6.7725 -2.125 5.625 C-2 2 -2 2 0 0 Z " fill="#B1B1B1" transform="translate(683,924)"/>
<path d="M0 0 C0.928125 0.20625 1.85625 0.4125 2.8125 0.625 C2.4825 2.275 2.1525 3.925 1.8125 5.625 C0.843125 5.604375 -0.12625 5.58375 -1.125 5.5625 C-4.06215895 5.26881501 -4.06215895 5.26881501 -5.1875 6.625 C-5.34405027 8.11138992 -5.43816943 9.60449127 -5.50390625 11.09765625 C-5.54580078 11.99677734 -5.58769531 12.89589844 -5.63085938 13.82226562 C-5.68983398 15.24055664 -5.68983398 15.24055664 -5.75 16.6875 C-5.81477539 18.1115918 -5.81477539 18.1115918 -5.88085938 19.56445312 C-5.98729276 21.91781353 -6.08931008 24.27128354 -6.1875 26.625 C-7.8375 26.625 -9.4875 26.625 -11.1875 26.625 C-11.1875 18.045 -11.1875 9.465 -11.1875 0.625 C-8.7125 1.12 -8.7125 1.12 -6.1875 1.625 C-3.1875 -0.375 -3.1875 -0.375 0 0 Z " fill="#A7A7A7" transform="translate(674.1875,932.375)"/>
<path d="M0 0 C3.625 0.375 3.625 0.375 7 1 C6.67 2.32 6.34 3.64 6 5 C4.865625 5.28875 3.73125 5.5775 2.5625 5.875 C1.386875 6.24625 0.21125 6.6175 -1 7 C-2.11823815 9.23647631 -2.19396061 10.64891529 -2.31640625 13.1328125 C-2.35830078 13.93847656 -2.40019531 14.74414062 -2.44335938 15.57421875 C-2.50233398 16.83685547 -2.50233398 16.83685547 -2.5625 18.125 C-2.62727539 19.39923828 -2.62727539 19.39923828 -2.69335938 20.69921875 C-2.79954236 22.79928223 -2.90028497 24.89961948 -3 27 C-4.32 27 -5.64 27 -7 27 C-7 18.42 -7 9.84 -7 1 C-4.525 1.495 -4.525 1.495 -2 2 C-1.34 1.34 -0.68 0.68 0 0 Z " fill="#ADADAD" transform="translate(763,932)"/>
<path d="M0 0 C1.32 0 2.64 0 4 0 C4.33 0.66 4.66 1.32 5 2 C6.32 1.34 7.64 0.68 9 0 C8.51917969 0.77601563 8.03835938 1.55203125 7.54296875 2.3515625 C5.53786534 7.09274372 5.4397134 11.27919482 5.3125 16.375 C5.27833984 17.30183594 5.24417969 18.22867188 5.20898438 19.18359375 C5.12700448 21.45560812 5.05769506 23.72726104 5 26 C3.35 26 1.7 26 0 26 C0 17.42 0 8.84 0 0 Z " fill="#A6A6A6" transform="translate(525,933)"/>
<path d="M0 0 C1.65 0 3.3 0 5 0 C5 8.58 5 17.16 5 26 C3.35 26 1.7 26 0 26 C0 17.42 0 8.84 0 0 Z " fill="#A2A2A2" transform="translate(826,933)"/>
<path d="M0 0 C-0.1875 3.3125 -0.1875 3.3125 -1 7 C-3.77119999 9.45449142 -5.51075204 9.95203451 -9.1875 10.3125 C-12 10 -12 10 -14 8 C-13.875 5.5 -13.875 5.5 -13 3 C-9.28892095 0.25105255 -4.49583229 0 0 0 Z " fill="#0F0F0F" transform="translate(514,946)"/>
<path d="M0 0 C1.32 0 2.64 0 4 0 C4 8.58 4 17.16 4 26 C2.68 26 1.36 26 0 26 C0 17.42 0 8.84 0 0 Z " fill="#B4B4B4" transform="translate(745,933)"/>
<path d="M0 0 C1.65 0 3.3 0 5 0 C5 1.65 5 3.3 5 5 C3.35 5 1.7 5 0 5 C0 3.35 0 1.7 0 0 Z " fill="#9D9D9D" transform="translate(826,923)"/>
<path d="M0 0 C1.32 0 2.64 0 4 0 C4 1.65 4 3.3 4 5 C2.68 5 1.36 5 0 5 C0 3.35 0 1.7 0 0 Z " fill="#AFAFAF" transform="translate(745,923)"/>
</svg>
