<?xml version="1.0" encoding="UTF-8"?>
<svg version="1.1" xmlns="http://www.w3.org/2000/svg" width="1350" height="1080">
<path d="M0 0 C445.5 0 891 0 1350 0 C1350 356.4 1350 712.8 1350 1080 C904.5 1080 459 1080 0 1080 C0 723.6 0 367.2 0 0 Z " fill="#000000" transform="translate(0,0)"/>
<path d="M0 0 C4.76066733 3.32139581 5.94165654 8.39915852 7.32177734 13.78710938 C10.38718881 25.7024422 16.04719839 34.79887418 23.72265625 44.40625 C34.7139002 58.21632193 46.02156804 73.17918276 50.8515625 90.37109375 C51.72515911 92.98780137 52.86487272 94.87032166 54.4375 97.125 C57.20422603 101.18173326 57.18830883 104.03384801 56.6875 108.875 C56.3575 109.535 56.0275 110.195 55.6875 110.875 C54.9712352 119.57725734 56.39297424 127.51685707 58.4375 135.9375 C58.98857788 138.32675452 59.53935795 140.71607775 60.08984375 143.10546875 C60.836082 146.28107302 61.58679373 149.45542777 62.34814453 152.62744141 C65.32122607 165.08502009 66.48864121 177.07155308 66.6875 189.875 C66.70264648 190.64553711 66.71779297 191.41607422 66.73339844 192.20996094 C66.9477645 204.09420649 66.9477645 204.09420649 65.6875 207.875 C65.55620305 210.73675641 65.47755894 213.57826403 65.44140625 216.44140625 C65.40970692 218.21175639 65.37771273 219.98210128 65.34545898 221.75244141 C65.33006073 222.68066711 65.31466248 223.60889282 65.29879761 224.56524658 C65.07491295 237.74321773 64.80432896 250.8677886 63.625 264 C62.89560896 272.31907284 62.44741472 280.58481417 62.375 288.9375 C62.35751709 289.90768066 62.34003418 290.87786133 62.32202148 291.87744141 C62.33016095 302.18561957 65.25758652 309.13982788 71.5625 317.1875 C72.07941406 317.87650391 72.59632813 318.56550781 73.12890625 319.27539062 C77.35892496 324.79998685 81.06968058 329.03348607 88.18017578 330.54394531 C93.80719053 331.28690851 99.45822946 331.2442731 105.125 331.25 C106.39666016 331.27449219 107.66832031 331.29898437 108.97851562 331.32421875 C118.12963186 331.35268256 125.96054026 330.24433661 132.75 323.625 C140.81761339 314.97998287 144.98786042 302.71426531 148.97265625 291.765625 C150.32724272 288.40075765 152.12143133 285.40117308 153.9921875 282.296875 C157.8936493 275.73385962 160.84485709 268.92430042 163.75 261.875 C177.22824145 229.42803767 177.22824145 229.42803767 189 224.125 C201.71700183 219.48759708 214.90338389 216.74375152 228.20092773 214.39868164 C233.28659335 213.46196027 237.87304856 212.19857088 242.6875 210.25 C250.06356351 207.3969943 257.27896663 206.92942013 265.08984375 206.33203125 C283.84158979 204.89568515 302.87885682 202.54020601 319.55859375 193.28125 C323.15808081 191.66350301 326.49576436 191.21396686 330.375 190.875 C335.14786195 190.38000032 339.58970598 189.75672362 344.1875 188.3125 C349.85593225 186.60175693 355.43031368 186.42841594 361.3046875 186.28125 C366.09671251 185.99531321 370.63958892 184.77698344 375.29443359 183.65917969 C401.39618786 177.62674087 428.32525021 178.26795467 454.93988037 178.01959229 C462.31907317 177.93744178 469.68598254 177.74111522 477.05859375 177.41796875 C477.96231216 177.37988602 478.86603058 177.34180328 479.7971344 177.30256653 C483.86616703 177.10662811 487.7034488 176.77517344 491.6875 175.875 C493.14468725 175.71868028 494.60475846 175.58731577 496.06640625 175.48046875 C522.90658543 174.14203078 522.90658543 174.14203078 546.86328125 164.07421875 C548.86386001 161.66238611 549.79463893 159.62227393 550.875 156.6875 C557.10406862 141.14322845 565.49395823 128.39255268 576.36328125 115.76171875 C580.47518227 110.95098175 584.10397222 106.38812608 587.125 100.8125 C590.29585015 95.05549548 594.3378693 91.06478172 599.08203125 86.5703125 C601.53430197 84.03348072 603.1407058 81.73730871 604.875 78.6875 C613.72453317 63.81002394 629.17818796 52.40426734 643.375 43 C644.08841553 42.52264404 644.80183105 42.04528809 645.53686523 41.5534668 C651.10785499 37.95023275 656.56120502 35.62275082 663.3125 35.5 C664.38371094 35.45746094 664.38371094 35.45746094 665.4765625 35.4140625 C668.76477497 36.09959089 670.29792125 37.52688082 672.6875 39.875 C674.18429499 42.31579638 675.46337196 44.62019293 676.6875 47.1875 C677.0285376 47.88520508 677.3695752 48.58291016 677.72094727 49.30175781 C682.8927467 60.17097089 686.65690929 71.37071761 687.23730469 83.4296875 C687.30025789 84.69110062 687.30025789 84.69110062 687.36448288 85.97799683 C687.78418247 94.98451402 687.87016244 103.98507868 687.890625 113 C687.89345238 113.86353088 687.89627975 114.72706177 687.89919281 115.61676025 C687.91400346 120.17745242 687.92334941 124.73811439 687.92773438 129.29882812 C687.93322717 133.94085252 687.9573254 138.58258494 687.98570633 143.22451782 C688.00453895 146.86076626 688.00954889 150.49694671 688.01107025 154.13323975 C688.0140453 155.84244399 688.0218926 157.55164862 688.03525543 159.26080322 C688.10691958 169.12026496 687.55583662 178.53778935 685.78194046 188.25253296 C684.79930418 193.65655097 684.3719351 198.9503177 684.1875 204.4375 C683.97977832 210.04973787 683.28471674 214.83247629 681.37890625 220.1171875 C680.21441426 224.76199734 680.18899352 229.50851891 680.06640625 234.28125 C679.66809613 246.89440387 679.66809613 246.89440387 676.6875 249.875 C672.82686789 250.32673571 668.96703082 250.69332352 665.09570312 251.03710938 C653.75000046 252.12481119 645.83093627 254.54924799 637.6875 262.875 C636.84832031 263.679375 636.00914062 264.48375 635.14453125 265.3125 C619.95092352 280.03481414 610.14348494 297.06692925 600.5625 315.75 C594.53607632 327.44785068 587.59295552 337.13938949 578.81054688 346.93188477 C578.07481445 347.76417603 578.07481445 347.76417603 577.32421875 348.61328125 C576.88811279 349.09837158 576.45200684 349.58346191 576.00268555 350.08325195 C571.82567843 355.77381353 571.24028015 360.39776134 571.2890625 367.2265625 C571.28475723 368.56948868 571.28475723 368.56948868 571.28036499 369.93954468 C571.27832924 371.83063389 571.28382482 373.72174439 571.29638672 375.61279297 C571.31233381 378.47022151 571.2965804 381.32621109 571.27734375 384.18359375 C571.26656741 393.80628666 571.56819275 402.66352009 574.6875 411.875 C575.09077515 413.1597522 575.09077515 413.1597522 575.50219727 414.47045898 C579.41271702 426.39096924 588.44619071 436.16633121 597.39624023 444.61254883 C601.34461376 448.35535929 603.43755089 450.70877442 604.0625 456.125 C603.52920502 461.45794978 602.01850818 465.67008641 598.05371094 469.42041016 C592.83057661 473.39264853 587.53244022 475.827115 581.4375 478.1875 C573.64949807 481.33019341 567.75068295 484.7437594 561.25 490.0625 C557.2688708 492.87842066 553.44518238 493.38500613 548.6875 493.875 C532.188656 496.67444284 520.10606891 503.63644045 509.203125 516.16796875 C506.05955268 519.55072592 502.60075524 522.24577442 498.92578125 525.0234375 C496.78438582 526.79485362 495.2804144 528.53366006 493.625 530.75 C491.34417522 533.63002451 489.86914708 534.2824229 486.25 534.8125 C481.52145722 535.62288254 479.557142 537.27640386 476.63671875 541.02734375 C459.04126731 566.73292311 451.59301914 592.33772665 451.34570312 623.43359375 C451.1633449 631.29620207 450.67132724 639.4706995 445.13769531 645.58837891 C443.39920014 647.13888315 441.56026828 648.4897126 439.6875 649.875 C438.91664063 650.53886719 438.14578125 651.20273437 437.3515625 651.88671875 C435.06782617 653.85155496 432.73654002 655.72339756 430.35477448 657.56714439 C429.26616439 658.42107986 428.19011426 659.29134471 427.12917328 660.17942238 C414.40379984 670.66407446 401.77990766 670.20981897 385.890625 669.88671875 C383.32234987 669.87057149 380.75404427 669.85874884 378.18572998 669.85102844 C372.83622213 669.82530749 367.48843498 669.76968684 362.13964844 669.68432617 C354.5996423 669.56401371 347.06013206 669.50702002 339.5193429 669.46346223 C328.85788413 669.39882331 318.19665342 669.30340975 307.53613281 669.1472168 C306.49096497 669.13510162 305.44579712 669.12298645 304.36895752 669.11050415 C303.41053955 669.09467789 302.45212158 669.07885162 301.46466064 669.06254578 C300.63370502 669.05047938 299.8027494 669.03841299 298.94661331 669.02598095 C296.73800352 668.87837525 294.82291483 668.43198699 292.6875 667.875 C290.25301044 667.75982752 287.81590017 667.69669346 285.37890625 667.6640625 C283.90615537 667.63811103 282.43341793 667.61138807 280.96069336 667.58398438 C280.19207977 667.57069092 279.42346619 667.55739746 278.63156128 667.54370117 C257.27131623 667.15174496 257.27131623 667.15174496 247.125 665.375 C233.48310895 663.0984084 219.69794547 663.14681159 205.90270996 662.92645264 C202.89544465 662.87832771 199.88821446 662.82834162 196.88098907 662.77779007 C177.15025716 662.44644278 157.41909034 662.15027886 137.6875 661.875 C137.68163376 661.31282776 137.67576752 660.75065552 137.66972351 660.17144775 C137.6052725 654.26518815 137.52072702 648.3594477 137.42504883 642.45361328 C137.39200703 640.25609223 137.36391213 638.05849053 137.34106445 635.86083984 C137.34112659 620.45367803 137.34112659 620.45367803 134.40258789 605.41259766 C133.11514824 600.84392311 132.89739387 596.15556362 132.5625 591.4375 C132.41645688 589.54278267 132.26809895 587.64824204 132.1171875 585.75390625 C132.05772949 584.9347876 131.99827148 584.11566895 131.93701172 583.27172852 C131.73073235 580.86938881 131.73073235 580.86938881 131.1809845 578.52693176 C130.70446921 575.96619069 130.5544116 573.64778948 130.54223633 571.04736328 C130.53585648 570.11513947 130.52947662 569.18291565 130.52290344 568.22244263 C130.52123421 566.72401321 130.52123421 566.72401321 130.51953125 565.1953125 C130.51620285 564.15035614 130.51287445 563.10539978 130.50944519 562.02877808 C130.50438613 559.81476276 130.50203655 557.60073984 130.50219727 555.38671875 C130.50003033 552.04674154 130.48191798 548.70710546 130.46289062 545.3671875 C130.43631341 535.06721524 130.55521527 525.01955861 132.2199707 514.84057617 C134.66727447 499.31713028 130.93496518 481.67918255 121.6875 468.875 C114.14193296 462.10840522 106.41209275 462.37200382 96.6875 462.875 C83.7069473 463.74584721 74.59788596 469.34955367 65.84375 478.75390625 C63.68627392 480.87620609 61.58543822 482.319428 59 483.875 C47.63312063 491.13003431 44.21349875 505.76458579 41.4375 518.1875 C39.06504258 528.95021283 38.48299343 539.31476017 38.5 550.3125 C38.50060425 551.03108185 38.5012085 551.7496637 38.50183105 552.49002075 C38.52604525 563.08506145 38.91187396 573.40105397 40.6875 583.875 C47.4920768 624.26609514 47.4920768 624.26609514 38.359375 642.03515625 C35.41173345 645.27893935 31.81465161 646.62804644 27.54882812 647.12329102 C25.21193881 647.20642448 22.89994895 647.18813595 20.5625 647.125 C19.31279419 647.10530151 19.31279419 647.10530151 18.0378418 647.08520508 C15.58653355 647.03678826 13.13772522 646.96168371 10.6875 646.875 C9.41777344 646.83246094 8.14804687 646.78992188 6.83984375 646.74609375 C-1.04613617 646.31259544 -7.95899499 645.7567349 -13.5625 639.75 C-25.29023311 624.4405538 -24.89489508 604.56029762 -24.82043457 586.2644043 C-24.82504937 583.78553782 -24.83140616 581.30667408 -24.83934355 578.82781601 C-24.85251571 573.46097238 -24.8534025 568.09434112 -24.84315491 562.72750664 C-24.82795837 554.74699593 -24.83579403 546.76662005 -24.84798814 538.78611011 C-24.86900058 524.53116809 -24.8672463 510.27629798 -24.85567249 496.0213492 C-24.84559786 483.55137517 -24.84298927 471.08142746 -24.84776306 458.6114502 C-24.8480686 457.78328931 -24.84837414 456.95512842 -24.84868894 456.10187174 C-24.84993434 452.73992127 -24.85120795 449.37797081 -24.852528 446.01602037 C-24.86475219 414.50750643 -24.85368725 382.99903823 -24.83214041 351.49053136 C-24.81314517 323.50033628 -24.81486965 295.51021398 -24.83398438 267.52001953 C-24.85539978 236.05590925 -24.86389921 204.5918393 -24.85153532 173.12772274 C-24.85025247 169.77448973 -24.84900111 166.42125671 -24.84776306 163.06802368 C-24.84744675 162.24239993 -24.84713044 161.41677619 -24.84680455 160.56613354 C-24.84225476 148.09879597 -24.84757526 135.63148758 -24.85768127 123.16415405 C-24.86911013 108.99443656 -24.86627578 94.82480205 -24.8445583 80.65509492 C-24.83280487 72.72486137 -24.83205839 64.7948075 -24.847143 56.86457858 C-24.85715718 50.94772898 -24.84631271 45.03103843 -24.8272447 39.11420691 C-24.82276622 36.71752252 -24.82507265 34.32081415 -24.83474785 31.9241451 C-24.84687153 28.6722496 -24.83447645 25.42133837 -24.81586456 22.16949463 C-24.82522923 21.23408138 -24.83459389 20.29866813 -24.84424233 19.33490902 C-24.77648133 13.4310996 -23.78336287 8.75580407 -20.3125 3.875 C-13.97769545 -1.16698729 -7.68574829 -2.61025414 0 0 Z " fill="#000000" transform="translate(418.3125,106.125)"/>
<path d="M0 0 C1.08667969 -0.02900391 2.17335938 -0.05800781 3.29296875 -0.08789062 C14.43100311 -0.17438671 23.0845406 2.40767068 31.12890625 10.265625 C35.96981627 15.5613178 37.11088675 19.5178449 38.3125 26.5 C40.61780012 39.67755005 48.81901026 49.42749166 57.63110352 59.10351562 C61.94110816 63.88728364 65.54523267 68.84440988 68.9375 74.3125 C69.45328613 75.14209229 69.96907227 75.97168457 70.50048828 76.82641602 C79.0796094 90.8106242 84.80798668 104.42817874 89 120.3125 C89.27589966 121.32606567 89.27589966 121.32606567 89.55737305 122.36010742 C90.26714325 125.49084778 90.24807081 128.67799386 90.375 131.875 C90.98472002 143.97539652 93.08919984 155.78125178 95.43725586 167.65087891 C104.76386904 214.94395403 104.76386904 214.94395403 101.49595642 227.20339966 C100.97084068 229.43650269 100.85530398 231.41846646 100.82641602 233.71044922 C100.80618126 235.00231644 100.80618126 235.00231644 100.78553772 236.32028198 C100.77509933 237.2432608 100.76466095 238.16623962 100.75390625 239.1171875 C100.72096954 241.08203573 100.68775786 243.04687937 100.65429688 245.01171875 C100.60690359 248.10136788 100.56245555 251.19099815 100.52319336 254.28076172 C100.48337811 257.26809777 100.43186061 260.25505946 100.37890625 263.2421875 C100.3704921 264.16111786 100.36207794 265.08004822 100.35340881 266.02682495 C100.25945787 270.92449743 99.59459787 274.65428684 98 279.3125 C97.70359956 282.17370473 97.6958249 285.01979319 97.69921875 287.89453125 C97.69279106 289.11495369 97.69279106 289.11495369 97.68623352 290.36003113 C97.68051217 292.07537917 97.67997371 293.79075146 97.68432617 295.50610352 C97.68747784 298.1067123 97.66402908 300.70617286 97.63867188 303.30664062 C97.63639756 304.98176942 97.635696 306.65690123 97.63671875 308.33203125 C97.627509 309.09796097 97.61829926 309.86389069 97.60881042 310.6530304 C97.66076178 316.83120977 98.53240086 323.58963198 102.8125 328.3125 C109.03543114 331.15726852 117.35433791 331.53281456 124 330.3125 C129.63348176 326.86777647 134.01832591 322.71018895 136 316.3125 C136.2365732 314.79580295 136.44444726 313.27438103 136.625 311.75 C137.44993576 307.34174952 138.98622166 304.60770476 141.625 301 C145.53654871 295.53939313 147.80241615 290.06009217 150.0625 283.75 C152.59445989 276.70066673 155.20398459 270.66993212 159.484375 264.5 C162.39410829 260.30038495 164.40700094 255.64400976 166.48046875 250.98828125 C174.28886356 233.89937956 188.41371166 226.96176789 205.40890503 220.57775879 C213.66646055 217.59371418 222.13093073 215.60634129 230.6875 213.6875 C231.53216827 213.49484558 232.37683655 213.30219116 233.24710083 213.10369873 C250.68294337 209.14189137 268.19252512 206.2701521 286.02734375 204.80078125 C300.97092057 203.45819427 313.96460916 199.10861708 327.90625 193.91015625 C340.93009342 189.06704206 353.76210877 186.87992891 367.54272461 185.34960938 C371.97664829 184.85534805 376.30051304 184.30781599 380.64453125 183.27734375 C385.1449677 182.2107373 389.5841214 181.84334721 394.1875 181.5 C401.80163009 180.85594358 409.0218664 179.51333821 416.4375 177.6875 C424.28328746 175.7725913 431.88341388 174.03799474 440 175.3125 C440.99 175.9725 441.98 176.6325 443 177.3125 C445.56623622 177.49755617 448.02072759 177.56825925 450.5859375 177.54296875 C451.34711884 177.54296371 452.10830017 177.54295868 452.89254761 177.54295349 C455.38686592 177.53943628 457.88076744 177.52049712 460.375 177.5 C462.09602755 177.49179141 463.81705623 177.48381784 465.53808594 177.47607422 C476.11109704 177.41440451 486.6814545 177.25334319 497.25 176.9375 C498.97549072 176.8914563 498.97549072 176.8914563 500.73583984 176.84448242 C510.00733344 176.51113931 518.57442858 174.79072531 527.5 172.375 C528.6859375 172.05660156 529.871875 171.73820313 531.09375 171.41015625 C531.70871338 171.2287207 532.32367676 171.04728516 532.95727539 170.86035156 C535 170.3125 535 170.3125 537.44702148 169.89746094 C541.49344812 169.05976754 544.15264848 168.25605047 546.96337891 165.1262207 C548.82040944 162.29634945 550.45998322 159.4187131 552.0625 156.4375 C553.26013049 154.34079432 554.46063886 152.24572977 555.6640625 150.15234375 C556.51919434 148.63809814 556.51919434 148.63809814 557.39160156 147.09326172 C560.57556371 141.58850627 564.28688739 136.47043264 568 131.3125 C569.14866382 129.68949955 570.29459093 128.06455805 571.4375 126.4375 C572.27667969 125.24447266 572.27667969 125.24447266 573.1328125 124.02734375 C574.54775712 121.97004979 575.93497431 119.90350813 577.3046875 117.81640625 C585.60399429 105.17078003 594.7094346 93.45048537 604.5703125 81.98925781 C606.03243093 80.27446455 607.47106735 78.54206436 608.90625 76.8046875 C619.77136224 63.72774243 630.94641446 53.35711129 646 45.3125 C646.63180176 44.9731543 647.26360352 44.63380859 647.91455078 44.28417969 C659.71728923 38.01160752 672.35338963 33.11107171 685.79296875 37.15234375 C695.29894155 42.01167925 700.60562155 51.47134689 705.5625 60.5 C706.1282373 61.51940674 706.69397461 62.53881348 707.27685547 63.58911133 C722.90220497 91.98096348 723.32632827 118.86752645 723.19561768 150.52453613 C723.18479147 153.82595806 723.1851499 157.12733822 723.18575573 160.42877483 C723.18548088 163.66086446 723.17995046 166.89292853 723.17275429 170.12500954 C723.16962651 171.64408997 723.16761444 173.16317323 723.16686058 174.6822567 C723.13751042 202.87633369 723.13751042 202.87633369 720.5 210.125 C718.93967575 214.64919374 718.71361686 219.0071034 718.5625 223.75 C718.16597126 235.35491807 716.34205245 246.70061026 714.50097656 258.15136719 C714.04678046 261.01731801 713.6221961 263.88544498 713.2109375 266.7578125 C712.97454485 268.33862948 712.7376106 269.91936563 712.5 271.5 C712.40605957 272.18715088 712.31211914 272.87430176 712.21533203 273.58227539 C711.28139905 279.50677442 709.31652137 284.98207951 705.046875 289.27734375 C702.6655132 290.4816584 700.90968372 290.74370988 698.25 290.875 C694.49714942 291.15238461 691.08982157 291.70651346 687.453125 292.7265625 C684.73550238 293.37567618 682.0031331 293.78911066 679.2434082 294.21630859 C667.45180222 296.14329918 660.40421159 299.81342808 653.25 309.5625 C651.45542725 312.11746405 649.71748502 314.70526833 648 317.3125 C647.43539062 318.1478125 646.87078125 318.983125 646.2890625 319.84375 C643.89562324 323.59920165 641.91307491 327.45437362 640.09765625 331.515625 C635.80421893 341.08166976 631.10040361 349.37519859 624.74145508 357.7277832 C620.65758727 363.16593055 617.48220874 368.67492571 614.79858398 374.92456055 C613.11852177 378.67937735 611.41756289 380.95805642 608.3046875 383.68359375 C605.52559401 386.32354803 604.51298113 387.92548109 604.28125 391.7734375 C604.31657103 393.41269999 604.39123863 395.0514682 604.5 396.6875 C604.5319043 397.56092041 604.56380859 398.43434082 604.59667969 399.33422852 C604.66759064 401.1283082 604.75448916 402.92182789 604.85742188 404.71435547 C604.98971043 407.12499729 605.06126066 409.52784449 605.109375 411.94140625 C605.37124486 421.54687862 605.90009845 432.2754781 612.1875 440 C613.115625 440.763125 614.04375 441.52625 615 442.3125 C626.17632298 453.74139525 638.45813482 469.47962261 638.28125 486.12890625 C637.62368535 493.57217276 635.63986304 501.33004855 630.58618164 507.02856445 C627.52559027 509.50596172 623.8234804 510.10176605 620.0625 511 C612.43476123 513.08911197 606.91202262 515.83544834 601.06860352 521.1784668 C591.62534654 529.68246272 579.24317144 533.1294756 567.375 536.875 C550.18547957 541.35635269 550.18547957 541.35635269 537 552.125 C534.27318506 555.84889272 531.62437178 558.59455371 527.9375 561.375 C522.00696591 565.90045371 517.1243907 571.12518698 514.3125 578.125 C512.91182263 581.52664505 512.04894728 583.25240049 509 585.3125 C506.24284163 585.63531509 503.79299285 585.49869952 501 585.3125 C498.97200138 589.35227324 497.00793682 593.41993709 495.0625 597.5 C494.71509766 598.21736328 494.36769531 598.93472656 494.00976562 599.67382812 C490.28327166 607.51279942 487.70434156 615.29334089 486.375 623.875 C486.24657715 624.67437988 486.1181543 625.47375977 485.98583984 626.29736328 C484.98544137 633.09514229 484.77529841 639.82619025 484.625 646.6875 C484.10610762 665.42642371 476.4536602 677.63147642 463.0390625 690.62109375 C454.33972512 698.52569795 444.18997542 704.59229792 434.08203125 710.5 C432.01952404 711.712932 429.99086878 712.98525415 428 714.3125 C422.58447713 715.38472428 417.26837965 715.46074657 411.77368164 715.45776367 C410.87486771 715.46112228 409.97605377 715.4644809 409.05000305 715.46794128 C406.08670654 715.47741333 403.12346695 715.47939366 400.16015625 715.48046875 C398.07531207 715.48368795 395.99046811 715.48705251 393.90562439 715.49055481 C389.52863036 715.49653964 385.15165604 715.49839578 380.7746582 715.49780273 C375.23605327 715.49770207 369.69757933 715.51125656 364.15900517 715.52857494 C359.84398349 715.53984911 355.52899171 715.54171716 351.21395683 715.54119301 C349.17675775 715.54235385 347.13955738 715.54666536 345.10237312 715.55452538 C332.05618176 715.60008163 319.20832478 714.99399043 306.21769714 713.77203369 C299.5642026 713.15330858 292.93003829 712.99207384 286.25 712.875 C276.14114264 712.61659225 266.3835176 711.79497922 256.4296875 710.03125 C244.84019598 708.04974132 233.09805983 708.02508944 221.37475586 707.76025391 C219.12864316 707.7082462 216.88269862 707.65116969 214.63671875 707.59375 C213.61936897 707.57338684 213.61936897 707.57338684 212.58146667 707.5526123 C209.72675735 707.47859315 206.99569585 707.31173333 204.18182373 706.81051636 C200.89207691 706.29560797 197.79163482 706.17408462 194.46313477 706.15478516 C193.18483292 706.14452301 191.90653107 706.13426086 190.5894928 706.12368774 C189.91376787 706.12024982 189.23804295 706.1168119 188.54184151 706.11326981 C186.40963415 706.10138541 184.27762079 706.08191079 182.14549255 706.06015015 C176.08688867 705.99884218 170.02831001 705.944517 163.96948242 705.91113281 C160.25357728 705.89011506 156.53803621 705.85476377 152.82234001 705.81037521 C151.41308833 705.79628046 150.00377237 705.78750761 148.59445381 705.78432083 C134.78239791 705.74977037 134.78239791 705.74977037 129 702.3125 C127.4765625 700.375 127.4765625 700.375 126.625 698.3125 C126.32851563 697.631875 126.03203125 696.95125 125.7265625 696.25 C124.15420659 692.0570509 123.8711781 688.82080093 123.8671875 684.3359375 C123.86623077 683.65125397 123.86527405 682.96657043 123.86428833 682.26113892 C123.86360808 680.81032215 123.8654516 679.35950232 123.86962891 677.90869141 C123.87493012 675.71639925 123.86970444 673.52431662 123.86328125 671.33203125 C123.86004918 664.25360598 124.08078747 657.34094042 125 650.3125 C125.12907113 648.1480764 125.21715122 645.9805198 125.25 643.8125 C125.28867187 642.28109375 125.28867187 642.28109375 125.328125 640.71875 C125.04632984 637.79344786 124.56711662 635.8620202 123.5859375 633.15234375 C121.63300734 627.65799226 121.01446568 622.14835779 120.375 616.375 C120.25382813 615.35470703 120.13265625 614.33441406 120.0078125 613.28320312 C119.76859902 611.24598834 119.53761275 609.20779034 119.31494141 607.16870117 C119.12466574 605.44309262 118.92222679 603.71868085 118.69677734 601.99731445 C117.72205251 594.00128136 117.84949852 585.96909306 117.86962891 577.92700195 C117.8749806 575.38421649 117.86966213 572.84160818 117.86328125 570.29882812 C117.85327363 548.75267912 117.85327363 548.75267912 120 542.3125 C120.31124064 538.46375338 120.32406041 534.60983159 120.375 530.75 C120.41238281 529.70263672 120.44976563 528.65527344 120.48828125 527.57617188 C120.57329279 519.97708474 118.98952993 514.77452894 115 508.3125 C103.43180429 507.45559661 94.60414233 512.9316303 86 520.3125 C81.33168829 525.67119584 79.11122017 531.19420034 77.53387451 538.10461426 C77.15675876 539.66421014 76.72581979 541.21125563 76.25762939 542.74597168 C74.23957199 549.41552741 73.58065712 555.398989 73.671875 562.34375 C73.67468475 563.84125793 73.67468475 563.84125793 73.67755127 565.36901855 C73.684217 567.45633336 73.69802029 569.54363686 73.71875 571.63085938 C73.75019299 574.83214875 73.75975799 578.03294573 73.765625 581.234375 C73.77478529 583.27083937 73.78515793 585.30729873 73.796875 587.34375 C73.80112488 588.29995239 73.80537476 589.25615479 73.80975342 590.24133301 C73.81936096 591.1265564 73.82896851 592.01177979 73.83886719 592.92382812 C73.84569519 593.7011731 73.85252319 594.47851807 73.85955811 595.27941895 C73.9289128 597.51606888 73.9289128 597.51606888 75 600.3125 C75.10045046 601.68768587 75.15442655 603.06662818 75.17578125 604.4453125 C75.04494955 614.53769913 75.04494955 614.53769913 78.0625 623.9375 C82.38884833 631.80358786 80.73064563 644.87700536 78.88671875 653.4296875 C75.94240417 663.00195252 71.92512604 672.9365194 65 680.3125 C64.525625 680.85003906 64.05125 681.38757813 63.5625 681.94140625 C56.06298596 689.42217151 44.30354478 692.09754427 34 692.3125 C32.06833984 692.38791016 32.06833984 692.38791016 30.09765625 692.46484375 C14.7371585 692.8992113 0.43028402 690.74355366 -11.6875 680.625 C-21.28367405 671.51705235 -26.00853814 660.31461361 -31 648.3125 C-31.57427734 646.96865234 -31.57427734 646.96865234 -32.16015625 645.59765625 C-34.78439805 638.45727741 -35.3648881 630.85352077 -35 623.3125 C-34.67 622.9825 -34.34 622.6525 -34 622.3125 C-33.89995444 619.2687454 -33.8664163 616.247615 -33.87415886 613.20336914 C-33.8719787 611.7443955 -33.8719787 611.7443955 -33.86975449 610.25594765 C-33.8660664 606.95316866 -33.86959384 603.65043501 -33.87301636 600.34765625 C-33.87186563 597.97319738 -33.87027844 595.59873868 -33.86828911 593.22428036 C-33.86496865 588.03911913 -33.86479474 582.85396734 -33.86733627 577.66880608 C-33.8711055 569.95809726 -33.86919188 562.24739728 -33.86612797 554.53668853 C-33.8608503 540.76626605 -33.86132349 526.99584819 -33.86420688 513.22542527 C-33.86671885 501.16996685 -33.86738082 489.11451014 -33.86618423 477.05905151 C-33.86610785 476.26050428 -33.86603146 475.46195705 -33.86595276 474.63921142 C-33.86564144 471.39785529 -33.86532304 468.15649915 -33.864993 464.91514302 C-33.86193067 434.47714848 -33.86471231 404.03915689 -33.8700899 373.60116281 C-33.87483222 346.55328013 -33.87441431 319.50540216 -33.86962891 292.45751953 C-33.86427392 262.08855937 -33.86215146 231.71960182 -33.86524117 201.35064125 C-33.86556189 198.1125857 -33.86587474 194.87453016 -33.86618423 191.63647461 C-33.86626331 190.83915009 -33.86634239 190.04182557 -33.86642386 189.2203397 C-33.86756155 177.17741 -33.86623058 165.13448218 -33.86370468 153.09155273 C-33.86084581 139.39254303 -33.86155926 125.6935387 -33.86698543 111.99452966 C-33.8699224 104.32681129 -33.87011242 96.65910454 -33.86633925 88.99138647 C-33.86383332 83.26756081 -33.86655031 77.54374718 -33.87131383 71.8199234 C-33.8724324 69.5028504 -33.87185918 67.18577585 -33.86943804 64.86870384 C-33.86640175 61.72190035 -33.86951211 58.57516017 -33.87415886 55.42835999 C-33.87181769 54.52658164 -33.86947653 53.62480329 -33.86706442 52.69569832 C-33.88149702 47.81250885 -34.17007564 43.09246473 -34.85891629 38.25558561 C-35.2146914 33.3556472 -32.63957498 28.7076157 -30.80322266 24.27734375 C-29.95770963 22.20904928 -29.17208779 20.12305477 -28.38671875 18.03125 C-23.34338142 5.07063632 -23.34338142 5.07063632 -16.796875 1.94140625 C-11.1303271 -0.04188552 -5.97389627 0.0516773 0 0 Z M-10.4375 28.375 C-12.32836886 31.92983346 -13.12485558 34.53822994 -13.12880117 38.50749034 C-13.13207336 39.36874952 -13.13534555 40.2300087 -13.13871691 41.11736664 C-13.13723328 42.06591496 -13.13574966 43.01446328 -13.13422108 43.99175549 C-13.13657331 45.00175931 -13.13892554 46.01176314 -13.14134905 47.05237314 C-13.1480583 50.47024402 -13.14758024 53.88807705 -13.14717102 57.30595398 C-13.15046847 59.76789607 -13.15419379 62.22983762 -13.1583125 64.69177848 C-13.16729963 70.7701488 -13.17156238 76.84850678 -13.17383147 82.92688201 C-13.17679084 90.2051517 -13.18548686 97.48341169 -13.19424575 104.7616763 C-13.21510506 122.35835432 -13.22556338 139.95503403 -13.23437535 157.55172153 C-13.23858087 165.87722338 -13.24380308 174.20272451 -13.24905988 182.52822576 C-13.26695386 211.02868382 -13.28194859 239.52914208 -13.28938007 268.02960491 C-13.28985483 269.81947237 -13.29033072 271.60933983 -13.29080774 273.39920728 C-13.29104411 274.28682423 -13.29128049 275.17444118 -13.29152403 276.08895561 C-13.29272523 280.58607783 -13.29394067 285.08320005 -13.29516602 289.58032227 C-13.29540617 290.47279224 -13.29564632 291.3652622 -13.29589374 292.28477672 C-13.30378253 321.20549461 -13.32720374 350.12617143 -13.35972196 379.04687139 C-13.39403986 409.62403406 -13.41373318 440.2011727 -13.41702431 470.77835494 C-13.41744185 474.13698917 -13.41792141 477.49562338 -13.41844749 480.85425758 C-13.41857069 481.68124645 -13.41869388 482.50823532 -13.4188208 483.36028446 C-13.42115073 496.65638454 -13.43679951 509.95243687 -13.45728934 523.24851995 C-13.47757177 536.62260235 -13.48301328 549.99662756 -13.47351871 563.3707225 C-13.46831265 571.31032757 -13.47413863 579.24974188 -13.49605338 587.1893194 C-13.51120187 593.12787943 -13.50528661 599.06630029 -13.49138286 605.00486729 C-13.48900578 607.40006988 -13.49333541 609.79529097 -13.50521151 612.19046529 C-13.58657917 629.69081857 -13.42450481 650.2088745 -0.67578125 663.875 C5.60819501 669.26545049 14.12169583 669.04855681 22 669.3125 C23.15459717 669.35334717 23.15459717 669.35334717 24.33251953 669.39501953 C26.84672623 669.47360394 29.35989519 669.52285566 31.875 669.5625 C32.67139893 669.58401123 33.46779785 669.60552246 34.28833008 669.62768555 C39.61845699 669.65730047 43.34148918 668.98693772 48 666.3125 C56.24302062 656.2637061 56.55435016 643.68961297 56 631.3125 C55.38410315 626.23168142 54.49710353 621.21839613 53.5625 616.1875 C50.96705025 601.89435094 49.76446891 588.0824794 49.75 573.5625 C49.74899292 572.85528809 49.74798584 572.14807617 49.74694824 571.41943359 C49.7569217 561.04938529 50.34474355 551.40705253 53 541.3125 C53.28700641 539.97778734 53.56803486 538.64177827 53.84375 537.3046875 C56.91916039 522.95900246 61.68072114 512.24862484 73.8125 503.5 C76.8326531 501.27913127 79.53237365 498.89252501 82.25 496.3125 C89.62867071 489.68441821 98.01686726 485.40942362 108 485.3125 C109.04414062 485.26351563 110.08828125 485.21453125 111.1640625 485.1640625 C119.03163056 484.92893978 125.35709331 485.07499515 131.4921875 490.52734375 C141.21824973 501.32902968 144.67765762 516.89457134 144.22338867 531.09887695 C143.99843103 534.33507088 143.51919198 537.44380786 142.99609375 540.64453125 C141.5468487 550.62380733 141.70003634 560.6574006 141.73925781 570.7199707 C141.75001394 574.00425529 141.73928938 577.28799719 141.7265625 580.57226562 C141.68956797 594.37481028 141.68956797 594.37481028 143.53662109 608.02661133 C144.42395385 612.40390143 144.4030918 616.82687155 144.55859375 621.28125 C144.78214397 624.46512252 145.56265442 627.21762767 146.4921875 630.265625 C149.148375 640.42261871 148.57909779 651.13561117 148.6875 661.5625 C148.72072424 663.77215505 148.75521849 665.98179139 148.79101562 668.19140625 C148.87533305 673.56497585 148.94392324 678.93856535 149 684.3125 C149.73882416 684.32280746 150.47764832 684.33311493 151.23886108 684.34373474 C170.89914629 684.61932159 190.55894318 684.9188528 210.21838379 685.24932861 C213.50461765 685.3042247 216.79087563 685.35717451 220.07714844 685.40966797 C247.28447766 685.8594684 247.28447766 685.8594684 260.77416992 688.22167969 C271.1799115 689.91061881 281.75512518 689.83957049 292.27319336 690.02148438 C293.01737518 690.03533173 293.76155701 690.04917908 294.52828979 690.06344604 C296.5741887 690.099497 298.62022666 690.1273891 300.66625977 690.15478516 C304 690.3125 304 690.3125 305.90978622 690.81063557 C308.25522467 691.37377995 310.36556803 691.46502679 312.77716064 691.50004578 C313.73557861 691.51587204 314.69399658 691.5316983 315.68145752 691.54800415 C316.72662537 691.56011932 317.77179321 691.5722345 318.84863281 691.5847168 C319.95493042 691.60092575 321.06122803 691.6171347 322.2010498 691.63383484 C332.42451157 691.77427721 342.64886469 691.85369498 352.87309647 691.91275311 C360.4127336 691.95716271 367.95053091 692.03402649 375.48934674 692.15433758 C381.45432721 692.24626539 387.41892342 692.28227801 393.38460541 692.30021095 C395.90585917 692.31606258 398.4270706 692.34910704 400.94785309 692.40036583 C416.76579892 692.70647037 427.68489324 691.67850405 440 681.3125 C441.18610751 680.3644749 442.37385428 679.4184968 443.56329346 678.47465515 C446.4385658 676.15068732 449.22161944 673.75075433 452 671.3125 C453.52753906 670.23935547 453.52753906 670.23935547 455.0859375 669.14453125 C459.93577934 665.03960748 461.66833179 659.30165398 462.35205078 653.13964844 C462.50940085 649.65163755 462.55421857 646.178951 462.5625 642.6875 C462.7667165 632.17205766 463.50615675 622.55626868 466 612.3125 C466.28239568 610.99531407 466.56227487 609.67758652 466.83984375 608.359375 C469.87679146 594.48433063 475.26587313 582.48618482 483.0625 570.625 C483.55685547 569.87041504 484.05121094 569.11583008 484.56054688 568.33837891 C487.59952012 563.88155358 490.57165944 560.42693731 495 557.3125 C496.7015625 557.1578125 496.7015625 557.1578125 498.4375 557 C503.05810146 556.10830498 504.02358139 554.32732619 506.85546875 550.75390625 C509.47080455 547.77652032 512.37187096 545.37258088 515.4375 542.875 C519.3889003 539.64634877 522.88244177 536.47129813 526.125 532.5 C530.3352577 527.55867245 535.16510655 525.01035396 541 522.3125 C541.9384375 521.8484375 542.876875 521.384375 543.84375 520.90625 C550.68819433 517.74161445 557.10350367 516.54227095 564.5546875 515.96484375 C569.33798681 515.05916236 572.27938855 512.66983456 576.03515625 509.70703125 C582.58765518 504.59380954 589.83925577 501.62653425 597.51196289 498.59692383 C605.22614645 495.48363653 610.79610542 492.20208788 614.3046875 484.359375 C615.40261527 481.12727302 615.49913564 478.68166559 615 475.3125 C612.21431995 470.50869071 608.81305705 467.05629615 604.8125 463.3125 C591.42689367 450.28637775 583.13265449 434.41116307 582.75845337 415.43435669 C582.71339809 411.74124655 582.6729817 408.04830155 582.64990234 404.35498047 C582.6333303 402.41345239 582.60602382 400.47198563 582.56787109 398.53076172 C582.51284927 395.71029494 582.49119497 392.89124501 582.4765625 390.0703125 C582.45389313 389.21172638 582.43122375 388.35314026 582.40786743 387.46853638 C582.44068237 378.01678984 587.73685462 372.32878872 593.8125 365.625 C602.26040224 355.9719083 608.02271186 345.34248434 613.875 334 C623.02655017 316.28317084 633.08566427 300.57537499 647.55859375 286.6953125 C648.92146638 285.3878412 650.21365032 284.00782591 651.5 282.625 C660.07227503 274.6956456 670.34050209 273.98736956 681.4609375 273.18945312 C682.275625 273.11791016 683.0903125 273.04636719 683.9296875 272.97265625 C684.66429199 272.91730713 685.39889648 272.86195801 686.15576172 272.80493164 C688.40411202 272.42218716 688.40411202 272.42218716 690 269.3125 C690.94104601 265.18167464 691.14073014 261.10985574 691.29101562 256.89453125 C691.7091043 245.28527836 691.7091043 245.28527836 693.5 240.3125 C695.32640241 235.17574323 695.3934312 230.04555945 695.57457352 224.65634155 C695.79879664 219.12429294 696.51754705 213.84939011 697.51074219 208.41015625 C699.16322264 198.62324123 699.40555608 189.09121532 699.328125 179.1875 C699.32505146 177.4217139 699.32318751 175.65592534 699.32244873 173.89013672 C699.31789599 170.22288439 699.3036713 166.55585782 699.28125 162.88867188 C699.25297284 158.24674266 699.24203103 153.6049894 699.2375679 148.96298218 C699.23235196 144.45446668 699.21788673 139.9459925 699.203125 135.4375 C699.20124428 134.60893494 699.19936356 133.78036987 699.19742584 132.92669678 C699.17122553 123.99754043 699.02073711 115.08085482 698.61621094 106.16015625 C698.58665943 105.40046539 698.55710793 104.64077454 698.52666092 103.85806274 C697.74067162 88.54935841 691.2471725 70.81660218 681 59.3125 C676.44642574 57.03571287 670.98672417 58.04937355 666.25 59.3125 C652.16106379 65.27428538 640.42134083 75.59474311 629.42822266 85.96777344 C628.12091066 87.19865796 626.80128632 88.41643167 625.48046875 89.6328125 C620.6779392 94.19807909 617.33703678 98.82481525 613.9453125 104.49609375 C611.75551502 107.6664632 609.29587913 110.10267575 606.5 112.75 C601.83772908 117.2158981 598.91204157 121.57235857 595.86328125 127.21875 C593.76338994 130.70536199 591.36147905 133.63507557 588.6875 136.6875 C577.10847665 150.01840427 565.68823406 165.55352787 560.68359375 182.6953125 C558.72337572 186.90682502 557.42088766 187.8140159 553.27441406 189.53808594 C549.34703952 190.87531565 545.41202706 191.98236988 541.375 192.9375 C540.49763184 193.14987305 539.62026367 193.36224609 538.71630859 193.58105469 C527.8986595 196.13360039 517.14994114 197.43811027 506.05859375 198.06640625 C503.14239489 198.22628433 503.14239489 198.22628433 500.91210938 198.79370117 C496.73802513 199.53732366 492.57927893 199.68019244 488.34765625 199.859375 C487.3847316 199.90173279 486.42180695 199.94409058 485.42970276 199.98773193 C477.99338957 200.28866037 470.56288415 200.40394165 463.12109375 200.453125 C431.21950696 200.65217379 431.21950696 200.65217379 399.5 203.75 C398.36061478 203.91405334 398.36061478 203.91405334 397.19821167 204.0814209 C391.49752848 204.92308728 385.85781583 205.77934274 380.30957031 207.37158203 C376.54427763 208.44206285 373.15791905 208.62256786 369.25 208.75 C363.49610929 209.0090833 358.38120737 209.83991803 352.890625 211.57421875 C350.02204223 212.3068703 347.24411241 212.62461245 344.29907227 212.88085938 C334.6963597 213.73209471 327.52118996 216.99147105 319 221.3125 C304.14139691 227.88554306 284.38087405 229.01383659 268.375 229.625 C262.00974359 230.0013689 257.06056538 231.6020341 251.16796875 233.92578125 C245.90358565 235.82603709 240.42507613 236.72354095 234.9375 237.75 C226.68066876 239.31776063 218.53510512 241.05309269 210.4375 243.3125 C209.60017334 243.53736084 208.76284668 243.76222168 207.90014648 243.99389648 C197.64487048 246.95268994 190.52438096 252.1233432 185.23828125 261.40625 C180.18782672 270.97134677 176.09265144 280.98356442 172.0324707 290.99926758 C169.58599962 296.94482959 166.86318178 302.32857963 163.45947266 307.77539062 C160.24695566 313.35994678 158.12573302 319.4898552 155.7890625 325.47851562 C152.39193732 333.9442814 148.47820148 341.66935705 141.5 347.75 C140.7884375 348.38808594 140.076875 349.02617187 139.34375 349.68359375 C134.6335742 352.95716593 129.98911891 353.56689641 124.3515625 353.578125 C123.09859375 353.58070313 121.845625 353.58328125 120.5546875 353.5859375 C119.25789062 353.57820313 117.96109375 353.57046875 116.625 353.5625 C115.3359375 353.57023437 114.046875 353.57796875 112.71875 353.5859375 C95.56402686 353.5507122 95.56402686 353.5507122 88.64306641 347.07373047 C85.82676034 344.05488471 83.48400591 340.79870486 81.1875 337.375 C80.71119141 336.69759766 80.23488281 336.02019531 79.74414062 335.32226562 C74.48566638 327.60835755 73.66552885 320.65727022 73.75 311.5 C73.75459229 310.44087402 73.75918457 309.38174805 73.76391602 308.29052734 C73.85681044 299.93002926 74.46734136 291.66744732 75.21557617 283.34423828 C76.30457192 270.31665805 76.44120937 257.25587492 76.65795898 244.18994141 C76.68241592 242.8475515 76.68241592 242.8475515 76.70736694 241.4780426 C76.73772228 239.78275193 76.7639008 238.08737978 76.78530884 236.39195251 C76.8438304 233.12328229 76.95938118 230.43435645 78 227.3125 C78.19892095 223.06495273 78.10841763 218.82256841 78.02832031 214.57275391 C78.00050448 212.35276266 78.02632143 210.1378581 78.0546875 207.91796875 C77.99960083 191.92447356 74.05687047 176.71659043 70.39402771 161.24580383 C66.71311276 145.67925473 66.71311276 145.67925473 66.8125 138.8125 C66.81894531 137.8121875 66.82539063 136.811875 66.83203125 135.78125 C67 133.3125 67 133.3125 68 131.3125 C68.85515395 124.59343322 67.02319647 121.01576023 63.625 115.2734375 C61.99787462 112.30862731 60.90706472 109.4451632 59.8125 106.25 C54.82077042 92.79472891 46.11199359 81.07212646 37.25585938 69.91748047 C28.44213046 58.65358974 21.72328964 47.75301005 17.78588867 33.93212891 C15.80887693 26.91856697 15.80887693 26.91856697 10.8125 22 C2.2747873 19.91300356 -4.86411194 21.37253808 -10.4375 28.375 Z " fill="#E4181E" transform="translate(407,83.6875)"/>
<path d="M0 0 C3.031875 -0.061875 6.06375 -0.12375 9.1875 -0.1875 C10.60712036 -0.22846802 10.60712036 -0.22846802 12.05541992 -0.27026367 C16.84936401 -0.3175874 20.15522761 -0.20273273 24 3 C26.33909307 6.5086396 26.41291057 7.87089433 26 12 C24.5 14.875 24.5 14.875 23 17 C23.825 17.680625 24.65 18.36125 25.5 19.0625 C28 22 28 22 28.625 25.4375 C27.80149111 30.13150066 26.38685438 31.69190967 23 35 C20.11734851 35.96088383 18.32337729 36.11670941 15.33203125 36.09765625 C14.52741455 36.09515869 13.72279785 36.09266113 12.89379883 36.09008789 C11.36855591 36.07643188 11.36855591 36.07643188 9.8125 36.0625 C4.9553125 36.0315625 4.9553125 36.0315625 0 36 C0 24.12 0 12.24 0 0 Z " fill="#AAAAAA" transform="translate(733,903)"/>
<path d="M0 0 C0.99 0.66 1.98 1.32 3 2 C3.33 1.67 3.66 1.34 4 1 C5.66617115 0.95936168 7.33388095 0.957279 9 1 C9.08735463 5.54154478 9.14051247 10.08287232 9.1875 14.625 C9.21263672 15.91019531 9.23777344 17.19539062 9.26367188 18.51953125 C9.27333984 19.76347656 9.28300781 21.00742187 9.29296875 22.2890625 C9.3086792 23.43068848 9.32438965 24.57231445 9.34057617 25.74853516 C8.95137088 29.46425998 7.94524367 31.82637789 6 35 C1.66665607 37.95455268 -1.81081509 38.5660929 -7 38 C-10.5386994 36.34860695 -11.81070153 35.28394771 -14 32 C-14 31.01 -14 30.02 -14 29 C-11.625 29.3125 -11.625 29.3125 -9 30 C-8.34 30.99 -7.68 31.98 -7 33 C-2.34854408 33.38024775 -2.34854408 33.38024775 2 32 C2.40729228 29.67843403 2.74438677 27.3431213 3 25 C2.46375 25.33 1.9275 25.66 1.375 26 C-1.73799811 27.31073605 -3.64137591 27.47020737 -7 27 C-11.12414745 24.22413152 -13.83264089 21.90290827 -15 17 C-15.47696886 11.75334256 -14.86233294 8.44155111 -12 4 C-8.18066675 -0.03151843 -5.48245114 -0.60916124 0 0 Z " fill="#A3A3A3" transform="translate(673,912)"/>
<path d="M0 0 C2.4375 1.5 2.4375 1.5 4 3 C4.33 2.34 4.66 1.68 5 1 C6.32 1 7.64 1 9 1 C9.08735463 5.54154478 9.14051247 10.08287232 9.1875 14.625 C9.21263672 15.91019531 9.23777344 17.19539062 9.26367188 18.51953125 C9.27333984 19.76347656 9.28300781 21.00742187 9.29296875 22.2890625 C9.3086792 23.43068848 9.32438965 24.57231445 9.34057617 25.74853516 C8.95137088 29.46425998 7.94524367 31.82637789 6 35 C1.67481024 37.94899302 -1.81962079 38.6475474 -7 38 C-10.4375 36.25 -10.4375 36.25 -13 34 C-13 32.68 -13 31.36 -13 30 C-11.68 30 -10.36 30 -9 30 C-8.54625 30.495 -8.0925 30.99 -7.625 31.5 C-5.99547215 33.29606268 -5.99547215 33.29606268 -3 33.375 C-0.05865156 33.22372733 -0.05865156 33.22372733 1.875 31.8125 C3.34781139 29.43963721 3.22223194 27.74086056 3 25 C2.01 25.66 1.02 26.32 0 27 C-4.11136265 27.45681807 -6.26502493 27.45731782 -9.8125 25.25 C-13.3796767 21.58090397 -14.30360691 18.72246696 -14.375 13.625 C-14.28858133 8.64595521 -13.40761604 5.79705788 -10 2 C-6.28986601 -0.47342266 -4.38939738 -0.38503486 0 0 Z " fill="#A8A8A8" transform="translate(515,912)"/>
<path d="M0 0 C1.32 0 2.64 0 4 0 C4 11.88 4 23.76 4 36 C2.35 35.67 0.7 35.34 -1 35 C-1.928125 35.495 -1.928125 35.495 -2.875 36 C-6.21883049 37.57356729 -8.48986256 36.92372038 -12 36 C-15.57801645 32.96646431 -17.81647738 30.89814824 -18.2734375 26.171875 C-18.58134921 15.79761905 -18.58134921 15.79761905 -15.625 12.25 C-11.84566462 9.01056967 -9.94622697 8.70322638 -5 9 C-3.68 9.66 -2.36 10.32 -1 11 C-0.67 7.37 -0.34 3.74 0 0 Z " fill="#ACACAC" transform="translate(812,903)"/>
<path d="M0 0 C2.84481149 0.82205586 4.71095989 2.1273162 6.421875 4.56640625 C8.16707736 9.05166063 7.98827122 13.95247095 7.23046875 18.64453125 C5.67936716 21.74222542 4.02082649 24.54323496 1.23046875 26.64453125 C-0.9609375 26.97265625 -0.9609375 26.97265625 -3.33203125 26.89453125 C-4.50958984 26.87132812 -4.50958984 26.87132812 -5.7109375 26.84765625 C-7.76953125 26.64453125 -7.76953125 26.64453125 -9.76953125 25.64453125 C-10.09953125 29.27453125 -10.42953125 32.90453125 -10.76953125 36.64453125 C-12.08953125 36.64453125 -13.40953125 36.64453125 -14.76953125 36.64453125 C-14.76953125 24.76453125 -14.76953125 12.88453125 -14.76953125 0.64453125 C-12.29453125 1.13953125 -12.29453125 1.13953125 -9.76953125 1.64453125 C-6.04387291 -0.83924098 -4.29269493 -0.63725161 0 0 Z " fill="#ACACAC" transform="translate(866.76953125,912.35546875)"/>
<path d="M0 0 C3.75212276 2.01502889 5.63644095 3.45466142 8 7 C8.30078125 9.9609375 8.30078125 9.9609375 8.3125 13.375 C8.32925781 14.49648438 8.34601562 15.61796875 8.36328125 16.7734375 C7.96292847 20.32925895 7.13849012 22.16044826 5 25 C0.94184834 27.61525329 -2.19144587 28.70124748 -7 28 C-11.85349893 25.52566721 -14.27243952 23.18268145 -16 18 C-16.71773476 13.61384315 -17.03944397 9.76101516 -14.72265625 5.8359375 C-10.38429184 0.680815 -6.88406383 -0.94687867 0 0 Z " fill="#A8A8A8" transform="translate(590,912)"/>
<path d="M0 0 C2.125 1.1875 2.125 1.1875 4.125 4.1875 C4.44384766 6.54760742 4.44384766 6.54760742 4.5390625 9.29296875 C4.57773437 10.27587891 4.61640625 11.25878906 4.65625 12.27148438 C4.6871875 13.29564453 4.718125 14.31980469 4.75 15.375 C4.78867187 16.41076172 4.82734375 17.44652344 4.8671875 18.51367188 C4.96148296 21.07143622 5.04708202 23.62919287 5.125 26.1875 C3.475 26.1875 1.825 26.1875 0.125 26.1875 C0.125 25.5275 0.125 24.8675 0.125 24.1875 C-0.90625 24.6825 -1.9375 25.1775 -3 25.6875 C-6.45192978 27.14900253 -9.09182012 27.68095825 -12.875 27.1875 C-17.50735294 24.92279412 -17.50735294 24.92279412 -18.875 22.1875 C-19.25040566 18.73376797 -19.42878656 16.91053674 -17.27734375 14.1015625 C-14.28571261 11.71798647 -11.8594567 11.18439134 -8.125 10.4375 C-6.95453125 10.19515625 -5.7840625 9.9528125 -4.578125 9.703125 C-3.68609375 9.53296875 -2.7940625 9.3628125 -1.875 9.1875 C-1.875 7.8675 -1.875 6.5475 -1.875 5.1875 C-4.9582635 3.64586825 -7.48378099 3.89002465 -10.875 4.1875 C-12.58032323 6.12759522 -12.58032323 6.12759522 -13.875 8.1875 C-15.195 8.1875 -16.515 8.1875 -17.875 8.1875 C-17.3797783 4.52285945 -16.8541794 2.47917646 -13.875 0.1875 C-9.17807828 -1.37814057 -4.71602005 -1.33278828 0 0 Z " fill="#A4A4A4" transform="translate(840.875,912.8125)"/>
<path d="M0 0 C2.7578125 1.828125 2.7578125 1.828125 5 5 C5.74241812 8.76940008 5.79042578 12.47894456 5.8125 16.3125 C5.83763672 17.33923828 5.86277344 18.36597656 5.88867188 19.42382812 C5.94741085 21.949604 5.98378712 24.47365228 6 27 C4.35 27 2.7 27 1 27 C0.67 26.34 0.34 25.68 0 25 C-0.86625 25.495 -1.7325 25.99 -2.625 26.5 C-6.842949 28.374644 -9.87805799 28.76625684 -14.25 27.1875 C-16 26 -16 26 -18 23 C-18.5 20.125 -18.5 20.125 -18 17 C-13.33552902 11.45306153 -7.9736582 10.83137918 -1 10 C-1.33 8.35 -1.66 6.7 -2 5 C-6.021089 4.72240142 -6.021089 4.72240142 -10 5 C-11.77409808 6.92022703 -11.77409808 6.92022703 -13 9 C-14.32 9 -15.64 9 -17 9 C-16.80037128 5.40668306 -16.21261372 4.20171045 -13.5625 1.6875 C-9.06857102 -0.4412032 -4.88389996 -1.24612978 0 0 Z " fill="#A5A5A5" transform="translate(547,912)"/>
<path d="M0 0 C1.65 0 3.3 0 5 0 C5 4.95 5 9.9 5 15 C11.27 15 17.54 15 24 15 C24 10.05 24 5.1 24 0 C25.65 0 27.3 0 29 0 C29 11.88 29 23.76 29 36 C27.35 36 25.7 36 24 36 C24 30.39 24 24.78 24 19 C17.73 19 11.46 19 5 19 C5 24.61 5 30.22 5 36 C3.35 36 1.7 36 0 36 C0 24.12 0 12.24 0 0 Z " fill="#AAAAAA" transform="translate(410,903)"/>
<path d="M0 0 C3.08193978 1.6281946 5.26420667 3.03009062 7.375 5.8125 C8 8 8 8 8 15 C1.73 15 -4.54 15 -11 15 C-10.01 17.31 -9.02 19.62 -8 22 C-4.60581779 23.41349769 -4.60581779 23.41349769 -1 23 C1.14589423 21.10413616 1.14589423 21.10413616 3 19 C5.75 18.75 5.75 18.75 8 19 C6.71915974 22.94925745 5.56995402 24.85432815 2 27 C-3.03894868 27.83356677 -7.56049632 27.79319591 -12.0625 25.3125 C-15.77709665 20.87894916 -16.45795358 16.88617353 -16.31640625 11.21484375 C-15.66313647 6.64195532 -13.16233604 3.94243463 -9.6875 1.125 C-6.16108808 -0.35117243 -3.79611 -0.46618895 0 0 Z " fill="#A9A9A9" transform="translate(894,912)"/>
<path d="M0 0 C2.91927604 1.3961755 4.72202996 2.72202996 7 5 C7 5.99 7 6.98 7 8 C4.625 8.1875 4.625 8.1875 2 8 C1.34 7.01 0.68 6.02 0 5 C-3.58357241 4.74984127 -3.58357241 4.74984127 -7 5 C-7.66 6.32 -8.32 7.64 -9 9 C-8.26394531 9.18175781 -7.52789063 9.36351562 -6.76953125 9.55078125 C4.43772242 12.43772242 4.43772242 12.43772242 8 16 C8.51781922 19.79734096 8.25914909 21.57425507 6.25 24.875 C1.48031091 27.99364287 -3.4465487 28.10763472 -9 27 C-11.97074905 24.57846506 -13.45323353 22.8273653 -14 19 C-11.6875 18.75 -11.6875 18.75 -9 19 C-8.525625 19.66 -8.05125 20.32 -7.5625 21 C-6.7890625 21.99 -6.7890625 21.99 -6 23 C-2.87376745 23.31900332 -0.82883747 23.41441874 2 22 C2 20.68 2 19.36 2 18 C0.75283203 17.61908203 0.75283203 17.61908203 -0.51953125 17.23046875 C-1.60621094 16.88628906 -2.69289063 16.54210937 -3.8125 16.1875 C-5.43091797 15.68283203 -5.43091797 15.68283203 -7.08203125 15.16796875 C-9.85385262 14.05849808 -11.26722758 13.38921522 -13 11 C-13.5 7.5625 -13.5 7.5625 -13 4 C-9.36940611 -0.4247863 -5.38740245 -0.9269822 0 0 Z " fill="#A6A6A6" transform="translate(920,912)"/>
<path d="M0 0 C2.59026861 0.75370615 3.47521634 1.48618801 5.12109375 3.6171875 C5.46166992 6.0690918 5.46166992 6.0690918 5.4140625 8.94140625 C5.40439453 9.96943359 5.39472656 10.99746094 5.38476562 12.05664062 C5.35962891 13.12849609 5.33449219 14.20035156 5.30859375 15.3046875 C5.28829102 16.92987305 5.28829102 16.92987305 5.26757812 18.58789062 C5.23220018 21.26482155 5.18283564 23.94075588 5.12109375 26.6171875 C3.80109375 26.6171875 2.48109375 26.6171875 1.12109375 26.6171875 C1.10127441 26.02180176 1.08145508 25.42641602 1.06103516 24.81298828 C0.96593249 22.12226597 0.85619533 19.43233602 0.74609375 16.7421875 C0.71515625 15.80503906 0.68421875 14.86789062 0.65234375 13.90234375 C0.61367188 13.00644531 0.575 12.11054687 0.53515625 11.1875 C0.50373535 10.36008301 0.47231445 9.53266602 0.43994141 8.68017578 C0.29510238 6.39732665 0.29510238 6.39732665 -1.87890625 4.6171875 C-6.22085561 4.71413866 -6.22085561 4.71413866 -9.87890625 6.6171875 C-10.03545652 8.10357742 -10.12957568 9.59667877 -10.1953125 11.08984375 C-10.23720703 11.98896484 -10.27910156 12.88808594 -10.32226562 13.81445312 C-10.38124023 15.23274414 -10.38124023 15.23274414 -10.44140625 16.6796875 C-10.50618164 18.1037793 -10.50618164 18.1037793 -10.57226562 19.55664062 C-10.67869901 21.91000103 -10.78071633 24.26347104 -10.87890625 26.6171875 C-12.52890625 26.6171875 -14.17890625 26.6171875 -15.87890625 26.6171875 C-15.87890625 18.0371875 -15.87890625 9.4571875 -15.87890625 0.6171875 C-14.55890625 0.6171875 -13.23890625 0.6171875 -11.87890625 0.6171875 C-11.54890625 1.2771875 -11.21890625 1.9371875 -10.87890625 2.6171875 C-10.16734375 1.84375 -10.16734375 1.84375 -9.44140625 1.0546875 C-6.04543398 -0.85037012 -3.78057901 -0.42077271 0 0 Z " fill="#AEAEAE" transform="translate(489.87890625,912.3828125)"/>
<path d="M0 0 C2.85337884 3.04351766 3.36486906 5.08084041 3.29296875 9.203125 C3.28330078 10.1828125 3.27363281 11.1625 3.26367188 12.171875 C3.23853516 13.18765625 3.21339844 14.2034375 3.1875 15.25 C3.16719727 16.796875 3.16719727 16.796875 3.14648438 18.375 C3.11117607 20.91719792 3.06186036 23.45833223 3 26 C1.68 26 0.36 26 -1 26 C-1.01458252 25.40461426 -1.02916504 24.80922852 -1.04418945 24.19580078 C-1.11854344 21.50486949 -1.21524187 18.81519667 -1.3125 16.125 C-1.33505859 15.18785156 -1.35761719 14.25070312 -1.38085938 13.28515625 C-1.4340332 11.94130859 -1.4340332 11.94130859 -1.48828125 10.5703125 C-1.51446533 9.74289551 -1.54064941 8.91547852 -1.56762695 8.06298828 C-1.83096637 5.60672068 -1.83096637 5.60672068 -5 4 C-7.5 3.5 -7.5 3.5 -10 4 C-12.7787228 6.48941268 -13.2333821 8.75651517 -13.51171875 12.328125 C-13.58446328 13.96818349 -13.64262733 15.6089424 -13.6875 17.25 C-13.72166016 18.09046875 -13.75582031 18.9309375 -13.79101562 19.796875 C-13.87323568 21.86412204 -13.93830157 23.93203874 -14 26 C-15.32 26 -16.64 26 -18 26 C-18 17.42 -18 8.84 -18 0 C-16.68 0 -15.36 0 -14 0 C-14 0.66 -14 1.32 -14 2 C-13.0409375 1.2265625 -13.0409375 1.2265625 -12.0625 0.4375 C-7.97899044 -1.47924939 -4.28511036 -1.46849288 0 0 Z " fill="#AFAFAF" transform="translate(650,913)"/>
<path d="M0 0 C2.875 2 2.875 2 5 5 C5.71621062 10.6401586 5.10655925 14.10119502 2 19 C-0.87470493 20.43735246 -2.81894588 20.38172649 -6 20 C-8.93339092 17.76135956 -9.85474685 16.00195031 -10.3828125 12.359375 C-10.55439948 8.08113974 -10.6196223 5.02475995 -8.375 1.3125 C-5.22091596 -0.43054644 -3.55483933 -0.65292967 0 0 Z " fill="#050505" transform="translate(589,916)"/>
<path d="M0 0 C1.32 0 2.64 0 4 0 C4.02187378 0.83978394 4.02187378 0.83978394 4.04418945 1.6965332 C4.11871352 4.23588137 4.21535581 6.77392078 4.3125 9.3125 C4.33505859 10.19357422 4.35761719 11.07464844 4.38085938 11.98242188 C4.41630859 12.82998047 4.45175781 13.67753906 4.48828125 14.55078125 C4.51446533 15.33106689 4.54064941 16.11135254 4.56762695 16.9152832 C5.10495225 19.50603459 5.87819375 20.44758827 8 22 C11.08333333 22 11.08333333 22 14 21 C16.0140956 17.9788566 16.26836596 17.19339983 16.4140625 13.76953125 C16.45273437 12.96708984 16.49140625 12.16464844 16.53125 11.33789062 C16.57765625 10.08782227 16.57765625 10.08782227 16.625 8.8125 C16.66367187 7.96751953 16.70234375 7.12253906 16.7421875 6.25195312 C16.83636279 4.16832476 16.91926675 2.08419247 17 0 C18.32 0 19.64 0 21 0 C21 8.58 21 17.16 21 26 C19.68 26 18.36 26 17 26 C16.67 25.34 16.34 24.68 16 24 C15.34 24.66 14.68 25.32 14 26 C11.7578125 26.3359375 11.7578125 26.3359375 9.125 26.375 C8.26132812 26.40335938 7.39765625 26.43171875 6.5078125 26.4609375 C4 26 4 26 1.6953125 24.6796875 C-1.06632468 20.31451905 -0.41634408 15.79150512 -0.25 10.75 C-0.23195313 9.71875 -0.21390625 8.6875 -0.1953125 7.625 C-0.14822712 5.08238936 -0.0824805 2.54166838 0 0 Z " fill="#B0B0B0" transform="translate(767,913)"/>
<path d="M0 0 C1.32 0 2.64 0 4 0 C4.02187378 0.83978394 4.02187378 0.83978394 4.04418945 1.6965332 C4.11871352 4.23588137 4.21535581 6.77392078 4.3125 9.3125 C4.33505859 10.19357422 4.35761719 11.07464844 4.38085938 11.98242188 C4.41630859 12.82998047 4.45175781 13.67753906 4.48828125 14.55078125 C4.51446533 15.33106689 4.54064941 16.11135254 4.56762695 16.9152832 C5.10495225 19.50603459 5.87819375 20.44758827 8 22 C11.08333333 22 11.08333333 22 14 21 C16.0140956 17.9788566 16.26836596 17.19339983 16.4140625 13.76953125 C16.45273437 12.96708984 16.49140625 12.16464844 16.53125 11.33789062 C16.57765625 10.08782227 16.57765625 10.08782227 16.625 8.8125 C16.66367187 7.96751953 16.70234375 7.12253906 16.7421875 6.25195312 C16.83636279 4.16832476 16.91926675 2.08419247 17 0 C18.32 0 19.64 0 21 0 C21 8.58 21 17.16 21 26 C19.68 26 18.36 26 17 26 C16.67 25.34 16.34 24.68 16 24 C15.34 24.66 14.68 25.32 14 26 C11.7578125 26.3359375 11.7578125 26.3359375 9.125 26.375 C8.26132812 26.40335938 7.39765625 26.43171875 6.5078125 26.4609375 C4 26 4 26 1.6953125 24.6796875 C-1.06632468 20.31451905 -0.41634408 15.79150512 -0.25 10.75 C-0.23195313 9.71875 -0.21390625 8.6875 -0.1953125 7.625 C-0.14822712 5.08238936 -0.0824805 2.54166838 0 0 Z " fill="#B0B0B0" transform="translate(446,913)"/>
<path d="M0 0 C3.37886909 2.84536344 3.94818455 4.53366097 4.4375 8.9375 C4.197896 12.89096599 3.43236268 15.7830042 1 19 C-2.4375 20.1875 -2.4375 20.1875 -6 20 C-8.4375 18.25 -8.4375 18.25 -10 15 C-10.70882338 10.05285127 -11.00875361 5.66832327 -8.375 1.3125 C-5.24102696 -0.41943247 -3.5265808 -0.6612339 0 0 Z " fill="#050505" transform="translate(866,916)"/>
<path d="M0 0 C3 0.625 3 0.625 5.375 2.5 C7.6715739 6.91648826 7.91828569 10.74610818 7 15.625 C4.875 18.8125 4.875 18.8125 2 20.625 C-1.125 20.8125 -1.125 20.8125 -4 19.625 C-7.36011388 15.03284437 -7.60803743 11.09733686 -7 5.625 C-5.03006775 1.988202 -4.07109231 0.84814423 0 0 Z " fill="#050505" transform="translate(805,915.375)"/>
<path d="M0 0 C3 0.5625 3 0.5625 5.375 1.875 C7.99879814 6.21435846 7.73312699 10.63259502 7 15.5625 C5.375 18.25 5.375 18.25 3 19.5625 C0 20.125 0 20.125 -3 19.5625 C-5.63231951 17.41508145 -6.78562464 15.7721895 -7.3828125 12.40234375 C-7.58168486 8.43152561 -7.26039029 6.05323554 -5.375 2.5 C-3 0.5625 -3 0.5625 0 0 Z " fill="#060606" transform="translate(512,915.4375)"/>
<path d="M0 0 C3 0.5625 3 0.5625 5.375 1.9375 C7.84942193 5.93464312 7.63217317 9.97556906 7 14.5625 C5.5032538 18.3108731 5.5032538 18.3108731 3 19.5625 C0.125 19.9375 0.125 19.9375 -3 19.5625 C-5.63231951 17.41508145 -6.78562464 15.7721895 -7.3828125 12.40234375 C-7.58168486 8.43152561 -7.26039029 6.05323554 -5.375 2.5 C-3 0.5625 -3 0.5625 0 0 Z " fill="#030303" transform="translate(670,915.4375)"/>
<path d="M0 0 C12.23266773 -0.4942492 12.23266773 -0.4942492 15.88671875 1.859375 C18 4 18 4 18.625 6.5 C17.72687165 10.09251342 16.07651861 11.01837232 13 13 C8.59901209 13.51594231 4.44953234 13.17977908 0 13 C0 8.71 0 4.42 0 0 Z " fill="#0B0B0B" transform="translate(738,922)"/>
<path d="M0 0 C0 2.97 0 5.94 0 9 C1.65 9 3.3 9 5 9 C5 9.99 5 10.98 5 12 C3.35 12 1.7 12 0 12 C0.33 17.94 0.66 23.88 1 30 C2.32 30.33 3.64 30.66 5 31 C5 32.32 5 33.64 5 35 C1.625 35.125 1.625 35.125 -2 35 C-4 33 -4 33 -4.22705078 30.84521484 C-4.21657715 29.97590332 -4.20610352 29.1065918 -4.1953125 28.2109375 C-4.18886719 27.26992188 -4.18242188 26.32890625 -4.17578125 25.359375 C-4.15902344 24.37453125 -4.14226563 23.3896875 -4.125 22.375 C-4.11597656 21.38242187 -4.10695313 20.38984375 -4.09765625 19.3671875 C-4.07404116 16.91121866 -4.04110799 14.45572832 -4 12 C-4.99 12 -5.98 12 -7 12 C-7 11.01 -7 10.02 -7 9 C-6.01 9 -5.02 9 -4 9 C-4.061875 7.88625 -4.12375 6.7725 -4.1875 5.625 C-4.125625 4.42875 -4.06375 3.2325 -4 2 C-1 0 -1 0 0 0 Z " fill="#B1B1B1" transform="translate(938,904)"/>
<path d="M0 0 C2.33944736 0.28730055 4.6739143 0.61936779 7 1 C6.67 2.32 6.34 3.64 6 5 C4.865625 5.309375 3.73125 5.61875 2.5625 5.9375 C-0.78775099 6.62924531 -0.78775099 6.62924531 -2 8 C-2.15620555 9.41327947 -2.25056173 10.8335459 -2.31640625 12.25390625 C-2.35830078 13.10791016 -2.40019531 13.96191406 -2.44335938 14.84179688 C-2.50233398 16.18854492 -2.50233398 16.18854492 -2.5625 17.5625 C-2.60568359 18.46419922 -2.64886719 19.36589844 -2.69335938 20.29492188 C-2.79978142 22.52978485 -2.90179988 24.76476308 -3 27 C-4.65 27 -6.3 27 -8 27 C-8 18.42 -8 9.84 -8 1 C-5.66666667 1 -3.33333333 1 -1 1 C-0.67 0.67 -0.34 0.34 0 0 Z " fill="#A0A0A0" transform="translate(566,912)"/>
<path d="M0 0 C2.10353495 -0.0810206 4.20795952 -0.13919907 6.3125 -0.1875 C7.48425781 -0.22230469 8.65601563 -0.25710938 9.86328125 -0.29296875 C13 0 13 0 14.9296875 1.28515625 C16 3 16 3 15.8125 6.625 C15.544375 7.73875 15.27625 8.8525 15 10 C12.11584117 11.44207941 9.58278472 11.09394887 6.375 11.0625 C5.18648437 11.05347656 3.99796875 11.04445313 2.7734375 11.03515625 C1.85820313 11.02355469 0.94296875 11.01195312 0 11 C0 7.37 0 3.74 0 0 Z " fill="#070707" transform="translate(738,907)"/>
<path d="M0 0 C3.625 0.375 3.625 0.375 7 1 C6.67 2.32 6.34 3.64 6 5 C4.865625 5.28875 3.73125 5.5775 2.5625 5.875 C1.386875 6.24625 0.21125 6.6175 -1 7 C-2.11823815 9.23647631 -2.19396061 10.64891529 -2.31640625 13.1328125 C-2.35830078 13.93847656 -2.40019531 14.74414062 -2.44335938 15.57421875 C-2.50233398 16.83685547 -2.50233398 16.83685547 -2.5625 18.125 C-2.62727539 19.39923828 -2.62727539 19.39923828 -2.69335938 20.69921875 C-2.79954236 22.79928223 -2.90028497 24.89961948 -3 27 C-4.32 27 -5.64 27 -7 27 C-7 18.42 -7 9.84 -7 1 C-4.525 1.495 -4.525 1.495 -2 2 C-1.34 1.34 -0.68 0.68 0 0 Z " fill="#ADADAD" transform="translate(611,912)"/>
<path d="M0 0 C1.32 0 2.64 0 4 0 C4.33 0.66 4.66 1.32 5 2 C6.32 1.34 7.64 0.68 9 0 C8.51917969 0.77601563 8.03835938 1.55203125 7.54296875 2.3515625 C5.53786534 7.09274372 5.4397134 11.27919482 5.3125 16.375 C5.27833984 17.30183594 5.24417969 18.22867188 5.20898438 19.18359375 C5.12700448 21.45560812 5.05769506 23.72726104 5 26 C3.35 26 1.7 26 0 26 C0 17.42 0 8.84 0 0 Z " fill="#A6A6A6" transform="translate(474,913)"/>
<path d="M0 0 C1.32 0 2.64 0 4 0 C4 8.58 4 17.16 4 26 C2.68 26 1.36 26 0 26 C0 17.42 0 8.84 0 0 Z " fill="#B4B4B4" transform="translate(621,913)"/>
<path d="M0 0 C0.36768802 5.51532033 0.36768802 5.51532033 -1.375 7.8125 C-4.63647802 10.19588778 -6.99355269 10.25040296 -11 10 C-11.66 9.34 -12.32 8.68 -13 8 C-12.9375 5.5 -12.9375 5.5 -12 3 C-8.45000534 0.97143162 -4.10826587 0 0 0 Z " fill="#050505" transform="translate(547,926)"/>
<path d="M0 0 C-0.48355011 6.40703902 -0.48355011 6.40703902 -2.6875 8.9375 C-5.65168456 10.29942264 -7.77345463 10.35071145 -11 10 C-11.66 9.34 -12.32 8.68 -13 8 C-12.9375 5.5 -12.9375 5.5 -12 3 C-8.45000534 0.97143162 -4.10826587 0 0 0 Z " fill="#040404" transform="translate(840,926)"/>
<path d="M0 0 C2.375 1.25 2.375 1.25 4 3 C4 4.32 4 5.64 4 7 C-0.62 7 -5.24 7 -10 7 C-8.43630432 0.74521729 -6.52508202 -0.79898964 0 0 Z " fill="#050505" transform="translate(893,916)"/>
<path d="M0 0 C4.29 0 8.58 0 13 0 C13 1.32 13 2.64 13 4 C8.71 4 4.42 4 0 4 C0 2.68 0 1.36 0 0 Z " fill="#B4B4B4" transform="translate(701,924)"/>
<path d="M0 0 C1.32 0 2.64 0 4 0 C4 1.65 4 3.3 4 5 C2.68 5 1.36 5 0 5 C0 3.35 0 1.7 0 0 Z " fill="#AFAFAF" transform="translate(621,903)"/>
</svg>
