<?xml version="1.0" encoding="UTF-8"?>
<svg version="1.1" xmlns="http://www.w3.org/2000/svg" width="1350" height="1080">
<path d="M0 0 C445.5 0 891 0 1350 0 C1350 356.4 1350 712.8 1350 1080 C904.5 1080 459 1080 0 1080 C0 723.6 0 367.2 0 0 Z " fill="#000000" transform="translate(0,0)"/>
<path d="M0 0 C1.13845871 -0.00637985 2.27691742 -0.0127597 3.44987488 -0.01933289 C4.68627213 -0.02044571 5.92266937 -0.02155853 7.1965332 -0.02270508 C8.4644722 -0.02603348 9.73241119 -0.02936188 11.03877258 -0.03279114 C13.72803237 -0.0378634 16.41719119 -0.04063093 19.10644531 -0.04003906 C22.53829498 -0.03993784 25.9699359 -0.05354739 29.40173626 -0.07081127 C32.68749391 -0.08467076 35.97325031 -0.08402209 39.2590332 -0.08520508 C40.4853093 -0.09239059 41.71158539 -0.09957611 42.97502136 -0.10697937 C54.0836324 -0.07736881 54.0836324 -0.07736881 59.55981445 2.14526367 C63.86250668 6.85596982 64.87241954 12.42299902 66.30981445 18.45776367 C70.59802508 35.0534277 76.83731581 47.6524294 88.55981445 60.14526367 C94.21087284 66.21559413 99.09584349 72.23073158 103.59887695 79.20776367 C106.03275369 82.85373042 108.7354181 86.20960148 111.5012207 89.60620117 C117.33336975 96.79955389 122.62641009 104.11905429 127.43481445 112.02026367 C135.91204367 125.89074469 146.69227485 138.06336693 157.30981445 150.32104492 C167.03086194 161.59497539 175.70825347 173.42921934 183.48950195 186.12182617 C186.67816841 190.77848247 190.59922167 194.21726887 194.93481445 197.77026367 C198.29490886 200.72139922 200.63780007 203.56322525 202.93481445 207.39526367 C212.98942603 224.06897034 229.8038167 238.15674546 245.80249023 248.95825195 C248.93168224 251.0719129 252.02967432 253.2286199 255.12231445 255.39526367 C255.6941748 255.78367432 256.26603516 256.17208496 256.85522461 256.57226562 C261.86129672 260.07324901 265.3102061 264.15131267 268.5402832 269.30541992 C270.75165971 272.41503447 272.59092004 273.69017519 275.87231445 275.58276367 C287.55558076 283.05262709 296.56638266 293.4703584 304.60668945 304.63745117 C308.25001882 309.31548608 312.73561953 312.00739951 317.71606445 315.11401367 C326.30946536 320.49985663 333.9976188 326.38914004 341.55981445 333.14526367 C342.46860352 333.95479492 343.37739258 334.76432617 344.3137207 335.59838867 C345.89701849 337.01973081 347.47603677 338.44587577 349.0480957 339.87963867 C350.43839234 341.13371651 351.83492706 342.38132906 353.25585938 343.60058594 C359.16756752 348.6817668 364.72094865 354.08764234 370.24731445 359.58276367 C371.17092773 360.48575195 372.09454102 361.38874023 373.04614258 362.3190918 C377.53535126 366.78244471 381.52491588 370.98630919 384.56005859 376.57128906 C386.36468862 379.41242453 388.41999659 380.17916587 391.55981445 381.14526367 C397.292507 381.90384303 401.89450679 380.89710088 407.2668457 378.94604492 C416.91937742 375.57505855 429.70877563 373.63337082 439.30981445 377.77026367 C440.74025441 378.53676357 442.15638147 379.3303671 443.55981445 380.14526367 C444.46473633 380.60416992 445.3696582 381.06307617 446.30200195 381.53588867 C455.48775557 386.2656805 461.22853088 391.11260483 466.8840332 399.77807617 C468.65756109 402.28333934 470.09884884 404.29177966 472.55981445 406.14526367 C476.500719 405.7205071 480.16525599 404.71161971 483.95947266 403.60327148 C491.35601411 401.73275914 498.5806671 401.74747064 506.1652832 401.81713867 C507.65765693 401.82021117 509.15003357 401.82207592 510.64241028 401.82281494 C513.7613945 401.82738956 516.88011652 401.84168356 519.99902344 401.86401367 C523.91614516 401.89197659 527.83306127 401.90311077 531.75027275 401.90782928 C546.14723238 401.92685228 560.53525751 402.04357271 574.9230957 402.59838867 C575.92745163 402.63663757 576.93180756 402.67488647 577.96659851 402.71429443 C581.50069994 402.87012251 584.90733323 403.02847936 588.39460754 403.65264893 C591.96620883 404.20851257 595.38409185 404.29974529 598.9987793 404.3347168 C599.71832291 404.3430101 600.43786652 404.35130341 601.17921448 404.35984802 C602.73257706 404.37716338 604.28596452 404.3923529 605.83936691 404.40562439 C608.30367265 404.42679651 610.76785487 404.45380797 613.23208618 404.4822998 C618.46628053 404.54178477 623.70053379 404.59402132 628.93481445 404.64526367 C634.99685964 404.70469685 641.0588438 404.76716003 647.12077713 404.83714294 C649.53796634 404.86351951 651.9551625 404.88445334 654.37240601 404.90515137 C655.8689605 404.92177191 657.36551221 404.93864526 658.86206055 404.95581055 C660.80681778 404.97460266 660.80681778 404.97460266 662.79086304 404.99377441 C665.49054593 405.10228549 668.02718124 405.29659978 670.69262695 405.64724731 C673.89122623 406.05916289 676.91535578 406.27940718 680.13256836 406.30297852 C681.66964699 406.31855301 681.66964699 406.31855301 683.23777771 406.33444214 C684.32631546 406.34162262 685.41485321 406.3488031 686.53637695 406.35620117 C688.9096765 406.38212413 691.28296742 406.40884666 693.65625 406.4362793 C694.88741547 406.44957275 696.11858093 406.46286621 697.38705444 406.4765625 C717.5528843 406.70861255 737.4278674 407.21559694 757.44186401 409.77799988 C766.93971177 410.89675262 776.49535082 411.34239422 786.0480957 411.68041992 C787.25739243 411.72330643 788.46668915 411.76619293 789.71263123 411.81037903 C793.06049817 411.92488837 796.40842866 412.03482484 799.75657654 412.14064789 C801.17067157 412.18550604 802.58474448 412.23106727 803.99879456 412.27732086 C825.63542869 412.98439089 847.2517089 413.20655501 868.8996582 413.13354492 C870.65772262 413.12846641 870.65772262 413.12846641 872.45130348 413.12328529 C884.25939694 413.0886618 896.06691104 413.03628861 907.87455082 412.92517757 C912.33306279 412.88677119 916.79156935 412.86411154 921.25020027 412.84470177 C923.34161329 412.83166712 925.43299514 412.81131358 927.52425957 412.78318214 C930.41099312 412.74475934 933.29688291 412.73110812 936.18383789 412.72290039 C937.020864 412.70538255 937.85789011 412.6878647 938.72028065 412.66981602 C944.41871316 412.68864778 948.81600205 413.89828318 953.55981445 417.14526367 C955.30200195 419.48510742 955.30200195 419.48510742 956.43481445 422.08276367 C958.66074757 426.64350707 961.25667295 430.52258038 964.43481445 434.45776367 C969.60961375 440.95281396 973.74359183 447.77821521 977.55981445 455.14526367 C977.94266602 455.88389648 978.32551758 456.6225293 978.7199707 457.38354492 C982.00454216 464.7623729 981.45977079 473.189614 979.12231445 480.77026367 C976.57115318 487.04449776 972.26697668 491.39141884 967.55981445 496.14526367 C962.85030077 501.04916629 958.87506087 505.99567696 955.37231445 511.83276367 C946.92599644 525.8500574 938.01607156 527.85185892 922.55981445 532.14526367 C916.21229678 533.94737501 910.0850283 535.79466802 904.12231445 538.64526367 C897.80923203 541.62896833 891.2886046 543.34498716 884.55981445 545.14526367 C883.18531265 545.5369851 881.81163604 545.93161146 880.4387207 546.32885742 C872.27662103 548.6797415 864.06844794 550.84740123 855.80981445 552.83276367 C854.61775391 553.13621704 854.61775391 553.13621704 853.40161133 553.44580078 C836.0946273 557.48174373 817.9231643 557.44100424 800.25024414 557.38818359 C798.11406395 557.38926069 795.97788404 557.39120566 793.84170532 557.39393616 C788.08972236 557.39873716 782.33781844 557.39117405 776.58584499 557.38098311 C770.45568909 557.37205243 764.32553462 557.37396338 758.19537354 557.37434387 C747.84288257 557.37340933 737.490421 557.36477882 727.13793945 557.35107422 C716.69327205 557.33729257 706.2486317 557.33005009 695.80395508 557.33056641 C646.41777211 557.33260767 597.03079486 557.31171788 547.64691257 556.78554368 C545.05064304 556.75893139 542.45436313 556.73551727 539.85805511 556.71300316 C535.86570766 556.67772223 531.8735865 556.63276987 527.88143444 556.57987952 C526.45875289 556.5622593 525.03603154 556.5475274 523.61328602 556.53619409 C513.29605986 556.45000093 503.41756151 555.33371501 493.25977612 553.57336521 C483.12675094 551.92641708 473.22875326 551.91715769 462.99755859 552.01342773 C461.06599415 552.02383635 459.13442413 552.03324808 457.20285034 552.04174805 C453.07183236 552.06149631 448.94090933 552.08714179 444.80995369 552.11719513 C438.27498563 552.16362181 431.74002933 552.19001388 425.2049408 552.21258545 C406.63190967 552.27921759 388.05906395 552.36298882 369.48632812 552.48803711 C359.20709065 552.55707819 348.92798594 552.60469279 338.64854139 552.62845397 C332.15380181 552.64463444 325.65993627 552.68707681 319.16547883 552.7488637 C315.12912237 552.78088631 311.09301656 552.78770302 307.05654526 552.787323 C305.18723732 552.79216353 303.31792297 552.80730612 301.44879341 552.83358002 C298.89380378 552.86799606 296.34140447 552.86519091 293.78627014 552.85333252 C293.04969289 552.87217381 292.31311565 552.8910151 291.55421788 552.91042733 C286.27879023 552.82870291 283.63424748 551.14149367 279.89950937 547.72583938 C277.22398134 544.56924413 277.45095909 541.39796941 277.49731445 537.45776367 C277.50633789 536.46389648 277.51536133 535.4700293 277.5246582 534.44604492 C277.54206055 533.3071582 277.54206055 533.3071582 277.55981445 532.14526367 C276.65440918 532.62882324 275.74900391 533.11238281 274.81616211 533.6105957 C241.53617746 551.3293247 241.53617746 551.3293247 226.55981445 555.14526367 C225.39192383 555.46366211 224.2240332 555.78206055 223.02075195 556.11010742 C209.64189113 559.50965402 196.02499306 559.31936474 182.3137207 559.34838867 C180.94634419 559.35262974 180.94634419 559.35262974 179.55134392 559.35695648 C174.72254024 559.3718644 169.89376577 559.38114561 165.06494141 559.38549805 C160.14378853 559.39095667 155.22291593 559.41495388 150.30185032 559.44347 C146.45876855 559.4623342 142.61575097 559.46731452 138.77262688 559.46883392 C136.96180637 559.47180997 135.15098555 559.47966091 133.34021187 559.4930191 C101.17614955 559.71328449 77.89069919 553.60124992 53.55981445 532.14526367 C52.66004883 531.35764648 51.7602832 530.5700293 50.83325195 529.75854492 C48.38039896 527.58287192 45.96269005 525.37593318 43.55981445 523.14526367 C42.76575195 522.41694336 41.97168945 521.68862305 41.15356445 520.93823242 C36.42558144 516.43876859 33.12245663 512.0349418 29.95043945 506.34448242 C28.55354207 503.88448578 28.55354207 503.88448578 25.62231445 501.70776367 C16.17692185 493.80447599 12.38791203 481.88907704 10.36254883 470.16870117 C9.45569363 465.59086446 8.05067897 462.00950578 5.70825195 457.96166992 C2.04006847 451.55002694 0.02596402 444.90733214 -2.00268555 437.83276367 C-2.39204679 436.50213703 -2.78161674 435.17157143 -3.17138672 433.84106445 C-7.58090246 418.64132227 -10.87260066 403.27008421 -13.8515625 387.73681641 C-15.09505097 381.43033262 -16.72965457 375.27646837 -18.44018555 369.08276367 C-21.1058205 359.36020656 -22.67924252 349.65607456 -24.03735352 339.67529297 C-25.36300982 330.10845015 -27.47179221 321.16186216 -30.4753418 311.98120117 C-31.76185119 306.86641483 -32.2113463 301.75824105 -32.75268555 296.52026367 C-33.80231398 287.21332419 -35.63569488 279.70863614 -39.44018555 271.14526367 C-41.395072 264.88335467 -42.46479797 258.57982731 -42.58081055 252.02807617 C-42.60014648 251.09092773 -42.61948242 250.1537793 -42.6394043 249.18823242 C-42.67311889 247.25094001 -42.69147697 245.31331641 -42.6940918 243.37573242 C-42.86494945 236.82019402 -44.0527161 232.15793965 -48.44018555 227.14526367 C-51.82328287 224.88986546 -54.24437512 224.56767296 -58.1862793 224.00073242 C-62.31774689 222.4326364 -63.99284672 219.08936403 -65.8190918 215.23510742 C-67.77833475 210.01692569 -69.53507802 204.99099572 -70.62768555 199.52026367 C-71.93152347 193.86782994 -74.35523779 189.24694084 -77.12768555 184.20776367 C-82.24347877 174.90453303 -86.08970382 165.38206558 -89.63110352 155.38500977 C-90.30690605 153.51421542 -91.04052094 151.66443638 -91.7878418 149.82104492 C-94.02410353 144.07409272 -94.62605624 138.897174 -94.75268555 132.77026367 C-94.95525964 123.84312845 -96.66280079 115.37176689 -98.69018555 106.70776367 C-99.1219812 104.82468506 -99.1219812 104.82468506 -99.5625 102.90356445 C-101.48789933 94.94622946 -104.09017985 87.60746487 -107.44018555 80.14526367 C-112.5269043 68.1096186 -115.72515897 51.89370444 -111.2253418 39.19213867 C-106.5722413 29.07575077 -99.36105924 20.9705147 -88.8503418 16.83666992 C-85.09280128 15.7587369 -81.27799846 15.25504249 -77.4128418 14.70776367 C-74.50918125 14.15831936 -72.140773 13.32433235 -69.44018555 12.14526367 C-64.86972191 10.14981245 -60.53442609 9.3872542 -55.5925293 8.83276367 C-52.73643295 8.20987277 -50.94332675 7.4184252 -48.38549805 6.10229492 C-42.48817295 3.37361735 -36.76699812 3.66856089 -30.37768555 3.83276367 C-28.67902344 3.84726563 -28.67902344 3.84726563 -26.94604492 3.86206055 C-21.03445069 3.94124905 -15.28649235 4.26509753 -9.44018555 5.14526367 C-9.15143555 4.50588867 -8.86268555 3.86651367 -8.56518555 3.20776367 C-6.52604244 -0.53066535 -3.93338373 0.01492151 0 0 Z M1.55981445 24.14526367 C-1.71421501 25.23660683 -4.40042996 25.39863724 -7.84643555 25.57495117 C-9.13936523 25.64649414 -10.43229492 25.71803711 -11.7644043 25.79174805 C-12.44680176 25.82872803 -13.12919922 25.86570801 -13.83227539 25.90380859 C-34.66439205 26.99999819 -34.66439205 26.99999819 -55.0456543 31.18432617 C-58.30873958 32.10805342 -61.39161065 32.61007022 -64.75268555 33.02026367 C-76.21087062 34.76390053 -83.38257821 38.71326246 -91.44018555 47.14526367 C-93.32723752 50.91936761 -92.93843036 55.03474394 -92.44018555 59.14526367 C-90.77965051 63.99803418 -88.30164487 68.47118992 -85.95898438 73.02368164 C-81.94658547 81.18960925 -79.85588625 89.03095631 -78.25268555 97.95776367 C-76.678854 107.35839669 -76.678854 107.35839669 -73.8190918 116.40698242 C-72.10995295 121.04054013 -71.85468678 125.2521961 -71.56518555 130.14526367 C-70.12940108 147.75162813 -63.51329584 161.79231426 -55.7487793 177.48803711 C-53.9781866 181.08339735 -52.26296892 184.70260634 -50.56518555 188.33276367 C-50.01475586 189.48905273 -49.46432617 190.6453418 -48.8972168 191.83666992 C-47.44018555 195.14526367 -47.44018555 195.14526367 -46.3269043 198.54760742 C-44.35631923 204.72193219 -44.35631923 204.72193219 -39.60424805 208.82104492 C-36.43125154 210.1171115 -36.43125154 210.1171115 -33.2800293 210.98510742 C-29.13799207 212.67724643 -27.39431586 215.0047333 -25.5847168 219.06445312 C-23.34241606 225.16139523 -22.57988869 231.34279844 -21.87768555 237.77026367 C-21.75184082 238.82697266 -21.62599609 239.88368164 -21.49633789 240.97241211 C-20.95530183 245.51878186 -20.4437565 250.06662916 -19.9831543 254.62182617 C-19.17890419 261.88262621 -17.59790819 267.5489657 -14.5378418 274.16870117 C-12.94640207 278.48427794 -12.86594632 282.63370912 -12.68237305 287.19604492 C-12.46067983 289.89569624 -12.03226714 291.64378144 -10.94018555 294.08276367 C-9.36846951 297.66028874 -9.2133368 300.81225728 -9.06518555 304.70776367 C-8.71561563 311.64709848 -6.98107537 317.19063432 -4.64331055 323.65307617 C-3.34712729 327.41537433 -2.52321017 331.07576877 -1.8972168 334.99682617 C-1.49915455 337.22711366 -1.49915455 337.22711366 -0.40893555 339.48510742 C0.78960004 342.77624748 0.80138466 345.58480504 0.87231445 349.08276367 C1.15520527 355.75800854 2.78702022 361.11791127 5.2277832 367.36401367 C8.7144299 376.72172351 10.1032974 386.98093193 11.59619141 396.81762695 C16.78185315 430.54873022 28.8212058 474.45749438 52.41137695 499.78588867 C54.55981445 502.14526367 54.55981445 502.14526367 56.33325195 504.50463867 C61.68446683 510.85099175 68.36101809 515.65287094 75.24731445 520.20776367 C76.02824463 520.72580566 76.8091748 521.24384766 77.61376953 521.77758789 C95.80201762 533.61494612 112.75029873 535.29411738 134.1184082 535.31323242 C135.47762584 535.31646795 136.83684316 535.31983345 138.19606018 535.32331848 C141.03224487 535.32925062 143.86839941 535.33116511 146.70458984 535.33056641 C149.53603637 535.33048608 152.36731785 535.33728782 155.19873047 535.35107422 C170.84189544 535.42591076 186.42256674 535.20993328 202.0402832 534.25854492 C203.3539537 534.18081345 204.66762421 534.10308197 206.02110291 534.022995 C222.35060958 532.92903399 234.33485313 528.74642856 248.3527832 520.52026367 C258.88356216 514.41657348 270.45553631 511.05102598 282.55981445 510.14526367 C283.72770508 510.02924805 283.72770508 510.02924805 284.91918945 509.91088867 C288.98320134 509.66541144 291.66582452 509.75792962 294.93481445 512.33276367 C298.9962924 516.68434719 300.61093897 519.39424333 301.1340332 525.32104492 C301.21613037 526.2237915 301.29822754 527.12653809 301.3828125 528.05664062 C301.44122314 528.74588623 301.49963379 529.43513184 301.55981445 530.14526367 C302.29470376 530.14949561 303.02959307 530.15372755 303.78675175 530.15808773 C321.92069676 530.26276724 340.05461313 530.37156839 358.18850803 530.48460293 C366.95899509 530.53917935 375.72948595 530.59251022 384.5 530.64257812 C392.17124441 530.6863742 399.84246789 530.73284314 407.51367897 530.78214222 C411.55108397 530.80800528 415.5884869 530.83279049 419.62591743 530.85433769 C435.91140424 530.94205948 452.18863917 531.11724492 468.46986008 531.51054478 C499.12193128 532.25071076 529.77051614 532.34488318 560.42962213 532.41058341 C568.38776521 532.42792264 576.34588805 532.45124443 584.30401417 532.4749983 C598.49759049 532.51730128 612.69117318 532.55653951 626.88476562 532.59301758 C627.72583285 532.59518038 628.56690007 532.59734318 629.43345418 532.59957153 C637.99815711 532.62155878 646.56286081 532.64323714 655.12756481 532.66480294 C659.43790789 532.67566403 663.74825086 532.68657162 668.05859375 532.69750977 C668.90980743 532.69966863 669.7610211 532.7018275 670.63802914 532.70405179 C684.83931168 532.74018364 699.04058105 532.780104 713.24184531 532.82281256 C721.95490395 532.84884003 730.66795876 532.87152911 739.3810372 532.88979614 C745.32647889 532.90248248 751.27190481 532.91861561 757.2173302 532.93744528 C760.63957146 532.94816246 764.06179762 532.95729879 767.48405266 532.96214104 C771.19808125 532.96820896 774.91204494 532.98026642 778.62605286 532.99377441 C780.23266973 532.99421839 780.23266973 532.99421839 781.8717435 532.99467134 C787.44732934 533.02163227 792.91001725 533.27948927 798.45080298 533.91455412 C832.85508713 537.67811687 864.87903325 528.43296748 896.82592773 516.75952148 C901.15979335 515.19974666 905.33047506 513.92802257 909.8684082 513.11010742 C913.81008131 512.38851258 916.70933578 511.25660142 920.12231445 509.08276367 C924.44034016 506.54707198 927.68572222 505.47361345 932.68481445 505.44604492 C935.23928897 505.03626463 935.97828814 504.16979456 937.55981445 502.14526367 C938.37716152 500.54315481 939.14486755 498.91514362 939.87231445 497.27026367 C941.74452943 493.39170489 943.405842 491.1184969 946.9465332 488.54760742 C952.56795457 483.6611903 957.88609262 475.35602514 959.05981445 468.02026367 C957.71737364 457.61634738 952.09331111 449.11394265 945.55981445 441.14526367 C945.14905167 440.61188385 944.73828888 440.07850403 944.31507874 439.52896118 C941.76625223 437.51968832 939.82753301 437.75284101 936.60839844 437.72875977 C935.37589355 437.71215302 934.14338867 437.69554626 932.87353516 437.67843628 C931.51766007 437.67496403 930.16178436 437.67172567 928.8059082 437.66870117 C927.39931845 437.6546929 925.99274192 437.6392961 924.58618164 437.62258911 C921.60237193 437.58971773 918.61867789 437.56569609 915.63473511 437.54882812 C911.00483407 437.52239235 906.37529014 437.47586026 901.74560547 437.42456055 C900.21330287 437.4077525 898.68100001 437.39096775 897.1486969 437.37420654 C896.3954117 437.36594597 895.6421265 437.35768539 894.86601448 437.3491745 C892.59602672 437.32500401 890.32602793 437.30273627 888.05601501 437.28106689 C877.03302106 437.17452261 866.01579002 436.98191962 854.99731445 436.64526367 C853.72106201 436.60965332 852.44480957 436.57404297 851.12988281 436.53735352 C846.31101465 436.38524574 841.55205941 436.15577915 836.75805664 435.64086914 C831.93859499 435.14414211 827.17147156 434.97843928 822.3293457 434.93432617 C820.55736248 434.90851175 818.78539002 434.88195 817.01342773 434.85473633 C816.09370178 434.84146301 815.17397583 434.8281897 814.22637939 434.81451416 C798.17806404 434.56569509 782.19009336 433.984204 766.18481445 432.77026367 C765.38886871 432.7130011 764.59292297 432.65573853 763.77285767 432.59674072 C761.48460368 432.42931694 759.19803906 432.2471421 756.91137695 432.05932617 C755.63085449 431.95571777 754.35033203 431.85210938 753.03100586 431.74536133 C750.56466236 431.4854966 748.31701412 431.07923533 745.91934204 430.42720032 C733.54269702 427.14600415 720.99582683 427.79462738 708.28566217 427.90694499 C704.83899108 427.93353072 701.39228015 427.94083366 697.94552612 427.94984436 C689.93155307 427.97382666 681.9177907 428.02040954 673.90393829 428.06943512 C663.74125675 428.13047445 653.57855757 428.18040363 643.41573894 428.21142966 C640.00684645 428.22244032 636.59811022 428.23798423 633.18930435 428.265028 C619.53092113 428.36949823 606.09048489 428.17234597 592.49147034 426.86079884 C581.61050158 425.86349336 570.7626984 425.9495399 559.84521866 426.05606461 C556.08518164 426.09159137 552.32532242 426.11166779 548.56515503 426.12789917 C537.8953913 426.17620451 527.22588792 426.24836547 516.55639648 426.3371582 C509.98002979 426.39170345 503.40374212 426.42482542 496.82717514 426.4468956 C494.34015855 426.45925317 491.85316694 426.47918537 489.36627579 426.50705338 C485.8982288 426.54564716 482.43087985 426.55929653 478.96264648 426.56762695 C477.95161865 426.58515015 476.94059082 426.60267334 475.89892578 426.62072754 C467.20721423 426.59699096 458.86473374 424.45018296 452.55981445 418.14526367 C450.79190741 415.97301779 449.08465087 413.76323978 447.3918457 411.53198242 C445.60573295 409.20508499 443.7728494 406.94201139 441.87231445 404.70776367 C441.33219727 404.06967773 440.79208008 403.4315918 440.2355957 402.77416992 C436.24640389 398.89656389 432.36428246 398.82346056 426.99731445 398.89526367 C426.28567139 398.90058105 425.57402832 398.90589844 424.84082031 398.91137695 C418.09188178 399.03168975 411.75173589 400.1164007 405.2043457 401.72338867 C395.86660441 403.97344681 387.0543922 404.11233565 378.43481445 399.45776367 C376.09688494 397.57725515 374.62820041 396.07118221 372.80981445 393.77026367 C370.38391409 390.77768317 367.97224479 389.04068568 364.62231445 387.14526367 C358.30835885 383.57239658 354.04704804 378.87910017 349.34106445 373.44604492 C337.74981199 360.17881988 326.06134832 347.0203655 311.02124023 337.65673828 C297.96697174 329.46648246 285.27330718 319.48509904 277.0559082 306.30932617 C274.3875811 302.4496572 270.95936078 299.35358552 267.55981445 296.14526367 C262.55981445 291.14526367 262.55981445 291.14526367 261.05639648 289.578125 C256.98310192 285.3843995 252.72539172 281.82150851 247.99731445 278.39526367 C246.58105832 277.34959511 245.16571049 276.30269536 243.7512207 275.25463867 C243.04755371 274.73450195 242.34388672 274.21436523 241.61889648 273.6784668 C227.57946806 263.22463581 214.31593393 251.90937085 201.62060547 239.86474609 C199.07740308 237.45732043 196.56319456 235.14793699 193.8137207 232.97338867 C191.67393553 231.23782635 190.17311923 229.61355774 188.55981445 227.39526367 C188.05321289 226.70174805 187.54661133 226.00823242 187.0246582 225.29370117 C185.62861059 223.24616467 184.37207363 221.15919578 183.12231445 219.02026367 C181.43347269 216.24496957 179.7754002 214.30645943 177.24731445 212.27026367 C172.57670925 208.50364657 169.15761269 203.91721246 165.55981445 199.14526367 C165.12588379 198.5703418 164.69195312 197.99541992 164.24487305 197.40307617 C159.5875996 191.20862478 155.01979862 185.02667036 150.99731445 178.39526367 C147.87670445 173.36058023 144.14183773 169.19678469 140.0949707 164.88745117 C136.85185424 161.37948853 133.86733123 157.69958774 130.88012695 153.97338867 C129.33647248 152.09189736 127.74716478 150.24693528 126.11450195 148.44213867 C118.78854491 140.26330902 113.02896082 131.35663379 107.30566406 121.99047852 C103.94220167 116.5545031 100.66844617 111.96485557 95.98950195 107.60864258 C93.99771572 105.56991876 93.15857541 103.42668356 92.18481445 100.77026367 C89.31221099 94.56699296 85.20212095 90.4284657 80.30981445 85.70776367 C64.69680722 70.58443258 54.19842435 54.49755663 49.23046875 33.10742188 C47.84189469 27.28808941 45.99770117 22.85322265 40.91137695 19.28979492 C36.48819299 17.77931368 32.57500152 17.73667546 27.93481445 17.83276367 C27.05051758 17.84404297 26.1662207 17.85532227 25.25512695 17.86694336 C12.16925257 17.73757876 12.16925257 17.73757876 1.55981445 24.14526367 Z " fill="#E4181E" transform="translate(254.440185546875,170.854736328125)"/>
<path d="M0 0 C1.65 0 3.3 0 5 0 C5 11.88 5 23.76 5 36 C2.33333333 36 -0.33333333 36 -3 36 C-3.68835938 36.05800781 -4.37671875 36.11601563 -5.0859375 36.17578125 C-9.51714955 36.44044409 -11.36323063 36.49084306 -15 33.6875 C-18.79350998 28.58997096 -18.64899861 23.13917603 -18 17 C-16.01031547 13.08924075 -14.63466354 11.42310902 -11 9 C-4.67741935 8.5483871 -4.67741935 8.5483871 -1 11 C-0.67 7.37 -0.34 3.74 0 0 Z " fill="#A4A4A4" transform="translate(453,880)"/>
<path d="M0 0 C2.31 0 4.62 0 7 0 C10.90216223 9.13565041 13.91697676 18.56594888 17 28 C20.85652645 18.84043358 23.91504362 9.43996652 27 0 C29.31 0 31.62 0 34 0 C34 11.88 34 23.76 34 36 C32.68 36 31.36 36 30 36 C29.67 27.09 29.34 18.18 29 9 C28.40832031 10.86527344 27.81664062 12.73054687 27.20703125 14.65234375 C26.40995241 17.08108987 25.61171529 19.50945607 24.8125 21.9375 C24.42513672 23.16919922 24.03777344 24.40089844 23.63867188 25.66992188 C23.24873047 26.83974609 22.85878906 28.00957031 22.45703125 29.21484375 C22.10616455 30.29886475 21.75529785 31.38288574 21.39379883 32.49975586 C20 35 20 35 17.34643555 35.86157227 C16.57211182 35.90725342 15.79778809 35.95293457 15 36 C11.0949657 26.85762558 8.09921689 17.43852417 5 8 C4.67 17.24 4.34 26.48 4 36 C2.68 36 1.36 36 0 36 C0 24.12 0 12.24 0 0 Z " fill="#AEAEAE" transform="translate(834,880)"/>
<path d="M0 0 C4.3604287 2.22135047 7.20212362 4.40542702 9 9 C9.68031111 14.01414487 9.55368338 17.82874671 7.375 22.4375 C3.95222304 26.1304962 0.97865481 27.71144617 -4 28.4375 C-7.94665429 27.86194625 -9.96043437 26.56674431 -13 24 C-16.2937473 19.27896221 -16.91296574 14.59818552 -16 9 C-12.30762665 1.87899424 -8.21580055 -1.4247053 0 0 Z " fill="#A5A5A5" transform="translate(566,889)"/>
<path d="M0 0 C3.75212276 2.01502889 5.63644095 3.45466142 8 7 C8.30078125 9.9609375 8.30078125 9.9609375 8.3125 13.375 C8.32925781 14.49648438 8.34601562 15.61796875 8.36328125 16.7734375 C7.96292847 20.32925895 7.13849012 22.16044826 5 25 C0.94184834 27.61525329 -2.19144587 28.70124748 -7 28 C-11.85349893 25.52566721 -14.27243952 23.18268145 -16 18 C-16.71773476 13.61384315 -17.03944397 9.76101516 -14.72265625 5.8359375 C-10.38429184 0.680815 -6.88406383 -0.94687867 0 0 Z " fill="#A8A8A8" transform="translate(890,889)"/>
<path d="M0 0 C3.13393286 2.2121879 3.91441156 2.83691052 5.1875 6.25 C5.7386073 11.05250648 5.80063642 15.64903269 4.0625 20.1875 C1.10285022 23.44311476 -1.4531848 26.03778646 -6.02734375 26.44921875 C-10.3083687 26.19990781 -12.38678789 25.58702209 -15.8125 22.875 C-19.64806638 17.84081912 -19.44873275 12.350862 -18.8125 6.25 C-17.19045062 2.9479709 -15.90370239 1.07780871 -13 -1.125 C-8.25837267 -2.47975066 -4.34382488 -2.29860733 0 0 Z " fill="#AAAAAA" transform="translate(712.8125,890.75)"/>
<path d="M0 0 C3.13393286 2.2121879 3.91441156 2.83691052 5.1875 6.25 C5.7386073 11.05250648 5.80063642 15.64903269 4.0625 20.1875 C1.10285022 23.44311476 -1.4531848 26.03778646 -6.02734375 26.44921875 C-10.3083687 26.19990781 -12.38678789 25.58702209 -15.8125 22.875 C-19.64806638 17.84081912 -19.44873275 12.350862 -18.8125 6.25 C-17.19045062 2.9479709 -15.90370239 1.07780871 -13 -1.125 C-8.25837267 -2.47975066 -4.34382488 -2.29860733 0 0 Z " fill="#AAAAAA" transform="translate(498.8125,890.75)"/>
<path d="M0 0 C6.02968736 4.72597117 6.02968736 4.72597117 6.6640625 9.40625 C6.81695546 14.57681199 6.86554712 18.75187472 3.3125 22.8125 C-0.66033669 26.39068404 -3.87107652 26.36666639 -9.05078125 26.2421875 C-11.6875 25.8125 -11.6875 25.8125 -14.8125 23.4375 C-17.61776968 19.51012245 -17.89620144 17.32390148 -18 12.5 C-18.03738281 11.36949219 -18.07476562 10.23898437 -18.11328125 9.07421875 C-17.60363135 5.17001999 -16.39245953 3.60829772 -13.6875 0.8125 C-9.51813823 -2.206693 -4.59909565 -2.03215854 0 0 Z " fill="#A9A9A9" transform="translate(424.6875,890.1875)"/>
<path d="M0 0 C1.98 0 3.96 0 6 0 C9.74120324 7.76583098 13.1484737 15.63371974 16.375 23.625 C16.91157227 24.94032715 16.91157227 24.94032715 17.45898438 26.28222656 C17.78962891 27.10948242 18.12027344 27.93673828 18.4609375 28.7890625 C18.90638916 29.89822021 18.90638916 29.89822021 19.36083984 31.02978516 C20 33 20 33 20 36 C18.35 36 16.7 36 15 36 C13.68 32.7 12.36 29.4 11 26 C5.72 25.67 0.44 25.34 -5 25 C-5.309375 26.44375 -5.61875 27.8875 -5.9375 29.375 C-6.45483647 31.78923686 -6.89485234 33.78970467 -8 36 C-9.65 36 -11.3 36 -13 36 C-12.30461062 31.68714461 -10.87285697 27.77487294 -9.27734375 23.73046875 C-8.87993736 22.70896477 -8.87993736 22.70896477 -8.47450256 21.66682434 C-7.63266351 19.50553269 -6.78517493 17.34650855 -5.9375 15.1875 C-5.36355707 13.71694326 -4.78998532 12.2462416 -4.21679688 10.77539062 C-2.81548952 7.18190172 -1.40911334 3.59043473 0 0 Z " fill="#AAAAAA" transform="translate(342,880)"/>
<path d="M0 0 C2.125 1.1875 2.125 1.1875 4.125 4.1875 C4.44384766 6.54760742 4.44384766 6.54760742 4.5390625 9.29296875 C4.57773437 10.27587891 4.61640625 11.25878906 4.65625 12.27148438 C4.6871875 13.29564453 4.718125 14.31980469 4.75 15.375 C4.78867187 16.41076172 4.82734375 17.44652344 4.8671875 18.51367188 C4.96148296 21.07143622 5.04708202 23.62919287 5.125 26.1875 C3.475 26.1875 1.825 26.1875 0.125 26.1875 C0.125 25.5275 0.125 24.8675 0.125 24.1875 C-0.90625 24.6825 -1.9375 25.1775 -3 25.6875 C-6.45192978 27.14900253 -9.09182012 27.68095825 -12.875 27.1875 C-17.50735294 24.92279412 -17.50735294 24.92279412 -18.875 22.1875 C-19.25040566 18.73376797 -19.42878656 16.91053674 -17.27734375 14.1015625 C-14.28571261 11.71798647 -11.8594567 11.18439134 -8.125 10.4375 C-6.95453125 10.19515625 -5.7840625 9.9528125 -4.578125 9.703125 C-3.68609375 9.53296875 -2.7940625 9.3628125 -1.875 9.1875 C-1.875 7.8675 -1.875 6.5475 -1.875 5.1875 C-4.9582635 3.64586825 -7.48378099 3.89002465 -10.875 4.1875 C-12.58032323 6.12759522 -12.58032323 6.12759522 -13.875 8.1875 C-15.195 8.1875 -16.515 8.1875 -17.875 8.1875 C-17.3797783 4.52285945 -16.8541794 2.47917646 -13.875 0.1875 C-9.17807828 -1.37814057 -4.71602005 -1.33278828 0 0 Z " fill="#A4A4A4" transform="translate(974.875,889.8125)"/>
<path d="M0 0 C2.7578125 1.828125 2.7578125 1.828125 5 5 C5.74241812 8.76940008 5.79042578 12.47894456 5.8125 16.3125 C5.83763672 17.33923828 5.86277344 18.36597656 5.88867188 19.42382812 C5.94741085 21.949604 5.98378712 24.47365228 6 27 C4.35 27 2.7 27 1 27 C0.67 26.34 0.34 25.68 0 25 C-0.86625 25.495 -1.7325 25.99 -2.625 26.5 C-6.842949 28.374644 -9.87805799 28.76625684 -14.25 27.1875 C-16 26 -16 26 -18 23 C-18.5 20.125 -18.5 20.125 -18 17 C-13.33552902 11.45306153 -7.9736582 10.83137918 -1 10 C-1.33 8.35 -1.66 6.7 -2 5 C-6.021089 4.72240142 -6.021089 4.72240142 -10 5 C-11.77409808 6.92022703 -11.77409808 6.92022703 -13 9 C-14.32 9 -15.64 9 -17 9 C-16.80037128 5.40668306 -16.21261372 4.20171045 -13.5625 1.6875 C-9.06857102 -0.4412032 -4.88389996 -1.24612978 0 0 Z " fill="#A5A5A5" transform="translate(768,889)"/>
<path d="M0 0 C2.7578125 1.828125 2.7578125 1.828125 5 5 C5.74241812 8.76940008 5.79042578 12.47894456 5.8125 16.3125 C5.83763672 17.33923828 5.86277344 18.36597656 5.88867188 19.42382812 C5.94741085 21.949604 5.98378712 24.47365228 6 27 C4.35 27 2.7 27 1 27 C0.67 26.34 0.34 25.68 0 25 C-0.86625 25.495 -1.7325 25.99 -2.625 26.5 C-6.842949 28.374644 -9.87805799 28.76625684 -14.25 27.1875 C-16 26 -16 26 -18 23 C-18.5 20.125 -18.5 20.125 -18 17 C-13.33552902 11.45306153 -7.9736582 10.83137918 -1 10 C-1.33 8.35 -1.66 6.7 -2 5 C-6.021089 4.72240142 -6.021089 4.72240142 -10 5 C-11.77409808 6.92022703 -11.77409808 6.92022703 -13 9 C-14.32 9 -15.64 9 -17 9 C-16.80037128 5.40668306 -16.21261372 4.20171045 -13.5625 1.6875 C-9.06857102 -0.4412032 -4.88389996 -1.24612978 0 0 Z " fill="#A5A5A5" transform="translate(647,889)"/>
<path d="M0 0 C1.65 0 3.3 0 5 0 C6.76036703 1.96538503 8.04798184 3.69459033 9.42578125 5.90625 C10.01446236 6.80518982 10.01446236 6.80518982 10.61503601 7.72229004 C11.86418076 9.63797473 13.08831613 11.56829115 14.3125 13.5 C15.15530063 14.80181876 15.9996838 16.10261444 16.84570312 17.40234375 C18.91891649 20.58845967 20.95757537 23.79320244 23 27 C23.33 18.09 23.66 9.18 24 0 C25.32 0 26.64 0 28 0 C28 11.88 28 23.76 28 36 C26.35 36 24.7 36 23 36 C21.23963297 34.03461497 19.95201816 32.30540967 18.57421875 30.09375 C18.18176468 29.49445679 17.78931061 28.89516357 17.38496399 28.27770996 C16.13581924 26.36202527 14.91168387 24.43170885 13.6875 22.5 C12.84469937 21.19818124 12.0003162 19.89738556 11.15429688 18.59765625 C9.08108351 15.41154033 7.04242463 12.20679756 5 9 C4.67 17.91 4.34 26.82 4 36 C2.68 36 1.36 36 0 36 C0 24.12 0 12.24 0 0 Z " fill="#B2B2B2" transform="translate(595,880)"/>
<path d="M0 0 C2.91009669 2.35953786 4.55841707 4.56173225 6.3125 7.875 C6.3125 9.855 6.3125 11.835 6.3125 13.875 C-0.2875 13.875 -6.8875 13.875 -13.6875 13.875 C-11.2672509 19.50606761 -11.2672509 19.50606761 -8.6875 21.875 C-5.77211971 22.37542146 -5.77211971 22.37542146 -2.6875 21.875 C-1.31439293 20.58266393 0.02284824 19.25062854 1.3125 17.875 C2.6325 17.875 3.9525 17.875 5.3125 17.875 C5.25 20.125 5.25 20.125 4.3125 22.875 C0.39196201 25.97875924 -2.29369393 27.23124283 -7.3125 26.9375 C-11.73079511 26.21368374 -13.91115933 24.43218649 -16.6875 20.875 C-18.77832938 16.69334124 -18.12146477 11.42865777 -17.6875 6.875 C-16.48944271 3.60982832 -14.65919168 1.61214541 -11.875 -0.5 C-7.6562895 -1.70534586 -4.05636804 -1.69801453 0 0 Z " fill="#A7A7A7" transform="translate(807.6875,890.125)"/>
<path d="M0 0 C0.99 0.66 1.98 1.32 3 2 C3 2.66 3 3.32 3 4 C3.86625 3.34 4.7325 2.68 5.625 2 C9.29741751 -0.17624741 10.83310042 -0.7092595 15 0 C17.6640625 1.296875 17.6640625 1.296875 20 4 C20.63431138 7.9286382 20.46874863 11.78368856 20.3125 15.75 C20.28994141 16.82894531 20.26738281 17.90789063 20.24414062 19.01953125 C20.1852565 21.6810935 20.10307001 24.33984228 20 27 C18.68 27 17.36 27 16 27 C15.67 19.74 15.34 12.48 15 5 C12.69 5 10.38 5 8 5 C5.56085508 7.43914492 5.71337477 8.21446431 5.5859375 11.5703125 C5.54726563 12.46621094 5.50859375 13.36210938 5.46875 14.28515625 C5.42234375 15.69087891 5.42234375 15.69087891 5.375 17.125 C5.33632813 18.06988281 5.29765625 19.01476562 5.2578125 19.98828125 C5.16338654 22.32532375 5.07781606 24.66235501 5 27 C3.35 27 1.7 27 0 27 C-0.02505615 26.36908447 -0.0501123 25.73816895 -0.07592773 25.08813477 C-0.19154137 22.24603175 -0.31442316 19.40428917 -0.4375 16.5625 C-0.47681641 15.56927734 -0.51613281 14.57605469 -0.55664062 13.55273438 C-0.61948242 12.13637695 -0.61948242 12.13637695 -0.68359375 10.69140625 C-0.72025146 9.81685791 -0.75690918 8.94230957 -0.79467773 8.04125977 C-0.78181066 6.0072598 -0.78181066 6.0072598 -2 5 C-5.56756838 4.6147442 -5.56756838 4.6147442 -8.63208008 6.23754883 C-10.33653635 8.43359913 -10.41916142 9.69101044 -10.51171875 12.44921875 C-10.54716797 13.29677734 -10.58261719 14.14433594 -10.61914062 15.01757812 C-10.64169922 15.89865234 -10.66425781 16.77972656 -10.6875 17.6875 C-10.72166016 18.58017578 -10.75582031 19.47285156 -10.79101562 20.39257812 C-10.87345648 22.59492671 -10.94261551 24.79687938 -11 27 C-12.32 27 -13.64 27 -15 27 C-15 18.42 -15 9.84 -15 1 C-12.525 1.495 -12.525 1.495 -10 2 C-6.31282562 -0.45811625 -4.35654296 -0.31118164 0 0 Z " fill="#A9A9A9" transform="translate(525,889)"/>
<path d="M0 0 C4.6 2.2 4.6 2.2 6 5 C6.08426094 6.6674606 6.10725143 8.33825187 6.09765625 10.0078125 C6.09443359 10.99394531 6.09121094 11.98007812 6.08789062 12.99609375 C6.07951172 14.02863281 6.07113281 15.06117188 6.0625 16.125 C6.05798828 17.16527344 6.05347656 18.20554687 6.04882812 19.27734375 C6.03701952 21.85161962 6.02055075 24.42578146 6 27 C4.35 27 2.7 27 1 27 C0.67 20.07 0.34 13.14 0 6 C-6.36122881 4.33483854 -6.36122881 4.33483854 -8.90551758 6.15942383 C-10.23382745 8.39322443 -10.42471616 9.85654148 -10.51171875 12.44921875 C-10.54716797 13.29677734 -10.58261719 14.14433594 -10.61914062 15.01757812 C-10.64169922 15.89865234 -10.66425781 16.77972656 -10.6875 17.6875 C-10.72166016 18.58017578 -10.75582031 19.47285156 -10.79101562 20.39257812 C-10.87345648 22.59492671 -10.94261551 24.79687938 -11 27 C-12.32 27 -13.64 27 -15 27 C-15 18.42 -15 9.84 -15 1 C-12.525 1.495 -12.525 1.495 -10 2 C-6.27420911 -0.48386059 -4.41288598 -0.3804212 0 0 Z " fill="#A8A8A8" transform="translate(739,889)"/>
<path d="M0 0 C6.93 0 13.86 0 21 0 C19.91358795 4.34564821 18.60271843 6.00274676 15.75 9.375 C14.59757813 10.74785156 14.59757813 10.74785156 13.421875 12.1484375 C12.62265625 13.08945312 11.8234375 14.03046875 11 15 C9.35 16.98 7.7 18.96 6 21 C11.28 21.33 16.56 21.66 22 22 C22 23.32 22 24.64 22 26 C14.08 26 6.16 26 -2 26 C-0.93989264 20.69946318 0.71234774 18.67001291 4.3125 15 C5.28923291 13.98057546 6.26451463 12.95975836 7.23828125 11.9375 C7.67180908 11.49277344 8.10533691 11.04804687 8.55200195 10.58984375 C10.47112274 8.48272613 12.21956769 6.22554039 14 4 C7.07 3.505 7.07 3.505 0 3 C0 2.01 0 1.02 0 0 Z " fill="#ABABAB" transform="translate(931,890)"/>
<path d="M0 0 C6.93 0 13.86 0 21 0 C19.91358795 4.34564821 18.60271843 6.00274676 15.75 9.375 C14.59757813 10.74785156 14.59757813 10.74785156 13.421875 12.1484375 C12.62265625 13.08945312 11.8234375 14.03046875 11 15 C9.35 16.98 7.7 18.96 6 21 C11.28 21.33 16.56 21.66 22 22 C22 23.32 22 24.64 22 26 C14.08 26 6.16 26 -2 26 C-0.93989264 20.69946318 0.71234774 18.67001291 4.3125 15 C5.28923291 13.98057546 6.26451463 12.95975836 7.23828125 11.9375 C7.67180908 11.49277344 8.10533691 11.04804687 8.55200195 10.58984375 C10.47112274 8.48272613 12.21956769 6.22554039 14 4 C7.07 3.505 7.07 3.505 0 3 C0 2.01 0 1.02 0 0 Z " fill="#ABABAB" transform="translate(658,890)"/>
<path d="M0 0 C2.85337884 3.04351766 3.36486906 5.08084041 3.29296875 9.203125 C3.28330078 10.1828125 3.27363281 11.1625 3.26367188 12.171875 C3.23853516 13.18765625 3.21339844 14.2034375 3.1875 15.25 C3.16719727 16.796875 3.16719727 16.796875 3.14648438 18.375 C3.11117607 20.91719792 3.06186036 23.45833223 3 26 C1.68 26 0.36 26 -1 26 C-1.01458252 25.40461426 -1.02916504 24.80922852 -1.04418945 24.19580078 C-1.11854344 21.50486949 -1.21524187 18.81519667 -1.3125 16.125 C-1.33505859 15.18785156 -1.35761719 14.25070312 -1.38085938 13.28515625 C-1.4340332 11.94130859 -1.4340332 11.94130859 -1.48828125 10.5703125 C-1.51446533 9.74289551 -1.54064941 8.91547852 -1.56762695 8.06298828 C-1.83096637 5.60672068 -1.83096637 5.60672068 -5 4 C-7.5 3.5 -7.5 3.5 -10 4 C-12.7787228 6.48941268 -13.2333821 8.75651517 -13.51171875 12.328125 C-13.58446328 13.96818349 -13.64262733 15.6089424 -13.6875 17.25 C-13.72166016 18.09046875 -13.75582031 18.9309375 -13.79101562 19.796875 C-13.87323568 21.86412204 -13.93830157 23.93203874 -14 26 C-15.32 26 -16.64 26 -18 26 C-18 17.42 -18 8.84 -18 0 C-16.68 0 -15.36 0 -14 0 C-14 0.66 -14 1.32 -14 2 C-13.0409375 1.2265625 -13.0409375 1.2265625 -12.0625 0.4375 C-7.97899044 -1.47924939 -4.28511036 -1.46849288 0 0 Z " fill="#AFAFAF" transform="translate(922,890)"/>
<path d="M0 0 C2.30275556 1.8670991 3.67823871 3.35647741 5 6 C5.37712577 10.99691647 5.09290612 13.99067725 2 18 C-1.24826674 20.16551116 -2.23094157 20.55156953 -6 20 C-8.79035429 17.7522146 -9.85910005 16.42269984 -11 13 C-11.37032807 8.00057109 -11.0799137 5.02757945 -8 1 C-5.15916359 -0.42041821 -3.14522722 -0.31452272 0 0 Z " fill="#070707" transform="translate(709,893)"/>
<path d="M0 0 C2.30275556 1.8670991 3.67823871 3.35647741 5 6 C5.37712577 10.99691647 5.09290612 13.99067725 2 18 C-1.24826674 20.16551116 -2.23094157 20.55156953 -6 20 C-8.79035429 17.7522146 -9.85910005 16.42269984 -11 13 C-11.37032807 8.00057109 -11.0799137 5.02757945 -8 1 C-5.15916359 -0.42041821 -3.14522722 -0.31452272 0 0 Z " fill="#070707" transform="translate(495,893)"/>
<path d="M0 0 C1.32 0 2.64 0 4 0 C4.01981934 0.55985596 4.03963867 1.11971191 4.06005859 1.6965332 C4.15537783 4.23565854 4.26502753 6.77396888 4.375 9.3125 C4.4059375 10.19357422 4.436875 11.07464844 4.46875 11.98242188 C4.50742187 12.82998047 4.54609375 13.67753906 4.5859375 14.55078125 C4.6173584 15.33106689 4.6487793 16.11135254 4.68115234 16.9152832 C4.89587889 19.30155768 4.89587889 19.30155768 7 22 C10.43230448 21.73606499 10.43230448 21.73606499 14 21 C16.0140956 17.9788566 16.26836596 17.19339983 16.4140625 13.76953125 C16.45273437 12.96708984 16.49140625 12.16464844 16.53125 11.33789062 C16.57765625 10.08782227 16.57765625 10.08782227 16.625 8.8125 C16.66367187 7.96751953 16.70234375 7.12253906 16.7421875 6.25195312 C16.83636279 4.16832476 16.91926675 2.08419247 17 0 C18.32 0 19.64 0 21 0 C21 8.58 21 17.16 21 26 C19.68 26 18.36 26 17 26 C16.67 25.34 16.34 24.68 16 24 C15.319375 24.515625 14.63875 25.03125 13.9375 25.5625 C10.09474677 27.44299626 8.08867758 27.11509388 4 26 C1.80078125 24.64453125 1.80078125 24.64453125 0 22 C-0.49839351 18.23995336 -0.37486298 14.53430881 -0.25 10.75 C-0.23195313 9.71875 -0.21390625 8.6875 -0.1953125 7.625 C-0.14822712 5.08238936 -0.0824805 2.54166838 0 0 Z " fill="#B0B0B0" transform="translate(366,890)"/>
<path d="M0 0 C2.875 2 2.875 2 5 5 C5.71621062 10.6401586 5.10655925 14.10119502 2 19 C-0.87470493 20.43735246 -2.81894588 20.38172649 -6 20 C-8.93339092 17.76135956 -9.85474685 16.00195031 -10.3828125 12.359375 C-10.55439948 8.08113974 -10.6196223 5.02475995 -8.375 1.3125 C-5.22091596 -0.43054644 -3.55483933 -0.65292967 0 0 Z " fill="#050505" transform="translate(889,893)"/>
<path d="M0 0 C2.375 1.3125 2.375 1.3125 4 4 C4.89077665 9.41126005 4.9128261 13.56160735 1.9375 18.25 C-1 20 -1 20 -4.625 20.125 C-8 19 -8 19 -9.9375 17 C-11.39179256 12.89376218 -11.82439171 9.30083602 -11 5 C-7.90494929 0.53948574 -5.42331926 -1.03850794 0 0 Z " fill="#050505" transform="translate(422,893)"/>
<path d="M0 0 C4.22151156 0.86153297 5.60819464 2.08791287 8.0625 5.625 C8.88689171 9.92583602 8.45429256 13.51876218 7 17.625 C5.0625 19.625 5.0625 19.625 1.625 20.625 C-1.9375 20.625 -1.9375 20.625 -4.3125 19.375 C-7.42271127 16.02554171 -7.27851173 12.19196574 -7.21484375 7.85546875 C-6.63201386 3.16820301 -4.52583018 0.96294259 0 0 Z " fill="#040404" transform="translate(561.9375,892.375)"/>
<path d="M0 0 C3.1875 0.3125 3.1875 0.3125 5.5625 1.625 C8.19178474 5.97343245 7.9109384 10.37265803 7.1875 15.3125 C5.5 18.5 5.5 18.5 3.1875 20.3125 C0.6875 20.875 0.6875 20.875 -1.8125 20.3125 C-4.60285429 18.0647146 -5.67160005 16.73519984 -6.8125 13.3125 C-7.18529581 8.27975663 -6.82225759 5.40577032 -3.8125 1.3125 C-2.8125 0.3125 -2.8125 0.3125 0 0 Z " fill="#060606" transform="translate(445.8125,892.6875)"/>
<path d="M0 0 C0 2.97 0 5.94 0 9 C1.65 9 3.3 9 5 9 C5 9.99 5 10.98 5 12 C3.35 12 1.7 12 0 12 C0.33 17.94 0.66 23.88 1 30 C2.32 30.33 3.64 30.66 5 31 C5 32.32 5 33.64 5 35 C1.625 35.125 1.625 35.125 -2 35 C-4 33 -4 33 -4.22705078 30.84521484 C-4.21657715 29.97590332 -4.20610352 29.1065918 -4.1953125 28.2109375 C-4.18886719 27.26992188 -4.18242187 26.32890625 -4.17578125 25.359375 C-4.15902344 24.37453125 -4.14226562 23.3896875 -4.125 22.375 C-4.11597656 21.38242187 -4.10695313 20.38984375 -4.09765625 19.3671875 C-4.07404116 16.91121866 -4.04110799 14.45572832 -4 12 C-4.99 12 -5.98 12 -7 12 C-7 11.01 -7 10.02 -7 9 C-6.01 9 -5.02 9 -4 9 C-4.061875 7.88625 -4.12375 6.7725 -4.1875 5.625 C-4.125625 4.42875 -4.06375 3.2325 -4 2 C-1 0 -1 0 0 0 Z " fill="#B1B1B1" transform="translate(399,881)"/>
<path d="M0 0 C2.33944736 0.28730055 4.6739143 0.61936779 7 1 C6.67 2.32 6.34 3.64 6 5 C4.865625 5.309375 3.73125 5.61875 2.5625 5.9375 C-0.78775099 6.62924531 -0.78775099 6.62924531 -2 8 C-2.15620555 9.41327947 -2.25056173 10.8335459 -2.31640625 12.25390625 C-2.35830078 13.10791016 -2.40019531 13.96191406 -2.44335938 14.84179688 C-2.50233398 16.18854492 -2.50233398 16.18854492 -2.5625 17.5625 C-2.60568359 18.46419922 -2.64886719 19.36589844 -2.69335938 20.29492188 C-2.79978142 22.52978485 -2.90179988 24.76476308 -3 27 C-4.65 27 -6.3 27 -8 27 C-8 18.42 -8 9.84 -8 1 C-5.66666667 1 -3.33333333 1 -1 1 C-0.67 0.67 -0.34 0.34 0 0 Z " fill="#A0A0A0" transform="translate(472,889)"/>
<path d="M0 0 C1.32 0 2.64 0 4 0 C4 11.88 4 23.76 4 36 C2.68 36 1.36 36 0 36 C0 24.12 0 12.24 0 0 Z " fill="#B4B4B4" transform="translate(780,880)"/>
<path d="M0 0 C3.41767467 -0.31792323 5.56656532 -0.20663746 8.6875 1.28125 C12.39334872 5.6381262 11.52976173 10.23489465 11.3125 15.75 C11.27866211 17.36841797 11.27866211 17.36841797 11.24414062 19.01953125 C11.1852565 21.6810935 11.10307001 24.33984228 11 27 C9.68 27 8.36 27 7 27 C6.67 19.74 6.34 12.48 6 5 C3.36 4.67 0.72 4.34 -2 4 C-1.34 2.68 -0.68 1.36 0 0 Z " fill="#AFAFAF" transform="translate(534,889)"/>
<path d="M0 0 C1.65 0 3.3 0 5 0 C5 8.58 5 17.16 5 26 C3.35 26 1.7 26 0 26 C0 17.42 0 8.84 0 0 Z " fill="#A2A2A2" transform="translate(684,890)"/>
<path d="M0 0 C3.64780666 4.1689219 6 9.44803736 6 15 C2.04 15 -1.92 15 -6 15 C-5.19093245 12.68624595 -4.37793083 10.37401052 -3.5625 8.0625 C-3.33240234 7.40314453 -3.10230469 6.74378906 -2.86523438 6.06445312 C-1.11328125 1.11328125 -1.11328125 1.11328125 0 0 Z " fill="#090909" transform="translate(345,886)"/>
<path d="M0 0 C0.36768802 5.51532033 0.36768802 5.51532033 -1.375 7.8125 C-4.63647802 10.19588778 -6.99355269 10.25040296 -11 10 C-11.66 9.34 -12.32 8.68 -13 8 C-12.9375 5.5 -12.9375 5.5 -12 3 C-8.45000534 0.97143162 -4.10826587 0 0 0 Z " fill="#050505" transform="translate(768,903)"/>
<path d="M0 0 C0.36768802 5.51532033 0.36768802 5.51532033 -1.375 7.8125 C-4.63647802 10.19588778 -6.99355269 10.25040296 -11 10 C-11.66 9.34 -12.32 8.68 -13 8 C-12.9375 5.5 -12.9375 5.5 -12 3 C-8.45000534 0.97143162 -4.10826587 0 0 0 Z " fill="#050505" transform="translate(647,903)"/>
<path d="M0 0 C-0.48355011 6.40703902 -0.48355011 6.40703902 -2.6875 8.9375 C-5.65168456 10.29942264 -7.77345463 10.35071145 -11 10 C-11.66 9.34 -12.32 8.68 -13 8 C-12.9375 5.5 -12.9375 5.5 -12 3 C-8.45000534 0.97143162 -4.10826587 0 0 0 Z " fill="#040404" transform="translate(974,903)"/>
<path d="M0 0 C2.375 1.8125 2.375 1.8125 4 4 C4 4.99 4 5.98 4 7 C-0.62 7 -5.24 7 -10 7 C-9.67 5.35 -9.34 3.7 -9 2 C-5.50875983 -0.32749345 -4.10777749 -0.50299316 0 0 Z " fill="#040404" transform="translate(805,893)"/>
<path d="M0 0 C1.65 0 3.3 0 5 0 C5 1.65 5 3.3 5 5 C3.35 5 1.7 5 0 5 C0 3.35 0 1.7 0 0 Z " fill="#9D9D9D" transform="translate(684,880)"/>
</svg>
