<?xml version="1.0" encoding="UTF-8"?>
<svg version="1.1" xmlns="http://www.w3.org/2000/svg" width="1350" height="1080">
<path d="M0 0 C445.5 0 891 0 1350 0 C1350 356.4 1350 712.8 1350 1080 C904.5 1080 459 1080 0 1080 C0 723.6 0 367.2 0 0 Z " fill="#000000" transform="translate(0,0)"/>
<path d="M0 0 C6.02822705 -0.04991844 12.05633034 -0.08596198 18.0847168 -0.10986328 C20.12998555 -0.11984099 22.17524034 -0.13342795 24.22045898 -0.15087891 C51.6321022 -0.37869506 71.21704983 4.90301264 91.34375 24.3203125 C108.81870392 41.94945719 111.57707478 63.79308083 111.5625 87.5 C111.57711454 98.59340851 111.73344681 109.25539556 113.90550232 120.16127014 C115.1182957 126.27174658 115.50637242 132.22226217 115.625 138.4375 C115.67581485 140.41546787 115.73030429 142.39334591 115.7890625 144.37109375 C115.81540771 145.6384436 115.81540771 145.6384436 115.84228516 146.93139648 C115.87369948 149.06233537 115.87369948 149.06233537 117 151 C117.09654127 153.8567609 117.13707646 156.69367031 117.140625 159.55078125 C117.15895431 161.29884114 117.17852474 163.04688838 117.19921875 164.79492188 C117.22818171 167.55352075 117.24999979 170.31130758 117.25048828 173.07006836 C117.25382612 175.73104056 117.28839537 178.39013539 117.328125 181.05078125 C117.31752045 182.28227654 117.31752045 182.28227654 117.30670166 183.53865051 C117.39729491 187.81006667 117.64161754 189.53092229 120.3190918 193.03540039 C123.78649821 195.57635471 126.45795046 195.46605436 130.5625 195.125 C135.65631246 194.81200062 139.4104098 195.02788857 144.30493164 196.47973633 C151.72970381 198.39065567 159.01095512 198.44086657 166.6171875 198.44140625 C168.08783255 198.45321129 169.55846577 198.466583 171.02908325 198.48143005 C174.86367928 198.51727796 178.69817021 198.53772111 182.53289795 198.55297852 C188.68934943 198.5780067 194.84556921 198.61767354 201.00180435 198.67487907 C203.13886356 198.69109645 205.2756984 198.69497343 207.41281128 198.69789124 C208.71501617 198.70807785 210.01722107 198.71826447 211.35888672 198.72875977 C213.06998123 198.73517235 213.06998123 198.73517235 214.81564331 198.74171448 C218.16734734 199.01357367 220.84361437 199.87824811 224 201 C226.67276962 201.2158742 229.25283934 201.34706714 231.92578125 201.37890625 C232.67280807 201.39590073 233.4198349 201.4128952 234.1894989 201.43040466 C236.56374785 201.48318777 238.93798611 201.52362105 241.3125 201.5625 C243.67620957 201.60678779 246.0398016 201.65384519 248.40336609 201.70530701 C249.86812917 201.73663331 251.33299255 201.76370226 252.79792786 201.78553772 C256.23177443 201.85359026 259.50328804 202.06511738 262.91918945 202.50708008 C270.43791247 203.3966173 278.05699047 203.14335651 285.6171875 203.1328125 C287.32349664 203.13348702 289.02980569 203.13445829 290.7361145 203.13571167 C294.29478886 203.13717925 297.85343797 203.13506283 301.41210938 203.13037109 C305.97517825 203.12464822 310.53818864 203.12797484 315.10125542 203.13394356 C318.61677494 203.13755239 322.13228051 203.13640954 325.64780045 203.13381577 C327.33113741 203.13314874 329.01447564 203.1339671 330.69781113 203.13629532 C333.04320401 203.13882994 335.38850099 203.13497096 337.73388672 203.12939453 C338.77650917 203.13243088 338.77650917 203.13243088 339.8401947 203.13552856 C342.84557908 203.12226635 345.12258159 202.95913947 348 202 C349.68637467 201.88963237 351.37658466 201.83386045 353.06640625 201.81054688 C354.6131604 201.78547058 354.6131604 201.78547058 356.19116211 201.7598877 C357.30370361 201.74631226 358.41624512 201.73273682 359.5625 201.71875 C360.70533447 201.70034058 361.84816895 201.68193115 363.02563477 201.66296387 C367.92422022 201.58420256 372.82294544 201.51652386 377.72167969 201.44775391 C381.29368932 201.39604753 384.86558033 201.3387885 388.4375 201.28125 C389.5500415 201.26767456 390.66258301 201.25409912 391.80883789 201.2401123 C393.35559204 201.21503601 393.35559204 201.21503601 394.93359375 201.18945312 C395.84165771 201.17692505 396.74972168 201.16439697 397.68530273 201.15148926 C400.15915241 201.08783645 400.15915241 201.08783645 403 200 C404.72784173 199.87424552 406.45957225 199.7986522 408.19140625 199.75390625 C409.21943359 199.72103516 410.24746094 199.68816406 411.30664062 199.65429688 C413.44978375 199.59387232 415.59301545 199.5364993 417.73632812 199.48242188 C418.77337891 199.44826172 419.81042969 199.41410156 420.87890625 199.37890625 C421.8129126 199.3538501 422.74691895 199.32879395 423.70922852 199.30297852 C426.38840031 199.05630946 428.65534353 198.61430571 431.25024414 197.99072266 C439.10287078 196.36507612 447.13671681 196.73433239 455.1171875 196.76953125 C456.91208883 196.77038979 458.70699067 196.77046818 460.50189209 196.76982117 C465.29939275 196.77096987 470.09676802 196.78529531 474.8942337 196.80276489 C477.88495597 196.81253252 480.87565936 196.81834451 483.86639404 196.82275391 C510.87568 196.86265496 537.87221722 197.11892256 564.87646484 197.6394043 C596.24061809 198.24204601 627.57338109 198.13627445 658.9375 197.5625 C660.04109863 197.5429425 661.14469727 197.52338501 662.28173828 197.50323486 C685.57229156 197.24419193 685.57229156 197.24419193 708.625 194.25 C709.51453369 194.07662109 710.40406738 193.90324219 711.32055664 193.72460938 C721.13992721 191.7078213 729.6601367 188.6782048 738 183 C739.80221874 182.24577993 741.6164859 181.52013545 743.4375 180.8125 C755.93909414 175.7158154 771.22180494 167.69617348 778.37109375 155.69921875 C779.33301025 153.41138682 779.33301025 153.41138682 780 150 C780.17684326 149.29883057 780.35368652 148.59766113 780.53588867 147.87524414 C781.2082739 143.70970978 781.20353369 139.58473875 781.23828125 135.37109375 C781.246353 134.42677994 781.25442474 133.48246613 781.26274109 132.50953674 C781.27655955 130.50483009 781.28729169 128.50010014 781.29516602 126.49536133 C781.30657018 124.48357037 781.32683296 122.4718068 781.35668945 120.46020508 C781.51443558 109.81013821 781.29085999 99.51424597 779.23046875 89.03515625 C779.07475906 88.23879257 778.91904938 87.44242889 778.75862122 86.62193298 C777.35984147 80.26709646 775.10368228 74.54991792 770.9375 69.5 C769.14915506 67.19245814 768.50787439 65.82009026 767.625 63.125 C766.57758572 60.03471074 765.38396178 58.12935566 763.12109375 55.79296875 C759.70955381 51.93698211 758.10920848 48.00649464 756.4375 43.1875 C754.26383256 37.22916529 751.98332414 31.5782796 748.84765625 26.04296875 C747.76250469 23.42760347 747.49069826 21.79890602 748 19 C752.53112102 15.15821464 757.1260681 15.49394446 762.80078125 15.671875 C775.38191931 16.96224813 785.86491067 29.71115465 794.4375 38.1875 C795.0042041 38.7448584 795.5709082 39.3022168 796.15478516 39.87646484 C799.00265022 42.74619128 801.53076776 45.64843565 803.890625 48.93359375 C807.20824265 53.47317603 811.15873889 57.11043758 815.3125 60.875 C823.87765894 68.80655175 831.67341161 76.29524157 837.5 86.5234375 C840.6209205 91.67620728 844.63981753 96.18176844 848.49951172 100.79052734 C850.17293561 102.79248853 851.8387434 104.80043082 853.5 106.8125 C854.07226318 107.50512939 854.64452637 108.19775879 855.23413086 108.91137695 C858.45771353 112.88225525 861.15788008 116.81430926 863.625 121.3125 C867.31054932 127.75226112 872.29347969 132.20989286 877.6875 137.25 C885.86543582 145.00325867 889.6337947 151.05646304 891.59619141 162.05712891 C892.24720694 165.18940316 893.39630022 168.09057153 894.5625 171.0625 C895.12130859 172.50302734 895.12130859 172.50302734 895.69140625 173.97265625 C896.85075052 176.82447663 896.85075052 176.82447663 897.98782349 178.68267822 C901.20095927 184.28579906 901.54693456 188.95173596 901.42578125 195.32421875 C901.42249313 196.30630814 901.41920502 197.28839752 901.41581726 198.30024719 C901.40016545 201.42978973 901.35630142 204.55823919 901.3125 207.6875 C901.30098884 209.73762115 901.29120956 211.78775279 901.28320312 213.83789062 C901.2187498 224.47210606 900.90908316 235.07372806 900.35571289 245.69325256 C899.97019363 253.17451103 899.81663034 260.63256675 899.8125 268.125 C899.79413086 269.89037109 899.79413086 269.89037109 899.77539062 271.69140625 C899.76592679 277.55267286 899.97235155 283.19968069 900.71998882 289.01527882 C902.42336239 302.57545236 902.27154186 316.12475275 902.23046875 329.76953125 C902.22927278 332.42494486 902.22877419 335.08035053 902.2290802 337.73576355 C902.22815095 343.27349248 902.21957166 348.81116579 902.20581055 354.34887695 C902.19011664 360.68644129 902.18481218 367.02394488 902.1855461 373.36152726 C902.18616382 379.53646903 902.18099 385.71139176 902.17275429 391.88632774 C902.16961121 394.47780938 902.16761064 397.0692927 902.16686058 399.66077614 C902.14128355 441.83556973 902.14128355 441.83556973 899.17169189 456.30348206 C894.0451084 481.51517836 895.24545023 507.50324208 895.25140381 533.09887695 C895.24813226 542.33602939 895.20535175 551.57310145 895.16766357 560.81016541 C895.1478073 565.70486842 895.13832136 570.59941435 895.13751221 575.49415588 C895.13369308 577.71493535 895.12984923 579.93571477 895.12597656 582.15649414 C895.12912621 583.65633598 895.12912621 583.65633598 895.13233948 585.18647766 C895.11850469 590.2119036 895.09753637 595.08195427 894 600 C891.33203125 602.08203125 891.33203125 602.08203125 887.8125 603.8125 C886.52528676 604.48317535 885.24151398 605.16048779 883.9609375 605.84375 C883.3019043 606.19308594 882.64287109 606.54242187 881.96386719 606.90234375 C873.71931374 611.51043827 866.23296393 617.65428215 859 623.6875 C858.48429443 624.11458252 857.96858887 624.54166504 857.43725586 624.98168945 C856.43330452 625.83855367 855.44883937 626.71876016 854.48486328 627.62036133 C853 629 853 629 851.32373047 630.27612305 C847.50504681 633.68140896 846.64191141 636.79335768 846.28448486 641.88050842 C846.13111313 645.73419638 846.11709874 649.58128884 846.125 653.4375 C846.10685688 655.04365243 846.08604911 656.64977711 846.0625 658.25585938 C846.01086413 662.17092629 845.99555394 666.08461145 846 670 C844.70707031 670.18175781 843.41414063 670.36351562 842.08203125 670.55078125 C830.7434472 672.1392446 830.7434472 672.1392446 819.5625 674.5625 C814.04546726 675.91001055 808.57966452 676.58550397 802.9375 677.125 C801.76199585 677.23823608 801.76199585 677.23823608 800.56274414 677.35375977 C797.71018623 677.60355924 794.856973 677.80670469 792 678 C790.08102905 678.13462646 790.08102905 678.13462646 788.12329102 678.27197266 C771.61616095 679.31533551 755.07540959 679.15613805 738.54339981 679.12877274 C736.04108887 679.12496744 733.53878175 679.12292451 731.03646851 679.12130737 C710.95896864 679.10598767 690.88561481 679.02169688 670.8125 678.5625 C669.93562531 678.5429425 669.05875061 678.52338501 668.15530396 678.50323486 C640.56266703 677.86199776 640.56266703 677.86199776 633.31797791 676.49330139 C629.36447343 675.90551289 625.47482015 675.83203756 621.48779297 675.81054688 C620.65453491 675.80225357 619.82127686 675.79396027 618.96276855 675.78541565 C617.16220825 675.76808364 615.36162625 675.75289848 613.56103134 675.73963928 C610.71137524 675.71852166 607.86182833 675.69150854 605.01223755 675.66296387 C597.93863402 675.59331272 590.86495236 675.5337208 583.79125977 675.47393799 C577.80530198 675.42298204 571.81940421 675.36816077 565.83353043 675.30812073 C563.02615395 675.28157122 560.21877172 675.26074579 557.41134644 675.2401123 C555.69203419 675.22350927 553.97272451 675.20663743 552.25341797 675.18945312 C551.47306183 675.18526871 550.69270569 675.18108429 549.88870239 675.17677307 C546.41130265 675.13650041 543.35373527 674.84702784 540 674 C537.52008211 673.89297258 535.06666786 673.83573032 532.58642578 673.82641602 C531.84399124 673.819729 531.1015567 673.81304199 530.33662415 673.80615234 C528.72215533 673.79210969 527.10766674 673.78021313 525.49316788 673.77020454 C522.90535979 673.75365068 520.31768865 673.73038923 517.72994995 673.70530701 C510.37016843 673.63506273 503.01031978 673.57561709 495.65039062 673.52319336 C476.91287563 673.38623713 458.27265378 673.14426556 439.58226013 671.73027039 C426.2920156 670.74124033 413.00935607 670.54379746 399.6875 670.375 C397.0777106 670.33495879 394.46792871 670.29442453 391.8581543 670.25341797 C380.01116002 670.07760123 368.16850963 669.96741737 356.3203125 670.046875 C355.36403458 670.05228302 354.40775665 670.05769104 353.42250061 670.06326294 C349.0546394 670.0902537 344.68829509 670.13440311 340.32104492 670.21240234 C333.60138963 670.29840356 327.81949529 670.28226571 321.51586914 667.70361328 C315.03803793 665.89195782 307.75813225 666.44774201 301.0625 666.375 C298.65790102 666.33815162 296.25344678 666.29719427 293.84898376 666.25234985 C292.3630377 666.22575473 290.87698933 666.20414634 289.3908844 666.18881226 C285.80878976 666.1356096 282.31883949 665.9346468 278.76306152 665.49327087 C271.35503426 664.7384078 263.92986299 664.90164291 256.49389648 664.94995117 C254.84202266 664.95679267 253.19014665 664.9631211 251.53826904 664.96897888 C247.9987211 664.9822431 244.45920194 664.99836567 240.91967583 665.01653099 C235.316996 665.04451417 229.71431631 665.06141921 224.11158752 665.07600403 C222.18844887 665.08114689 220.26531025 665.08630352 218.34217167 665.09147358 C217.37959796 665.09405914 216.41702425 665.0966447 215.42528164 665.09930861 C202.39486313 665.13528034 189.36453055 665.18080708 176.33422852 665.24682617 C167.52504931 665.29136945 158.7159446 665.32159188 149.90666252 665.33568364 C145.25232074 665.34373951 140.59826489 665.35917905 135.94402885 665.39235497 C131.56823354 665.42349661 127.19278123 665.43587635 122.81687927 665.43413734 C121.21612925 665.43682371 119.61537306 665.4463329 118.01471138 665.46336365 C103.33258181 665.61274723 103.33258181 665.61274723 96.86908054 661.902318 C94.57518406 660.7949157 92.65539842 660.67379524 90.125 660.5625 C85.031831 660.23974895 81.30341999 658.48330273 76.765625 656.24609375 C74.10029938 655.04519139 71.65456057 654.338451 68.8125 653.6875 C64.05476528 652.49134636 59.89413995 650.56764039 55.5625 648.3125 C42.35774689 641.47745099 28.50303708 636.39505171 14.4375 631.625 C13.46296875 631.29113281 12.4884375 630.95726562 11.484375 630.61328125 C6.7775221 629.05289209 2.25781425 627.81875387 -2.6484375 627.07421875 C-8.16696975 626.15290488 -12.31306327 624.06358581 -17.0625 621.1875 C-18.62433453 620.28400489 -20.18682938 619.38165026 -21.75 618.48046875 C-22.48476563 618.05040527 -23.21953125 617.6203418 -23.9765625 617.17724609 C-31.72003994 612.65360956 -31.72003994 612.65360956 -40.25 610.1875 C-44.6552068 609.40417978 -48.00101873 607.32330514 -51.75 605 C-57.40274348 601.5258064 -62.1448762 600.00321989 -68.8671875 599.546875 C-72.37331588 598.93483264 -74.805534 597.66107988 -77.91943359 596.0078125 C-80.59135981 594.71354925 -83.27411964 593.98786995 -86.13525391 593.22875977 C-117.40455911 584.79961307 -150.47436824 562.79432374 -174.94140625 541.61328125 C-181.77240913 535.72641824 -188.22427308 531.08819184 -196.734375 528.05078125 C-199.93286459 526.56734384 -201.82339514 524.37838272 -204.15234375 521.78515625 C-206.28449596 519.72512758 -208.46498959 518.48319496 -211.0625 517.0625 C-214.49123401 515.12006324 -216.60111051 513.54937186 -218.75 510.25 C-224.81244681 501.32758535 -235.38487776 495.88692084 -245.21875 492.19921875 C-248.08520453 490.96326153 -250.26408065 489.50186911 -252.75 487.625 C-258.71516969 483.21345971 -265.30099822 480.57440817 -272.12353516 477.77587891 C-273.72034695 477.11563068 -275.30499394 476.42608521 -276.88671875 475.73046875 C-287.33436202 471.17011059 -298.21827505 467.67658465 -309 464 C-308.28199521 460.1365663 -307.19985598 456.85785188 -305.625 453.25 C-304.13096891 449.75685345 -302.72853822 446.32227902 -301.625 442.6875 C-300.29400649 438.49677186 -298.45323082 434.58556793 -296.5625 430.625 C-290.71777008 418.36730252 -287.84802072 407.95069032 -287.5703125 394.39257812 C-287.33680785 387.89822998 -286.45922956 383.45507545 -281.6875 378.69140625 C-270.03171396 369.45826179 -259.50489679 363.61959048 -245.34057617 359.2512207 C-224.50845247 352.81876647 -206.51148956 344.34875261 -188.07641602 332.65087891 C-176.55022785 325.37568363 -164.86266793 318.68921465 -152.0625 313.9375 C-144.68519658 311.10493109 -139.03334805 307.01580814 -133 302 C-130.4862251 299.92874782 -127.96491876 297.86707964 -125.4375 295.8125 C-124.80336182 295.29381348 -124.16922363 294.77512695 -123.51586914 294.24072266 C-119.8213046 291.27457645 -116.19783187 288.87437744 -111.9375 286.75 C-103.84830994 282.60939085 -100.7528413 276.4069022 -97.9375 268.01953125 C-96.5673075 263.60636959 -95.22029247 259.18712123 -93.9296875 254.75 C-93 252 -93 252 -91 249 C-90.70057593 246.38883185 -90.70057593 246.38883185 -90.75276184 243.40072632 C-90.74856735 242.23477432 -90.74437286 241.06882233 -90.74005127 239.86753845 C-90.74567078 238.58657791 -90.75129028 237.30561737 -90.75708008 235.98583984 C-90.75600709 234.62383432 -90.75406816 233.26182924 -90.75132751 231.89982605 C-90.74647227 228.19439008 -90.75414842 224.48907424 -90.76428056 220.78365278 C-90.77307531 216.89317433 -90.77130317 213.0026995 -90.7709198 209.11221313 C-90.77185743 202.56339519 -90.7805456 196.01462346 -90.79418945 189.46582031 C-90.8098242 181.93447837 -90.81519072 174.40318736 -90.8144539 166.87183034 C-90.81377294 158.82003878 -90.82075491 150.76826643 -90.8299005 142.71648073 C-90.8320141 140.41709982 -90.83273931 138.11772209 -90.83313942 135.8183403 C-90.81733694 115.35899304 -90.81733694 115.35899304 -91.76319885 94.92694092 C-92.2574059 86.73136459 -92.24122634 78.51677762 -92.31640625 70.30859375 C-92.33704199 68.38232547 -92.35803983 66.45606103 -92.37937927 64.52980042 C-92.43391799 59.52083504 -92.48362059 54.5118336 -92.53222656 49.50280762 C-92.58294783 44.36707444 -92.63836643 39.23139202 -92.69335938 34.09570312 C-92.80010341 24.0638457 -92.90172527 14.03194372 -93 4 C-90.94302423 3.94391096 -88.88560019 3.90412661 -86.828125 3.87109375 C-85.6824707 3.84716553 -84.53681641 3.8232373 -83.35644531 3.79858398 C-76.30931184 4.2214735 -71.14717025 7.98118486 -65.8125 12.3125 C-53.06609473 22.35914582 -42.71755566 25.88948034 -26.36914062 24.34814453 C-21.54116974 23.6386756 -17.84332574 21.93800901 -14 19 C-13.113125 18.4225 -12.22625 17.845 -11.3125 17.25 C-5.98661385 12.06805672 -2.25136436 7.10284458 0 0 Z " fill="#000000" transform="translate(371,155)"/>
<path d="M0 0 C1.31519119 0.01394302 2.63038239 0.02788605 3.98542786 0.04225159 C5.4143809 0.08326895 6.84331038 0.12511387 8.2722168 0.16772461 C9.74802812 0.19444935 11.22387652 0.21919325 12.69975281 0.24205017 C15.79110969 0.2951136 18.88147009 0.36483239 21.97216797 0.44775391 C25.91582035 0.55326969 29.8592819 0.62877076 33.80379963 0.6930933 C36.85218994 0.74423392 39.90029563 0.80577305 42.94841576 0.87093925 C44.40150345 0.90185757 45.85463151 0.93093971 47.30779457 0.95808601 C56.18608965 1.13572438 64.20478711 1.63415611 72.5222168 5.02319336 C73.20727295 5.30155029 73.8923291 5.57990723 74.59814453 5.86669922 C75.29883057 6.16068604 75.9995166 6.45467285 76.72143555 6.75756836 C77.46272705 7.06766846 78.20401855 7.37776855 78.96777344 7.69726562 C103.35499607 18.06561302 118.89367329 35.20958946 129.40893555 59.50756836 C135.48609765 75.6231197 135.48609765 75.6231197 135.58251953 82.515625 C135.59600937 83.29486832 135.60949921 84.07411163 135.62339783 84.87696838 C135.6390554 86.13464272 135.6390554 86.13464272 135.6550293 87.41772461 C135.68804052 89.23218124 135.72125063 91.04663425 135.75463867 92.86108398 C135.80143692 95.69055964 135.84572793 98.52002946 135.88574219 101.34960938 C135.63353386 122.20445825 135.63353386 122.20445825 139.40893555 142.50756836 C141.3969338 154.47717152 141.81204672 166.40075936 142.03393555 178.50756836 C142.07224804 180.26539737 142.11130666 182.02321027 142.15112305 183.78100586 C142.24562572 188.02305784 142.33015962 192.2651964 142.40893555 196.50756836 C151.82793037 198.14428053 160.9019165 198.7704762 170.45371819 198.65789795 C172.68732862 198.63182659 174.9206954 198.61920761 177.1544342 198.60961914 C181.88521316 198.58705374 186.6157846 198.54849928 191.34643555 198.50756836 C196.86073437 198.46012753 202.37492006 198.4195001 207.88937569 198.39569092 C210.0780166 198.38283712 212.26629508 198.35784545 214.45481873 198.33227539 C215.80402321 198.32500682 217.1532309 198.31830379 218.50244141 198.31225586 C219.67044785 198.30178223 220.83845428 198.29130859 222.04185486 198.28051758 C225.73205077 198.52935684 228.8819018 199.42381583 232.40893555 200.50756836 C235.00985149 200.79790156 237.53631451 201.0143268 240.14331055 201.14038086 C240.90586655 201.18212433 241.66842255 201.2238678 242.4540863 201.26687622 C245.02193157 201.40092002 247.59012602 201.5185543 250.15893555 201.63256836 C251.50587997 201.69510803 251.50587997 201.69510803 252.8800354 201.75891113 C271.36728293 202.59017695 289.85816283 202.72661999 308.36079407 202.75344086 C310.57937088 202.75753685 312.79791444 202.76504888 315.01647949 202.77325439 C334.74461563 202.89914044 334.74461563 202.89914044 354.35302734 200.9753418 C364.18259288 199.65468481 374.32231971 200.09910297 384.22143555 200.00756836 C388.72813703 199.96569948 393.23448077 199.91181006 397.7409668 199.85131836 C398.73014603 199.84604126 399.71932526 199.84076416 400.73847961 199.83532715 C407.01493412 199.75011034 413.16903826 199.25591954 419.40014648 198.55566406 C429.66102182 197.41332285 439.90341629 196.80859733 450.2175293 196.39428711 C451.24212187 196.35229376 452.26671444 196.31030041 453.32235527 196.26703453 C487.81822013 194.90952887 522.36473356 195.24368878 556.88022172 195.30697143 C564.5992011 195.32044691 572.31815232 195.32266765 580.03714186 195.32202226 C589.38555141 195.32134672 598.73394414 195.32825917 608.08234859 195.33746886 C610.74086939 195.33958708 613.39938744 195.34030807 616.05790901 195.34070778 C620.21748728 195.34171482 624.37702841 195.34784065 628.53659439 195.35787392 C630.05349564 195.36077844 631.57040115 195.36202847 633.08730507 195.36144638 C640.5988742 195.35965485 647.95245868 195.52711464 655.40893555 196.50756836 C658.36952172 196.6354496 661.32087319 196.65046274 664.28393555 196.63256836 C665.12472656 196.62918457 665.96551758 196.62580078 666.83178711 196.62231445 C678.69963489 196.53036536 690.55830206 196.14751799 702.40893555 195.50756836 C703.21911133 195.46438477 704.02928711 195.42120117 704.86401367 195.37670898 C720.81582678 194.37881678 741.16847369 188.35562275 752.40893555 176.50756836 C754.67088814 175.04268477 757.04049561 173.79090806 759.40893555 172.50756836 C763.89042486 169.8863199 765.86722195 168.45908618 767.40893555 163.50756836 C767.7548588 160.57966331 767.7548588 160.57966331 767.7878418 157.47241211 C767.82200195 156.33352539 767.85616211 155.19463867 767.89135742 154.02124023 C767.9177832 152.84110352 767.94420898 151.6609668 767.97143555 150.44506836 C768.03143672 148.09991595 768.09508429 145.75485324 768.1628418 143.40991211 C768.19873413 141.85518188 768.19873413 141.85518188 768.23535156 140.26904297 C768.38735432 137.85089509 768.7801483 135.83141473 769.40893555 133.50756836 C770.53105265 112.26563064 766.29801047 95.14124041 752.40893555 78.69506836 C747.59143311 72.84658291 744.51632203 66.38581032 741.40893555 59.50756836 C741.03124023 58.69803711 740.65354492 57.88850586 740.2644043 57.05444336 C736.93581307 47.14466492 737.63574572 34.13175186 741.40893555 24.50756836 C744.21862472 20.82979126 747.05145159 18.96006301 751.40893555 17.50756836 C777.37228984 15.20882079 777.37228984 15.20882079 787.2019043 22.50366211 C787.93022461 23.16495117 788.65854492 23.82624023 789.40893555 24.50756836 C790.10631836 25.11729492 790.80370117 25.72702148 791.5222168 26.35522461 C794.079378 28.76414459 796.17676507 31.16760445 798.15893555 34.07006836 C800.50207538 36.60846985 802.29237817 37.58570813 805.34643555 39.13256836 C810.18508773 41.63644079 814.21801714 44.55924117 818.34643555 48.07006836 C818.88969482 48.52913574 819.4329541 48.98820312 819.99267578 49.46118164 C824.03619494 52.97416591 827.53443902 56.39036624 829.59643555 61.38256836 C831.42789038 64.5402491 832.72495487 65.69104245 835.59643555 67.82006836 C845.01346088 74.83371162 851.29051295 84.34688582 858.04174805 93.80444336 C866.79071792 106.05601634 875.946006 117.81345804 885.84545898 129.15307617 C911.33137338 158.35036621 911.33137338 158.35036621 912.28393555 169.50756836 C913.09754956 177.45936755 914.59732913 184.70981921 918.69515991 191.70239258 C923.83294521 200.93729324 923.08392897 210.50613779 923.01049805 220.75756836 C923.01601445 222.7398363 923.02415357 224.72209846 923.03475952 226.7043457 C923.05756747 231.91529372 923.05347278 237.12582142 923.04095459 242.33679199 C923.02262765 250.61578614 923.03330771 258.89452464 923.06681442 267.17346191 C923.07275683 270.017136 923.05985565 272.86022921 923.04483032 275.70385742 C923.0399367 285.80427011 923.66897467 295.62032373 924.90942383 305.64672852 C926.62585041 319.68196342 926.811754 333.531585 926.73706055 347.65600586 C926.73398869 350.25753672 926.73212345 352.85906924 926.73138428 355.46060181 C926.72773877 360.8605944 926.71301251 366.26045628 926.69018555 371.66040039 C926.66123479 378.52147225 926.65094299 385.38244015 926.64650345 392.24356651 C926.64205149 398.88106014 926.62682641 405.51852809 926.61206055 412.15600586 C926.61017982 413.38789013 926.6082991 414.6197744 926.60636139 415.88898849 C926.52641961 456.37627128 926.52641961 456.37627128 923.57746887 470.61138916 C918.43542457 495.87494739 919.68960127 521.92751721 919.71650302 547.5797925 C919.7285001 559.17100854 919.69682161 570.76209906 919.65617943 582.35323334 C919.64741234 586.12653284 919.65258742 589.89961407 919.65974426 593.6729126 C919.656359 595.99442605 919.6526095 598.315939 919.6484375 600.63745117 C919.65413254 601.66612305 919.65982758 602.69479492 919.66569519 603.75463867 C919.58701514 623.33530493 919.58701514 623.33530493 914.40893555 630.50756836 C911.4675293 632.38647461 911.4675293 632.38647461 907.84643555 634.07006836 C899.00763297 638.42727067 891.28304835 644.03977336 883.45043945 649.98266602 C881.6139083 651.35446386 879.75020469 652.66336994 877.8581543 653.95678711 C876.86428711 654.67479492 875.87041992 655.39280273 874.84643555 656.13256836 C873.99952148 656.72295898 873.15260742 657.31334961 872.2800293 657.92163086 C867.10131685 665.07884931 869.36542617 677.60839145 869.6237793 686.07788086 C869.71245967 692.07589883 869.63105628 698.2459211 866.40893555 703.50756836 C862.41399182 706.73748401 858.73721299 706.90986719 853.79174805 706.84350586 C852.28132726 706.85604004 850.77091059 706.86907807 849.26049805 706.88256836 C846.91333638 706.886456 844.56660153 706.88277511 842.21948242 706.86791992 C830.87469858 706.82447181 822.01716208 708.41960335 811.40893555 712.50756836 C798.72778103 716.31916059 783.33356214 714.66960666 770.2409668 714.67553711 C768.09229497 714.67948733 765.9436235 714.68363197 763.79495239 714.68795776 C758.10582076 714.69722438 752.41671892 714.69835668 746.72758102 714.6962471 C743.21602025 714.69506654 739.70446247 714.69559958 736.19290161 714.69625854 C709.90054361 714.69519693 683.61942162 714.67861942 657.34643555 713.57006836 C656.30951569 713.52659271 655.27259583 713.48311707 654.20425415 713.43832397 C651.38524793 713.31525064 648.56697471 713.18306561 645.7487793 713.04272461 C644.57969528 712.98482254 644.57969528 712.98482254 643.38699341 712.92575073 C640.4100202 712.75874251 637.51146357 712.52589826 634.57455444 712.00083923 C631.3178971 711.49338263 628.23353406 711.3553706 624.93896484 711.31811523 C623.03989632 711.29303894 623.03989632 711.29303894 621.10246277 711.26745605 C620.43215719 711.26077408 619.76185162 711.2540921 619.07123375 711.24720764 C616.94469837 711.22593364 614.81830033 711.19892274 612.69184875 711.17053223 C608.16009989 711.11108919 603.6282813 711.05900227 599.09643555 711.00756836 C551.629425 710.46375645 551.629425 710.46375645 546.69520569 708.99874878 C543.44154626 708.29973523 540.2156923 708.35474871 536.90356445 708.34985352 C536.15137634 708.3447728 535.39918823 708.33969208 534.62420654 708.3344574 C532.988452 708.3237611 531.35268289 708.31513801 529.7169075 708.30833817 C527.09548937 708.29644941 524.47422875 708.27695625 521.85287476 708.25521851 C514.39749749 708.19404926 506.94212607 708.14031478 499.48657227 708.10620117 C463.89019938 707.93461875 463.89019938 707.93461875 447.83862305 705.97241211 C427.3878015 703.5209062 406.75924224 704.24827486 386.19952393 704.41815186 C377.47665876 704.48950354 368.75379436 704.5439611 360.03071594 704.58050728 C357.02524925 704.59694682 354.02011987 704.62647444 351.01477051 704.6572113 C349.15202117 704.66768205 347.28926887 704.67764192 345.42651367 704.68701172 C344.61695724 704.69891541 343.80740082 704.71081909 342.97331238 704.7230835 C338.10807889 704.7328264 333.4805799 704.27242446 328.66926575 703.53445435 C321.50997192 702.44859884 314.45899639 702.07441393 307.22607422 701.89794922 C305.88067931 701.8603175 304.53529008 701.82248226 303.18990612 701.78446102 C288.80341904 701.39893216 274.41341176 701.3250314 260.02254677 701.2777729 C255.1858315 701.26183558 250.34917254 701.23791144 245.51249695 701.21287537 C231.78587452 701.14289408 218.05922452 701.08203566 204.33251953 701.03076172 C196.69050763 701.00214764 189.04855664 700.96663275 181.40660924 700.92410797 C177.39988424 700.90212995 173.39321319 700.88344372 169.38643837 700.87365913 C154.21149635 700.83502282 139.09041403 700.66822191 123.94482422 699.63232422 C122.83669782 699.55844514 121.72857141 699.48456606 120.58686543 699.40844822 C111.01144577 698.66987995 101.92209686 696.68452932 92.68432617 694.12475586 C90.56392928 693.54960958 88.44057021 693.03081279 86.29956055 692.53881836 C78.57731036 690.74006129 71.01943934 688.55380083 63.47143555 686.13256836 C62.17496094 685.73062256 62.17496094 685.73062256 60.85229492 685.32055664 C55.4068297 683.52254547 51.05429213 681.14431904 46.36767578 677.84985352 C40.19686033 673.62111821 32.59874383 672.28126159 25.40893555 670.69506836 C13.16589718 667.96917114 0.20354182 664.24374509 -10.0949707 656.86694336 C-12.50529413 655.55427896 -14.56336846 654.899931 -17.1965332 654.17163086 C-22.97572643 652.52149603 -28.03977735 649.92365733 -33.34106445 647.13256836 C-43.90223862 641.7322591 -53.8821651 637.26713974 -65.65356445 635.19506836 C-88.84775625 630.90341957 -109.49398801 618.43770254 -129.15209961 606.04125977 C-132.53055702 603.91678835 -135.92564363 601.82205178 -139.34106445 599.75756836 C-139.93081055 599.40041748 -140.52055664 599.0432666 -141.12817383 598.67529297 C-144.99889966 596.36607716 -148.94940659 594.27990618 -152.96948242 592.24365234 C-162.10047963 587.59854075 -169.75741821 582.07142157 -177.59106445 575.50756836 C-188.49956361 566.45620131 -188.49956361 566.45620131 -200.63012695 559.19506836 C-204.61615856 556.92334586 -208.23550468 554.25641862 -211.90356445 551.50756836 C-212.57379639 551.00870117 -213.24402832 550.50983398 -213.93457031 549.99584961 C-218.16318574 546.78047732 -221.99864357 543.42859828 -225.59106445 539.50756836 C-225.59106445 538.84756836 -225.59106445 538.18756836 -225.59106445 537.50756836 C-226.37610352 537.15178711 -226.37610352 537.15178711 -227.17700195 536.78881836 C-229.69809999 535.45075985 -232.01202146 533.90213793 -234.3605957 532.28417969 C-240.60400459 527.98855007 -246.97197166 524.01123672 -253.59106445 520.32006836 C-254.26476074 519.94108398 -254.93845703 519.56209961 -255.63256836 519.17163086 C-268.32778298 512.19774216 -281.41091605 506.925619 -295.09106445 502.25756836 C-297.34430947 501.48192464 -299.59671386 500.70394328 -301.8482666 499.92340088 C-303.23068563 499.44483497 -304.61415417 498.96928448 -305.99890137 498.49749756 C-319.30397069 493.91839205 -319.30397069 493.91839205 -321.59106445 489.50756836 C-324.34493346 476.38079274 -316.71258623 462.42059946 -311.15356445 451.00756836 C-301.5926496 431.39867112 -301.5926496 431.39867112 -298.9909668 409.95043945 C-298.98377278 397.51198358 -292.05422083 389.05946868 -283.77856445 380.38256836 C-270.56753129 367.57881175 -254.39575692 362.12804097 -236.89257812 357.84765625 C-229.99325183 356.12511773 -224.03680034 353.54957492 -217.77856445 350.19506836 C-216.79082031 349.67452881 -215.80307617 349.15398926 -214.78540039 348.61767578 C-207.74758478 344.84102783 -201.02438576 340.68751631 -194.34106445 336.32006836 C-185.5676791 330.59060556 -176.69457929 325.91803781 -167.13793945 321.65112305 C-143.40404114 311.71620553 -143.40404114 311.71620553 -124.3059082 295.18334961 C-121.76420357 292.69954257 -119.02345546 292.17339577 -115.6652832 291.24975586 C-112.14937617 289.99171003 -110.31479124 287.66773414 -108.59106445 284.50756836 C-107.0361382 280.90296659 -105.75549639 277.25510696 -104.59106445 273.50756836 C-104.24795227 272.59088882 -103.90484009 271.67420929 -103.55133057 270.72975159 C-101.84799811 264.68007792 -102.3129158 258.30386447 -102.33227539 252.07373047 C-102.32956232 250.60774563 -102.32599962 249.14176216 -102.32165527 247.67578125 C-102.31256093 243.70633989 -102.31606481 239.73700288 -102.32241344 235.76755977 C-102.32749545 231.59809394 -102.32277527 227.42863673 -102.31964111 223.25917053 C-102.31600504 216.25088916 -102.32078819 209.24264996 -102.33032227 202.234375 C-102.34117639 194.16323188 -102.33770199 186.09219005 -102.32666945 178.02104944 C-102.3175507 171.06872128 -102.31633449 164.11642338 -102.32154679 157.16409117 C-102.32464523 153.02218284 -102.32513557 148.88032185 -102.31847382 144.73841667 C-102.31263498 140.83544382 -102.31681488 136.93259939 -102.32826233 133.0296402 C-102.33087565 131.60840377 -102.33020191 130.18715627 -102.325737 128.76592445 C-102.3023899 120.56921794 -102.86152132 112.75722348 -104.1376915 104.66103268 C-104.73668824 100.49467289 -104.87304832 96.4288897 -104.84985352 92.2265625 C-104.85511047 90.99678177 -104.85511047 90.99678177 -104.86047363 89.74215698 C-104.86911775 87.09225431 -104.86350836 84.4426289 -104.85668945 81.79272461 C-104.85804019 79.92378184 -104.8599841 78.05483941 -104.86248779 76.18589783 C-104.86541476 72.2972372 -104.86121694 68.40866928 -104.85180664 64.52001953 C-104.84035759 59.54826858 -104.8470213 54.57673233 -104.85895157 49.60498905 C-104.8661886 45.75732309 -104.86387472 41.90970784 -104.85869598 38.06204033 C-104.85736748 36.22849947 -104.85897903 34.39495391 -104.86365509 32.56141853 C-104.86875696 30.00175922 -104.8609614 27.44244613 -104.84985352 24.8828125 C-104.85390198 24.13516129 -104.85795044 23.38751007 -104.86212158 22.61720276 C-104.81686546 16.96309647 -104.21104899 11.79831683 -100.89233398 7.10546875 C-97.75644336 4.92804417 -95.57111785 4.97520653 -91.77075195 4.94116211 C-90.78270065 4.93186424 -90.78270065 4.93186424 -89.77468872 4.92237854 C-88.38113883 4.91528865 -86.98750409 4.91844019 -85.59399414 4.93115234 C-83.49240777 4.94489608 -81.39539121 4.91110074 -79.29418945 4.87280273 C-67.74652723 4.80430445 -60.33081408 7.97086079 -51.46606445 15.07006836 C-41.6546295 22.64933881 -33.12449116 25.92314574 -20.59106445 24.50756836 C-16.6402803 21.7962459 -14.93338424 19.05080455 -13.59106445 14.50756836 C-13.46473633 13.80116211 -13.3384082 13.09475586 -13.20825195 12.36694336 C-12.99555664 11.19905273 -12.99555664 11.19905273 -12.77856445 10.00756836 C-12.61420898 8.90928711 -12.61420898 8.90928711 -12.4465332 7.78881836 C-10.16095389 1.69394019 -6.18010374 -0.12218542 0 0 Z M6.40893555 17.50756836 C6.13840363 18.12920364 5.8678717 18.75083893 5.58914185 19.39131165 C5.23206146 20.20480576 4.87498108 21.01829987 4.50708008 21.85644531 C3.9775322 23.06733574 3.9775322 23.06733574 3.43728638 24.3026886 C-0.22480815 32.15455964 -7.06215277 36.70362522 -14.59106445 40.50756836 C-23.77992306 43.57052123 -37.04174546 43.40205889 -45.7878418 39.15039062 C-48.84304176 37.42589446 -51.7322571 35.53936926 -54.59106445 33.50756836 C-55.22044922 33.06928711 -55.84983398 32.63100586 -56.49829102 32.17944336 C-59.00251982 30.42862141 -61.49840734 28.67345562 -63.9387207 26.83422852 C-69.51265829 22.64207942 -73.40810415 21.24124593 -80.40356445 21.38256836 C-81.56500977 21.40061523 -82.72645508 21.41866211 -83.9230957 21.43725586 C-84.80352539 21.46045898 -85.68395508 21.48366211 -86.59106445 21.50756836 C-86.48281821 32.55741045 -86.37004578 43.60719663 -86.2517252 54.65693569 C-86.19690301 59.78950054 -86.14355525 64.92207132 -86.09375 70.0546875 C-86.04549709 75.02144126 -85.99314546 79.98813741 -85.9381237 84.95482063 C-85.91797203 86.83590291 -85.8992198 88.71700079 -85.88199043 90.59811211 C-85.80257812 99.17847646 -85.68873836 107.72003925 -85.08398438 116.2824707 C-84.19595362 129.32852312 -84.40677359 142.43512937 -84.39087582 155.50567794 C-84.38791631 157.81862541 -84.38380721 160.13156824 -84.37937164 162.44451332 C-84.36577365 169.70279288 -84.35606224 176.96106151 -84.35216975 184.2193529 C-84.34766769 192.56295782 -84.32998889 200.90640068 -84.30116916 209.24995631 C-84.27955685 215.73356971 -84.26946619 222.21713737 -84.26812863 228.70078641 C-84.26708294 232.56064581 -84.26122181 236.42035121 -84.24330902 240.28017235 C-84.22682965 243.89929897 -84.22467193 247.51815543 -84.23344803 251.13730621 C-84.23458389 253.09217292 -84.22087723 255.04703072 -84.20669556 257.00184631 C-84.25651629 267.46915452 -84.25651629 267.46915452 -87.59106445 272.50756836 C-88.10048596 273.96803498 -88.56966289 275.44356006 -88.9855957 276.93334961 C-95.11303357 298.06785393 -95.11303357 298.06785393 -104.27856445 303.57006836 C-105.57213867 304.27583008 -105.57213867 304.27583008 -106.8918457 304.99584961 C-114.07130652 309.01676326 -120.41206124 314.30978409 -126.65356445 319.63256836 C-134.50129482 326.21258843 -142.04288214 330.38578306 -151.58618164 334.06518555 C-163.73695625 338.83290661 -174.72346028 345.49753764 -185.65356445 352.57006836 C-204.40633077 364.65917124 -224.26510864 373.26692301 -245.84106445 379.13256836 C-257.35876189 382.31202499 -266.08928329 388.24919197 -274.59106445 396.50756836 C-275.12860352 397.00643555 -275.66614258 397.50530273 -276.2199707 398.01928711 C-278.99067076 400.64789998 -280.45048021 402.55487495 -280.73291016 406.4777832 C-280.74410889 407.21722168 -280.75530762 407.95666016 -280.7668457 408.71850586 C-281.02591098 418.93763451 -281.7844212 427.89547586 -285.59106445 437.50756836 C-285.98680664 438.53237305 -286.38254883 439.55717773 -286.7902832 440.61303711 C-288.69472838 445.35312306 -290.77669173 449.92463557 -293.15356445 454.44506836 C-295.63846729 459.26687042 -297.14724736 464.21385386 -298.59887695 469.42944336 C-299.59106445 472.50756836 -299.59106445 472.50756836 -301.20825195 475.71069336 C-302.81266583 478.43577157 -302.81266583 478.43577157 -302.59106445 481.50756836 C-301.16395142 481.99785522 -301.16395142 481.99785522 -299.70800781 482.49804688 C-296.09869242 483.74049253 -292.4932158 484.99378591 -288.88867188 486.25 C-287.34311221 486.78703682 -285.79659347 487.32132326 -284.24902344 487.85253906 C-270.47807176 492.58308698 -257.33918559 497.7871487 -245.1418457 505.88256836 C-241.12955021 508.43864022 -236.86263756 510.42743748 -232.59106445 512.50756836 C-224.58943031 516.50838543 -215.95413991 521.39274404 -211.09106445 529.13256836 C-208.5756755 533.06119704 -205.15042001 534.74970429 -201.1340332 536.96850586 C-198.62633764 538.48622022 -196.70681184 540.11552724 -194.59106445 542.13256836 C-191.78691142 544.71843403 -189.51685126 546.05895792 -185.90356445 547.25756836 C-179.22555103 549.64694931 -174.45166542 554.45999439 -169.22924805 559.07592773 C-152.21379577 573.94606368 -131.83578614 584.79215836 -112.30786133 595.9519043 C-110.62277978 596.91679822 -108.94109056 597.88767484 -107.26489258 598.86791992 C-96.57582729 605.10566188 -85.6356104 609.09837145 -73.8293457 612.78100586 C-70.72644463 613.75562807 -68.08219054 614.76229478 -65.1574707 616.22631836 C-62.48936887 617.55833876 -61.1377888 617.72749803 -58.21606445 617.63256836 C-52.05652886 618.03265904 -47.63482741 621.11431276 -42.47631836 624.21704102 C-38.83134129 626.36968118 -35.86238417 627.9952986 -31.59106445 628.50756836 C-23.04992258 629.59146961 -15.20438666 635.64001702 -8.02075195 640.10522461 C-4.00407924 642.52856774 -0.43412424 643.87454654 4.17456055 644.82006836 C12.11584028 646.58726551 19.76987607 649.04655499 27.47143555 651.63256836 C28.19039001 651.87234406 28.90934448 652.11211975 29.65008545 652.35916138 C42.8432971 656.77660489 56.07473765 661.49768539 68.0612793 668.66772461 C71.25437123 670.42262111 73.80255396 671.28452138 77.34643555 672.00756836 C81.07739092 672.8510887 84.20251248 673.75399714 87.53393555 675.63256836 C91.22776869 677.66685328 94.43847268 677.98138705 98.6237793 678.03881836 C101.36937685 678.50091051 102.67008606 679.18991001 105.0594635 680.50947571 C111.98245816 683.61691371 119.35875765 683.02482151 126.78564453 682.94580078 C128.43574832 682.94303159 130.08585593 682.94204749 131.73596191 682.94270325 C136.19689324 682.93959185 140.65737566 682.91200967 145.11818194 682.88021255 C149.7993007 682.85136265 154.48044336 682.84618761 159.16163635 682.83869934 C168.02830724 682.8211302 176.89477654 682.78402586 185.76134688 682.73910266 C198.75786828 682.67394236 211.75447268 682.63395208 224.75110722 682.59904194 C225.70686647 682.59647253 226.66262573 682.59390312 227.64734739 682.59125584 C229.55406948 682.58615688 231.46079175 682.58112472 233.36751419 682.57616121 C238.93028815 682.56096388 244.4929753 682.53865222 250.05569637 682.51010358 C253.52400659 682.49300799 256.99232502 682.47993337 260.46065521 682.4676342 C262.06096569 682.46100626 263.66127 682.45259229 265.26156044 682.44219589 C272.67117048 682.39466479 280.0157768 682.36080166 287.38208771 683.27517605 C290.89436381 683.67788312 294.41235079 683.68206429 297.9440918 683.71850586 C299.51115992 683.74655288 301.0782171 683.77521717 302.64526367 683.80444336 C305.0629876 683.84568385 307.48050173 683.88266686 309.8984375 683.90893555 C325.18023503 684.08844831 325.18023503 684.08844831 329.94799805 686.03881836 C336.0355607 688.4791134 342.73176196 687.79137902 349.18026733 687.6762085 C353.69627621 687.59865391 358.21269561 687.57998573 362.72924805 687.55444336 C363.71585922 687.54782684 364.7024704 687.54121033 365.71897888 687.53439331 C377.88428315 687.46747106 390.04618965 687.63181393 402.20980835 687.82293701 C404.75291125 687.86195507 407.29606585 687.89776853 409.83926392 687.92999268 C423.1347228 688.09938409 436.34809176 688.50830342 449.6081543 689.51147461 C467.98204709 690.8759913 486.36785074 690.91899357 504.78424072 691.0501709 C512.1131973 691.10320501 519.44203728 691.16735014 526.77083969 691.23838615 C529.3057208 691.26104091 531.84058646 691.27739155 534.3755188 691.29310608 C535.91546834 691.30650057 537.455416 691.32011429 538.99536133 691.33398438 C539.6912587 691.33659775 540.38715607 691.33921112 541.10414124 691.34190369 C545.95900921 691.39393383 545.95900921 691.39393383 548.38697815 692.00714779 C551.75852907 692.84158349 555.20717836 692.67849418 558.66235352 692.69702148 C559.49210693 692.70531479 560.32186035 692.71360809 561.17675781 692.72215271 C562.97625719 692.7395301 564.77577889 692.7547032 566.57531357 692.76792908 C569.42535976 692.78899752 572.27529458 692.81601837 575.12527466 692.84460449 C581.17811856 692.90424854 587.23101475 692.95641253 593.28393555 693.00756836 C600.29193315 693.06687107 607.29987595 693.12924872 614.30777359 693.19944763 C617.11172972 693.22594608 619.91569162 693.24680797 622.71969604 693.26745605 C624.44537621 693.28406727 626.17105388 693.30093983 627.89672852 693.31811523 C628.67303619 693.32229965 629.44934387 693.32648407 630.24917603 693.33079529 C634.40711097 693.37857538 638.32567234 693.73614154 642.40893555 694.50756836 C653.98462482 695.5102391 665.60950453 695.81259967 677.22143555 696.07006836 C678.59433243 696.10083969 678.59433243 696.10083969 679.9949646 696.13223267 C699.7499931 696.55570483 719.50754218 696.64907285 739.26641464 696.68879318 C741.67963405 696.69496151 744.0928102 696.70484349 746.50601196 696.71585083 C762.97395299 696.7861556 779.38619739 696.64170237 795.8269043 695.62084961 C797.09448074 695.54311813 798.36205719 695.46538666 799.66804504 695.38529968 C809.97560893 694.6776531 820.28710801 693.71125211 830.28393555 691.00756836 C835.10630939 689.72073763 839.846586 688.98921469 844.79174805 688.41381836 C845.52723877 688.32519531 846.26272949 688.23657227 847.02050781 688.14526367 C848.81625284 687.92936581 850.6125415 687.71799775 852.40893555 687.50756836 C852.4025708 686.51950195 852.39620605 685.53143555 852.38964844 684.51342773 C852.37511794 680.8152302 852.40673859 677.11856781 852.45166016 673.4206543 C852.46472594 671.82630666 852.46560216 670.23180727 852.45361328 668.63745117 C852.3553913 653.68900048 852.3553913 653.68900048 856.5690918 648.77709961 C857.81439232 647.64782874 859.09372357 646.55458484 860.40893555 645.50756836 C861.46068488 644.50343038 862.51027255 643.49702189 863.55737305 642.48803711 C864.62499295 641.54799753 865.70078436 640.61716932 866.78393555 639.69506836 C867.37263428 639.19225342 867.96133301 638.68943848 868.56787109 638.17138672 C877.67088222 630.59166412 887.99907619 623.52712424 898.94018555 618.89819336 C901.70325504 616.28209564 901.36252544 611.76307696 901.49713898 608.12144661 C901.53648703 605.30182286 901.54083384 602.48395551 901.53491211 599.6640625 C901.53678024 598.59278107 901.53864838 597.52149963 901.54057312 596.41775513 C901.54456846 594.09451093 901.54665116 591.77126282 901.54703522 589.44801521 C901.55048273 584.45791598 901.57190615 579.46794328 901.59226608 574.47788906 C901.6300089 565.20869036 901.66157988 555.93969479 901.65942383 546.67041016 C901.66120349 492.90656542 901.66120349 492.90656542 906.24389648 470.57958984 C909.76083805 451.9521083 908.57144338 432.20714457 908.5769043 413.33959961 C908.57931029 411.35584541 908.58171892 409.37209121 908.58436471 407.38833731 C908.592418 401.18141432 908.59495707 394.97450575 908.59423828 388.76757812 C908.59363656 382.4281662 908.60422867 376.08883908 908.61998194 369.7494486 C908.63316856 364.24046944 908.63841772 358.73151768 908.63778287 353.22252291 C908.63753156 349.96094928 908.64114307 346.69946736 908.65096092 343.43790627 C908.68674804 330.33453738 908.53319427 317.44615146 906.86083984 304.43751526 C906.1395442 298.16482962 906.15576335 291.94401257 906.22143555 285.63256836 C906.22208008 284.46338867 906.22272461 283.29420898 906.22338867 282.08959961 C906.25815869 274.89606942 906.52200413 267.73722735 906.8894043 260.55444336 C907.42519384 249.92717261 907.76225047 239.30726766 907.86889648 228.66674805 C907.89573407 226.63298287 907.93690458 224.59935953 907.99194336 222.56616211 C908.30834473 210.62677532 908.01214522 201.16201477 902.1237793 190.60083008 C899.95530617 186.68930467 898.75520708 182.81617042 897.65893555 178.50756836 C894.78030876 167.66678237 891.42667734 162.07732081 883.15893555 154.32006836 C876.93589261 148.30823033 871.8941014 143.04843068 867.9831543 135.31225586 C866.09561278 131.94934071 863.75067009 129.14349544 861.22143555 126.25756836 C853.65246342 117.60618718 846.48234256 108.49038638 840.34643555 98.75756836 C833.87171381 88.86822392 824.80441933 80.78425993 816.06762695 72.93481445 C812.176512 69.38694762 808.99338097 65.76615533 805.91699219 61.49829102 C803.3259934 58.07802161 800.32688734 55.08643896 797.28393555 52.07006836 C796.63376465 51.42336182 795.98359375 50.77665527 795.3137207 50.11035156 C782.58984756 37.55703334 782.58984756 37.55703334 765.90893555 33.19506836 C764.2537793 33.16993164 764.2537793 33.16993164 762.56518555 33.14428711 C759.01568209 33.55283144 757.12490644 34.18176493 754.40893555 36.50756836 C753.57765695 40.61626501 755.06821926 43.25657755 757.03393555 46.82006836 C759.61412598 51.7085322 761.55058618 56.55341841 763.34643555 61.75756836 C765.33405238 67.4196654 767.60838413 71.4787942 771.8815918 75.71459961 C774.12134994 78.34388091 774.76087905 81.14315995 775.66674805 84.42553711 C776.38603904 86.83258368 776.38603904 86.83258368 778.90893555 89.44506836 C782.28242324 93.57759079 783.16403347 97.39425446 784.40893555 102.50756836 C784.66545898 103.50570557 784.92198242 104.50384277 785.1862793 105.53222656 C787.62961676 116.1162235 787.86937194 126.42702811 787.80004883 137.26098633 C787.78388583 140.2668136 787.8000214 143.27131149 787.8190918 146.27709961 C787.84823851 171.10932525 787.84823851 171.10932525 779.6003418 179.54663086 C768.79803753 189.21286391 756.36632137 196.73279542 742.6550293 201.52319336 C740.21226237 202.5096916 740.21226237 202.5096916 737.5300293 204.48803711 C718.02304994 217.11020022 687.49827457 214.6775031 665.34643555 215.07006836 C664.2069043 215.09091492 663.06737305 215.11176147 661.89331055 215.13323975 C630.47656329 215.69885028 599.09570819 215.68299046 567.68011475 215.07748413 C540.87775057 214.5635467 514.08109584 214.36542036 487.27397919 214.32589722 C484.29756501 214.32009493 481.32118737 214.31039886 478.3447876 214.29956055 C473.62511727 214.28289322 468.90554286 214.27667048 464.18584442 214.27837181 C462.43625149 214.27753494 460.68665649 214.27339704 458.93708038 214.26568031 C447.07407927 214.19997642 447.07407927 214.19997642 435.38037109 216.0459137 C432.68301973 216.67755739 430.05150975 216.81233498 427.2878418 216.88647461 C426.25079102 216.92063477 425.21374023 216.95479492 424.14526367 216.98999023 C422.57421875 217.02962891 422.57421875 217.02962891 420.97143555 217.07006836 C418.84762341 217.12994789 416.72391261 217.1935736 414.6003418 217.26147461 C413.67423096 217.28540283 412.74812012 217.30933105 411.79394531 217.33398438 C409.26138027 217.41979271 409.26138027 217.41979271 406.40893555 218.50756836 C404.72256088 218.61793599 403.03235089 218.67370791 401.3425293 218.69702148 C399.79577515 218.72209778 399.79577515 218.72209778 398.21777344 218.74768066 C396.54896118 218.76804382 396.54896118 218.76804382 394.84643555 218.78881836 C393.13218384 218.8164325 393.13218384 218.8164325 391.38330078 218.84460449 C386.48471532 218.9233658 381.58599011 218.9910445 376.68725586 219.05981445 C373.11524622 219.11152083 369.54335521 219.16877986 365.97143555 219.22631836 C364.30262329 219.24668152 364.30262329 219.24668152 362.60009766 219.26745605 C361.05334351 219.29253235 361.05334351 219.29253235 359.4753418 219.31811523 C358.56727783 219.33064331 357.65921387 219.34317139 356.72363281 219.3560791 C354.24978314 219.41973191 354.24978314 219.41973191 351.40893555 220.50756836 C348.97721136 220.6033639 346.5744738 220.6440444 344.14282227 220.63696289 C343.40581589 220.63871521 342.66880951 220.64046753 341.9094696 220.64227295 C339.46916355 220.64667895 337.02892986 220.64375605 334.58862305 220.64038086 C332.88811224 220.64105469 331.18760154 220.64202538 329.48709106 220.64328003 C325.91773565 220.64475566 322.34840524 220.64260834 318.77905273 220.63793945 C314.22312849 220.63226822 309.6672635 220.6355054 305.11134148 220.64151192 C301.59556643 220.64514338 298.07980518 220.64396666 294.56402969 220.64138412 C292.88565183 220.64072064 291.20727269 220.64152289 289.52889633 220.64386368 C281.41623577 220.65268809 273.46779332 220.55025493 265.40893555 219.50756836 C262.63474275 219.35359315 259.86260301 219.30288015 257.0847168 219.26147461 C255.54629886 219.22857307 254.00788754 219.19536088 252.46948242 219.16186523 C250.08662892 219.11436077 247.70380909 219.06977975 245.32080078 219.03076172 C242.99185875 218.99090791 240.66339228 218.93945078 238.3347168 218.88647461 C237.62833572 218.87806046 236.92195465 218.8696463 236.19416809 218.86097717 C233.09836045 218.78422123 230.51829726 218.54643456 227.58955383 217.50558472 C224.14326214 216.4242052 221.37311691 216.24983951 217.76782227 216.23632812 C216.46561737 216.22614151 215.16341248 216.2159549 213.82174683 216.20545959 C213.13253017 216.2045186 212.44331352 216.20357761 211.73321152 216.20260811 C209.55333589 216.19891482 207.37390338 216.18210514 205.19412231 216.16184998 C198.99953527 216.10674398 192.8048826 216.07591696 186.61010742 216.05126953 C182.80992161 216.03524522 179.01004812 216.0048693 175.21002579 215.96650505 C173.77419518 215.95497947 172.33830835 215.94892581 170.90243149 215.94882393 C162.93603592 215.94805416 155.61158755 215.44010121 147.92396545 213.15974426 C143.55971011 212.02804314 139.42313436 212.42885232 134.94995117 212.80053711 C131.35815401 212.9639621 129.65743236 212.68966961 126.72802734 210.54296875 C123.60746241 206.45854052 123.69395801 203.56380065 123.73706055 198.55834961 C123.72431091 197.70452194 123.71156128 196.85069427 123.69842529 195.97099304 C123.66219091 193.2536781 123.65941674 190.5376034 123.65893555 187.82006836 C123.63732648 185.09228377 123.6088906 182.36468655 123.57659912 179.63700867 C123.55882708 177.94209524 123.54855295 176.24708354 123.54644775 174.55207825 C123.63798018 170.39710716 123.63798018 170.39710716 122.40893555 166.50756836 C122.29151494 164.9674681 122.23009908 163.42289847 122.19799805 161.87866211 C122.16963867 160.92411133 122.1412793 159.96956055 122.11206055 158.98608398 C122.06148641 157.01748582 122.01682739 155.04872308 121.97924805 153.07983398 C121.78935848 147.10226855 121.06412569 141.43301549 119.8972168 135.57397461 C117.75641119 124.52405119 117.9662489 113.44401726 117.97314453 102.2277832 C117.9530112 86.99355978 117.11617041 71.79092378 109.72143555 58.07006836 C109.38039795 57.41522461 109.03936035 56.76038086 108.68798828 56.08569336 C105.42905457 50.08694813 101.343862 45.2205085 96.40893555 40.50756836 C95.74635742 39.83725586 95.0837793 39.16694336 94.40112305 38.47631836 C78.79172487 23.51978475 61.22086912 17.28980538 39.9050293 17.40991211 C38.94113785 17.41132706 37.9772464 17.412742 36.98414612 17.41419983 C33.93820957 17.41974894 30.89234948 17.43229167 27.84643555 17.44506836 C25.76766057 17.45008995 23.68888444 17.45465169 21.61010742 17.45874023 C16.54302115 17.46970165 11.47599127 17.48693056 6.40893555 17.50756836 Z " fill="#E3181E" transform="translate(364.591064453125,137.492431640625)"/>
<path d="M0 0 C0.680625 0.350625 1.36125 0.70125 2.0625 1.0625 C4.67818674 2.32815487 6.23548732 1.64913845 9 1 C9.0744389 5.0384057 9.12873729 9.07654293 9.16479492 13.11547852 C9.17983432 14.48794517 9.20027133 15.86036414 9.22631836 17.23266602 C9.26291221 19.21088656 9.27816698 21.18946514 9.29296875 23.16796875 C9.3086792 24.35672607 9.32438965 25.5454834 9.34057617 26.77026367 C8.86111058 31.31710976 7.30636275 33.91758515 3.8125 36.8125 C0.13530478 38.36509354 -3.11315116 38.81828397 -7 38 C-9.63648911 36.59535887 -10.93078153 35.27614032 -13 33 C-13 31.68 -13 30.36 -13 29 C-10.625 29.3125 -10.625 29.3125 -8 30 C-7.34 30.99 -6.68 31.98 -6 33 C-3.0850745 33.5838196 -3.0850745 33.5838196 0 33 C2.45952223 31.37419918 2.45952223 31.37419918 4 29 C4 27.68 4 26.36 4 25 C3.46375 25.33 2.9275 25.66 2.375 26 C-1.59843312 27.67302447 -4.7014437 27.51338273 -8.6875 25.9375 C-12.26024421 22.94411972 -13.5953377 19.55628135 -14.3203125 14.9765625 C-14.6175773 9.80415495 -13.26838662 6.90390624 -10 3 C-6.80052827 -0.19947173 -4.4580679 -0.46438207 0 0 Z " fill="#A9A9A9" transform="translate(568,962)"/>
<path d="M0 0 C3.85544798 1.99657127 5.59805092 3.39707638 8 7 C8 8.32 8 9.64 8 11 C6.35 11 4.7 11 3 11 C2.67 9.35 2.34 7.7 2 6 C-0.14576637 5.97314062 -2.29162645 5.95366912 -4.4375 5.9375 C-6.22994141 5.92009766 -6.22994141 5.92009766 -8.05859375 5.90234375 C-10.88873341 5.66098208 -10.88873341 5.66098208 -12 7 C-12.04063832 8.66617115 -12.042721 10.33388095 -12 12 C-8.70160058 13.81411968 -5.66613318 15.15492157 -2 15.9375 C1.95190687 16.84014284 4.783813 18.48980527 8 21 C9.61170388 24.22340777 9.59542551 27.51441919 9 31 C6.19777572 34.68292334 3.4892448 36.85158854 -1 38 C-6.63460206 38.44719064 -10.14906044 38.19721016 -15 35 C-17.66723417 32.33276583 -18.91355075 30.97255405 -19.25 27.1875 C-19.1675 26.465625 -19.085 25.74375 -19 25 C-16.6875 25.1875 -16.6875 25.1875 -14 26 C-12.3125 28.5 -12.3125 28.5 -11 31 C-7.56928684 32.71535658 -3.75941181 32.4006478 0 32 C2.5189267 30.68236671 2.5189267 30.68236671 4 29 C3.505 26.525 3.505 26.525 3 24 C1.97519531 23.68546875 0.95039062 23.3709375 -0.10546875 23.046875 C-1.46632713 22.61515441 -2.82699427 22.18283066 -4.1875 21.75 C-4.86103516 21.54503906 -5.53457031 21.34007812 -6.22851562 21.12890625 C-10.52760072 19.74481056 -13.64926383 18.1551188 -17 15 C-18.45147903 12.09704195 -18.37239025 10.22738221 -18 7 C-13.67362797 -0.23289223 -7.84333007 -0.90265385 0 0 Z " fill="#A6A6A6" transform="translate(670,952)"/>
<path d="M0 0 C2.125 1.1875 2.125 1.1875 4.125 4.1875 C4.44384766 6.54760742 4.44384766 6.54760742 4.5390625 9.29296875 C4.57773437 10.27587891 4.61640625 11.25878906 4.65625 12.27148438 C4.6871875 13.29564453 4.718125 14.31980469 4.75 15.375 C4.78867187 16.41076172 4.82734375 17.44652344 4.8671875 18.51367188 C4.96148296 21.07143622 5.04708202 23.62919287 5.125 26.1875 C3.475 26.1875 1.825 26.1875 0.125 26.1875 C0.125 25.5275 0.125 24.8675 0.125 24.1875 C-0.90625 24.6825 -1.9375 25.1775 -3 25.6875 C-6.45192978 27.14900253 -9.09182012 27.68095825 -12.875 27.1875 C-17.50735294 24.92279412 -17.50735294 24.92279412 -18.875 22.1875 C-19.25040566 18.73376797 -19.42878656 16.91053674 -17.27734375 14.1015625 C-14.28571261 11.71798647 -11.8594567 11.18439134 -8.125 10.4375 C-6.95453125 10.19515625 -5.7840625 9.9528125 -4.578125 9.703125 C-3.68609375 9.53296875 -2.7940625 9.3628125 -1.875 9.1875 C-1.875 7.8675 -1.875 6.5475 -1.875 5.1875 C-4.9582635 3.64586825 -7.48378099 3.89002465 -10.875 4.1875 C-12.58032323 6.12759522 -12.58032323 6.12759522 -13.875 8.1875 C-15.195 8.1875 -16.515 8.1875 -17.875 8.1875 C-17.3797783 4.52285945 -16.8541794 2.47917646 -13.875 0.1875 C-9.17807828 -1.37814057 -4.71602005 -1.33278828 0 0 Z " fill="#A4A4A4" transform="translate(443.875,962.8125)"/>
<path d="M0 0 C2.0625 1.5625 2.0625 1.5625 3.0625 2.5625 C3.20709705 4.0140606 3.28947111 5.47195286 3.34375 6.9296875 C3.38113281 7.81527344 3.41851563 8.70085938 3.45703125 9.61328125 C3.50923828 11.01126953 3.50923828 11.01126953 3.5625 12.4375 C3.63144539 14.26838303 3.70420176 16.09912756 3.78125 17.9296875 C3.81154297 18.74550293 3.84183594 19.56131836 3.87304688 20.40185547 C3.9942238 22.74459314 3.9942238 22.74459314 5.0625 25.5625 C2.01863276 25.64476668 -0.00925348 25.53858217 -2.9375 24.5625 C-3.5975 24.8925 -4.2575 25.2225 -4.9375 25.5625 C-6.74593663 25.70966542 -8.56081566 25.7835887 -10.375 25.8125 C-11.82712891 25.85117187 -11.82712891 25.85117187 -13.30859375 25.890625 C-15.9375 25.5625 -15.9375 25.5625 -17.75390625 24.29296875 C-19.44722006 21.81726573 -19.47900167 19.43280031 -19.328125 16.49609375 C-18.9375 14.5625 -18.9375 14.5625 -17.1875 12.1875 C-12.32829376 9.75789688 -7.29317596 9.21167284 -1.9375 8.5625 C-1.9375 7.2425 -1.9375 5.9225 -1.9375 4.5625 C-4.34295638 3.35977181 -5.88746953 3.46178528 -8.5625 3.5 C-9.37976563 3.50902344 -10.19703125 3.51804687 -11.0390625 3.52734375 C-11.66554688 3.53894531 -12.29203125 3.55054688 -12.9375 3.5625 C-13.2675 4.8825 -13.5975 6.2025 -13.9375 7.5625 C-15.5875 7.5625 -17.2375 7.5625 -18.9375 7.5625 C-18.09111611 3.75377251 -17.54050851 1.99322036 -14.3125 -0.3125 C-9.19384133 -2.01871956 -5.01619851 -2.45473544 0 0 Z " fill="#AAAAAA" transform="translate(601.9375,963.4375)"/>
<path d="M0 0 C4.08998175 1.80720124 6.66247347 4.19069751 9 8 C9 10.31 9 12.62 9 15 C2.73 15 -3.54 15 -10 15 C-8.46687233 19.31608796 -8.46687233 19.31608796 -6 23 C-3.12635209 23.41746608 -3.12635209 23.41746608 0 23 C1.35368596 21.68733482 2.68799596 20.35432675 4 19 C6.75 18.75 6.75 18.75 9 19 C7.52937871 22.67655322 6.52292731 24.6513818 3.1875 26.875 C-0.27211749 28.09604147 -2.36993108 28.52938505 -6 28 C-9.88785685 25.86549035 -12.68517558 23.78487096 -15 20 C-15.88422781 15.14017427 -16.16575184 10.1033443 -13.72265625 5.6953125 C-9.47143942 0.68532103 -6.70068213 -0.45428353 0 0 Z " fill="#A7A7A7" transform="translate(730,962)"/>
<path d="M0 0 C3.70390021 2.02666238 5.65363011 3.48044516 8 7 C8 9.64 8 12.28 8 15 C1.73 15 -4.54 15 -11 15 C-10.01 17.31 -9.02 19.62 -8 22 C-4.60581779 23.41349769 -4.60581779 23.41349769 -1 23 C1.14589423 21.10413616 1.14589423 21.10413616 3 19 C5.75 18.75 5.75 18.75 8 19 C7.69895795 21.80972581 6.95275592 23.05669289 5.125 25.25 C0.49269962 27.84408821 -3.8093693 27.91323878 -9 27 C-12.0625 24.75 -12.0625 24.75 -14 22 C-14.433125 21.401875 -14.86625 20.80375 -15.3125 20.1875 C-16.80309206 15.44470708 -16.46540352 11.34449905 -14.875 6.75 C-11.01924576 1.09489378 -6.79094631 -0.97013519 0 0 Z " fill="#A7A7A7" transform="translate(542,962)"/>
<path d="M0 0 C3.08193978 1.6281946 5.26420667 3.03009062 7.375 5.8125 C8 8 8 8 8 15 C1.73 15 -4.54 15 -11 15 C-10.01 17.31 -9.02 19.62 -8 22 C-4.60581779 23.41349769 -4.60581779 23.41349769 -1 23 C1.14589423 21.10413616 1.14589423 21.10413616 3 19 C5.75 18.75 5.75 18.75 8 19 C6.71915974 22.94925745 5.56995402 24.85432815 2 27 C-3.03894868 27.83356677 -7.56049632 27.79319591 -12.0625 25.3125 C-15.77709665 20.87894916 -16.45795358 16.88617353 -16.31640625 11.21484375 C-15.66313647 6.64195532 -13.16233604 3.94243463 -9.6875 1.125 C-6.16108808 -0.35117243 -3.79611 -0.46618895 0 0 Z " fill="#A9A9A9" transform="translate(759,962)"/>
<path d="M0 0 C3.92779624 1.99960536 6.77167243 4.16232474 9 8 C9 8.99 9 9.98 9 11 C7.35 11 5.7 11 4 11 C3.7525 10.195625 3.505 9.39125 3.25 8.5625 C2.29128946 5.92559077 2.29128946 5.92559077 0.3125 5.1875 C-0.450625 5.125625 -1.21375 5.06375 -2 5 C-3.134375 4.896875 -4.26875 4.79375 -5.4375 4.6875 C-9.65639083 5.05757814 -11.08113077 5.9977345 -14 9 C-16.72840661 13.49328501 -16.51820497 17.88861462 -16 23 C-14.89649053 27.13438138 -13.65823905 29.56117397 -10 32 C-6.93421943 32.5454104 -4.0670768 32.53808365 -1 32 C2.28175318 29.47031526 3.69243777 27.92268669 5 24 C6.65 24.33 8.3 24.66 10 25 C9.4938686 29.42864971 8.15110054 31.84889946 5 35 C-0.43103049 37.97169593 -4.98020314 39.08373108 -11.04296875 37.44921875 C-16.465207 35.30270417 -18.85920856 32.06325386 -21.15234375 26.78515625 C-23.02903971 20.61886954 -23.00696966 14.60575272 -20.5 8.625 C-15.99105414 0.96294515 -8.54583267 -1.56029441 0 0 Z " fill="#A7A7A7" transform="translate(822,952)"/>
<path d="M0 0 C1.65 0 3.3 0 5 0 C9.1420489 9.51205035 12.62005381 19.19699457 16 29 C16.71260415 27.3351549 17.41967369 25.66794145 18.125 24 C18.58132813 22.92105469 19.03765625 21.84210937 19.5078125 20.73046875 C20.59932847 18.07377366 21.56931984 15.39552653 22.4921875 12.67578125 C22.86899658 11.59006836 22.86899658 11.59006836 23.25341797 10.48242188 C23.74602701 9.05066611 24.22203652 7.61307698 24.68017578 6.16992188 C25.375 4.17578125 25.375 4.17578125 27 1 C29.6875 0.04296875 29.6875 0.04296875 32 0 C31.39451018 4.68705593 30.06579277 8.8028665 28.27734375 13.1484375 C27.87993736 14.13452499 27.87993736 14.13452499 27.47450256 15.14053345 C26.63451863 17.22104354 25.78616677 19.29801877 24.9375 21.375 C24.36337408 22.79274283 23.78980069 24.21070954 23.21679688 25.62890625 C21.81757872 29.08854987 20.41083966 32.54507671 19 36 C17.35 36 15.7 36 14 36 C10.70358205 28.7718926 7.7015753 21.43714817 4.75 14.0625 C4.29109375 12.92748047 3.8321875 11.79246094 3.359375 10.62304688 C2.92625 9.54216797 2.493125 8.46128906 2.046875 7.34765625 C1.65338867 6.36804932 1.25990234 5.38844238 0.85449219 4.37915039 C0 2 0 2 0 0 Z " fill="#A8A8A8" transform="translate(491,953)"/>
<path d="M0 0 C2.9375 1.1875 2.9375 1.1875 5 3 C5.8125 5.6875 5.8125 5.6875 6 8 C4.68 8 3.36 8 2 8 C1.34 7.01 0.68 6.02 0 5 C-3.58357241 4.74984127 -3.58357241 4.74984127 -7 5 C-7.33 6.32 -7.66 7.64 -8 9 C-7.18015625 9.24234375 -6.3603125 9.4846875 -5.515625 9.734375 C-4.43796875 10.06953125 -3.3603125 10.4046875 -2.25 10.75 C-1.18265625 11.07484375 -0.1153125 11.3996875 0.984375 11.734375 C4.17641818 13.07404079 5.86944638 14.29026676 8 17 C8 20.69824116 7.45783554 22.43533617 5.125 25.3125 C1.28051164 28.36547605 -2.23089756 28.40416122 -7 28 C-10.375 26.3125 -10.375 26.3125 -13 24 C-13.875 21.25 -13.875 21.25 -14 19 C-12.35 19 -10.7 19 -9 19 C-8.67 19.99 -8.34 20.98 -8 22 C-5.26094655 23.36952673 -3.02912668 23.12621361 0 23 C0.66 22.67 1.32 22.34 2 22 C2 20.68 2 19.36 2 18 C0.75283203 17.61908203 0.75283203 17.61908203 -0.51953125 17.23046875 C-1.60621094 16.88628906 -2.69289063 16.54210937 -3.8125 16.1875 C-5.43091797 15.68283203 -5.43091797 15.68283203 -7.08203125 15.16796875 C-9.85385262 14.05849808 -11.26722758 13.38921522 -13 11 C-13.5 7.5625 -13.5 7.5625 -13 4 C-9.35190683 -0.44611355 -5.40188849 -0.89485829 0 0 Z " fill="#A6A6A6" transform="translate(467,962)"/>
<path d="M0 0 C3.0625 1.75 3.0625 1.75 5 4 C5 5.32 5 6.64 5 8 C3.68 8 2.36 8 1 8 C0.566875 7.505 0.13375 7.01 -0.3125 6.5 C-2.96843676 4.13916733 -5.59674813 4.8073631 -9 5 C-9 6.32 -9 7.64 -9 9 C-8.16855469 9.25394531 -7.33710937 9.50789062 -6.48046875 9.76953125 C-5.39378906 10.11371094 -4.30710937 10.45789063 -3.1875 10.8125 C-1.56908203 11.31716797 -1.56908203 11.31716797 0.08203125 11.83203125 C2.85385262 12.94150192 4.26722758 13.61078478 6 16 C6.5 19.4375 6.5 19.4375 6 23 C2.7421503 26.2578497 0.27824055 27.90352902 -4.3125 28.25 C-8.22632394 27.984656 -9.93192479 27.36680088 -13 25 C-15 22 -15 22 -15 19 C-12.625 19.3125 -12.625 19.3125 -10 20 C-9.34 20.99 -8.68 21.98 -8 23 C-4.5 23.41666667 -4.5 23.41666667 -1 23 C-0.34 22.34 0.32 21.68 1 21 C1 20.01 1 19.02 1 18 C0.18015625 17.75765625 -0.6396875 17.5153125 -1.484375 17.265625 C-3.10085938 16.76289062 -3.10085938 16.76289062 -4.75 16.25 C-5.81734375 15.92515625 -6.8846875 15.6003125 -7.984375 15.265625 C-11.16895586 13.92909107 -12.82503126 12.6542865 -15 10 C-15.625 7.5625 -15.625 7.5625 -15 5 C-10.63139532 -0.0406977 -6.57980408 -1.31837986 0 0 Z " fill="#A7A7A7" transform="translate(626,962)"/>
<path d="M0 0 C1.32 0 2.64 0 4 0 C4.01981934 0.55985596 4.03963867 1.11971191 4.06005859 1.6965332 C4.15537783 4.23565854 4.26502753 6.77396888 4.375 9.3125 C4.4059375 10.19357422 4.436875 11.07464844 4.46875 11.98242188 C4.50742187 12.82998047 4.54609375 13.67753906 4.5859375 14.55078125 C4.6173584 15.33106689 4.6487793 16.11135254 4.68115234 16.9152832 C4.89587889 19.30155768 4.89587889 19.30155768 7 22 C10.43230448 21.73606499 10.43230448 21.73606499 14 21 C16.0140956 17.9788566 16.26836596 17.19339983 16.4140625 13.76953125 C16.45273437 12.96708984 16.49140625 12.16464844 16.53125 11.33789062 C16.57765625 10.08782227 16.57765625 10.08782227 16.625 8.8125 C16.66367187 7.96751953 16.70234375 7.12253906 16.7421875 6.25195312 C16.83636279 4.16832476 16.91926675 2.08419247 17 0 C18.32 0 19.64 0 21 0 C21 8.58 21 17.16 21 26 C19.68 26 18.36 26 17 26 C16.67 25.34 16.34 24.68 16 24 C15.319375 24.515625 14.63875 25.03125 13.9375 25.5625 C10.09474677 27.44299626 8.08867758 27.11509388 4 26 C1.80078125 24.64453125 1.80078125 24.64453125 0 22 C-0.49839351 18.23995336 -0.37486298 14.53430881 -0.25 10.75 C-0.23195313 9.71875 -0.21390625 8.6875 -0.1953125 7.625 C-0.14822712 5.08238936 -0.0824805 2.54166838 0 0 Z " fill="#B0B0B0" transform="translate(891,963)"/>
<path d="M0 0 C2.63877763 1.40289443 3.92992249 2.72291474 6 5 C6 6.32 6 7.64 6 9 C4.68 9 3.36 9 2 9 C1.319375 8.01 1.319375 8.01 0.625 7 C-0.89599894 4.67719799 -0.89599894 4.67719799 -4 4.5 C-6.98613777 4.75632368 -6.98613777 4.75632368 -8.875 6.4375 C-11.01450223 11.31081064 -10.68827538 16.12636146 -8.875 21.0625 C-7.08474591 23.27536511 -7.08474591 23.27536511 -4 23.625 C-3.01 23.41875 -2.02 23.2125 -1 23 C0.03013277 21.35178756 1.03114628 19.68496298 2 18 C4.6875 17.6875 4.6875 17.6875 7 18 C6.10732939 21.92775068 5.33981284 23.70652528 2.25 26.375 C-1.34334126 28.17167063 -3.05397137 28.65767144 -7 28 C-11.84973524 25.52758595 -14.24513429 23.16710458 -16 18 C-16.69609825 13.2132503 -16.49794885 9.96032992 -14.25 5.625 C-10.03181108 0.70377959 -6.70901445 -1.38807195 0 0 Z " fill="#A5A5A5" transform="translate(880,962)"/>
<path d="M0 0 C1.65 0 3.3 0 5 0 C5 10.56 5 21.12 5 32 C10.94 32 16.88 32 23 32 C23 33.32 23 34.64 23 36 C15.41 36 7.82 36 0 36 C0 24.12 0 12.24 0 0 Z " fill="#A9A9A9" transform="translate(398,953)"/>
<path d="M0 0 C2.78957936 2.2022995 3.8258014 3.89970474 4.3828125 7.41796875 C4.56207825 11.46339912 4.53372957 14.13782146 2.375 17.625 C-0.66785463 19.38665268 -2.53432593 19.44242648 -6 19 C-9 17 -9 17 -10 14 C-10.46918572 9.39275007 -10.86072237 5.39039767 -8.375 1.375 C-5.24574008 -0.43667679 -3.55803554 -0.66713166 0 0 Z " fill="#040404" transform="translate(569,966)"/>
<path d="M0 0 C0 2.97 0 5.94 0 9 C1.32 9 2.64 9 4 9 C4 9.99 4 10.98 4 12 C2.68 12 1.36 12 0 12 C0 18.27 0 24.54 0 31 C1.32 31 2.64 31 4 31 C4 32.32 4 33.64 4 35 C0.625 35.1875 0.625 35.1875 -3 35 C-5.13604308 31.79593538 -5.24208908 31.00399253 -5.1953125 27.33203125 C-5.18886719 26.43935547 -5.18242188 25.54667969 -5.17578125 24.62695312 C-5.15902344 23.69818359 -5.14226563 22.76941406 -5.125 21.8125 C-5.11597656 20.87212891 -5.10695313 19.93175781 -5.09765625 18.96289062 C-5.07409056 16.64167032 -5.04119116 14.32096356 -5 12 C-5.99 12 -6.98 12 -8 12 C-8 11.01 -8 10.02 -8 9 C-7.01 9 -6.02 9 -5 9 C-5.061875 7.88625 -5.12375 6.7725 -5.1875 5.625 C-5.125625 4.42875 -5.06375 3.2325 -5 2 C-2 0 -2 0 0 0 Z " fill="#A5A5A5" transform="translate(936,954)"/>
<path d="M0 0 C0 2.97 0 5.94 0 9 C1.32 9 2.64 9 4 9 C4 9.99 4 10.98 4 12 C2.68 12 1.36 12 0 12 C0 18.27 0 24.54 0 31 C1.32 31 2.64 31 4 31 C4 32.32 4 33.64 4 35 C0.625 35.1875 0.625 35.1875 -3 35 C-5.13604308 31.79593538 -5.24208908 31.00399253 -5.1953125 27.33203125 C-5.18886719 26.43935547 -5.18242188 25.54667969 -5.17578125 24.62695312 C-5.15902344 23.69818359 -5.14226563 22.76941406 -5.125 21.8125 C-5.11597656 20.87212891 -5.10695313 19.93175781 -5.09765625 18.96289062 C-5.07409056 16.64167032 -5.04119116 14.32096356 -5 12 C-5.99 12 -6.98 12 -8 12 C-8 11.01 -8 10.02 -8 9 C-7.01 9 -6.02 9 -5 9 C-5.061875 7.88625 -5.12375 6.7725 -5.1875 5.625 C-5.125625 4.42875 -5.06375 3.2325 -5 2 C-2 0 -2 0 0 0 Z " fill="#A5A5A5" transform="translate(691,954)"/>
<path d="M0 0 C2.33944736 0.28730055 4.6739143 0.61936779 7 1 C6.67 2.32 6.34 3.64 6 5 C4.865625 5.309375 3.73125 5.61875 2.5625 5.9375 C-0.78775099 6.62924531 -0.78775099 6.62924531 -2 8 C-2.15620555 9.41327947 -2.25056173 10.8335459 -2.31640625 12.25390625 C-2.35830078 13.10791016 -2.40019531 13.96191406 -2.44335938 14.84179688 C-2.50233398 16.18854492 -2.50233398 16.18854492 -2.5625 17.5625 C-2.60568359 18.46419922 -2.64886719 19.36589844 -2.69335938 20.29492188 C-2.79978142 22.52978485 -2.90179988 24.76476308 -3 27 C-4.65 27 -6.3 27 -8 27 C-8 18.42 -8 9.84 -8 1 C-5.66666667 1 -3.33333333 1 -1 1 C-0.67 0.67 -0.34 0.34 0 0 Z " fill="#A0A0A0" transform="translate(856,962)"/>
<path d="M0 0 C2.33944736 0.28730055 4.6739143 0.61936779 7 1 C6.67 2.32 6.34 3.64 6 5 C4.865625 5.309375 3.73125 5.61875 2.5625 5.9375 C-0.78775099 6.62924531 -0.78775099 6.62924531 -2 8 C-2.15620555 9.41327947 -2.25056173 10.8335459 -2.31640625 12.25390625 C-2.35830078 13.10791016 -2.40019531 13.96191406 -2.44335938 14.84179688 C-2.50233398 16.18854492 -2.50233398 16.18854492 -2.5625 17.5625 C-2.60568359 18.46419922 -2.64886719 19.36589844 -2.69335938 20.29492188 C-2.79978142 22.52978485 -2.90179988 24.76476308 -3 27 C-4.65 27 -6.3 27 -8 27 C-8 18.42 -8 9.84 -8 1 C-5.66666667 1 -3.33333333 1 -1 1 C-0.67 0.67 -0.34 0.34 0 0 Z " fill="#A0A0A0" transform="translate(707,962)"/>
<path d="M0 0 C0.66 0 1.32 0 2 0 C2 2.97 2 5.94 2 9 C3.32 9 4.64 9 6 9 C6 9.99 6 10.98 6 12 C4.68 12 3.36 12 2 12 C2.33 17.94 2.66 23.88 3 30 C4.32 30.33 5.64 30.66 7 31 C7 32.32 7 33.64 7 35 C3.625 35.125 3.625 35.125 0 35 C-2 33 -2 33 -2.22705078 30.84521484 C-2.21657715 29.97590332 -2.20610352 29.1065918 -2.1953125 28.2109375 C-2.18886719 27.26992188 -2.18242188 26.32890625 -2.17578125 25.359375 C-2.15902344 24.37453125 -2.14226563 23.3896875 -2.125 22.375 C-2.11597656 21.38242187 -2.10695313 20.38984375 -2.09765625 19.3671875 C-2.07404116 16.91121866 -2.04110799 14.45572832 -2 12 C-2.99 12 -3.98 12 -5 12 C-5 11.01 -5 10.02 -5 9 C-4.01 9 -3.02 9 -2 9 C-2.04125 7.88625 -2.0825 6.7725 -2.125 5.625 C-2 2 -2 2 0 0 Z " fill="#B1B1B1" transform="translate(776,954)"/>
<path d="M0 0 C1.65 0 3.3 0 5 0 C5 8.58 5 17.16 5 26 C3.35 26 1.7 26 0 26 C0 17.42 0 8.84 0 0 Z " fill="#A2A2A2" transform="translate(919,963)"/>
<path d="M0 0 C1.65 0 3.3 0 5 0 C5 8.58 5 17.16 5 26 C3.35 26 1.7 26 0 26 C0 17.42 0 8.84 0 0 Z " fill="#A2A2A2" transform="translate(837,963)"/>
<path d="M0 0 C-0.48355011 6.40703902 -0.48355011 6.40703902 -2.6875 8.9375 C-5.66455559 10.30533635 -7.75641537 10.34506219 -11 10 C-11.99 9.34 -12.98 8.68 -14 8 C-13.75 5.625 -13.75 5.625 -13 3 C-9.28892095 0.25105255 -4.49583229 0 0 0 Z " fill="#0F0F0F" transform="translate(601,976)"/>
<path d="M0 0 C-0.48355011 6.40703902 -0.48355011 6.40703902 -2.6875 8.9375 C-5.65168456 10.29942264 -7.77345463 10.35071145 -11 10 C-11.66 9.34 -12.32 8.68 -13 8 C-12.9375 5.5 -12.9375 5.5 -12 3 C-8.45000534 0.97143162 -4.10826587 0 0 0 Z " fill="#040404" transform="translate(443,976)"/>
<path d="M0 0 C2.375 1.25 2.375 1.25 4 3 C4 4.32 4 5.64 4 7 C-0.62 7 -5.24 7 -10 7 C-8.43630432 0.74521729 -6.52508202 -0.79898964 0 0 Z " fill="#050505" transform="translate(758,966)"/>
<path d="M0 0 C2.375 1.8125 2.375 1.8125 4 4 C4 4.99 4 5.98 4 7 C-0.62 7 -5.24 7 -10 7 C-8.45570268 0.82281074 -6.50414829 -0.92916404 0 0 Z " fill="#030303" transform="translate(730,966)"/>
<path d="M0 0 C3.5625 0.3125 3.5625 0.3125 5.5 1.5625 C6.5625 3.3125 6.5625 3.3125 6.5625 7.3125 C2.2725 7.3125 -2.0175 7.3125 -6.4375 7.3125 C-5.06712963 0.46064815 -5.06712963 0.46064815 0 0 Z " fill="#040404" transform="translate(538.4375,965.6875)"/>
<path d="M0 0 C1.65 0 3.3 0 5 0 C5 1.65 5 3.3 5 5 C3.35 5 1.7 5 0 5 C0 3.35 0 1.7 0 0 Z " fill="#9D9D9D" transform="translate(919,953)"/>
<path d="M0 0 C1.65 0 3.3 0 5 0 C5 1.65 5 3.3 5 5 C3.35 5 1.7 5 0 5 C0 3.35 0 1.7 0 0 Z " fill="#9D9D9D" transform="translate(837,953)"/>
</svg>
