<?xml version="1.0" encoding="UTF-8"?>
<svg version="1.1" xmlns="http://www.w3.org/2000/svg" width="1350" height="1080">
<path d="M0 0 C445.5 0 891 0 1350 0 C1350 356.4 1350 712.8 1350 1080 C904.5 1080 459 1080 0 1080 C0 723.6 0 367.2 0 0 Z " fill="#000000" transform="translate(0,0)"/>
<path d="M0 0 C4.25036733 -0.0038077 8.50072102 -0.01004003 12.75108182 -0.01837206 C20.17098505 -0.03279769 27.59075176 -0.03525746 35.01066941 -0.02531785 C37.47135071 -0.02322852 39.93203713 -0.02422976 42.39271516 -0.02875489 C81.05000636 -0.08781734 81.05000636 -0.08781734 97.37555856 4.61460334 C104.39921895 6.13834843 111.84188814 5.71763118 119.00470895 5.75474006 C126.90661889 5.81372955 134.11849093 6.13153375 141.72931832 8.52622443 C146.08928503 9.75496134 150.52124851 9.99190724 155.02448434 10.30600959 C169.44444181 11.35681457 169.44444181 11.35681457 174.71198434 14.86850959 C176.91232011 18.21301997 176.88959606 21.40263756 176.27448434 25.24350959 C175.64917078 26.92612814 174.99021961 28.59731846 174.27448434 30.24350959 C175.02214059 31.01694709 175.76979684 31.79038459 176.54010934 32.58725959 C187.74453723 44.35266696 192.98606959 55.57746415 192.64557809 72.32163459 C192.11812256 76.47465281 190.61098784 78.81177006 188.27448434 82.24350959 C188.27448434 83.56350959 188.27448434 84.88350959 188.27448434 86.24350959 C189.45591012 86.26477912 189.45591012 86.26477912 190.66120309 86.28647834 C203.01900346 86.82758913 214.3570604 90.32608565 223.27448434 99.24350959 C223.32500902 101.22619713 223.30247104 103.21077127 223.2520234 105.19346076 C223.22158944 106.46956718 223.19115548 107.74567359 223.15979928 109.0604499 C223.12040033 110.46914005 223.0804901 111.87781599 223.04010934 113.28647834 C223.00094944 114.73124452 222.96186775 116.17601283 222.9228608 117.62078315 C222.83918103 120.66336138 222.75093204 123.70577186 222.66022652 126.74814826 C222.54599652 130.60833794 222.44829738 134.46874382 222.35499352 138.3294881 C222.27977117 141.32332482 222.19261547 144.31673475 222.1024186 147.31015426 C222.06152442 148.73029329 222.02479061 150.15055947 221.99263161 151.57092315 C221.66560456 165.62807559 218.63929043 178.52103702 214.83698434 191.99350959 C214.40675973 193.56165412 214.40675973 193.56165412 213.96784371 195.16147834 C212.35170014 200.92776344 210.45016359 206.41018574 208.15607613 211.93833381 C206.84483758 215.36694483 206.12207321 218.84138848 205.39948434 222.43100959 C200.2189372 245.5867557 187.56234198 266.42248017 173.63825387 285.36899787 C162.5994354 300.54193883 156.43431702 316.39025403 150.6895234 334.16977912 C148.48185939 340.91416443 146.04779365 347.38742445 143.02448434 353.80600959 C138.51749474 363.40508359 135.90052495 373.3228244 133.48151559 383.61850959 C132.31654524 388.56158818 130.99753025 393.04836785 128.89948434 397.68100959 C125.37047708 405.73055787 123.7332105 414.287275 121.81891793 422.82847053 C120.59728228 428.24749287 119.35809529 433.42179511 117.02448434 438.49350959 C115.11313732 442.91108973 113.65840231 447.27559204 112.39118356 451.90415412 C106.37521948 473.73202666 95.87351989 499.50443533 79.64557809 515.88804084 C76.20116721 519.43604302 74.77033459 522.3896188 73.46198434 527.18100959 C71.9796342 532.57749912 69.94394175 536.87422148 67.08698434 541.61850959 C63.07765854 548.3394323 60.04689369 555.26526975 57.21198434 562.55600959 C56.81793404 563.5651844 56.42388375 564.5743592 56.01789254 565.61411506 C53.94494776 570.78677363 53.94494776 570.78677363 53.27448434 576.24350959 C54.35085152 576.66761115 55.42721871 577.09171272 56.53620309 577.52866584 C87.92527445 590.06625469 87.92527445 590.06625469 94.27448434 601.24350959 C94.96088885 604.59586022 94.54203386 607.08000675 93.27448434 610.24350959 C91.59228746 612.60301205 89.73941673 614.59450721 87.71198434 616.66538459 C84.86454146 619.67710302 82.40787404 622.88775655 79.89948434 626.18100959 C72.21032685 636.05261591 63.98441304 643.64674149 53.67463082 650.70395881 C46.94964546 655.34841348 41.10934375 660.52357922 35.27448434 666.24350959 C34.52682809 666.96409553 33.77917184 667.68468147 33.00885934 668.42710334 C29.70736235 671.65929409 26.59589294 674.98742081 23.58698434 678.49350959 C16.98637635 686.01169088 16.98637635 686.01169088 13.02448434 686.54819709 C7.50838244 686.69955355 2.43750413 686.20189641 -2.72551566 684.24350959 C-6.18102849 679.86608451 -7.99859253 675.3179655 -9.78801566 670.11850959 C-11.52248889 664.84574081 -11.52248889 664.84574081 -14.38176566 660.13804084 C-16.28193248 657.45902658 -16.09699042 655.30678172 -16.16301566 652.05600959 C-16.43945872 646.78594614 -17.36821359 643.19702224 -19.75672466 638.54950267 C-20.76715716 636.14439119 -21.10107361 634.25103217 -21.31601554 631.66012031 C-21.38935804 630.78116536 -21.46270053 629.90221042 -21.53826553 628.99662048 C-21.84946008 624.42117325 -22.09324152 619.84755591 -22.27751762 615.26523811 C-22.31955723 614.22872643 -22.36159684 613.19221475 -22.40491039 612.12429363 C-22.85703924 600.04950445 -22.88968021 587.97767068 -22.89348441 575.89585334 C-22.89671449 573.42283579 -22.90007972 570.94981841 -22.90357047 568.47680122 C-22.90950632 563.3227796 -22.91141633 558.16877461 -22.9108184 553.01474983 C-22.91073748 547.81907613 -22.91763423 542.62349125 -22.93132621 537.42783576 C-23.02091026 502.91861454 -22.49456003 468.65147129 -19.72551566 434.24350959 C-24.60578502 432.50055625 -29.34072228 431.1043738 -34.42180473 430.06064826 C-43.66114742 428.07153157 -50.40869587 424.3213937 -57.72551566 418.24350959 C-58.26224906 417.80555061 -58.79898246 417.36759162 -59.35198051 416.91636115 C-65.52352722 411.81179729 -70.35570734 406.81422505 -74.19035941 399.69272834 C-76.57181512 395.89330665 -79.79594015 393.08468089 -83.01848441 389.99741584 C-87.56665122 385.3704929 -91.41904913 380.21621809 -95.34221488 375.05893928 C-96.74341395 373.22002006 -98.15645573 371.39080682 -99.57317191 369.56382209 C-106.32682348 360.84154787 -106.32682348 360.84154787 -108.72551566 357.24350959 C-115.51730108 353.65586338 -122.49297587 352.73475679 -130.07317191 352.41929084 C-132.72551566 352.24350959 -132.72551566 352.24350959 -134.72551566 351.24350959 C-136.70543625 351.12838471 -138.6891562 351.07658779 -140.67229301 351.05405647 C-141.92053855 351.03733894 -143.1687841 351.02062141 -144.45485526 351.00339729 C-145.12383212 350.99671531 -145.79280898 350.99003333 -146.48205787 350.98314887 C-148.57530592 350.96212043 -150.66839984 350.935096 -152.76155692 350.90647346 C-157.20781715 350.84675927 -161.65414954 350.79463927 -166.10051566 350.74350959 C-171.24588701 350.68423975 -176.39118294 350.62186205 -181.53641731 350.55163032 C-183.59701457 350.52510634 -185.65761958 350.5042585 -187.718283 350.4836219 C-188.97283286 350.46690437 -190.22738273 350.45018684 -191.51994926 350.43296272 C-192.62422263 350.42043464 -193.72849601 350.40790656 -194.86623222 350.39499885 C-197.34385684 350.26373046 -199.34823391 349.87575445 -201.72551566 349.24350959 C-203.11217643 349.14851801 -204.50241126 349.09850852 -205.89226371 349.08579475 C-206.70378394 349.0755326 -207.51530418 349.06527045 -208.35141593 349.05469733 C-209.22123603 349.047396 -210.09105613 349.04009467 -210.98723441 349.03257209 C-212.84726907 349.00449149 -214.70729499 348.97582695 -216.56731254 348.94663459 C-219.48552178 348.90550202 -222.40356996 348.86859521 -225.32195121 348.8421424 C-228.14821799 348.81433284 -230.97375446 348.76845322 -233.79973441 348.72007209 C-234.65943336 348.71681922 -235.5191323 348.71356635 -236.40488273 348.71021491 C-245.64538361 348.52517205 -254.178107 346.03447612 -260.72551566 339.24350959 C-264.5759524 333.542863 -266.29149854 327.44583262 -267.90520316 320.83335334 C-268.7361631 318.20989412 -269.77415656 316.41943952 -271.35051566 314.18100959 C-273.49263844 311.09104487 -274.0089046 308.9935454 -274.16301566 305.24350959 C-274.50704498 299.4920452 -276.65942575 296.23206813 -280.72551566 292.24350959 C-286.30912485 287.40361884 -292.43460901 285.14922666 -299.35442191 282.80600959 C-318.4985988 276.13937369 -336.96303297 267.05622309 -355.41448051 258.70176154 C-365.48664801 254.14162479 -375.57953042 249.63725568 -385.72551566 245.24350959 C-386.97135429 244.6842176 -386.97135429 244.6842176 -388.24236137 244.11362678 C-392.53246763 242.3939171 -395.85262143 242.20081599 -400.4511016 242.67270881 C-408.4514166 243.36740037 -416.40715735 243.38790385 -424.42864066 243.37632209 C-426.04552831 243.37738324 -427.66241578 243.37877026 -429.2793029 243.38045722 C-433.60892845 243.38325163 -437.93851683 243.37887109 -442.26813728 243.37228233 C-445.00408312 243.36846978 -447.74002546 243.36643043 -450.47597343 243.36481696 C-476.09891073 243.34703559 -501.71009125 243.13950321 -527.32903129 242.66758186 C-529.98852891 242.61947183 -532.64802845 242.57168297 -535.30754691 242.52475959 C-535.98601802 242.51277471 -536.66448913 242.50078983 -537.36351997 242.48844177 C-550.36790599 242.26329397 -563.37265193 242.14972694 -576.37854415 242.05125076 C-579.87088177 242.02469383 -583.36320911 241.99703537 -586.85553581 241.96908027 C-600.8333185 241.85719605 -600.8333185 241.85719605 -614.81123954 241.76478034 C-629.11797953 241.67968822 -643.42135198 241.53345435 -657.72551566 241.24350959 C-658.95405769 241.22071056 -658.95405769 241.22071056 -660.20741874 241.19745094 C-665.10882468 241.10220492 -670.00014642 240.93204408 -674.89739066 240.70835334 C-676.03154411 240.68229514 -677.16569755 240.65623695 -678.33421928 240.62938911 C-683.9564738 240.29182565 -687.00733381 239.62551404 -690.8417266 235.3421424 C-701.35756057 221.31112124 -703.99328323 203.98629966 -707.72551566 187.24350959 C-708.56780311 183.51151919 -709.42056881 179.78223202 -710.28801566 176.05600959 C-710.4841143 175.20837043 -710.68021293 174.36073127 -710.88225394 173.48740608 C-712.17410305 168.07547732 -713.83482136 162.90931535 -715.72551566 157.68100959 C-719.71460344 146.56992198 -721.28147962 134.92964849 -723.18840629 123.32114631 C-723.89750223 119.25802656 -724.78286497 115.25834459 -725.72551566 111.24350959 C-731.28318076 112.41916951 -733.51407469 113.59838961 -736.72551566 118.24350959 C-737.85267919 120.51393898 -738.93384067 122.80760924 -739.97551566 125.11850959 C-743.29968255 132.05664715 -746.9236397 137.15879271 -754.12785941 140.28647834 C-756.31397065 141.04116504 -758.48648482 141.66939912 -760.72551566 142.24350959 C-761.71551566 142.57350959 -762.70551566 142.90350959 -763.72551566 143.24350959 C-765.44878081 143.39350607 -767.17676205 143.49184931 -768.90520316 143.55991584 C-769.96505424 143.6019715 -771.02490531 143.64402717 -772.11687309 143.68735725 C-773.26647514 143.72651252 -774.41607719 143.76566779 -775.60051566 143.80600959 C-776.79201225 143.84774299 -777.98350883 143.88947639 -779.21111137 143.93247443 C-833.01598119 145.65125572 -833.01598119 145.65125572 -837.33879691 141.80991584 C-838.02522269 141.03454475 -838.02522269 141.03454475 -838.72551566 140.24350959 C-841.01075806 139.28215985 -843.31652598 138.48395934 -845.66692191 137.69663459 C-848.13402718 135.95514852 -848.7483942 134.44243867 -849.41423637 131.53159553 C-850.10495989 126.45437131 -850.06266445 121.3588371 -850.03801566 116.24350959 C-850.03237602 115.03251594 -850.02673637 113.82152229 -850.02092582 112.57383186 C-849.90113421 103.73475256 -849.21643293 95.76357888 -846.72551566 87.24350959 C-846.53215629 86.54499885 -846.33879691 85.84648811 -846.13957816 85.12681037 C-839.68243521 62.12323859 -826.13470155 42.76207834 -805.94817191 29.70835334 C-801.66646592 26.88649086 -797.62222531 23.73105701 -793.58879691 20.56772834 C-792.54272269 19.75755256 -792.54272269 19.75755256 -791.47551566 18.93100959 C-790.85160941 18.43987678 -790.22770316 17.94874397 -789.58489066 17.44272834 C-784.86137592 14.3962598 -778.90376141 14.89537145 -773.47565299 14.68512946 C-771.84049644 14.62177683 -771.84049644 14.62177683 -770.17230642 14.55714434 C-753.98658459 14.00551031 -737.79026964 14.13276455 -721.59760946 14.17142111 C-716.6452647 14.18205278 -711.69291376 14.18656503 -706.74056083 14.19175178 C-698.18393368 14.20139622 -689.62731731 14.21441398 -681.07069808 14.22947532 C-667.52351875 14.25302364 -653.97633851 14.26589754 -640.4291442 14.27717048 C-635.77796294 14.28117038 -631.12678173 14.28523922 -626.47560054 14.28932983 C-624.7327921 14.29085867 -624.7327921 14.29085867 -622.9547754 14.2924184 C-609.77459379 14.30412521 -596.59441479 14.31801346 -583.41423637 14.33286506 C-581.61014369 14.33489371 -581.61014369 14.33489371 -579.76960469 14.33696334 C-560.26818724 14.35915692 -540.76678698 14.38903841 -521.26538318 14.42083247 C-501.17738013 14.45329959 -481.08938607 14.47411285 -461.00135982 14.48510474 C-448.64608003 14.4922953 -436.2908864 14.50888463 -423.93563826 14.5379055 C-415.46317932 14.55700473 -406.99075442 14.56498839 -398.51827418 14.56450053 C-393.64430542 14.56456308 -388.77047149 14.56935214 -383.89653426 14.58766776 C-365.03521875 14.65553717 -346.55536479 14.59822051 -327.8769666 11.57760787 C-302.16893798 7.58541451 -275.42603617 8.87025346 -249.49431449 8.78721076 C-244.74920818 8.77113122 -240.0043492 8.74073974 -235.25937301 8.70244628 C-233.48684379 8.69101159 -231.71427019 8.68486788 -229.94170409 8.68476516 C-215.92975005 8.68365632 -202.39698265 7.30977895 -188.67680961 4.40372688 C-177.39774213 2.04918794 -166.47240445 1.67469183 -154.97942191 1.51304084 C-152.8209423 1.47322073 -150.66247994 1.43245612 -148.50403434 1.3908332 C-142.65422024 1.28253666 -136.80426483 1.19340334 -130.95405418 1.1095832 C-127.27211548 1.05577723 -123.59028143 0.99718812 -119.90843803 0.93723518 C-79.94076381 0.29209932 -39.97253773 0.03542396 0 0 Z M-189.72551566 23.24350959 C-192.5411049 23.44807309 -195.34402408 23.61569637 -198.16301566 23.74350959 C-199.68271833 23.81276186 -201.20226416 23.88556505 -202.72160941 23.96225959 C-203.39377494 23.99255256 -204.06594047 24.02284553 -204.75847465 24.05405647 C-206.72575735 24.18723976 -206.72575735 24.18723976 -208.57403117 24.74909621 C-210.83691545 25.26910938 -212.7968523 25.35836112 -215.11630851 25.34357673 C-215.98913978 25.34061591 -216.86197105 25.3376551 -217.76125175 25.33460456 C-219.18638587 25.32214195 -219.18638587 25.32214195 -220.64031059 25.30942756 C-222.151044 25.30241828 -222.151044 25.30241828 -223.69229728 25.2952674 C-225.88140719 25.28476304 -228.07050755 25.27209976 -230.25959426 25.25754386 C-233.73849624 25.235491 -237.21734336 25.22142821 -240.69629508 25.2098487 C-250.58916826 25.17630565 -260.48195237 25.13508533 -270.37468559 25.07212287 C-276.42880933 25.03416751 -282.48283853 25.01135466 -288.5370639 24.99781638 C-290.83126858 24.98982995 -293.12546166 24.97631937 -295.41959792 24.95688468 C-320.56022297 24.18299114 -320.56022297 24.18299114 -343.72551566 32.24350959 C-346.61968946 32.48730391 -346.61968946 32.48730391 -350.23660403 32.478432 C-350.90413958 32.4795413 -351.57167513 32.4806506 -352.25943902 32.48179352 C-354.51258515 32.48308452 -356.76542382 32.4700053 -359.01853019 32.45710212 C-360.6441077 32.45511111 -362.26968651 32.45401085 -363.89526522 32.45372814 C-368.37598617 32.4504266 -372.85659173 32.43466417 -377.33727592 32.41700464 C-382.16608913 32.40018351 -386.99491553 32.39495185 -391.82375175 32.3884986 C-400.20178574 32.37587993 -408.57978101 32.35638207 -416.95779067 32.33270866 C-429.10590978 32.2987488 -441.25401926 32.27964503 -453.40217534 32.26495118 C-473.15653262 32.24102892 -492.91087485 32.21113292 -512.66521293 32.17466193 C-514.43996021 32.17139157 -514.43996021 32.17139157 -516.25056098 32.16805513 C-532.98250405 32.13693954 -549.71442809 32.09977192 -566.4463527 32.06005938 C-567.62072501 32.05727276 -568.79509733 32.05448613 -570.00505668 32.05161506 C-571.76445192 32.04743447 -571.76445192 32.04743447 -573.55939051 32.04316942 C-593.20376422 31.99689847 -612.84812584 31.96639161 -632.49254572 31.94849628 C-644.58688486 31.93685897 -656.6810568 31.91231194 -668.7753301 31.87055071 C-677.09481002 31.84287022 -685.41423249 31.83013457 -693.73375788 31.82853048 C-698.51545158 31.82713948 -703.2968971 31.81956339 -708.07852584 31.7936042 C-725.58733859 31.70269816 -742.90612814 31.84559682 -760.30127555 34.0199073 C-761.54779134 34.17520908 -762.79430712 34.33051085 -764.07859612 34.49051875 C-786.737948 37.6552958 -801.82666455 45.67583525 -816.72551566 63.24350959 C-824.79619746 74.0397186 -830.87866255 87.87567022 -830.82317191 101.41538459 C-830.82175697 102.09780219 -830.82034202 102.7802198 -830.81888419 103.48331672 C-830.8133065 105.65342643 -830.8007582 107.82343129 -830.78801566 109.99350959 C-830.78299778 111.46876851 -830.77843537 112.94402906 -830.77434379 114.41929084 C-830.76334441 118.02739757 -830.74609519 121.63544334 -830.72551566 125.24350959 C-814.77057556 125.83472448 -798.81716089 126.34764918 -782.85051566 126.43100959 C-781.67722709 126.44390022 -780.50393852 126.45679084 -779.29509574 126.47007209 C-767.61452054 126.78842642 -767.61452054 126.78842642 -757.35051566 122.24350959 C-755.96216494 119.68040056 -755.0983656 117.41679837 -754.16301566 114.68100959 C-752.36009914 109.91615878 -749.78895898 106.53725542 -746.41301566 102.80600959 C-745.96305228 102.2980384 -745.51308891 101.79006721 -745.04949027 101.26670295 C-740.05344527 95.97254551 -735.43023114 94.1710144 -728.37004691 93.80991584 C-726.42611136 93.79280605 -724.48197487 93.79183891 -722.53801566 93.80600959 C-721.55381644 93.78602912 -720.56961723 93.76604865 -719.55559379 93.74546272 C-712.43548179 93.75030304 -712.43548179 93.75030304 -709.07707816 96.08335334 C-707.23359207 99.0297343 -707.22736789 100.82763918 -707.72551566 104.24350959 C-708.25145316 104.86741584 -708.77739066 105.49132209 -709.31926566 106.13413459 C-710.97500411 108.13445314 -710.97500411 108.13445314 -710.50285941 110.47788459 C-710.22571098 111.30804084 -709.94856254 112.13819709 -709.66301566 112.99350959 C-708.20372118 117.67073551 -706.92948395 122.35482026 -705.78801566 127.11850959 C-704.64206971 131.87096078 -703.34483055 136.51987664 -701.88176566 141.18491584 C-699.62616486 148.43465019 -697.66747434 155.74847623 -695.74333793 163.09140998 C-695.16261435 165.30754108 -694.57819631 167.52267163 -693.99309379 169.73765022 C-692.32131284 176.08104913 -690.67466069 182.4248623 -689.13567191 188.80210334 C-687.98461529 193.44231272 -686.5185129 197.81726512 -684.72551566 202.24350959 C-682.42095187 208.1119268 -680.66492298 213.8974863 -679.36614066 220.08335334 C-679.15473441 220.7962049 -678.94332816 221.50905647 -678.72551566 222.24350959 C-676.35313547 223.42969969 -674.93722183 223.36573017 -672.29066306 223.3609708 C-671.35233115 223.36172845 -670.41399924 223.3624861 -669.44723302 223.36326671 C-668.40932386 223.35898963 -667.3714147 223.35471254 -666.30205375 223.35030586 C-664.65623526 223.3494708 -664.65623526 223.3494708 -662.9771679 223.34861887 C-659.27542337 223.34556636 -655.57373164 223.33537233 -651.87200004 223.3252967 C-649.2278649 223.32174286 -646.58373241 223.31859664 -643.93959647 223.3160041 C-638.23199293 223.30969648 -632.5244036 223.29994964 -626.816809 223.28810912 C-618.55363464 223.27114799 -610.29046383 223.26158363 -602.02727592 223.25423039 C-588.60734902 223.24227342 -575.18742768 223.22732241 -561.76750785 223.20908576 C-560.96379597 223.20799564 -560.16008409 223.20690552 -559.3320173 223.20578236 C-547.93955126 223.19018958 -536.54709207 223.17160004 -525.15463269 223.15178449 C-524.35334634 223.15039117 -523.55205998 223.14899786 -522.72649223 223.14756233 C-521.9261829 223.1461688 -521.12587357 223.14477527 -520.30131245 223.14333951 C-506.94219838 223.12027934 -493.58308873 223.10497896 -480.22395784 223.09600294 C-471.98601183 223.09015744 -463.74812644 223.0778059 -455.51020432 223.05703015 C-449.85868783 223.04328827 -444.20719244 223.03682732 -438.55565941 223.03602003 C-435.2977354 223.03531818 -432.0399207 223.0302643 -428.78201514 223.01855689 C-425.24289559 223.00633319 -421.70398117 223.00652992 -418.16484672 223.00972968 C-417.14478333 223.00322188 -416.12471995 222.99671408 -415.07374555 222.99000907 C-407.04106948 223.01819227 -399.31731927 224.00662278 -391.78801566 226.93100959 C-390.87407035 227.27905647 -389.96012504 227.62710334 -389.01848441 227.98569709 C-387.93180473 228.40077522 -386.84512504 228.81585334 -385.72551566 229.24350959 C-384.28499397 229.76937654 -382.84351118 230.29261503 -381.40129691 230.81382209 C-372.88669965 233.89859137 -364.43601804 237.07088893 -356.12346488 240.67051154 C-351.74039447 242.53232161 -347.30520644 244.0352396 -342.76848441 245.48569709 C-333.40823641 248.52068593 -324.56584011 252.63089036 -315.63493949 256.73227912 C-304.68951374 261.7419402 -293.76637947 265.89054634 -282.10173637 268.92637092 C-279.33925843 269.74442473 -277.22368949 270.45112441 -275.64739066 272.95835334 C-275.01974265 274.34396612 -274.41905365 275.74203628 -273.84270316 277.14975959 C-272.52047184 279.62778753 -271.06732567 280.78698415 -268.85051566 282.49350959 C-261.87412428 288.19436673 -258.75273488 296.56168308 -257.21379691 305.23569709 C-256.56331305 307.91048673 -255.18935514 310.04332576 -253.73332816 312.35679084 C-252.51675854 314.63432234 -251.86023267 316.88421532 -251.16301566 319.36850959 C-249.69197192 324.60065436 -248.37038371 328.14693089 -243.72551566 331.24350959 C-240.72561092 331.40393726 -237.82063369 331.45130287 -234.82317191 331.40366584 C-233.51200652 331.39586349 -233.51200652 331.39586349 -232.17435294 331.38790351 C-229.3787387 331.37008235 -226.58348986 331.33892013 -223.78801566 331.30600959 C-220.99614724 331.27836733 -218.20433227 331.25364585 -215.41239005 331.23482734 C-213.67500698 331.22260048 -211.93765142 331.20502651 -210.20038444 331.18151313 C-209.40953956 331.17498222 -208.61869468 331.1684513 -207.8038848 331.16172248 C-207.11122016 331.15346946 -206.41855552 331.14521644 -205.70490104 331.13671333 C-203.72551566 331.24350959 -203.72551566 331.24350959 -201.85407096 331.74350959 C-199.0568476 332.40058046 -196.46356945 332.34702141 -193.59026176 332.3252967 C-192.34731345 332.31876579 -191.10436515 332.31223487 -189.82375175 332.30550605 C-189.16087528 332.29976506 -188.4979988 332.29402408 -187.81503516 332.28810912 C-185.71785613 332.27059362 -183.62075487 332.26037588 -181.52351981 332.25219184 C-175.56050332 332.22788101 -169.59758903 332.19286834 -163.63469535 332.14756233 C-121.03327697 331.83565987 -121.03327697 331.83565987 -107.97551566 337.05600959 C-107.34387504 337.2912635 -106.71223441 337.5265174 -106.06145316 337.76890022 C-98.930106 340.58740983 -94.92686654 344.25061466 -91.72551566 351.24350959 C-90.31765274 353.23843504 -88.85440056 355.19493589 -87.35051566 357.11850959 C-86.92133842 357.66877815 -86.49216117 358.2190467 -86.04997855 358.78599006 C-80.86908344 365.3952413 -75.55542221 371.89917316 -70.23576957 378.3968299 C-68.86797083 380.06932096 -67.50459507 381.74526233 -66.14348441 383.42319709 C-64.01600054 386.03996601 -61.87194832 388.64228823 -59.72551566 391.24350959 C-59.1467266 391.97054084 -58.56793754 392.69757209 -57.97160941 393.44663459 C-48.19869043 405.32832728 -33.19044885 412.72393048 -19.00920707 418.08872443 C-12.61338226 420.56010768 -6.59204706 423.4437125 -2.72551566 429.24350959 C-2.49173576 431.96796638 -2.49173576 431.96796638 -2.51433402 435.34653693 C-2.51933418 437.27889953 -2.51933418 437.27889953 -2.52443534 439.25029975 C-2.53806703 440.69334896 -2.55170877 442.13639807 -2.56535941 443.57944709 C-2.57206717 445.1158758 -2.57770169 446.6523095 -2.5823577 448.1887458 C-2.59392382 451.54755034 -2.61096875 454.90626623 -2.63204032 458.26502448 C-2.68878684 467.56635341 -2.70229094 476.86781806 -2.71770316 486.16929084 C-2.72058562 487.67452088 -2.72058562 487.67452088 -2.7235263 489.2101596 C-2.77173327 516.4360679 -2.55261985 543.66002434 -2.32068855 570.88475257 C-2.28812777 574.79255554 -2.25768912 578.70036944 -2.22792655 582.60819465 C-2.18031712 588.83781679 -2.12819779 595.06738508 -2.07251197 601.29694015 C-2.05247563 603.59792237 -2.03374218 605.8989164 -2.01645881 608.19992095 C-1.93691008 618.58799958 -1.83174367 628.9740015 -1.35417777 639.35264045 C-1.3276667 640.06159996 -1.30115564 640.77055948 -1.2738412 641.50100261 C-0.91671732 648.10372537 1.3071777 653.42686264 4.27448434 659.24350959 C4.88989282 660.65532906 5.49603714 662.07127782 6.08698434 663.49350959 C6.47885934 664.40100959 6.87073434 665.30850959 7.27448434 666.24350959 C11.79501359 664.82578088 14.17562029 662.60215487 17.39948434 659.18100959 C27.69191681 648.52974231 39.65284325 639.73628173 52.10651559 631.76304084 C58.648102 627.17803703 63.01145286 622.04825212 67.71198434 615.61850959 C68.36102731 614.75999397 69.01007027 613.90147834 69.67878121 613.01694709 C70.28657418 612.19194709 70.89436715 611.36694709 71.52057809 610.51694709 C72.07414986 609.76848518 72.62772164 609.02002326 73.19806832 608.24888068 C73.55328561 607.58710822 73.90850289 606.92533576 74.27448434 606.24350959 C72.6066679 601.24006029 67.74276148 599.66857155 63.27448434 597.24350959 C55.9991772 593.67449099 48.05453204 591.53258052 40.24714059 589.42710334 C39.34866402 589.1808924 38.45018746 588.93468147 37.52448434 588.68100959 C36.32565621 588.369701 36.32565621 588.369701 35.10260934 588.05210334 C34.49932809 587.7852674 33.89604684 587.51843147 33.27448434 587.24350959 C30.34752401 578.46262863 33.60949992 572.45396374 37.54331368 564.53266364 C39.09467562 561.4057698 40.59658664 558.25551782 42.09479684 555.10288459 C42.38546532 554.49264945 42.67613381 553.88241431 42.97561044 553.2536872 C44.96385416 549.03110581 46.53111754 544.90537491 47.83698434 540.43100959 C52.28892355 525.83476613 60.25709845 512.09782372 69.89167184 500.34116584 C76.47378627 491.78441708 81.11371343 482.19738095 84.68854684 472.05600959 C87.15215146 465.69375949 90.72865827 459.73888545 94.08625191 453.81553108 C97.34829587 447.84397346 99.00306346 442.66406049 99.89045113 435.92002326 C100.36228693 432.63157072 101.35464314 429.75985551 102.58698434 426.68100959 C104.65820396 421.17592587 106.27702401 415.69581673 107.71198434 409.99350959 C109.50082921 402.90118246 111.64382102 396.03256282 114.05695504 389.13047248 C115.65132587 384.45220639 116.85384214 379.81403975 117.86506051 374.97812873 C120.28256008 363.45607619 124.40471031 352.94437735 129.08551949 342.19150764 C131.67970101 336.20963508 133.82025553 330.58923531 135.27448434 324.24350959 C136.18279421 321.99349626 137.14128761 319.76307238 138.14948434 317.55600959 C140.18155106 313.02566024 141.83810702 308.53823291 143.14948434 303.74350959 C146.95351585 290.82237777 155.25740062 279.87854376 163.49714059 269.42319709 C179.43005693 248.92630642 186.90596971 224.06155792 194.64948434 199.61850959 C195.02889169 198.42474204 195.02889169 198.42474204 195.41596383 197.20685798 C200.87943606 179.94397051 205.47021594 163.5392397 205.37214059 145.30210334 C205.37072564 144.2938198 205.36931069 143.28553626 205.36785287 142.24669868 C205.36230038 139.05810417 205.34975694 135.86958251 205.33698434 132.68100959 C205.33196319 130.5058804 205.32740136 128.3307501 205.32331246 126.15561897 C205.31234657 120.85155808 205.29565648 115.54753904 205.27448434 110.24350959 C203.83757188 109.42542203 202.39821563 108.61162576 200.95783395 107.79966193 C200.15655572 107.34602271 199.35527749 106.89238349 198.5297181 106.42499763 C195.99303565 105.09606224 193.64555217 104.4030576 190.83698434 103.86850959 C183.97752791 102.18017643 178.32286776 98.52221532 173.51667184 93.35288459 C171.14814569 89.33085906 171.77096743 84.75579568 172.27448434 80.24350959 C173.27448434 77.91017626 174.27448434 75.57684292 175.27448434 73.24350959 C176.24846493 65.07705693 175.47804043 57.33587666 170.31745309 50.74350959 C168.02603182 48.18273898 165.67421563 45.70283686 163.27448434 43.24350959 C161.92783087 41.83949867 160.59312952 40.42385819 159.27448434 38.99350959 C158.43917184 38.11952522 158.43917184 38.11952522 157.58698434 37.22788459 C155.87465823 34.6390106 155.61934414 32.29551888 155.27448434 29.24350959 C154.05374215 29.13393928 152.83299996 29.02436897 151.57526559 28.91147834 C136.63328324 27.49547287 136.63328324 27.49547287 130.08698434 25.68100959 C122.71709837 23.77171271 115.24703521 23.76304913 107.67414254 23.6221717 C102.41933759 23.50028299 98.23899016 23.09385283 93.27448434 21.24350959 C86.56421175 20.1716075 79.91892858 20.031841 73.13288277 19.9358924 C71.91436372 19.91573821 70.69584466 19.89558402 69.44040078 19.8748191 C66.05596794 19.82104252 62.67154184 19.77191216 59.2869975 19.72600681 C57.11006905 19.69631005 54.93316363 19.66522987 52.75625771 19.6339286 C15.09131372 19.09918572 -22.57628183 19.02193819 -60.24448091 19.00468999 C-70.50283527 18.99990146 -80.76106043 18.98215519 -91.01937586 18.95361429 C-99.12038476 18.93188847 -107.22135724 18.92190626 -115.32239491 18.92057377 C-120.09362896 18.91954161 -124.86473691 18.91397174 -129.63593894 18.89575416 C-160.06356401 17.91627702 -160.06356401 17.91627702 -189.72551566 23.24350959 Z " fill="#E3181E" transform="translate(984.7255156636238,143.75649040937424)"/>
<path d="M0 0 C5.7853125 -0.1546875 5.7853125 -0.1546875 11.6875 -0.3125 C13.4986731 -0.38078003 13.4986731 -0.38078003 15.34643555 -0.45043945 C23.21255138 -0.55254547 23.21255138 -0.55254547 27.234375 2.26953125 C29.39748762 5.61469877 29.6800991 7.21921361 29.42578125 11.0703125 C28.74243862 14.16729655 27.27204395 15.85418071 25 18 C23.68240981 18.69726488 22.35100305 19.36991034 21 20 C21.886875 20.969375 22.77375 21.93875 23.6875 22.9375 C27.14494929 26.94518469 29.59426112 31.30561573 32 36 C29.328125 36.43359375 29.328125 36.43359375 26 36 C23.81701084 33.97913661 22.32854069 31.56916416 20.75 29.0625 C18.02840187 24.3500958 18.02840187 24.3500958 14 21 C12.46331135 20.77532169 10.92031946 20.59203195 9.375 20.4375 C7.93125 20.293125 6.4875 20.14875 5 20 C5 25.28 5 30.56 5 36 C3.35 36 1.7 36 0 36 C0 24.12 0 12.24 0 0 Z " fill="#ACACAC" transform="translate(818,923)"/>
<path d="M0 0 C0.680625 0.350625 1.36125 0.70125 2.0625 1.0625 C4.67818674 2.32815487 6.23548732 1.64913845 9 1 C9.0744389 5.0384057 9.12873729 9.07654293 9.16479492 13.11547852 C9.17983432 14.48794517 9.20027133 15.86036414 9.22631836 17.23266602 C9.26291221 19.21088656 9.27816698 21.18946514 9.29296875 23.16796875 C9.3086792 24.35672607 9.32438965 25.5454834 9.34057617 26.77026367 C8.86111058 31.31710976 7.30636275 33.91758515 3.8125 36.8125 C0.13530478 38.36509354 -3.11315116 38.81828397 -7 38 C-9.63648911 36.59535887 -10.93078153 35.27614032 -13 33 C-13 31.68 -13 30.36 -13 29 C-10.625 29.3125 -10.625 29.3125 -8 30 C-7.34 30.99 -6.68 31.98 -6 33 C-3.0850745 33.5838196 -3.0850745 33.5838196 0 33 C2.45952223 31.37419918 2.45952223 31.37419918 4 29 C4 27.68 4 26.36 4 25 C3.46375 25.33 2.9275 25.66 2.375 26 C-1.59843312 27.67302447 -4.7014437 27.51338273 -8.6875 25.9375 C-12.26024421 22.94411972 -13.5953377 19.55628135 -14.3203125 14.9765625 C-14.6175773 9.80415495 -13.26838662 6.90390624 -10 3 C-6.80052827 -0.19947173 -4.4580679 -0.46438207 0 0 Z " fill="#A9A9A9" transform="translate(951,932)"/>
<path d="M0 0 C1.65 0 3.3 0 5 0 C5 11.88 5 23.76 5 36 C2.33333333 36 -0.33333333 36 -3 36 C-3.68835938 36.05800781 -4.37671875 36.11601563 -5.0859375 36.17578125 C-9.51714955 36.44044409 -11.36323063 36.49084306 -15 33.6875 C-18.79350998 28.58997096 -18.64899861 23.13917603 -18 17 C-16.01031547 13.08924075 -14.63466354 11.42310902 -11 9 C-4.67741935 8.5483871 -4.67741935 8.5483871 -1 11 C-0.67 7.37 -0.34 3.74 0 0 Z " fill="#A4A4A4" transform="translate(899,923)"/>
<path d="M0 0 C1.65 0 3.3 0 5 0 C5 11.88 5 23.76 5 36 C2.33333333 36 -0.33333333 36 -3 36 C-3.68835938 36.05800781 -4.37671875 36.11601563 -5.0859375 36.17578125 C-9.51714955 36.44044409 -11.36323063 36.49084306 -15 33.6875 C-18.79350998 28.58997096 -18.64899861 23.13917603 -18 17 C-16.01031547 13.08924075 -14.63466354 11.42310902 -11 9 C-4.67741935 8.5483871 -4.67741935 8.5483871 -1 11 C-0.67 7.37 -0.34 3.74 0 0 Z " fill="#A4A4A4" transform="translate(429,923)"/>
<path d="M0 0 C3.75212276 2.01502889 5.63644095 3.45466142 8 7 C8.30078125 9.9609375 8.30078125 9.9609375 8.3125 13.375 C8.32925781 14.49648438 8.34601562 15.61796875 8.36328125 16.7734375 C7.96292847 20.32925895 7.13849012 22.16044826 5 25 C0.94184834 27.61525329 -2.19144587 28.70124748 -7 28 C-11.85349893 25.52566721 -14.27243952 23.18268145 -16 18 C-16.71773476 13.61384315 -17.03944397 9.76101516 -14.72265625 5.8359375 C-10.38429184 0.680815 -6.88406383 -0.94687867 0 0 Z " fill="#A8A8A8" transform="translate(542,932)"/>
<path d="M0 0 C3.13393286 2.2121879 3.91441156 2.83691052 5.1875 6.25 C5.7386073 11.05250648 5.80063642 15.64903269 4.0625 20.1875 C1.10285022 23.44311476 -1.4531848 26.03778646 -6.02734375 26.44921875 C-10.3083687 26.19990781 -12.38678789 25.58702209 -15.8125 22.875 C-19.64806638 17.84081912 -19.44873275 12.350862 -18.8125 6.25 C-17.19045062 2.9479709 -15.90370239 1.07780871 -13 -1.125 C-8.25837267 -2.47975066 -4.34382488 -2.29860733 0 0 Z " fill="#AAAAAA" transform="translate(871.8125,933.75)"/>
<path d="M0 0 C3.13393286 2.2121879 3.91441156 2.83691052 5.1875 6.25 C5.7386073 11.05250648 5.80063642 15.64903269 4.0625 20.1875 C1.10285022 23.44311476 -1.4531848 26.03778646 -6.02734375 26.44921875 C-10.3083687 26.19990781 -12.38678789 25.58702209 -15.8125 22.875 C-19.64806638 17.84081912 -19.44873275 12.350862 -18.8125 6.25 C-17.19045062 2.9479709 -15.90370239 1.07780871 -13 -1.125 C-8.25837267 -2.47975066 -4.34382488 -2.29860733 0 0 Z " fill="#AAAAAA" transform="translate(474.8125,933.75)"/>
<path d="M0 0 C6.02968736 4.72597117 6.02968736 4.72597117 6.6640625 9.40625 C6.81695546 14.57681199 6.86554712 18.75187472 3.3125 22.8125 C-0.66033669 26.39068404 -3.87107652 26.36666639 -9.05078125 26.2421875 C-11.6875 25.8125 -11.6875 25.8125 -14.8125 23.4375 C-17.61776968 19.51012245 -17.89620144 17.32390148 -18 12.5 C-18.03738281 11.36949219 -18.07476563 10.23898437 -18.11328125 9.07421875 C-17.60363135 5.17001999 -16.39245953 3.60829772 -13.6875 0.8125 C-9.51813823 -2.206693 -4.59909565 -2.03215854 0 0 Z " fill="#A9A9A9" transform="translate(766.6875,933.1875)"/>
<path d="M0 0 C6.02968736 4.72597117 6.02968736 4.72597117 6.6640625 9.40625 C6.81695546 14.57681199 6.86554712 18.75187472 3.3125 22.8125 C-0.66033669 26.39068404 -3.87107652 26.36666639 -9.05078125 26.2421875 C-11.6875 25.8125 -11.6875 25.8125 -14.8125 23.4375 C-17.61776968 19.51012245 -17.89620144 17.32390148 -18 12.5 C-18.03738281 11.36949219 -18.07476562 10.23898437 -18.11328125 9.07421875 C-17.60363135 5.17001999 -16.39245953 3.60829772 -13.6875 0.8125 C-9.51813823 -2.206693 -4.59909565 -2.03215854 0 0 Z " fill="#A9A9A9" transform="translate(400.6875,933.1875)"/>
<path d="M0 0 C1.98 0 3.96 0 6 0 C9.74120324 7.76583098 13.1484737 15.63371974 16.375 23.625 C16.91157227 24.94032715 16.91157227 24.94032715 17.45898438 26.28222656 C17.78962891 27.10948242 18.12027344 27.93673828 18.4609375 28.7890625 C18.90638916 29.89822021 18.90638916 29.89822021 19.36083984 31.02978516 C20 33 20 33 20 36 C18.35 36 16.7 36 15 36 C13.68 32.7 12.36 29.4 11 26 C5.72 25.67 0.44 25.34 -5 25 C-5.309375 26.44375 -5.61875 27.8875 -5.9375 29.375 C-6.45483647 31.78923686 -6.89485234 33.78970467 -8 36 C-9.65 36 -11.3 36 -13 36 C-12.30461062 31.68714461 -10.87285697 27.77487294 -9.27734375 23.73046875 C-8.87993736 22.70896477 -8.87993736 22.70896477 -8.47450256 21.66682434 C-7.63266351 19.50553269 -6.78517493 17.34650855 -5.9375 15.1875 C-5.36355707 13.71694326 -4.78998532 12.2462416 -4.21679688 10.77539062 C-2.81548952 7.18190172 -1.40911334 3.59043473 0 0 Z " fill="#AAAAAA" transform="translate(318,923)"/>
<path d="M0 0 C2.41869578 1.1589584 4.12322096 2.12322096 6 4 C6.15740605 5.70563778 6.25093392 7.41727244 6.31640625 9.12890625 C6.35830078 10.16337891 6.40019531 11.19785156 6.44335938 12.26367188 C6.48267578 13.35228516 6.52199219 14.44089844 6.5625 15.5625 C6.60568359 16.65498047 6.64886719 17.74746094 6.69335938 18.87304688 C6.79982068 21.58189564 6.90183516 24.29083992 7 27 C6.21625 26.835 5.4325 26.67 4.625 26.5 C1.63316338 25.93012636 0.53389157 25.76271486 -2.25 27 C-5.47017414 28.17097241 -7.59616826 28.42547897 -11 28 C-14.41165683 26.0288205 -15.71748902 24.78105976 -17.0625 21.0625 C-17 18 -17 18 -15.5 15.25 C-10.84733972 11.06260575 -5.03471607 10.73894482 1 10 C0.50243908 7.24358584 0.50243908 7.24358584 -1 5 C-3.67058851 4.85884839 -6.32432238 4.95752893 -9 5 C-9.66 6.32 -10.32 7.64 -11 9 C-12.65 9 -14.3 9 -16 9 C-15.79803569 5.36464239 -15.21677989 4.2005214 -12.5 1.6875 C-8.13546337 -0.41683016 -4.76355701 -0.75444918 0 0 Z " fill="#A7A7A7" transform="translate(709,932)"/>
<path d="M0 0 C2.91009669 2.35953786 4.55841707 4.56173225 6.3125 7.875 C6.3125 9.855 6.3125 11.835 6.3125 13.875 C-0.2875 13.875 -6.8875 13.875 -13.6875 13.875 C-11.2672509 19.50606761 -11.2672509 19.50606761 -8.6875 21.875 C-5.77211971 22.37542146 -5.77211971 22.37542146 -2.6875 21.875 C-1.31439293 20.58266393 0.02284824 19.25062854 1.3125 17.875 C2.6325 17.875 3.9525 17.875 5.3125 17.875 C5.25 20.125 5.25 20.125 4.3125 22.875 C0.39196201 25.97875924 -2.29369393 27.23124283 -7.3125 26.9375 C-11.73079511 26.21368374 -13.91115933 24.43218649 -16.6875 20.875 C-18.77832938 16.69334124 -18.12146477 11.42865777 -17.6875 6.875 C-16.48944271 3.60982832 -14.65919168 1.61214541 -11.875 -0.5 C-7.6562895 -1.70534586 -4.05636804 -1.69801453 0 0 Z " fill="#A7A7A7" transform="translate(1011.6875,933.125)"/>
<path d="M0 0 C0.99 0.66 1.98 1.32 3 2 C3 2.66 3 3.32 3 4 C3.86625 3.34 4.7325 2.68 5.625 2 C9.29741751 -0.17624741 10.83310042 -0.7092595 15 0 C17.6640625 1.296875 17.6640625 1.296875 20 4 C20.63431138 7.9286382 20.46874863 11.78368856 20.3125 15.75 C20.28994141 16.82894531 20.26738281 17.90789063 20.24414062 19.01953125 C20.1852565 21.6810935 20.10307001 24.33984228 20 27 C18.68 27 17.36 27 16 27 C15.67 19.74 15.34 12.48 15 5 C12.69 5 10.38 5 8 5 C5.56085508 7.43914492 5.71337477 8.21446431 5.5859375 11.5703125 C5.54726563 12.46621094 5.50859375 13.36210938 5.46875 14.28515625 C5.42234375 15.69087891 5.42234375 15.69087891 5.375 17.125 C5.33632813 18.06988281 5.29765625 19.01476562 5.2578125 19.98828125 C5.16338654 22.32532375 5.07781606 24.66235501 5 27 C3.35 27 1.7 27 0 27 C-0.02505615 26.36908447 -0.0501123 25.73816895 -0.07592773 25.08813477 C-0.19154137 22.24603175 -0.31442316 19.40428917 -0.4375 16.5625 C-0.47681641 15.56927734 -0.51613281 14.57605469 -0.55664062 13.55273438 C-0.61948242 12.13637695 -0.61948242 12.13637695 -0.68359375 10.69140625 C-0.72025146 9.81685791 -0.75690918 8.94230957 -0.79467773 8.04125977 C-0.78181066 6.0072598 -0.78181066 6.0072598 -2 5 C-5.56756838 4.6147442 -5.56756838 4.6147442 -8.63208008 6.23754883 C-10.33653635 8.43359913 -10.41916142 9.69101044 -10.51171875 12.44921875 C-10.54716797 13.29677734 -10.58261719 14.14433594 -10.61914062 15.01757812 C-10.64169922 15.89865234 -10.66425781 16.77972656 -10.6875 17.6875 C-10.72166016 18.58017578 -10.75582031 19.47285156 -10.79101562 20.39257812 C-10.87345648 22.59492671 -10.94261551 24.79687938 -11 27 C-12.32 27 -13.64 27 -15 27 C-15 18.42 -15 9.84 -15 1 C-12.525 1.495 -12.525 1.495 -10 2 C-6.31282562 -0.45811625 -4.35654296 -0.31118164 0 0 Z " fill="#A9A9A9" transform="translate(667,932)"/>
<path d="M0 0 C0.99 0.66 1.98 1.32 3 2 C3 2.66 3 3.32 3 4 C3.86625 3.34 4.7325 2.68 5.625 2 C9.29741751 -0.17624741 10.83310042 -0.7092595 15 0 C17.6640625 1.296875 17.6640625 1.296875 20 4 C20.63431138 7.9286382 20.46874863 11.78368856 20.3125 15.75 C20.28994141 16.82894531 20.26738281 17.90789063 20.24414062 19.01953125 C20.1852565 21.6810935 20.10307001 24.33984228 20 27 C18.68 27 17.36 27 16 27 C15.67 19.74 15.34 12.48 15 5 C12.69 5 10.38 5 8 5 C5.56085508 7.43914492 5.71337477 8.21446431 5.5859375 11.5703125 C5.54726563 12.46621094 5.50859375 13.36210938 5.46875 14.28515625 C5.42234375 15.69087891 5.42234375 15.69087891 5.375 17.125 C5.33632813 18.06988281 5.29765625 19.01476562 5.2578125 19.98828125 C5.16338654 22.32532375 5.07781606 24.66235501 5 27 C3.35 27 1.7 27 0 27 C-0.02505615 26.36908447 -0.0501123 25.73816895 -0.07592773 25.08813477 C-0.19154137 22.24603175 -0.31442316 19.40428917 -0.4375 16.5625 C-0.47681641 15.56927734 -0.51613281 14.57605469 -0.55664062 13.55273438 C-0.61948242 12.13637695 -0.61948242 12.13637695 -0.68359375 10.69140625 C-0.72025146 9.81685791 -0.75690918 8.94230957 -0.79467773 8.04125977 C-0.78181066 6.0072598 -0.78181066 6.0072598 -2 5 C-5.56756838 4.6147442 -5.56756838 4.6147442 -8.63208008 6.23754883 C-10.33653635 8.43359913 -10.41916142 9.69101044 -10.51171875 12.44921875 C-10.54716797 13.29677734 -10.58261719 14.14433594 -10.61914062 15.01757812 C-10.64169922 15.89865234 -10.66425781 16.77972656 -10.6875 17.6875 C-10.72166016 18.58017578 -10.75582031 19.47285156 -10.79101562 20.39257812 C-10.87345648 22.59492671 -10.94261551 24.79687938 -11 27 C-12.32 27 -13.64 27 -15 27 C-15 18.42 -15 9.84 -15 1 C-12.525 1.495 -12.525 1.495 -10 2 C-6.31282562 -0.45811625 -4.35654296 -0.31118164 0 0 Z " fill="#A9A9A9" transform="translate(501,932)"/>
<path d="M0 0 C3.08193978 1.6281946 5.26420667 3.03009062 7.375 5.8125 C8 8 8 8 8 15 C1.73 15 -4.54 15 -11 15 C-10.01 17.31 -9.02 19.62 -8 22 C-4.60581779 23.41349769 -4.60581779 23.41349769 -1 23 C1.14589423 21.10413616 1.14589423 21.10413616 3 19 C5.75 18.75 5.75 18.75 8 19 C6.71915974 22.94925745 5.56995402 24.85432815 2 27 C-3.03894868 27.83356677 -7.56049632 27.79319591 -12.0625 25.3125 C-15.77709665 20.87894916 -16.45795358 16.88617353 -16.31640625 11.21484375 C-15.66313647 6.64195532 -13.16233604 3.94243463 -9.6875 1.125 C-6.16108808 -0.35117243 -3.79611 -0.46618895 0 0 Z " fill="#A9A9A9" transform="translate(621,932)"/>
<path d="M0 0 C1.32 0 2.64 0 4 0 C4 4.95 4 9.9 4 15 C10.27 15 16.54 15 23 15 C23 10.05 23 5.1 23 0 C24.65 0 26.3 0 28 0 C28 11.88 28 23.76 28 36 C26.35 36 24.7 36 23 36 C23 30.39 23 24.78 23 19 C16.73 19 10.46 19 4 19 C4 24.61 4 30.22 4 36 C2.68 36 1.36 36 0 36 C0 24.12 0 12.24 0 0 Z " fill="#B0B0B0" transform="translate(571,923)"/>
<path d="M0 0 C3.0625 1.75 3.0625 1.75 5 4 C5 5.32 5 6.64 5 8 C3.68 8 2.36 8 1 8 C0.566875 7.505 0.13375 7.01 -0.3125 6.5 C-2.96843676 4.13916733 -5.59674813 4.8073631 -9 5 C-9 6.32 -9 7.64 -9 9 C-8.16855469 9.25394531 -7.33710937 9.50789062 -6.48046875 9.76953125 C-5.39378906 10.11371094 -4.30710937 10.45789063 -3.1875 10.8125 C-1.56908203 11.31716797 -1.56908203 11.31716797 0.08203125 11.83203125 C2.85385262 12.94150192 4.26722758 13.61078478 6 16 C6.5 19.4375 6.5 19.4375 6 23 C2.7421503 26.2578497 0.27824055 27.90352902 -4.3125 28.25 C-8.22632394 27.984656 -9.93192479 27.36680088 -13 25 C-15 22 -15 22 -15 19 C-12.625 19.3125 -12.625 19.3125 -10 20 C-9.34 20.99 -8.68 21.98 -8 23 C-4.5 23.41666667 -4.5 23.41666667 -1 23 C-0.34 22.34 0.32 21.68 1 21 C1 20.01 1 19.02 1 18 C0.18015625 17.75765625 -0.6396875 17.5153125 -1.484375 17.265625 C-3.10085938 16.76289062 -3.10085938 16.76289062 -4.75 16.25 C-5.81734375 15.92515625 -6.8846875 15.6003125 -7.984375 15.265625 C-11.16895586 13.92909107 -12.82503126 12.6542865 -15 10 C-15.625 7.5625 -15.625 7.5625 -15 5 C-10.63139532 -0.0406977 -6.57980408 -1.31837986 0 0 Z " fill="#A7A7A7" transform="translate(792,932)"/>
<path d="M0 0 C6.93 0 13.86 0 21 0 C19.8749416 5.62529201 19.8749416 5.62529201 17.09375 8.734375 C16.51496094 9.39050781 15.93617187 10.04664063 15.33984375 10.72265625 C14.73269531 11.39167969 14.12554688 12.06070313 13.5 12.75 C12.89285156 13.43449219 12.28570313 14.11898437 11.66015625 14.82421875 C7.52594866 19.47405134 7.52594866 19.47405134 6 21 C11.28 21.33 16.56 21.66 22 22 C22 23.32 22 24.64 22 26 C14.41 26 6.82 26 -1 26 C0.02922386 20.8538807 0.90326319 19.46486146 4.1875 15.625 C4.99445313 14.67238281 5.80140625 13.71976563 6.6328125 12.73828125 C7.41398437 11.83464844 8.19515625 10.93101562 9 10 C9.63679688 9.25105469 10.27359375 8.50210938 10.9296875 7.73046875 C12.27813733 6.1465241 13.63761891 4.57197818 15 3 C10.05 3 5.1 3 0 3 C0 2.01 0 1.02 0 0 Z " fill="#ADADAD" transform="translate(1022,933)"/>
<path d="M0 0 C2.85337884 3.04351766 3.36486906 5.08084041 3.29296875 9.203125 C3.28330078 10.1828125 3.27363281 11.1625 3.26367188 12.171875 C3.23853516 13.18765625 3.21339844 14.2034375 3.1875 15.25 C3.16719727 16.796875 3.16719727 16.796875 3.14648438 18.375 C3.11117607 20.91719792 3.06186036 23.45833223 3 26 C1.68 26 0.36 26 -1 26 C-1.01458252 25.40461426 -1.02916504 24.80922852 -1.04418945 24.19580078 C-1.11854344 21.50486949 -1.21524187 18.81519667 -1.3125 16.125 C-1.33505859 15.18785156 -1.35761719 14.25070312 -1.38085938 13.28515625 C-1.4340332 11.94130859 -1.4340332 11.94130859 -1.48828125 10.5703125 C-1.51446533 9.74289551 -1.54064941 8.91547852 -1.56762695 8.06298828 C-1.83096637 5.60672068 -1.83096637 5.60672068 -5 4 C-7.5 3.5 -7.5 3.5 -10 4 C-12.7787228 6.48941268 -13.2333821 8.75651517 -13.51171875 12.328125 C-13.58446328 13.96818349 -13.64262733 15.6089424 -13.6875 17.25 C-13.72166016 18.09046875 -13.75582031 18.9309375 -13.79101562 19.796875 C-13.87323568 21.86412204 -13.93830157 23.93203874 -14 26 C-15.32 26 -16.64 26 -18 26 C-18 17.42 -18 8.84 -18 0 C-16.68 0 -15.36 0 -14 0 C-14 0.66 -14 1.32 -14 2 C-13.0409375 1.2265625 -13.0409375 1.2265625 -12.0625 0.4375 C-7.97899044 -1.47924939 -4.28511036 -1.46849288 0 0 Z " fill="#AFAFAF" transform="translate(740,933)"/>
<path d="M0 0 C2.30275556 1.8670991 3.67823871 3.35647741 5 6 C5.37712577 10.99691647 5.09290612 13.99067725 2 18 C-1.24826674 20.16551116 -2.23094157 20.55156953 -6 20 C-8.79035429 17.7522146 -9.85910005 16.42269984 -11 13 C-11.37032807 8.00057109 -11.0799137 5.02757945 -8 1 C-5.15916359 -0.42041821 -3.14522722 -0.31452272 0 0 Z " fill="#070707" transform="translate(868,936)"/>
<path d="M0 0 C2.30275556 1.8670991 3.67823871 3.35647741 5 6 C5.37712577 10.99691647 5.09290612 13.99067725 2 18 C-1.24826674 20.16551116 -2.23094157 20.55156953 -6 20 C-8.79035429 17.7522146 -9.85910005 16.42269984 -11 13 C-11.37032807 8.00057109 -11.0799137 5.02757945 -8 1 C-5.15916359 -0.42041821 -3.14522722 -0.31452272 0 0 Z " fill="#070707" transform="translate(471,936)"/>
<path d="M0 0 C1.32 0 2.64 0 4 0 C4.01981934 0.55985596 4.03963867 1.11971191 4.06005859 1.6965332 C4.15537783 4.23565854 4.26502753 6.77396888 4.375 9.3125 C4.4059375 10.19357422 4.436875 11.07464844 4.46875 11.98242188 C4.50742187 12.82998047 4.54609375 13.67753906 4.5859375 14.55078125 C4.6173584 15.33106689 4.6487793 16.11135254 4.68115234 16.9152832 C4.89587889 19.30155768 4.89587889 19.30155768 7 22 C10.43230448 21.73606499 10.43230448 21.73606499 14 21 C16.0140956 17.9788566 16.26836596 17.19339983 16.4140625 13.76953125 C16.45273437 12.96708984 16.49140625 12.16464844 16.53125 11.33789062 C16.57765625 10.08782227 16.57765625 10.08782227 16.625 8.8125 C16.66367187 7.96751953 16.70234375 7.12253906 16.7421875 6.25195312 C16.83636279 4.16832476 16.91926675 2.08419247 17 0 C18.32 0 19.64 0 21 0 C21 8.58 21 17.16 21 26 C19.68 26 18.36 26 17 26 C16.67 25.34 16.34 24.68 16 24 C15.319375 24.515625 14.63875 25.03125 13.9375 25.5625 C10.09474677 27.44299626 8.08867758 27.11509388 4 26 C1.80078125 24.64453125 1.80078125 24.64453125 0 22 C-0.49839351 18.23995336 -0.37486298 14.53430881 -0.25 10.75 C-0.23195313 9.71875 -0.21390625 8.6875 -0.1953125 7.625 C-0.14822712 5.08238936 -0.0824805 2.54166838 0 0 Z " fill="#B0B0B0" transform="translate(967,933)"/>
<path d="M0 0 C1.32 0 2.64 0 4 0 C4.01981934 0.55985596 4.03963867 1.11971191 4.06005859 1.6965332 C4.15537783 4.23565854 4.26502753 6.77396888 4.375 9.3125 C4.4059375 10.19357422 4.436875 11.07464844 4.46875 11.98242188 C4.50742187 12.82998047 4.54609375 13.67753906 4.5859375 14.55078125 C4.6173584 15.33106689 4.6487793 16.11135254 4.68115234 16.9152832 C4.89587889 19.30155768 4.89587889 19.30155768 7 22 C10.43230448 21.73606499 10.43230448 21.73606499 14 21 C16.0140956 17.9788566 16.26836596 17.19339983 16.4140625 13.76953125 C16.45273437 12.96708984 16.49140625 12.16464844 16.53125 11.33789062 C16.57765625 10.08782227 16.57765625 10.08782227 16.625 8.8125 C16.66367187 7.96751953 16.70234375 7.12253906 16.7421875 6.25195312 C16.83636279 4.16832476 16.91926675 2.08419247 17 0 C18.32 0 19.64 0 21 0 C21 8.58 21 17.16 21 26 C19.68 26 18.36 26 17 26 C16.67 25.34 16.34 24.68 16 24 C15.319375 24.515625 14.63875 25.03125 13.9375 25.5625 C10.09474677 27.44299626 8.08867758 27.11509388 4 26 C1.80078125 24.64453125 1.80078125 24.64453125 0 22 C-0.49839351 18.23995336 -0.37486298 14.53430881 -0.25 10.75 C-0.23195313 9.71875 -0.21390625 8.6875 -0.1953125 7.625 C-0.14822712 5.08238936 -0.0824805 2.54166838 0 0 Z " fill="#B0B0B0" transform="translate(342,933)"/>
<path d="M0 0 C2.375 1.3125 2.375 1.3125 4 4 C4.89077665 9.41126005 4.9128261 13.56160735 1.9375 18.25 C-1 20 -1 20 -4.625 20.125 C-8 19 -8 19 -9.9375 17 C-11.39179256 12.89376218 -11.82439171 9.30083602 -11 5 C-7.90494929 0.53948574 -5.42331926 -1.03850794 0 0 Z " fill="#050505" transform="translate(764,936)"/>
<path d="M0 0 C2.875 2 2.875 2 5 5 C5.71621062 10.6401586 5.10655925 14.10119502 2 19 C-0.87470493 20.43735246 -2.81894588 20.38172649 -6 20 C-8.93339092 17.76135956 -9.85474685 16.00195031 -10.3828125 12.359375 C-10.55439948 8.08113974 -10.6196223 5.02475995 -8.375 1.3125 C-5.22091596 -0.43054644 -3.55483933 -0.65292967 0 0 Z " fill="#050505" transform="translate(541,936)"/>
<path d="M0 0 C2.375 1.3125 2.375 1.3125 4 4 C4.89077665 9.41126005 4.9128261 13.56160735 1.9375 18.25 C-1 20 -1 20 -4.625 20.125 C-8 19 -8 19 -9.9375 17 C-11.39179256 12.89376218 -11.82439171 9.30083602 -11 5 C-7.90494929 0.53948574 -5.42331926 -1.03850794 0 0 Z " fill="#050505" transform="translate(398,936)"/>
<path d="M0 0 C3.1875 0.3125 3.1875 0.3125 5.5625 1.625 C8.19178474 5.97343245 7.9109384 10.37265803 7.1875 15.3125 C5.5 18.5 5.5 18.5 3.1875 20.3125 C0.6875 20.875 0.6875 20.875 -1.8125 20.3125 C-4.60285429 18.0647146 -5.67160005 16.73519984 -6.8125 13.3125 C-7.18529581 8.27975663 -6.82225759 5.40577032 -3.8125 1.3125 C-2.8125 0.3125 -2.8125 0.3125 0 0 Z " fill="#060606" transform="translate(891.8125,935.6875)"/>
<path d="M0 0 C3.1875 0.3125 3.1875 0.3125 5.5625 1.625 C8.19178474 5.97343245 7.9109384 10.37265803 7.1875 15.3125 C5.5 18.5 5.5 18.5 3.1875 20.3125 C0.6875 20.875 0.6875 20.875 -1.8125 20.3125 C-4.60285429 18.0647146 -5.67160005 16.73519984 -6.8125 13.3125 C-7.18529581 8.27975663 -6.82225759 5.40577032 -3.8125 1.3125 C-2.8125 0.3125 -2.8125 0.3125 0 0 Z " fill="#060606" transform="translate(421.8125,935.6875)"/>
<path d="M0 0 C2.78957936 2.2022995 3.8258014 3.89970474 4.3828125 7.41796875 C4.56207825 11.46339912 4.53372957 14.13782146 2.375 17.625 C-0.66785463 19.38665268 -2.53432593 19.44242648 -6 19 C-9 17 -9 17 -10 14 C-10.46918572 9.39275007 -10.86072237 5.39039767 -8.375 1.375 C-5.24574008 -0.43667679 -3.55803554 -0.66713166 0 0 Z " fill="#040404" transform="translate(952,936)"/>
<path d="M0 0 C2.60478883 -0.0809313 5.20706653 -0.14045434 7.8125 -0.1875 C8.55048828 -0.21263672 9.28847656 -0.23777344 10.04882812 -0.26367188 C15.47158839 -0.33728401 15.47158839 -0.33728401 18.01953125 1.2890625 C19.73344602 4.27987791 18.81468896 6.79943623 18 10 C14.31912647 12.45391569 11.55644412 12.22802759 7.3125 12.125 C6.2596582 12.11146484 6.2596582 12.11146484 5.18554688 12.09765625 C3.45688475 12.07413704 1.72839855 12.03826713 0 12 C0 8.04 0 4.08 0 0 Z " fill="#050505" transform="translate(823,927)"/>
<path d="M0 0 C0 2.97 0 5.94 0 9 C1.65 9 3.3 9 5 9 C5 9.99 5 10.98 5 12 C3.35 12 1.7 12 0 12 C0.33 17.94 0.66 23.88 1 30 C2.32 30.33 3.64 30.66 5 31 C5 32.32 5 33.64 5 35 C1.625 35.125 1.625 35.125 -2 35 C-4 33 -4 33 -4.22705078 30.84521484 C-4.21657715 29.97590332 -4.20610352 29.1065918 -4.1953125 28.2109375 C-4.18886719 27.26992188 -4.18242187 26.32890625 -4.17578125 25.359375 C-4.15902344 24.37453125 -4.14226562 23.3896875 -4.125 22.375 C-4.11597656 21.38242187 -4.10695313 20.38984375 -4.09765625 19.3671875 C-4.07404116 16.91121866 -4.04110799 14.45572832 -4 12 C-4.99 12 -5.98 12 -7 12 C-7 11.01 -7 10.02 -7 9 C-6.01 9 -5.02 9 -4 9 C-4.061875 7.88625 -4.12375 6.7725 -4.1875 5.625 C-4.125625 4.42875 -4.06375 3.2325 -4 2 C-1 0 -1 0 0 0 Z " fill="#B1B1B1" transform="translate(375,924)"/>
<path d="M0 0 C2.33944736 0.28730055 4.6739143 0.61936779 7 1 C6.67 2.32 6.34 3.64 6 5 C4.865625 5.309375 3.73125 5.61875 2.5625 5.9375 C-0.78775099 6.62924531 -0.78775099 6.62924531 -2 8 C-2.15620555 9.41327947 -2.25056173 10.8335459 -2.31640625 12.25390625 C-2.35830078 13.10791016 -2.40019531 13.96191406 -2.44335938 14.84179688 C-2.50233398 16.18854492 -2.50233398 16.18854492 -2.5625 17.5625 C-2.60568359 18.46419922 -2.64886719 19.36589844 -2.69335938 20.29492188 C-2.79978142 22.52978485 -2.90179988 24.76476308 -3 27 C-4.65 27 -6.3 27 -8 27 C-8 18.42 -8 9.84 -8 1 C-5.66666667 1 -3.33333333 1 -1 1 C-0.67 0.67 -0.34 0.34 0 0 Z " fill="#A0A0A0" transform="translate(918,932)"/>
<path d="M0 0 C2.33944736 0.28730055 4.6739143 0.61936779 7 1 C6.67 2.32 6.34 3.64 6 5 C4.865625 5.309375 3.73125 5.61875 2.5625 5.9375 C-0.78775099 6.62924531 -0.78775099 6.62924531 -2 8 C-2.15620555 9.41327947 -2.25056173 10.8335459 -2.31640625 12.25390625 C-2.35830078 13.10791016 -2.40019531 13.96191406 -2.44335938 14.84179688 C-2.50233398 16.18854492 -2.50233398 16.18854492 -2.5625 17.5625 C-2.60568359 18.46419922 -2.64886719 19.36589844 -2.69335938 20.29492188 C-2.79978142 22.52978485 -2.90179988 24.76476308 -3 27 C-4.65 27 -6.3 27 -8 27 C-8 18.42 -8 9.84 -8 1 C-5.66666667 1 -3.33333333 1 -1 1 C-0.67 0.67 -0.34 0.34 0 0 Z " fill="#A0A0A0" transform="translate(642,932)"/>
<path d="M0 0 C2.33944736 0.28730055 4.6739143 0.61936779 7 1 C6.67 2.32 6.34 3.64 6 5 C4.865625 5.309375 3.73125 5.61875 2.5625 5.9375 C-0.78775099 6.62924531 -0.78775099 6.62924531 -2 8 C-2.15620555 9.41327947 -2.25056173 10.8335459 -2.31640625 12.25390625 C-2.35830078 13.10791016 -2.40019531 13.96191406 -2.44335938 14.84179688 C-2.50233398 16.18854492 -2.50233398 16.18854492 -2.5625 17.5625 C-2.60568359 18.46419922 -2.64886719 19.36589844 -2.69335938 20.29492188 C-2.79978142 22.52978485 -2.90179988 24.76476308 -3 27 C-4.65 27 -6.3 27 -8 27 C-8 18.42 -8 9.84 -8 1 C-5.66666667 1 -3.33333333 1 -1 1 C-0.67 0.67 -0.34 0.34 0 0 Z " fill="#A0A0A0" transform="translate(448,932)"/>
<path d="M0 0 C3.41767467 -0.31792323 5.56656532 -0.20663746 8.6875 1.28125 C12.39334872 5.6381262 11.52976173 10.23489465 11.3125 15.75 C11.27866211 17.36841797 11.27866211 17.36841797 11.24414062 19.01953125 C11.1852565 21.6810935 11.10307001 24.33984228 11 27 C9.68 27 8.36 27 7 27 C6.67 19.74 6.34 12.48 6 5 C3.36 4.67 0.72 4.34 -2 4 C-1.34 2.68 -0.68 1.36 0 0 Z " fill="#AFAFAF" transform="translate(676,932)"/>
<path d="M0 0 C3.41767467 -0.31792323 5.56656532 -0.20663746 8.6875 1.28125 C12.39334872 5.6381262 11.52976173 10.23489465 11.3125 15.75 C11.27866211 17.36841797 11.27866211 17.36841797 11.24414062 19.01953125 C11.1852565 21.6810935 11.10307001 24.33984228 11 27 C9.68 27 8.36 27 7 27 C6.67 19.74 6.34 12.48 6 5 C3.36 4.67 0.72 4.34 -2 4 C-1.34 2.68 -0.68 1.36 0 0 Z " fill="#AFAFAF" transform="translate(510,932)"/>
<path d="M0 0 C-0.1875 3.3125 -0.1875 3.3125 -1 7 C-3.77119999 9.45449142 -5.51075204 9.95203451 -9.1875 10.3125 C-12 10 -12 10 -14 8 C-13.875 5.5 -13.875 5.5 -13 3 C-9.28892095 0.25105255 -4.49583229 0 0 0 Z " fill="#0F0F0F" transform="translate(711,946)"/>
<path d="M0 0 C1.32 0 2.64 0 4 0 C4 8.58 4 17.16 4 26 C2.68 26 1.36 26 0 26 C0 17.42 0 8.84 0 0 Z " fill="#B4B4B4" transform="translate(928,933)"/>
<path d="M0 0 C3.64780666 4.1689219 6 9.44803736 6 15 C2.04 15 -1.92 15 -6 15 C-5.19093245 12.68624595 -4.37793083 10.37401052 -3.5625 8.0625 C-3.33240234 7.40314453 -3.10230469 6.74378906 -2.86523438 6.06445312 C-1.11328125 1.11328125 -1.11328125 1.11328125 0 0 Z " fill="#090909" transform="translate(321,929)"/>
<path d="M0 0 C2.375 1.25 2.375 1.25 4 3 C4 4.32 4 5.64 4 7 C-0.62 7 -5.24 7 -10 7 C-8.43630432 0.74521729 -6.52508202 -0.79898964 0 0 Z " fill="#050505" transform="translate(620,936)"/>
<path d="M0 0 C2.375 1.8125 2.375 1.8125 4 4 C4 4.99 4 5.98 4 7 C-0.62 7 -5.24 7 -10 7 C-9.67 5.35 -9.34 3.7 -9 2 C-5.50875983 -0.32749345 -4.10777749 -0.50299316 0 0 Z " fill="#040404" transform="translate(1009,936)"/>
<path d="M0 0 C1.32 0 2.64 0 4 0 C4 1.65 4 3.3 4 5 C2.68 5 1.36 5 0 5 C0 3.35 0 1.7 0 0 Z " fill="#AFAFAF" transform="translate(928,923)"/>
</svg>
