<svg viewBox="0 0 400 260" xmlns="http://www.w3.org/2000/svg">
  <path d="M 60,210
           L 100,210
           C 120,210 125,190 110,175
           L 85,150
           C 70,135 78,115 100,115
           L 170,115
           C 200,115 210,90 185,72
           L 150,50
           C 130,37 140,15 165,15
           L 230,15
           C 260,15 275,35 260,55
           L 230,85
           C 215,100 225,120 250,120
           L 300,120
           C 330,120 345,145 325,165
           L 290,195
           C 270,212 240,212 215,198
           L 180,180
           C 160,170 140,175 130,190
           C 122,201 110,210 60,210 Z"
        fill="none" stroke="#e10600" stroke-width="5" stroke-linecap="round" />
  <line x1="60" y1="200" x2="60" y2="218" stroke="#888" stroke-width="2" stroke-dasharray="3,3" />
  <text x="200" y="245" text-anchor="middle" fill="#888" font-family="sans-serif" font-size="14">Monaco</text>
</svg>
