<?xml version="1.0" encoding="UTF-8"?>
<svg version="1.1" xmlns="http://www.w3.org/2000/svg" width="1350" height="1080">
<path d="M0 0 C445.5 0 891 0 1350 0 C1350 356.4 1350 712.8 1350 1080 C904.5 1080 459 1080 0 1080 C0 723.6 0 367.2 0 0 Z " fill="#000000" transform="translate(0,0)"/>
<path d="M0 0 C1.3671875 1.609375 1.3671875 1.609375 2.875 3.75 C4.58260633 6.12398929 6.1165507 8.11007566 8.25 10.125 C11.76934344 13.89572512 12.05482045 18.1800047 12.375 23.125 C12.67664609 27.29218483 13.48651977 30.61286012 15 34.5 C16.94940564 39.83847833 17.23705447 44.46251317 17.3125 50.0625 C17.67602604 66.48532335 25.11100666 82.31754687 34.859375 95.3359375 C36.06970135 97.10168758 36.96472395 98.87623483 37.875 100.8125 C39.44156751 104.11757535 41.33332 106.92923719 43.5 109.875 C45.86458619 113.13872505 47.48714281 115.99297605 48.75 119.8125 C51.16336464 126.38506754 55.90079554 131.18770303 60.49902344 136.31787109 C62.9376285 139.05079056 65.31572808 141.83406979 67.6875 144.625 C68.14987061 145.16616455 68.61224121 145.7073291 69.08862305 146.26489258 C71.87693897 149.56162222 74.41732156 152.94486766 76.875 156.5 C84.41957739 167.02270004 93.82894806 175.50331453 104.61914062 182.60327148 C109.79630676 186.19210693 112.15039664 189.98691978 114 196 C117.44598289 215.58635866 107.49082363 238.95927816 100.3125 256.75 C96.0423811 267.63599391 93.96687795 278.95277716 92.71801758 290.53564453 C92.22129725 294.90612767 91.23921936 298.67622295 89.73046875 302.78125 C86.92086194 311.31524288 86.78519225 320.29004764 86.6875 329.1875 C86.66103394 330.55878052 86.66103394 330.55878052 86.6340332 331.95776367 C86.64182565 339.8217589 87.60108003 347.91028143 93 354 C95.31254012 355.04718798 97.6485148 356.04346365 100 357 C100.87897949 357.68143066 101.75795898 358.36286133 102.66357422 359.06494141 C106.99265677 361.57572059 110.16367281 361.54640943 115.0703125 361.4609375 C115.94662323 361.46002106 116.82293396 361.45910461 117.72579956 361.4581604 C119.58336798 361.45213074 121.44092696 361.43640376 123.29833984 361.41162109 C126.06777074 361.37574144 128.83583255 361.3705982 131.60546875 361.37109375 C167.05203191 361.23080575 194.28811566 352.17682601 223 331 C224.19916036 330.12882587 225.39837473 329.25772608 226.59765625 328.38671875 C231.28788311 324.92862088 235.81587706 321.37155326 240.17578125 317.5078125 C242.44240399 315.6343299 244.83737227 313.99351283 247.25 312.3125 C254.78185811 306.89412065 261.73272525 300.4945712 267 292.8125 C269.25080877 289.6423468 271.59661446 287.74178076 274.8125 285.5625 C290.80837495 274.42446943 303.58078325 259.55600936 310.578125 241.34375 C312.35105063 237.17445237 314.51277268 233.28277141 316.6875 229.3125 C324.35478886 215.14282988 330.17685149 200.01710847 335.04956055 184.67700195 C335.99142139 182.02416245 337.12670213 179.61337688 338.4375 177.125 C342.67045542 168.9837023 345.46599895 160.30479818 347.75 151.4375 C355.16032354 122.88422955 365.128729 94.88166259 376.375 67.625 C376.94528931 66.23704224 376.94528931 66.23704224 377.52709961 64.82104492 C387.2175116 41.85985318 387.2175116 41.85985318 397.62454224 36.84942627 C402.02940032 35.27431842 406.48426155 35.32029027 411.12109375 35.2421875 C412.70834007 35.19120407 412.70834007 35.19120407 414.32765198 35.13919067 C417.69736072 35.03356144 421.06704388 34.95280392 424.4375 34.875 C451.50382557 35.66468977 451.50382557 35.66468977 477.03515625 28.84375 C481.12882749 27.08583154 486.04761961 28.4597343 490.37109375 28.90625 C494.07653866 29.00197732 495.67865606 28.43736677 499 27 C504.88654849 26.04475399 510.72957979 25.72845244 516.6875 25.625 C517.51572266 25.58761719 518.34394531 25.55023438 519.19726562 25.51171875 C523.41193598 25.45097891 525.34926511 25.49048843 528.75390625 28.15625 C529.49511719 29.0946875 530.23632812 30.033125 531 31 C531.85078125 31.92554688 532.7015625 32.85109375 533.578125 33.8046875 C548.29821343 50.51205621 557.71922202 70.68009404 565.37402344 91.45214844 C567.71402226 97.64691456 570.69948992 103.38340052 574.06860352 109.08105469 C576.4474051 113.26473473 577.19909007 116.38834141 577.55175781 121.25317383 C578.62478734 127.82869407 581.53857919 134.11938893 583.9375 140.3125 C584.49505838 141.77894826 585.05170642 143.24574299 585.60742188 144.71289062 C588.14811194 151.60038767 588.14811194 151.60038767 591.15551758 158.28564453 C592.33354191 160.67711225 592.31303081 162.36806987 592 165 C590.828125 167.02734375 590.828125 167.02734375 589.25 168.9375 C587.32221084 171.3281383 585.66610824 173.5493058 584.0625 176.1875 C581.88141264 179.16171004 579.87926212 180.58726811 576.85546875 182.5859375 C574.74470005 184.19456543 573.19762388 185.96285134 571.5 188 C569.27786209 190.66656549 567.20791095 192.71118893 564.3125 194.625 C561.80192385 196.29317532 560.86896413 197.19655381 559.125 199.8125 C557.09945919 202.85081121 555.24922858 204.64927524 552.5 207 C547.47838697 211.35590001 544.55768792 215.39449288 542.28125 221.63671875 C540.15419263 227.00284836 537.27266429 231.34685703 533.8125 235.9375 C533.23443604 236.71963867 532.65637207 237.50177734 532.06079102 238.30761719 C526.22905727 246.14596028 520.04247814 253.63732897 513.66137695 261.03076172 C504.82215931 271.28161352 496.42794992 281.63555944 489.03125 292.98828125 C484.36194439 299.91142476 479.2606999 306.64283838 473.5625 312.75 C465.69285861 321.54985904 452.60967805 338.32785539 451.7734375 350.22265625 C452.00592438 353.07262475 452.4033803 354.64708675 454 357 C454.99 357.66 455.98 358.32 457 359 C457.31235765 361.96739767 457.4587029 364.7774693 457.5 367.75 C458.09247411 383.54091628 461.76149413 394.71035499 470 408 C470.84447138 409.39409453 471.68822037 410.7886269 472.53125 412.18359375 C476.72212297 419.05578498 481.08156533 425.73842786 485.91796875 432.1796875 C491.54461833 439.80152801 496.60362827 447.51903712 501.1875 455.8125 C502.31876495 457.83216876 503.45028128 459.85169674 504.58203125 461.87109375 C506.27244795 464.90057811 507.96146701 467.93083676 509.64990234 470.96142578 C511.21822613 473.76977535 512.79588462 476.57270806 514.375 479.375 C514.83801514 480.21135986 515.30103027 481.04771973 515.77807617 481.90942383 C519.48964058 488.4815312 523.55455591 495.37489974 529.625 500 C532.04276228 502.03601034 532.83588144 503.36410186 534.25 506.125 C540.65211685 518.19812777 551.76722776 525.98370002 562.734375 533.60546875 C577.77430122 544.05894642 584.26876201 556.74820571 592.55712891 572.78173828 C600.21251251 589.67904398 600.21251251 589.67904398 613.26953125 601.91796875 C616.23069611 603.76953233 616.96702391 605.71878183 618 609 C618.15096872 610.78966558 618.27345428 612.58185112 618.375 614.375 C618.61708207 618.45738402 619.17431672 620.72793387 621.625 624 C624.4135336 628.04418908 624.5511347 630.9849304 623.83203125 635.796875 C621.19359659 645.9542291 617.39652351 656.45662409 608 662 C603.36446977 664.56664408 598.63399797 666.90413749 593.83251953 669.14257812 C592.29452435 669.86219431 590.7687179 670.6077818 589.24609375 671.359375 C588.50488281 671.71515625 587.76367188 672.0709375 587 672.4375 C586.1028125 672.86869141 586.1028125 672.86869141 585.1875 673.30859375 C578.23356368 675.50653434 570.56976837 675.21460164 563.3515625 675.3515625 C562.25782318 675.37471527 561.16408386 675.39786804 560.03720093 675.42172241 C557.7395239 675.4691173 555.44180198 675.51437892 553.14404297 675.55761719 C549.61537938 675.62518422 546.08703094 675.70282939 542.55859375 675.78125 C540.32292875 675.82612696 538.08725191 675.8704186 535.8515625 675.9140625 C534.79329254 675.93796051 533.73502258 675.96185852 532.64468384 675.98648071 C531.18208633 676.0117836 531.18208633 676.0117836 529.68994141 676.03759766 C528.83026764 676.05456696 527.97059387 676.07153625 527.08486938 676.08901978 C525 676 525 676 523 675 C520.29801084 674.86694041 517.6176705 674.7899379 514.9140625 674.75390625 C513.24348534 674.7209173 511.57291255 674.68770665 509.90234375 674.65429688 C507.27851963 674.60727756 504.65470621 674.56295009 502.03076172 674.52319336 C499.49165598 674.48284791 496.95294212 674.43141387 494.4140625 674.37890625 C493.65106842 674.3704921 492.88807434 674.36207794 492.10195923 674.35340881 C487.68564032 674.25585936 483.50814181 673.78609347 479.15893555 672.99780273 C473.0869013 671.92548645 467.19852133 671.6879343 461.04296875 671.65625 C459.93810623 671.6416272 458.83324371 671.62700439 457.69490051 671.61193848 C454.19247013 671.56593278 450.69008863 671.53152209 447.1875 671.5 C442.59747403 671.45798751 438.00778872 671.40392289 433.41796875 671.34375 C432.41501266 671.3384729 431.41205658 671.3331958 430.37870789 671.32775879 C424.25941649 671.24733197 418.2222601 670.85836111 412.13421535 670.27204609 C398.70949958 668.98298794 385.42484506 668.72270247 371.9453125 668.76953125 C369.61994452 668.77072848 367.29457604 668.77117507 364.96920776 668.7709198 C360.140573 668.77246797 355.31201413 668.78062985 350.48339844 668.79418945 C344.34149728 668.81123413 338.19967848 668.81500102 332.05775642 668.81424427 C327.27209713 668.81451799 322.48645529 668.82003056 317.70080185 668.82724571 C315.43732713 668.8303918 313.17385047 668.8323901 310.91037369 668.83313942 C289.29093381 668.50735113 289.29093381 668.50735113 267.89749336 671.01089859 C262.44271891 672.01330512 257.23438577 672.27433653 251.69995117 672.23377991 C250.72486729 672.23478319 249.7497834 672.23578647 248.74515152 672.23682016 C245.51100642 672.23776506 242.27708414 672.22448358 239.04296875 672.21118164 C236.71126877 672.20897821 234.37956779 672.20767448 232.04786682 672.2071991 C227.04429331 672.20427491 222.04078565 672.19505951 217.03723145 672.18089485 C209.7998577 672.16046765 202.56251147 672.15151844 195.32511258 672.1459735 C183.57593792 672.13673885 171.82679131 672.1193066 160.07763672 672.09594727 C159.37586847 672.09455395 158.67410021 672.09316064 157.95106626 672.0917251 C157.24838896 672.09032957 156.54571166 672.08893404 155.8217411 672.08749622 C145.84096181 672.06769361 135.86018156 672.04987452 125.87939453 672.03442383 C125.17606275 672.03333298 124.47273096 672.03224213 123.74808609 672.03111822 C112.0306283 672.01311001 100.31316767 671.99914485 88.59570217 671.98725218 C80.72954226 671.97883131 72.86341776 671.96479404 64.99727535 671.94627964 C60.1165988 671.93566426 55.2359226 671.92906311 50.35523796 671.92347908 C48.08600465 671.91999847 45.81677328 671.9147735 43.54754829 671.90771103 C40.45974553 671.89830922 37.37199482 671.89498952 34.28417969 671.89320374 C33.37826678 671.88892665 32.47235388 671.88464957 31.53898907 671.88024288 C30.30185775 671.88137936 30.30185775 671.88137936 29.03973389 671.8825388 C27.97046221 671.880343 27.97046221 671.880343 26.87958908 671.87810284 C24.77187205 671.93483778 24.77187205 671.93483778 22 673 C19.86263406 673.09777744 17.72235549 673.13548562 15.58276367 673.1418457 C14.93491409 673.14532013 14.28706451 673.14879456 13.61958313 673.15237427 C12.21024114 673.15972705 10.80088759 673.16507498 9.39153099 673.16866493 C7.1378255 673.17587772 4.88433189 673.19159071 2.63069153 673.21000671 C-3.77880488 673.26217079 -10.18819753 673.31016738 -16.59790039 673.32592773 C-33.10557495 673.37254972 -48.95227757 673.6494924 -65.17480469 677.06811523 C-73.37807353 678.75801644 -81.65055705 678.87073751 -90 679 C-91.15510071 679.01925537 -92.31020142 679.03851074 -93.50030518 679.05834961 C-103.35436643 679.20567288 -113.20744358 679.24563847 -123.0625 679.25 C-123.82481178 679.25073643 -124.58712357 679.25147285 -125.37253571 679.2522316 C-146.57409614 679.26887289 -167.70443847 678.94817618 -188.875 677.6875 C-189.90424591 677.62864624 -190.93349182 677.56979248 -191.993927 677.50915527 C-227.52056992 675.41265405 -227.52056992 675.41265405 -237.125 664.875 C-241.06924256 660.31989005 -243.17954422 655.69792376 -245 650 C-245.495 648.515 -245.495 648.515 -246 647 C-246.98727876 633.61433685 -244.61573977 618.20130209 -236.5625 607.125 C-232.30002533 602.71068145 -226.45309383 600.44513509 -220.96044922 597.91357422 C-217.67127215 596.38080951 -214.43088735 594.75188757 -211.1875 593.125 C-210.52314941 592.79306641 -209.85879883 592.46113281 -209.17431641 592.11914062 C-199.25990648 587.1488685 -189.44286477 581.99752229 -179.82714844 576.47021484 C-174.23142457 573.25464013 -168.73444316 570.36806418 -162.75 567.9375 C-151.89565172 563.46008133 -142.99967539 556.4081835 -134 549 C-133.10410156 548.30132813 -132.20820313 547.60265625 -131.28515625 546.8828125 C-125.3125692 542.17510714 -120.2224168 537.17414146 -115.2890625 531.3828125 C-113.00486852 529.00506791 -110.85888372 527.60097488 -108 526 C-100.03447816 518.03447816 -99.78430572 505.93213806 -99.75 495.3125 C-99.76495027 483.60323193 -100.92481765 473.078205 -109 464 C-112.16454981 461.08139965 -115.51288516 458.51992407 -119 456 C-120.08861328 455.19175781 -120.08861328 455.19175781 -121.19921875 454.3671875 C-129.15077684 448.6220827 -137.55329198 443.51202923 -145.87548828 438.32714844 C-147.59857289 437.25076509 -149.31413445 436.16234527 -151.02734375 435.0703125 C-155.14681429 432.49313968 -159.14954511 430.49675248 -163.6875 428.75 C-168.71148161 426.76347666 -172.80770033 424.21635309 -177.1875 421.125 C-183.22146632 416.87643505 -189.26544007 414.02627013 -196.1484375 411.40942383 C-199.96490946 409.93203725 -203.04289105 408.50691921 -206.1875 405.8125 C-211.56472789 401.26067052 -219.22521566 399.76656786 -226.06054688 398.66918945 C-230.08244685 397.93218472 -231.63801692 397.40150338 -234.46875 394.26171875 C-235.17651474 393.08827946 -235.85205986 391.89500332 -236.5 390.6875 C-236.87326416 390.03450928 -237.24652832 389.38151855 -237.63110352 388.70874023 C-241.10734846 382.36148614 -243.48095365 375.64302834 -245.90795898 368.84375 C-248.29641706 362.34422397 -251.23852559 356.68171719 -255.23608398 351.02758789 C-262.77502969 340.0899243 -266.9094599 326.90026744 -271.02716064 314.38018799 C-275.21933324 301.66349455 -279.79359804 289.2341994 -284.98632812 276.88842773 C-288.9372695 267.40345252 -292.24458977 257.75055117 -295.49902344 248.01269531 C-297.61766093 241.74897174 -299.85660027 235.75783308 -302.875 229.875 C-305.9896293 223.65301857 -307.33426054 217.63102253 -308.5769043 210.84448242 C-309.46217689 206.12926627 -310.63897992 202.06467965 -312.6875 197.6875 C-314.63595435 193.49585403 -315.22975756 190.28682062 -315.296875 185.6796875 C-315.83708435 176.25534948 -319.09023398 168.07005598 -322.35522461 159.31079102 C-326.95142544 146.86567134 -329.01371746 136.04115237 -324.6875 123.0625 C-324.47416016 122.36060547 -324.26082031 121.65871094 -324.04101562 120.93554688 C-321.6135902 113.18952364 -319.10999254 108.13268316 -312 104 C-308.97045884 102.48522942 -306.09438203 101.24469457 -302.78125 100.50390625 C-295.38580609 98.84906155 -289.28945691 95.68565052 -282.67700195 92.1159668 C-237.62229869 67.79773784 -237.62229869 67.79773784 -218.86328125 72.84375 C-216.08452809 73.96586587 -214.20440095 75.06359179 -211.9375 77 C-211.30714844 77.515625 -210.67679687 78.03125 -210.02734375 78.5625 C-204.28475034 85.46688977 -202.18419566 93.33558082 -200.625 102 C-198.01359462 115.08763754 -193.92719006 126.8627407 -187.375 138.5 C-183.4226968 146.0693664 -182.24084813 153.96295016 -180.76855469 162.31542969 C-178.45775478 175.40491986 -174.90999311 186.6957893 -168.67578125 198.5234375 C-166.98257604 202.03614761 -165.81725988 205.45889317 -164.6875 209.1875 C-162.19711786 217.10247692 -158.44406175 224.07797106 -154.48828125 231.34765625 C-152.25083886 235.47185271 -150.24338398 239.66308346 -148.3125 243.9375 C-141.84510611 258.95801437 -141.84510611 258.95801437 -129 268 C-128.22140625 268.36222656 -127.4428125 268.72445313 -126.640625 269.09765625 C-118.26947365 271.95821241 -106.99974878 270.63378419 -99 267 C-95.03621998 263.9420198 -93.70049574 260.28521657 -92.3125 255.625 C-91.9868103 254.56913696 -91.9868103 254.56913696 -91.65454102 253.49194336 C-90.00032852 247.78954971 -89.44089353 242.32823092 -89.43359375 236.37890625 C-89.03086268 233.24050647 -88.43975225 231.64400985 -87.07055664 228.88061523 C-84.90631592 224.12651032 -84.05507707 219.68931254 -83.4375 214.53125 C-83.31947021 213.65206909 -83.20144043 212.77288818 -83.07983398 211.86706543 C-82.70694936 209.07956163 -82.35192845 206.29022062 -82 203.5 C-80.48798839 191.69547964 -78.78087155 180.13620381 -75.89208984 168.58300781 C-74.86335133 164.45116151 -74.00362877 160.32505815 -73.3125 156.125 C-73.19148926 155.40304443 -73.07047852 154.68108887 -72.94580078 153.93725586 C-71.91618535 147.35068305 -71.51971962 140.76228843 -71.2902832 134.10400391 C-71.17720348 130.8438286 -71.03812211 128.11436632 -70 125 C-69.56574516 121.40918684 -69.19227014 117.81801322 -68.83789062 114.21875 C-67.56857124 102.00026092 -64.71816562 90.11552767 -61.95629883 78.16845703 C-61.48802757 76.13888277 -61.0232059 74.10853951 -60.55859375 72.078125 C-60.28329834 70.88606445 -60.00800293 69.69400391 -59.72436523 68.46582031 C-58.57916648 62.98646693 -57.90478464 57.55670942 -57.5703125 51.97265625 C-56.76799888 39.47174271 -55.94808315 27.20506423 -53 15 C-52.731875 13.77539062 -52.46375 12.55078125 -52.1875 11.2890625 C-50.84148084 7.56094365 -49.85819801 6.5984865 -46.5 4.625 C-45.7059375 4.14289063 -44.911875 3.66078125 -44.09375 3.1640625 C-39.87036669 0.81598745 -36.32820952 0.78136715 -31.5625 0.68359375 C-30.72662354 0.66281265 -29.89074707 0.64203156 -29.02954102 0.62062073 C-26.3531123 0.55514965 -23.67658318 0.49628118 -21 0.4375 C-19.19530222 0.39430761 -17.39061449 0.35069309 -15.5859375 0.30664062 C-2.85013516 0 -2.85013516 0 0 0 Z " fill="#000000" transform="translate(526,133)"/>
<path d="M0 0 C2.22290583 0.00317244 4.44449298 -0.02040978 6.66723633 -0.0456543 C21.89001371 -0.11552563 21.89001371 -0.11552563 28.62231445 4.72583008 C42.36659265 20.78613306 50.06983696 41.13712803 51.17016602 62.05004883 C51.81209681 73.33119324 53.52590746 81.51498975 59.37963867 91.15600586 C60.84150457 93.61918028 62.19328839 96.12773008 63.5402832 98.65551758 C66.51887375 104.24403509 69.57125545 109.78814016 72.66137695 115.31567383 C73.0809668 116.06896973 73.50055664 116.82226562 73.93286133 117.59838867 C78.12821956 125.06855338 82.54187443 131.74800798 88.47387695 137.99926758 C93.81667411 143.65690814 98.37677552 149.79060798 102.59887695 156.31567383 C110.36271101 168.08179444 119.86213136 175.9529282 131.13012695 184.10083008 C137.27032412 188.57996644 140.68113312 192.4601849 142.8684082 199.81958008 C143.62266393 202.34261253 143.62266393 202.34261253 144.7355957 204.78051758 C153.80146266 225.93420714 143.22703998 251.56083658 135.96606445 271.89233398 C131.53742499 284.32927473 128.43762321 296.12677015 127.5703125 309.34326172 C127.2176552 313.69116115 126.43337046 317.08978058 124.6262207 321.07348633 C122.02020918 327.16797143 122.07131426 332.95486526 122.16137695 339.50317383 C122.1459082 340.63948242 122.13043945 341.77579102 122.11450195 342.9465332 C122.14547683 349.58677194 122.60496332 353.96514316 126.66137695 359.31567383 C129.49488024 360.73242547 131.8948589 360.44545849 135.05981445 360.44848633 C136.3437207 360.44977539 137.62762695 360.45106445 138.95043945 360.45239258 C139.62107422 360.45029785 140.29170898 360.44820313 140.98266602 360.44604492 C143.02147936 360.44071279 145.06007063 360.44598434 147.09887695 360.45239258 C148.38536133 360.45110352 149.6718457 360.44981445 150.99731445 360.44848633 C152.76921143 360.44679443 152.76921143 360.44679443 154.5769043 360.44506836 C157.17609413 360.33603158 159.17889267 359.97461867 161.66137695 359.31567383 C163.31437657 359.21628515 164.97037627 359.1614575 166.6262207 359.13989258 C181.37705492 358.82119023 192.88034704 356.77616766 206.22387695 350.37817383 C206.90377686 350.05453857 207.58367676 349.73090332 208.28417969 349.39746094 C211.39325065 347.8232033 213.38440444 346.66287264 215.5871582 343.90161133 C218.54933408 340.20865383 222.24931651 338.27374759 226.28637695 335.87817383 C233.12900585 331.68432572 239.65248011 327.26252312 245.97387695 322.31567383 C246.6404834 321.79561768 247.30708984 321.27556152 247.99389648 320.73974609 C259.47382703 311.62950066 270.36221942 301.97054308 280.70385742 291.58886719 C282.41633258 289.87320899 284.1418308 288.17142272 285.8684082 286.4699707 C295.18765518 277.20368862 304.32514562 267.48228127 309.66137695 255.31567383 C311.20956017 252.01737046 312.64192145 249.33988438 314.9309082 246.49145508 C318.43890258 241.62556844 320.21838673 236.09144137 322.22439575 230.48291016 C325.4823741 221.3905006 328.86450052 212.44739563 333.22387695 203.81567383 C342.37399813 185.38612291 347.83530129 165.31718996 353.02075195 145.48364258 C356.42922132 132.52291747 359.98990096 119.81546412 366.3972168 107.99731445 C370.6720815 99.85045189 373.53067497 91.07334528 376.54125977 82.3996582 C381.97181462 67.00971646 389.78072234 46.12297186 405.44458008 38.44116211 C412.09373631 35.96966489 418.5773028 35.85264131 425.61734009 35.77636719 C429.08458605 35.7370249 432.5505577 35.65038126 436.0168457 35.56176758 C437.02862129 35.53667618 437.02862129 35.53667618 438.06083679 35.51107788 C444.40064435 35.33384805 450.56699178 34.64874784 456.84106445 33.78051758 C461.09853869 33.26248135 465.31671848 33.05375833 469.59887695 32.87817383 C476.49510798 32.58082637 483.10285286 31.65960395 489.88476562 30.40405273 C496.13075031 29.29204451 502.31115532 28.86050947 508.6496582 28.69458008 C513.0217455 28.54964901 516.57385641 27.84775461 520.66137695 26.31567383 C530.53480802 24.52050454 543.21084781 23.36251131 552.66137695 27.31567383 C555.88484366 29.8228146 557.51350104 32.05069023 559.5012207 35.61254883 C561.49238238 39.14966933 563.85306161 42.22101715 566.41137695 45.37817383 C570.45873316 50.4793106 573.7799031 55.7332466 576.90258789 61.43945312 C578.62555778 64.56922356 580.40077 67.42568414 582.66137695 70.19067383 C586.95150205 75.64343446 589.71841239 82.06448606 592.68969727 88.2956543 C593.55070593 90.08560044 594.44360897 91.86012727 595.34106445 93.63208008 C601.39141709 105.89200515 605.72443617 118.87390671 610.35961914 131.71508789 C615.20156364 145.10762304 620.28588495 158.21513719 626.51318359 171.03637695 C630.3640422 179.15747212 630.3640422 179.15747212 629.66137695 184.31567383 C627.82679918 188.78745716 624.50202495 191.26795678 620.8996582 194.30395508 C617.64833892 197.22617049 614.83987464 200.49091742 611.9543457 203.76879883 C609.72261021 206.24766006 607.41261449 208.60074553 605.03637695 210.94067383 C601.64528265 214.28475122 598.49245186 217.74753101 595.3996582 221.36645508 C593.61227025 223.37073954 591.72654551 225.20969405 589.78637695 227.06567383 C583.28157831 233.50744148 577.83357372 240.79221218 573.66137695 248.94067383 C571.11822438 253.83242085 567.98760411 257.40379245 564.2199707 261.39379883 C557.06119616 269.56901006 551.20173399 278.94615647 545.22387695 288.00317383 C541.67140614 293.36111849 538.34053931 298.03720191 533.22387695 302.00317383 C529.35310194 305.18005181 527.50351514 308.9452084 525.41137695 313.43676758 C523.45968879 316.64746887 521.19192299 318.84231687 518.50317383 321.43408203 C513.41113739 326.63613993 509.48600062 332.97049572 505.34545898 338.93139648 C503.73283856 341.21450044 502.06400271 343.44331102 500.3762207 345.67114258 C493.57054856 354.93465665 491.25188638 361.53916145 492.44555664 372.97045898 C492.68295899 375.55019535 492.780544 378.11298847 492.85668945 380.70239258 C493.13985669 398.04760921 493.13985669 398.04760921 500.03637695 413.56567383 C500.49971436 414.2554834 500.96305176 414.94529297 501.44042969 415.65600586 C503.16548753 418.21986324 504.91378603 420.76712196 506.66137695 423.31567383 C510.03300632 428.26224642 513.38302596 433.22327502 516.72387695 438.19067383 C517.16348755 438.84272797 517.60309814 439.4947821 518.05603027 440.16659546 C523.72781678 448.59942645 528.90673457 457.04679585 533.41943359 466.16845703 C535.75733847 470.82599781 538.36574997 474.84484267 541.66137695 478.87817383 C545.68477414 483.80825207 548.73753753 488.82691057 551.72387695 494.44067383 C555.66580382 501.8056311 560.05981116 508.08280456 565.66137695 514.31567383 C566.30977539 515.1174707 566.95817383 515.91926758 567.6262207 516.74536133 C573.42550887 523.71341199 580.32654066 528.88613623 587.57543945 534.23754883 C597.62421506 541.70974574 597.62421506 541.70974574 600.59887695 546.31567383 C602.55549796 549.16166803 603.76248797 550.19893568 606.53637695 552.06567383 C613.86493505 557.28980746 617.21105418 566.25459004 620.99780273 574.16918945 C625.12246377 582.78690665 628.99634685 590.58023076 635.4309082 597.68286133 C643.30606328 606.97857853 651.89150108 619.62131564 652.2902832 632.07739258 C652.5668394 634.50154611 652.5668394 634.50154611 654.1652832 637.08520508 C655.94020034 640.91772851 656.11761347 644.17827916 656.03637695 648.31567383 C656.02767578 649.0575293 656.01897461 649.79938477 656.01000977 650.5637207 C655.67295904 663.48215679 652.92427677 676.64535318 643.8684082 686.29223633 C622.15862578 706.19607225 597.54204763 711.51986161 568.91137695 711.50317383 C568.25475067 711.50356659 567.59812439 711.50395935 566.92160034 711.50436401 C558.76997533 711.49856531 550.81695423 711.23635373 542.74780273 710.09985352 C533.5965685 708.88994962 524.33667993 708.86640585 515.11865234 708.65771484 C513.82564209 708.62605225 512.53263184 708.59438965 511.20043945 708.56176758 C510.03722168 708.53783936 508.87400391 708.51391113 507.67553711 708.48925781 C504.66137695 708.31567383 504.66137695 708.31567383 502.80084229 707.80993652 C500.27455319 707.22630919 498.00893074 707.21061408 495.41577148 707.23388672 C494.36592072 707.24041763 493.31606995 707.24694855 492.23440552 707.25367737 C490.53149857 707.27083046 490.53149857 707.27083046 488.79418945 707.28833008 C486.35538892 707.3010027 483.91658675 707.31336162 481.4777832 707.32543945 C477.66083542 707.34997871 473.8439756 707.37766136 470.02709961 707.41162109 C466.32445837 707.44247239 462.62192098 707.45981161 458.91918945 707.47583008 C457.82035431 707.4892897 456.72151917 707.50274933 455.58938599 707.51661682 C449.45562997 707.53534504 443.44216593 707.23171926 437.34634209 706.60007095 C423.14806933 705.13035719 409.04628915 705.0356914 394.78137589 705.07995439 C391.27157062 705.08891133 387.7617675 705.08697427 384.25195312 705.08659363 C378.38254519 705.08752089 372.51318996 705.09608627 366.64379883 705.10986328 C359.87357815 705.12569667 353.10341447 705.13085683 346.33317661 705.13012773 C339.07453931 705.1294519 331.81592368 705.13638055 324.55729294 705.14557433 C322.48099433 705.1476978 320.40469925 705.14841435 318.32839966 705.14881325 C314.46671549 705.15000689 310.60507831 705.15972654 306.7434082 705.17041016 C305.60264832 705.16995697 304.46188843 705.16950378 303.28656006 705.16903687 C302.23309387 705.17330185 301.17962769 705.17756683 300.09423828 705.18196106 C299.18442703 705.1836369 298.27461578 705.18531275 297.3372345 705.18703938 C294.63856108 705.25755608 294.63856108 705.25755608 291.93132973 705.81498337 C287.5746477 706.48207225 283.31036377 706.46230521 278.90927124 706.46043396 C277.44420275 706.46572423 277.44420275 706.46572423 275.94953692 706.47112137 C272.67948788 706.48178852 269.409468 706.48548594 266.1394043 706.48925781 C263.7934863 706.49556473 261.4475695 706.50233068 259.10165405 706.50952148 C254.05002466 706.52418342 248.99839986 706.53591154 243.94675827 706.54546928 C236.62991574 706.55962524 229.3131039 706.58056733 221.99628599 706.60389782 C210.10715121 706.64179277 198.21801023 706.67675952 186.32885742 706.70849609 C185.61765061 706.71039659 184.9064438 706.71229708 184.17368527 706.71425516 C174.09105599 706.74106087 164.00842189 706.76494363 153.92578264 706.78764016 C152.86170114 706.79003611 152.86170114 706.79003611 151.77612305 706.79248047 C151.06760529 706.79407393 150.35908753 706.7956674 149.62909953 706.79730915 C137.79081652 706.82413083 125.9525699 706.85855284 114.11432612 706.89913422 C106.17458845 706.92602209 98.23488455 706.94379044 90.29510951 706.95517147 C85.34512967 706.96432433 80.39520352 706.98169903 75.44525528 707.0013504 C73.15724282 707.00879754 70.86921656 707.01290525 68.58119202 707.01334572 C53.7205264 706.94557438 53.7205264 706.94557438 39.01657104 708.86216831 C35.49282979 709.54068398 32.1469609 709.58231164 28.55712891 709.6027832 C27.83831543 709.60961624 27.11950195 709.61644928 26.37890625 709.62348938 C24.84530476 709.63689694 23.31166091 709.64606448 21.77800941 709.65119934 C19.34226769 709.65962229 16.90687761 709.68024226 14.47123718 709.70373535 C8.42991685 709.75960415 2.38851099 709.79528345 -3.6529541 709.83135986 C-8.781522 709.86275244 -13.90991432 709.90203457 -19.03833961 709.95161438 C-21.42285781 709.97148644 -23.80723512 709.97995844 -26.19181824 709.98791504 C-38.04047381 709.32557934 -38.04047381 709.32557934 -48.33862305 713.31567383 C-51.01298756 713.4162094 -53.66155116 713.45183368 -56.33642578 713.44506836 C-57.17572632 713.44682068 -58.01502686 713.448573 -58.87976074 713.45037842 C-61.67726669 713.45480649 -64.47471011 713.45185116 -67.2722168 713.44848633 C-69.22306836 713.44916017 -71.17391984 713.45013086 -73.12477112 713.4513855 C-77.2332539 713.45286462 -81.34171504 713.45070503 -85.45019531 713.44604492 C-90.66667933 713.44041135 -95.88311116 713.44358417 -101.09959316 713.44961739 C-105.14159012 713.4532723 -109.18357522 713.45206098 -113.22557259 713.44948959 C-115.14491851 713.44883051 -117.06426557 713.44961238 -118.98361015 713.45196915 C-128.45140466 713.46102483 -137.89458013 713.37652126 -147.35058594 712.86987305 C-148.08576919 712.83115145 -148.82095243 712.79242985 -149.57841396 712.75253487 C-153.2526668 712.53144769 -156.73965795 712.06067803 -160.33862305 711.31567383 C-161.68615226 711.26282262 -163.03634496 711.25605335 -164.38427734 711.29736328 C-165.14665207 711.31680496 -165.90902679 711.33624664 -166.69450378 711.35627747 C-167.9163311 711.39225288 -167.9163311 711.39225288 -169.1628418 711.42895508 C-170.93299583 711.46114723 -172.70318049 711.49168924 -174.47338867 711.52075195 C-177.22921363 711.56955985 -179.98336763 711.62683063 -182.73828125 711.71337891 C-198.06309528 712.17405582 -214.38172772 710.94204613 -226.39331055 700.22583008 C-227.03526367 699.59547852 -227.6772168 698.96512695 -228.33862305 698.31567383 C-229.48717773 697.26186523 -229.48717773 697.26186523 -230.65893555 696.18676758 C-240.43399364 686.91175371 -246.14542228 677.76460077 -246.54174805 664.12036133 C-246.80012923 644.93717343 -243.94459115 627.90796926 -231.08862305 612.87817383 C-223.28282067 604.91115006 -214.91936269 598.86545196 -204.33862305 595.31567383 C-193.13683294 591.25431654 -182.884294 585.41682948 -172.65112305 579.37817383 C-166.97916084 576.07812309 -161.17871943 573.46047372 -155.15112305 570.87817383 C-147.061207 567.36762596 -140.89749366 563.24941759 -134.33862305 557.31567383 C-132.1199531 555.50354511 -129.85866751 553.75028289 -127.58862305 552.00317383 C-126.04948242 550.80241211 -126.04948242 550.80241211 -124.47924805 549.57739258 C-122.18503201 547.92521461 -120.10858662 546.61432281 -117.64331055 545.30004883 C-114.3727677 543.33617677 -113.08494351 542.11096397 -111.21362305 538.87817383 C-108.94383803 535.16619297 -106.42012505 532.39717583 -103.33862305 529.31567383 C-101.6722579 524.64985143 -101.90749263 519.42518657 -101.61987305 514.53051758 C-101.33862305 511.31567383 -101.33862305 511.31567383 -100.33862305 508.31567383 C-99.83213658 502.13653898 -100.24154187 499.23217124 -104.33862305 494.31567383 C-114.60689783 482.21562138 -129.08167033 475.85594988 -142.95532227 468.82763672 C-150.38827861 465.00475422 -157.39435955 460.86816066 -164.27612305 456.12817383 C-181.23788982 444.44592967 -200.108513 431.878244 -221.26293945 431.24707031 C-224.16144635 431.08878674 -226.60222228 430.88044822 -228.95288086 429.07763672 C-231.59660369 426.12429291 -232.89509147 423.69890488 -232.83862305 419.75317383 C-233.0538653 416.17776082 -233.16203027 415.52660409 -235.58862305 412.62817383 C-236.94987305 411.48348633 -236.94987305 411.48348633 -238.33862305 410.31567383 C-243.21348354 405.3309131 -245.09798528 400.24505988 -247.27612305 393.69067383 C-250.44409108 384.57772952 -254.04699483 376.25914901 -258.7253418 367.81176758 C-262.92415889 359.90878855 -265.77699996 351.68240336 -268.72705078 343.24853516 C-271.7667333 334.65763006 -275.2308734 326.32121438 -278.97631836 318.015625 C-282.20762547 310.81892205 -284.73288553 303.67451657 -286.73706055 296.04614258 C-288.42215168 289.75491711 -290.66163457 283.71604042 -292.96362305 277.62817383 C-293.39876221 276.46495605 -293.83390137 275.30173828 -294.28222656 274.10327148 C-295.62926955 270.50547004 -296.98308538 266.91028241 -298.33862305 263.31567383 C-299.59577602 259.97637604 -300.85236892 256.6368709 -302.10766602 253.296875 C-302.86367364 251.2871205 -303.62167912 249.27811591 -304.38208008 247.27001953 C-310.38351128 231.35628513 -310.38351128 231.35628513 -310.77612305 225.87817383 C-311.14683492 221.3823064 -312.60039469 217.68861431 -314.40112305 213.57739258 C-316.22231025 209.18377844 -316.46953085 205.31820102 -316.65112305 200.56567383 C-316.99064904 195.28111598 -317.71029979 191.57297835 -320.35424805 187.02270508 C-323.0205839 182.39894013 -323.41951253 177.58719787 -323.71362305 172.37817383 C-323.96791998 168.48695088 -324.31804549 165.8620527 -326.40112305 162.56567383 C-330.0272397 156.08950978 -329.56663555 147.25622925 -327.81274414 140.19995117 C-326.52584911 136.05887573 -324.8997908 132.08652815 -323.13793945 128.12719727 C-322.39763252 126.44940941 -321.71505993 124.74646695 -321.0378418 123.04223633 C-317.14794195 113.58990641 -311.34384686 109.93213363 -302.33862305 105.75317383 C-301.49920166 105.35678711 -300.65978027 104.96040039 -299.79492188 104.55200195 C-294.91574133 102.30887159 -290.23670235 100.59618992 -285.02612305 99.31567383 C-278.9572818 97.78790289 -274.72807435 95.1917164 -269.6730957 91.67651367 C-264.33806412 88.06844603 -258.96326513 86.19342504 -252.8112793 84.38598633 C-247.81997131 82.84760794 -243.5125982 81.38292397 -239.58862305 77.81567383 C-233.25548361 72.32585061 -224.35106408 72.04949591 -216.33862305 71.50317383 C-215.2252356 71.42341309 -215.2252356 71.42341309 -214.08935547 71.34204102 C-210.23113407 71.14529698 -208.63967241 71.11497425 -205.33862305 73.31567383 C-203.62026858 73.66545196 -201.88820019 73.95057008 -200.15112305 74.19067383 C-191.26394039 75.72456174 -184.96158444 79.1916843 -179.33862305 86.31567383 C-173.93085277 95.43702913 -170.41901773 105.5264788 -166.75195312 115.43188477 C-165.78194447 118.04996166 -164.80037777 120.66347851 -163.81713867 123.27661133 C-154.20255515 148.96828311 -154.20255515 148.96828311 -151.83862305 162.06567383 C-150.7703316 167.84415939 -149.1287198 172.836623 -146.61987305 178.14379883 C-145.50100939 180.91366861 -144.70597093 183.53580188 -143.94799805 186.41723633 C-137.12350048 212.17365227 -124.60560974 251.04868714 -105.33862305 270.31567383 C-102.99601662 270.05538422 -100.66137481 269.71614827 -98.33862305 269.31567383 C-97.01862305 269.31567383 -95.69862305 269.31567383 -94.33862305 269.31567383 C-88.66371059 260.80330514 -87.61405402 249.77849235 -86.05224609 239.87255859 C-84.60706605 230.7432505 -82.94660645 221.66365942 -81.24563599 212.57943726 C-77.50819277 192.5692367 -74.40632836 172.82931451 -72.71640015 152.53482056 C-70.7145554 128.65978609 -67.14412842 105.41267557 -60.1706543 82.46411133 C-58.68352462 76.83675677 -58.25313765 71.33952089 -58.09887695 65.55297852 C-57.82974408 56.12068416 -56.88553406 46.89343661 -55.46362305 37.56567383 C-55.3020874 36.48374756 -55.14055176 35.40182129 -54.97412109 34.28710938 C-54.493161 31.27964889 -53.94681631 28.29984792 -53.33862305 25.31567383 C-53.08097168 24.03466797 -53.08097168 24.03466797 -52.81811523 22.7277832 C-51.7027755 18.41940545 -50.52488157 16.00377564 -46.7409668 13.54614258 C-45.28926184 12.77236427 -43.82063749 12.02968596 -42.33862305 11.31567383 C-41.58468262 10.92331543 -40.83074219 10.53095703 -40.05395508 10.12670898 C-37.68945212 8.91456149 -35.30228556 7.7657706 -32.90112305 6.62817383 C-32.10641602 6.23823242 -31.31170898 5.84829102 -30.49291992 5.4465332 C-20.38180425 0.63367505 -11.06563086 -0.03303904 0 0 Z M-1.28540039 17.46826172 C-3.060047 17.49139522 -4.83482999 17.50582652 -6.60961914 17.51123047 C-9.17898863 17.52058322 -11.74626014 17.56169294 -14.31518555 17.60864258 C-15.49064438 17.60274361 -15.49064438 17.60274361 -16.68984985 17.59672546 C-22.77637722 17.7553478 -26.46893517 19.7853195 -31.33862305 23.31567383 C-32.13010742 23.7874707 -32.9215918 24.25926758 -33.73706055 24.74536133 C-40.90568304 31.77410826 -40.25804945 53.85526346 -40.57568359 63.64916992 C-41.11300004 79.08006364 -44.67653887 94.15731782 -48.52612305 109.06567383 C-51.13925541 119.19156175 -52.46775941 129.20615442 -53.0925293 139.63598633 C-53.33862305 142.31567383 -53.33862305 142.31567383 -54.33862305 145.31567383 C-54.43274228 147.26498771 -54.52185891 149.21475387 -54.578125 151.16552734 C-55.05771051 166.93410628 -58.0667046 182.23821534 -61.76757812 197.53442383 C-63.01230083 203.02637886 -63.8219334 208.54273476 -64.5612793 214.12036133 C-64.72006813 215.312369 -64.72006813 215.312369 -64.88206482 216.52845764 C-65.41477393 220.56273527 -65.92648704 224.59852118 -66.41259766 228.63867188 C-67.29782084 235.70511745 -68.20642923 242.10407815 -71.5090332 248.51806641 C-72.78546835 251.28392632 -72.77242608 253.86514667 -72.77612305 256.87817383 C-73.03563432 262.55652769 -73.98580452 267.54182857 -75.65112305 272.94067383 C-75.85213623 273.61557861 -76.05314941 274.2904834 -76.26025391 274.98583984 C-77.57623907 279.02571513 -78.95919245 281.70850799 -82.33862305 284.31567383 C-90.5716974 288.05544319 -101.37321965 289.06666993 -110.0534668 286.51879883 C-112.25541782 285.5662077 -114.27749812 284.54087533 -116.33862305 283.31567383 C-117.16362305 282.90704102 -117.98862305 282.4984082 -118.83862305 282.07739258 C-122.07693624 279.79539375 -123.37280956 277.40478222 -125.27612305 273.94067383 C-125.6211084 273.31636475 -125.96609375 272.69205566 -126.3215332 272.04882812 C-129.011512 267.10887866 -131.36357766 262.041355 -133.6472168 256.90161133 C-134.92369745 254.19535442 -136.24811461 251.59800677 -137.6862793 248.97973633 C-142.62668302 239.98191874 -146.67817813 231.20308189 -149.86352539 221.43530273 C-151.48470394 216.52771852 -153.36531701 212.15718985 -155.90112305 207.62817383 C-162.07278638 195.93815387 -164.37878028 182.01017602 -166.2722168 169.02661133 C-167.09375151 163.93965511 -168.56024204 160.01913322 -171.08862305 155.56567383 C-177.74647764 142.94371157 -181.85820128 130.62792196 -184.42724609 116.55957031 C-186.10202085 107.8844944 -188.89059851 99.61251142 -195.83862305 93.75317383 C-196.57081055 93.11250977 -197.30299805 92.4718457 -198.05737305 91.81176758 C-204.40927279 87.6460525 -214.11775333 88.27429723 -221.34350586 89.71557617 C-238.64679064 94.1223897 -255.06130416 103.2214544 -270.58862305 111.81567383 C-276.04809035 114.80083915 -281.34680483 116.71575443 -287.32299805 118.39379883 C-294.36752069 120.54730575 -300.1473474 123.08937798 -304.33862305 129.31567383 C-305.35300186 131.83111456 -306.23209922 134.23701125 -307.02612305 136.81567383 C-307.23817383 137.46665039 -307.45022461 138.11762695 -307.66870117 138.78833008 C-312.34572447 153.39480661 -310.09036276 164.83156399 -304.90112305 178.75317383 C-301.45253138 188.04458871 -298.73411421 196.2260661 -298.58764648 206.2800293 C-298.22904056 210.65150589 -296.48435444 214.02310386 -294.6472168 217.95239258 C-293.06138554 222.0282156 -292.35126443 226.02434773 -291.58862305 230.31567383 C-290.09489185 238.3481675 -287.40830876 245.157524 -283.89160156 252.50366211 C-280.92802284 258.77417928 -278.62398052 265.08351541 -276.52612305 271.69067383 C-273.60368186 280.84696604 -270.23920753 289.73888928 -266.58862305 298.62817383 C-261.98847845 309.83087461 -257.92975676 321.14423639 -254.08862305 332.62817383 C-247.21321176 353.21945932 -247.21321176 353.21945932 -236.40112305 371.94067383 C-232.46401214 377.51118495 -230.22167619 383.38210235 -227.83862305 389.75317383 C-226.35759651 393.61494199 -224.85811666 397.46888139 -223.33862305 401.31567383 C-223.05148437 402.05221191 -222.7643457 402.78875 -222.46850586 403.54760742 C-220.42387278 408.5161398 -218.32533921 412.95933377 -213.23120117 415.27270508 C-209.14568729 416.67099126 -205.04103683 417.60179744 -200.79956055 418.38598633 C-195.16636828 419.43575217 -190.86093401 421.81814887 -186.27612305 425.19067383 C-182.70218469 427.63694216 -179.30228676 429.15094601 -175.21362305 430.56567383 C-169.06974246 432.77833012 -164.23115865 435.88338474 -158.92822266 439.58764648 C-154.03078509 442.96766577 -149.0270726 445.45639747 -143.5690918 447.84301758 C-127.08665225 455.3567778 -111.56320523 466.19422502 -97.33862305 477.31567383 C-96.7147168 477.77329102 -96.09081055 478.2309082 -95.44799805 478.70239258 C-87.71310343 484.58169379 -84.62738752 492.9446577 -83.33862305 502.31567383 C-82.45456839 514.23119307 -81.70479378 529.51662063 -88.33862305 540.00317383 C-88.99862305 540.76629883 -89.65862305 541.52942383 -90.33862305 542.31567383 C-90.81299805 542.87254883 -91.28737305 543.42942383 -91.77612305 544.00317383 C-93.33862305 545.31567383 -93.33862305 545.31567383 -95.61206055 546.54223633 C-98.80161439 548.61681719 -101.06890512 551.14904126 -103.52612305 554.00317383 C-108.3749625 559.44140651 -113.47797416 563.96558656 -119.33862305 568.31567383 C-120.47238206 569.19857431 -121.60513019 570.08277387 -122.73706055 570.96801758 C-130.83771028 577.21157151 -139.07796888 582.04921395 -148.33129883 586.37280273 C-151.64900456 587.9311802 -154.93263983 589.5566744 -158.21362305 591.19067383 C-158.86766113 591.51575928 -159.52169922 591.84084473 -160.19555664 592.17578125 C-167.65319677 595.91912094 -174.90174707 600.03490329 -182.1809082 604.1105957 C-190.24065433 608.61194294 -198.2054625 612.92622872 -206.77612305 616.37817383 C-215.39566165 620.02639841 -220.44196569 623.59847152 -224.21362305 632.31567383 C-226.77990113 639.23945766 -228.78004787 645.92429538 -229.33862305 653.31567383 C-229.40436523 654.16258789 -229.47010742 655.00950195 -229.5378418 655.88208008 C-229.97725294 666.5340123 -226.53281065 675.46903007 -219.33862305 683.31567383 C-207.50339661 695.31119678 -188.29428462 693.98562617 -172.46362305 694.94067383 C-171.39224091 695.00637573 -170.32085876 695.07207764 -169.2170105 695.13977051 C-148.27738653 696.38136721 -127.37015337 696.59000106 -106.40112305 696.56567383 C-105.64761818 696.56527351 -104.89411331 696.5648732 -104.11777496 696.56446075 C-93.8565718 696.55805454 -83.59849839 696.48670455 -73.33862305 696.31567383 C-72.34465515 696.30028564 -71.35068726 696.28489746 -70.32659912 696.26904297 C-62.03072186 696.10739748 -54.10549683 695.56222291 -45.97689819 693.84925842 C-29.93167508 690.47036005 -13.87385615 690.67587106 2.44647217 690.63574219 C8.8246586 690.61564882 15.20266392 690.55909781 21.58065224 690.50697899 C23.79151202 690.49171626 26.00227759 690.48446773 28.21318054 690.47883606 C29.5568344 690.47182598 30.9004878 690.46472556 32.24414062 690.45751953 C33.41466476 690.45404007 34.5851889 690.45056061 35.79118347 690.44697571 C38.73358055 690.44301907 38.73358055 690.44301907 41.66137695 689.31567383 C43.00569993 689.22849033 44.35396661 689.1954462 45.70111084 689.19821262 C46.93824215 689.19707615 46.93824215 689.19707615 48.20036602 689.19591671 C49.10627892 689.20019379 50.01219183 689.20447087 50.94555664 689.20887756 C51.9081606 689.20943427 52.87076456 689.20999098 53.86253834 689.21056455 C57.1028014 689.21361154 60.34300371 689.22380215 63.58325195 689.23388672 C65.90079178 689.23744143 68.21833237 689.2405278 70.53587341 689.24317932 C75.5351857 689.24974091 80.53448025 689.25930753 85.53378296 689.2710743 C92.77393326 689.28779535 100.01407742 689.2976046 107.25424278 689.30495303 C119.01642383 689.31690598 130.77859852 689.33185482 142.54077148 689.35009766 C143.24496527 689.35118778 143.94915905 689.3522779 144.67469203 689.35340106 C154.65394758 689.36899008 164.63319528 689.38757994 174.61244321 689.40739893 C175.31421146 689.40879225 176.01597971 689.41018556 176.73901367 689.41162109 C177.79037919 689.41371139 177.79037919 689.41371139 178.86298442 689.41584391 C190.57118626 689.43891998 202.27938306 689.4542102 213.98760414 689.46318048 C221.84486518 689.469714 229.70204034 689.48525472 237.55927181 689.50749791 C242.4578273 689.51925801 247.35636211 689.5225971 252.2549305 689.52359581 C254.52079938 689.52573703 256.78666812 689.53130707 259.05251884 689.54062653 C262.15552719 689.55289106 265.25830253 689.5526465 268.36132812 689.54945374 C269.24939526 689.55596154 270.13746239 689.56246934 271.05244064 689.56917435 C276.60276979 689.54708505 281.79192762 688.88724772 287.23245728 687.78481412 C301.32823136 685.06224753 316.63290883 686.15243455 330.91918945 686.14770508 C333.23875955 686.14448102 335.55832946 686.14111615 337.87789917 686.13761902 C342.71718822 686.13166888 347.55645951 686.12977485 352.39575195 686.13037109 C358.53053564 686.13047247 364.66520297 686.11682636 370.79995918 686.09959888 C375.58587138 686.08836184 380.37175648 686.08645544 385.15768051 686.08698082 C387.41620153 686.08581801 389.67472366 686.08149466 391.93323135 686.07364845 C405.24958517 686.03171267 418.32868916 686.57969472 431.5838623 687.85624695 C437.74912674 688.44104376 443.88830421 688.62684938 450.0793457 688.65942383 C451.75242546 688.68135803 451.75242546 688.68135803 453.45930481 688.70373535 C458.09792941 688.76447127 462.73665969 688.80566426 467.37548828 688.84741211 C470.81857346 688.88137655 474.26139753 688.92635657 477.7043457 688.97192383 C478.72956833 688.97720093 479.75479095 688.98247803 480.81108093 688.98791504 C486.97226815 689.07174029 492.76505034 689.75971233 498.82460022 690.85800171 C502.9145763 691.51785907 506.939656 691.64897144 511.07543945 691.69458008 C511.89716644 691.71157455 512.71889343 691.72856903 513.56552124 691.74607849 C516.13906586 691.79835664 518.71259975 691.8391772 521.28637695 691.87817383 C523.89579032 691.92220136 526.50508597 691.96879806 529.11434937 692.02098083 C530.72576834 692.05280159 532.33729305 692.07973349 533.94888306 692.10121155 C539.43758082 692.20377576 539.43758082 692.20377576 541.66137695 693.31567383 C543.21255732 693.38737558 544.76695082 693.39451894 546.31958008 693.36914062 C547.77249451 693.34867928 547.77249451 693.34867928 549.25476074 693.32780457 C550.30675659 693.30704361 551.35875244 693.28628265 552.44262695 693.26489258 C553.52588257 693.24602493 554.60913818 693.22715729 555.72521973 693.2077179 C558.02527884 693.16576283 560.32528848 693.12101838 562.62524414 693.07373047 C566.11896071 693.00402016 569.61269376 692.94937268 573.10668945 692.89575195 C575.3436865 692.85305895 577.5806666 692.80946699 579.81762695 692.76489258 C581.37132996 692.74286018 581.37132996 692.74286018 582.9564209 692.72038269 C592.97705092 692.48749474 601.62378698 690.77090568 610.72387695 686.56567383 C611.504646 686.21005371 612.28541504 685.85443359 613.08984375 685.48803711 C625.97010624 679.50065927 633.16092062 673.3360105 638.4152832 659.92114258 C640.10937009 655.01944291 641.33421067 650.51559859 640.66137695 645.31567383 C639.57812067 643.14916126 638.30853918 641.34522347 636.85668945 639.40942383 C635.35907707 636.78615508 635.28514962 634.81922398 635.16137695 631.81567383 C634.88183744 626.37598592 633.5591541 622.24122611 629.66137695 618.31567383 C628.24634888 617.70067017 628.24634888 617.70067017 626.80273438 617.07324219 C623.08728309 614.99447217 621.88194984 613.19430238 619.75512695 609.53833008 C619.2529364 608.68332664 619.2529364 608.68332664 618.74060059 607.81105042 C614.60327978 600.66863683 610.92133484 593.27817642 607.23413086 585.89697266 C598.6565629 568.77567775 589.71388945 557.79291016 574.02758789 546.86743164 C564.14287509 539.9285805 555.3979214 532.51646574 549.72387695 521.69067383 C547.89989642 518.7059784 547.00316254 517.65088139 544.3762207 515.64770508 C540.24749888 512.18976048 537.80908094 508.27149335 535.16137695 503.62817383 C534.6621875 502.77674805 534.16299805 501.92532227 533.64868164 501.0480957 C530.64048266 495.87804119 527.72866881 490.65496758 524.83325195 485.42114258 C524.50744141 484.83254959 524.18163086 484.2439566 523.84594727 483.63752747 C522.24957751 480.74980649 520.66285622 477.85768847 519.08911133 474.95751953 C514.02285376 465.69637301 508.62764738 456.69917108 501.78637695 448.62817383 C496.6916243 442.4067929 492.90216575 435.45503401 488.92700195 428.49389648 C487.69519216 426.37387199 486.42385269 424.28511021 485.13012695 422.20239258 C478.68547861 411.82070611 474.83359542 403.0267758 474.4855957 390.61645508 C474.46174805 389.79983398 474.43790039 388.98321289 474.41333008 388.1418457 C474.37006765 386.45461093 474.33897867 384.76702355 474.31958008 383.0793457 C474.2057868 378.06718305 474.2057868 378.06718305 471.6809082 373.85864258 C471.01446289 373.34946289 470.34801758 372.8402832 469.66137695 372.31567383 C468.20595077 369.40482145 468.34305871 367.57375464 468.66137695 364.31567383 C469.835762 361.36958073 471.37951609 358.67787681 472.97387695 355.94067383 C473.4224707 355.1555542 473.87106445 354.37043457 474.33325195 353.56152344 C480.16603157 343.51270245 486.33778732 333.59843521 494.41137695 325.19067383 C499.35657904 320.00097212 503.24060692 314.26545561 507.22387695 308.31567383 C513.62136943 298.75994569 520.28220064 290.00819468 528.03637695 281.50317383 C533.59812472 275.3737044 538.65902683 268.90343332 543.66137695 262.31567383 C544.21470703 261.5921875 544.76803711 260.86870117 545.33813477 260.12329102 C554.42203608 248.27280097 554.42203608 248.27280097 560.6340332 234.79614258 C562.5339609 230.20886468 565.73254776 227.08137296 569.53637695 224.00317383 C572.35343656 221.61231143 574.54691294 219.28043925 576.66137695 216.25317383 C579.23995431 212.60953191 582.07828468 210.3577268 585.71606445 207.81958008 C588.31292504 205.81196698 590.18978123 203.43360435 592.2355957 200.88598633 C593.66137695 199.31567383 593.66137695 199.31567383 596.59887695 197.56567383 C600.62804077 194.60547184 602.61121984 191.03508195 605.14575195 186.77661133 C606.66137695 184.31567383 606.66137695 184.31567383 608.66137695 182.31567383 C608.48526539 175.26142741 605.35754356 168.84979289 602.78637695 162.37817383 C601.46554301 159.0075731 600.14520136 155.63678368 598.82641602 152.26538086 C598.13526003 150.51547586 597.43309962 148.76974755 596.70727539 147.03393555 C595.3108881 143.60744208 594.53136193 140.59351504 594.29418945 136.93286133 C593.81034488 131.36269003 591.27832194 127.22044715 588.53637695 122.44067383 C584.81768066 115.6815265 581.59832648 109.05365251 579.09887695 101.75317383 C571.97550549 81.18198259 561.13017283 63.49196735 546.66137695 47.31567383 C546.08129883 46.5396582 545.5012207 45.76364258 544.90356445 44.96411133 C541.35159935 42.35273629 537.82380528 42.80759855 533.53637695 42.94067383 C532.68124512 42.95428955 531.82611328 42.96790527 530.94506836 42.98193359 C524.98315175 43.13118013 519.4527112 43.90783567 513.66137695 45.31567383 C508.92662134 46.1278103 504.73394898 46.41503261 499.97387695 45.69067383 C495.5945263 45.09622589 493.59296096 46.234247 489.66137695 48.31567383 C480.82562293 50.38593859 471.75455111 50.86229379 462.72387695 51.37817383 C461.32997787 51.46396803 459.93609794 51.5500739 458.54223633 51.63647461 C451.49838988 52.06026008 444.46266929 52.37638599 437.4074707 52.52270508 C435.45151978 52.56802368 435.45151978 52.56802368 433.45605469 52.61425781 C430.98841051 52.66395045 428.52035352 52.6969258 426.05224609 52.71044922 C418.25173425 52.86265159 412.68958182 53.90234172 406.6652832 59.00708008 C402.83508309 63.97907426 400.07063143 69.29040258 397.4074707 74.94067383 C397.01470947 75.77337296 396.62194824 76.60607208 396.21728516 77.46400452 C392.07112859 86.3907529 388.56131337 95.52161492 385.16137695 104.75317383 C384.84121613 105.61497253 384.5210553 106.47677124 384.19119263 107.36468506 C376.83495152 127.17512331 370.21902924 147.10939799 364.83154297 167.55273438 C363.17487773 173.72789205 361.23417457 179.74941969 359.03637695 185.75317383 C358.75906738 186.51637939 358.48175781 187.27958496 358.19604492 188.06591797 C356.89813901 191.50609954 355.5084981 194.69595074 353.61450195 197.85083008 C351.49064496 201.61855239 350.27664148 205.20088645 349.03637695 209.31567383 C343.95860592 225.22457735 336.95138463 240.35218309 328.99267578 255.01098633 C326.90724534 258.86535687 325.05360284 262.60621768 323.59887695 266.75317383 C317.49154257 282.7642937 300.81454893 297.18382813 286.9387207 306.57348633 C283.81116152 308.96609593 281.74464216 311.80274667 279.44262695 314.96801758 C273.67855904 322.56495797 266.57275719 328.41381347 258.74707031 333.74121094 C255.76559677 335.77319255 252.96072968 337.86809058 250.2434082 340.24536133 C237.08182221 351.73821686 221.70402888 361.02597102 206.03637695 368.62817383 C205.17753906 369.04921387 204.31870117 369.47025391 203.43383789 369.90405273 C185.26469205 378.50374567 165.30927126 378.68981686 145.5378418 378.6862793 C142.73859901 378.69075014 139.94082188 378.72754703 137.1418457 378.76489258 C135.33846556 378.77074635 133.53507811 378.77472535 131.73168945 378.77661133 C130.90669952 378.79098236 130.08170959 378.80535339 129.23171997 378.82015991 C123.86557299 378.77760185 120.99437482 377.74239687 116.66137695 374.31567383 C115.29849658 373.70456021 113.9247141 373.11651205 112.53637695 372.56567383 C108.56195562 370.643057 107.11366877 368.38519303 105.3527832 364.41333008 C100.08339655 348.42654684 103.2063211 327.20229261 108.98168945 311.72192383 C109.90787485 308.44301461 110.2339708 305.12985759 110.59887695 301.75317383 C112.08300799 288.59398095 115.72271405 276.86702355 120.58203125 264.6171875 C126.70949449 248.84222895 135.90023359 224.65773719 128.91137695 208.06567383 C125.94907777 202.87116053 121.62862894 199.90642429 116.7902832 196.53442383 C112.05335881 193.17540628 107.88156362 189.2918361 103.66137695 185.31567383 C102.9859082 184.7046582 102.31043945 184.09364258 101.61450195 183.46411133 C96.89393328 179.02677678 93.25069129 174.04704931 89.58764648 168.73754883 C86.67310238 164.57169379 83.532517 160.81565095 80.03637695 157.12817383 C73.03054517 149.69536666 67.22820858 142.53488778 63.78637695 132.85473633 C61.97907613 128.77575878 59.23475969 125.44389986 56.54418945 121.90942383 C54.52209425 119.12379891 53.07351607 116.35877549 51.6418457 113.24536133 C50.55400973 111.10436145 49.25027473 109.26512481 47.84887695 107.31567383 C45.02275054 103.18407786 42.96915333 98.88723066 40.97387695 94.31567383 C40.68859131 93.6634082 40.40330566 93.01114258 40.109375 92.33911133 C39.25970098 90.34303594 38.45090289 88.33627628 37.66137695 86.31567383 C37.23659058 85.23829956 37.23659058 85.23829956 36.80322266 84.13916016 C34.79659902 78.6643276 34.27691306 73.80258299 34.22387695 68.00317383 C34.02298252 61.2030621 33.1403582 55.67821053 30.63793945 49.29614258 C29.07500823 44.52607648 28.71665806 39.63671132 28.2512207 34.66333008 C27.42162665 29.95497175 25.87918125 27.28991727 22.16137695 24.31567383 C19.522752 22.20477386 18.34386372 20.19993687 16.66137695 17.31567383 C10.67821161 17.31567383 4.6969516 17.37525183 -1.28540039 17.46826172 Z " fill="#E3181E" transform="translate(509.338623046875,115.684326171875)"/>
<path d="M0 0 C3.75212276 2.01502889 5.63644095 3.45466142 8 7 C8.30078125 9.9609375 8.30078125 9.9609375 8.3125 13.375 C8.32925781 14.49648438 8.34601562 15.61796875 8.36328125 16.7734375 C7.96292847 20.32925895 7.13849012 22.16044826 5 25 C0.94184834 27.61525329 -2.19144587 28.70124748 -7 28 C-11.85349893 25.52566721 -14.27243952 23.18268145 -16 18 C-16.71773476 13.61384315 -17.03944397 9.76101516 -14.72265625 5.8359375 C-10.38429184 0.680815 -6.88406383 -0.94687867 0 0 Z " fill="#A8A8A8" transform="translate(576,955)"/>
<path d="M0 0 C2.0625 1.5625 2.0625 1.5625 3.0625 2.5625 C3.20709705 4.0140606 3.28947111 5.47195286 3.34375 6.9296875 C3.38113281 7.81527344 3.41851563 8.70085938 3.45703125 9.61328125 C3.50923828 11.01126953 3.50923828 11.01126953 3.5625 12.4375 C3.63144539 14.26838303 3.70420176 16.09912756 3.78125 17.9296875 C3.81154297 18.74550293 3.84183594 19.56131836 3.87304688 20.40185547 C3.9942238 22.74459314 3.9942238 22.74459314 5.0625 25.5625 C2.01863276 25.64476668 -0.00925348 25.53858217 -2.9375 24.5625 C-3.5975 24.8925 -4.2575 25.2225 -4.9375 25.5625 C-6.74593663 25.70966542 -8.56081566 25.7835887 -10.375 25.8125 C-11.82712891 25.85117187 -11.82712891 25.85117187 -13.30859375 25.890625 C-15.9375 25.5625 -15.9375 25.5625 -17.75390625 24.29296875 C-19.44722006 21.81726573 -19.47900167 19.43280031 -19.328125 16.49609375 C-18.9375 14.5625 -18.9375 14.5625 -17.1875 12.1875 C-12.32829376 9.75789688 -7.29317596 9.21167284 -1.9375 8.5625 C-1.9375 7.2425 -1.9375 5.9225 -1.9375 4.5625 C-4.34295638 3.35977181 -5.88746953 3.46178528 -8.5625 3.5 C-9.37976563 3.50902344 -10.19703125 3.51804687 -11.0390625 3.52734375 C-11.66554688 3.53894531 -12.29203125 3.55054688 -12.9375 3.5625 C-13.2675 4.8825 -13.5975 6.2025 -13.9375 7.5625 C-15.5875 7.5625 -17.2375 7.5625 -18.9375 7.5625 C-18.09111611 3.75377251 -17.54050851 1.99322036 -14.3125 -0.3125 C-9.19384133 -2.01871956 -5.01619851 -2.45473544 0 0 Z " fill="#AAAAAA" transform="translate(632.9375,956.4375)"/>
<path d="M0 0 C3.92779624 1.99960536 6.77167243 4.16232474 9 8 C9 8.99 9 9.98 9 11 C7.35 11 5.7 11 4 11 C3.7525 10.195625 3.505 9.39125 3.25 8.5625 C2.29128946 5.92559077 2.29128946 5.92559077 0.3125 5.1875 C-0.450625 5.125625 -1.21375 5.06375 -2 5 C-3.134375 4.896875 -4.26875 4.79375 -5.4375 4.6875 C-9.65639083 5.05757814 -11.08113077 5.9977345 -14 9 C-16.72840661 13.49328501 -16.51820497 17.88861462 -16 23 C-14.89649053 27.13438138 -13.65823905 29.56117397 -10 32 C-6.93421943 32.5454104 -4.0670768 32.53808365 -1 32 C2.28175318 29.47031526 3.69243777 27.92268669 5 24 C6.65 24.33 8.3 24.66 10 25 C9.4938686 29.42864971 8.15110054 31.84889946 5 35 C-0.43103049 37.97169593 -4.98020314 39.08373108 -11.04296875 37.44921875 C-16.465207 35.30270417 -18.85920856 32.06325386 -21.15234375 26.78515625 C-23.02903971 20.61886954 -23.00696966 14.60575272 -20.5 8.625 C-15.99105414 0.96294515 -8.54583267 -1.56029441 0 0 Z " fill="#A7A7A7" transform="translate(701,945)"/>
<path d="M0 0 C2.9375 1.1875 2.9375 1.1875 5 3 C5.8125 5.6875 5.8125 5.6875 6 8 C4.68 8 3.36 8 2 8 C1.34 7.01 0.68 6.02 0 5 C-3.58357241 4.74984127 -3.58357241 4.74984127 -7 5 C-7.33 6.32 -7.66 7.64 -8 9 C-7.18015625 9.24234375 -6.3603125 9.4846875 -5.515625 9.734375 C-4.43796875 10.06953125 -3.3603125 10.4046875 -2.25 10.75 C-1.18265625 11.07484375 -0.1153125 11.3996875 0.984375 11.734375 C4.17641818 13.07404079 5.86944638 14.29026676 8 17 C8 20.69824116 7.45783554 22.43533617 5.125 25.3125 C1.28051164 28.36547605 -2.23089756 28.40416122 -7 28 C-10.375 26.3125 -10.375 26.3125 -13 24 C-13.875 21.25 -13.875 21.25 -14 19 C-12.35 19 -10.7 19 -9 19 C-8.67 19.99 -8.34 20.98 -8 22 C-5.26094655 23.36952673 -3.02912668 23.12621361 0 23 C0.66 22.67 1.32 22.34 2 22 C2 20.68 2 19.36 2 18 C0.75283203 17.61908203 0.75283203 17.61908203 -0.51953125 17.23046875 C-1.60621094 16.88628906 -2.69289063 16.54210937 -3.8125 16.1875 C-5.43091797 15.68283203 -5.43091797 15.68283203 -7.08203125 15.16796875 C-9.85385262 14.05849808 -11.26722758 13.38921522 -13 11 C-13.5 7.5625 -13.5 7.5625 -13 4 C-9.35190683 -0.44611355 -5.40188849 -0.89485829 0 0 Z " fill="#A6A6A6" transform="translate(602,955)"/>
<path d="M0 0 C1.32 0 2.64 0 4 0 C4.01981934 0.55985596 4.03963867 1.11971191 4.06005859 1.6965332 C4.15537783 4.23565854 4.26502753 6.77396888 4.375 9.3125 C4.4059375 10.19357422 4.436875 11.07464844 4.46875 11.98242188 C4.50742187 12.82998047 4.54609375 13.67753906 4.5859375 14.55078125 C4.6173584 15.33106689 4.6487793 16.11135254 4.68115234 16.9152832 C4.89587889 19.30155768 4.89587889 19.30155768 7 22 C10.43230448 21.73606499 10.43230448 21.73606499 14 21 C16.0140956 17.9788566 16.26836596 17.19339983 16.4140625 13.76953125 C16.45273437 12.96708984 16.49140625 12.16464844 16.53125 11.33789062 C16.57765625 10.08782227 16.57765625 10.08782227 16.625 8.8125 C16.66367187 7.96751953 16.70234375 7.12253906 16.7421875 6.25195312 C16.83636279 4.16832476 16.91926675 2.08419247 17 0 C18.32 0 19.64 0 21 0 C21 8.58 21 17.16 21 26 C19.68 26 18.36 26 17 26 C16.67 25.34 16.34 24.68 16 24 C15.319375 24.515625 14.63875 25.03125 13.9375 25.5625 C10.09474677 27.44299626 8.08867758 27.11509388 4 26 C1.80078125 24.64453125 1.80078125 24.64453125 0 22 C-0.49839351 18.23995336 -0.37486298 14.53430881 -0.25 10.75 C-0.23195313 9.71875 -0.21390625 8.6875 -0.1953125 7.625 C-0.14822712 5.08238936 -0.0824805 2.54166838 0 0 Z " fill="#B0B0B0" transform="translate(770,956)"/>
<path d="M0 0 C2.63877763 1.40289443 3.92992249 2.72291474 6 5 C6 6.32 6 7.64 6 9 C4.68 9 3.36 9 2 9 C1.319375 8.01 1.319375 8.01 0.625 7 C-0.89599894 4.67719799 -0.89599894 4.67719799 -4 4.5 C-6.98613777 4.75632368 -6.98613777 4.75632368 -8.875 6.4375 C-11.01450223 11.31081064 -10.68827538 16.12636146 -8.875 21.0625 C-7.08474591 23.27536511 -7.08474591 23.27536511 -4 23.625 C-3.01 23.41875 -2.02 23.2125 -1 23 C0.03013277 21.35178756 1.03114628 19.68496298 2 18 C4.6875 17.6875 4.6875 17.6875 7 18 C6.10732939 21.92775068 5.33981284 23.70652528 2.25 26.375 C-1.34334126 28.17167063 -3.05397137 28.65767144 -7 28 C-11.84973524 25.52758595 -14.24513429 23.16710458 -16 18 C-16.69609825 13.2132503 -16.49794885 9.96032992 -14.25 5.625 C-10.03181108 0.70377959 -6.70901445 -1.38807195 0 0 Z " fill="#A5A5A5" transform="translate(759,955)"/>
<path d="M0 0 C2.875 2 2.875 2 5 5 C5.71621062 10.6401586 5.10655925 14.10119502 2 19 C-0.87470493 20.43735246 -2.81894588 20.38172649 -6 20 C-8.93339092 17.76135956 -9.85474685 16.00195031 -10.3828125 12.359375 C-10.55439948 8.08113974 -10.6196223 5.02475995 -8.375 1.3125 C-5.22091596 -0.43054644 -3.55483933 -0.65292967 0 0 Z " fill="#050505" transform="translate(575,959)"/>
<path d="M0 0 C1.32 0 2.64 0 4 0 C4 10.56 4 21.12 4 32 C9.94 32 15.88 32 22 32 C22 33.32 22 34.64 22 36 C14.74 36 7.48 36 0 36 C0 24.12 0 12.24 0 0 Z " fill="#B4B4B4" transform="translate(534,946)"/>
<path d="M0 0 C0 2.97 0 5.94 0 9 C1.32 9 2.64 9 4 9 C4 9.99 4 10.98 4 12 C2.68 12 1.36 12 0 12 C0 18.27 0 24.54 0 31 C1.32 31 2.64 31 4 31 C4 32.32 4 33.64 4 35 C0.625 35.1875 0.625 35.1875 -3 35 C-5.13604308 31.79593538 -5.24208908 31.00399253 -5.1953125 27.33203125 C-5.18886719 26.43935547 -5.18242188 25.54667969 -5.17578125 24.62695312 C-5.15902344 23.69818359 -5.14226563 22.76941406 -5.125 21.8125 C-5.11597656 20.87212891 -5.10695313 19.93175781 -5.09765625 18.96289062 C-5.07409056 16.64167032 -5.04119116 14.32096356 -5 12 C-5.99 12 -6.98 12 -8 12 C-8 11.01 -8 10.02 -8 9 C-7.01 9 -6.02 9 -5 9 C-5.061875 7.88625 -5.12375 6.7725 -5.1875 5.625 C-5.125625 4.42875 -5.06375 3.2325 -5 2 C-2 0 -2 0 0 0 Z " fill="#A5A5A5" transform="translate(815,947)"/>
<path d="M0 0 C1.65 0 3.3 0 5 0 C5 11.88 5 23.76 5 36 C3.35 36 1.7 36 0 36 C0 24.12 0 12.24 0 0 Z " fill="#A2A2A2" transform="translate(654,946)"/>
<path d="M0 0 C2.33944736 0.28730055 4.6739143 0.61936779 7 1 C6.67 2.32 6.34 3.64 6 5 C4.865625 5.309375 3.73125 5.61875 2.5625 5.9375 C-0.78775099 6.62924531 -0.78775099 6.62924531 -2 8 C-2.15620555 9.41327947 -2.25056173 10.8335459 -2.31640625 12.25390625 C-2.35830078 13.10791016 -2.40019531 13.96191406 -2.44335938 14.84179688 C-2.50233398 16.18854492 -2.50233398 16.18854492 -2.5625 17.5625 C-2.60568359 18.46419922 -2.64886719 19.36589844 -2.69335938 20.29492188 C-2.79978142 22.52978485 -2.90179988 24.76476308 -3 27 C-4.65 27 -6.3 27 -8 27 C-8 18.42 -8 9.84 -8 1 C-5.66666667 1 -3.33333333 1 -1 1 C-0.67 0.67 -0.34 0.34 0 0 Z " fill="#A0A0A0" transform="translate(735,955)"/>
<path d="M0 0 C1.65 0 3.3 0 5 0 C5 8.58 5 17.16 5 26 C3.35 26 1.7 26 0 26 C0 17.42 0 8.84 0 0 Z " fill="#A2A2A2" transform="translate(798,956)"/>
<path d="M0 0 C1.65 0 3.3 0 5 0 C5 8.58 5 17.16 5 26 C3.35 26 1.7 26 0 26 C0 17.42 0 8.84 0 0 Z " fill="#A2A2A2" transform="translate(716,956)"/>
<path d="M0 0 C1.65 0 3.3 0 5 0 C5 8.58 5 17.16 5 26 C3.35 26 1.7 26 0 26 C0 17.42 0 8.84 0 0 Z " fill="#A2A2A2" transform="translate(643,956)"/>
<path d="M0 0 C-0.48355011 6.40703902 -0.48355011 6.40703902 -2.6875 8.9375 C-5.66455559 10.30533635 -7.75641537 10.34506219 -11 10 C-11.99 9.34 -12.98 8.68 -14 8 C-13.75 5.625 -13.75 5.625 -13 3 C-9.28892095 0.25105255 -4.49583229 0 0 0 Z " fill="#0F0F0F" transform="translate(632,969)"/>
<path d="M0 0 C1.65 0 3.3 0 5 0 C5 1.65 5 3.3 5 5 C3.35 5 1.7 5 0 5 C0 3.35 0 1.7 0 0 Z " fill="#9D9D9D" transform="translate(798,946)"/>
<path d="M0 0 C1.65 0 3.3 0 5 0 C5 1.65 5 3.3 5 5 C3.35 5 1.7 5 0 5 C0 3.35 0 1.7 0 0 Z " fill="#9D9D9D" transform="translate(643,946)"/>
<path d="M0 0 C1.65 0 3.3 0 5 0 C5 1.65 5 3.3 5 5 C3.35 5 1.7 5 0 5 C0 3.35 0 1.7 0 0 Z " fill="#9D9D9D" transform="translate(716,946)"/>
</svg>
