<?xml version="1.0" encoding="UTF-8"?>
<svg version="1.1" xmlns="http://www.w3.org/2000/svg" width="1350" height="1080">
<path d="M0 0 C445.5 0 891 0 1350 0 C1350 356.4 1350 712.8 1350 1080 C904.5 1080 459 1080 0 1080 C0 723.6 0 367.2 0 0 Z " fill="#000000" transform="translate(0,0)"/>
<path d="M0 0 C5.04535357 3.07882246 7.21038416 8.0230397 9.6171875 13.25390625 C12.45380639 18.77896244 15.26069623 20.47584029 21.08374023 22.39477539 C23.40996296 23.40954518 24.75037975 24.64660327 26.59765625 26.37109375 C32.16583861 30.65948704 38.10944208 30.09098383 44.875 30 C47.27472607 29.99105057 49.67453795 29.99447395 52.07421875 30.01171875 C53.12826904 29.99971436 54.18231934 29.98770996 55.26831055 29.9753418 C58.61950549 30.36239542 60.40622948 31.46115719 63.1875 33.3125 C64.21875 33.621875 65.25 33.93125 66.3125 34.25 C69.67788617 35.49372967 70.4357346 36.22943104 72.1875 39.3125 C72.57226562 42.48754883 72.57226562 42.48754883 72.59375 46.26953125 C72.61354698 47.69116294 72.63340652 49.11279377 72.65332031 50.53442383 C72.65835571 51.282211 72.66339111 52.02999817 72.6685791 52.80044556 C72.7008385 56.76372056 72.79335532 60.72535694 72.890625 64.6875 C72.91042419 65.4949617 72.93022339 66.3024234 72.95062256 67.13435364 C73.74728805 96.11841689 79.13443917 123.53558306 88.421875 150.95703125 C90.62345319 157.55378909 91.47448393 163.3483368 91.78125 170.28125 C92.15242617 175.22692166 93.43496793 179.94895251 94.625 184.75 C96.80606424 193.62922122 97.87390837 202.26801196 98.52148438 211.37719727 C99.08811249 219.03925378 100.27782888 226.19798478 102.9765625 233.42578125 C105.08780434 239.087748 105.76132854 244.65380415 106.34570312 250.63330078 C106.85280681 255.43120255 107.8264011 259.74574314 109.25 264.375 C112.09511353 274.02737752 111.75865751 284.23729268 111.85961914 294.21899414 C111.86920151 294.90340073 111.87878387 295.58780731 111.88865662 296.29295349 C111.91264626 298.17779 111.92282105 300.06278772 111.93212891 301.94775391 C112.19325775 305.38836364 113.03137344 308.07867628 114.1875 311.3125 C114.38029475 313.97582175 114.50287527 316.58553895 114.5625 319.25 C114.98756107 329.56137605 117.3720945 338.9096414 121.25 348.5 C125.39338527 359.4562243 128.38426664 375.67136653 126.1875 387.3125 C123.03421896 391.94206045 123.03421896 391.94206045 120.1875 393.1875 C117.57644923 394.65621606 116.73700743 396.62510846 115.37109375 399.21875 C114.04930175 401.55696951 112.52809413 403.64842635 110.9375 405.8125 C102.78014603 417.45842449 97.7563404 429.43485424 93.42041016 442.92016602 C93.07155762 443.96229248 92.72270508 445.00441895 92.36328125 446.078125 C92.06333252 447.01430664 91.76338379 447.95048828 91.4543457 448.91503906 C89.80638858 452.03373996 88.34347092 452.75231913 85.1875 454.3125 C74.7931384 456.49300624 64.10294782 456.61187339 53.5234375 456.578125 C52.03253071 456.58025316 50.54162473 456.58303035 49.05072021 456.58639526 C45.05199411 456.59197579 41.05342952 456.58324129 37.05472565 456.57004547 C34.54476216 456.5624463 32.03481395 456.55834758 29.52484131 456.55511475 C3.63166476 456.51596994 -22.25083454 456.14118316 -48.13591766 455.50016785 C-50.66977479 455.43793534 -53.20368234 455.37825881 -55.73760986 455.31896973 C-59.74277364 455.22403839 -63.74757191 455.11931995 -67.75228119 455.00687027 C-69.20988091 454.96681208 -70.66754929 454.92915608 -72.12528229 454.89428329 C-94.50368633 454.34818483 -110.17362879 450.59608947 -126.51171875 434.68359375 C-133.11710926 426.23104628 -132.19258809 414.74738144 -132 404.625 C-131.98491097 403.22983232 -131.97123009 401.83464866 -131.95898438 400.43945312 C-131.92393868 397.06338416 -131.87480508 393.68815724 -131.8125 390.3125 C-133.02421875 390.08175781 -134.2359375 389.85101562 -135.484375 389.61328125 C-144.51281555 387.86560649 -153.46538403 385.96966578 -162.375 383.6875 C-173.80557805 380.78587502 -184.79662039 379.10142763 -196.55053711 378.13427734 C-203.01090507 377.57002915 -209.04628708 376.50513561 -215.35676575 375.01771545 C-228.89238109 372.25548768 -243.28189063 373.20367176 -257.01246071 373.26790047 C-260.91477972 373.28553009 -264.81705641 373.29566644 -268.71940613 373.30381775 C-279.8057352 373.327702 -290.89200869 373.36343476 -301.97827148 373.40844727 C-308.12659606 373.4333291 -314.27489871 373.45048752 -320.42326659 373.46000665 C-323.65333592 373.46537148 -326.88326272 373.47567952 -330.11329079 373.49339485 C-343.14468346 373.56419791 -356.09199995 373.39424787 -369.0925293 372.42749023 C-370.15597722 372.34964578 -371.21942514 372.27180132 -372.31509876 372.19159794 C-378.03361176 371.71614459 -383.27556877 370.79605419 -388.8125 369.3125 C-391.12037627 369.01579531 -391.12037627 369.01579531 -393.15795898 369.02539062 C-393.90911484 369.01197632 -394.66027069 368.99856201 -395.43418884 368.98474121 C-396.60951927 368.97682556 -396.60951927 368.97682556 -397.80859375 368.96875 C-399.05806541 368.9468158 -399.05806541 368.9468158 -400.33277893 368.92443848 C-402.97180477 368.87834115 -405.61076126 368.84392239 -408.25 368.8125 C-411.72812778 368.77100632 -415.20575892 368.71723259 -418.68359375 368.65625 C-419.85588783 368.64833435 -419.85588783 368.64833435 -421.05186462 368.64025879 C-426.35564904 368.54593845 -431.81205812 368.21414893 -436.8125 366.3125 C-437.410625 365.405 -438.00875 364.4975 -438.625 363.5625 C-441.55876853 359.20375819 -444.93650636 358.10568116 -449.62109375 355.9296875 C-452.69308383 354.37301199 -455.2141433 352.65868491 -457.9375 350.5625 C-462.4889341 347.11641418 -467.17364362 344.37766333 -472.1875 341.6875 C-486.89254574 333.73734477 -501.36637999 324.5299354 -513.8125 313.3125 C-514.42480469 312.76980469 -515.03710938 312.22710937 -515.66796875 311.66796875 C-520.01876874 307.57602643 -523.52818333 302.86042244 -527.09936523 298.09545898 C-530.00800937 294.24695257 -533.06883928 290.82573959 -536.6328125 287.58203125 C-537.8125 286.3125 -537.8125 286.3125 -537.8125 284.3125 C-538.66328125 283.94125 -538.66328125 283.94125 -539.53125 283.5625 C-543.03162089 281.64448855 -545.68701276 278.89514565 -548.59375 276.1875 C-550.61460453 274.4797356 -552.40112556 273.36473612 -554.8125 272.3125 C-554.94785156 272.82554687 -555.08320312 273.33859375 -555.22265625 273.8671875 C-556.9235631 279.91711966 -559.05234418 285.76647715 -561.3125 291.625 C-561.60906494 292.40149902 -561.90562988 293.17799805 -562.21118164 293.97802734 C-563.4379105 297.11967485 -564.54719012 299.92430313 -566.45703125 302.71875 C-568.57015088 306.76229879 -568.57545329 311.00507723 -569 315.5 C-569.91902869 323.54748878 -571.29099375 328.10513122 -577.03125 334.04296875 C-579.79715713 337.56707411 -579.7704397 341.0419618 -580.19140625 345.40234375 C-581.2946589 352.34797837 -583.85006459 358.86819658 -586.15625 365.4921875 C-588.7475136 372.99046623 -590.27488293 380.07429062 -591.1875 387.9375 C-596.3410536 429.35495878 -596.3410536 429.35495878 -603.91015625 440.36328125 C-606.52664308 444.41964174 -606.61043472 447.98207068 -607.02734375 452.703125 C-607.74019122 455.98009546 -608.55981128 457.84083335 -610.1484375 460.71484375 C-613.76436654 467.62123568 -615.00349794 475.05230822 -616.5 482.625 C-616.79631622 484.05949523 -617.09383657 485.49374227 -617.39257812 486.92773438 C-618.24311193 491.04823721 -619.03424066 495.17772406 -619.8125 499.3125 C-620.12707153 500.90989014 -620.12707153 500.90989014 -620.44799805 502.53955078 C-622.06643076 511.61119651 -622.12386219 520.63141933 -622.21841431 529.8170166 C-622.85023298 584.73579425 -622.85023298 584.73579425 -631.69921875 595.63671875 C-634.289076 597.69041331 -636.3582714 597.79097403 -639.6171875 597.84375 C-641.8125 597.3125 -641.8125 597.3125 -644.53125 595.45703125 C-648.39197293 592.93377305 -652.05359874 591.80073835 -656.4375 590.5 C-669.4089564 586.37888077 -681.53193719 580.3632711 -688.62890625 568.19921875 C-691.46152452 562.3906449 -693.32354855 556.86344721 -694.41796875 550.51171875 C-695.95857168 541.92400145 -701.17204711 537.44421023 -707.8125 532.3125 C-712.06195756 529.40245871 -715.54973565 528.20959344 -720.6875 527.9375 C-728.04935301 527.39635307 -733.22443331 523.97776177 -738.30078125 518.75 C-747.06776117 508.4190253 -749.99940612 500.32863388 -749.99780273 486.87304688 C-749.99996275 484.84743382 -750.01805211 482.8223898 -750.03710938 480.796875 C-750.04855767 473.07309176 -749.5565144 465.84585171 -747.8125 458.3125 C-748.79089844 458.37050781 -749.76929688 458.42851563 -750.77734375 458.48828125 C-759.0935876 458.77448433 -764.99228397 458.46352358 -771.8125 453.3125 C-772.55886719 452.79300781 -773.30523438 452.27351563 -774.07421875 451.73828125 C-779.01552845 448.13926281 -783.04216581 444.08335566 -786.98828125 439.42578125 C-789.52277776 436.48967287 -792.23174169 433.83047363 -795.125 431.25 C-804.23321925 421.29450454 -812.29954788 406.3290349 -812.1640625 392.5546875 C-811.58245919 388.84535083 -809.4010833 386.9010833 -806.8125 384.3125 C-802.98639283 380.17759284 -801.47592122 376.13488414 -799.8125 370.875 C-798.0701508 365.39425871 -796.19970095 361.0383925 -792.8125 356.3125 C-788.10325337 349.61371973 -784.95221159 342.23664963 -781.72851562 334.7512207 C-780.82076995 332.6441959 -779.90344653 330.54155865 -778.984375 328.43945312 C-775.37301144 320.14314327 -771.99243608 311.78529859 -768.8125 303.3125 C-764.38010067 291.64891603 -758.44805617 281.17129148 -751.0625 271.125 C-748.64230217 267.76841832 -746.98806236 264.56266224 -745.49609375 260.70703125 C-743.0012974 254.56091354 -739.91255476 248.93679069 -736.625 243.1875 C-731.23310245 233.54700102 -727.12998865 223.79376373 -723.35205078 213.42919922 C-720.53668083 205.83658128 -717.18793226 199.14389196 -712.7734375 192.375 C-710.98371295 189.57989234 -709.52788426 186.81485103 -708.125 183.8125 C-702.40594572 172.22188332 -690.55928822 163.58372182 -678.62109375 158.91796875 C-673.5973703 157.23616068 -668.09013073 156.4823109 -662.8125 157.3125 C-661.80498717 158.3049303 -660.80675632 159.30678912 -659.8125 160.3125 C-657.32678697 161.59811534 -654.84376325 162.81280147 -652.3125 164 C-640.30595528 169.88603403 -631.6329401 177.39824855 -622.36938477 186.94848633 C-615.80168011 193.59353536 -608.7081836 198.4091593 -600.8125 203.3125 C-594.59623774 207.54212174 -590.22547532 212.10335529 -585.66015625 218.06640625 C-583.2516509 220.9942933 -581.19575149 222.62087425 -577.8125 224.3125 C-573.86000063 224.76734368 -573.86000063 224.76734368 -571.8828125 222.51171875 C-568.52376531 218.17463573 -565.5060223 213.95105944 -563 209.0625 C-558.55701651 200.52476685 -552.13776229 193.30810029 -546.0078125 185.94140625 C-540.17688518 178.84011094 -535.65184933 171.63305016 -531.37524414 163.49755859 C-528.73602129 158.60480087 -526.22843732 155.55524078 -521.7265625 152.24609375 C-519.01036012 149.50217502 -517.64572111 146.21660382 -516.0625 142.75 C-513.25704176 136.65028063 -510.02435057 131.58161361 -505.625 126.5 C-505.12581055 125.91984131 -504.62662109 125.33968262 -504.11230469 124.74194336 C-501.30379056 121.61062762 -498.62362399 119.12853895 -494.8125 117.3125 C-491.13813681 117.387487 -489.36426705 117.89141462 -486.4375 120.125 C-484.8125 122.3125 -484.8125 122.3125 -484.8125 126.3125 C-484.131875 126.56 -483.45125 126.8075 -482.75 127.0625 C-479.8125 128.3125 -479.8125 128.3125 -476.9375 130.1875 C-473.30406287 132.3500709 -469.59447344 133.19789917 -465.5 134.1875 C-458.73569617 135.84359104 -453.57056598 138.46846625 -447.8125 142.3125 C-440.72035619 146.97498763 -433.40282323 150.3212766 -425.51831055 153.43725586 C-393.64048523 166.06917813 -393.64048523 166.06917813 -385.6875 176 C-370.59144846 193.43082222 -345.8045079 208.74397438 -323.7109375 215.28125 C-320.29693218 216.49593653 -317.33575258 218.14688548 -314.1875 219.9375 C-309.42930061 222.61929134 -305.64186456 223.8987197 -300.29296875 224.6640625 C-297.22566578 225.46590863 -295.18603396 226.91352697 -292.5625 228.6875 C-278.84562853 237.01807472 -261.36533948 236.60628356 -245.77981567 237.34997559 C-237.11111258 237.77294392 -228.92862317 238.67936032 -220.5 240.875 C-208.87664613 243.88894137 -197.28687257 243.98205158 -185.3503418 244.12329102 C-184.23851784 244.13674309 -184.23851784 244.13674309 -183.10423279 244.15046692 C-181.06987929 244.17071305 -179.03541683 244.17898289 -177.00097656 244.18652344 C-173.8125 244.3125 -173.8125 244.3125 -170.8125 245.3125 C-168.87241057 245.39958206 -166.92938255 245.42575202 -164.98735046 245.41929626 C-163.16409241 245.41702278 -163.16409241 245.41702278 -161.30400085 245.41470337 C-159.95486412 245.40797439 -158.60572778 245.40116631 -157.2565918 245.39428711 C-155.83733221 245.39073117 -154.41807138 245.38764513 -152.99880981 245.38499451 C-149.94095578 245.37844051 -146.8831309 245.36887892 -143.82529259 245.35709953 C-138.98850006 245.33881622 -134.15171464 245.32920992 -129.31489563 245.32118225 C-115.56024059 245.29702453 -101.80562871 245.26118451 -88.05102539 245.21655273 C-80.45562205 245.19198349 -72.86023574 245.17463377 -65.26479846 245.16499335 C-60.45857727 245.15845727 -55.65249628 245.14291206 -50.84632337 245.12067592 C-47.85236973 245.10892546 -44.85844996 245.10557731 -41.86447525 245.10457802 C-40.47857114 245.10243484 -39.09266732 245.09685795 -37.70679283 245.0875473 C-35.81076595 245.07530515 -33.91466579 245.07669978 -32.01860046 245.07872009 C-30.95874782 245.07557769 -29.89889517 245.07243528 -28.80692577 245.06919765 C-25.54034094 245.3346134 -22.88245826 246.19577932 -19.8125 247.3125 C-17.41137907 247.66498275 -17.41137907 247.66498275 -15.0703125 247.7265625 C-13.81347656 247.78457031 -13.81347656 247.78457031 -12.53125 247.84375 C-11.6753125 247.8746875 -10.819375 247.905625 -9.9375 247.9375 C-8.61878906 247.99550781 -8.61878906 247.99550781 -7.2734375 248.0546875 C-5.12011207 248.14831034 -2.96633586 248.23146459 -0.8125 248.3125 C-0.76279513 243.59856679 -0.726637 238.8847886 -0.70263672 234.1706543 C-0.69262377 232.56939026 -0.6790094 230.96814429 -0.66162109 229.36694336 C-0.63716435 227.05578124 -0.62596971 224.74486238 -0.6171875 222.43359375 C-0.60686493 221.72601425 -0.59654236 221.01843475 -0.58590698 220.28941345 C-0.58487149 215.62697613 -1.43060143 211.74558762 -2.8125 207.3125 C-3.0016232 204.75393328 -3.12218893 202.18971552 -3.1875 199.625 C-3.61666157 189.6149171 -5.54683161 180.05185819 -7.8125 170.3125 C-8.00360352 169.4889502 -8.19470703 168.66540039 -8.39160156 167.81689453 C-12.04331199 152.40228715 -16.80343685 138.86459508 -25.69360352 125.66992188 C-33.26450638 114.33758776 -39.1680868 102.33535559 -39.04296875 88.48828125 C-39.0429184 87.64073776 -39.04286804 86.79319427 -39.04281616 85.91996765 C-39.03920532 83.15482996 -39.02026482 80.39006203 -39 77.625 C-38.99244985 75.70247514 -38.98521048 73.77994904 -38.97827148 71.85742188 C-38.9173568 59.33955119 -38.71369296 46.82584961 -38.375 34.3125 C-38.34579971 33.20474716 -38.34579971 33.20474716 -38.31600952 32.07461548 C-37.62187265 6.66606875 -37.62187265 6.66606875 -33.8125 2.3125 C-25.13799318 -3.75965477 -9.71650111 -3.96807421 0 0 Z M-22.46948242 16.91113281 C-24.2721177 20.13431416 -24.18469864 22.48441568 -24.17578125 26.171875 C-24.17750336 26.85644775 -24.17922546 27.54102051 -24.18099976 28.24633789 C-24.18039704 30.51888144 -24.15507937 32.79016464 -24.125 35.0625 C-24.11707428 35.84838501 -24.10914856 36.63427002 -24.10098267 37.44396973 C-24.05675639 41.64805518 -23.99108836 45.85121034 -23.90722656 50.0546875 C-23.83850178 53.54974058 -23.79711103 57.04338116 -23.78027344 60.5390625 C-23.65046164 82.51131518 -22.34398134 100.01653376 -10.8125 119.3125 C-9.67142664 121.33144879 -8.53613341 123.35367389 -7.40625 125.37890625 C-5.19544719 129.32261988 -2.95838313 133.24954292 -0.703125 137.16796875 C8.80085087 153.87294043 12.48736434 171.58660463 14.875 190.4375 C14.98277771 191.26101959 15.09055542 192.08453918 15.20159912 192.93301392 C17.11610118 207.75682622 17.80705433 222.48727471 17.82299805 237.42822266 C17.82828018 238.19831161 17.83356232 238.96840057 17.83900452 239.76182556 C17.84711687 241.19505057 17.84258794 242.62842818 17.82273865 244.0615387 C17.84777265 248.17372391 18.46686464 250.24516499 21.1875 253.3125 C21.40234375 255.56640625 21.40234375 255.56640625 21.125 257.875 C21.05152344 258.63941406 20.97804688 259.40382813 20.90234375 260.19140625 C19.91473067 263.12186473 18.88232952 263.78552843 16.1875 265.3125 C13.47103753 265.58120157 10.99243972 265.68633094 8.28125 265.640625 C7.13867737 265.63781525 7.13867737 265.63781525 5.97302246 265.63494873 C4.36592212 265.62823979 2.7588378 265.61434821 1.15185547 265.59375 C-1.30386599 265.56260949 -3.75894441 265.55277742 -6.21484375 265.546875 C-7.77865363 265.53770345 -9.34245701 265.52732719 -10.90625 265.515625 C-11.63863892 265.51137512 -12.37102783 265.50712524 -13.12561035 265.50274658 C-18.38265137 265.42928292 -18.38265137 265.42928292 -20.65664101 264.81147671 C-23.44577892 264.16592667 -26.04622818 264.17789226 -28.90975952 264.16773987 C-30.16029617 264.16084137 -31.41083282 264.15394287 -32.69926453 264.14683533 C-34.0825499 264.14412086 -35.46583544 264.14148369 -36.84912109 264.13891602 C-38.30793962 264.13260868 -39.76675623 264.12584267 -41.22557068 264.11865234 C-44.36578343 264.103995 -47.50598881 264.09226517 -50.64622116 264.08270454 C-55.61335475 264.0672395 -60.58042489 264.04329048 -65.54751587 264.01780701 C-79.67161041 263.9466375 -93.79574105 263.88682605 -107.91992188 263.83569336 C-115.72157124 263.80737467 -123.5231572 263.77198647 -131.32474005 263.72903961 C-136.26052831 263.70229485 -141.19624487 263.68437279 -146.13209128 263.67300236 C-149.20584432 263.66386345 -152.27951038 263.64649566 -155.35321236 263.62682343 C-156.77618222 263.61936299 -158.19917442 263.61526777 -159.62216377 263.61482811 C-161.56855998 263.61374132 -163.51493493 263.59930149 -165.46127319 263.58424377 C-167.09335 263.57789587 -167.09335 263.57789587 -168.75839806 263.57141972 C-172.04594143 263.29270937 -174.71261671 262.40890036 -177.8125 261.3125 C-180.26247376 261.14472169 -182.72006947 261.07344334 -185.17578125 261.07421875 C-186.62151147 261.0624607 -188.06723145 261.04938668 -189.51293945 261.03515625 C-190.26499664 261.03016113 -191.01705383 261.02516602 -191.79190063 261.02001953 C-204.44543813 260.91144383 -216.19526193 260.0543046 -228.55175781 257.11669922 C-238.24369638 254.93401717 -247.82878397 254.68033942 -257.71606445 254.58984375 C-264.14842745 254.52065531 -269.63739844 254.08582655 -275.8125 252.3125 C-277.47755761 252.22825601 -279.1453216 252.18201586 -280.8125 252.1875 C-287.67633173 251.68224572 -293.00836499 248.45942508 -298.97265625 245.296875 C-302.82633959 243.26139276 -306.73938955 241.76785897 -310.859375 240.35546875 C-322.57752427 236.21691603 -333.76871027 231.01708763 -344.80664062 225.33740234 C-347.54789497 223.93674683 -350.30709333 222.57338754 -353.06616211 221.20825195 C-379.26456209 208.21933812 -379.26456209 208.21933812 -383.6875 201.4375 C-386.32838611 197.55384395 -389.47809095 195.21878511 -393.1875 192.3828125 C-395.61058076 190.47175178 -397.78269518 188.45421488 -400 186.3125 C-409.48327904 177.86825849 -421.35701807 173.58858238 -433.09130859 169.24438477 C-453.03140173 161.8192614 -453.03140173 161.8192614 -458.0625 155.75 C-461.97676848 151.29925818 -467.32788603 150.18950174 -472.82373047 148.52905273 C-479.0062224 146.65705051 -484.48564841 144.23673185 -490.2109375 141.21875 C-492.68724761 140.10380892 -492.68724761 140.10380892 -494.82421875 140.7421875 C-497.7968181 143.08989858 -499.99779634 145.92502433 -502.25 148.9375 C-502.76860596 149.62610107 -503.28721191 150.31470215 -503.8215332 151.02416992 C-509.03370465 158.1970475 -513.05045067 165.93634995 -517.14819336 173.77978516 C-520.5689544 180.25071186 -524.06106513 185.7453267 -528.95703125 191.203125 C-531.22957274 193.78664585 -532.90037984 196.54744334 -534.64453125 199.5 C-535.85140382 201.37287249 -537.18402373 202.92090911 -538.6875 204.5625 C-541.377276 207.56105131 -543.24195489 210.72591034 -545.1875 214.25 C-547.95780557 219.17498768 -550.99262509 222.79623026 -555.08203125 226.65625 C-559.40429131 230.79313096 -560.16616782 234.35693048 -560.40625 240.12890625 C-560.93967388 242.99605963 -561.68274987 244.30802929 -563.8125 246.3125 C-570.67011545 247.48941508 -577.86264691 247.01712551 -583.8125 243.3125 C-589.39061932 238.65613605 -594.59344712 233.60396087 -599.6875 228.4296875 C-600.18808426 227.92132858 -600.68866852 227.41296967 -601.204422 226.88920593 C-603.25926559 224.79780155 -605.31127278 222.70381486 -607.35351562 220.60009766 C-613.07788686 214.71388747 -618.73534067 209.39833831 -625.61914062 204.84667969 C-628.84485812 202.59040089 -631.40333025 199.88098949 -634.0625 197 C-640.36999171 190.45514991 -647.17875731 185.21797016 -654.8125 180.3125 C-655.81796875 179.65765625 -656.8234375 179.0028125 -657.859375 178.328125 C-662.43575088 175.57218593 -666.30851843 173.24946116 -671.71484375 174.50390625 C-684.37666994 179.38472193 -691.80531914 186.02310539 -697.75 198.0625 C-698.26361084 199.07803955 -698.77722168 200.0935791 -699.30639648 201.13989258 C-700.83316214 204.18602052 -702.32993141 207.24464561 -703.8125 210.3125 C-704.23305664 211.18245605 -704.65361328 212.05241211 -705.08691406 212.94873047 C-708.43414876 219.96284822 -711.66374951 226.80818872 -713.3125 234.4375 C-717.30725341 252.36517385 -730.13282822 269.26483041 -739.30810547 284.85351562 C-746.2416916 296.65043441 -751.54102889 308.82603564 -756.66601562 321.50439453 C-764.49790281 340.68718125 -773.41085323 359.63400604 -783.5 377.7265625 C-785.08457766 380.84855778 -786.0355147 383.9806845 -786.98046875 387.33984375 C-787.9844963 389.72028464 -789.32877971 390.97370633 -791.1875 392.75 C-793.13757883 394.86015993 -793.83226528 395.67452071 -793.7421875 398.58203125 C-792.99526973 401.30785183 -791.99385576 403.74532307 -790.8125 406.3125 C-790.4721875 407.14523437 -790.131875 407.97796875 -789.78125 408.8359375 C-785.23526184 418.53987376 -777.33119393 425.87544443 -769.8125 433.3125 C-769.29429687 433.84343262 -768.77609375 434.37436523 -768.2421875 434.92138672 C-762.83673198 440.47480829 -762.83673198 440.47480829 -755.64453125 442.51953125 C-752.47067185 442.25120201 -752.47067185 442.25120201 -749.5390625 441.5546875 C-746.02426817 441.24248514 -744.57425196 442.20316902 -741.8125 444.3125 C-741.544375 444.9725 -741.27625 445.6325 -741 446.3125 C-739.26074816 449.24176626 -736.86062258 449.56480196 -733.6875 450.50390625 C-731.8125 451.3125 -731.8125 451.3125 -729.8125 454.3125 C-729.58203125 457.421875 -729.58203125 457.421875 -729.625 461.0625 C-729.63144531 462.25359375 -729.63789062 463.4446875 -729.64453125 464.671875 C-729.8125 468.3125 -729.8125 468.3125 -730.3046875 471.6171875 C-730.9512284 476.32201593 -731.07417297 480.9436437 -731.125 485.6875 C-731.15400391 486.58210938 -731.18300781 487.47671875 -731.21289062 488.3984375 C-731.28686419 496.22825514 -729.40169483 502.19218828 -724.375 508.25 C-720.47773732 511.38682118 -717.53054556 512.28661695 -712.625 512.5625 C-702.17597028 513.61603853 -693.76612281 522.07180102 -686.8125 529.3125 C-682.05717041 535.18422417 -678.66393186 540.6635063 -676.9375 548.0625 C-673.91481446 560.40900785 -668.00468292 567.32672741 -657.30078125 573.9296875 C-653.94221278 575.7961447 -651.40936105 576.43703871 -647.625 576.375 C-645.7378125 576.3440625 -645.7378125 576.3440625 -643.8125 576.3125 C-641.42488365 565.83480493 -640.7706942 555.4874392 -640.63671875 544.76953125 C-640.62471939 543.91022003 -640.61272003 543.05090881 -640.60035706 542.16555786 C-640.55201055 538.59465577 -640.50451801 535.02408348 -640.48657227 531.45288086 C-640.40705341 518.1340843 -639.04191699 506.00075096 -634.8125 493.3125 C-634.65966481 491.08506865 -634.53877088 488.85537065 -634.4375 486.625 C-634.12149412 481.65045588 -633.50298538 477.79371842 -631.48828125 473.27734375 C-630.65948231 470.86759884 -630.59969102 468.73146707 -630.5 466.1875 C-630.11390067 460.00991066 -627.72585291 455.16499521 -625.15625 449.6015625 C-623.96138558 446.67692343 -623.44423247 444.66919075 -623.3125 441.5625 C-623.08254508 436.78651319 -620.83438321 433.71697179 -618.30859375 429.76171875 C-614.67844187 423.81888525 -613.72916671 418.38985756 -613.4453125 411.47265625 C-613.00556096 403.42060049 -611.39154848 395.76943458 -609.5 387.9375 C-609.1768418 386.56710471 -608.85458542 385.19649646 -608.53320312 383.82568359 C-607.90798528 381.16378387 -607.27679433 378.50340161 -606.64208984 375.84375 C-605.80968148 372.30050262 -605.03487552 368.75133664 -604.31567383 365.18359375 C-602.92247501 358.9645597 -601.11617943 353.32889499 -598.59375 347.4921875 C-594.75975687 338.39931494 -591.50767355 329.14520716 -588.3125 319.8125 C-585.14074474 310.54819478 -581.91040539 301.36605395 -578.10546875 292.33984375 C-575.48225971 286.11184838 -573.3115854 279.92933036 -571.625 273.375 C-566.56051518 254.10633325 -566.56051518 254.10633325 -561.8125 250.3125 C-558.22864981 249.59572996 -555.89018841 249.67068557 -552.70703125 251.56640625 C-550.31457083 253.39145128 -548.05978032 255.31124546 -545.8125 257.3125 C-544.98234375 258.04597656 -544.1521875 258.77945313 -543.296875 259.53515625 C-541.59535433 261.05660801 -539.90262748 262.58795047 -538.21875 264.12890625 C-536.09890512 266.05259665 -533.93794851 267.90500374 -531.75 269.75 C-527.85671063 273.13512911 -524.50508002 276.91060617 -521.08984375 280.76953125 C-515.0452728 287.51912935 -508.57555476 293.44186766 -501.5234375 299.12109375 C-490.35293733 308.15084965 -490.35293733 308.15084965 -487.5 313.0625 C-484.73193692 317.23329775 -480.92990118 317.77146518 -476.3046875 319.1171875 C-461.19797517 324.28794138 -446.87913991 335.20771807 -434.875 345.5 C-431.036383 348.60388171 -427.75733085 349.10635891 -422.87890625 349.14453125 C-420.8125 349.3125 -420.8125 349.3125 -418.8125 351.3125 C-416.88609719 351.66636036 -416.88609719 351.66636036 -414.6574707 351.69140625 C-413.79930252 351.72484131 -412.94113434 351.75827637 -412.05696106 351.79272461 C-411.12679672 351.81987549 -410.19663239 351.84702637 -409.23828125 351.875 C-407.8024897 351.93022827 -407.8024897 351.93022827 -406.33769226 351.98657227 C-403.26704928 352.10427803 -400.19617655 352.20971921 -397.125 352.3125 C-393.09982082 352.44837639 -389.07530142 352.59596509 -385.05078125 352.75 C-384.13073807 352.77715088 -383.21069489 352.80430176 -382.26277161 352.83227539 C-380.95187813 352.88242798 -380.95187813 352.88242798 -379.61450195 352.93359375 C-378.85442337 352.9586499 -378.09434479 352.98370605 -377.31123352 353.00952148 C-374.8125 353.3125 -374.8125 353.3125 -371.83494568 354.32397461 C-366.24936674 355.98652283 -360.42302435 355.55608608 -354.65136719 355.5078125 C-352.63026255 355.50332885 -350.60915791 355.4988458 -348.58805323 355.49438477 C-346.42403032 355.48766104 -344.26008527 355.47595722 -342.09609222 355.46282959 C-337.56205673 355.43562201 -333.02806006 355.42395974 -328.49395752 355.41455078 C-318.03548548 355.39051416 -307.57711484 355.34662902 -297.11871338 355.30209351 C-287.55983174 355.26153197 -278.00098716 355.22540211 -268.44203687 355.20566368 C-264.68278316 355.19741816 -260.92364741 355.18496963 -257.1644516 355.16217041 C-218.29352888 354.92896461 -218.29352888 354.92896461 -205.0625 358.875 C-199.2709171 360.52162651 -193.6631012 360.55852321 -187.6875 360.6875 C-179.35036595 360.88805424 -172.06009208 361.9370226 -164.11669922 364.44262695 C-159.31078661 365.95191731 -154.82661659 366.82344718 -149.8125 367.375 C-144.40923987 367.97153827 -140.26570682 369.196021 -135.35546875 371.44140625 C-131.24925227 372.84799039 -127.104013 372.80174226 -122.79296875 372.84375 C-118.98605802 373.44247777 -117.51751876 374.5859796 -114.8125 377.3125 C-114.10888672 380.35839844 -114.10888672 380.35839844 -113.9921875 383.921875 C-113.93361572 385.22713135 -113.87504395 386.5323877 -113.81469727 387.87719727 C-113.7941629 388.56178009 -113.77362854 389.24636292 -113.75247192 389.95169067 C-113.6440448 393.47427357 -113.4546793 396.9924684 -113.26953125 400.51171875 C-113.23502365 401.19697128 -113.20051605 401.88222382 -113.16496277 402.58824158 C-112.65200626 412.17240613 -111.66068111 421.85863645 -106.8125 430.3125 C-100.72228263 434.84112317 -94.28312217 434.60319143 -86.9296875 435.03125 C-83.8125 435.3125 -83.8125 435.3125 -81.8125 436.3125 C-74.77884039 437.41537247 -67.68782228 437.45935468 -60.5859375 437.4453125 C-59.48397537 437.44663177 -58.38201324 437.44795105 -57.24665833 437.4493103 C-53.56024503 437.45124734 -49.87390587 437.44480524 -46.1875 437.4375 C-44.27126328 437.43617065 -44.27126328 437.43617065 -42.3163147 437.43481445 C-2.47987072 437.40310264 37.35500292 436.8285472 77.1875 436.3125 C77.82558677 434.89720188 78.46146517 433.48090801 79.09643555 432.06420898 C79.45078171 431.27561996 79.80512787 430.48703094 80.17021179 429.67454529 C81.35019522 426.93473736 82.34292191 424.1582013 83.31640625 421.34033203 C85.61365013 414.73575588 88.1797818 409.21852337 92.4609375 403.6171875 C94.28070929 401.18808035 95.79302352 398.68846705 97.3125 396.0625 C98.99241048 393.19097302 100.66566302 390.61132848 102.875 388.125 C107.45200694 382.55836994 108.77073108 377.39139982 108.1875 370.3125 C107.59173639 367.11364978 106.75683529 364.0056416 105.875 360.875 C105.66166016 360.08029297 105.44832031 359.28558594 105.22851562 358.46679688 C104.14343938 354.48602461 102.95516264 350.56458644 101.62109375 346.66015625 C98.17331729 336.47682682 96.87592719 326.1323365 96.3984375 315.45703125 C96.29908279 312.49091449 96.29908279 312.49091449 95.68310547 310.39599609 C95.14647574 308.14003644 95.06133944 306.14947507 95.046875 303.83203125 C94.63320158 280.13596893 91.2079429 256.86266499 84.54296875 234.1171875 C81.29502976 222.93605135 79.88652605 211.70720004 79.59375 200.09375 C79.26094335 196.99608807 78.79937151 195.00121275 77.75 192.15625 C75.30330079 185.30666008 75.03939912 178.10084609 74.37109375 170.90625 C73.77331429 165.02464977 72.89237098 159.80930342 70.84326172 154.26220703 C69.89826703 151.45255418 69.71631932 148.69690745 69.5 145.75 C68.67366508 138.64067029 66.6370988 132.35751457 64.25 125.625 C60.48772777 114.90639063 58.27784289 104.60406037 57.1875 93.3125 C57.01154297 91.55292969 57.01154297 91.55292969 56.83203125 89.7578125 C55.76159374 76.3230461 55.60938684 62.78167835 55.1875 49.3125 C54.34940796 49.282771 54.34940796 49.282771 53.49438477 49.25244141 C50.91252582 49.1559781 48.33134608 49.04680188 45.75 48.9375 C44.43225586 48.89109375 44.43225586 48.89109375 43.08789062 48.84375 C35.11833793 48.49085468 27.62611433 48.05709264 21.1875 42.9375 C18.04719154 40.57497692 15.21687462 38.75666866 11.5625 37.3125 C3.40434877 33.90611405 -2.02494756 27.1537866 -7.63671875 20.546875 C-10.78735154 17.31139572 -13.44410766 15.50407493 -17.9375 14.875 C-20.84306305 15.03370454 -20.84306305 15.03370454 -22.46948242 16.91113281 Z " fill="#E3181E" transform="translate(993.8125,141.6875)"/>
<path d="M0 0 C3.031875 -0.061875 6.06375 -0.12375 9.1875 -0.1875 C10.60712036 -0.22846802 10.60712036 -0.22846802 12.05541992 -0.27026367 C16.84936401 -0.3175874 20.15522761 -0.20273273 24 3 C26.33909307 6.5086396 26.41291057 7.87089433 26 12 C24.5 14.875 24.5 14.875 23 17 C23.845625 17.845625 24.69125 18.69125 25.5625 19.5625 C27.78782103 22.25063708 27.99498696 22.85712826 28.125 26.5625 C26.81411814 30.56797235 25.21780258 32.33157835 22 35 C19.59940183 36.20029908 18.10639351 36.11459743 15.4296875 36.09765625 C14.62257324 36.09515869 13.81545898 36.09266113 12.98388672 36.09008789 C11.9579541 36.08098389 10.93202148 36.07187988 9.875 36.0625 C4.986875 36.0315625 4.986875 36.0315625 0 36 C0 24.12 0 12.24 0 0 Z " fill="#ACACAC" transform="translate(566,843)"/>
<path d="M0 0 C2.64 0 5.28 0 8 0 C11.3 9.24 14.6 18.48 18 28 C21.3 18.76 24.6 9.52 28 0 C30.31 0 32.62 0 35 0 C35 11.88 35 23.76 35 36 C33.35 36 31.7 36 30 36 C29.505 23.13 29.505 23.13 29 10 C26.03 18.58 23.06 27.16 20 36 C18.35 36 16.7 36 15 36 C12.03 27.42 9.06 18.84 6 10 C5.67 18.58 5.34 27.16 5 36 C3.35 36 1.7 36 0 36 C0 24.12 0 12.24 0 0 Z " fill="#A8A8A8" transform="translate(397,843)"/>
<path d="M0 0 C3.80945103 1.31599217 5.46446521 2.28595361 7.875 5.5 C9 8 9 8 9 11 C6.6875 11.3125 6.6875 11.3125 4 11 C3.5875 10.175 3.175 9.35 2.75 8.5 C2.1725 7.675 1.595 6.85 1 6 C-2.19375377 5.39442058 -2.19375377 5.39442058 -5.6875 5.6875 C-6.86699219 5.73261719 -8.04648437 5.77773438 -9.26171875 5.82421875 C-10.61716797 5.91123047 -10.61716797 5.91123047 -12 6 C-12.2502157 8.91634129 -12.2502157 8.91634129 -12 12 C-7.80147011 14.79901993 -3.31680703 15.52277196 1.5546875 16.70703125 C5.47167345 18.17701124 7.37684737 19.76999863 10 23 C10.83815208 27.60983642 10.40431761 29.38774762 7.8125 33.3125 C3.86145162 37.08794623 1.59019163 37.84358771 -3.8125 38.375 C-8.46922299 38.23388718 -12.27665955 36.79892489 -16 34 C-18.1503415 30.70728958 -19 28.92213215 -19 25 C-17.35 25 -15.7 25 -14 25 C-13.54625 25.969375 -13.0925 26.93875 -12.625 27.9375 C-11.34213779 31.07079582 -11.34213779 31.07079582 -9 32 C-6.92435324 32.19758231 -6.92435324 32.19758231 -4.625 32.1875 C-3.85414063 32.20167969 -3.08328125 32.21585938 -2.2890625 32.23046875 C0.21834888 31.97801607 1.83261902 31.25193467 4 30 C4 27.69 4 25.38 4 23 C2.90300781 22.76925781 1.80601562 22.53851562 0.67578125 22.30078125 C-0.77886273 21.97231325 -2.23327826 21.64283235 -3.6875 21.3125 C-4.40873047 21.16361328 -5.12996094 21.01472656 -5.87304688 20.86132812 C-10.91624357 19.68688506 -13.56238297 18.06861366 -17 14 C-17.33 13.67 -17.66 13.34 -18 13 C-17.83129322 8.61362368 -17.43717291 6.51563984 -14.5625 3.125 C-9.91235972 -0.73121389 -5.87224593 -0.49611909 0 0 Z " fill="#A6A6A6" transform="translate(685,842)"/>
<path d="M0 0 C2.7578125 1.828125 2.7578125 1.828125 5 5 C5.74241812 8.76940008 5.79042578 12.47894456 5.8125 16.3125 C5.83763672 17.33923828 5.86277344 18.36597656 5.88867188 19.42382812 C5.94741085 21.949604 5.98378712 24.47365228 6 27 C4.35 27 2.7 27 1 27 C0.67 26.34 0.34 25.68 0 25 C-0.86625 25.495 -1.7325 25.99 -2.625 26.5 C-6.842949 28.374644 -9.87805799 28.76625684 -14.25 27.1875 C-16 26 -16 26 -18 23 C-18.5 20.125 -18.5 20.125 -18 17 C-13.33552902 11.45306153 -7.9736582 10.83137918 -1 10 C-1.33 8.35 -1.66 6.7 -2 5 C-6.021089 4.72240142 -6.021089 4.72240142 -10 5 C-11.77409808 6.92022703 -11.77409808 6.92022703 -13 9 C-14.32 9 -15.64 9 -17 9 C-16.80037128 5.40668306 -16.21261372 4.20171045 -13.5625 1.6875 C-9.06857102 -0.4412032 -4.88389996 -1.24612978 0 0 Z " fill="#A5A5A5" transform="translate(616,852)"/>
<path d="M0 0 C2.7578125 1.828125 2.7578125 1.828125 5 5 C5.74241812 8.76940008 5.79042578 12.47894456 5.8125 16.3125 C5.83763672 17.33923828 5.86277344 18.36597656 5.88867188 19.42382812 C5.94741085 21.949604 5.98378712 24.47365228 6 27 C4.35 27 2.7 27 1 27 C0.67 26.34 0.34 25.68 0 25 C-0.86625 25.495 -1.7325 25.99 -2.625 26.5 C-6.842949 28.374644 -9.87805799 28.76625684 -14.25 27.1875 C-16 26 -16 26 -18 23 C-18.5 20.125 -18.5 20.125 -18 17 C-13.33552902 11.45306153 -7.9736582 10.83137918 -1 10 C-1.33 8.35 -1.66 6.7 -2 5 C-6.021089 4.72240142 -6.021089 4.72240142 -10 5 C-11.77409808 6.92022703 -11.77409808 6.92022703 -13 9 C-14.32 9 -15.64 9 -17 9 C-16.80037128 5.40668306 -16.21261372 4.20171045 -13.5625 1.6875 C-9.06857102 -0.4412032 -4.88389996 -1.24612978 0 0 Z " fill="#A5A5A5" transform="translate(540,852)"/>
<path d="M0 0 C2.0625 1.5625 2.0625 1.5625 3.0625 2.5625 C3.20709705 4.0140606 3.28947111 5.47195286 3.34375 6.9296875 C3.38113281 7.81527344 3.41851562 8.70085938 3.45703125 9.61328125 C3.50923828 11.01126953 3.50923828 11.01126953 3.5625 12.4375 C3.63144539 14.26838303 3.70420176 16.09912756 3.78125 17.9296875 C3.81154297 18.74550293 3.84183594 19.56131836 3.87304688 20.40185547 C3.9942238 22.74459314 3.9942238 22.74459314 5.0625 25.5625 C2.01863276 25.64476668 -0.00925348 25.53858217 -2.9375 24.5625 C-3.5975 24.8925 -4.2575 25.2225 -4.9375 25.5625 C-6.74593663 25.70966542 -8.56081566 25.7835887 -10.375 25.8125 C-11.82712891 25.85117187 -11.82712891 25.85117187 -13.30859375 25.890625 C-15.9375 25.5625 -15.9375 25.5625 -17.75390625 24.29296875 C-19.44722006 21.81726573 -19.47900167 19.43280031 -19.328125 16.49609375 C-18.9375 14.5625 -18.9375 14.5625 -17.1875 12.1875 C-12.32829376 9.75789688 -7.29317596 9.21167284 -1.9375 8.5625 C-1.9375 7.2425 -1.9375 5.9225 -1.9375 4.5625 C-4.34295638 3.35977181 -5.88746953 3.46178528 -8.5625 3.5 C-9.37976563 3.50902344 -10.19703125 3.51804687 -11.0390625 3.52734375 C-11.66554688 3.53894531 -12.29203125 3.55054688 -12.9375 3.5625 C-13.2675 4.8825 -13.5975 6.2025 -13.9375 7.5625 C-15.5875 7.5625 -17.2375 7.5625 -18.9375 7.5625 C-18.09111611 3.75377251 -17.54050851 1.99322036 -14.3125 -0.3125 C-9.19384133 -2.01871956 -5.01619851 -2.45473544 0 0 Z " fill="#AAAAAA" transform="translate(456.9375,853.4375)"/>
<path d="M0 0 C2.91009669 2.35953786 4.55841707 4.56173225 6.3125 7.875 C6.3125 9.855 6.3125 11.835 6.3125 13.875 C-0.2875 13.875 -6.8875 13.875 -13.6875 13.875 C-11.2672509 19.50606761 -11.2672509 19.50606761 -8.6875 21.875 C-5.77211971 22.37542146 -5.77211971 22.37542146 -2.6875 21.875 C-1.31439293 20.58266393 0.02284824 19.25062854 1.3125 17.875 C2.6325 17.875 3.9525 17.875 5.3125 17.875 C5.25 20.125 5.25 20.125 4.3125 22.875 C0.39196201 25.97875924 -2.29369393 27.23124283 -7.3125 26.9375 C-11.73079511 26.21368374 -13.91115933 24.43218649 -16.6875 20.875 C-18.77832938 16.69334124 -18.12146477 11.42865777 -17.6875 6.875 C-16.48944271 3.60982832 -14.65919168 1.61214541 -11.875 -0.5 C-7.6562895 -1.70534586 -4.05636804 -1.69801453 0 0 Z " fill="#A7A7A7" transform="translate(776.6875,853.125)"/>
<path d="M0 0 C3.70390021 2.02666238 5.65363011 3.48044516 8 7 C8 9.64 8 12.28 8 15 C1.73 15 -4.54 15 -11 15 C-10.01 17.31 -9.02 19.62 -8 22 C-4.60581779 23.41349769 -4.60581779 23.41349769 -1 23 C1.14589423 21.10413616 1.14589423 21.10413616 3 19 C5.75 18.75 5.75 18.75 8 19 C7.69895795 21.80972581 6.95275592 23.05669289 5.125 25.25 C0.49269962 27.84408821 -3.8093693 27.91323878 -9 27 C-12.0625 24.75 -12.0625 24.75 -14 22 C-14.433125 21.401875 -14.86625 20.80375 -15.3125 20.1875 C-16.80309206 15.44470708 -16.46540352 11.34449905 -14.875 6.75 C-11.01924576 1.09489378 -6.79094631 -0.97013519 0 0 Z " fill="#A7A7A7" transform="translate(746,852)"/>
<path d="M0 0 C3.37309578 1.86216093 5.16151574 3.68828737 6.6875 7.3125 C6.6875 7.9725 6.6875 8.6325 6.6875 9.3125 C5.0375 9.6425 3.3875 9.9725 1.6875 10.3125 C1.213125 9.343125 0.73875 8.37375 0.25 7.375 C-2.44821199 4.15030762 -2.85581324 3.80816677 -6.75 3.25 C-10.7732028 3.06472092 -13.20415521 3.58092428 -16.3125 6.3125 C-18.55008933 9.75132149 -18.5812113 12.70368032 -18.5625 16.75 C-18.56765625 17.86246094 -18.5728125 18.97492187 -18.578125 20.12109375 C-18.31208614 23.31747238 -17.80779786 25.48638704 -16.3125 28.3125 C-13.05254414 30.48580391 -12.08270034 30.56171459 -8.3125 30.5 C-7.44625 30.49355469 -6.58 30.48710938 -5.6875 30.48046875 C-3.16322535 30.40080437 -3.16322535 30.40080437 -0.3125 29.3125 C0.91270264 26.30402582 0.91270264 26.30402582 1.6875 23.3125 C3.3375 23.3125 4.9875 23.3125 6.6875 23.3125 C6.61228893 26.47136495 6.31272327 28.61334288 4.16796875 31.01171875 C-0.51839791 35.08639123 -3.84125314 36.63324077 -10.25390625 36.52734375 C-14.71907554 36.06133936 -17.53868878 34.12930073 -20.5625 30.9375 C-25.10805709 24.11916436 -25.07381964 17.31105571 -24.3125 9.3125 C-22.20119839 4.77711135 -19.40697668 2.1471377 -15.3125 -0.6875 C-9.85926079 -2.5052464 -5.18256242 -2.37135698 0 0 Z " fill="#A7A7A7" transform="translate(840.3125,843.6875)"/>
<path d="M0 0 C2.75329021 1.79562405 4.52627461 3.05254922 6 6 C6.08400529 7.59447464 6.10727467 9.19240545 6.09765625 10.7890625 C6.09443359 11.73007812 6.09121094 12.67109375 6.08789062 13.640625 C6.07951172 14.62546875 6.07113281 15.6103125 6.0625 16.625 C6.05798828 17.61757813 6.05347656 18.61015625 6.04882812 19.6328125 C6.03702145 22.0886016 6.020554 24.54427104 6 27 C4.35 27 2.7 27 1 27 C0.67 19.74 0.34 12.48 0 5 C-6.3951847 4.37022947 -6.3951847 4.37022947 -8.90551758 6.22192383 C-10.25894343 8.42067477 -10.42530179 9.87399331 -10.51171875 12.44921875 C-10.54716797 13.29677734 -10.58261719 14.14433594 -10.61914062 15.01757812 C-10.64169922 15.89865234 -10.66425781 16.77972656 -10.6875 17.6875 C-10.72166016 18.58017578 -10.75582031 19.47285156 -10.79101562 20.39257812 C-10.87345648 22.59492671 -10.94261551 24.79687938 -11 27 C-12.65 27 -14.3 27 -16 27 C-16 18.42 -16 9.84 -16 1 C-14.68 1 -13.36 1 -12 1 C-11.67 1.66 -11.34 2.32 -11 3 C-10.484375 2.505 -9.96875 2.01 -9.4375 1.5 C-6.06236872 -0.57700386 -3.90199054 -0.47919182 0 0 Z " fill="#A4A4A4" transform="translate(511,852)"/>
<path d="M0 0 C1.65 0 3.3 0 5 0 C5.01981934 0.59538574 5.03963867 1.19077148 5.06005859 1.80419922 C5.15516126 4.49492153 5.26489842 7.18485148 5.375 9.875 C5.4059375 10.81214844 5.436875 11.74929688 5.46875 12.71484375 C5.50742187 13.61074219 5.54609375 14.50664063 5.5859375 15.4296875 C5.6173584 16.25710449 5.6487793 17.08452148 5.68115234 17.93701172 C5.82599137 20.21986085 5.82599137 20.21986085 8 22 C11.03344954 21.91115 11.03344954 21.91115 14 21 C16.0140956 17.9788566 16.26836596 17.19339983 16.4140625 13.76953125 C16.45273437 12.96708984 16.49140625 12.16464844 16.53125 11.33789062 C16.57765625 10.08782227 16.57765625 10.08782227 16.625 8.8125 C16.66367187 7.96751953 16.70234375 7.12253906 16.7421875 6.25195312 C16.83636279 4.16832476 16.91926675 2.08419247 17 0 C18.65 0 20.3 0 22 0 C22 8.58 22 17.16 22 26 C20.68 26 19.36 26 18 26 C18 25.01 18 24.02 18 23 C17.44441406 23.48726562 16.88882813 23.97453125 16.31640625 24.4765625 C13.60827076 26.25762968 12.14562346 26.40403279 8.9375 26.375 C8.08027344 26.38273438 7.22304688 26.39046875 6.33984375 26.3984375 C3.54043154 25.92174293 2.69057148 25.24356216 1 23 C0.03911617 20.11734851 -0.11670941 18.32337729 -0.09765625 15.33203125 C-0.09443359 14.43935547 -0.09121094 13.54667969 -0.08789062 12.62695312 C-0.07951172 11.69818359 -0.07113281 10.76941406 -0.0625 9.8125 C-0.05798828 8.87212891 -0.05347656 7.93175781 -0.04882812 6.96289062 C-0.03704626 4.64186288 -0.02059558 2.32096356 0 0 Z " fill="#A4A4A4" transform="translate(906,853)"/>
<path d="M0 0 C1.65 0 3.3 0 5 0 C5.79441072 1.87383903 6.58539974 3.74912886 7.375 5.625 C8.03628906 7.19121094 8.03628906 7.19121094 8.7109375 8.7890625 C9.9255467 11.81454359 10.96903873 14.9071162 12 18 C14.31 12.06 16.62 6.12 19 0 C20.65 0 22.3 0 24 0 C21.69268131 6.6759221 19.35628487 13.34121006 17 20 C16.74992188 20.71236816 16.49984375 21.42473633 16.2421875 22.15869141 C15.61142621 23.94358272 14.96270378 25.72209903 14.3125 27.5 C13.95800781 28.4796875 13.60351562 29.459375 13.23828125 30.46875 C11.85694126 33.29243554 10.41988252 35.00441288 8 37 C5.25 37.25 5.25 37.25 3 37 C2.67 35.35 2.34 33.7 2 32 C3.98 31.34 5.96 30.68 8 30 C9.24694531 25.69959306 8.68433574 23.19788315 7.12890625 19.04296875 C6.71962891 17.93115234 6.31035156 16.81933594 5.88867188 15.67382812 C5.45103516 14.52333984 5.01339844 13.37285156 4.5625 12.1875 C4.12873047 11.01767578 3.69496094 9.84785156 3.24804688 8.64257812 C2.17640416 5.7573862 1.09341674 2.87699535 0 0 Z " fill="#A7A7A7" transform="translate(625,853)"/>
<path d="M0 0 C2.625 2.3125 2.625 2.3125 3.5 5.0625 C3.54125 5.805 3.5825 6.5475 3.625 7.3125 C1.25 7 1.25 7 -1.375 6.3125 C-2.035 5.3225 -2.695 4.3325 -3.375 3.3125 C-6.61234607 2.89922178 -8.53105906 2.67226895 -11.1875 4.6875 C-13.77853697 8.23312954 -13.59603903 10.96539916 -13.375 15.3125 C-12.4775173 18.14628132 -12.4775173 18.14628132 -11.375 20.3125 C-8.02041845 21.07772801 -8.02041845 21.07772801 -4.375 21.3125 C-2.22639927 19.80847949 -1.53947508 18.64145015 -0.375 16.3125 C0.945 16.3125 2.265 16.3125 3.625 16.3125 C3.30707686 19.17380829 2.72676021 21.14135783 1.25 23.625 C-3.02283606 26.37182318 -7.4554677 26.17250713 -12.375 25.3125 C-15.78811667 22.78679367 -17.04137768 21.31336696 -18.375 17.3125 C-18.88736616 11.96205335 -19.02241984 7.63046182 -16.625 2.75 C-11.76711128 -2.51271278 -6.54582989 -3.27291495 0 0 Z " fill="#ABABAB" transform="translate(898.375,853.6875)"/>
<path d="M0 0 C12.71244355 -0.41909155 12.71244355 -0.41909155 17 3 C17.5625 6.5 17.5625 6.5 17 10 C14.61066536 12.52818217 13.25868598 12.9765683 9.765625 13.29296875 C8.60546875 13.25816406 7.4453125 13.22335937 6.25 13.1875 C4.1875 13.125625 2.125 13.06375 0 13 C0 8.71 0 4.42 0 0 Z " fill="#070707" transform="translate(571,862)"/>
<path d="M0 0 C0 2.97 0 5.94 0 9 C1.65 9 3.3 9 5 9 C5 9.99 5 10.98 5 12 C3.35 12 1.7 12 0 12 C0.33 17.94 0.66 23.88 1 30 C2.32 30.33 3.64 30.66 5 31 C5 32.32 5 33.64 5 35 C1.625 35.125 1.625 35.125 -2 35 C-4 33 -4 33 -4.22705078 30.84521484 C-4.21657715 29.97590332 -4.20610352 29.1065918 -4.1953125 28.2109375 C-4.18886719 27.26992188 -4.18242188 26.32890625 -4.17578125 25.359375 C-4.15902344 24.37453125 -4.14226563 23.3896875 -4.125 22.375 C-4.11597656 21.38242187 -4.10695313 20.38984375 -4.09765625 19.3671875 C-4.07404116 16.91121866 -4.04110799 14.45572832 -4 12 C-4.99 12 -5.98 12 -7 12 C-7 11.01 -7 10.02 -7 9 C-6.01 9 -5.02 9 -4 9 C-4.061875 7.88625 -4.12375 6.7725 -4.1875 5.625 C-4.125625 4.42875 -4.06375 3.2325 -4 2 C-1 0 -1 0 0 0 Z " fill="#B1B1B1" transform="translate(793,844)"/>
<path d="M0 0 C0.66 0 1.32 0 2 0 C2 2.97 2 5.94 2 9 C3.32 9 4.64 9 6 9 C6 9.99 6 10.98 6 12 C4.68 12 3.36 12 2 12 C2.33 17.94 2.66 23.88 3 30 C4.32 30.33 5.64 30.66 7 31 C7 32.32 7 33.64 7 35 C3.625 35.125 3.625 35.125 0 35 C-2 33 -2 33 -2.22705078 30.84521484 C-2.21657715 29.97590332 -2.20610352 29.1065918 -2.1953125 28.2109375 C-2.18886719 27.26992188 -2.18242188 26.32890625 -2.17578125 25.359375 C-2.15902344 24.37453125 -2.14226563 23.3896875 -2.125 22.375 C-2.11597656 21.38242187 -2.10695313 20.38984375 -2.09765625 19.3671875 C-2.07404116 16.91121866 -2.04110799 14.45572832 -2 12 C-2.99 12 -3.98 12 -5 12 C-5 11.01 -5 10.02 -5 9 C-4.01 9 -3.02 9 -2 9 C-2.04125 7.88625 -2.0825 6.7725 -2.125 5.625 C-2 2 -2 2 0 0 Z " fill="#B1B1B1" transform="translate(949,844)"/>
<path d="M0 0 C0.66 0 1.32 0 2 0 C2 2.97 2 5.94 2 9 C3.32 9 4.64 9 6 9 C6 9.99 6 10.98 6 12 C4.68 12 3.36 12 2 12 C2.33 17.94 2.66 23.88 3 30 C4.32 30.33 5.64 30.66 7 31 C7 32.32 7 33.64 7 35 C3.625 35.125 3.625 35.125 0 35 C-2 33 -2 33 -2.22705078 30.84521484 C-2.21657715 29.97590332 -2.20610352 29.1065918 -2.1953125 28.2109375 C-2.18886719 27.26992188 -2.18242188 26.32890625 -2.17578125 25.359375 C-2.15902344 24.37453125 -2.14226563 23.3896875 -2.125 22.375 C-2.11597656 21.38242187 -2.10695313 20.38984375 -2.09765625 19.3671875 C-2.07404116 16.91121866 -2.04110799 14.45572832 -2 12 C-2.99 12 -3.98 12 -5 12 C-5 11.01 -5 10.02 -5 9 C-4.01 9 -3.02 9 -2 9 C-2.04125 7.88625 -2.0825 6.7725 -2.125 5.625 C-2 2 -2 2 0 0 Z " fill="#B1B1B1" transform="translate(704,844)"/>
<path d="M0 0 C0.928125 0.20625 1.85625 0.4125 2.8125 0.625 C2.4825 2.275 2.1525 3.925 1.8125 5.625 C0.843125 5.604375 -0.12625 5.58375 -1.125 5.5625 C-4.06215895 5.26881501 -4.06215895 5.26881501 -5.1875 6.625 C-5.34405027 8.11138992 -5.43816943 9.60449127 -5.50390625 11.09765625 C-5.54580078 11.99677734 -5.58769531 12.89589844 -5.63085938 13.82226562 C-5.68983398 15.24055664 -5.68983398 15.24055664 -5.75 16.6875 C-5.81477539 18.1115918 -5.81477539 18.1115918 -5.88085938 19.56445312 C-5.98729276 21.91781353 -6.08931008 24.27128354 -6.1875 26.625 C-7.8375 26.625 -9.4875 26.625 -11.1875 26.625 C-11.1875 18.045 -11.1875 9.465 -11.1875 0.625 C-8.7125 1.12 -8.7125 1.12 -6.1875 1.625 C-3.1875 -0.375 -3.1875 -0.375 0 0 Z " fill="#A6A6A6" transform="translate(875.1875,852.375)"/>
<path d="M0 0 C0.928125 0.20625 1.85625 0.4125 2.8125 0.625 C2.4825 2.275 2.1525 3.925 1.8125 5.625 C0.843125 5.604375 -0.12625 5.58375 -1.125 5.5625 C-4.06215895 5.26881501 -4.06215895 5.26881501 -5.1875 6.625 C-5.34405027 8.11138992 -5.43816943 9.60449127 -5.50390625 11.09765625 C-5.54580078 11.99677734 -5.58769531 12.89589844 -5.63085938 13.82226562 C-5.68983398 15.24055664 -5.68983398 15.24055664 -5.75 16.6875 C-5.81477539 18.1115918 -5.81477539 18.1115918 -5.88085938 19.56445312 C-5.98729276 21.91781353 -6.08931008 24.27128354 -6.1875 26.625 C-7.8375 26.625 -9.4875 26.625 -11.1875 26.625 C-11.1875 18.045 -11.1875 9.465 -11.1875 0.625 C-8.7125 1.12 -8.7125 1.12 -6.1875 1.625 C-3.1875 -0.375 -3.1875 -0.375 0 0 Z " fill="#A6A6A6" transform="translate(478.1875,852.375)"/>
<path d="M0 0 C2.10353495 -0.0810206 4.20795952 -0.13919907 6.3125 -0.1875 C7.48425781 -0.22230469 8.65601563 -0.25710938 9.86328125 -0.29296875 C13 0 13 0 14.890625 1.35546875 C16.49693349 3.7366514 16.49083466 5.19523051 16 8 C13.65047745 10.36073745 12.32960257 10.96797902 8.984375 11.29296875 C7.91703125 11.25816406 6.8496875 11.22335937 5.75 11.1875 C4.13351562 11.14689453 4.13351562 11.14689453 2.484375 11.10546875 C1.66453125 11.07066406 0.8446875 11.03585937 0 11 C0 7.37 0 3.74 0 0 Z " fill="#030303" transform="translate(571,847)"/>
<path d="M0 0 C3.625 0.375 3.625 0.375 7 1 C6.67 2.32 6.34 3.64 6 5 C4.865625 5.28875 3.73125 5.5775 2.5625 5.875 C1.386875 6.24625 0.21125 6.6175 -1 7 C-2.11823815 9.23647631 -2.19396061 10.64891529 -2.31640625 13.1328125 C-2.35830078 13.93847656 -2.40019531 14.74414062 -2.44335938 15.57421875 C-2.50233398 16.83685547 -2.50233398 16.83685547 -2.5625 18.125 C-2.62727539 19.39923828 -2.62727539 19.39923828 -2.69335938 20.69921875 C-2.79954236 22.79928223 -2.90028497 24.89961948 -3 27 C-4.32 27 -5.64 27 -7 27 C-7 18.42 -7 9.84 -7 1 C-4.525 1.495 -4.525 1.495 -2 2 C-1.34 1.34 -0.68 0.68 0 0 Z " fill="#ADADAD" transform="translate(722,852)"/>
<path d="M0 0 C1.65 0 3.3 0 5 0 C5 8.58 5 17.16 5 26 C3.35 26 1.7 26 0 26 C0 17.42 0 8.84 0 0 Z " fill="#A2A2A2" transform="translate(484,853)"/>
<path d="M0 0 C-0.48355011 6.40703902 -0.48355011 6.40703902 -2.6875 8.9375 C-5.66455559 10.30533635 -7.75641537 10.34506219 -11 10 C-11.99 9.34 -12.98 8.68 -14 8 C-13.75 5.625 -13.75 5.625 -13 3 C-9.28892095 0.25105255 -4.49583229 0 0 0 Z " fill="#0F0F0F" transform="translate(456,866)"/>
<path d="M0 0 C1.32 0 2.64 0 4 0 C4 8.58 4 17.16 4 26 C2.68 26 1.36 26 0 26 C0 17.42 0 8.84 0 0 Z " fill="#B4B4B4" transform="translate(935,853)"/>
<path d="M0 0 C1.32 0 2.64 0 4 0 C4 8.58 4 17.16 4 26 C2.68 26 1.36 26 0 26 C0 17.42 0 8.84 0 0 Z " fill="#B4B4B4" transform="translate(853,853)"/>
<path d="M0 0 C0.36768802 5.51532033 0.36768802 5.51532033 -1.375 7.8125 C-4.63647802 10.19588778 -6.99355269 10.25040296 -11 10 C-11.66 9.34 -12.32 8.68 -13 8 C-12.9375 5.5 -12.9375 5.5 -12 3 C-8.45000534 0.97143162 -4.10826587 0 0 0 Z " fill="#050505" transform="translate(616,866)"/>
<path d="M0 0 C0.36768802 5.51532033 0.36768802 5.51532033 -1.375 7.8125 C-4.63647802 10.19588778 -6.99355269 10.25040296 -11 10 C-11.66 9.34 -12.32 8.68 -13 8 C-12.9375 5.5 -12.9375 5.5 -12 3 C-8.45000534 0.97143162 -4.10826587 0 0 0 Z " fill="#050505" transform="translate(540,866)"/>
<path d="M0 0 C2.375 1.8125 2.375 1.8125 4 4 C4 4.99 4 5.98 4 7 C-0.62 7 -5.24 7 -10 7 C-9.67 5.35 -9.34 3.7 -9 2 C-5.50875983 -0.32749345 -4.10777749 -0.50299316 0 0 Z " fill="#040404" transform="translate(774,856)"/>
<path d="M0 0 C3.5625 0.3125 3.5625 0.3125 5.5 1.5625 C6.5625 3.3125 6.5625 3.3125 6.5625 7.3125 C2.2725 7.3125 -2.0175 7.3125 -6.4375 7.3125 C-5.06712963 0.46064815 -5.06712963 0.46064815 0 0 Z " fill="#040404" transform="translate(742.4375,855.6875)"/>
<path d="M0 0 C1.65 0 3.3 0 5 0 C5 1.65 5 3.3 5 5 C3.35 5 1.7 5 0 5 C0 3.35 0 1.7 0 0 Z " fill="#9D9D9D" transform="translate(484,843)"/>
<path d="M0 0 C1.32 0 2.64 0 4 0 C4 1.65 4 3.3 4 5 C2.68 5 1.36 5 0 5 C0 3.35 0 1.7 0 0 Z " fill="#AFAFAF" transform="translate(935,843)"/>
<path d="M0 0 C1.32 0 2.64 0 4 0 C4 1.65 4 3.3 4 5 C2.68 5 1.36 5 0 5 C0 3.35 0 1.7 0 0 Z " fill="#AFAFAF" transform="translate(853,843)"/>
</svg>
