<?xml version="1.0" encoding="UTF-8"?>
<svg version="1.1" xmlns="http://www.w3.org/2000/svg" width="1350" height="1080">
<path d="M0 0 C445.5 0 891 0 1350 0 C1350 356.4 1350 712.8 1350 1080 C904.5 1080 459 1080 0 1080 C0 723.6 0 367.2 0 0 Z " fill="#000000" transform="translate(0,0)"/>
<path d="M0 0 C0.00257813 0.56847656 0.00515625 1.13695312 0.0078125 1.72265625 C0.27944851 7.14632198 1.27015629 10.39025086 5.0703125 14.30859375 C8.81642267 17.59212756 12.7705064 20.37524514 17 23 C17.66386719 23.43828125 18.32773437 23.8765625 19.01171875 24.328125 C26.36236204 28.42946625 35.8653824 28.34273335 44 27 C48.59003805 25.33717371 52.14240207 22.96255147 56 20 C56.55059082 19.58266602 57.10118164 19.16533203 57.66845703 18.73535156 C59.95281693 17.00238888 62.23329685 15.26940347 64.4621582 13.46533203 C74.3435542 5.51543597 83.41400024 5.84761745 95.5703125 5.8671875 C96.88353485 5.86623077 98.1967572 5.86527405 99.54977417 5.86428833 C102.32518699 5.86281888 105.10056751 5.86493956 107.87597656 5.86962891 C111.39559098 5.87529217 114.91512854 5.8720641 118.43474007 5.86605644 C121.83410329 5.86152285 125.23344711 5.86472173 128.6328125 5.8671875 C129.87805695 5.86516327 131.12330139 5.86313904 132.40628052 5.86105347 C139.3498325 5.87932797 146.203307 6.15769095 153.12042236 6.77294922 C157.62276627 7.12795291 162.111171 7.14599455 166.625 7.125 C167.49511719 7.12886719 168.36523438 7.13273438 169.26171875 7.13671875 C170.09574219 7.13542969 170.92976562 7.13414062 171.7890625 7.1328125 C172.52850098 7.13168457 173.26793945 7.13055664 174.02978516 7.12939453 C176.21372387 7.06952361 176.21372387 7.06952361 179 6 C185.22902738 5.49150797 190.72027152 5.26555791 196 9 C197.9375 11.0625 197.9375 11.0625 200 14 C200.55945312 14.77085937 201.11890625 15.54171875 201.6953125 16.3359375 C205.92072795 22.22323182 209.57164172 27.40369061 210.875 34.625 C211.51838436 37.65954512 211.83466951 38.81333655 213.9375 41.1875 C215.4534375 42.0846875 215.4534375 42.0846875 217 43 C218.09441406 43.72316406 218.09441406 43.72316406 219.2109375 44.4609375 C233.95545818 53.53789467 256.09583111 54.88242035 272.77734375 51.15625 C275.72224833 49.98619395 278.2906686 48.64130511 281 47 C282.18817408 46.3273086 283.37841798 45.6582647 284.5703125 44.9921875 C286.9614639 43.64865602 289.31971203 42.2737143 291.67578125 40.8671875 C296.50301959 38.15576573 301.19209415 35.91606216 306.6875 35.0625 C311.64517611 34.17208024 316.22261704 32.63574305 320.9453125 30.90234375 C329.57955516 28.35181938 342.7706847 26.83942711 351.41015625 29.8359375 C353.23635324 31.0755883 354.55277279 32.33508402 356 34 C356.57621094 34.60457031 357.15242188 35.20914063 357.74609375 35.83203125 C359.57975809 37.83131688 361.29880283 39.88722287 363 42 C363.80824219 42.99580078 363.80824219 42.99580078 364.6328125 44.01171875 C371.13795958 52.33111539 374.08362292 60.90285448 377 71 C377.391875 72.2375 377.78375 73.475 378.1875 74.75 C380.58648329 84.34593316 382.65480415 99.62286939 378.25 108.8125 C374.39815127 114.2692857 371.72611052 116.38777079 365.25 118.25 C357.29835701 120.68217496 350.17320568 124.24829528 342.81445312 128.07177734 C338.62295383 130.21602927 334.3384019 132.17296468 330 134 C328.80632813 134.54398438 327.61265625 135.08796875 326.3828125 135.6484375 C321.21826445 137.5587871 316.29383707 137.17448709 310.875 136.8125 C309.91207031 136.76802734 308.94914062 136.72355469 307.95703125 136.67773438 C296.9569761 136.06493901 288.92806697 131.92603713 280.3125 125.1875 C276.61356272 122.30638049 272.67510691 120.02656174 268.625 117.6875 C263.99616181 114.99507798 259.95311299 112.28853546 256.0625 108.5625 C250.3390441 103.10480988 243.76319945 99.28384651 237.02392578 95.22314453 C226.71553725 88.9933464 216.93973941 82.41458412 208.06103516 74.20776367 C202.39006873 69.01494249 196.40884461 64.67317976 190 60.4375 C172.30407585 48.66873277 172.30407585 48.66873277 166.875 42.6875 C157.18892954 32.75761541 136.69599963 18.34119389 122.68359375 16.734375 C121.57177734 16.74210937 121.57177734 16.74210937 120.4375 16.75 C119.69371094 16.74484375 118.94992187 16.7396875 118.18359375 16.734375 C115.73106801 17.03271445 114.1789564 17.86574872 112 19 C110.55034052 19.33210381 109.09070872 19.62300096 107.625 19.875 C99.48865528 21.63277005 95.41101998 26.31054721 91 33 C88.59459651 37.32937072 86.39589426 41.75514005 84.1875 46.1875 C76.19326625 61.90819044 67.08456752 74.39907914 54.83496094 87.07519531 C53.08937253 88.9062516 51.38467853 90.76553045 49.6953125 92.6484375 C48.94386963 93.48556274 48.94386963 93.48556274 48.17724609 94.33959961 C46.839478 95.83732321 45.50553748 97.33846311 44.171875 98.83984375 C41.26644422 101.72959775 39.57988721 101.98451518 35.50460815 102.09333801 C34.0263057 102.08403356 32.54803219 102.06917758 31.06982422 102.05004883 C30.26098282 102.04376968 29.45214142 102.03749054 28.61878967 102.03102112 C26.85747506 102.01715635 25.09617585 102.0012174 23.33489609 101.98346901 C20.52177882 101.95671831 17.70874196 101.93890975 14.89553833 101.92399597 C6.89407907 101.88142254 -1.10723064 101.83494716 -9.10839844 101.75317383 C-36.00555447 101.24583981 -36.00555447 101.24583981 -62.7421875 103.69921875 C-63.68699982 103.847043 -64.63181213 103.99486725 -65.60525513 104.14717102 C-74.73937114 105.87375015 -81.96040682 110.57735147 -89.125 116.3125 C-89.73118164 116.79759033 -90.33736328 117.28268066 -90.96191406 117.7824707 C-108.42853355 132.00764342 -120.12327648 154.48807439 -122.76470947 176.64422607 C-123.93173947 188.32875447 -124.16250288 199.9715397 -124.16796875 211.703125 C-124.17119374 213.35927355 -124.17455868 215.01542183 -124.17805481 216.67156982 C-124.18398739 220.11373556 -124.18590051 223.5558764 -124.18530273 226.99804688 C-124.18520069 231.38084036 -124.19892286 235.76347341 -124.21607494 240.14622879 C-124.22725021 243.55569172 -124.22922036 246.96511628 -124.22869301 250.37459564 C-124.2298621 251.98992217 -124.23422265 253.60525006 -124.24202538 255.22055817 C-124.28059927 264.01880499 -123.94875468 272.3742049 -122 281 C-121.38991879 284.89799976 -121.12157688 288.13613945 -122 292 C-123.65068054 293.62504578 -123.65068054 293.62504578 -125.8581543 294.97924805 C-126.67810883 295.4825766 -127.49806335 295.98590515 -128.34286499 296.50448608 C-132.80229867 299.01438682 -137.34859927 301.29715949 -141.95703125 303.51953125 C-144.06071188 304.55239838 -146.16422222 305.58561239 -148.26757812 306.61914062 C-151.53650062 308.21651345 -154.80722342 309.80994269 -158.08129883 311.39672852 C-174.13062968 319.1119426 -174.13062968 319.1119426 -188.74536133 329.17895508 C-191.66011808 331.53316954 -194.62423703 333.19691068 -197.9375 334.9375 C-205.22464582 338.90923983 -211.57150168 343.75974804 -218 349 C-218.79277344 349.61222412 -218.79277344 349.61222412 -219.6015625 350.23681641 C-226.61473501 355.77091774 -227.58817677 360.89190087 -228.625 369.375 C-228.74617188 370.29539062 -228.86734375 371.21578125 -228.9921875 372.1640625 C-229.21959526 373.89433894 -229.44235839 375.62523764 -229.65869141 377.35693359 C-229.90712304 379.28076825 -230.19626094 381.19947819 -230.50949097 383.11383057 C-231.04826407 387.38238308 -231.16678201 391.52580605 -231.18945312 395.82177734 C-231.19774643 396.67641068 -231.20603973 397.53104401 -231.21458435 398.41157532 C-231.2319021 400.2568521 -231.24709099 402.10214985 -231.26036072 403.94746017 C-231.28152655 406.8741783 -231.30853845 409.80079216 -231.33703613 412.72744751 C-231.39652737 418.94325753 -231.44876591 425.15911717 -231.5 431.375 C-231.55941799 438.57487403 -231.62186237 445.77469646 -231.69187927 452.97447586 C-231.71827216 455.8464412 -231.73919593 458.71841236 -231.7598877 461.59042358 C-231.77650664 463.36676278 -231.79337985 465.14309961 -231.81054688 466.91943359 C-231.8168235 468.10272499 -231.8168235 468.10272499 -231.82322693 469.30992126 C-231.86616823 473.17559746 -232.00626882 477.03113511 -232.29772949 480.88638306 C-232.37476734 481.96600532 -232.37476734 481.96600532 -232.45336151 483.06743813 C-233.16954945 485.59941773 -234.29889081 486.41091541 -236.42578125 487.8984375 C-241.1383254 490.34213402 -246.01455539 491.55810365 -251.1875 492.625 C-252.02474609 492.81578125 -252.86199219 493.0065625 -253.72460938 493.203125 C-259.1951982 494.39324585 -264.67527666 495.24316785 -270.22117615 495.97982788 C-282.23266425 497.58453172 -293.86629591 500.10018579 -305.625 503 C-307.45942807 503.44356672 -309.29406347 503.88627687 -311.12890625 504.328125 C-318.10271261 506.01551667 -325.06484949 507.70222475 -331.9609375 509.6875 C-342.73481358 512.65797096 -353.43992939 513.26304527 -364.5625 513.4375 C-376.58769879 513.73551676 -388.20424116 514.62956042 -400 517 C-401.04542969 517.20367188 -402.09085937 517.40734375 -403.16796875 517.6171875 C-409.20909607 519.02939908 -414.25110886 521.70675818 -419.65185547 524.65869141 C-425.00761129 527.39320118 -429.33774511 527.26460605 -435.203125 526.95703125 C-438.05013112 527.00077017 -439.41716643 527.22950579 -441.75 528.8125 C-444.55487749 532.78607644 -444.75698409 535.69516132 -444.89453125 540.4765625 C-445 543 -445 543 -446 546 C-446.27844438 549.22419388 -446.2774649 552.45259239 -446.3125 555.6875 C-446.34150391 556.56083984 -446.37050781 557.43417969 -446.40039062 558.33398438 C-446.48877585 567.43766284 -443.22929392 572.96943738 -437.375 579.8125 C-430.748122 587.61724502 -430.748122 587.61724502 -430.734375 592.7890625 C-430.73179687 593.73136719 -430.72921875 594.67367187 -430.7265625 595.64453125 C-430.73429687 596.62808594 -430.74203125 597.61164062 -430.75 598.625 C-430.74226563 599.58535156 -430.73453125 600.54570313 -430.7265625 601.53515625 C-430.75003318 610.18410365 -431.18023469 618.16027583 -437 625 C-457.05907051 639.03582344 -487.48265313 644.96007707 -511 650 C-512.56717773 650.33668701 -512.56717773 650.33668701 -514.16601562 650.68017578 C-538.77552319 655.73156021 -564.06598097 654.79304125 -589 653 C-589.37511719 651.81664062 -589.75023437 650.63328125 -590.13671875 649.4140625 C-593.20752421 639.44179855 -593.20752421 639.44179855 -597.6875 630.0625 C-600.63135946 624.68878829 -601.03728956 618.96311417 -601.83666992 612.98022461 C-602.89554842 605.56512765 -605.3028247 599.90555382 -609.55688477 593.74560547 C-611.21919687 590.58296599 -611.36857417 588.61455077 -611.37109375 585.0625 C-611.3858374 583.92570801 -611.40058105 582.78891602 -611.41577148 581.61767578 C-611.4265271 579.82692627 -611.4265271 579.82692627 -611.4375 578 C-611.65384458 567.29626318 -612.40649808 558.43917941 -617.11328125 548.6953125 C-618.30952454 545.05915447 -618.21057913 541.5352166 -618.25 537.75 C-618.47639661 530.29644442 -619.88827105 524.06755099 -622.74121094 517.18652344 C-627.04248245 506.63371445 -627.23299292 495.75406141 -627.375 484.5 C-627.76769283 468.02613079 -629.2299589 452.76018959 -637 438 C-638.0002277 434.9993169 -638.16658436 432.84387992 -638.24609375 429.703125 C-638.27896484 428.6615625 -638.31183594 427.62 -638.34570312 426.546875 C-638.40646337 424.36467715 -638.46380551 422.18238121 -638.51757812 420 C-638.72050087 413.69254749 -638.72050087 413.69254749 -640.01171875 407.54296875 C-641.81278637 401.08617692 -641.36049706 394.27308733 -641.390625 387.60351562 C-641.53811772 380.51157421 -642.50487382 376.14805328 -646 370 C-645.75 366.1875 -645.75 366.1875 -645.3671875 364.22265625 C-644.9177004 361.50182477 -644.88218795 358.88157913 -644.875 356.125 C-644.87242187 355.19945312 -644.86984375 354.27390625 -644.8671875 353.3203125 C-644.84806792 350.97438894 -644.84806792 350.97438894 -646 349 C-646.11974272 346.63610082 -646.1793213 344.26906259 -646.2109375 341.90234375 C-646.2390376 340.44595291 -646.26770222 338.98957287 -646.296875 337.53320312 C-646.33788175 335.24487987 -646.37477632 332.9567514 -646.40136719 330.66821289 C-645.92533552 317.11006028 -645.92533552 317.11006028 -651.52490234 305.49194336 C-653 304 -653 304 -654.25 300.5 C-656.10394824 296.79210351 -657.11976686 296.01733354 -660.8828125 294.55371094 C-664.84943863 293.51631379 -668.8060422 293.7319021 -672.875 293.875 C-674.5806307 293.9181484 -676.28636519 293.95742937 -677.9921875 293.9921875 C-678.73839355 294.01651855 -679.48459961 294.04084961 -680.25341797 294.06591797 C-682 294 -682 294 -683 293 C-683.40499412 290.66590989 -683.74447782 288.35698071 -684.03515625 286.0078125 C-684.1238649 285.29271515 -684.21257355 284.5776178 -684.30397034 283.84085083 C-685.30820981 275.1475387 -685.38061571 266.44550538 -685.45629883 257.70361328 C-685.54688599 248.86190827 -686.15038064 240.78233542 -688.36352539 232.15283203 C-689.26170517 227.70362083 -689.79013953 223.63871381 -687.78515625 219.48046875 C-685.88921537 216.95684676 -683.98232455 214.45675844 -682 212 C-681.33613281 211.15953125 -680.67226563 210.3190625 -679.98828125 209.453125 C-674.23363725 202.60286486 -667.5647596 197.64936354 -660 193 C-659.4023584 192.6297168 -658.8047168 192.25943359 -658.18896484 191.87792969 C-646.27100791 184.61917928 -633.55051828 179.02186174 -620.78808594 173.44091797 C-613.5733981 170.26043097 -606.84012523 166.93301613 -600.28710938 162.48779297 C-596.05167919 159.73259319 -591.44235589 157.92176272 -586.73071289 156.14355469 C-580.47257428 153.75596037 -574.8006733 150.76576404 -569 147.4375 C-560.72804475 142.79565252 -552.33325885 138.85637039 -543.5625 135.25 C-530.72238968 129.96030552 -518.91992034 124.47242804 -507.81640625 116 C-504.62134272 113.73110606 -501.31066541 111.872918 -497.875 110 C-492.6864795 107.15836871 -488.48580705 103.92823484 -484.19140625 99.87109375 C-480.23124206 96.48977709 -475.62315518 94.3389876 -471 92 C-468.76733674 90.8190872 -466.53823471 89.63142012 -464.3125 88.4375 C-462.66121094 87.55191406 -462.66121094 87.55191406 -460.9765625 86.6484375 C-458.64386216 85.35657458 -456.41377411 84.02379886 -454.1875 82.5625 C-449.77186675 79.71460209 -445.03374683 77.51285319 -440.31689453 75.21850586 C-436.32725903 73.25012161 -432.54026217 71.14325933 -428.79980469 68.73730469 C-407.75078976 55.26072908 -381.6764841 48.02464273 -357.88305664 40.93139648 C-355.22935807 40.07409612 -352.73082776 39.07577655 -350.1875 37.9375 C-325.57778402 27.92743868 -294.73204085 32.26587155 -270.94921875 42.2578125 C-261.96407885 46.15460168 -253.04933727 50.4474374 -244.8671875 55.84765625 C-241.80164312 57.73957172 -238.54863966 59.24602768 -235.296875 60.7890625 C-233 62 -233 62 -230.99609375 63.546875 C-228.80504948 65.14192093 -226.89853883 65.84705113 -224.3125 66.625 C-220.08941176 67.91058824 -220.08941176 67.91058824 -219 69 C-215.15627588 69.30146856 -212.65570857 69.33513994 -209.1875 67.5625 C-205.45397664 65.73234149 -202.48886974 65.60044848 -198.39453125 65.32421875 C-195.74485644 65.09967529 -195.74485644 65.09967529 -192.6875 63.3125 C-190 62 -190 62 -187.5625 62.5625 C-185.58059212 63.67430198 -183.65197777 64.88139915 -181.75 66.125 C-174.76353489 70.08747275 -166.95769644 67.93384898 -159.55102539 66.1159668 C-153.07260428 64.30781156 -147.48712347 61.26533251 -141.64453125 57.9934082 C-135.1752245 54.43879413 -128.56628169 51.80414549 -121.625 49.3125 C-109.38664738 44.87746542 -99.33685968 40.44672945 -89.80078125 31.34765625 C-86.36884489 28.47095646 -82.76441531 26.26337924 -78.875 24.0625 C-77.88922974 23.49619873 -77.88922974 23.49619873 -76.88354492 22.91845703 C-66.81484548 17.40036185 -56.94908543 17.65970493 -45.71044922 17.77001953 C-32.15628143 17.87124314 -22.68771071 13.86875416 -12.375 5.1875 C-4.42611883 -1.32783565 -4.42611883 -1.32783565 0 0 Z " fill="#000000" transform="translate(847,140)"/>
<path d="M0 0 C5.4419364 -0.36984034 9.60898369 1.04950421 14.01171875 4.23828125 C18.21713091 8.20962594 21.67598669 12.48741025 24.57421875 17.48828125 C26.98688321 21.52283721 29.72866656 24.22654461 34.01171875 26.23828125 C41.1979622 27.48205416 48.69295888 24.50084454 54.6015625 20.47265625 C56.37124094 19.1207816 58.13805946 17.76515683 59.90234375 16.40625 C63.5985733 13.82910503 67.41835782 11.79913373 71.44921875 9.80078125 C72.13588623 9.45885742 72.82255371 9.11693359 73.5300293 8.76464844 C78.98644826 6.11625449 82.85180925 5.10242095 88.89306641 5.20068359 C90.68161041 5.22604691 90.68161041 5.22604691 92.50628662 5.25192261 C93.79971985 5.27578033 95.09315308 5.29963806 96.42578125 5.32421875 C97.78630945 5.3457197 99.14684437 5.36679908 100.50738525 5.38748169 C104.13623742 5.44417326 107.76493532 5.50780606 111.39363861 5.57327271 C113.63140195 5.61318642 115.8691886 5.65128169 118.10699463 5.6887207 C135.03478006 5.97208181 151.96291416 6.26928054 168.88671875 6.73828125 C169.91505829 6.7649588 169.91505829 6.7649588 170.96417236 6.79217529 C172.83172972 6.84191653 174.69908172 6.89920605 176.56640625 6.95703125 C177.56140137 6.98732422 178.55639648 7.01761719 179.58154297 7.04882812 C182.01171875 7.23828125 182.01171875 7.23828125 185.01171875 8.23828125 C186.61762252 8.3402852 188.22693543 8.39298917 189.8359375 8.4140625 C190.78275391 8.43791016 191.72957031 8.46175781 192.70507812 8.48632812 C194.68142979 8.5288719 196.65805454 8.56035047 198.63476562 8.58007812 C207.53572964 8.83886207 213.97659745 11.32111274 220.1484375 17.84765625 C225.82567682 25.13166141 233.9485725 36.22458869 234.63671875 45.55078125 C234.59874805 49.03595666 234.59874805 49.03595666 236.01171875 50.23828125 C240.85446065 50.71958443 245.70686539 50.92276437 250.56835938 51.12548828 C252.16422196 51.1991582 253.75947571 51.28801738 255.35351562 51.39404297 C267.33999502 52.19093508 274.70051524 50.51695039 285.01171875 44.23828125 C292.37963085 39.94748385 299.92399183 37.7136597 308.1015625 35.47949219 C314.42375735 33.74111407 320.44561516 31.70963053 326.515625 29.21875 C332.39520948 26.90924185 337.94336912 27.01981672 344.19921875 26.98828125 C345.20275391 26.96765625 346.20628906 26.94703125 347.24023438 26.92578125 C360.93315274 26.85451037 370.26656717 32.42473288 380.234375 41.46484375 C384.31123352 45.53274214 386.91578286 49.93950933 389.38671875 55.11328125 C391.11260099 58.7007283 393.01318289 61.70194781 395.51171875 64.80078125 C401.6527504 72.50717391 404.37884852 78.47460111 405.34277344 88.34912109 C405.79994149 92.97439305 406.63108641 97.02641349 408.328125 101.34375 C412.69679475 113.45120616 410.76066692 127.19213997 405.7109375 138.67578125 C400.56084386 149.47321895 394.9785912 158.12346595 383.44921875 162.73828125 C380.07407452 163.92435788 376.68125874 165.02457287 373.2734375 166.11230469 C370.1630858 167.10572117 367.05535074 168.10674804 363.94921875 169.11328125 C362.89782715 169.45311035 361.84643555 169.79293945 360.76318359 170.14306641 C354.12382205 172.35270444 348.42804378 174.76833042 342.671875 178.79296875 C330.75479451 185.26774082 309.85316695 184.65030836 297.16796875 181.140625 C293.57011323 179.87793954 290.30242908 178.16612859 287.01171875 176.23828125 C285.67560547 175.51318359 285.67560547 175.51318359 284.3125 174.7734375 C277.34453964 170.68015137 271.10546153 165.48257096 264.76416016 160.49853516 C253.8345456 151.92025731 242.30386934 144.479074 230.546875 137.09765625 C209.08186922 123.59899841 209.08186922 123.59899841 201.07421875 115.17578125 C196.89478284 110.87195737 192.20132487 108.17012446 187.01171875 105.23828125 C181.57531337 102.00711968 176.91615306 98.32922878 172.32421875 93.98828125 C163.15839227 85.34902409 152.66671924 78.58675435 142.14111328 71.72875977 C138.85814792 69.56685986 135.89686869 67.3461196 133.07421875 64.61328125 C129.92959096 62.17459031 128.06481286 61.35826731 124.0546875 61.74609375 C119.92534657 62.74092541 116.99986798 64.16886436 114.01171875 67.23828125 C112.26378942 70.27300277 110.91167854 73.35208692 109.55859375 76.58203125 C104.74574337 87.95785941 98.28501488 98.41022039 91.22021484 108.50976562 C90.11340128 110.09284441 89.02451178 111.68841579 87.9375 113.28515625 C82.83585139 120.47605144 76.94679237 126.53673432 70.59521484 132.63256836 C66.81180777 136.28863597 63.78583234 139.77070639 61.01171875 144.23828125 C57.12885417 148.12114583 50.01970742 147.29082784 44.73461914 147.3359375 C42.776181 147.32918752 40.81775608 147.31718426 38.859375 147.30078125 C36.63891669 147.291823 34.41845766 147.28304168 32.19799805 147.27441406 C31.03650238 147.26817017 29.87500671 147.26192627 28.67831421 147.25549316 C9.27025999 147.16280701 -10.14210991 147.16877155 -29.5486145 147.44580078 C-31.6998005 147.47390001 -33.85108763 147.4951691 -36.00241089 147.50927734 C-39.00479576 147.53044554 -42.00583147 147.5764936 -45.0078125 147.62890625 C-45.87534149 147.63013489 -46.74287048 147.63136353 -47.63668823 147.63262939 C-56.65305181 147.84819333 -64.41867345 150.83964662 -70.98828125 157.078125 C-90.49187846 178.1435337 -95.37199459 203.66324743 -95.21875 231.46484375 C-95.21755203 232.86957761 -95.21710633 234.27431228 -95.21736145 235.67904663 C-95.2158145 238.59500287 -95.20766423 241.51083323 -95.1940918 244.42675781 C-95.17707315 248.12551028 -95.17327963 251.82412592 -95.17403698 255.52291298 C-95.17376245 258.41432958 -95.16823696 261.30571753 -95.16103554 264.19712448 C-95.15640175 266.21137905 -95.15459197 268.22563951 -95.15287781 270.23989868 C-95.24610321 284.36539681 -95.24610321 284.36539681 -92.98828125 298.23828125 C-92.69058427 302.19275228 -92.66513418 306.14888934 -92.61328125 310.11328125 C-92.57589844 311.18964844 -92.53851562 312.26601563 -92.5 313.375 C-92.4013739 322.26230782 -92.4013739 322.26230782 -95.171875 325.8203125 C-97.89124113 328.15496942 -100.15578257 329.62214105 -103.42578125 331.05078125 C-109.45295692 333.87532483 -114.83511791 337.23043213 -120.37109375 340.89453125 C-129.12068442 346.61289437 -138.1610762 351.40359156 -147.55078125 355.98828125 C-162.7021876 363.47144784 -177.29913019 370.91624662 -189.98828125 382.23828125 C-190.99246094 382.975625 -191.99664063 383.71296875 -193.03125 384.47265625 C-197.90906714 388.43548829 -201.04486118 391.61674377 -201.89958191 397.90670776 C-202.05190495 399.69611689 -202.17801141 401.48789324 -202.28198242 403.28076172 C-202.35308574 404.24761335 -202.42418905 405.21446499 -202.49744701 406.21061516 C-203.12466226 415.48539456 -203.2556691 424.75743937 -203.23211098 434.05038834 C-203.22636635 436.97080959 -203.23591052 439.8908554 -203.24931335 442.81124878 C-203.28586005 451.09489129 -203.30493813 459.37838774 -203.29370117 467.66210938 C-203.28782181 472.77757369 -203.30621901 477.89248734 -203.33959007 483.0078392 C-203.34747584 484.93491958 -203.34636115 486.86206107 -203.33556557 488.78912735 C-203.26753274 501.45251421 -203.72318315 512.37897556 -212.36328125 522.48828125 C-224.78668877 533.78014501 -240.64204358 537.47333273 -256.77929688 539.5234375 C-263.76467251 540.49814108 -270.19279015 542.12772318 -276.86857605 544.31416321 C-284.09730886 546.65871489 -291.42613392 548.27064993 -298.86328125 549.80078125 C-299.56673676 549.94791565 -300.27019226 550.09505005 -300.9949646 550.24664307 C-321.51542731 554.53134777 -342.07890463 557.98316767 -363.06884766 558.52807617 C-379.03319574 558.96588518 -393.05364131 560.43373301 -407.71875 566.93359375 C-410.85380189 568.18461804 -413.64987799 568.82288054 -416.98828125 569.23828125 C-416.26802375 579.75404068 -412.85168938 587.33847668 -407.92626953 596.46875 C-406.70714498 598.76864973 -405.61034513 601.11110473 -404.55078125 603.48828125 C-404.11958984 604.45507812 -404.11958984 604.45507812 -403.6796875 605.44140625 C-399.46575254 616.39287565 -402.1875397 628.89285446 -404.17578125 640.05078125 C-404.37187988 641.19490479 -404.56797852 642.33902832 -404.77001953 643.51782227 C-406.61072448 653.25321612 -409.55114232 662.44312821 -417.515625 668.859375 C-421.51693882 671.09075538 -425.72688123 671.60537652 -430.203125 672.38671875 C-434.10585919 673.26473325 -437.46744019 674.65165099 -441.05078125 676.36328125 C-459.25273559 684.85507455 -479.26114001 689.64635764 -498.84716797 693.75561523 C-500.77587689 694.19039945 -502.68161957 694.72419572 -504.58203125 695.26953125 C-508.40314928 696.35627124 -512.20433528 697.11417271 -516.11328125 697.80078125 C-516.78359375 697.92646484 -517.45390625 698.05214844 -518.14453125 698.18164062 C-530.96892793 700.45809022 -543.96087331 700.45232707 -556.94384766 700.47851562 C-559.85087512 700.48823975 -562.75719928 700.51937162 -565.6640625 700.55078125 C-593.97636306 700.71607156 -593.97636306 700.71607156 -601.98828125 693.23828125 C-603.22545216 690.76393943 -603.2652144 688.74996576 -603.55078125 685.98828125 C-604.4879726 679.49948315 -606.51129415 673.78061047 -608.86328125 667.67578125 C-612.00443613 659.51004118 -614.11617867 651.62260211 -615.6184082 643.0144043 C-616.61778784 637.50091053 -618.24393969 633.01404231 -620.828125 628.01953125 C-622.83163139 623.21651256 -623.43513137 618.15898047 -624.21484375 613.03515625 C-624.84913613 609.20869778 -624.84913613 609.20869778 -626.54296875 605.78515625 C-628.50189576 600.97784347 -628.4514361 596.68062994 -628.515625 591.5546875 C-628.67219427 586.46158116 -629.848633 582.93376867 -631.98828125 578.23828125 C-632.58514337 575.75533482 -633.10363749 573.25250674 -633.55078125 570.73828125 C-633.67590088 570.04903564 -633.80102051 569.35979004 -633.92993164 568.6496582 C-634.76578581 563.92177388 -635.37053877 559.19404784 -635.92578125 554.42578125 C-636.90104243 546.71309077 -639.1228544 540.0485211 -642.53149414 533.08618164 C-644.21684822 529.13704324 -644.41260457 525.36043069 -644.39453125 521.109375 C-644.40536743 520.3566481 -644.41620361 519.6039212 -644.42736816 518.8283844 C-644.4728551 515.63898499 -644.48468356 512.44967501 -644.49951172 509.26000977 C-644.51527102 506.91784352 -644.54827365 504.57634007 -644.58203125 502.234375 C-644.57901001 501.52171982 -644.57598877 500.80906464 -644.57287598 500.07481384 C-644.64314049 495.36544648 -645.72528622 492.32384489 -647.98828125 488.23828125 C-648.359375 484.9765625 -648.359375 484.9765625 -648.42578125 481.55078125 C-648.72125835 475.70279696 -649.84703342 471.13046784 -652.00390625 465.72265625 C-654.92381038 458.35337439 -655.19752676 451.08232672 -655.52416992 443.25585938 C-655.83702669 436.9016531 -656.84699837 430.974981 -658.26953125 424.765625 C-659.6080903 418.19650096 -660.05739245 411.68839998 -660.22875977 404.99731445 C-660.52490881 393.9092934 -661.65434113 383.04051266 -663.05078125 372.05078125 C-664.61510319 359.7312147 -665.53805718 347.66932589 -664.98828125 335.23828125 C-666.13425781 335.2846875 -667.28023437 335.33109375 -668.4609375 335.37890625 C-669.99085916 335.41645034 -671.52080926 335.45284766 -673.05078125 335.48828125 C-673.80294922 335.52179688 -674.55511719 335.5553125 -675.33007812 335.58984375 C-681.88515324 335.70335154 -685.75118418 333.98217254 -690.80859375 329.6953125 C-698.97827612 319.3975991 -701.06794964 304.12445814 -701.234375 291.3671875 C-701.26730544 289.64127082 -701.30051721 287.91535948 -701.33398438 286.18945312 C-701.38136311 283.49279326 -701.42584854 280.79615632 -701.46508789 278.09936523 C-701.50500204 275.4800887 -701.55648294 272.86122976 -701.609375 270.2421875 C-701.61778915 269.44406143 -701.62620331 268.64593536 -701.63487244 267.82362366 C-701.74097443 262.97237105 -702.53231532 258.90562292 -703.98828125 254.23828125 C-705.16011868 245.48638303 -705.21697954 235.89657058 -700.53515625 228.203125 C-698.03153589 225.02302137 -695.20629108 222.66354545 -691.98828125 220.23828125 C-690.72880073 219.16598468 -689.47919489 218.08201086 -688.23828125 216.98828125 C-687.56539062 216.40175781 -686.8925 215.81523437 -686.19921875 215.2109375 C-684.62178255 213.80350767 -683.06671568 212.37083937 -681.52734375 210.921875 C-671.51359511 201.53949174 -661.83422379 193.79734776 -648.73730469 189.35009766 C-643.55644165 187.5658014 -639.45249614 185.1683797 -634.9609375 182.0859375 C-631.27599482 179.7955592 -627.44190262 178.07230692 -623.48828125 176.30078125 C-618.47606829 174.03463562 -613.98852888 171.7503499 -609.61328125 168.36328125 C-596.73514478 158.46886848 -580.99573703 152.29467532 -566.31640625 145.59375 C-558.66000134 142.09709911 -551.02931645 138.54672696 -543.40896606 134.972229 C-541.94472969 134.28610269 -540.47980675 133.60143923 -539.01412964 132.918396 C-520.63379816 124.74612763 -520.63379816 124.74612763 -504.67578125 112.80078125 C-499.15114034 107.72375195 -493.75898796 104.24874894 -486.96508789 101.11865234 C-482.21474737 98.91521233 -477.92685561 96.39208179 -473.61328125 93.42578125 C-450.4102254 77.53113641 -426.0931432 65.54718369 -399.98828125 55.23828125 C-399.00569336 54.84914551 -398.02310547 54.46000977 -397.01074219 54.05908203 C-394.46749914 53.06070149 -391.91836021 52.08091472 -389.36328125 51.11328125 C-388.66138672 50.84233643 -387.95949219 50.5713916 -387.23632812 50.29223633 C-383.36765133 48.8693014 -379.68759054 47.9905519 -375.609375 47.3671875 C-369.69332215 46.36855942 -364.95334242 44.06666306 -359.67578125 41.30078125 C-351.41100034 37.17752921 -344.18113024 34.51660971 -334.98828125 33.23828125 C-333.37373047 32.93857422 -333.37373047 32.93857422 -331.7265625 32.6328125 C-303.40850861 27.73224336 -273.8935801 32.78928342 -249.7734375 48.69921875 C-243.48527407 52.76233974 -236.99437398 55.1762213 -229.95922852 57.61499023 C-225.38028552 59.23585902 -221.46253655 60.97460726 -217.42578125 63.73828125 C-213.25320246 66.44286439 -210.39820318 66.78654285 -205.51953125 65.9296875 C-197.59481572 63.80546366 -197.59481572 63.80546366 -190.98828125 59.23828125 C-186.35689286 58.42739843 -181.82634015 58.28931599 -177.58984375 60.4765625 C-175.01520612 62.40514794 -172.71273344 64.37844436 -170.63745117 66.84155273 C-169.10279312 68.40213981 -169.10279312 68.40213981 -167.08911133 68.46191406 C-160.76414436 67.66382006 -155.45351466 65.62555065 -149.67578125 62.98828125 C-147.82049627 62.16625178 -145.96502863 61.34463445 -144.109375 60.5234375 C-142.78462158 59.93006592 -142.78462158 59.93006592 -141.43310547 59.32470703 C-138.38824891 57.97164015 -135.32053504 56.69121106 -132.23828125 55.42578125 C-131.32691406 55.04550781 -130.41554688 54.66523438 -129.4765625 54.2734375 C-127.87316923 53.60640576 -126.26659403 52.94694688 -124.65625 52.296875 C-119.3727621 50.08539758 -114.77186006 47.26766259 -110.0546875 44.01953125 C-107.44332759 42.5026139 -105.10097018 41.47546117 -102.29296875 40.421875 C-96.58732322 38.21484906 -91.66592844 35.12353833 -86.55078125 31.80078125 C-74.92586316 24.26755693 -65.95631132 19.50976545 -51.86328125 19.55078125 C-38.07710647 19.80103218 -38.07710647 19.80103218 -25.61328125 14.67578125 C-24.87464844 14.15371094 -24.13601563 13.63164062 -23.375 13.09375 C-20.6495634 10.97495723 -18.04747607 8.73389847 -15.42578125 6.48828125 C-10.10325178 2.07755001 -6.80508866 0.81554108 0 0 Z M-3.11328125 24.73828125 C-4.08007812 25.47433594 -5.046875 26.21039063 -6.04296875 26.96875 C-7.50089844 28.09216797 -7.50089844 28.09216797 -8.98828125 29.23828125 C-10.72872366 30.52217283 -12.47819176 31.79395893 -14.23828125 33.05078125 C-15.35976562 33.86482422 -15.35976562 33.86482422 -16.50390625 34.6953125 C-22.10351944 38.17305968 -26.50185388 39.6054876 -33.1015625 39.64453125 C-33.75601852 39.65536743 -34.41047455 39.66620361 -35.08476257 39.67736816 C-37.15687023 39.71129947 -39.22843395 39.7271409 -41.30078125 39.73828125 C-58.73751926 39.83274479 -73.04310565 43.34861986 -85.92578125 55.73828125 C-95.55690511 64.80927513 -107.55981629 68.96934962 -119.84790039 73.22973633 C-126.24748972 75.48609782 -132.08065587 78.18622236 -137.98681641 81.50634766 C-147.41923915 86.78776314 -160.88480036 92.51114143 -171.98828125 90.23828125 C-174.6594985 88.77315906 -177.15046276 87.13009462 -179.6875 85.4453125 C-182.08393018 83.89509307 -182.08393018 83.89509307 -185.48828125 84.80078125 C-186.72578125 85.51234375 -186.72578125 85.51234375 -187.98828125 86.23828125 C-190.35878722 87.42353423 -192.09809793 87.44526958 -194.73828125 87.61328125 C-199.1503206 87.99941382 -202.0391219 89.21982203 -205.98828125 91.23828125 C-211.19987381 91.78686994 -213.67644003 91.04097804 -217.98828125 88.23828125 C-219.14328125 87.92890625 -220.29828125 87.61953125 -221.48828125 87.30078125 C-224.98828125 86.23828125 -224.98828125 86.23828125 -227.2890625 84.3828125 C-230.27426223 82.01106915 -233.23744705 80.50351683 -236.67578125 78.86328125 C-240.8123902 76.86425013 -244.81272732 74.79680377 -248.67578125 72.30078125 C-258.93006356 65.97475635 -271.26756288 61.01092431 -282.98828125 58.23828125 C-283.79007813 58.0475 -284.591875 57.85671875 -285.41796875 57.66015625 C-308.16860274 52.69895881 -332.33391233 53.85509528 -353.54296875 63.74609375 C-357.22701484 65.34167834 -360.94073213 66.48565637 -364.80078125 67.55078125 C-387.600874 73.93713917 -409.62100246 82.43822661 -429.7878418 94.87280273 C-435.70455471 98.51729364 -441.69486027 101.70533108 -447.94921875 104.72265625 C-451.64569983 106.56614553 -455.12451895 108.67285764 -458.6328125 110.84765625 C-461.01218977 112.2523964 -463.42690093 113.43641454 -465.92578125 114.61328125 C-472.89876909 118.01741705 -479.03492035 122.6898166 -484.89453125 127.74609375 C-488.04662274 130.28527856 -491.18837938 132.17770127 -494.73828125 134.11328125 C-498.93785128 136.43869926 -502.93338763 138.81669608 -506.80078125 141.67578125 C-518.60786864 150.09855052 -531.89886123 155.53369497 -545.24975586 160.99975586 C-553.0343693 164.24821171 -560.1605895 168.04873673 -567.33911133 172.45556641 C-573.09449108 175.91743954 -578.83527921 178.14069103 -585.21362305 180.1796875 C-590.30927936 181.85477395 -593.95735681 184.08418855 -598.16796875 187.32421875 C-606.21327266 192.78432805 -615.68780254 196.38670656 -624.5859375 200.23828125 C-644.75063671 208.96877677 -663.99346796 218.75928208 -677.98828125 236.23828125 C-678.54773438 236.86992187 -679.1071875 237.5015625 -679.68359375 238.15234375 C-683.78877063 243.42401898 -683.22362857 248.32565468 -682.578125 254.7734375 C-682.06817388 258.23776176 -682.06817388 258.23776176 -680.97290039 261.48242188 C-679.94733419 265.39447503 -679.70321759 268.75940628 -679.64453125 272.796875 C-679.62990845 273.50368912 -679.61528564 274.21050323 -679.60021973 274.93873596 C-679.55415089 277.18436034 -679.51979376 279.42990867 -679.48828125 281.67578125 C-679.36039901 290.59507531 -679.1184075 299.41246602 -678.01953125 308.2734375 C-677.93457397 308.96030136 -677.8496167 309.64716522 -677.76208496 310.35484314 C-677.54246976 313.57908666 -677.54246976 313.57908666 -675.98828125 316.23828125 C-674.65329165 316.28866526 -673.31569919 316.27400574 -671.98046875 316.23046875 C-671.15804687 316.21371094 -670.335625 316.19695312 -669.48828125 316.1796875 C-667.76148582 316.13600369 -666.03487444 316.08414768 -664.30859375 316.0234375 C-658.73462882 315.92823002 -654.86595828 316.4429243 -649.98828125 319.23828125 C-648.5703125 321.0703125 -648.5703125 321.0703125 -647.80078125 323.05078125 C-646.61663969 325.83759716 -645.54883581 327.87861603 -643.80078125 330.42578125 C-640.68190777 335.26541251 -640.81773044 340.25048729 -640.70703125 345.875 C-640.68862183 346.5956514 -640.6702124 347.3163028 -640.65124512 348.05879211 C-640.57291084 351.12669738 -640.50462193 354.19480301 -640.43603516 357.26293945 C-640.38436401 359.50873821 -640.32712705 361.75434664 -640.26953125 364 C-640.25595581 364.69582687 -640.24238037 365.39165375 -640.22839355 366.10856628 C-640.17676924 369.79756931 -640.17676924 369.79756931 -638.98828125 373.23828125 C-638.89062862 374.94433015 -638.85852126 376.65444649 -638.86328125 378.36328125 C-638.86585938 379.35199219 -638.8684375 380.34070313 -638.87109375 381.359375 C-638.97109442 383.81605804 -639.26997567 386.02213119 -639.73828125 388.42578125 C-640.3459136 392.33932477 -640.3459136 392.33932477 -638.04296875 395.66015625 C-635.07146455 401.29287403 -635.39147239 407.0599681 -635.36328125 413.30078125 C-635.28346574 420.39238967 -634.97687467 426.40687799 -632.98828125 433.23828125 C-632.72196472 437.13113734 -632.71967877 441.02495646 -632.67578125 444.92578125 C-632.44507795 454.22473718 -631.52421874 461.0283757 -626.98828125 469.23828125 C-621.27474552 481.96770277 -621.5770577 496.71404576 -621.36694336 510.37670898 C-621.16124678 521.31159659 -620.12818122 531.22650584 -615.92578125 541.36328125 C-613.24794373 548.28043729 -612.50536599 554.38333191 -612.39038086 561.7590332 C-612.21432874 568.05203338 -610.74082239 572.76533365 -608.14453125 578.5390625 C-606.18596099 583.11126537 -605.88003967 587.26970755 -605.91796875 592.2109375 C-606.26399607 608.36551123 -606.26399607 608.36551123 -599.703125 622.5546875 C-596.36100637 627.78483671 -595.91471995 634.19599357 -594.98828125 640.23828125 C-593.87957131 647.05045095 -591.51653995 652.57514369 -588.51953125 658.796875 C-586.14878482 664.12500665 -584.57892105 669.6392083 -582.98828125 675.23828125 C-533.36995225 678.80640682 -482.92834693 672.95388608 -437.55078125 651.05078125 C-436.61117554 650.60605469 -436.61117554 650.60605469 -435.65258789 650.15234375 C-430.78373154 647.62442967 -428.05987725 644.45975197 -426.32275391 639.23754883 C-423.92265924 629.68303865 -422.38525779 616.28449712 -426.34375 607.08984375 C-428.08517862 604.89864217 -429.90428619 603.10093014 -431.98828125 601.23828125 C-433.12496789 599.84757209 -434.23072009 598.43088223 -435.30078125 596.98828125 C-435.77128906 596.385 -436.24179687 595.78171875 -436.7265625 595.16015625 C-440.3773311 589.59923318 -440.26383967 584.57398825 -440.17578125 578.11328125 C-440.17481445 576.75396484 -440.17481445 576.75396484 -440.17382812 575.3671875 C-440.12911884 568.66079401 -440.12911884 568.66079401 -438.98828125 565.23828125 C-438.91341716 563.44708861 -438.85233237 561.65529637 -438.80078125 559.86328125 C-438.42483377 555.86552992 -438.11874872 554.42311017 -435.73828125 551.05078125 C-432.53336474 548.87872883 -429.89007471 549.19148885 -426.11328125 549.42578125 C-420.04916488 549.6930135 -416.55411884 548.379743 -411.42578125 545.48828125 C-402.41027062 540.45466732 -393.13729034 538.67984074 -382.98828125 537.23828125 C-381.95453369 537.08794434 -381.95453369 537.08794434 -380.89990234 536.93457031 C-375.07595784 536.18544906 -369.26288207 536.07163993 -363.39672852 535.94897461 C-343.16535807 535.50539843 -324.9174296 531.80851371 -305.40498352 526.6920166 C-292.8986791 523.41298921 -280.55968302 520.51588096 -267.73828125 518.80078125 C-260.14772804 517.77972236 -252.66167486 516.48749561 -245.17578125 514.86328125 C-244.27504883 514.67838135 -243.37431641 514.49348145 -242.44628906 514.30297852 C-236.73788068 513.0129639 -231.20258256 511.49529093 -226.98828125 507.23828125 C-226.36522554 505.28137736 -226.36522554 505.28137736 -226.2840271 503.11077881 C-226.19331247 501.91078373 -226.19331247 501.91078373 -226.10076523 500.68654633 C-225.9274795 496.9149035 -225.83569826 493.15551455 -225.83056641 489.37988281 C-225.82548569 488.54423294 -225.82040497 487.70858307 -225.81517029 486.84761047 C-225.80454175 485.047132 -225.7958927 483.24664095 -225.78905106 481.4461441 C-225.77711877 478.57476786 -225.7576268 475.7035326 -225.7359314 472.83221436 C-225.67482706 464.67253484 -225.62060888 456.51286994 -225.58691406 448.35302734 C-225.56568363 443.34336668 -225.53015821 438.3339653 -225.48615646 433.32445526 C-225.47221337 431.43832246 -225.4633245 429.55214381 -225.46010208 427.66596222 C-225.38374891 387.21928043 -225.38374891 387.21928043 -217.828125 376.04296875 C-214.58256351 372.83758615 -211.21973675 370.06445886 -207.55078125 367.36328125 C-206.84920898 366.84080811 -206.14763672 366.31833496 -205.42480469 365.7800293 C-200.05992418 361.85670354 -194.54850862 358.51652167 -188.66015625 355.4453125 C-186.52680162 354.26198852 -184.71830151 353.01695091 -182.82592773 351.46557617 C-171.94130685 342.55830939 -159.12693168 337.03810679 -146.55078125 330.92578125 C-142.97069112 329.1789344 -139.39375594 327.42583683 -135.81956482 325.66694641 C-133.60807539 324.57946329 -131.39340842 323.49841133 -129.17518616 322.42472839 C-128.17321701 321.93354019 -127.17124786 321.44235199 -126.13891602 320.9362793 C-125.26243912 320.51042038 -124.38596222 320.08456146 -123.48292542 319.64579773 C-120.70800139 318.08014305 -118.36135189 316.36365627 -115.98828125 314.23828125 C-115.31096904 311.80894512 -115.31096904 311.80894512 -115.55078125 309.17578125 C-115.57269531 308.31855469 -115.59460938 307.46132813 -115.6171875 306.578125 C-115.90870698 303.42445875 -115.90870698 303.42445875 -116.45391846 301.10957336 C-118.3317334 292.44295834 -118.26132045 283.87926973 -118.21875 275.06640625 C-118.21755416 273.4141239 -118.21710589 271.76184087 -118.21736145 270.10955811 C-118.21580577 266.66023446 -118.20759076 263.21101594 -118.1940918 259.76171875 C-118.17715742 255.38372584 -118.17327669 251.00584852 -118.17403698 246.62782669 C-118.17376231 243.21818987 -118.16823327 239.80857731 -118.16103554 236.39894867 C-118.15789649 234.78693576 -118.15589289 233.17492015 -118.15514183 231.56290436 C-118.12345057 199.08915596 -114.39650364 169.85655436 -90.98828125 145.23828125 C-87.13236327 141.69443345 -83.13795224 138.43756155 -78.98828125 135.23828125 C-78.23675781 134.62597656 -77.48523438 134.01367188 -76.7109375 133.3828125 C-71.06036349 129.1212064 -65.15450573 127.66487688 -58.21838379 126.58598328 C-56.55667238 126.32690083 -54.89954275 126.0380949 -53.2454834 125.73396301 C-43.52598847 124.10005075 -34.12633843 124.09076565 -24.30071068 124.30190849 C-21.40291009 124.36071103 -18.50545836 124.39966496 -15.60725403 124.43263245 C-7.37850393 124.52642651 0.84949073 124.62911724 9.0769043 124.80737305 C14.1375493 124.9155795 19.19710563 124.97931217 24.25876427 125.01429939 C26.17464301 125.03583907 28.09041489 125.07370821 30.00562477 125.12872124 C40.50274363 125.70969818 40.50274363 125.70969818 50.12265015 122.31106567 C52.39629408 120.06937996 54.20023587 117.85919842 56.01171875 115.23828125 C57.1026301 113.97669635 58.20464352 112.72449941 59.32421875 111.48828125 C59.87980469 110.83601563 60.43539062 110.18375 61.0078125 109.51171875 C62.56953109 107.73994444 64.15551049 106.03553627 65.796875 104.33984375 C76.52075951 93.20330375 83.63500667 81.27932327 90.41357422 67.44482422 C100.49733451 46.94157328 100.49733451 46.94157328 111.01171875 42.23828125 C112.54223664 41.83867504 114.08531316 41.48450577 115.63671875 41.17578125 C117.9936221 40.70205151 119.85828191 40.31499967 122.01171875 39.23828125 C136.89378263 36.92899548 154.111751 50.96040032 165.76953125 59.18359375 C168.48840574 61.23887854 171.08994151 63.26461067 173.43847656 65.74536133 C178.31893718 70.88424161 183.73017458 74.66745641 189.63671875 78.55078125 C199.88057577 85.41555296 209.85764993 92.29742538 218.88671875 100.73828125 C227.66251052 108.80175226 238.07217087 114.76153896 248.3671875 120.66015625 C252.77960579 123.2932685 256.90565921 126.24810537 260.64453125 129.78125 C265.97091804 134.80907251 271.9559285 138.36776328 278.21508789 142.10229492 C283.62426412 145.34287457 288.72704709 148.7642635 293.75 152.58203125 C299.19510376 156.56946474 303.12376354 157.8248368 309.76171875 158.42578125 C310.90253906 158.54856445 310.90253906 158.54856445 312.06640625 158.67382812 C320.31826588 159.50600719 327.33316467 160.02031294 335.13671875 156.73828125 C335.7714209 156.47345947 336.40612305 156.2086377 337.06005859 155.93579102 C342.38367266 153.65414849 347.4434323 150.93780967 352.51049805 148.1418457 C359.17906208 144.5037297 366.17580981 141.75881015 373.421875 139.48046875 C379.48435165 137.50874737 382.22966559 134.70303966 385.1328125 129.05859375 C386.2880937 125.35142474 386.2637862 121.82834563 386.19921875 117.98828125 C386.19857422 117.27542969 386.19792969 116.56257813 386.19726562 115.828125 C386.015673 93.43170087 378.63086426 74.10428107 363.01171875 58.23828125 C362.13515625 57.33722656 361.25859375 56.43617188 360.35546875 55.5078125 C355.9670822 51.25839153 352.866997 50.91459799 347.01171875 50.98828125 C346.24714355 50.99504883 345.48256836 51.00181641 344.69482422 51.00878906 C335.36808815 51.17790129 327.4186252 52.93375578 318.73828125 56.3203125 C316.06508911 57.22031272 313.68007377 57.6008744 310.88671875 57.92578125 C303.18242164 59.14166745 296.67312589 63.38864897 289.96337891 67.15478516 C287.38793706 68.58458387 284.77200833 69.92256566 282.13671875 71.23828125 C281.39679687 71.60953125 280.656875 71.98078125 279.89453125 72.36328125 C267.60321336 78.07542898 246.73491713 75.17676268 234.01171875 71.23828125 C230.09352782 69.55095416 226.57007021 67.58112504 223.01171875 65.23828125 C222.02171875 64.68140625 221.03171875 64.12453125 220.01171875 63.55078125 C217.27491562 60.38635263 216.83209005 57.19662884 215.875 53.17578125 C214.44683281 48.31613543 211.86751203 44.38185047 209.01171875 40.23828125 C208.439375 39.40683594 207.86703125 38.57539063 207.27734375 37.71875 C204.0496377 33.29850654 201.44391979 29.80526232 196.01171875 28.23828125 C191.17123583 27.88308034 186.64444508 27.69403914 182.01171875 29.23828125 C180.61039382 29.33031374 179.20512342 29.36895158 177.80078125 29.37109375 C176.96675781 29.37238281 176.13273438 29.37367188 175.2734375 29.375 C174.40332031 29.37113281 173.53320312 29.36726563 172.63671875 29.36328125 C171.80527344 29.36714844 170.97382812 29.37101562 170.1171875 29.375 C165.40202888 29.3678232 160.75617746 29.15654005 156.05908203 28.74047852 C148.93765935 28.17870857 141.8557859 28.07672638 134.71484375 28.0703125 C133.40062439 28.0669841 132.08640503 28.0636557 130.73236084 28.06022644 C127.97602514 28.05429987 125.21972051 28.05238015 122.46337891 28.05297852 C118.95469678 28.05308064 115.4462147 28.03934772 111.93758011 28.02220631 C108.55083198 28.00835025 105.16411979 28.0089968 101.77734375 28.0078125 C100.53027649 28.00062698 99.28320923 27.99344147 97.99835205 27.98603821 C83.92706358 28.02276923 74.83176838 31.38921971 63.94921875 40.30078125 C62.30763925 41.61859776 60.66204619 42.93143659 59.01171875 44.23828125 C58.02365234 45.04072266 58.02365234 45.04072266 57.015625 45.859375 C49.77323616 50.84292912 40.41801256 50.63597185 32.01171875 49.23828125 C22.54472593 46.60285664 14.63005721 40.31802893 8.01171875 33.23828125 C6.86356878 30.94198131 6.70402066 29.16130039 6.44921875 26.61328125 C6.36542969 25.79601562 6.28164063 24.97875 6.1953125 24.13671875 C6.13472656 23.51023438 6.07414063 22.88375 6.01171875 22.23828125 C1.88853226 20.47394098 0.23504811 22.12209388 -3.11328125 24.73828125 Z " fill="#E4181E" transform="translate(840.98828125,117.76171875)"/>
<path d="M0 0 C0.99 0.66 1.98 1.32 3 2 C3.33 1.67 3.66 1.34 4 1 C5.66617115 0.95936168 7.33388095 0.957279 9 1 C9.08735463 5.54154478 9.14051247 10.08287232 9.1875 14.625 C9.21263672 15.91019531 9.23777344 17.19539062 9.26367188 18.51953125 C9.27333984 19.76347656 9.28300781 21.00742187 9.29296875 22.2890625 C9.3086792 23.43068848 9.32438965 24.57231445 9.34057617 25.74853516 C8.95137088 29.46425998 7.94524367 31.82637789 6 35 C1.66665607 37.95455268 -1.81081509 38.5660929 -7 38 C-10.5386994 36.34860695 -11.81070153 35.28394771 -14 32 C-14 31.01 -14 30.02 -14 29 C-11.625 29.3125 -11.625 29.3125 -9 30 C-8.34 30.99 -7.68 31.98 -7 33 C-2.34854408 33.38024775 -2.34854408 33.38024775 2 32 C2.40729228 29.67843403 2.74438677 27.3431213 3 25 C2.46375 25.33 1.9275 25.66 1.375 26 C-1.73799811 27.31073605 -3.64137591 27.47020737 -7 27 C-11.12414745 24.22413152 -13.83264089 21.90290827 -15 17 C-15.47696886 11.75334256 -14.86233294 8.44155111 -12 4 C-8.18066675 -0.03151843 -5.48245114 -0.60916124 0 0 Z " fill="#A3A3A3" transform="translate(684,900)"/>
<path d="M0 0 C1.65 0 3.3 0 5 0 C5 11.88 5 23.76 5 36 C3.68 36 2.36 36 1 36 C0.67 35.34 0.34 34.68 0 34 C-0.66 34.66 -1.32 35.32 -2 36 C-5.40280249 36.62635656 -8.59871276 36.63105644 -12 36 C-14.87105757 33.89197124 -16.41327792 31.17344416 -18 28 C-18.53209766 22.66157758 -18.64057432 18.30402629 -16.25 13.4375 C-13.12342105 10.0503728 -11.52474306 9.12446882 -6.9375 8.75 C-4 9 -4 9 -1 11 C-0.67 7.37 -0.34 3.74 0 0 Z " fill="#A7A7A7" transform="translate(603,891)"/>
<path d="M0 0 C2.31 0 4.62 0 7 0 C10.90216223 9.13565041 13.91697676 18.56594888 17 28 C20.85652645 18.84043358 23.91504362 9.43996652 27 0 C29.31 0 31.62 0 34 0 C34 11.88 34 23.76 34 36 C32.68 36 31.36 36 30 36 C29.67 27.09 29.34 18.18 29 9 C28.40832031 10.86527344 27.81664062 12.73054687 27.20703125 14.65234375 C26.40995241 17.08108987 25.61171529 19.50945607 24.8125 21.9375 C24.42513672 23.16919922 24.03777344 24.40089844 23.63867188 25.66992188 C23.24873047 26.83974609 22.85878906 28.00957031 22.45703125 29.21484375 C22.10616455 30.29886475 21.75529785 31.38288574 21.39379883 32.49975586 C20 35 20 35 17.34643555 35.86157227 C16.57211182 35.90725342 15.79778809 35.95293457 15 36 C11.0949657 26.85762558 8.09921689 17.43852417 5 8 C4.67 17.24 4.34 26.48 4 36 C2.68 36 1.36 36 0 36 C0 24.12 0 12.24 0 0 Z " fill="#AEAEAE" transform="translate(517,891)"/>
<path d="M0 0 C2.7578125 1.828125 2.7578125 1.828125 5 5 C5.74241812 8.76940008 5.79042578 12.47894456 5.8125 16.3125 C5.83763672 17.33923828 5.86277344 18.36597656 5.88867188 19.42382812 C5.94741085 21.949604 5.98378712 24.47365228 6 27 C4.35 27 2.7 27 1 27 C0.67 26.34 0.34 25.68 0 25 C-0.86625 25.495 -1.7325 25.99 -2.625 26.5 C-6.842949 28.374644 -9.87805799 28.76625684 -14.25 27.1875 C-16 26 -16 26 -18 23 C-18.5 20.125 -18.5 20.125 -18 17 C-13.33552902 11.45306153 -7.9736582 10.83137918 -1 10 C-1.33 8.35 -1.66 6.7 -2 5 C-6.021089 4.72240142 -6.021089 4.72240142 -10 5 C-11.77409808 6.92022703 -11.77409808 6.92022703 -13 9 C-14.32 9 -15.64 9 -17 9 C-16.80037128 5.40668306 -16.21261372 4.20171045 -13.5625 1.6875 C-9.06857102 -0.4412032 -4.88389996 -1.24612978 0 0 Z " fill="#A5A5A5" transform="translate(575,900)"/>
<path d="M0 0 C3.37309578 1.86216093 5.16151574 3.68828737 6.6875 7.3125 C6.6875 7.9725 6.6875 8.6325 6.6875 9.3125 C5.0375 9.6425 3.3875 9.9725 1.6875 10.3125 C1.213125 9.343125 0.73875 8.37375 0.25 7.375 C-2.44821199 4.15030762 -2.85581324 3.80816677 -6.75 3.25 C-10.7732028 3.06472092 -13.20415521 3.58092428 -16.3125 6.3125 C-18.55008933 9.75132149 -18.5812113 12.70368032 -18.5625 16.75 C-18.56765625 17.86246094 -18.5728125 18.97492187 -18.578125 20.12109375 C-18.31208614 23.31747238 -17.80779786 25.48638704 -16.3125 28.3125 C-13.05254414 30.48580391 -12.08270034 30.56171459 -8.3125 30.5 C-7.44625 30.49355469 -6.58 30.48710938 -5.6875 30.48046875 C-3.16322535 30.40080437 -3.16322535 30.40080437 -0.3125 29.3125 C0.91270264 26.30402582 0.91270264 26.30402582 1.6875 23.3125 C3.3375 23.3125 4.9875 23.3125 6.6875 23.3125 C6.61228893 26.47136495 6.31272327 28.61334288 4.16796875 31.01171875 C-0.51839791 35.08639123 -3.84125314 36.63324077 -10.25390625 36.52734375 C-14.71907554 36.06133936 -17.53868878 34.12930073 -20.5625 30.9375 C-25.10805709 24.11916436 -25.07381964 17.31105571 -24.3125 9.3125 C-22.20119839 4.77711135 -19.40697668 2.1471377 -15.3125 -0.6875 C-9.85926079 -2.5052464 -5.18256242 -2.37135698 0 0 Z " fill="#A7A7A7" transform="translate(737.3125,891.6875)"/>
<path d="M0 0 C1.65 0 3.3 0 5 0 C5.01981934 0.59538574 5.03963867 1.19077148 5.06005859 1.80419922 C5.15516126 4.49492153 5.26489842 7.18485148 5.375 9.875 C5.4059375 10.81214844 5.436875 11.74929688 5.46875 12.71484375 C5.50742187 13.61074219 5.54609375 14.50664063 5.5859375 15.4296875 C5.6173584 16.25710449 5.6487793 17.08452148 5.68115234 17.93701172 C5.82599137 20.21986085 5.82599137 20.21986085 8 22 C11.03344954 21.91115 11.03344954 21.91115 14 21 C16.0140956 17.9788566 16.26836596 17.19339983 16.4140625 13.76953125 C16.45273437 12.96708984 16.49140625 12.16464844 16.53125 11.33789062 C16.57765625 10.08782227 16.57765625 10.08782227 16.625 8.8125 C16.66367187 7.96751953 16.70234375 7.12253906 16.7421875 6.25195312 C16.83636279 4.16832476 16.91926675 2.08419247 17 0 C18.65 0 20.3 0 22 0 C22 8.58 22 17.16 22 26 C20.68 26 19.36 26 18 26 C18 25.01 18 24.02 18 23 C17.44441406 23.48726562 16.88882813 23.97453125 16.31640625 24.4765625 C13.60827076 26.25762968 12.14562346 26.40403279 8.9375 26.375 C8.08027344 26.38273438 7.22304688 26.39046875 6.33984375 26.3984375 C3.54043154 25.92174293 2.69057148 25.24356216 1 23 C0.03911617 20.11734851 -0.11670941 18.32337729 -0.09765625 15.33203125 C-0.09443359 14.43935547 -0.09121094 13.54667969 -0.08789062 12.62695312 C-0.07951172 11.69818359 -0.07113281 10.76941406 -0.0625 9.8125 C-0.05798828 8.87212891 -0.05347656 7.93175781 -0.04882812 6.96289062 C-0.03704626 4.64186288 -0.02059558 2.32096356 0 0 Z " fill="#A4A4A4" transform="translate(803,901)"/>
<path d="M0 0 C2.59026861 0.75370615 3.47521634 1.48618801 5.12109375 3.6171875 C5.46166992 6.0690918 5.46166992 6.0690918 5.4140625 8.94140625 C5.40439453 9.96943359 5.39472656 10.99746094 5.38476562 12.05664062 C5.35962891 13.12849609 5.33449219 14.20035156 5.30859375 15.3046875 C5.28829102 16.92987305 5.28829102 16.92987305 5.26757812 18.58789062 C5.23220018 21.26482155 5.18283564 23.94075588 5.12109375 26.6171875 C3.80109375 26.6171875 2.48109375 26.6171875 1.12109375 26.6171875 C1.10127441 26.02180176 1.08145508 25.42641602 1.06103516 24.81298828 C0.96593249 22.12226597 0.85619533 19.43233602 0.74609375 16.7421875 C0.71515625 15.80503906 0.68421875 14.86789062 0.65234375 13.90234375 C0.61367188 13.00644531 0.575 12.11054687 0.53515625 11.1875 C0.50373535 10.36008301 0.47231445 9.53266602 0.43994141 8.68017578 C0.29510238 6.39732665 0.29510238 6.39732665 -1.87890625 4.6171875 C-6.22085561 4.71413866 -6.22085561 4.71413866 -9.87890625 6.6171875 C-10.03545652 8.10357742 -10.12957568 9.59667877 -10.1953125 11.08984375 C-10.23720703 11.98896484 -10.27910156 12.88808594 -10.32226562 13.81445312 C-10.38124023 15.23274414 -10.38124023 15.23274414 -10.44140625 16.6796875 C-10.50618164 18.1037793 -10.50618164 18.1037793 -10.57226562 19.55664062 C-10.67869901 21.91000103 -10.78071633 24.26347104 -10.87890625 26.6171875 C-12.52890625 26.6171875 -14.17890625 26.6171875 -15.87890625 26.6171875 C-15.87890625 18.0371875 -15.87890625 9.4571875 -15.87890625 0.6171875 C-14.55890625 0.6171875 -13.23890625 0.6171875 -11.87890625 0.6171875 C-11.54890625 1.2771875 -11.21890625 1.9371875 -10.87890625 2.6171875 C-10.16734375 1.84375 -10.16734375 1.84375 -9.44140625 1.0546875 C-6.04543398 -0.85037012 -3.78057901 -0.42077271 0 0 Z " fill="#AEAEAE" transform="translate(658.87890625,900.3828125)"/>
<path d="M0 0 C2.625 2.3125 2.625 2.3125 3.5 5.0625 C3.54125 5.805 3.5825 6.5475 3.625 7.3125 C1.25 7 1.25 7 -1.375 6.3125 C-2.035 5.3225 -2.695 4.3325 -3.375 3.3125 C-6.61234607 2.89922178 -8.53105906 2.67226895 -11.1875 4.6875 C-13.77853697 8.23312954 -13.59603903 10.96539916 -13.375 15.3125 C-12.4775173 18.14628132 -12.4775173 18.14628132 -11.375 20.3125 C-8.02041845 21.07772801 -8.02041845 21.07772801 -4.375 21.3125 C-2.22639927 19.80847949 -1.53947508 18.64145015 -0.375 16.3125 C0.945 16.3125 2.265 16.3125 3.625 16.3125 C3.30707686 19.17380829 2.72676021 21.14135783 1.25 23.625 C-3.02283606 26.37182318 -7.4554677 26.17250713 -12.375 25.3125 C-15.78811667 22.78679367 -17.04137768 21.31336696 -18.375 17.3125 C-18.88736616 11.96205335 -19.02241984 7.63046182 -16.625 2.75 C-11.76711128 -2.51271278 -6.54582989 -3.27291495 0 0 Z " fill="#ABABAB" transform="translate(795.375,901.6875)"/>
<path d="M0 0 C2.56452999 2.81271031 2.96285514 4.65950546 3.375 8.4375 C2.9543352 12.43381558 2.39384127 14.75673118 0 18 C-3.4375 19.1875 -3.4375 19.1875 -7 19 C-9.4375 17.25 -9.4375 17.25 -11 14 C-11.71042665 9.04166145 -11.95136458 4.67440166 -9.4375 0.25 C-5.86125944 -1.58396952 -3.79071204 -1.17167463 0 0 Z " fill="#060606" transform="translate(601,905)"/>
<path d="M0 0 C3 0.5625 3 0.5625 5.375 1.9375 C7.84942193 5.93464312 7.63217317 9.97556906 7 14.5625 C5.5032538 18.3108731 5.5032538 18.3108731 3 19.5625 C0.125 19.9375 0.125 19.9375 -3 19.5625 C-5.63231951 17.41508145 -6.78562464 15.7721895 -7.3828125 12.40234375 C-7.58168486 8.43152561 -7.26039029 6.05323554 -5.375 2.5 C-3 0.5625 -3 0.5625 0 0 Z " fill="#030303" transform="translate(681,903.4375)"/>
<path d="M0 0 C0.66 0 1.32 0 2 0 C2 2.97 2 5.94 2 9 C3.32 9 4.64 9 6 9 C6 9.99 6 10.98 6 12 C4.68 12 3.36 12 2 12 C2.33 17.94 2.66 23.88 3 30 C4.32 30.33 5.64 30.66 7 31 C7 32.32 7 33.64 7 35 C3.625 35.125 3.625 35.125 0 35 C-2 33 -2 33 -2.22705078 30.84521484 C-2.21657715 29.97590332 -2.20610352 29.1065918 -2.1953125 28.2109375 C-2.18886719 27.26992188 -2.18242188 26.32890625 -2.17578125 25.359375 C-2.15902344 24.37453125 -2.14226563 23.3896875 -2.125 22.375 C-2.11597656 21.38242187 -2.10695313 20.38984375 -2.09765625 19.3671875 C-2.07404116 16.91121866 -2.04110799 14.45572832 -2 12 C-2.99 12 -3.98 12 -5 12 C-5 11.01 -5 10.02 -5 9 C-4.01 9 -3.02 9 -2 9 C-2.04125 7.88625 -2.0825 6.7725 -2.125 5.625 C-2 2 -2 2 0 0 Z " fill="#B1B1B1" transform="translate(846,892)"/>
<path d="M0 0 C0.33 1.32 0.66 2.64 1 4 C-0.134375 4.28875 -1.26875 4.5775 -2.4375 4.875 C-3.613125 5.24625 -4.78875 5.6175 -6 6 C-7.14654482 8.29308963 -7.19729117 9.79909656 -7.31640625 12.3515625 C-7.35830078 13.20234375 -7.40019531 14.053125 -7.44335938 14.9296875 C-7.48267578 15.81914063 -7.52199219 16.70859375 -7.5625 17.625 C-7.62727539 18.97078125 -7.62727539 18.97078125 -7.69335938 20.34375 C-7.79956861 22.56234283 -7.90161194 24.7810488 -8 27 C-9.65 27 -11.3 27 -13 27 C-13 18.42 -13 9.84 -13 1 C-11.68 1 -10.36 1 -9 1 C-8.67 1.66 -8.34 2.32 -8 3 C-7.608125 2.505 -7.21625 2.01 -6.8125 1.5 C-4.44908285 -0.45593143 -2.98564997 -0.24207973 0 0 Z " fill="#A5A5A5" transform="translate(774,900)"/>
<path d="M0 0 C3.625 0.375 3.625 0.375 7 1 C6.67 2.32 6.34 3.64 6 5 C4.865625 5.28875 3.73125 5.5775 2.5625 5.875 C1.386875 6.24625 0.21125 6.6175 -1 7 C-2.11823815 9.23647631 -2.19396061 10.64891529 -2.31640625 13.1328125 C-2.35830078 13.93847656 -2.40019531 14.74414062 -2.44335938 15.57421875 C-2.50233398 16.83685547 -2.50233398 16.83685547 -2.5625 18.125 C-2.62727539 19.39923828 -2.62727539 19.39923828 -2.69335938 20.69921875 C-2.79954236 22.79928223 -2.90028497 24.89961948 -3 27 C-4.32 27 -5.64 27 -7 27 C-7 18.42 -7 9.84 -7 1 C-4.525 1.495 -4.525 1.495 -2 2 C-1.34 1.34 -0.68 0.68 0 0 Z " fill="#ADADAD" transform="translate(622,900)"/>
<path d="M0 0 C1.32 0 2.64 0 4 0 C4.33 0.66 4.66 1.32 5 2 C6.32 1.34 7.64 0.68 9 0 C8.51917969 0.77601563 8.03835938 1.55203125 7.54296875 2.3515625 C5.53786534 7.09274372 5.4397134 11.27919482 5.3125 16.375 C5.27833984 17.30183594 5.24417969 18.22867188 5.20898438 19.18359375 C5.12700448 21.45560812 5.05769506 23.72726104 5 26 C3.35 26 1.7 26 0 26 C0 17.42 0 8.84 0 0 Z " fill="#A6A6A6" transform="translate(643,901)"/>
<path d="M0 0 C1.65 0 3.3 0 5 0 C5 8.58 5 17.16 5 26 C3.35 26 1.7 26 0 26 C0 17.42 0 8.84 0 0 Z " fill="#A2A2A2" transform="translate(750,901)"/>
<path d="M0 0 C1.32 0 2.64 0 4 0 C4 8.58 4 17.16 4 26 C2.68 26 1.36 26 0 26 C0 17.42 0 8.84 0 0 Z " fill="#B4B4B4" transform="translate(832,901)"/>
<path d="M0 0 C1.32 0 2.64 0 4 0 C4 8.58 4 17.16 4 26 C2.68 26 1.36 26 0 26 C0 17.42 0 8.84 0 0 Z " fill="#B4B4B4" transform="translate(632,901)"/>
<path d="M0 0 C0.36768802 5.51532033 0.36768802 5.51532033 -1.375 7.8125 C-4.63647802 10.19588778 -6.99355269 10.25040296 -11 10 C-11.66 9.34 -12.32 8.68 -13 8 C-12.9375 5.5 -12.9375 5.5 -12 3 C-8.45000534 0.97143162 -4.10826587 0 0 0 Z " fill="#050505" transform="translate(575,914)"/>
<path d="M0 0 C1.65 0 3.3 0 5 0 C5 1.65 5 3.3 5 5 C3.35 5 1.7 5 0 5 C0 3.35 0 1.7 0 0 Z " fill="#9D9D9D" transform="translate(750,891)"/>
<path d="M0 0 C1.32 0 2.64 0 4 0 C4 1.65 4 3.3 4 5 C2.68 5 1.36 5 0 5 C0 3.35 0 1.7 0 0 Z " fill="#AFAFAF" transform="translate(832,891)"/>
<path d="M0 0 C1.32 0 2.64 0 4 0 C4 1.65 4 3.3 4 5 C2.68 5 1.36 5 0 5 C0 3.35 0 1.7 0 0 Z " fill="#AFAFAF" transform="translate(632,891)"/>
</svg>
