<?xml version="1.0" encoding="UTF-8"?>
<svg version="1.1" xmlns="http://www.w3.org/2000/svg" width="1350" height="1080">
<path d="M0 0 C445.5 0 891 0 1350 0 C1350 356.4 1350 712.8 1350 1080 C904.5 1080 459 1080 0 1080 C0 723.6 0 367.2 0 0 Z " fill="#000000" transform="translate(0,0)"/>
<path d="M0 0 C18.35478529 -0.43834958 34.09619765 3.61388105 50.5 12.11328125 C56.47191531 15.11858636 62.45700927 17.24579418 68.859375 19.1328125 C69.97892578 19.46853271 71.09847656 19.80425293 72.25195312 20.15014648 C94.90367993 26.83769423 117.89528453 31.84628392 141.04492188 36.43603516 C144.41812322 37.10748012 147.78756352 37.79463108 151.15625 38.48828125 C158.76478754 40.02854128 166.09425278 41.32598396 173.859375 41.6328125 C180.078201 41.91671543 184.84931121 43.43734412 190.546875 45.8671875 C195.30038586 47.77307629 200.18270581 48.95604005 205.13671875 50.2265625 C208.75601071 51.16841392 212.34022276 52.18209442 215.921875 53.2578125 C216.92347656 53.55816406 217.92507813 53.85851562 218.95703125 54.16796875 C221.859375 55.1953125 221.859375 55.1953125 224.76953125 56.7421875 C228.24803328 58.3780949 231.47162318 58.9025648 235.234375 59.3828125 C261.31999583 63.28406636 286.53665854 71.41742277 310.94921875 81.1953125 C314.12733024 82.2873884 317.2447336 82.89559625 320.546875 83.5078125 C327.56610751 85.01133041 331.67947882 88.39846746 336.859375 93.1953125 C337.96345703 94.09056641 337.96345703 94.09056641 339.08984375 95.00390625 C351.44688752 105.17386262 363.81206283 121.43963643 368.8125 136.71875 C369.77166745 138.98782525 370.84832717 140.79162297 372.1875 142.84765625 C375.14110914 147.47734702 377.2863544 152.30720435 379.359375 157.3828125 C379.94682495 158.81379272 379.94682495 158.81379272 380.54614258 160.27368164 C383.47039257 167.6519667 385.43590389 175.01692369 387.1171875 182.7590332 C389.12535672 191.85378925 391.67951383 201.65895415 397.734375 208.9453125 C400.46510065 213.12171643 400.02259436 215.79643544 399.7734375 220.6484375 C399.6376243 223.41443948 399.6376243 223.41443948 401.796875 226.0078125 C404.68195069 230.46656584 404.3554823 234.46614484 404.58984375 239.6875 C404.88862108 243.57593541 405.78922422 246.76926795 407.04296875 250.43359375 C408.09510461 253.99273275 408.67984047 257.60471625 409.296875 261.2578125 C410.04913037 265.62059312 410.82665118 269.66011272 412.859375 273.6328125 C417.67480241 283.3743668 418.21325943 295.62591038 418.39331055 306.33959961 C418.52981799 311.02041212 419.30644679 315.27068953 420.36328125 319.8359375 C422.3915958 329.1061077 422.34668739 338.38627995 422.30541992 347.83886719 C422.29686742 350.82295886 422.32585003 353.8051564 422.35742188 356.7890625 C422.39753368 367.35704005 421.90634033 376.31716974 417.859375 386.1953125 C417.35748657 387.52199951 417.35748657 387.52199951 416.84545898 388.87548828 C415.87843261 391.41096966 414.87220948 393.92783567 413.859375 396.4453125 C411.2678005 403.02447375 409.13564891 409.4636508 407.671875 416.3828125 C404.2771522 432.18267039 404.2771522 432.18267039 397.734375 436.9453125 C392.80157153 439.23516053 387.88553438 437.43463947 382.859375 436.1953125 C381.75674316 436.00267822 381.75674316 436.00267822 380.63183594 435.80615234 C374.2368836 434.68109126 368.65342266 432.70973709 362.734375 430.0703125 C361.8263916 429.67287842 360.9184082 429.27544434 359.98291016 428.8659668 C348.88655916 423.9590524 338.07483041 418.53948165 327.484375 412.6171875 C326.618125 412.14796875 325.751875 411.67875 324.859375 411.1953125 C324.30169434 410.8852124 323.74401367 410.5751123 323.16943359 410.25561523 C316.60404544 406.76162131 309.6550884 404.92704284 302.5234375 402.92773438 C293.47306149 400.2980706 285.73880745 397.13527602 278.74072266 390.73486328 C274.90188683 387.59345415 270.41669683 385.44134141 266.046875 383.1328125 C265.11294922 382.62943359 264.17902344 382.12605469 263.21679688 381.60742188 C251.19958012 375.06771531 251.19958012 375.06771531 238.546875 369.9453125 C218.1196844 362.25507604 205.75833034 346.74381433 196.796875 327.5703125 C196.39726563 326.68762695 195.99765625 325.80494141 195.5859375 324.89550781 C193.55166524 320.46086055 191.41968831 316.42098414 188.61328125 312.421875 C186.205678 308.89987562 185.10379725 306.53646421 184.859375 302.1953125 C184.71678712 300.32937797 184.57347054 298.46349907 184.4296875 296.59765625 C184.3579834 295.55528809 184.2862793 294.51291992 184.21240234 293.43896484 C183.46968706 281.64167593 183.46968706 281.64167593 181.234375 270.0703125 C177.83744987 257.04005611 179.34986176 243.16867302 185.40234375 231.125 C190.54071441 222.68255118 197.01464442 215.6356819 204.5234375 209.26953125 C212.48891958 202.19650285 220.12257516 194.4470012 226.859375 186.1953125 C227.36726562 185.58816406 227.87515625 184.98101562 228.3984375 184.35546875 C231.41363834 180.57487077 233.54057918 176.84769876 235.546875 172.4453125 C240.12958764 162.93107183 247.80754548 155.6155146 255.84375 148.90234375 C258.19600049 146.91022463 260.42098456 144.80109837 262.671875 142.6953125 C266.18386276 139.48233299 269.68129833 137.01637208 273.796875 134.6328125 C277.9772263 132.07028077 280.1496951 130.1946244 281.58984375 125.48046875 C282.60024659 116.91400992 280.67542525 111.07617837 277.484375 103.1328125 C276.66164536 101.03870845 275.8412686 98.94367822 275.0234375 96.84765625 C274.44577637 95.37981689 274.44577637 95.37981689 273.85644531 93.88232422 C273.02407287 91.63915794 272.34501903 89.45211181 271.7578125 87.13671875 C270.85077504 84.16715698 270.37416356 82.94804392 267.859375 81.1953125 C260.44295192 77.91263343 252.44757452 77.9110345 244.484375 77.8828125 C243.53328857 77.87741455 242.58220215 77.8720166 241.60229492 77.86645508 C237.73188931 77.9057364 234.51366576 77.97356189 230.828125 79.22265625 C226.45411129 80.65572127 222.29517442 80.22996282 217.734375 80.0703125 C209.2882422 79.94217626 202.63827527 80.68393142 194.859375 84.1953125 C193.62224113 84.7123892 192.38387426 85.22652212 191.14453125 85.73828125 C181.50196187 89.77896574 172.12152041 94.35233376 162.859375 99.1953125 C162.05918945 99.61329102 161.25900391 100.03126953 160.43457031 100.46191406 C151.64121476 105.09053056 142.97841357 109.8208724 134.859375 115.5703125 C134.30233887 115.9626709 133.74530273 116.3550293 133.17138672 116.75927734 C130.72086329 118.55867701 128.76572776 120.3128306 126.8671875 122.6953125 C124.4721728 125.67743198 121.83492931 127.58641916 118.734375 129.8203125 C104.33550569 140.59315964 95.51584147 154.54872016 87.734375 170.4453125 C77.96157745 190.36907724 77.96157745 190.36907724 70.234375 193.45703125 C69.450625 193.70066406 68.666875 193.94429687 67.859375 194.1953125 C66.4671875 194.63810547 66.4671875 194.63810547 65.046875 195.08984375 C57.38694453 197.10609949 49.8146827 197.58548318 41.921875 197.7578125 C40.44738892 197.81630371 40.44738892 197.81630371 38.94311523 197.87597656 C32.83081573 197.89892572 29.50315308 197.00803933 25.09936523 192.68334961 C19.37215852 185.81047602 21.67312151 172.11301614 21.67407227 163.54101562 C21.67185807 161.30319944 21.65355164 159.06585628 21.63476562 156.828125 C21.63183555 155.39062666 21.62984817 153.95312602 21.62890625 152.515625 C21.62479736 151.22930176 21.62068848 149.94297852 21.61645508 148.61767578 C21.85039083 145.32188549 22.52245981 143.17553981 23.859375 140.1953125 C23.95220236 138.25958901 23.98935046 136.32075409 23.984375 134.3828125 C24.78277611 122.17278173 32.45180547 111.46640966 38.80078125 101.33056641 C45.36778452 90.77517935 46.83809596 80.56028009 45.859375 68.1953125 C43.69274274 59.16974153 38.35891407 51.58416276 30.859375 46.1953125 C20.7760918 42.95522265 9.04604768 43.88977536 -1.41357422 43.93457031 C-4.37097925 43.94524161 -7.3277702 43.93464989 -10.28515625 43.921875 C-31.53961738 43.49767456 -31.53961738 43.49767456 -51.671875 49.1953125 C-53.92065907 50.10621238 -55.91168985 50.61202708 -58.27734375 51.1015625 C-63.49886133 52.20105541 -68.42643347 53.9268239 -73.453125 55.6953125 C-80.16923192 58.01323494 -86.51047121 59.77447275 -93.578125 60.66796875 C-97.36440403 61.44715727 -100.4191853 63.25702725 -103.78125 65.109375 C-106.21922427 66.23148899 -107.91931791 66.51024338 -110.578125 66.6328125 C-117.525862 67.06473221 -123.91529766 70.91570888 -128.703125 75.8203125 C-132.3222469 79.3466364 -137.9649621 82.1953125 -143.140625 82.1953125 C-144.37651925 84.65461722 -145.59425544 87.12174087 -146.8046875 89.59375 C-150.74611962 97.60623996 -154.9041027 105.41674581 -159.390625 113.13671875 C-161.4635139 116.75964735 -163.30075327 120.44985934 -165.140625 124.1953125 C-165.77097656 125.18660156 -166.40132812 126.17789063 -167.05078125 127.19921875 C-169.83464029 132.05205824 -171.02096684 137.29369234 -172.328125 142.6953125 C-172.59004639 143.75524414 -172.85196777 144.81517578 -173.12182617 145.90722656 C-174.82982649 153.11184258 -175.85744641 159.9541485 -176.03515625 167.3671875 C-176.140625 170.1953125 -176.140625 170.1953125 -176.63232422 171.88671875 C-177.36768484 175.22656985 -177.34396951 178.55642677 -177.37890625 181.9609375 C-177.386978 182.71316589 -177.39504974 183.46539429 -177.40336609 184.24041748 C-177.41717025 185.83066529 -177.42790875 187.42094228 -177.43579102 189.01123047 C-177.44729664 190.62687955 -177.46772623 192.24249105 -177.49731445 193.85791016 C-177.85841048 207.88882937 -177.85841048 207.88882937 -170.828125 219.6953125 C-169.94125 220.5203125 -169.054375 221.3453125 -168.140625 222.1953125 C-163.46967521 226.75177823 -160.27039058 231.57762333 -157.328125 237.3828125 C-151.77027177 248.28585645 -144.77590023 257.54548792 -135.140625 265.1953125 C-131.07882484 268.58405907 -127.33585869 271.87055931 -124.06640625 276.04296875 C-119.89588938 280.86244223 -115.02818198 283.37461713 -109.390625 286.1953125 C-102.49024702 289.79203026 -96.11994153 293.41973298 -89.96484375 298.20703125 C-86.21313748 300.84827398 -82.23957579 302.96108944 -78.203125 305.1328125 C-65.43852646 312.04675018 -54.78919169 320.82448706 -44.34375 330.890625 C-30.17664269 344.43455967 -13.08486177 353.02894922 4.54248047 361.28662109 C17.47668901 367.35117361 28.83133131 374.28957799 40.44921875 382.6015625 C42.92924089 384.24151231 45.45215588 385.55226901 48.109375 386.8828125 C56.4350333 391.28149599 63.39607189 397.9068918 70.15234375 404.3984375 C78.73282247 412.56399945 89.49542528 417.92964842 99.921875 423.3828125 C107.16612447 427.32228351 112.09456858 431.92880464 116.796875 438.6953125 C119.96795481 443.25024905 123.18074144 446.24126869 127.64453125 449.4765625 C134.7957383 455.02600007 140.12421291 462.94879837 145.53515625 470.140625 C146.86943603 471.89424985 148.22830151 473.63095121 149.65234375 475.3125 C159.7979005 487.4663032 159.57154577 501.67318732 159.34643555 516.66772461 C159.29753809 519.96312426 159.28496684 523.25700614 159.27929688 526.55273438 C159.22127585 537.59290836 158.81528345 548.57427508 157.95703125 559.58203125 C157.84191444 561.06785454 157.84191444 561.06785454 157.72447205 562.58369446 C156.18774756 580.52590668 156.18774756 580.52590668 152.859375 588.1953125 C150.9258846 592.68783431 150.12744336 596.92333519 149.3984375 601.7421875 C146.18291582 622.34016696 138.80541388 640.33034192 124.859375 656.1953125 C120.22715141 659.23085782 115.18326419 659.06957862 109.859375 658.1953125 C107.72295587 657.15492089 105.62110962 656.04223138 103.546875 654.8828125 C94.97759627 650.25956417 85.96955639 650.01391632 76.41650391 649.25854492 C65.41727878 648.36138694 54.99334472 646.3570655 44.28222656 643.77539062 C36.17419634 641.83416936 28.20828221 640.17400088 19.859375 639.8203125 C13.9745298 639.50883984 8.9477241 638.07844376 3.47143555 636.06298828 C-0.80687383 634.52530605 -4.81760467 633.70640556 -9.328125 633.1953125 C-19.65638017 631.92611316 -27.41877307 627.92922127 -35.7109375 621.8359375 C-41.85783414 617.68529989 -48.56311865 615.94937174 -55.78515625 614.6953125 C-58.01781957 614.22138065 -59.86797128 613.54206192 -61.953125 612.6328125 C-66.47006824 610.80604069 -70.95992666 610.77607773 -75.78125 610.50390625 C-80.06416833 610.11047538 -84.01118434 609.05919174 -88.15625 607.953125 C-96.12054317 605.9307783 -104.16979744 605.17184602 -112.3449707 604.6003418 C-131.40074777 603.23932397 -149.78126839 599.40169721 -168.140625 594.1953125 C-170.66055964 593.52525689 -173.18141335 592.85864914 -175.703125 592.1953125 C-180.41079032 590.94415429 -185.09243773 589.63163025 -189.765625 588.2578125 C-200.65073401 585.12142516 -211.71596043 582.61383674 -222.7734375 580.1640625 C-230.51084156 578.43386291 -237.82768586 576.34861716 -245.265625 573.55078125 C-250.90461157 571.50257333 -256.71854357 569.98947578 -262.50683594 568.42626953 C-266.82762599 567.23669015 -270.95776079 565.91185741 -275.09375 564.1796875 C-280.33451995 562.02301946 -285.60652023 560.68804939 -291.140625 559.5078125 C-292.63468872 559.1821228 -292.63468872 559.1821228 -294.15893555 558.84985352 C-301.21027921 557.39361613 -308.02302824 556.76857189 -315.20507812 556.57080078 C-320.24837787 556.38575719 -323.90447304 555.43962404 -328.421875 553.3046875 C-337.74969447 549.49850829 -348.35975382 548.27964925 -358.265625 546.7578125 C-366.11763171 545.53175446 -373.4103922 543.40403806 -380.94042969 540.91308594 C-392.39914293 537.17489054 -403.54944281 533.93505477 -415.58374023 532.88427734 C-420.19800676 532.4423728 -423.47050417 531.45417496 -427.3984375 529.0625 C-429.505071 528.01390664 -431.17403566 527.89555305 -433.515625 527.7578125 C-437.29796387 527.5043568 -439.81262846 526.5035583 -443.140625 524.6953125 C-447.24712193 522.46752205 -450.34935166 521.78782704 -454.95703125 521.484375 C-458.10086193 521.06819706 -460.57411389 519.78180496 -463.41015625 518.41015625 C-466.13367333 517.19840545 -468.89214629 516.22498943 -471.71704102 515.27807617 C-480.43450767 512.35545147 -488.70725792 508.76087155 -497.03564453 504.87304688 C-502.51908574 502.33027959 -507.99915787 500.06404082 -513.703125 498.0703125 C-520.03349071 495.8297004 -525.50191083 492.7922242 -531.125 489.12890625 C-533.92521474 487.33343177 -536.7488496 485.78137453 -539.703125 484.2578125 C-560.25828273 473.18734909 -578.76011731 452.792118 -587.83203125 431.1953125 C-589.13641733 428.20495873 -590.58357641 425.33384556 -592.08105469 422.4375 C-596.15532536 414.53679448 -599.45024669 406.68746084 -602.140625 398.1953125 C-602.58535156 396.79732422 -602.58535156 396.79732422 -603.0390625 395.37109375 C-606.31955633 384.24664684 -610.74526182 367.16612812 -606.27734375 356.046875 C-605.23290972 354.42895174 -604.18679186 352.81211584 -603.140625 351.1953125 C-602.78407334 348.9746149 -602.78407334 348.9746149 -602.6953125 346.55859375 C-602.2638001 341.40709311 -601.03925353 337.00935078 -599.203125 332.1953125 C-598.89810059 331.38425049 -598.59307617 330.57318848 -598.27880859 329.73754883 C-593.76006824 318.17436306 -587.43707179 307.60725625 -580.640625 297.2578125 C-579.53168065 295.53589261 -578.4304811 293.80954501 -577.33642578 292.078125 C-576.49364238 290.7511455 -575.63933894 289.43144802 -574.77685547 288.1171875 C-565.97043161 274.46738178 -563.60684228 262.05946416 -566.54638672 245.97509766 C-567.58624099 241.48288354 -569.24505836 237.385754 -571.140625 233.1953125 C-571.43533691 232.5132373 -571.73004883 231.83116211 -572.03369141 231.12841797 C-577.82793212 217.82546801 -583.26086689 211.58147173 -596.828125 206.0078125 C-597.66061768 205.68619141 -598.49311035 205.36457031 -599.35083008 205.03320312 C-608.84959536 201.34035384 -614.35060938 195.67913631 -618.953125 186.6328125 C-621.89706251 178.11088813 -622.59691678 167.97524212 -619.3671875 159.41796875 C-611.66918186 145.46839802 -593.33166423 136.48093396 -578.60009766 132.08105469 C-571.72657911 130.15771036 -564.78306671 128.61789726 -557.765625 127.3203125 C-557.05817139 127.18786133 -556.35071777 127.05541016 -555.62182617 126.91894531 C-550.78339461 126.09633534 -547.94011164 126.02807792 -543.828125 128.6953125 C-533.76427106 134.31234725 -516.90674608 131.74655922 -506.20068359 128.85107422 C-501.40845471 127.32560293 -496.84042485 125.20479551 -492.24780273 123.16992188 C-486.70490804 120.74716289 -481.42665862 119.08919445 -475.52026367 117.76049805 C-466.34558854 115.64275062 -457.51226865 112.40591994 -448.61083984 109.36767578 C-444.85334648 108.09825949 -441.08640093 106.86054026 -437.31640625 105.62890625 C-435.30953723 104.97048226 -433.30284441 104.31152395 -431.29620361 103.65240479 C-429.384059 103.02613221 -427.47012968 102.40531693 -425.55615234 101.78466797 C-419.99940349 99.95189206 -414.62015958 98.03896869 -409.32421875 95.54296875 C-404.62663936 93.32948345 -400.06485007 91.96539686 -395.015625 90.8203125 C-388.97044699 89.33737693 -383.32586687 87.59855743 -377.640625 85.0703125 C-357.00235083 76.03295302 -334.47282275 70.35783223 -312.72265625 64.671875 C-308.01807542 63.44102077 -303.35664807 62.10533171 -298.703125 60.6953125 C-290.25231796 58.14704308 -281.70764033 55.97262134 -273.15625 53.79003906 C-267.36095185 52.30710543 -261.59633192 50.77023272 -255.85864258 49.07861328 C-249.0941275 47.09116826 -242.5093184 45.72578282 -235.515625 44.8203125 C-227.9032833 43.83055969 -220.78750596 42.07544101 -213.453125 39.8203125 C-197.86656971 35.0548922 -182.09157167 31.53599793 -165.828125 30.1953125 C-145.47778886 28.50029798 -123.95553353 22.17874564 -105.96875 12.54296875 C-100.60647737 9.98774215 -94.88460031 8.62957413 -89.140625 7.1953125 C-88.35042969 6.98003906 -87.56023438 6.76476562 -86.74609375 6.54296875 C-81.2938006 5.15713543 -75.89145218 4.88049082 -70.28808594 4.55712891 C-66.71578897 4.29202458 -63.24407942 3.74173626 -59.7197876 3.11372375 C-48.92122272 1.20368128 -38.33763254 0.64847311 -27.390625 0.5078125 C-25.62759263 0.4776362 -23.86457167 0.44678574 -22.1015625 0.4152832 C-18.66087169 0.35634522 -15.22021632 0.30613425 -11.77929688 0.26269531 C-7.85154817 0.2109039 -3.92648765 0.1139948 0 0 Z " fill="#000000" transform="translate(723.140625,175.8046875)"/>
<path d="M0 0 C2.19945875 0.01393496 4.39892186 0.02719617 6.59838867 0.03979492 C12.83687442 0.08275791 19.07453305 0.16019523 25.3125 0.25 C26.53338318 0.26610321 26.53338318 0.26610321 27.77893066 0.28253174 C32.2288248 0.34278292 36.67638695 0.43583515 41.125 0.5625 C42.62003052 0.59585449 42.62003052 0.59585449 44.14526367 0.62988281 C56.16235577 1.09316222 66.71549259 4.98318466 77.75 9.5 C107.85404918 21.55274651 140.27629191 32.15524564 172.9375 33.625 C178.9411636 33.97546767 184.18045195 35.61934253 189.86010742 37.45043945 C195.98425287 39.34556478 201.54006904 39.71530838 207.953125 39.9453125 C212.07749674 40.31938343 215.16932575 41.57317567 218.89453125 43.29296875 C221.54216271 44.34090043 223.86285555 44.67301884 226.6875 45 C232.48845772 45.82235799 237.39904907 47.79293202 242.75 50.0625 C253.0488995 54.39477037 263.41318647 56.92347453 274.3125 59.25 C277.08680297 59.86032189 279.85707958 60.486378 282.625 61.125 C283.28862549 61.27727051 283.95225098 61.42954102 284.63598633 61.58642578 C292.06882131 63.34446802 299.37453548 65.5569834 306.67700195 67.78857422 C314.80844711 70.23585599 322.79741766 72.51343896 331.34765625 72.0625 C337.33659981 71.9395286 341.63191003 74.361615 346.75 77.25 C347.67159912 77.75257324 348.59319824 78.25514648 349.54272461 78.77294922 C356.22024799 82.47619165 362.32685679 86.50505183 368.3125 91.25 C370.33243188 92.73039744 372.35330158 94.20951593 374.375 95.6875 C376.36222382 97.19779011 378.34170427 98.71833459 380.3125 100.25 C381.61380859 101.26126953 381.61380859 101.26126953 382.94140625 102.29296875 C393.18932429 110.84091916 399.52807292 122.16426487 405.20141602 134.05688477 C407.75915497 139.35172995 410.73588398 144.28185975 413.875 149.25 C422.68750468 163.32586364 428.63782858 178.1299247 431.6875 194.5 C432.57989103 198.93757288 433.51479334 202.01918872 436.25 205.625 C441.55335365 212.66975335 443.16065234 222.78965437 443.8125 231.4375 C443.96378156 235.26322858 443.96378156 235.26322858 446.27734375 237.56640625 C448.76143456 240.8419732 448.98879206 242.93371872 449.375 247 C449.52455268 248.34015816 449.67700928 249.67999473 449.83203125 251.01953125 C449.9088916 251.71385254 449.98575195 252.40817383 450.06494141 253.12353516 C451.27328662 263.50291074 453.32810577 272.95256509 457.25634766 282.64550781 C459.12983092 287.3841101 459.84097127 291.47601733 460.0390625 296.52734375 C460.48005646 300.91838359 461.9534466 304.94924078 463.375 309.109375 C465.63671455 316.68611875 465.59842304 324.49356551 465.83007812 332.3359375 C465.99067561 336.50541185 466.25600218 340.37062771 467.328125 344.41015625 C468.82706218 350.56677317 468.64760926 356.86357871 468.62817383 363.16137695 C468.62500093 365.31187086 468.64858783 367.46100208 468.67382812 369.61132812 C468.70595789 376.88434902 468.20535364 382.56546873 465.3125 389.25 C464.99902385 392.8404406 464.99902385 392.8404406 465.0625 396.5 C464.6466385 410.22670409 458.47422939 423.09669975 452.87304688 435.43115234 C450.44510707 440.79580811 448.39261162 446.26279298 446.52905273 451.84863281 C444.04643991 458.89262318 440.01602011 463.19940115 433.6875 467 C432.74648437 467.57234375 431.80546875 468.1446875 430.8359375 468.734375 C430.00320313 469.23453125 429.17046875 469.7346875 428.3125 470.25 C427.3225 470.91 426.3325 471.57 425.3125 472.25 C421.9921875 472.48046875 421.9921875 472.48046875 418.1875 472.4375 C416.92679688 472.43105469 415.66609375 472.42460938 414.3671875 472.41796875 C411.3125 472.25 411.3125 472.25 410.3125 471.25 C408.94023731 471.02433902 407.56439728 470.82040126 406.1875 470.625 C400.63390117 469.58270566 395.86977987 467.30990457 390.84106445 464.84692383 C387.38972994 463.17232467 384.09050157 461.7648714 380.375 460.8125 C373.65326453 458.99040972 367.60547168 455.53682606 361.453125 452.34814453 C359.29179967 451.23938069 357.11808666 450.16018082 354.9375 449.08984375 C354.2254541 448.73946045 353.5134082 448.38907715 352.77978516 448.02807617 C351.42645957 447.36309904 350.07203666 446.70034848 348.71630859 446.0402832 C345.74593833 444.56975323 343.03090061 443.05011965 340.32421875 441.12890625 C336.8896682 438.98620999 333.65686514 438.20565038 329.75 437.4375 C321.69699061 435.65426698 315.43361454 432.43147189 308.3125 428.25 C305.07747122 426.5267081 301.87481785 425.06327481 298.4296875 423.83203125 C294.17403752 422.27634353 290.35129478 420.20418948 286.4375 417.9375 C285.73987549 417.54087158 285.04225098 417.14424316 284.32348633 416.7355957 C280.49551351 414.54925902 276.73488296 412.28001859 273 409.9375 C269.64835674 407.88144993 266.41471791 406.49920436 262.6875 405.25 C258.12483958 403.70986146 254.90730045 401.7069312 251.19921875 398.67578125 C249.32581236 397.26006007 247.58208653 396.37495399 245.4375 395.4375 C239.86131014 392.79672124 235.72112597 388.48008348 231.3125 384.25 C230.54679688 383.5590625 229.78109375 382.868125 228.9921875 382.15625 C217.58946385 371.50841049 211.40029653 357.7554471 204.91699219 343.84423828 C202.64837493 338.99118212 200.4321689 334.25689596 197.5 329.765625 C195.58003862 326.81617507 194.55115205 324.41241592 194.0625 320.875 C193.85173828 319.35519531 193.85173828 319.35519531 193.63671875 317.8046875 C193.17983165 312.79544344 192.93145168 307.77393936 192.82910156 302.74462891 C192.6714534 298.13700299 191.75539252 294.88701997 189.98706055 290.58105469 C188.48320968 285.3842512 188.88625103 279.86405886 188.9375 274.5 C188.92589844 273.30117188 188.91429687 272.10234375 188.90234375 270.8671875 C188.97057857 249.89635415 197.66745144 235.10316922 211.54199219 220.16015625 C213.36223431 218.19634291 215.1548117 216.20968715 216.9453125 214.21875 C222.42037442 208.18418195 227.72130846 202.69748575 234.35546875 197.921875 C237.46782141 195.26301883 239.53380867 191.99572928 241.76171875 188.58984375 C243.3125 186.25 243.3125 186.25 245.875 183.25 C247.99474132 180.64108761 249.49447061 178.22729045 251.125 175.3125 C254.53978185 169.46864652 258.88950134 165.08673099 264.875 161.875 C268.18309545 159.66960303 270.06136206 156.75437008 272.42578125 153.58984375 C275.84399394 149.35069385 280.06054591 146.07943176 284.26953125 142.66015625 C288.73586358 138.96485392 291.78639575 136.11434539 292.875 130.1875 C292.04143997 124.35257978 290.05521642 118.85158604 286.3125 114.25 C280.29859531 111.99806844 274.43093831 111.94330767 268.0625 112 C266.73605469 111.98839844 266.73605469 111.98839844 265.3828125 111.9765625 C264.10277344 111.98042969 264.10277344 111.98042969 262.796875 111.984375 C261.64783691 111.98775879 261.64783691 111.98775879 260.47558594 111.99121094 C258.0427958 112.28226709 256.47243105 113.12909568 254.3125 114.25 C251.85993542 114.47270414 249.3988622 114.60771124 246.9375 114.6875 C234.51603326 115.26079846 224.22428858 117.79432849 213.3984375 124.10546875 C210.91589031 125.46761543 208.36943043 126.65823016 205.8125 127.875 C200.09440227 130.6803746 195.02774558 134.09761608 189.81494141 137.71948242 C186.1836077 140.18303655 182.93490656 141.93244391 178.6875 143.1875 C171.89640864 145.34738852 167.12197133 149.99972863 161.98291016 154.72802734 C160.33103719 156.23311008 158.64687387 157.69144103 156.94921875 159.14453125 C143.90054753 170.46712715 136.35219995 183.40720664 129.04101562 198.92431641 C122.06047569 213.54174264 113.66115009 222.84644194 98.6796875 229.0859375 C90.94919293 231.75842866 83.1513949 231.46761203 75.0625 231.5 C73.79019531 231.520625 72.51789062 231.54125 71.20703125 231.5625 C58.09014256 231.61664608 49.9561062 229.25870686 40.3125 220.25 C32.59532862 212.47744222 31.17859607 204.51216679 31.07421875 193.9140625 C31.066147 193.11704926 31.05807526 192.32003601 31.04975891 191.49887085 C31.03597493 189.81290826 31.02522755 188.12691843 31.01733398 186.44091797 C31.00589836 184.74812404 30.98558269 183.0553637 30.95581055 181.36279297 C30.77242743 170.90688187 31.46618052 161.66479744 34.42407227 151.60327148 C35.24570164 148.50212297 35.54816243 145.87948031 35.5625 142.6875 C36.07393065 135.05013561 40.52592299 128.70131667 44.3125 122.25 C52.90543049 108.07649011 52.90543049 108.07649011 57.3125 92.25 C57.47878906 90.98542969 57.47878906 90.98542969 57.6484375 89.6953125 C57.94654629 85.36563717 57.72795324 83.78896636 55 80.25 C50.9746757 77.25440983 48.07785646 77.12215161 43.1875 77.1171875 C41.93727051 77.11477051 40.68704102 77.11235352 39.39892578 77.10986328 C38.03678038 77.11386244 36.67463777 77.11893499 35.3125 77.125 C34.27558014 77.12932037 34.27558014 77.12932037 33.2177124 77.13372803 C28.92994336 77.15458498 24.64246552 77.19168706 20.3548584 77.23364258 C18.44006988 77.24897828 16.5251991 77.25282875 14.61035156 77.25585938 C-14.91763417 77.33877986 -43.04638433 85.3045722 -69.98974609 97.23901367 C-72.70950436 98.25824616 -75.12005598 98.69983442 -78 99 C-85.16369292 100.07091491 -90.9646233 104.09500278 -96.89135742 108.0534668 C-98.11088149 108.86587504 -99.34922778 109.65057938 -100.6027832 110.40942383 C-105.28406055 113.39397498 -106.76544815 115.85131881 -108.375 121.3125 C-110.96914737 129.29716896 -114.90179698 136.08089714 -119.3737793 143.15844727 C-124.89683822 151.94297926 -128.17041434 159.12741192 -128.8125 169.5625 C-128.95647025 171.4143113 -129.10358855 173.26588063 -129.25390625 175.1171875 C-129.35856201 176.44121582 -129.35856201 176.44121582 -129.46533203 177.79199219 C-129.99038872 183.60108097 -131.12175927 189.30979999 -132.22265625 195.03125 C-134.93017616 213.77911897 -130.09870707 227.02210419 -118.9375 242.0390625 C-114.12576771 248.35014439 -108.99524979 254.35347955 -103.6875 260.25 C-102.96167725 261.06041748 -102.96167725 261.06041748 -102.22119141 261.88720703 C-99.08437679 265.38064571 -95.89909982 268.82495537 -92.6875 272.25 C-91.60662109 273.42949219 -91.60662109 273.42949219 -90.50390625 274.6328125 C-85.30174437 280.12905371 -80.26951528 282.84439907 -73.29296875 285.58203125 C-69.67747386 287.25463831 -67.118875 289.09065049 -64.0625 291.625 C-58.39010603 296.18121874 -52.39870335 300.03215133 -46.1875 303.8125 C-33.76700727 311.39266981 -22.21962996 319.40380513 -11.21777344 328.93310547 C-7.11587918 332.46303808 -2.90831615 335.86400641 1.3125 339.25 C1.84407715 339.67732422 2.3756543 340.10464844 2.92333984 340.54492188 C10.51662851 346.61955281 17.4820577 351.96568845 26.98046875 354.5625 C32.1486282 356.09571277 36.71169174 358.24448527 41.4375 360.8125 C42.25371826 361.24941162 43.06993652 361.68632324 43.91088867 362.13647461 C51.28994407 366.1372536 58.40965209 370.49915623 65.45556641 375.05615234 C67.24543194 376.20688104 69.04742895 377.33512971 70.85546875 378.45703125 C82.40254586 385.66299203 93.84031955 393.34784257 103.3125 403.1875 C109.33461986 409.41512247 114.49768949 412.64279481 122.625 415.5625 C129.48990782 418.12403277 134.67470176 421.61762153 140.3125 426.25 C140.90885254 426.7356543 141.50520508 427.22130859 142.11962891 427.72167969 C144.09383841 429.33998239 146.04966098 430.97802554 148 432.625 C148.60569824 433.12966797 149.21139648 433.63433594 149.83544922 434.15429688 C153.35582176 437.19657057 156.29051631 440.37924543 159.1484375 444.0546875 C163.4103654 449.53011319 168.24920094 454.20744925 173.25 459 C180.96300815 466.57294989 187.12577725 473.72953686 192.3125 483.25 C193.2139828 484.83586694 194.11777998 486.4204197 195.0234375 488.00390625 C196.81559599 491.16306024 198.59609058 494.32770393 200.34375 497.51171875 C200.87838867 498.48564575 200.87838867 498.48564575 201.42382812 499.47924805 C203.12124746 502.86149598 203.42417095 505.50393112 203.3659668 509.22338867 C203.35223526 510.24214081 203.33850372 511.26089294 203.32435608 512.31051636 C203.30368576 513.41847565 203.28301544 514.52643494 203.26171875 515.66796875 C203.24366684 516.82088409 203.22561493 517.97379944 203.20701599 519.16165161 C203.14505258 522.92042959 203.0736431 526.67893362 203 530.4375 C202.97605164 531.71064056 202.95210327 532.98378113 202.9274292 534.29550171 C201.0191989 633.3833735 201.0191989 633.3833735 175.3125 670.25 C174.60222656 671.2709375 173.89195312 672.291875 173.16015625 673.34375 C160.59235669 690.70235179 160.59235669 690.70235179 152.3125 693.25 C141.31664208 694.58232021 130.80576496 691.71758227 121.125 686.5625 C115.42022075 683.81019422 110.14641653 683.78003851 103.93725586 683.62768555 C97.70610234 683.43508292 91.79342468 682.62348296 85.6875 681.375 C84.88320557 681.21314209 84.07891113 681.05128418 83.25024414 680.88452148 C79.38752713 680.06049123 75.72704434 679.06977238 72.01953125 677.70703125 C66.34939698 675.7486617 60.5678993 675.36002571 54.625 674.8125 C46.01989657 673.94057737 38.12803605 672.81221248 29.94921875 669.921875 C26.98913112 669.16760082 25.21337871 669.36690064 22.3125 670.25 C21.9825 670.58 21.6525 670.91 21.3125 671.25 C16.54176138 671.68370351 14.26496562 670.81910265 10.3125 668.25 C9.38421387 667.94932617 8.45592773 667.64865234 7.49951172 667.33886719 C4.31684226 666.25148357 1.7141687 664.90587345 -1.1796875 663.203125 C-2.20634521 662.60806152 -3.23300293 662.01299805 -4.29077148 661.39990234 C-5.9102771 660.45945068 -5.9102771 660.45945068 -7.5625 659.5 C-26.06850618 648.98186242 -44.88067163 642.03082613 -66.35546875 641.62109375 C-69.6875 641.25 -69.6875 641.25 -73.03515625 639.75390625 C-77.50087031 637.91508281 -81.16718958 637.8154556 -85.9375 637.75 C-112.19847041 636.87036503 -138.84533035 630.37894098 -163.640625 621.88671875 C-166.23784361 621.00260237 -168.83687919 620.12405749 -171.4375 619.25 C-172.42148773 618.91891739 -172.42148773 618.91891739 -173.425354 618.58114624 C-184.76223897 614.80940318 -195.96331823 612.46588431 -207.80371094 610.87109375 C-214.79110289 609.90518389 -220.38998021 608.38013776 -226.6875 605.25 C-230.74274131 603.75175814 -234.69337557 602.79961765 -238.9375 602 C-244.53704604 600.84026138 -249.79681445 599.26838077 -255.1875 597.375 C-272.49079817 591.37605352 -290.72144855 588.33751621 -308.65966797 584.84082031 C-311.57754399 584.2714557 -314.49387952 583.69467805 -317.41015625 583.1171875 C-326.34557125 581.36498917 -335.20321792 579.78650364 -344.265625 578.83984375 C-348.60123851 578.09249485 -352.55234673 576.72689837 -356.6875 575.25 C-374.01502976 569.0354388 -374.01502976 569.0354388 -392.05078125 565.796875 C-398.80514347 564.78118143 -405.12760281 562.25310927 -411.54785156 559.98730469 C-418.49556797 557.5931806 -425.51130352 555.47939444 -432.8125 554.5625 C-448.57880009 551.9386533 -464.78492256 541.66968868 -478.7421875 534.04296875 C-485.22402154 530.56110722 -490.54714459 527.94895918 -498 527.25 C-504.5260287 526.62776798 -508.05959878 524.43313914 -513.08984375 520.34375 C-515.62957966 518.29668467 -518.18649487 516.64365724 -521 515 C-521.81984375 514.51789062 -522.6396875 514.03578125 -523.484375 513.5390625 C-524.57492187 512.90097656 -524.57492187 512.90097656 -525.6875 512.25 C-530.39847181 509.36573154 -534.26641422 505.95468286 -538.33203125 502.25 C-540.53474341 500.37970377 -542.7299575 498.88469452 -545.1875 497.375 C-557.55569741 489.25037377 -564.37977404 475.69859976 -571.6875 463.25 C-572.15897461 462.44900879 -572.63044922 461.64801758 -573.11621094 460.82275391 C-582.88443965 444.09191338 -590.52282293 426.94467614 -595.6875 408.25 C-595.955625 407.280625 -596.22375 406.31125 -596.5 405.3125 C-599.40355154 392.40782649 -599.02251264 376.89771515 -594.703125 364.40234375 C-593.66433482 361.17809884 -592.96696163 358.00985521 -592.3125 354.6875 C-589.51999901 341.54062651 -586.03885496 329.28918097 -576.875 319.0625 C-566.49959782 307.18407359 -555.56655181 289.35706139 -556.3671875 273.05078125 C-557.88545023 258.68642273 -557.88545023 258.68642273 -564.6875 246.25 C-565.78578125 244.74953125 -565.78578125 244.74953125 -566.90625 243.21875 C-569.71149392 239.87095798 -572.66678218 238.76844586 -576.8125 237.375 C-584.04073005 234.74510762 -589.78291405 231.24326721 -595.6875 226.25 C-596.42742187 225.63382813 -597.16734375 225.01765625 -597.9296875 224.3828125 C-608.35989491 214.89722764 -611.48653603 202.67593907 -612.17163086 189.12744141 C-612.57707872 175.53420205 -608.72807048 166.45617862 -599.6875 156.25 C-595.49600137 152.35596257 -590.83360379 149.75900836 -585.6875 147.3125 C-581.87259978 145.49272151 -578.97402852 143.80657815 -576 140.8125 C-563.59480456 129.17941216 -540.40899628 125.0891663 -524.125 125 C-523.17947266 124.979375 -522.23394531 124.95875 -521.25976562 124.9375 C-519.89174805 124.92976563 -519.89174805 124.92976563 -518.49609375 124.921875 C-517.66907959 124.9125293 -516.84206543 124.90318359 -515.98999023 124.89355469 C-513.16184819 125.33137543 -511.87629032 126.45519757 -509.6875 128.25 C-499.06488962 132.28659195 -490.08349794 129.86266433 -479.75 126.1875 C-478.5635791 125.77991455 -477.3771582 125.3723291 -476.15478516 124.95239258 C-468.47785907 122.29707077 -460.87412063 119.4643101 -453.28540039 116.56860352 C-447.46635785 114.40262303 -441.61989715 112.96161322 -435.55419922 111.67114258 C-430.34195144 110.52325868 -425.86919682 108.7141931 -421.11328125 106.33984375 C-418.01569614 104.94817508 -414.97312682 104.39207196 -411.65234375 103.7734375 C-409.42277154 103.30085967 -409.42277154 103.30085967 -406.9375 101.3125 C-402.74079715 98.6492078 -398.69027706 98.0371019 -393.86328125 97.03125 C-390.41864273 96.18386045 -387.71789391 94.91361234 -384.62890625 93.23046875 C-378.84685013 90.3103559 -373.05180617 89.18248626 -366.625 88.9375 C-361.11308292 88.60748713 -358.34864658 87.01637715 -354.02734375 83.734375 C-350.55629907 81.53237671 -346.9725302 80.86228434 -342.97265625 80.0859375 C-340.13514008 79.36390604 -337.68202469 78.47254875 -334.98828125 77.35546875 C-329.6958053 75.18201208 -324.34067034 73.63789334 -318.8125 72.1875 C-317.3569873 71.79691406 -317.3569873 71.79691406 -315.87207031 71.3984375 C-311.07462231 70.1174014 -306.26971085 68.89375859 -301.4375 67.75 C-296.39479272 66.51490213 -291.48756647 64.94543135 -286.5625 63.3125 C-285.83385742 63.07144531 -285.10521484 62.83039063 -284.35449219 62.58203125 C-280.44453835 61.2617415 -276.62056592 59.8239701 -272.80859375 58.2421875 C-267.59851956 56.13418386 -262.32127022 54.67489168 -256.875 53.3125 C-255.38166138 52.93291138 -255.38166138 52.93291138 -253.8581543 52.5456543 C-251.80319484 52.02601872 -249.74728112 51.51014229 -247.69042969 50.99804688 C-244.86664636 50.29462638 -242.04663081 49.57750987 -239.2265625 48.859375 C-229.67134695 46.46835556 -220.21579474 44.65085078 -210.45263672 43.34741211 C-205.18546326 42.60259673 -200.74004899 41.34535619 -195.8984375 39.0859375 C-192.52296701 37.80969954 -189.16889268 37.80014444 -185.5925293 37.60498047 C-182.69223948 37.25057914 -180.59671223 36.53822732 -177.91796875 35.40625 C-170.30797822 32.53160666 -162.43974886 31.48846358 -154.4375 30.25 C-144.44438239 28.68877698 -134.72529577 26.91957972 -125.00390625 24.09277344 C-121.63167143 23.2358127 -118.39897562 22.81276304 -114.9375 22.5 C-108.07571151 21.63746317 -102.47060137 19.21971134 -96.22338867 16.42602539 C-87.69777191 12.67339467 -78.92768791 10.20426785 -69.93164062 7.84765625 C-68.054784 7.34781454 -66.18967442 6.80413564 -64.328125 6.25 C-57.78813682 4.37110837 -51.48141098 3.82630885 -44.70629883 3.71557617 C-40.11495364 3.58805338 -36.05182473 2.87086548 -31.59765625 1.734375 C-21.17837348 -0.6027649 -10.62312202 -0.11276304 0 0 Z M15.64746094 16.30859375 C11.32676729 16.36264537 7.00660425 16.43418969 2.68634033 16.51547241 C0.96761811 16.5462774 -0.75118038 16.57313846 -2.47003174 16.59561157 C-13.3765735 16.74682763 -23.82439333 17.66878545 -34.56640625 19.58740234 C-38.19507802 20.21806121 -41.75164678 20.46957684 -45.4375 20.5625 C-59.53471056 21.41987421 -73.40091463 25.72897533 -85.91113281 32.13574219 C-103.81341117 40.99817258 -124.69527496 45.15261405 -144.4375 47.1875 C-160.55299876 48.86336015 -175.87565311 52.62892361 -191.34130859 57.43212891 C-198.02607591 59.44678282 -204.41806876 60.66425407 -211.35940552 61.40045166 C-220.0537004 62.40323684 -228.39034642 64.81859467 -236.8125 67.125 C-238.45156884 67.56475018 -240.09089153 68.00355534 -241.73046875 68.44140625 C-254.87367127 71.96466041 -267.94462761 75.72766791 -281 79.5625 C-287.23320478 81.39293236 -293.46891637 83.20318289 -299.73828125 84.90625 C-311.43574433 88.08814863 -322.9978948 91.55306062 -334.5 95.375 C-335.73314941 95.78274658 -336.96629883 96.19049316 -338.23681641 96.6105957 C-343.92431722 98.52432425 -349.50374257 100.54522361 -355.0234375 102.90234375 C-360.45040221 105.21563869 -365.83901922 106.79398427 -371.55664062 108.18945312 C-377.10324386 109.62522236 -382.29789909 111.65936687 -387.59773254 113.82910156 C-395.34120395 116.97027107 -403.25328076 119.57544046 -411.1875 122.1875 C-412.77459222 122.71341382 -414.36166887 123.23937463 -415.94873047 123.76538086 C-428.98774019 128.07348646 -442.07837133 132.21882038 -455.28344727 135.99169922 C-460.19122643 137.41391038 -464.74227144 139.06184777 -469.375 141.25 C-483.70755132 147.48559051 -500.52637404 149.97231792 -515.6875 145.25 C-516.30367187 144.72019531 -516.91984375 144.19039063 -517.5546875 143.64453125 C-522.15418455 140.63716779 -528.57343918 143.21226765 -533.6875 144.25 C-534.91557373 144.4984668 -534.91557373 144.4984668 -536.16845703 144.75195312 C-556.25685718 148.93531841 -577.80207367 156.03561155 -590.6875 173.25 C-594.97363848 181.28102398 -594.55408576 190.46518094 -592.37890625 199.08984375 C-589.33348764 208.60462617 -584.16899242 214.86644616 -575.5703125 219.8203125 C-572.46176365 221.36195055 -569.3313898 222.52708204 -566.0625 223.6875 C-554.8295259 227.92784896 -550.31977177 234.41793329 -545.51953125 245.02734375 C-544.90683866 246.43401967 -544.29607091 247.84153601 -543.6875 249.25 C-543.15511719 250.42691406 -542.62273437 251.60382813 -542.07421875 252.81640625 C-537.17851156 265.15910467 -535.47318176 280.25942964 -540.734375 292.7265625 C-543.35715761 298.12553294 -546.45482273 303.19888059 -549.6875 308.25 C-550.72804989 309.90743576 -551.76841663 311.56498652 -552.80859375 313.22265625 C-554.32953392 315.63055027 -555.85648395 318.03377863 -557.3996582 320.42749023 C-565.93251872 333.71930325 -574.54731499 349.07297794 -575.375 365.109375 C-575.6875 367.25 -575.6875 367.25 -577.75 370.4375 C-583.36918414 379.2354197 -579.30062143 394.40210247 -577.18359375 404.08837891 C-574.62480157 415.23776178 -571.06843931 425.15837739 -565.72265625 435.2734375 C-563.98676326 438.58199893 -562.51145449 441.94699107 -561.09057617 445.40063477 C-555.21938547 459.62757175 -545.87320109 470.90011319 -535.6875 482.25 C-535.02234375 483.01183594 -534.3571875 483.77367187 -533.671875 484.55859375 C-525.36099371 493.53795897 -514.06532911 499.61206714 -503.5 505.5625 C-502.80084473 505.95872559 -502.10168945 506.35495117 -501.38134766 506.76318359 C-496.33434959 509.54165813 -491.15022 511.78840258 -485.81762695 513.9621582 C-480.62404123 516.09897785 -475.50657661 518.4067548 -470.375 520.6875 C-458.30643113 526.02205377 -446.20431421 531.08036627 -433.76171875 535.48828125 C-431.6875 536.25 -431.6875 536.25 -429.6875 537.25 C-428.35556789 537.35333956 -427.02176817 537.43328659 -425.6875 537.5 C-421.81226879 537.87261839 -419.10132867 538.89373066 -415.6875 540.75 C-411.56346544 542.990768 -408.43935672 543.6726849 -403.8046875 543.9453125 C-401.47842484 544.28008831 -400.18219069 544.972955 -398.1875 546.1875 C-394.24722968 548.36277693 -390.40996709 548.73994272 -386 549.125 C-374.17963407 550.21093285 -362.94766764 553.76210863 -351.74609375 557.578125 C-342.15099116 560.793451 -332.5438779 562.6783789 -322.5793457 564.43896484 C-301.14217343 568.2514286 -301.14217343 568.2514286 -295.796875 571.34375 C-292.58730075 572.7226782 -289.31398032 572.50675311 -285.875 572.5625 C-271.61513092 573.08900004 -256.98526441 575.86373077 -244.02734375 581.93359375 C-239.21637025 583.8298488 -234.2621679 585.00073404 -229.25 586.25 C-223.11129333 587.78006365 -217.153373 589.27733734 -211.3125 591.75 C-198.24966339 597.13085058 -183.76439686 599.3710927 -170 602.375 C-161.55200715 604.22002822 -153.29312961 606.59024397 -145.00439453 609.04443359 C-125.15547992 614.8838857 -105.91301464 619.04446356 -85.25927734 620.5324707 C-75.27942816 621.27551152 -65.72905352 623.03022811 -56 625.375 C-52.43051283 626.21807888 -48.97332002 626.4361652 -45.3125 626.625 C-39.79862595 626.97804199 -35.39999159 628.21359037 -30.3046875 630.28125 C-27.7232013 631.23678519 -25.33664767 631.74822997 -22.625 632.1875 C-14.86532899 633.60725053 -8.59157048 637.61534436 -2.0625 641.875 C4.66225004 646.19872353 9.93006911 648.13633708 17.875 649.125 C23.17323311 649.78657233 27.79553446 650.99052188 32.8125 652.8125 C38.68970731 654.93561676 43.9554641 655.64190646 50.18359375 655.8828125 C60.73829267 656.57483596 71.38445665 659.61427525 81.65454102 662.0390625 C90.18875449 663.99645641 98.52943675 664.86969909 107.25 665.5 C117.50823784 666.3527062 125.35612112 667.79314816 134.31640625 672.78515625 C138.89425418 675.02334787 143.35331514 675.37931932 148.3125 674.25 C152.81781555 672.17657085 155.3527557 669.0490194 158.125 665.0625 C158.55369385 664.45317627 158.9823877 663.84385254 159.42407227 663.21606445 C168.29478686 650.24763506 173.69500573 636.68149605 176.3125 621.25 C178.82526951 607.11188723 178.82526951 607.11188723 181.375 600.875 C184.19338163 593.61390228 184.7165991 585.958888 185.3125 578.25 C185.43951294 576.65647705 185.43951294 576.65647705 185.5690918 575.03076172 C186.39889561 563.40743473 186.63381474 551.7830235 186.7175293 540.13232422 C186.73917792 537.87728628 186.77336077 535.62233388 186.82006836 533.36767578 C187.22041991 513.73762719 185.37017093 499.66258118 171.67871094 484.79785156 C169.71134522 482.56892042 167.93841437 480.20677607 166.14379883 477.83813477 C161.38403834 471.56098698 156.41060209 466.28000275 150.3125 461.25 C147.00538804 458.18487184 144.33522361 454.9598376 141.625 451.375 C135.41122577 443.58476824 127.71851028 439.41110417 119 434.9375 C107.48194141 429.00361034 98.34292095 421.31189568 88.98217773 412.44360352 C84.47968842 408.24615905 79.73839602 405.15863606 74.3125 402.25 C68.87380977 399.12052415 63.69835051 395.82015686 58.625 392.125 C46.5717 383.5305696 32.80566315 377.24847451 19.375 371.125 C3.45079779 363.79006689 -10.53084449 353.90586999 -22.625 341.1875 C-31.44412191 332.18192731 -42.2546952 325.71742303 -53.28369141 319.8046875 C-57.41736619 317.57266255 -61.21686777 315.26683755 -64.9375 312.375 C-69.26270281 309.02731981 -73.782289 306.60201012 -78.63330078 304.12695312 C-89.36386033 298.62483591 -96.75185126 292.91437659 -104.41796875 283.6796875 C-106.10754308 281.77696687 -107.97938947 280.32686491 -110.0625 278.875 C-120.46506209 271.62143896 -127.13532756 259.34697972 -132.8125 248.25 C-135.00904348 244.08748943 -137.23386286 241.61410564 -140.9453125 238.78515625 C-144.97076299 235.23806647 -148.00040414 230.31128758 -149.6875 225.25 C-149.78434514 222.6379222 -149.82748109 220.05335834 -149.8203125 217.44140625 C-149.82174759 216.2967112 -149.82174759 216.2967112 -149.82321167 215.12889099 C-149.82389174 213.51585813 -149.82204951 211.90282252 -149.81787109 210.28979492 C-149.81252774 207.82529521 -149.81781811 205.36097836 -149.82421875 202.89648438 C-149.82355779 201.3281246 -149.82227627 199.75976494 -149.8203125 198.19140625 C-149.82233673 197.45588028 -149.82436096 196.72035431 -149.82644653 195.96253967 C-149.81093373 192.56317914 -149.65494695 189.51258569 -148.6875 186.25 C-148.60982567 184.16717722 -148.54995104 182.08367198 -148.5 180 C-147.77499853 165.68031009 -144.46071925 149.96819992 -136.4609375 137.93359375 C-134.48999102 134.95112628 -132.94250124 131.89977367 -131.375 128.6875 C-128.05850772 121.9414532 -124.57925118 115.29022655 -121.06323242 108.64624023 C-120.65435791 107.87352783 -120.2454834 107.10081543 -119.82421875 106.3046875 C-119.46030029 105.61874512 -119.09638184 104.93280273 -118.72143555 104.22607422 C-118.00374073 102.85440437 -117.32505424 101.46189528 -116.67822266 100.05541992 C-115.6875 98.25 -115.6875 98.25 -113.69921875 97.30859375 C-112.93222656 97.10363281 -112.16523437 96.89867187 -111.375 96.6875 C-106.34925911 95.18620041 -102.86662746 93.27191047 -98.875 89.8125 C-92.56313459 84.50733717 -86.57786853 82.94253592 -78.49609375 81.8125 C-75.29505455 81.17140175 -73.34355216 80.02632153 -70.6809082 78.23828125 C-68.18177968 76.99927669 -65.95967826 76.73566946 -63.1953125 76.375 C-56.82418834 75.38919898 -51.08487375 73.50226986 -45.0625 71.25 C-38.79282552 68.92415302 -32.78478552 66.86122912 -26.15869141 65.83984375 C-23.48366049 65.28174182 -23.48366049 65.28174182 -20.36181641 63.76464844 C-8.1591646 58.73439915 7.11757156 59.93314826 20.10693359 59.98925781 C23.07279655 60.00003742 26.0380608 59.98926419 29.00390625 59.9765625 C55.77289999 59.9533664 55.77289999 59.9533664 62.75 65.125 C69.51957831 71.92326296 73.44840032 81.40129787 73.5 90.875 C73.34047979 105.02879287 67.93919604 115.02049161 60.6875 126.9375 C55.26847756 135.89856505 51.92254439 142.5147403 51.5859375 153.234375 C51.3125 156.25 51.3125 156.25 50.30981445 158.48095703 C49.05401724 161.96767724 49.07019969 164.86633964 49.08203125 168.5703125 C49.08248947 169.26961884 49.08294769 169.96892517 49.0834198 170.68942261 C49.08643155 172.16698913 49.09428552 173.64455278 49.10668945 175.12207031 C49.12477344 177.3471241 49.12719992 179.57175583 49.12695312 181.796875 C48.22870574 197.61192178 48.22870574 197.61192178 54.83984375 211.0078125 C60.87718099 216.10031447 73.90046298 213.71385472 81.3125 213.25 C84.55196823 212.84387374 87.69913228 212.25264157 90.875 211.5 C91.54539307 211.34313721 92.21578613 211.18627441 92.90649414 211.0246582 C99.94906595 209.14765933 104.35693084 205.98060301 108.0625 199.75 C108.39193604 199.20029541 108.72137207 198.65059082 109.06079102 198.08422852 C112.07732094 192.92792859 114.64109158 187.55745295 117.25 182.1875 C121.20318366 174.09493199 125.43785038 167.12886323 131.3125 160.25 C132.13878906 159.27417969 132.96507812 158.29835938 133.81640625 157.29296875 C138.06766064 152.44459161 142.29425627 148.20652061 147.578125 144.5078125 C150.09223128 142.6845192 152.14804119 140.46995775 154.3125 138.25 C158.73607167 134.19618516 163.33254529 130.70700434 168.4375 127.5625 C169.11707764 127.14170166 169.79665527 126.72090332 170.49682617 126.28735352 C220.55183455 95.81689295 220.55183455 95.81689295 239.0859375 96.22265625 C239.9934375 96.23490234 240.9009375 96.24714844 241.8359375 96.25976562 C243.72924588 96.29477886 245.62248447 96.33380835 247.515625 96.37695312 C252.67167098 96.43903017 256.40903879 95.91002593 261.3125 94.25 C264.85557763 93.92488892 268.38140897 93.91671648 271.9375 93.9375 C273.40485596 93.94487183 273.40485596 93.94487183 274.90185547 93.95239258 C292.38150104 94.23525821 292.38150104 94.23525821 297.5 99.5 C299.39938551 102.38182629 300.29188176 104.74018283 301.1875 108.0625 C302.27914326 111.90508429 303.43193884 115.66102707 304.8984375 119.375 C305.17316895 120.07133545 305.44790039 120.7676709 305.73095703 121.48510742 C306.27064629 122.83337984 306.82053924 124.17762927 307.38232422 125.5168457 C309.94891268 131.97793881 310.42830512 138.7511428 307.7265625 145.265625 C305.18166517 148.83691739 301.38967448 150.72203284 297.703125 152.98828125 C292.14332029 156.53145159 287.57313461 161.28078432 282.83349609 165.82324219 C280.62236788 167.89737273 278.30448501 169.84327698 276 171.8125 C269.53201835 177.6294835 264.53968981 184.3302029 260.9375 192.25 C257.94827282 198.6122065 253.12213634 203.21931856 248.3125 208.25 C247.19986734 209.53438132 246.09482569 210.82540641 245 212.125 C241.73435695 215.88048951 238.259443 219.41176615 234.75 222.9375 C234.20754639 223.4845459 233.66509277 224.0315918 233.10620117 224.59521484 C230.56106261 227.13070542 228.0019535 229.54366289 225.19921875 231.79296875 C217.17389971 238.62372068 212.15309729 247.20589907 209.3125 257.25 C208.69375 259.10625 208.69375 259.10625 208.0625 261 C205.90658414 270.49768337 207.05487849 279.98542332 209.51953125 289.25390625 C211.01026593 295.80431793 211.16148927 302.6324372 211.57763672 309.31787109 C212.31738234 320.77515528 212.31738234 320.77515528 217.3125 330.9375 C221.47580909 337.12174872 224.48318692 343.74131088 227.49609375 350.54956055 C234.78807065 366.55156476 248.93407261 379.57028646 265.40625 385.91796875 C267.59431936 386.72550318 269.78876086 387.51393001 271.98364258 388.30273438 C278.82366397 390.85684204 285.09401921 394.21257085 291.4375 397.8125 C292.8769397 398.62605957 292.8769397 398.62605957 294.34545898 399.45605469 C299.97346486 402.70755042 305.20861856 406.22956477 310.3125 410.25 C316.7135374 415.08633937 323.89079871 417.28285252 331.5234375 419.47265625 C332.26231201 419.6847876 333.00118652 419.89691895 333.76245117 420.11547852 C335.21332615 420.52691595 336.66652985 420.93026132 338.12231445 421.32397461 C345.68035492 423.44292683 352.17306554 427.13833766 358.95996094 431.00585938 C375.00067636 440.09970613 392.72966127 449.30565591 410.9375 453 C412.18789062 453.26296875 413.43828125 453.5259375 414.7265625 453.796875 C418.28965787 454.24711363 420.85167141 454.15521673 424.3125 453.25 C431.38417224 447.6936861 433.65086967 439.82680221 435.4375 431.375 C437.68711174 421.52113346 441.16613083 412.29008587 444.92236328 402.92041016 C445.34501465 401.86515137 445.76766602 400.80989258 446.203125 399.72265625 C446.77595215 398.31898804 446.77595215 398.31898804 447.36035156 396.88696289 C449.4596812 391.07289638 449.48709779 385.56345169 449.515625 379.4453125 C449.52417511 378.01105423 449.52417511 378.01105423 449.53289795 376.54782104 C449.54233272 374.52212625 449.54887587 372.49641621 449.55273438 370.47070312 C449.56235714 367.42028666 449.59336039 364.37056863 449.625 361.3203125 C449.67807315 351.32677653 449.27690747 342.05873812 446.99853516 332.31738281 C446.10464532 328.3206455 445.94313553 324.65463976 445.875 320.5625 C445.63515202 313.80888574 444.80149104 307.3187299 443.5 300.6875 C443.34668213 299.87901611 443.19336426 299.07053223 443.03540039 298.23754883 C442.18286315 294.14055157 441.06924796 290.52530378 439.27734375 286.73828125 C437.16047918 282.22411068 436.33751389 277.91677177 435.6875 273 C434.94480665 267.19856532 434.94480665 267.19856532 433.25 261.63671875 C432.01401429 258.49010512 432.03262566 255.68214345 431.9375 252.3125 C431.62099183 246.55563447 430.57609056 243.98747017 427.3125 239.25 C427.2196009 236.49680859 427.36914133 233.86763568 427.66015625 231.12890625 C427.22537653 227.52853938 425.81407085 225.93041912 423.64233398 223.11401367 C421.439271 220.02600451 420.1519735 216.65486474 418.8125 213.125 C418.51263184 212.35003174 418.21276367 211.57506348 417.90380859 210.77661133 C415.72591891 204.91777312 414.25083185 199.04036225 412.9375 192.9375 C409.88794636 178.91475504 404.40126845 165.39859542 396.55859375 153.34765625 C395.23205984 151.11458819 394.41587338 148.95000745 393.5625 146.5 C388.06480558 132.04309986 374.39075853 116.62065672 362.3125 107.25 C361.57902344 106.63382812 360.84554687 106.01765625 360.08984375 105.3828125 C354.40936741 100.9307969 349.65532584 99.47826511 342.6171875 98.25390625 C335.95646541 96.88789375 329.6702743 94.13880137 323.36669922 91.64892578 C311.3667281 86.95815527 298.94530832 83.81479825 286.46337891 80.69506836 C284.44430688 80.18920541 282.4272478 79.67580449 280.41015625 79.16210938 C272.21033473 77.09596961 264.01403819 75.38207824 255.67895508 73.95092773 C252.04390065 73.19407508 249.12396407 72.00067607 245.83203125 70.3515625 C240.26307403 67.9167626 234.26713634 66.51494564 228.4296875 64.85693359 C225.29696042 63.95887553 222.17900287 63.01515827 219.0625 62.0625 C218.06734375 61.75957031 217.0721875 61.45664063 216.046875 61.14453125 C213.3125 60.25 213.3125 60.25 211.046875 59.19140625 C207.03196666 57.80913066 203.02893398 57.67981642 198.8125 57.375 C179.74052876 55.74473383 161.21516725 51.18569098 142.59765625 46.91015625 C138.40327214 45.94792467 134.20817255 45.00265306 129.99609375 44.12109375 C120.78768107 42.19048751 111.9155391 39.68409192 102.9765625 36.74609375 C99.96769526 35.76206562 96.95565568 34.85656991 93.8984375 34.03515625 C85.73601419 31.83245055 78.48632784 29.06513601 70.99291992 25.13476562 C59.25868175 19.01229992 46.91571139 15.86007806 33.6875 16.0625 C32.26872559 16.07543091 32.26872559 16.07543091 30.82128906 16.08862305 C28.62068659 16.11397796 26.42015672 16.14616086 24.21972656 16.18359375 C21.36223116 16.23215903 18.50512098 16.27377785 15.64746094 16.30859375 Z " fill="#E3181E" transform="translate(695.6875,159.75)"/>
<path d="M0 0 C3.526875 -0.0825 7.05375 -0.165 10.6875 -0.25 C11.79053467 -0.28641602 12.89356934 -0.32283203 14.0300293 -0.36035156 C21.26419003 -0.44240003 21.26419003 -0.44240003 25.14453125 1.890625 C28.26924084 5.44292643 28.39254011 8.134018 28.35546875 12.73828125 C27.78672178 16.35701199 25.84834388 17.88030223 23 20 C19.37918537 21.20693821 16.0749281 21.10782079 12.3125 21.0625 C8.6928125 21.0315625 8.6928125 21.0315625 5 21 C5 25.95 5 30.9 5 36 C3.35 36 1.7 36 0 36 C0 24.12 0 12.24 0 0 Z " fill="#AAAAAA" transform="translate(897,953)"/>
<path d="M0 0 C1.65 0 3.3 0 5 0 C5 11.88 5 23.76 5 36 C3.68 36 2.36 36 1 36 C0.67 35.34 0.34 34.68 0 34 C-0.66 34.66 -1.32 35.32 -2 36 C-5.40280249 36.62635656 -8.59871276 36.63105644 -12 36 C-14.87105757 33.89197124 -16.41327792 31.17344416 -18 28 C-18.53209766 22.66157758 -18.64057432 18.30402629 -16.25 13.4375 C-13.12342105 10.0503728 -11.52474306 9.12446882 -6.9375 8.75 C-4 9 -4 9 -1 11 C-0.67 7.37 -0.34 3.74 0 0 Z " fill="#A7A7A7" transform="translate(474,953)"/>
<path d="M0 0 C3.75212276 2.01502889 5.63644095 3.45466142 8 7 C8.30078125 9.9609375 8.30078125 9.9609375 8.3125 13.375 C8.32925781 14.49648438 8.34601562 15.61796875 8.36328125 16.7734375 C7.96292847 20.32925895 7.13849012 22.16044826 5 25 C0.94184834 27.61525329 -2.19144587 28.70124748 -7 28 C-11.85349893 25.52566721 -14.27243952 23.18268145 -16 18 C-16.71773476 13.61384315 -17.03944397 9.76101516 -14.72265625 5.8359375 C-10.38429184 0.680815 -6.88406383 -0.94687867 0 0 Z " fill="#A8A8A8" transform="translate(655,962)"/>
<path d="M0 0 C3.75212276 2.01502889 5.63644095 3.45466142 8 7 C8.30078125 9.9609375 8.30078125 9.9609375 8.3125 13.375 C8.32925781 14.49648438 8.34601562 15.61796875 8.36328125 16.7734375 C7.96292847 20.32925895 7.13849012 22.16044826 5 25 C0.94184834 27.61525329 -2.19144587 28.70124748 -7 28 C-11.85349893 25.52566721 -14.27243952 23.18268145 -16 18 C-16.71773476 13.61384315 -17.03944397 9.76101516 -14.72265625 5.8359375 C-10.38429184 0.680815 -6.88406383 -0.94687867 0 0 Z " fill="#A8A8A8" transform="translate(517,962)"/>
<path d="M0 0 C3.13393286 2.2121879 3.91441156 2.83691052 5.1875 6.25 C5.7386073 11.05250648 5.80063642 15.64903269 4.0625 20.1875 C1.10285022 23.44311476 -1.4531848 26.03778646 -6.02734375 26.44921875 C-10.3083687 26.19990781 -12.38678789 25.58702209 -15.8125 22.875 C-19.64806638 17.84081912 -19.44873275 12.350862 -18.8125 6.25 C-17.19045062 2.9479709 -15.90370239 1.07780871 -13 -1.125 C-8.25837267 -2.47975066 -4.34382488 -2.29860733 0 0 Z " fill="#AAAAAA" transform="translate(846.8125,963.75)"/>
<path d="M0 0 C3.13393286 2.2121879 3.91441156 2.83691052 5.1875 6.25 C5.7386073 11.05250648 5.80063642 15.64903269 4.0625 20.1875 C1.10285022 23.44311476 -1.4531848 26.03778646 -6.02734375 26.44921875 C-10.3083687 26.19990781 -12.38678789 25.58702209 -15.8125 22.875 C-19.64806638 17.84081912 -19.44873275 12.350862 -18.8125 6.25 C-17.19045062 2.9479709 -15.90370239 1.07780871 -13 -1.125 C-8.25837267 -2.47975066 -4.34382488 -2.29860733 0 0 Z " fill="#AAAAAA" transform="translate(446.8125,963.75)"/>
<path d="M0 0 C6.02968736 4.72597117 6.02968736 4.72597117 6.6640625 9.40625 C6.81695546 14.57681199 6.86554712 18.75187472 3.3125 22.8125 C-0.66033669 26.39068404 -3.87107652 26.36666639 -9.05078125 26.2421875 C-11.6875 25.8125 -11.6875 25.8125 -14.8125 23.4375 C-17.61776968 19.51012245 -17.89620144 17.32390148 -18 12.5 C-18.03738281 11.36949219 -18.07476563 10.23898437 -18.11328125 9.07421875 C-17.60363135 5.17001999 -16.39245953 3.60829772 -13.6875 0.8125 C-9.51813823 -2.206693 -4.59909565 -2.03215854 0 0 Z " fill="#A9A9A9" transform="translate(589.6875,963.1875)"/>
<path d="M0 0 C1.98 0 3.96 0 6 0 C9.93812943 7.50417718 13.20710418 15.1816955 16.3125 23.0625 C16.76689453 24.20138672 17.22128906 25.34027344 17.68945312 26.51367188 C21 34.85226739 21 34.85226739 21 36 C19.02 36 17.04 36 15 36 C13.68 32.7 12.36 29.4 11 26 C6.05 26 1.1 26 -4 26 C-5.32 29.3 -6.64 32.6 -8 36 C-9.65 36 -11.3 36 -13 36 C-10.76089995 27.92724259 -7.85969819 20.17339308 -4.8125 12.375 C-4.34908203 11.18003906 -3.88566406 9.98507812 -3.40820312 8.75390625 C-2.27551405 5.83460451 -1.13938352 2.91669396 0 0 Z " fill="#AAAAAA" transform="translate(363,953)"/>
<path d="M0 0 C2.7578125 1.828125 2.7578125 1.828125 5 5 C5.74241812 8.76940008 5.79042578 12.47894456 5.8125 16.3125 C5.83763672 17.33923828 5.86277344 18.36597656 5.88867188 19.42382812 C5.94741085 21.949604 5.98378712 24.47365228 6 27 C4.35 27 2.7 27 1 27 C0.67 26.34 0.34 25.68 0 25 C-0.86625 25.495 -1.7325 25.99 -2.625 26.5 C-6.842949 28.374644 -9.87805799 28.76625684 -14.25 27.1875 C-16 26 -16 26 -18 23 C-18.5 20.125 -18.5 20.125 -18 17 C-13.33552902 11.45306153 -7.9736582 10.83137918 -1 10 C-1.33 8.35 -1.66 6.7 -2 5 C-6.021089 4.72240142 -6.021089 4.72240142 -10 5 C-11.77409808 6.92022703 -11.77409808 6.92022703 -13 9 C-14.32 9 -15.64 9 -17 9 C-16.80037128 5.40668306 -16.21261372 4.20171045 -13.5625 1.6875 C-9.06857102 -0.4412032 -4.88389996 -1.24612978 0 0 Z " fill="#A5A5A5" transform="translate(947,962)"/>
<path d="M0 0 C2.41869578 1.1589584 4.12322096 2.12322096 6 4 C6.15740605 5.70563778 6.25093392 7.41727244 6.31640625 9.12890625 C6.35830078 10.16337891 6.40019531 11.19785156 6.44335938 12.26367188 C6.48267578 13.35228516 6.52199219 14.44089844 6.5625 15.5625 C6.60568359 16.65498047 6.64886719 17.74746094 6.69335938 18.87304688 C6.79982068 21.58189564 6.90183516 24.29083992 7 27 C6.21625 26.835 5.4325 26.67 4.625 26.5 C1.63316338 25.93012636 0.53389157 25.76271486 -2.25 27 C-5.47017414 28.17097241 -7.59616826 28.42547897 -11 28 C-14.41165683 26.0288205 -15.71748902 24.78105976 -17.0625 21.0625 C-17 18 -17 18 -15.5 15.25 C-10.84733972 11.06260575 -5.03471607 10.73894482 1 10 C0.50243908 7.24358584 0.50243908 7.24358584 -1 5 C-3.67058851 4.85884839 -6.32432238 4.95752893 -9 5 C-9.66 6.32 -10.32 7.64 -11 9 C-12.65 9 -14.3 9 -16 9 C-15.79803569 5.36464239 -15.21677989 4.2005214 -12.5 1.6875 C-8.13546337 -0.41683016 -4.76355701 -0.75444918 0 0 Z " fill="#A7A7A7" transform="translate(788,962)"/>
<path d="M0 0 C2.9375 1.5 2.9375 1.5 5 3 C5.53625 2.505 6.0725 2.01 6.625 1.5 C9.71852796 -0.45380713 11.39369166 -0.51518691 15 0 C17.671875 1.29296875 17.671875 1.29296875 20 4 C20.63350742 7.92882694 20.46875189 11.78360595 20.3125 15.75 C20.28994141 16.82894531 20.26738281 17.90789063 20.24414062 19.01953125 C20.1852565 21.6810935 20.10307001 24.33984228 20 27 C18.68 27 17.36 27 16 27 C15.67 20.07 15.34 13.14 15 6 C9.50015548 4.40050911 9.50015548 4.40050911 7.15698242 6.15942383 C5.75003408 8.39765628 5.57669186 9.81458259 5.48828125 12.44921875 C5.45283203 13.29677734 5.41738281 14.14433594 5.38085938 15.01757812 C5.35830078 15.89865234 5.33574219 16.77972656 5.3125 17.6875 C5.26125977 19.02651367 5.26125977 19.02651367 5.20898438 20.39257812 C5.12654352 22.59492671 5.05738449 24.79687938 5 27 C3.35 27 1.7 27 0 27 C-0.02505615 26.36908447 -0.0501123 25.73816895 -0.07592773 25.08813477 C-0.19154137 22.24603175 -0.31442316 19.40428917 -0.4375 16.5625 C-0.47681641 15.56927734 -0.51613281 14.57605469 -0.55664062 13.55273438 C-0.61948242 12.13637695 -0.61948242 12.13637695 -0.68359375 10.69140625 C-0.72025146 9.81685791 -0.75690918 8.94230957 -0.79467773 8.04125977 C-0.78181066 6.0072598 -0.78181066 6.0072598 -2 5 C-4.41537838 4.58282721 -4.41537838 4.58282721 -7 5 C-9.78802876 7.47899425 -10.23280087 9.75910684 -10.51171875 13.328125 C-10.58446328 14.96818349 -10.64262733 16.6089424 -10.6875 18.25 C-10.72166016 19.09046875 -10.75582031 19.9309375 -10.79101562 20.796875 C-10.87323568 22.86412204 -10.93830157 24.93203874 -11 27 C-12.32 27 -13.64 27 -15 27 C-15 18.42 -15 9.84 -15 1 C-12.525 1.495 -12.525 1.495 -10 2 C-6.27420911 -0.48386059 -4.41288598 -0.3804212 0 0 Z " fill="#A9A9A9" transform="translate(546,962)"/>
<path d="M0 0 C2.91009669 2.35953786 4.55841707 4.56173225 6.3125 7.875 C6.3125 9.855 6.3125 11.835 6.3125 13.875 C-0.2875 13.875 -6.8875 13.875 -13.6875 13.875 C-11.2672509 19.50606761 -11.2672509 19.50606761 -8.6875 21.875 C-5.77211971 22.37542146 -5.77211971 22.37542146 -2.6875 21.875 C-1.31439293 20.58266393 0.02284824 19.25062854 1.3125 17.875 C2.6325 17.875 3.9525 17.875 5.3125 17.875 C5.25 20.125 5.25 20.125 4.3125 22.875 C0.39196201 25.97875924 -2.29369393 27.23124283 -7.3125 26.9375 C-11.73079511 26.21368374 -13.91115933 24.43218649 -16.6875 20.875 C-18.77832938 16.69334124 -18.12146477 11.42865777 -17.6875 6.875 C-16.48944271 3.60982832 -14.65919168 1.61214541 -11.875 -0.5 C-7.6562895 -1.70534586 -4.05636804 -1.69801453 0 0 Z " fill="#A7A7A7" transform="translate(1000.6875,963.125)"/>
<path d="M0 0 C2.91009669 2.35953786 4.55841707 4.56173225 6.3125 7.875 C6.3125 9.855 6.3125 11.835 6.3125 13.875 C-0.2875 13.875 -6.8875 13.875 -13.6875 13.875 C-11.2672509 19.50606761 -11.2672509 19.50606761 -8.6875 21.875 C-5.77211971 22.37542146 -5.77211971 22.37542146 -2.6875 21.875 C-1.31439293 20.58266393 0.02284824 19.25062854 1.3125 17.875 C2.6325 17.875 3.9525 17.875 5.3125 17.875 C5.25 20.125 5.25 20.125 4.3125 22.875 C0.39196201 25.97875924 -2.29369393 27.23124283 -7.3125 26.9375 C-11.73079511 26.21368374 -13.91115933 24.43218649 -16.6875 20.875 C-18.77832938 16.69334124 -18.12146477 11.42865777 -17.6875 6.875 C-16.48944271 3.60982832 -14.65919168 1.61214541 -11.875 -0.5 C-7.6562895 -1.70534586 -4.05636804 -1.69801453 0 0 Z " fill="#A7A7A7" transform="translate(710.6875,963.125)"/>
<path d="M0 0 C3.37309578 1.86216093 5.16151574 3.68828737 6.6875 7.3125 C6.6875 7.9725 6.6875 8.6325 6.6875 9.3125 C5.0375 9.6425 3.3875 9.9725 1.6875 10.3125 C1.213125 9.343125 0.73875 8.37375 0.25 7.375 C-2.44821199 4.15030762 -2.85581324 3.80816677 -6.75 3.25 C-10.7732028 3.06472092 -13.20415521 3.58092428 -16.3125 6.3125 C-18.55008933 9.75132149 -18.5812113 12.70368032 -18.5625 16.75 C-18.56765625 17.86246094 -18.5728125 18.97492187 -18.578125 20.12109375 C-18.31208614 23.31747238 -17.80779786 25.48638704 -16.3125 28.3125 C-13.05254414 30.48580391 -12.08270034 30.56171459 -8.3125 30.5 C-7.44625 30.49355469 -6.58 30.48710938 -5.6875 30.48046875 C-3.16322535 30.40080437 -3.16322535 30.40080437 -0.3125 29.3125 C0.91270264 26.30402582 0.91270264 26.30402582 1.6875 23.3125 C3.3375 23.3125 4.9875 23.3125 6.6875 23.3125 C6.61228893 26.47136495 6.31272327 28.61334288 4.16796875 31.01171875 C-0.51839791 35.08639123 -3.84125314 36.63324077 -10.25390625 36.52734375 C-14.71907554 36.06133936 -17.53868878 34.12930073 -20.5625 30.9375 C-25.10805709 24.11916436 -25.07381964 17.31105571 -24.3125 9.3125 C-22.20119839 4.77711135 -19.40697668 2.1471377 -15.3125 -0.6875 C-9.85926079 -2.5052464 -5.18256242 -2.37135698 0 0 Z " fill="#A7A7A7" transform="translate(760.3125,953.6875)"/>
<path d="M0 0 C2.91927604 1.3961755 4.72202996 2.72202996 7 5 C7 5.99 7 6.98 7 8 C4.625 8.1875 4.625 8.1875 2 8 C1.34 7.01 0.68 6.02 0 5 C-3.58357241 4.74984127 -3.58357241 4.74984127 -7 5 C-7.66 6.32 -8.32 7.64 -9 9 C-8.26394531 9.18175781 -7.52789063 9.36351562 -6.76953125 9.55078125 C4.43772242 12.43772242 4.43772242 12.43772242 8 16 C8.51781922 19.79734096 8.25914909 21.57425507 6.25 24.875 C1.48031091 27.99364287 -3.4465487 28.10763472 -9 27 C-11.97074905 24.57846506 -13.45323353 22.8273653 -14 19 C-11.6875 18.75 -11.6875 18.75 -9 19 C-8.525625 19.66 -8.05125 20.32 -7.5625 21 C-6.7890625 21.99 -6.7890625 21.99 -6 23 C-2.87376745 23.31900332 -0.82883747 23.41441874 2 22 C2 20.68 2 19.36 2 18 C0.75283203 17.61908203 0.75283203 17.61908203 -0.51953125 17.23046875 C-1.60621094 16.88628906 -2.69289063 16.54210937 -3.8125 16.1875 C-5.43091797 15.68283203 -5.43091797 15.68283203 -7.08203125 15.16796875 C-9.85385262 14.05849808 -11.26722758 13.38921522 -13 11 C-13.5 7.5625 -13.5 7.5625 -13 4 C-9.36940611 -0.4247863 -5.38740245 -0.9269822 0 0 Z " fill="#A6A6A6" transform="translate(681,962)"/>
<path d="M0 0 C3.0625 1.75 3.0625 1.75 5 4 C5 5.32 5 6.64 5 8 C3.68 8 2.36 8 1 8 C0.566875 7.505 0.13375 7.01 -0.3125 6.5 C-2.96843676 4.13916733 -5.59674813 4.8073631 -9 5 C-9 6.32 -9 7.64 -9 9 C-8.16855469 9.25394531 -7.33710937 9.50789062 -6.48046875 9.76953125 C-5.39378906 10.11371094 -4.30710937 10.45789063 -3.1875 10.8125 C-1.56908203 11.31716797 -1.56908203 11.31716797 0.08203125 11.83203125 C2.85385262 12.94150192 4.26722758 13.61078478 6 16 C6.5 19.4375 6.5 19.4375 6 23 C2.7421503 26.2578497 0.27824055 27.90352902 -4.3125 28.25 C-8.22632394 27.984656 -9.93192479 27.36680088 -13 25 C-15 22 -15 22 -15 19 C-12.625 19.3125 -12.625 19.3125 -10 20 C-9.34 20.99 -8.68 21.98 -8 23 C-4.5 23.41666667 -4.5 23.41666667 -1 23 C-0.34 22.34 0.32 21.68 1 21 C1 20.01 1 19.02 1 18 C0.18015625 17.75765625 -0.6396875 17.5153125 -1.484375 17.265625 C-3.10085938 16.76289062 -3.10085938 16.76289062 -4.75 16.25 C-5.81734375 15.92515625 -6.8846875 15.6003125 -7.984375 15.265625 C-11.16895586 13.92909107 -12.82503126 12.6542865 -15 10 C-15.625 7.5625 -15.625 7.5625 -15 5 C-10.63139532 -0.0406977 -6.57980408 -1.31837986 0 0 Z " fill="#A7A7A7" transform="translate(871,962)"/>
<path d="M0 0 C2.30275556 1.8670991 3.67823871 3.35647741 5 6 C5.37712577 10.99691647 5.09290612 13.99067725 2 18 C-1.24826674 20.16551116 -2.23094157 20.55156953 -6 20 C-8.79035429 17.7522146 -9.85910005 16.42269984 -11 13 C-11.37032807 8.00057109 -11.0799137 5.02757945 -8 1 C-5.15916359 -0.42041821 -3.14522722 -0.31452272 0 0 Z " fill="#070707" transform="translate(843,966)"/>
<path d="M0 0 C2.30275556 1.8670991 3.67823871 3.35647741 5 6 C5.37712577 10.99691647 5.09290612 13.99067725 2 18 C-1.24826674 20.16551116 -2.23094157 20.55156953 -6 20 C-8.79035429 17.7522146 -9.85910005 16.42269984 -11 13 C-11.37032807 8.00057109 -11.0799137 5.02757945 -8 1 C-5.15916359 -0.42041821 -3.14522722 -0.31452272 0 0 Z " fill="#070707" transform="translate(443,966)"/>
<path d="M0 0 C2.875 2 2.875 2 5 5 C5.71621062 10.6401586 5.10655925 14.10119502 2 19 C-0.87470493 20.43735246 -2.81894588 20.38172649 -6 20 C-8.93339092 17.76135956 -9.85474685 16.00195031 -10.3828125 12.359375 C-10.55439948 8.08113974 -10.6196223 5.02475995 -8.375 1.3125 C-5.22091596 -0.43054644 -3.55483933 -0.65292967 0 0 Z " fill="#050505" transform="translate(654,966)"/>
<path d="M0 0 C2.375 1.3125 2.375 1.3125 4 4 C4.89077665 9.41126005 4.9128261 13.56160735 1.9375 18.25 C-1 20 -1 20 -4.625 20.125 C-8 19 -8 19 -9.9375 17 C-11.39179256 12.89376218 -11.82439171 9.30083602 -11 5 C-7.90494929 0.53948574 -5.42331926 -1.03850794 0 0 Z " fill="#050505" transform="translate(587,966)"/>
<path d="M0 0 C2.875 2 2.875 2 5 5 C5.71621062 10.6401586 5.10655925 14.10119502 2 19 C-0.87470493 20.43735246 -2.81894588 20.38172649 -6 20 C-8.93339092 17.76135956 -9.85474685 16.00195031 -10.3828125 12.359375 C-10.55439948 8.08113974 -10.6196223 5.02475995 -8.375 1.3125 C-5.22091596 -0.43054644 -3.55483933 -0.65292967 0 0 Z " fill="#050505" transform="translate(516,966)"/>
<path d="M0 0 C1.32 0 2.64 0 4 0 C4.02187378 0.83978394 4.02187378 0.83978394 4.04418945 1.6965332 C4.11871352 4.23588137 4.21535581 6.77392078 4.3125 9.3125 C4.33505859 10.19357422 4.35761719 11.07464844 4.38085938 11.98242188 C4.41630859 12.82998047 4.45175781 13.67753906 4.48828125 14.55078125 C4.51446533 15.33106689 4.54064941 16.11135254 4.56762695 16.9152832 C5.10495225 19.50603459 5.87819375 20.44758827 8 22 C11.08333333 22 11.08333333 22 14 21 C16.0140956 17.9788566 16.26836596 17.19339983 16.4140625 13.76953125 C16.45273437 12.96708984 16.49140625 12.16464844 16.53125 11.33789062 C16.57765625 10.08782227 16.57765625 10.08782227 16.625 8.8125 C16.66367187 7.96751953 16.70234375 7.12253906 16.7421875 6.25195312 C16.83636279 4.16832476 16.91926675 2.08419247 17 0 C18.32 0 19.64 0 21 0 C21 8.58 21 17.16 21 26 C19.68 26 18.36 26 17 26 C16.67 25.34 16.34 24.68 16 24 C15.34 24.66 14.68 25.32 14 26 C11.7578125 26.3359375 11.7578125 26.3359375 9.125 26.375 C8.26132812 26.40335938 7.39765625 26.43171875 6.5078125 26.4609375 C4 26 4 26 1.6953125 24.6796875 C-1.06632468 20.31451905 -0.41634408 15.79150512 -0.25 10.75 C-0.23195313 9.71875 -0.21390625 8.6875 -0.1953125 7.625 C-0.14822712 5.08238936 -0.0824805 2.54166838 0 0 Z " fill="#B0B0B0" transform="translate(387,963)"/>
<path d="M0 0 C2.1875 1.6875 2.1875 1.6875 4.1875 4.6875 C4.1875 5.6775 4.1875 6.6675 4.1875 7.6875 C2.5375 7.6875 0.8875 7.6875 -0.8125 7.6875 C-1.1425 6.6975 -1.4725 5.7075 -1.8125 4.6875 C-4.64133747 3.27308126 -6.68626745 3.36849668 -9.8125 3.6875 C-12.61465838 6.56201459 -13.24395509 8.72203638 -13.25 12.6875 C-13.140069 16.07537366 -12.99149511 17.40906316 -11.125 20.3125 C-8.30177154 21.99117638 -7.03255492 22.41201236 -3.8125 21.6875 C-2.45422029 20.04110035 -1.11995749 18.37454193 0.1875 16.6875 C1.5075 16.6875 2.8275 16.6875 4.1875 16.6875 C3.88929167 20.26599992 3.44504642 21.44976484 0.75 23.9375 C-3.08376937 26.55568396 -5.13235709 27.13751374 -9.8125 26.6875 C-13.7831423 24.54946184 -16.21905983 22.91961861 -17.8125 18.6875 C-18.1484375 15.62890625 -18.1484375 15.62890625 -18.1875 12.25 C-18.21585938 11.13753906 -18.24421875 10.02507813 -18.2734375 8.87890625 C-17.71941808 5.04302603 -16.46933564 3.44862265 -13.8125 0.6875 C-9.57579287 -2.38046033 -4.61958151 -2.15580471 0 0 Z " fill="#A8A8A8" transform="translate(975.8125,963.3125)"/>
<path d="M0 0 C2.56452999 2.81271031 2.96285514 4.65950546 3.375 8.4375 C2.9543352 12.43381558 2.39384127 14.75673118 0 18 C-3.4375 19.1875 -3.4375 19.1875 -7 19 C-9.4375 17.25 -9.4375 17.25 -11 14 C-11.71042665 9.04166145 -11.95136458 4.67440166 -9.4375 0.25 C-5.86125944 -1.58396952 -3.79071204 -1.17167463 0 0 Z " fill="#060606" transform="translate(472,967)"/>
<path d="M0 0 C1.32 0 2.64 0 4 0 C4.12400035 4.32322461 4.21452256 8.64549602 4.2746582 12.9699707 C4.29973644 14.43955525 4.33380856 15.90901587 4.37719727 17.37817383 C4.43815499 19.49591681 4.46627316 21.61200576 4.48828125 23.73046875 C4.51446533 25.00301514 4.54064941 26.27556152 4.56762695 27.58666992 C3.85312722 31.883195 2.32885212 33.29513145 -1 36 C-3.90295805 37.45147903 -5.77261779 37.37239025 -9 37 C-12.375 34.9375 -12.375 34.9375 -15 32 C-15.375 28.1875 -15.375 28.1875 -15 25 C-13.68 25 -12.36 25 -11 25 C-10.34 26.98 -9.68 28.96 -9 31 C-6.08365871 31.2502157 -6.08365871 31.2502157 -3 31 C-0.64290358 27.46435537 -0.69990265 25.77974745 -0.5859375 21.58203125 C-0.54726563 20.32841797 -0.50859375 19.07480469 -0.46875 17.78320312 C-0.4378125 16.47287109 -0.406875 15.16253906 -0.375 13.8125 C-0.33680662 12.4771884 -0.29775409 11.14190108 -0.2578125 9.80664062 C-0.16340847 6.53790112 -0.07782983 3.26916936 0 0 Z " fill="#ADADAD" transform="translate(629,953)"/>
<path d="M0 0 C2.24940295 -0.08119503 4.49964871 -0.13927819 6.75 -0.1875 C8.00296875 -0.22230469 9.2559375 -0.25710938 10.546875 -0.29296875 C14.15854658 0.01345135 15.53912256 0.39293182 18 3 C18.5 5.9375 18.5 5.9375 18 9 C16.421875 11.17578125 16.421875 11.17578125 14 13 C10.546875 13.390625 10.546875 13.390625 6.75 13.25 C5.48671875 13.21390625 4.2234375 13.1778125 2.921875 13.140625 C1.47554687 13.07101562 1.47554687 13.07101562 0 13 C0 8.71 0 4.42 0 0 Z " fill="#050505" transform="translate(902,957)"/>
<path d="M0 0 C0 2.97 0 5.94 0 9 C1.32 9 2.64 9 4 9 C4 9.99 4 10.98 4 12 C2.68 12 1.36 12 0 12 C0 18.27 0 24.54 0 31 C1.32 31 2.64 31 4 31 C4 32.32 4 33.64 4 35 C0.625 35.1875 0.625 35.1875 -3 35 C-5.13604308 31.79593538 -5.24208908 31.00399253 -5.1953125 27.33203125 C-5.18886719 26.43935547 -5.18242187 25.54667969 -5.17578125 24.62695312 C-5.15902344 23.69818359 -5.14226562 22.76941406 -5.125 21.8125 C-5.11597656 20.87212891 -5.10695313 19.93175781 -5.09765625 18.96289062 C-5.07409056 16.64167032 -5.04119116 14.32096356 -5 12 C-5.99 12 -6.98 12 -8 12 C-8 11.01 -8 10.02 -8 9 C-7.01 9 -6.02 9 -5 9 C-5.061875 7.88625 -5.12375 6.7725 -5.1875 5.625 C-5.125625 4.42875 -5.06375 3.2325 -5 2 C-2 0 -2 0 0 0 Z " fill="#A5A5A5" transform="translate(421,954)"/>
<path d="M0 0 C0.928125 0.20625 1.85625 0.4125 2.8125 0.625 C2.4825 2.275 2.1525 3.925 1.8125 5.625 C0.843125 5.604375 -0.12625 5.58375 -1.125 5.5625 C-4.06215895 5.26881501 -4.06215895 5.26881501 -5.1875 6.625 C-5.34405027 8.11138992 -5.43816943 9.60449127 -5.50390625 11.09765625 C-5.54580078 11.99677734 -5.58769531 12.89589844 -5.63085938 13.82226562 C-5.68983398 15.24055664 -5.68983398 15.24055664 -5.75 16.6875 C-5.81477539 18.1115918 -5.81477539 18.1115918 -5.88085938 19.56445312 C-5.98729276 21.91781353 -6.08931008 24.27128354 -6.1875 26.625 C-7.8375 26.625 -9.4875 26.625 -11.1875 26.625 C-11.1875 18.045 -11.1875 9.465 -11.1875 0.625 C-8.7125 1.12 -8.7125 1.12 -6.1875 1.625 C-3.1875 -0.375 -3.1875 -0.375 0 0 Z " fill="#A6A6A6" transform="translate(812.1875,962.375)"/>
<path d="M0 0 C3.625 0.375 3.625 0.375 7 1 C6.67 2.32 6.34 3.64 6 5 C4.865625 5.28875 3.73125 5.5775 2.5625 5.875 C1.386875 6.24625 0.21125 6.6175 -1 7 C-2.11823815 9.23647631 -2.19396061 10.64891529 -2.31640625 13.1328125 C-2.35830078 13.93847656 -2.40019531 14.74414062 -2.44335938 15.57421875 C-2.50233398 16.83685547 -2.50233398 16.83685547 -2.5625 18.125 C-2.62727539 19.39923828 -2.62727539 19.39923828 -2.69335938 20.69921875 C-2.79954236 22.79928223 -2.90028497 24.89961948 -3 27 C-4.32 27 -5.64 27 -7 27 C-7 18.42 -7 9.84 -7 1 C-4.525 1.495 -4.525 1.495 -2 2 C-1.34 1.34 -0.68 0.68 0 0 Z " fill="#ADADAD" transform="translate(493,962)"/>
<path d="M0 0 C1.32 0 2.64 0 4 0 C4 11.88 4 23.76 4 36 C2.68 36 1.36 36 0 36 C0 24.12 0 12.24 0 0 Z " fill="#B4B4B4" transform="translate(818,953)"/>
<path d="M0 0 C4.08507469 0.65361195 5.40485623 1.33640423 8.125 4.5 C8.75819386 8.42889069 8.59375263 12.28358716 8.4375 16.25 C8.40366211 17.86841797 8.40366211 17.86841797 8.36914062 19.51953125 C8.3102565 22.1810935 8.22807001 24.83984228 8.125 27.5 C6.805 27.5 5.485 27.5 4.125 27.5 C3.795 20.57 3.465 13.64 3.125 6.5 C0.155 6.005 0.155 6.005 -2.875 5.5 C-3.865 5.17 -4.855 4.84 -5.875 4.5 C-4.18240064 1.49093448 -3.47622666 0.60456116 0 0 Z " fill="#AFAFAF" transform="translate(557.875,961.5)"/>
<path d="M0 0 C-0.1875 3.3125 -0.1875 3.3125 -1 7 C-3.77119999 9.45449142 -5.51075204 9.95203451 -9.1875 10.3125 C-12 10 -12 10 -14 8 C-13.875 5.5 -13.875 5.5 -13 3 C-9.28892095 0.25105255 -4.49583229 0 0 0 Z " fill="#0F0F0F" transform="translate(790,976)"/>
<path d="M0 0 C1.9009762 2.8514643 2.96265899 5.29710476 4.125 8.5 C4.47820312 9.4590625 4.83140625 10.418125 5.1953125 11.40625 C6 14 6 14 6 17 C2.37 17 -1.26 17 -5 17 C-4.35083537 10.99522721 -2.14204997 5.599219 0 0 Z " fill="#090909" transform="translate(366,957)"/>
<path d="M0 0 C0.36768802 5.51532033 0.36768802 5.51532033 -1.375 7.8125 C-4.63647802 10.19588778 -6.99355269 10.25040296 -11 10 C-11.66 9.34 -12.32 8.68 -13 8 C-12.9375 5.5 -12.9375 5.5 -12 3 C-8.45000534 0.97143162 -4.10826587 0 0 0 Z " fill="#050505" transform="translate(947,976)"/>
<path d="M0 0 C2.375 1.8125 2.375 1.8125 4 4 C4 4.99 4 5.98 4 7 C-0.62 7 -5.24 7 -10 7 C-9.67 5.35 -9.34 3.7 -9 2 C-5.50875983 -0.32749345 -4.10777749 -0.50299316 0 0 Z " fill="#040404" transform="translate(998,966)"/>
<path d="M0 0 C2.375 1.8125 2.375 1.8125 4 4 C4 4.99 4 5.98 4 7 C-0.62 7 -5.24 7 -10 7 C-9.67 5.35 -9.34 3.7 -9 2 C-5.50875983 -0.32749345 -4.10777749 -0.50299316 0 0 Z " fill="#040404" transform="translate(708,966)"/>
</svg>
