<?xml version="1.0" encoding="UTF-8"?>
<svg version="1.1" xmlns="http://www.w3.org/2000/svg" width="1350" height="1080">
<path d="M0 0 C445.5 0 891 0 1350 0 C1350 356.4 1350 712.8 1350 1080 C904.5 1080 459 1080 0 1080 C0 723.6 0 367.2 0 0 Z " fill="#000000" transform="translate(0,0)"/>
<path d="M0 0 C2.4375 2.1875 2.4375 2.1875 4.4375 5.1875 C4.25919068 12.73592786 1.91031588 18.8146236 -1.0625 25.6875 C-1.51101318 26.73977783 -1.95952637 27.79205566 -2.42163086 28.8762207 C-8.01163298 41.79688922 -14.27555733 53.80280739 -22.52734375 65.2109375 C-24.41463852 67.97124195 -25.86200909 70.68260241 -27.3125 73.6875 C-30.22107561 79.29222715 -34.29524185 83.1767406 -38.81445312 87.48120117 C-41.92867862 90.46894477 -44.54098469 93.29283597 -46.8125 97 C-50.3229718 102.72541234 -55.30973565 106.73343802 -60.6315918 110.74853516 C-68.72500512 116.89632112 -75.76837635 124.09115215 -82.92163086 131.28588867 C-85.11678959 133.49174956 -87.32241292 135.68673623 -89.52929688 137.88085938 C-96.29785838 144.64359653 -102.87435258 151.38034286 -108.7565918 158.94067383 C-111.73528726 162.64662683 -115.14141863 165.89565948 -118.5625 169.1875 C-119.738125 170.3940625 -119.738125 170.3940625 -120.9375 171.625 C-122.236875 172.8934375 -122.236875 172.8934375 -123.5625 174.1875 C-124.17609375 174.79722656 -124.7896875 175.40695312 -125.421875 176.03515625 C-131.63145663 181.9342588 -138.40137417 186.67175551 -145.52197266 191.40625 C-149.58441877 194.11286419 -153.60194661 196.8707943 -157.52734375 199.7734375 C-158.25429443 200.30759277 -158.98124512 200.84174805 -159.73022461 201.39208984 C-161.87875323 203.49739024 -162.58528927 205.3705801 -163.5625 208.1875 C-165.79749358 211.06106317 -168.13363613 212.06359462 -171.5625 213.1875 C-174.82421875 213.34765625 -174.82421875 213.34765625 -178.25 213.25 C-182.56655835 212.97230855 -182.56655835 212.97230855 -186.5625 214.1875 C-188.67158526 214.22528071 -190.78193161 214.20003085 -192.890625 214.14453125 C-194.16550781 214.12326172 -195.44039062 214.10199219 -196.75390625 214.08007812 C-198.77959835 214.04310937 -200.80442845 214.0002374 -202.82958984 213.94067383 C-204.78700103 213.88580881 -206.74512599 213.85865057 -208.703125 213.83203125 C-210.45931152 213.79106323 -210.45931152 213.79106323 -212.25097656 213.74926758 C-215.69575883 213.95600829 -215.69575883 213.95600829 -218.55493164 216.19628906 C-222.23532044 218.63295203 -224.17814169 218.59472392 -228.54296875 218.40234375 C-229.88606245 218.36633984 -231.22916161 218.33053914 -232.57226562 218.29492188 C-234.65449637 218.21463898 -236.73604496 218.12564099 -238.81762695 218.0300293 C-248.27893784 217.63031903 -255.18555465 218.53957873 -263.5625 223.1875 C-267.89955162 224.63318387 -272.08170405 224.37185585 -276.625 224.375 C-277.52927734 224.38724609 -278.43355469 224.39949219 -279.36523438 224.41210938 C-291.60427 224.43835463 -299.11935954 222.10802557 -308.5625 214.1875 C-309.48482422 213.43533203 -309.48482422 213.43533203 -310.42578125 212.66796875 C-315.33092973 208.23109221 -318.71126301 202.64974695 -322.35522461 197.18725586 C-326.36941259 191.25640226 -331.00860085 184.46444957 -337.5625 181.1875 C-343.97336379 180.09628914 -347.61242319 182.62344289 -352.85546875 186.1953125 C-358.06321684 190.02785438 -362.64225891 193.99839838 -366.75 199 C-371.552221 204.65159342 -377.6376371 208.80067908 -383.5625 213.1875 C-385.84095827 214.88590532 -388.11190637 216.59367377 -390.375 218.3125 C-390.92220703 218.72781982 -391.46941406 219.14313965 -392.03320312 219.57104492 C-395.16034074 221.98448289 -397.97480741 224.50761211 -400.6875 227.375 C-405.07567447 231.93759981 -410.08841499 235.06049272 -415.5625 238.1875 C-416.58214844 238.77144531 -417.60179687 239.35539063 -418.65234375 239.95703125 C-425.06898914 243.412148 -430.4233897 245.70904394 -437.6940918 243.55639648 C-439.94858958 242.68423707 -442.1258095 241.71776991 -444.3125 240.6875 C-445.48993774 240.1450061 -445.48993774 240.1450061 -446.69116211 239.59155273 C-456.5867891 234.91290111 -464.88734135 229.29322131 -472.4921875 221.34765625 C-478.80995932 214.75571697 -485.80138295 209.94622773 -493.5625 205.1875 C-499.1667111 201.6366537 -499.1667111 201.6366537 -500.953125 199.609375 C-502.98616339 197.81319545 -504.13362781 197.79990023 -506.8125 197.6875 C-511.22381474 197.34487361 -514.50784396 195.98956935 -518.5625 194.1875 C-530.4818075 191.98864556 -544.93847126 190.57564103 -555.40625 197.484375 C-556.1178125 198.04640625 -556.829375 198.6084375 -557.5625 199.1875 C-558.3875 199.79851562 -559.2125 200.40953125 -560.0625 201.0390625 C-566.89979597 206.91486372 -571.60497578 214.78990378 -575.31640625 222.90625 C-576.65313168 225.35342133 -578.15713296 226.97379335 -580.125 228.9375 C-586.99373809 236.44831578 -587.65776919 246.91646426 -588.5 256.625 C-589.58721861 269.07259448 -592.44646887 283.00281671 -602.23046875 291.6640625 C-612.20880387 298.59996282 -625.3619813 301.56090656 -637.28051758 302.77807617 C-647.30833942 303.84058813 -657.02616996 305.98419927 -664.5625 313.1875 C-665.88890754 315.57615765 -667.0037769 317.81575366 -668.0625 320.3125 C-668.6645064 321.66184154 -669.26737295 323.01079964 -669.87109375 324.359375 C-670.15968262 325.01486328 -670.44827148 325.67035156 -670.74560547 326.34570312 C-673.2942121 332.09187421 -676.02869368 337.52680043 -679.625 342.6875 C-683.74846321 348.69295411 -685.96338536 355.19904419 -688.0625 362.125 C-689.20641467 365.63712719 -690.16087573 367.4351481 -693.5625 369.1875 C-694.201875 369.455625 -694.84125 369.72375 -695.5 370 C-697.83449961 371.17522746 -697.83449961 371.17522746 -699.79296875 374 C-704.43107569 379.65958975 -711.21916835 382.75852682 -717.5625 386.1875 C-718.32191895 386.60128906 -719.08133789 387.01507812 -719.86376953 387.44140625 C-734.61730593 395.32603367 -750.09891979 400.77961605 -765.92358398 406.06518555 C-781.26838098 411.2181284 -795.93978676 417.41669291 -810.125 425.25 C-811.01767578 425.72759766 -811.91035156 426.20519531 -812.83007812 426.69726562 C-822.7931923 432.14823167 -832.16620457 438.30143513 -836.5625 449.1875 C-842.44517586 489.51425727 -836.32243738 534.17758305 -815.43017578 569.07910156 C-810.74049803 577.02849669 -810.12644736 586.10398264 -811.5625 595.1875 C-813.29470824 599.18377761 -815.46229753 602.14726276 -818.5625 605.1875 C-819.61050781 606.29158203 -819.61050781 606.29158203 -820.6796875 607.41796875 C-824.90242632 610.0099751 -828.64051184 609.77244371 -833.5 609.6875 C-834.38107422 609.70296875 -835.26214844 609.7184375 -836.16992188 609.734375 C-841.81277378 609.70056016 -845.17564945 609.03145439 -849.5625 605.1875 C-851.05869841 603.46867758 -852.50128299 601.71210313 -853.94580078 599.94970703 C-856.71801936 596.9279804 -860.08675795 594.85830269 -863.5 592.625 C-873.02086299 586.15958758 -881.28594024 578.60342273 -889.32177734 570.38916016 C-893.00294348 566.63495903 -896.73100641 563.34496679 -900.9375 560.1875 C-901.50130371 559.75872559 -902.06510742 559.32995117 -902.64599609 558.88818359 C-905.08357003 557.03551625 -907.53429348 555.20789134 -910.015625 553.4140625 C-914.69660376 549.96226162 -918.68613798 546.13442305 -922.625 541.875 C-923.11500488 541.34664551 -923.60500977 540.81829102 -924.10986328 540.27392578 C-927.5625 536.44274845 -927.5625 536.44274845 -927.5625 534.1875 C-928.13613281 533.93484375 -928.70976563 533.6821875 -929.30078125 533.421875 C-932.62689178 531.60658842 -935.11099349 529.03975474 -937.85546875 526.453125 C-940.15508786 524.52847986 -942.38147426 523.00456758 -944.90625 521.41015625 C-949.65042541 518.30350708 -953.15785589 514.61941649 -956.875 510.375 C-962.08378065 504.62531002 -967.17567186 499.86876498 -973.5234375 495.39453125 C-977.09038298 492.80414025 -980.41659706 490.00595523 -983.75 487.125 C-984.34603027 486.61138916 -984.94206055 486.09777832 -985.55615234 485.56860352 C-988.83923662 482.72408526 -992.05528125 479.81870513 -995.25 476.875 C-998.24892683 474.16824802 -1001.26679903 472.10280522 -1004.75 470.0625 C-1014.53351379 464.07680591 -1022.40612004 454.90232942 -1029.80859375 446.23828125 C-1038.05146478 436.5991174 -1038.05146478 436.5991174 -1047.5 428.1875 C-1054.31236294 422.87699806 -1060.18177036 416.6153408 -1066.13061523 410.36914062 C-1071.49702788 404.8503123 -1076.80866004 400.8468636 -1083.5625 397.1875 C-1086.87915714 395.27980994 -1088.97895066 394.00186139 -1091 390.75 C-1097.11260225 382.1828554 -1106.55850128 374.92646163 -1115.59765625 369.6640625 C-1117.5625 368.1875 -1117.5625 368.1875 -1119.734375 365.44921875 C-1123.09553664 361.26905812 -1127.39790802 358.44621441 -1131.75 355.375 C-1138.00127832 350.87517278 -1143.96102375 346.35937969 -1149.5546875 341.0546875 C-1152.9510215 337.89622903 -1156.60815908 335.13376508 -1160.375 332.4375 C-1169.29883174 325.72369788 -1175.93745918 317.42698165 -1181.92944336 308.04785156 C-1187.04347571 300.28755495 -1193.35857762 294.11405569 -1200 287.6875 C-1221.7123681 266.60969809 -1221.7123681 266.60969809 -1221.9375 255.875 C-1221.98648437 254.55886719 -1222.03546875 253.24273437 -1222.0859375 251.88671875 C-1221.5625 248.1875 -1221.5625 248.1875 -1219.46484375 245.3671875 C-1216.25691325 242.95800147 -1213.5640331 241.85572633 -1209.75 240.625 C-1202.38779095 238.08528258 -1195.50539908 234.83025006 -1188.5625 231.3125 C-1187.53044434 230.78962402 -1186.49838867 230.26674805 -1185.43505859 229.72802734 C-1182.47433766 228.22067442 -1179.51751682 226.70600018 -1176.5625 225.1875 C-1174.31758816 224.03456097 -1172.07214367 222.88296407 -1169.82226562 221.73974609 C-1168.04093184 220.83433898 -1166.26435106 219.91959622 -1164.48828125 219.00390625 C-1153.60785734 213.78577378 -1142.16056599 210.47036399 -1130.5625 207.3125 C-1129.78568878 207.09883789 -1129.00887756 206.88517578 -1128.20852661 206.66503906 C-1092.68362822 196.89572603 -1092.68362822 196.89572603 -1076.68359375 194.1484375 C-1072.49579234 193.41327012 -1068.66847234 192.34064831 -1064.6875 190.8125 C-1052.74379881 186.37290055 -1040.64559733 182.19723823 -1027.875 181.25 C-1027.14216797 181.16943359 -1026.40933594 181.08886719 -1025.65429688 181.00585938 C-1021.96736859 180.73657065 -1019.95393694 180.91372373 -1016.8984375 183.05078125 C-1013.76541708 187.25783042 -1011.31527824 191.67665109 -1008.875 196.3125 C-1008.35172119 197.2917041 -1007.82844238 198.2709082 -1007.28930664 199.27978516 C-1006.21725744 201.28924731 -1005.14913055 203.30080701 -1004.08496094 205.31445312 C-1002.72012177 207.89005083 -1001.33740415 210.45469155 -999.9453125 213.015625 C-993.64211087 224.68900494 -988.10992729 236.67010027 -982.67529297 248.76855469 C-981.77522021 250.72509722 -980.80943443 252.65132408 -979.82421875 254.56640625 C-978.5700756 257.17176245 -977.9158491 259.49399778 -977.3125 262.3125 C-973.74804947 275.72419518 -963.88271734 287.33603309 -955.5625 298.1875 C-955.10891113 298.78159668 -954.65532227 299.37569336 -954.18798828 299.98779297 C-946.63304393 309.64438022 -937.24023702 315.45791862 -926.5625 321.1875 C-925.6446875 321.68378906 -924.726875 322.18007813 -923.78125 322.69140625 C-910.1217056 329.0299962 -892.15676331 327.56026843 -877.46704102 327.55810547 C-874.10578407 327.56252527 -870.74579581 327.59911623 -867.38476562 327.63671875 C-865.21615024 327.64258082 -863.04752874 327.64655429 -860.87890625 327.6484375 C-859.89016006 327.66280853 -858.90141388 327.67717957 -857.88270569 327.69198608 C-847.81331596 327.62644895 -840.04155556 324.27082509 -832.375 317.875 C-831.77333008 317.38427002 -831.17166016 316.89354004 -830.55175781 316.38793945 C-828.8733962 315.00472698 -827.21429802 313.60225183 -825.5625 312.1875 C-824.87027344 311.5996875 -824.17804688 311.011875 -823.46484375 310.40625 C-816.10996624 303.59038242 -809.20651129 294.08962081 -805.56640625 284.734375 C-804.7059447 282.55141418 -803.77066608 280.4522361 -802.77734375 278.328125 C-802.45467529 277.6273584 -802.13200684 276.9265918 -801.79956055 276.20458984 C-801.15711498 274.81037333 -800.50662965 273.41982424 -799.84692383 272.03369141 C-797.84446735 267.59995412 -797.10080187 264.14467996 -797.5625 259.1875 C-799.21951808 256.01154867 -801.01949709 253.76388423 -803.46875 251.1640625 C-809.75650718 244.47745506 -812.44244839 238.24560223 -814.875 229.5 C-816.15404415 224.98781646 -818.07291098 220.88847469 -820.125 216.6875 C-822.58309045 211.63979302 -824.27074818 206.99014792 -825.109375 201.4296875 C-825.5968365 199.01759353 -826.41757544 197.1427381 -827.5 194.9375 C-829.28342292 191.20733705 -830.16049531 187.68473458 -830.9375 183.625 C-833.56735131 170.51793356 -839.12430671 158.60681359 -844.92578125 146.63671875 C-847.19327081 141.8582145 -848.11109572 138.49059197 -847.5625 133.1875 C-843.87341572 128.69365409 -839.70352497 126.43297584 -834.5625 124 C-833.86382813 123.65775391 -833.16515625 123.31550781 -832.4453125 122.96289062 C-825.25233161 119.46818764 -819.23048875 116.66079981 -811.140625 118.83984375 C-800.11072776 122.83047427 -789.26917688 131.67934633 -784.03515625 142.28125 C-783.56980469 143.4053125 -783.10445312 144.529375 -782.625 145.6875 C-782.36831543 146.30061035 -782.11163086 146.9137207 -781.84716797 147.54541016 C-780.19858168 151.51732919 -778.68099736 155.52955427 -777.1875 159.5625 C-774.5015817 166.62262811 -771.17887982 173.27778133 -767.70556641 179.97509766 C-766.49183547 182.32427103 -765.29862046 184.68328359 -764.10546875 187.04296875 C-756.71075481 203.10485421 -756.71075481 203.10485421 -744.5625 215.1875 C-740.96873798 215.73039356 -740.96873798 215.73039356 -737.0625 215.8125 C-729.87197695 216.10974603 -729.87197695 216.10974603 -727.59863281 216.6809082 C-725.51128729 217.20024177 -723.5987467 217.39012328 -721.453125 217.50390625 C-720.69902344 217.54580078 -719.94492187 217.58769531 -719.16796875 217.63085938 C-718.39066406 217.67017578 -717.61335938 217.70949219 -716.8125 217.75 C-715.62333984 217.81477539 -715.62333984 217.81477539 -714.41015625 217.88085938 C-712.46112185 217.98652991 -710.51183252 218.08747966 -708.5625 218.1875 C-711.76198393 203.69571984 -715.64744349 190.64188035 -725.5625 179.1875 C-730.39444745 173.47701665 -733.65416457 167.28061171 -737.04125977 160.65673828 C-739.32564499 156.27553087 -741.75350555 152.41912901 -744.875 148.5625 C-751.87125452 139.66150603 -756.55969377 129.29170667 -761.5625 119.1875 C-762.00190918 118.30449219 -762.44131836 117.42148437 -762.89404297 116.51171875 C-776.79943039 88.40956209 -776.79943039 88.40956209 -774.5625 79.1875 C-773.0390625 76.5703125 -773.0390625 76.5703125 -771.1875 74.3125 C-770.58164062 73.55195313 -769.97578125 72.79140625 -769.3515625 72.0078125 C-766.55839351 69.16585454 -763.93496794 69.06023848 -760.14071178 69.02598 C-759.23072278 69.01538886 -758.32073378 69.00479772 -757.38316935 68.99388564 C-756.3820291 68.98717199 -755.38088885 68.98045835 -754.34941101 68.97354126 C-753.28683494 68.96255288 -752.22425887 68.95156449 -751.12948352 68.94024312 C-747.55078747 68.90434484 -743.97206754 68.87533087 -740.39331055 68.84619141 C-737.83433096 68.82180899 -735.27535577 68.79696173 -732.71638489 68.77168274 C-727.19490715 68.71788169 -721.67341428 68.66683433 -716.15189171 68.61787796 C-707.41464758 68.54013052 -698.67751649 68.45243008 -689.94038391 68.36312866 C-686.94971422 68.33268438 -683.95904387 68.30230572 -680.9683733 68.27194786 C-680.2208788 68.26435771 -679.4733843 68.25676755 -678.70323845 68.24894739 C-670.19109157 68.16265216 -661.67892456 68.07843435 -653.16674805 67.99511719 C-652.38857583 67.98749778 -651.61040361 67.97987836 -650.80865041 67.97202806 C-638.22155363 67.84903245 -625.63439772 67.73329395 -613.04721572 67.61940666 C-600.1128183 67.50211051 -587.17855946 67.37379773 -574.24436218 67.23619401 C-566.27438793 67.15181154 -558.30443096 67.07636478 -550.33426455 67.01260959 C-544.21213066 66.96278886 -538.09023747 66.89796257 -531.96830559 66.82773399 C-529.46670475 66.80140359 -526.96504719 66.77992163 -524.46335983 66.76378441 C-512.11992013 66.68156824 -500.51669563 66.55066088 -488.5625 63.1875 C-481.18244018 61.45312725 -474.32339297 60.99172073 -466.75 60.9375 C-458.00404025 60.76814369 -449.51231081 60.15043164 -440.8671875 58.828125 C-439.58183861 58.63222778 -439.58183861 58.63222778 -438.27052307 58.43237305 C-436.47716505 58.15798014 -434.68383578 57.88339925 -432.89053345 57.60864258 C-410.27900862 54.16530116 -387.93123149 53.46507159 -365.11157227 53.4140625 C-363.84471085 53.40928894 -362.57784943 53.40451538 -361.27259827 53.39959717 C-358.91057079 53.39383653 -356.54848996 53.3976091 -354.18650818 53.41339111 C-346.47156796 53.40805113 -339.15585521 52.50360103 -331.5625 51.1875 C-327.60769018 50.6293753 -323.64241982 50.15077474 -319.6796875 49.65234375 C-316.53953851 49.27587182 -316.53953851 49.27587182 -313.5625 48.1875 C-311.06139177 48.09262594 -308.58334333 48.04971433 -306.08203125 48.046875 C-304.52439837 48.03244833 -302.96678036 48.01634297 -301.40917969 47.9987793 C-300.17766174 47.98516861 -300.17766174 47.98516861 -298.92126465 47.97128296 C-285.07121936 47.78752535 -271.49999145 47.05529023 -257.8125 44.875 C-256.51932861 44.67422852 -255.22615723 44.47345703 -253.89379883 44.26660156 C-247.48667914 43.17310624 -241.82336472 41.66345651 -235.86865234 39.07739258 C-232.09020352 37.61937374 -228.25017556 37.17473566 -224.25 36.6875 C-218.59484592 35.90643187 -213.30507108 34.95984946 -207.875 33.125 C-202.44925002 31.29803209 -197.15315894 30.55376415 -191.4921875 29.97631836 C-187.21094899 29.50204636 -183.43127061 28.6148035 -179.375 27.1875 C-169.61210688 23.92917967 -159.2296559 23.77238347 -149.03417969 22.99462891 C-135.48496953 21.92182547 -123.41282596 19.14449225 -110.6875 14.375 C-100.94115953 10.74797171 -92.07395682 8.29978745 -81.67578125 7.57421875 C-78.75212119 7.36222289 -76.05557896 6.87213461 -73.2109375 6.16796875 C-68.09637381 4.96108759 -63.10985928 4.89952221 -57.875 4.8125 C-44.53844003 4.42050373 -31.75605164 2.08766359 -18.78515625 -0.91796875 C-12.23113642 -2.381873 -6.11349016 -3.11037219 0 0 Z M-67.875 23.0625 C-72.25663389 25.60438092 -75.45009765 26.23678505 -80.56542969 26.27441406 C-92.59178124 26.46255193 -102.47128221 29.81326436 -113.5625 34.1875 C-122.99795526 37.86879183 -131.51851712 39.83707743 -141.59960938 40.5559082 C-145.28880229 40.82074484 -148.50279651 41.170385 -152.078125 42.1953125 C-155.58293435 43.19331875 -158.66223924 43.49963774 -162.27514648 43.71899414 C-175.55666534 44.53559094 -187.9780331 47.82755309 -200.73608398 51.46313477 C-204.9957678 52.55482362 -209.18669792 53.28506504 -213.5859375 53.36328125 C-214.65328125 53.39905273 -214.65328125 53.39905273 -215.7421875 53.43554688 C-217.19762491 53.47827769 -218.65344291 53.5096575 -220.109375 53.52929688 C-224.98368734 53.71846243 -228.24853417 54.81852677 -232.5078125 57.15161133 C-236.12530743 58.97540303 -239.95692666 59.9062691 -243.875 60.875 C-244.73150146 61.08995117 -245.58800293 61.30490234 -246.47045898 61.52636719 C-254.23884081 63.3475367 -261.86040493 63.87745199 -269.81640625 64.046875 C-273.4964487 64.00969538 -273.4964487 64.00969538 -276.5625 65.1875 C-279.32300267 65.30623525 -282.0627428 65.37283116 -284.82421875 65.3984375 C-286.51888894 65.42656231 -288.21355023 65.45522694 -289.90820312 65.484375 C-292.55801595 65.5251675 -295.20767294 65.56207201 -297.85766602 65.58886719 C-308.01053384 65.70023671 -317.66195869 66.22313123 -327.60473633 68.35791016 C-337.55545723 70.48227397 -347.05312931 71.47789246 -357.234375 71.49609375 C-359.19238719 71.5148334 -361.15039935 71.53359096 -363.10840225 71.55327702 C-367.85521431 71.59788735 -372.60215819 71.6219148 -377.34912109 71.64379883 C-394.64168938 71.73132376 -411.46321639 72.53818043 -428.5625 75.1875 C-429.28654022 75.29674805 -430.01058044 75.40599609 -430.75656128 75.51855469 C-433.36979287 75.91299261 -435.97965983 76.31958882 -438.5859375 76.7578125 C-445.81202197 77.80094805 -452.96975874 78.27079796 -460.26611328 78.42773438 C-472.24381132 78.70615424 -483.56028473 80.06002194 -495.23681641 82.72265625 C-502.58108679 84.19058516 -509.70016787 84.38126037 -517.1796875 84.46875 C-518.39141632 84.48715942 -519.60314514 84.50556885 -520.85159302 84.52453613 C-524.71351441 84.58307693 -528.57547912 84.63596786 -532.4375 84.6875 C-537.51831562 84.7554814 -542.5990025 84.82918241 -547.6796875 84.90625 C-548.83620819 84.91982544 -549.99272888 84.93340088 -551.18429565 84.9473877 C-556.60191734 85.02988173 -561.88271435 85.28445748 -567.25695801 85.9546814 C-572.11962425 86.44572392 -577.0110982 86.4321908 -581.89453125 86.50390625 C-583.14376373 86.52473267 -584.39299622 86.54555908 -585.68008423 86.5670166 C-589.17286651 86.62366473 -592.66571756 86.67293169 -596.15864182 86.71992874 C-598.38394791 86.7501214 -600.60922449 86.78203479 -602.83450317 86.81417847 C-654.07142917 87.54023718 -705.32191119 87.27532496 -756.5625 87.1875 C-755.12722336 90.55545315 -753.68921547 93.92223359 -752.25073242 97.28881836 C-751.84670952 98.23697166 -751.44268661 99.18512497 -751.02642059 100.16201019 C-748.18375908 106.80987456 -745.23786613 113.3461141 -741.875 119.75 C-741.37935547 120.69633301 -740.88371094 121.64266602 -740.37304688 122.61767578 C-735.39403181 131.88142711 -729.48768647 140.37734494 -723.27636719 148.84716797 C-705.71193964 172.83186918 -689.42515784 196.24859629 -691.5625 227.1875 C-691.8925 228.1775 -692.2225 229.1675 -692.5625 230.1875 C-694.2101038 230.89997732 -695.88013529 231.56150383 -697.5625 232.1875 C-698.11687744 232.69490723 -698.67125488 233.20231445 -699.24243164 233.72509766 C-702.52042444 235.79130589 -705.61601618 235.61734592 -709.37109375 235.5859375 C-710.51494286 235.59024277 -710.51494286 235.59024277 -711.68190002 235.59463501 C-713.29827617 235.59667465 -714.91467706 235.59115168 -716.53100586 235.57861328 C-718.96071398 235.56275639 -721.38870748 235.57835955 -723.81835938 235.59765625 C-736.09974722 235.61583574 -747.73273979 235.11334684 -757.85546875 227.39453125 C-759.48622302 225.99505226 -759.48622302 225.99505226 -761.5625 226.1875 C-761.83924561 225.6107251 -762.11599121 225.0339502 -762.40112305 224.43969727 C-763.53517691 222.24048624 -764.78627397 220.21942564 -766.14453125 218.15234375 C-777.79213459 200.10961932 -786.85568444 181.05977092 -794.9375 161.1875 C-800.15515985 146.91063851 -800.15515985 146.91063851 -810.5625 136.5 C-814.30613246 135.02282201 -817.53934422 134.6561398 -821.5625 135.1875 C-824.43396994 136.55747157 -824.43396994 136.55747157 -826.5625 138.1875 C-825.90759908 141.92772142 -824.87600671 145.33662983 -823.56640625 148.8984375 C-823.17259766 149.97867188 -822.77878906 151.05890625 -822.37304688 152.171875 C-821.96119141 153.29078125 -821.54933594 154.4096875 -821.125 155.5625 C-814.73951985 172.95360234 -814.73951985 172.95360234 -813.875 180.375 C-811.75155286 193.52720361 -806.46263941 205.91108743 -800.20166016 217.57861328 C-797.51019835 222.78707796 -796.60535438 227.64390558 -795.96484375 233.48046875 C-795.15513424 238.92832008 -792.11927532 241.78923614 -788.0625 245.125 C-783.37614751 249.07564554 -780.97454233 252.26737394 -780.11328125 258.37109375 C-779.11828299 279.26605711 -791.34405982 300.00086915 -803.5625 316.1875 C-804.08972656 316.91195313 -804.61695313 317.63640625 -805.16015625 318.3828125 C-815.55087352 331.51072639 -833.62074426 342.06163559 -849.5625 346.1875 C-853.81232281 346.67867567 -857.99169683 346.68167055 -862.265625 346.61328125 C-863.42825867 346.60999313 -864.59089233 346.60670502 -865.78875732 346.60331726 C-869.46373298 346.58771289 -873.13776387 346.54373535 -876.8125 346.5 C-879.29165919 346.4884924 -881.77082704 346.47871206 -884.25 346.47070312 C-886.6302176 346.45728265 -889.01042731 346.44236068 -891.390625 346.42578125 C-892.49287415 346.41839432 -893.59512329 346.41100739 -894.73077393 346.40339661 C-909.90929705 346.21639056 -909.90929705 346.21639056 -917.0390625 342.28515625 C-920.40021171 340.82310837 -923.87542693 340.10644861 -927.4375 339.3125 C-934.35873086 337.70350244 -939.80091069 335.4659079 -945.5625 331.1875 C-946.48804688 330.50429688 -947.41359375 329.82109375 -948.3671875 329.1171875 C-953.65759821 325.00242362 -957.90586964 320.83625829 -961.83203125 315.41796875 C-963.67828691 313.03825773 -965.68610689 311.06665126 -967.875 309 C-979.40270647 297.72715779 -990.8937227 281.20958644 -994.390625 265.45703125 C-995.48604429 261.02898982 -997.3655784 257.22949245 -999.4375 253.1875 C-1002.94187909 246.12620358 -1005.00406764 239.4051753 -1006.48046875 231.67578125 C-1007.81320062 227.37928466 -1009.42035324 225.36874035 -1012.5625 222.1875 C-1013.2225 222.1875 -1013.8825 222.1875 -1014.5625 222.1875 C-1014.79839844 221.68476563 -1015.03429687 221.18203125 -1015.27734375 220.6640625 C-1017.07331911 217.20312518 -1019.10398868 213.89573194 -1021.125 210.5625 C-1025.44256757 203.42736486 -1025.44256757 203.42736486 -1026.5625 201.1875 C-1037.44044885 201.92976004 -1048.43053236 203.38846371 -1058.28515625 208.21484375 C-1064.88127671 211.03205472 -1072.29022096 211.97130778 -1079.31445312 213.20825195 C-1086.28603427 214.44429353 -1092.94290922 216.10092991 -1099.70068359 218.21044922 C-1105.87435329 220.09206847 -1112.11663658 221.40041425 -1118.4375 222.6875 C-1125.52763673 224.14255036 -1131.80026413 225.78889331 -1138.26171875 229.1484375 C-1140.77189672 230.28206626 -1142.89966658 230.64860769 -1145.625 231 C-1160.28734992 233.32376654 -1174.19189379 242.45678987 -1187.171875 249.35058594 C-1192.88084374 252.36718096 -1198.44293343 255.11522624 -1204.5625 257.1875 C-1200.24018243 263.3740392 -1195.34252598 268.62480549 -1189.9375 273.875 C-1182.02778031 281.60124681 -1182.02778031 281.60124681 -1179.4140625 284.89453125 C-1177.5550932 287.36519928 -1177.5550932 287.36519928 -1174.64453125 289.51953125 C-1171.01930919 292.43722644 -1168.75281411 295.99501964 -1166.25 299.875 C-1158.76622211 310.99817516 -1150.99478705 319.0019964 -1139.94506836 326.63549805 C-1135.74760659 329.53734118 -1132.04985481 332.42166313 -1128.5625 336.1875 C-1124.88350254 340.09912727 -1121.28234737 343.4894055 -1116.8125 346.5 C-1113.05257915 349.03667823 -1109.78784554 351.75179619 -1106.5 354.875 C-1101.20516045 359.82897005 -1095.48766259 363.92732916 -1089.48803711 367.98901367 C-1085.42554937 370.76156851 -1081.94574475 373.58061704 -1078.5625 377.1875 C-1075.01570036 380.91279118 -1071.30936408 383.8816711 -1067.0625 386.75 C-1060.69455702 391.16734861 -1055.06669282 396.10491204 -1049.45703125 401.4375 C-1047.13682645 403.64185112 -1044.79373678 405.78102347 -1042.375 407.875 C-1041.75496094 408.41382813 -1041.13492187 408.95265625 -1040.49609375 409.5078125 C-1039.85800781 410.06210937 -1039.21992187 410.61640625 -1038.5625 411.1875 C-1017.01174909 429.96363924 -1017.01174909 429.96363924 -1010.0625 440.9375 C-1005.5660939 447.82026688 -1000.0423668 451.73772764 -993.23876953 456.10595703 C-985.6949451 460.97329496 -978.17645006 465.91808493 -972.5 472.9375 C-969.47412348 476.51353588 -966.07124378 479.06053685 -962.1875 481.625 C-955.5943993 485.99124826 -949.98176329 490.92856953 -945.01953125 497.109375 C-941.1611773 501.91000048 -936.83963994 505.30048232 -931.875 508.875 C-926.50535366 512.75194988 -921.81125173 516.70944567 -917.4375 521.6875 C-909.34060056 530.89856354 -899.92627453 538.38995121 -890.25 545.875 C-876.53310755 556.49624397 -876.53310755 556.49624397 -873.23828125 562.66796875 C-871.05299479 565.95353931 -868.25216031 567.63708303 -864.9375 569.625 C-863.6692342 570.41791015 -862.40100499 571.21087885 -861.1328125 572.00390625 C-859.09466125 573.2570433 -857.04913397 574.49255489 -854.9921875 575.71484375 C-849.20693651 579.29174624 -845.27492852 583.77717467 -841.1171875 589.08984375 C-838.63919392 591.58905642 -838.63919392 591.58905642 -834.8828125 591.10546875 C-831.5941415 590.43510383 -831.5941415 590.43510383 -829.5625 588.5625 C-827.94825009 584.72865645 -828.80385494 581.10175556 -830.31835938 577.28027344 C-831.26870307 575.28333589 -832.27498584 573.32802346 -833.3125 571.375 C-833.67375977 570.67213867 -834.03501953 569.96927734 -834.40722656 569.24511719 C-835.93866906 566.26845281 -837.49905333 563.30761908 -839.0625 560.34765625 C-845.09708704 548.71221812 -847.77436391 536.45823269 -850.1875 523.6875 C-850.34002228 522.88803955 -850.49254456 522.0885791 -850.64968872 521.26489258 C-853.86866787 504.31331082 -855.68697837 488.02901326 -855.8125 470.75 C-855.8220874 469.60015625 -855.8316748 468.4503125 -855.84155273 467.265625 C-855.77089184 449.44366307 -853.17886128 435.87745824 -840.30859375 422.91796875 C-830.92284262 414.86623301 -818.9171495 409.81788585 -807.40625 405.5859375 C-804.84898655 404.32838212 -802.99317463 403.03267641 -800.76953125 401.28515625 C-796.67806434 398.1291295 -792.53279908 396.14942284 -787.75 394.25 C-786.52482666 393.74968262 -786.52482666 393.74968262 -785.27490234 393.23925781 C-774.30410782 388.80224621 -763.24349569 384.49571823 -751.875 381.1875 C-731.52578691 375.07499873 -708.77539337 364.26300734 -698.37036133 344.93115234 C-696.73066761 341.72644948 -695.17029285 338.4870856 -693.6171875 335.23974609 C-692.5625 333.1875 -692.5625 333.1875 -690.59375 330.36328125 C-687.54869524 325.60245525 -685.64989387 320.42496098 -683.5625 315.1875 C-676.49720546 297.46003371 -676.49720546 297.46003371 -668.5625 293.1875 C-666.6232782 292.62424056 -664.68761465 292.18752371 -662.71044922 291.77856445 C-660.26427379 291.20014486 -660.26427379 291.20014486 -657.203125 289.27734375 C-650.19815632 285.67826714 -642.05767254 285.29695806 -634.359375 284.20898438 C-622.17579048 282.3444424 -622.17579048 282.3444424 -612.10571289 275.64624023 C-609.17902327 271.45426948 -608.46671393 267.54179472 -608.0703125 262.54125977 C-606.04731649 238.80898784 -596.28782518 218.38501366 -582.5625 199.1875 C-582.06363281 198.44242188 -581.56476562 197.69734375 -581.05078125 196.9296875 C-577.31043748 191.53949347 -572.93279979 187.90132972 -567.5625 184.1875 C-566.61044678 183.5059082 -565.65839355 182.82431641 -564.67749023 182.12207031 C-555.46342576 176.13885753 -547.97524084 175.03190403 -537.0949707 175.36425781 C-534.62997807 175.43735238 -532.17104422 175.4462933 -529.70507812 175.4453125 C-515.01148424 175.57695067 -499.70012258 177.67556264 -488.359375 187.796875 C-486.06391123 189.57336435 -483.61102429 190.86112168 -481.0625 192.25 C-476.13035376 195.05359978 -471.97790247 198.20189162 -467.75 201.9375 C-450.63170444 217.62745113 -450.63170444 217.62745113 -429.46484375 225.47265625 C-414.71068661 224.02305535 -397.89052468 205.09502884 -387.5625 195.1875 C-355.47290676 164.41429904 -355.47290676 164.41429904 -341.5625 163.5 C-331.24265788 164.17374765 -321.3474007 170.74065777 -314.5625 178.1875 C-311.30800519 182.18851552 -308.21322058 186.31069163 -305.13671875 190.44921875 C-298.11150014 200.16639506 -298.11150014 200.16639506 -288.5625 207.1875 C-280.27801904 208.05745312 -272.7229844 206.28545126 -264.73745728 204.25253296 C-251.99311053 201.03009675 -239.74376041 199.14883943 -226.54418945 199.39526367 C-224.17906481 199.14730001 -222.6653864 198.27755019 -220.5625 197.1875 C-213.81516644 195.33392553 -207.061679 195.03694875 -200.1000824 194.90327454 C-184.20677669 194.57152159 -172.89344849 193.00793493 -160.5625 182.1875 C-159.52738281 181.39214844 -158.49226563 180.59679687 -157.42578125 179.77734375 C-152.09826461 175.65633156 -147.43289435 171.07114739 -142.75 166.24609375 C-139.95569642 163.61645449 -136.91064745 161.681469 -133.68359375 159.62890625 C-127.23121462 155.24414032 -123.0537954 149.18219736 -118.6015625 142.890625 C-116.14659005 139.63614045 -113.4190547 136.87994599 -110.48046875 134.06640625 C-108.64132502 132.26471963 -106.97694345 130.40017303 -105.3125 128.4375 C-96.79002602 118.54987001 -87.27519606 108.56472712 -76.0625 101.8125 C-69.13485743 97.52943468 -64.50753642 91.93444219 -59.8125 85.375 C-57.60402663 82.32862346 -55.14859044 79.76143422 -52.42480469 77.16748047 C-37.43775882 62.85565437 -24.83304422 42.55907218 -17.5625 23.1875 C-17.5625 22.5275 -17.5625 21.8675 -17.5625 21.1875 C-18.54605469 21.2596875 -19.52960938 21.331875 -20.54296875 21.40625 C-28.90588951 21.98046643 -37.2415758 22.29461695 -45.625 22.3125 C-46.49213623 22.31701172 -47.35927246 22.32152344 -48.25268555 22.32617188 C-52.21224911 22.31701064 -55.99873065 22.17184424 -59.9140625 21.5625 C-63.53118773 21.19071839 -64.84311615 21.24211425 -67.875 23.0625 Z " fill="#E3181E" transform="translate(1286.5625,180.8125)"/>
<path d="M0 0 C4.3604287 2.22135047 7.20212362 4.40542702 9 9 C9.68031111 14.01414487 9.55368338 17.82874671 7.375 22.4375 C3.95222304 26.1304962 0.97865481 27.71144617 -4 28.4375 C-7.94665429 27.86194625 -9.96043437 26.56674431 -13 24 C-16.2937473 19.27896221 -16.91296574 14.59818552 -16 9 C-12.30762665 1.87899424 -8.21580055 -1.4247053 0 0 Z " fill="#A5A5A5" transform="translate(587,894)"/>
<path d="M0 0 C1.98 0 3.96 0 6 0 C9.93812943 7.50417718 13.20710418 15.1816955 16.3125 23.0625 C16.76689453 24.20138672 17.22128906 25.34027344 17.68945312 26.51367188 C21 34.85226739 21 34.85226739 21 36 C19.02 36 17.04 36 15 36 C13.68 32.7 12.36 29.4 11 26 C6.05 26 1.1 26 -4 26 C-5.32 29.3 -6.64 32.6 -8 36 C-9.65 36 -11.3 36 -13 36 C-10.76089995 27.92724259 -7.85969819 20.17339308 -4.8125 12.375 C-4.34908203 11.18003906 -3.88566406 9.98507812 -3.40820312 8.75390625 C-2.27551405 5.83460451 -1.13938352 2.91669396 0 0 Z " fill="#AAAAAA" transform="translate(740,885)"/>
<path d="M0 0 C2.375 1.5 2.375 1.5 4 3 C4.61875 2.690625 5.2375 2.38125 5.875 2.0625 C9.60302808 0.19848596 11.73647116 -0.50159163 16 0 C18.6796875 1.81640625 18.6796875 1.81640625 21 5 C21.61300388 8.78947856 21.47160829 12.48655762 21.3125 16.3125 C21.28994141 17.33923828 21.26738281 18.36597656 21.24414062 19.42382812 C21.18537575 21.9507179 21.10327849 24.47460255 21 27 C19.35 27 17.7 27 16 27 C15.97494385 26.36908447 15.9498877 25.73816895 15.92407227 25.08813477 C15.80845863 22.24603175 15.68557684 19.40428917 15.5625 16.5625 C15.52318359 15.56927734 15.48386719 14.57605469 15.44335938 13.55273438 C15.40146484 12.60849609 15.35957031 11.66425781 15.31640625 10.69140625 C15.27974854 9.81685791 15.24309082 8.94230957 15.20532227 8.04125977 C15.21818934 6.0072598 15.21818934 6.0072598 14 5 C11.58462162 4.58282721 11.58462162 4.58282721 9 5 C6.21197124 7.47899425 5.76719913 9.75910684 5.48828125 13.328125 C5.41553672 14.96818349 5.35737267 16.6089424 5.3125 18.25 C5.27833984 19.09046875 5.24417969 19.9309375 5.20898438 20.796875 C5.12676432 22.86412204 5.06169843 24.93203874 5 27 C3.68 27 2.36 27 1 27 C0.97494385 26.36908447 0.9498877 25.73816895 0.92407227 25.08813477 C0.80845863 22.24603175 0.68557684 19.40428917 0.5625 16.5625 C0.52318359 15.56927734 0.48386719 14.57605469 0.44335938 13.55273438 C0.38051758 12.13637695 0.38051758 12.13637695 0.31640625 10.69140625 C0.27974854 9.81685791 0.24309082 8.94230957 0.20532227 8.04125977 C0.21818934 6.0072598 0.21818934 6.0072598 -1 5 C-4.51745287 5.25248627 -4.51745287 5.25248627 -8 6 C-9.14654482 8.29308963 -9.19729117 9.79909656 -9.31640625 12.3515625 C-9.35830078 13.20234375 -9.40019531 14.053125 -9.44335938 14.9296875 C-9.48267578 15.81914063 -9.52199219 16.70859375 -9.5625 17.625 C-9.62727539 18.97078125 -9.62727539 18.97078125 -9.69335938 20.34375 C-9.79956861 22.56234283 -9.90161194 24.7810488 -10 27 C-11.65 27 -13.3 27 -15 27 C-15 18.42 -15 9.84 -15 1 C-13.68 1 -12.36 1 -11 1 C-10.67 1.66 -10.34 2.32 -10 3 C-9.46375 2.505 -8.9275 2.01 -8.375 1.5 C-5.31754465 -0.43102443 -3.561827 -0.44522837 0 0 Z " fill="#A8A8A8" transform="translate(779,894)"/>
<path d="M0 0 C2.0625 1.5625 2.0625 1.5625 3.0625 2.5625 C3.20709705 4.0140606 3.28947111 5.47195286 3.34375 6.9296875 C3.38113281 7.81527344 3.41851563 8.70085938 3.45703125 9.61328125 C3.50923828 11.01126953 3.50923828 11.01126953 3.5625 12.4375 C3.63144539 14.26838303 3.70420176 16.09912756 3.78125 17.9296875 C3.81154297 18.74550293 3.84183594 19.56131836 3.87304688 20.40185547 C3.9942238 22.74459314 3.9942238 22.74459314 5.0625 25.5625 C2.01863276 25.64476668 -0.00925348 25.53858217 -2.9375 24.5625 C-3.5975 24.8925 -4.2575 25.2225 -4.9375 25.5625 C-6.74593663 25.70966542 -8.56081566 25.7835887 -10.375 25.8125 C-11.82712891 25.85117187 -11.82712891 25.85117187 -13.30859375 25.890625 C-15.9375 25.5625 -15.9375 25.5625 -17.75390625 24.29296875 C-19.44722006 21.81726573 -19.47900167 19.43280031 -19.328125 16.49609375 C-18.9375 14.5625 -18.9375 14.5625 -17.1875 12.1875 C-12.32829376 9.75789688 -7.29317596 9.21167284 -1.9375 8.5625 C-1.9375 7.2425 -1.9375 5.9225 -1.9375 4.5625 C-4.34295638 3.35977181 -5.88746953 3.46178528 -8.5625 3.5 C-9.37976563 3.50902344 -10.19703125 3.51804687 -11.0390625 3.52734375 C-11.66554688 3.53894531 -12.29203125 3.55054688 -12.9375 3.5625 C-13.2675 4.8825 -13.5975 6.2025 -13.9375 7.5625 C-15.5875 7.5625 -17.2375 7.5625 -18.9375 7.5625 C-18.09111611 3.75377251 -17.54050851 1.99322036 -14.3125 -0.3125 C-9.19384133 -2.01871956 -5.01619851 -2.45473544 0 0 Z " fill="#AAAAAA" transform="translate(905.9375,895.4375)"/>
<path d="M0 0 C4.08998175 1.80720124 6.66247347 4.19069751 9 8 C9 10.31 9 12.62 9 15 C2.73 15 -3.54 15 -10 15 C-8.46687233 19.31608796 -8.46687233 19.31608796 -6 23 C-3.12635209 23.41746608 -3.12635209 23.41746608 0 23 C1.35368596 21.68733482 2.68799596 20.35432675 4 19 C6.75 18.75 6.75 18.75 9 19 C7.52937871 22.67655322 6.52292731 24.6513818 3.1875 26.875 C-0.27211749 28.09604147 -2.36993108 28.52938505 -6 28 C-9.88785685 25.86549035 -12.68517558 23.78487096 -15 20 C-15.88422781 15.14017427 -16.16575184 10.1033443 -13.72265625 5.6953125 C-9.47143942 0.68532103 -6.70068213 -0.45428353 0 0 Z " fill="#A7A7A7" transform="translate(820,894)"/>
<path d="M0 0 C2.91009669 2.35953786 4.55841707 4.56173225 6.3125 7.875 C6.3125 9.855 6.3125 11.835 6.3125 13.875 C-0.2875 13.875 -6.8875 13.875 -13.6875 13.875 C-11.2672509 19.50606761 -11.2672509 19.50606761 -8.6875 21.875 C-5.77211971 22.37542146 -5.77211971 22.37542146 -2.6875 21.875 C-1.31439293 20.58266393 0.02284824 19.25062854 1.3125 17.875 C2.6325 17.875 3.9525 17.875 5.3125 17.875 C5.25 20.125 5.25 20.125 4.3125 22.875 C0.39196201 25.97875924 -2.29369393 27.23124283 -7.3125 26.9375 C-11.73079511 26.21368374 -13.91115933 24.43218649 -16.6875 20.875 C-18.77832938 16.69334124 -18.12146477 11.42865777 -17.6875 6.875 C-16.48944271 3.60982832 -14.65919168 1.61214541 -11.875 -0.5 C-7.6562895 -1.70534586 -4.05636804 -1.69801453 0 0 Z " fill="#A7A7A7" transform="translate(704.6875,895.125)"/>
<path d="M0 0 C4.68683436 1.6801859 7.28627194 3.82503376 10 8 C10 8.99 10 9.98 10 11 C6.80814911 10.6453499 5.36354547 10.38778183 3.125 8 C0.14897952 5.19903955 -1.96179835 5.06962417 -6 5 C-9.83757976 6.25459338 -11.52627088 7.33677924 -13.875 10.625 C-15.88830323 16.66490969 -15.89646033 21.70795931 -13.125 27.5 C-11.64106423 30.32542877 -11.64106423 30.32542877 -9 32 C-5.94079426 32.42071592 -3.0532254 32.48514117 0 32 C2.75569447 29.81840855 4.43588747 28.12822506 6 25 C7.65 25 9.3 25 11 25 C10.49430263 29.42485195 9.10058108 31.81561943 6 35 C1.38362057 38.04261372 -2.61439325 38.77708153 -8 38 C-13.16064968 36.17859423 -15.82703909 33.40689015 -19 29 C-21.94608579 22.8101403 -22.02006242 16.18019459 -19.9375 9.6875 C-14.52051288 2.17361463 -9.18281446 -0.85169443 0 0 Z " fill="#A7A7A7" transform="translate(435,884)"/>
<path d="M0 0 C1.65 0 3.3 0 5 0 C5.33 3.63 5.66 7.26 6 11 C6.99 10.34 7.98 9.68 9 9 C13.17262337 8.53637518 15.28714371 8.5505906 18.875 10.8125 C21.93650945 13.96405384 22.12447679 16.45714433 22.09765625 20.66796875 C22.09443359 21.56064453 22.09121094 22.45332031 22.08789062 23.37304688 C22.07951172 24.30181641 22.07113281 25.23058594 22.0625 26.1875 C22.05798828 27.12787109 22.05347656 28.06824219 22.04882812 29.03710938 C22.03704626 31.35813712 22.02059558 33.67903644 22 36 C20.35 36 18.7 36 17 36 C16.98018066 35.40461426 16.96036133 34.80922852 16.93994141 34.19580078 C16.84483874 31.50507847 16.73510158 28.81514852 16.625 26.125 C16.5940625 25.18785156 16.563125 24.25070312 16.53125 23.28515625 C16.49257813 22.38925781 16.45390625 21.49335937 16.4140625 20.5703125 C16.3826416 19.74289551 16.3512207 18.91547852 16.31884766 18.06298828 C16.17400863 15.78013915 16.17400863 15.78013915 14 14 C9.65805064 14.09695116 9.65805064 14.09695116 6 16 C5.84344973 17.48638992 5.74933057 18.97949127 5.68359375 20.47265625 C5.64169922 21.37177734 5.59980469 22.27089844 5.55664062 23.19726562 C5.49766602 24.61555664 5.49766602 24.61555664 5.4375 26.0625 C5.37272461 27.4865918 5.37272461 27.4865918 5.30664062 28.93945312 C5.20020724 31.29281353 5.09818992 33.64628354 5 36 C3.35 36 1.7 36 0 36 C0 24.12 0 12.24 0 0 Z " fill="#A4A4A4" transform="translate(660,885)"/>
<path d="M0 0 C2.625 1.8125 2.625 1.8125 3.5 4.5 C3.54125 5.263125 3.5825 6.02625 3.625 6.8125 C1.15 6.3175 1.15 6.3175 -1.375 5.8125 C-1.375 5.1525 -1.375 4.4925 -1.375 3.8125 C-4.345 3.8125 -7.315 3.8125 -10.375 3.8125 C-10.375 5.1325 -10.375 6.4525 -10.375 7.8125 C-9.54355469 8.06644531 -8.71210937 8.32039062 -7.85546875 8.58203125 C-6.76878906 8.92621094 -5.68210937 9.27039063 -4.5625 9.625 C-2.94408203 10.12966797 -2.94408203 10.12966797 -1.29296875 10.64453125 C1.47125156 11.75095946 2.87293977 12.45050754 4.625 14.8125 C5.125 17.6875 5.125 17.6875 4.625 20.8125 C2.452365 23.38535724 0.64506162 25.30246919 -2.375 26.8125 C-7.40128116 27.19184197 -10.30358056 26.83698301 -14.375 23.8125 C-15.035 23.1525 -15.695 22.4925 -16.375 21.8125 C-16.375 20.4925 -16.375 19.1725 -16.375 17.8125 C-15.055 17.8125 -13.735 17.8125 -12.375 17.8125 C-11.941875 18.4725 -11.50875 19.1325 -11.0625 19.8125 C-10.2271875 20.8025 -10.2271875 20.8025 -9.375 21.8125 C-5.74936186 22.14630814 -5.74936186 22.14630814 -2.375 21.8125 C-2.045 20.1625 -1.715 18.5125 -1.375 16.8125 C-2.20644531 16.57015625 -3.03789063 16.3278125 -3.89453125 16.078125 C-4.98121094 15.74296875 -6.06789063 15.4078125 -7.1875 15.0625 C-8.26644531 14.73765625 -9.34539063 14.4128125 -10.45703125 14.078125 C-13.6030424 12.71359004 -14.77255728 11.80934901 -16.375 8.8125 C-16.375 5.25 -16.375 5.25 -15.375 1.8125 C-10.75306834 -2.40161416 -5.6369533 -1.98337246 0 0 Z " fill="#A7A7A7" transform="translate(931.375,895.1875)"/>
<path d="M0 0 C9.57 0 19.14 0 29 0 C29 1.32 29 2.64 29 4 C25.04 4 21.08 4 17 4 C17 14.56 17 25.12 17 36 C15.35 36 13.7 36 12 36 C12 25.44 12 14.88 12 4 C8.04 4 4.08 4 0 4 C0 2.68 0 1.36 0 0 Z " fill="#ADADAD" transform="translate(627,885)"/>
<path d="M0 0 C2.63877763 1.40289443 3.92992249 2.72291474 6 5 C6 6.32 6 7.64 6 9 C4.68 9 3.36 9 2 9 C1.319375 8.01 1.319375 8.01 0.625 7 C-0.89599894 4.67719799 -0.89599894 4.67719799 -4 4.5 C-6.98613777 4.75632368 -6.98613777 4.75632368 -8.875 6.4375 C-11.01450223 11.31081064 -10.68827538 16.12636146 -8.875 21.0625 C-7.08474591 23.27536511 -7.08474591 23.27536511 -4 23.625 C-3.01 23.41875 -2.02 23.2125 -1 23 C0.03013277 21.35178756 1.03114628 19.68496298 2 18 C4.6875 17.6875 4.6875 17.6875 7 18 C6.10732939 21.92775068 5.33981284 23.70652528 2.25 26.375 C-1.34334126 28.17167063 -3.05397137 28.65767144 -7 28 C-11.84973524 25.52758595 -14.24513429 23.16710458 -16 18 C-16.69609825 13.2132503 -16.49794885 9.96032992 -14.25 5.625 C-10.03181108 0.70377959 -6.70901445 -1.38807195 0 0 Z " fill="#A5A5A5" transform="translate(877,894)"/>
<path d="M0 0 C4.22151156 0.86153297 5.60819464 2.08791287 8.0625 5.625 C8.88689171 9.92583602 8.45429256 13.51876218 7 17.625 C5.0625 19.625 5.0625 19.625 1.625 20.625 C-1.9375 20.625 -1.9375 20.625 -4.3125 19.375 C-7.42271127 16.02554171 -7.27851173 12.19196574 -7.21484375 7.85546875 C-6.63201386 3.16820301 -4.52583018 0.96294259 0 0 Z " fill="#040404" transform="translate(582.9375,897.375)"/>
<path d="M0 0 C1.32 0 2.64 0 4 0 C4.02187378 0.83978394 4.02187378 0.83978394 4.04418945 1.6965332 C4.11871352 4.23588137 4.21535581 6.77392078 4.3125 9.3125 C4.33505859 10.19357422 4.35761719 11.07464844 4.38085938 11.98242188 C4.41630859 12.82998047 4.45175781 13.67753906 4.48828125 14.55078125 C4.51446533 15.33106689 4.54064941 16.11135254 4.56762695 16.9152832 C5.10495225 19.50603459 5.87819375 20.44758827 8 22 C11.08333333 22 11.08333333 22 14 21 C16.0140956 17.9788566 16.26836596 17.19339983 16.4140625 13.76953125 C16.45273437 12.96708984 16.49140625 12.16464844 16.53125 11.33789062 C16.57765625 10.08782227 16.57765625 10.08782227 16.625 8.8125 C16.66367187 7.96751953 16.70234375 7.12253906 16.7421875 6.25195312 C16.83636279 4.16832476 16.91926675 2.08419247 17 0 C18.32 0 19.64 0 21 0 C21 8.58 21 17.16 21 26 C19.68 26 18.36 26 17 26 C16.67 25.34 16.34 24.68 16 24 C15.34 24.66 14.68 25.32 14 26 C11.7578125 26.3359375 11.7578125 26.3359375 9.125 26.375 C8.26132812 26.40335938 7.39765625 26.43171875 6.5078125 26.4609375 C4 26 4 26 1.6953125 24.6796875 C-1.06632468 20.31451905 -0.41634408 15.79150512 -0.25 10.75 C-0.23195313 9.71875 -0.21390625 8.6875 -0.1953125 7.625 C-0.14822712 5.08238936 -0.0824805 2.54166838 0 0 Z " fill="#B0B0B0" transform="translate(505,895)"/>
<path d="M0 0 C2.1875 1.6875 2.1875 1.6875 4.1875 4.6875 C4.1875 5.6775 4.1875 6.6675 4.1875 7.6875 C2.5375 7.6875 0.8875 7.6875 -0.8125 7.6875 C-1.1425 6.6975 -1.4725 5.7075 -1.8125 4.6875 C-4.64133747 3.27308126 -6.68626745 3.36849668 -9.8125 3.6875 C-12.61465838 6.56201459 -13.24395509 8.72203638 -13.25 12.6875 C-13.140069 16.07537366 -12.99149511 17.40906316 -11.125 20.3125 C-8.30177154 21.99117638 -7.03255492 22.41201236 -3.8125 21.6875 C-2.45422029 20.04110035 -1.11995749 18.37454193 0.1875 16.6875 C1.5075 16.6875 2.8275 16.6875 4.1875 16.6875 C3.88929167 20.26599992 3.44504642 21.44976484 0.75 23.9375 C-3.08376937 26.55568396 -5.13235709 27.13751374 -9.8125 26.6875 C-13.7831423 24.54946184 -16.21905983 22.91961861 -17.8125 18.6875 C-18.1484375 15.62890625 -18.1484375 15.62890625 -18.1875 12.25 C-18.21585937 11.13753906 -18.24421875 10.02507813 -18.2734375 8.87890625 C-17.71941808 5.04302603 -16.46933564 3.44862265 -13.8125 0.6875 C-9.57579287 -2.38046033 -4.61958151 -2.15580471 0 0 Z " fill="#A8A8A8" transform="translate(496.8125,895.3125)"/>
<path d="M0 0 C0 2.97 0 5.94 0 9 C1.32 9 2.64 9 4 9 C4 9.99 4 10.98 4 12 C2.68 12 1.36 12 0 12 C0 18.27 0 24.54 0 31 C1.65 31 3.3 31 5 31 C5 32.32 5 33.64 5 35 C-1.48484329 35.3670666 -1.48484329 35.3670666 -3.7121582 33.7800293 C-5.37442495 31.48247728 -5.34679997 30.14919865 -5.29296875 27.33203125 C-5.28330078 26.43935547 -5.27363281 25.54667969 -5.26367188 24.62695312 C-5.23853516 23.69818359 -5.21339844 22.76941406 -5.1875 21.8125 C-5.16719727 20.40194336 -5.16719727 20.40194336 -5.14648438 18.96289062 C-5.11113096 16.64134962 -5.06178674 14.32096347 -5 12 C-5.99 12 -6.98 12 -8 12 C-8 11.01 -8 10.02 -8 9 C-7.01 9 -6.02 9 -5 9 C-5.061875 7.88625 -5.12375 6.7725 -5.1875 5.625 C-5.125625 4.42875 -5.06375 3.2325 -5 2 C-2 0 -2 0 0 0 Z " fill="#A5A5A5" transform="translate(550,886)"/>
<path d="M0 0 C0 1.32 0 2.64 0 4 C-1.98 4.66 -3.96 5.32 -6 6 C-6.33 7.65 -6.66 9.3 -7 11 C-5.35 11 -3.7 11 -2 11 C-2 11.99 -2 12.98 -2 14 C-3.65 14 -5.3 14 -7 14 C-7 21.59 -7 29.18 -7 37 C-8.32 37 -9.64 37 -11 37 C-11 29.41 -11 21.82 -11 14 C-12.32 14 -13.64 14 -15 14 C-15 13.01 -15 12.02 -15 11 C-13.68 11 -12.36 11 -11 11 C-11.0825 9.9275 -11.165 8.855 -11.25 7.75 C-11 4 -11 4 -9.4375 1.5625 C-6.18129203 -0.5248128 -3.79004984 -0.2915423 0 0 Z " fill="#B1B1B1" transform="translate(613,884)"/>
<path d="M0 0 C2.33944736 0.28730055 4.6739143 0.61936779 7 1 C6.67 2.32 6.34 3.64 6 5 C4.865625 5.309375 3.73125 5.61875 2.5625 5.9375 C-0.78775099 6.62924531 -0.78775099 6.62924531 -2 8 C-2.15620555 9.41327947 -2.25056173 10.8335459 -2.31640625 12.25390625 C-2.35830078 13.10791016 -2.40019531 13.96191406 -2.44335938 14.84179688 C-2.50233398 16.18854492 -2.50233398 16.18854492 -2.5625 17.5625 C-2.60568359 18.46419922 -2.64886719 19.36589844 -2.69335938 20.29492188 C-2.79978142 22.52978485 -2.90179988 24.76476308 -3 27 C-4.65 27 -6.3 27 -8 27 C-8 18.42 -8 9.84 -8 1 C-5.66666667 1 -3.33333333 1 -1 1 C-0.67 0.67 -0.34 0.34 0 0 Z " fill="#A0A0A0" transform="translate(842,894)"/>
<path d="M0 0 C0.928125 0.20625 1.85625 0.4125 2.8125 0.625 C2.4825 2.275 2.1525 3.925 1.8125 5.625 C0.843125 5.604375 -0.12625 5.58375 -1.125 5.5625 C-4.06215895 5.26881501 -4.06215895 5.26881501 -5.1875 6.625 C-5.34405027 8.11138992 -5.43816943 9.60449127 -5.50390625 11.09765625 C-5.54580078 11.99677734 -5.58769531 12.89589844 -5.63085938 13.82226562 C-5.68983398 15.24055664 -5.68983398 15.24055664 -5.75 16.6875 C-5.81477539 18.1115918 -5.81477539 18.1115918 -5.88085938 19.56445312 C-5.98729276 21.91781353 -6.08931008 24.27128354 -6.1875 26.625 C-7.8375 26.625 -9.4875 26.625 -11.1875 26.625 C-11.1875 18.045 -11.1875 9.465 -11.1875 0.625 C-8.7125 1.12 -8.7125 1.12 -6.1875 1.625 C-3.1875 -0.375 -3.1875 -0.375 0 0 Z " fill="#A6A6A6" transform="translate(474.1875,894.375)"/>
<path d="M0 0 C1.65 0 3.3 0 5 0 C5 8.58 5 17.16 5 26 C3.35 26 1.7 26 0 26 C0 17.42 0 8.84 0 0 Z " fill="#A2A2A2" transform="translate(851,895)"/>
<path d="M0 0 C1.65 0 3.3 0 5 0 C5 8.58 5 17.16 5 26 C3.35 26 1.7 26 0 26 C0 17.42 0 8.84 0 0 Z " fill="#A2A2A2" transform="translate(533,895)"/>
<path d="M0 0 C-0.48355011 6.40703902 -0.48355011 6.40703902 -2.6875 8.9375 C-5.66455559 10.30533635 -7.75641537 10.34506219 -11 10 C-11.99 9.34 -12.98 8.68 -14 8 C-13.75 5.625 -13.75 5.625 -13 3 C-9.28892095 0.25105255 -4.49583229 0 0 0 Z " fill="#0F0F0F" transform="translate(905,908)"/>
<path d="M0 0 C1.32 0 2.64 0 4 0 C4 8.58 4 17.16 4 26 C2.68 26 1.36 26 0 26 C0 17.42 0 8.84 0 0 Z " fill="#B4B4B4" transform="translate(452,895)"/>
<path d="M0 0 C1.9009762 2.8514643 2.96265899 5.29710476 4.125 8.5 C4.47820313 9.4590625 4.83140625 10.418125 5.1953125 11.40625 C6 14 6 14 6 17 C2.37 17 -1.26 17 -5 17 C-4.35083537 10.99522721 -2.14204997 5.599219 0 0 Z " fill="#090909" transform="translate(743,889)"/>
<path d="M0 0 C2.375 1.8125 2.375 1.8125 4 4 C4 4.99 4 5.98 4 7 C-0.62 7 -5.24 7 -10 7 C-8.45570268 0.82281074 -6.50414829 -0.92916404 0 0 Z " fill="#030303" transform="translate(820,898)"/>
<path d="M0 0 C2.375 1.8125 2.375 1.8125 4 4 C4 4.99 4 5.98 4 7 C-0.62 7 -5.24 7 -10 7 C-9.67 5.35 -9.34 3.7 -9 2 C-5.50875983 -0.32749345 -4.10777749 -0.50299316 0 0 Z " fill="#040404" transform="translate(702,898)"/>
<path d="M0 0 C1.65 0 3.3 0 5 0 C5 1.65 5 3.3 5 5 C3.35 5 1.7 5 0 5 C0 3.35 0 1.7 0 0 Z " fill="#9D9D9D" transform="translate(851,885)"/>
<path d="M0 0 C1.65 0 3.3 0 5 0 C5 1.65 5 3.3 5 5 C3.35 5 1.7 5 0 5 C0 3.35 0 1.7 0 0 Z " fill="#9D9D9D" transform="translate(533,885)"/>
<path d="M0 0 C1.32 0 2.64 0 4 0 C4 1.65 4 3.3 4 5 C2.68 5 1.36 5 0 5 C0 3.35 0 1.7 0 0 Z " fill="#AFAFAF" transform="translate(452,885)"/>
</svg>
